<svg width="60" height="60" viewBox="0 0 60 60" fill="none" xmlns="http://www.w3.org/2000/svg">
<path d="M23.5556 30.2751C24.8397 30.2751 25.8807 29.2341 25.8807 27.95C25.8807 26.666 24.8397 25.625 23.5556 25.625C22.2715 25.625 21.2305 26.666 21.2305 27.95C21.2305 29.2341 22.2715 30.2751 23.5556 30.2751Z" fill="#C3B7D2"/>
<path d="M38.5771 28.8801C39.0959 27.7052 38.564 26.3322 37.389 25.8134C36.214 25.2946 34.8409 25.8266 34.3222 27.0015C33.8034 28.1764 34.3353 29.5495 35.5103 30.0682C36.6853 30.587 38.0583 30.0551 38.5771 28.8801Z" fill="#C3B7D2"/>
<path d="M38.2522 38.0524C37.2167 38.0524 36.3772 38.8918 36.3772 39.9274C36.3772 42.2764 31.9318 41.6684 31.9318 38.0945L32.9383 36.6387C33.6652 35.5874 32.9127 34.1523 31.6345 34.1523H28.3677C27.0895 34.1523 26.3371 35.5874 27.0638 36.6387C28.2212 38.3127 28.0704 38.0161 28.0704 38.2958C28.0704 39.9712 26.7074 41.3343 25.0318 41.3343C24.256 41.3343 23.625 40.7031 23.625 39.9274C23.625 38.8918 22.7855 38.0524 21.75 38.0524C20.7145 38.0524 19.875 38.8918 19.875 39.9274C19.875 42.7708 22.1884 45.0841 25.0318 45.0841C26.9925 45.0841 28.7607 44.2477 30.001 42.914C31.2415 44.2477 33.0096 45.0841 34.9702 45.0841C37.8137 45.0841 40.1271 42.7708 40.1271 39.9274C40.1272 38.8918 39.2876 38.0524 38.2522 38.0524Z" fill="#C3B7D2"/>
<path d="M59.9913 29.9321C59.8925 28.9012 58.9754 28.1451 57.9459 28.2448L55.0275 28.5246C54.7916 24.2376 53.2724 20.1719 50.6402 16.6947L50.0845 3.8114C49.9429 0.529923 46.1054 -1.17462 43.5756 0.918737L35.7543 7.39088C32.1046 6.61032 28.1437 6.55712 24.2457 7.39088L16.4243 0.918737C13.8935 -1.17533 10.0569 0.530861 9.91547 3.8114L9.35977 16.6947C6.72763 20.1718 5.20842 24.2375 4.97252 28.5246L2.05409 28.2448C1.02354 28.1452 0.107491 28.9014 0.00870269 29.9321C-0.0902033 30.9628 0.665302 31.8785 1.69608 31.9774L5.09943 32.3038C5.30779 34.0069 5.72052 35.6675 6.32697 37.2619L4.77295 37.5771C3.75811 37.783 3.10221 38.7725 3.30811 39.7873C3.48846 40.6764 4.27021 41.2898 5.14373 41.2898C5.39978 41.2898 5.25459 41.3055 8.02337 40.744C9.26485 42.8051 10.8471 44.6797 12.7459 46.3304C10.9329 50.5195 11.2087 53.4877 11.2087 58.1251C11.2087 59.1606 12.0483 60 13.0837 60H46.9163C47.9517 60 48.7913 59.1606 48.7913 58.1251C48.7913 53.5004 49.0664 50.5179 47.2541 46.3304C49.1591 44.6741 50.7392 42.7985 51.9766 40.744L54.4816 41.2521C55.4986 41.4584 56.4866 40.8 56.6919 39.7873C56.8978 38.7725 56.2419 37.783 55.2271 37.5771L53.673 37.2619C54.2795 35.6675 54.6922 34.0069 54.9006 32.3038L58.3039 31.9774C59.3347 31.8785 60.0901 30.9628 59.9913 29.9321ZM45.9662 3.80777C46.1128 3.68625 46.3299 3.78257 46.3378 3.97288L46.711 12.6225C44.7098 10.9815 42.4655 9.66376 40.0558 8.69852L45.9662 3.80777ZM13.7966 3.77519C13.9945 3.6873 13.524 3.38615 19.944 8.69864C17.5343 9.66388 15.2901 10.9816 13.2888 12.6226C13.699 3.1144 13.612 3.8571 13.7966 3.77519ZM45.0412 56.2503H14.9586C14.9586 53.4551 14.8198 51.4977 15.8608 48.637C24.2289 53.8859 35.5401 54.0307 44.139 48.637C45.1756 51.4851 45.0412 53.4612 45.0412 56.2503ZM49.9255 36.5019L42.7214 35.0407C41.7061 34.8348 40.7171 35.4907 40.5112 36.5055C40.3053 37.5203 40.9612 38.5098 41.976 38.7157L48.0117 39.9399C39.6241 51.8438 20.3815 51.8517 11.9883 39.9399L18.024 38.7157C19.0388 38.5098 19.6947 37.5203 19.4888 36.5055C19.2829 35.4908 18.2944 34.8348 17.2786 35.0407L10.0745 36.5019C9.5577 35.2798 9.1752 33.9987 8.94528 32.6726L16.2537 33.3734C17.2844 33.4722 18.2003 32.7167 18.299 31.6861C18.3979 30.6554 17.6424 29.7397 16.6117 29.6408L8.71079 28.8831C9.19172 18.6927 18.5563 10.5354 30.0002 10.5354C41.4441 10.5354 50.8088 18.6928 51.2896 28.8831L43.3887 29.6408C42.3579 29.7397 41.6024 30.6554 41.7013 31.6861C41.8001 32.7167 42.7158 33.4724 43.7467 33.3734L51.0551 32.6726C50.8248 33.9987 50.4423 35.2798 49.9255 36.5019Z" fill="#C3B7D2"/>
</svg>
