<svg width="60" height="60" viewBox="0 0 60 60" fill="none" xmlns="http://www.w3.org/2000/svg">
<path d="M59.8292 42.0984L58.2498 39.7956C56.9621 37.9177 55.8739 34.4249 55.8739 32.1683V27.8799C55.8739 24.7548 53.2584 22.2123 50.0436 22.2123H45.8017C44.9905 21.6313 44.1091 21.2356 43.2342 20.9715C44.4375 19.4382 44.8293 17.3992 44.1661 15.465C43.7018 14.1113 42.7526 12.9611 41.4934 12.2267L37.3772 9.8261C34.7713 8.30613 31.9388 7.24169 28.9581 6.66216L25.2914 5.94948C25.1684 5.50903 24.9778 5.0839 24.7191 4.68766L23.9095 3.44733C23.4203 2.69785 22.6602 2.17835 21.7692 1.98468C20.8772 1.79051 19.9628 1.94614 19.192 2.42167L18.423 2.89597C17.652 3.37125 17.1176 4.11011 16.9183 4.97619C16.7717 5.61377 16.821 6.2637 17.0517 6.86151C15.9473 5.74173 14.5823 4.87763 13.0542 4.33145C13.1696 3.48068 12.9579 2.81395 12.7185 2.36115C11.8214 0.662831 9.64735 0.0897255 9.40237 0.0299447C9.09563 -0.045399 8.76983 0.0232749 8.5218 0.215216C8.27402 0.40691 8.13247 0.699885 8.13857 1.00768L8.16398 2.26604C7.82344 1.833 7.33399 1.41281 6.62877 1.07018C6.12686 0.826116 5.51618 1.02374 5.26485 1.51211C5.01402 2.00024 5.21732 2.5936 5.71949 2.83767C6.6646 3.29689 6.8519 3.95349 6.88214 4.29168C5.63537 5.01991 4.77285 6.30866 4.66916 7.79725L0.491235 14.1758C-0.429484 15.5819 -0.0180446 17.4778 1.4084 18.4022C2.49913 19.1092 3.90143 19.0973 4.9792 18.3708C5.01631 18.3459 5.05138 18.3187 5.08467 18.289L9.55078 14.3344C9.63896 14.3761 9.71622 14.4398 9.79195 14.5295C10.7231 15.6327 10.4883 19.3443 10.0207 21.6671C8.47733 26.2147 9.13299 29.5429 10.4479 31.8911L1.97918 33.7204C1.61704 33.7987 1.32758 34.0625 1.22364 34.4089C1.11996 34.7549 1.21856 35.1287 1.48108 35.3839L6.5688 40.3294C6.52254 40.385 6.47909 40.443 6.44605 40.5075L1.2915 50.5302C1.28819 50.5366 1.28895 50.5423 1.28743 50.5485C1.1347 50.8607 1.15096 51.2401 1.37079 51.5427L4.3515 55.6409C4.54972 55.9134 4.86383 56.0584 5.18276 56.0584C5.38556 56.0584 5.59039 55.9996 5.76879 55.8773C6.22724 55.5624 6.33576 54.9458 6.01199 54.4999L3.48211 51.0215L9.20465 44.3466L10.4306 44.0817L11.7935 45.4066C11.9917 45.5995 12.2522 45.6961 12.5122 45.6961C12.7722 45.6961 13.0326 45.5995 13.2309 45.4066C13.6278 45.0207 13.6278 44.395 13.2309 44.0094L12.7826 43.5736L16.6916 42.729C19.3826 42.1475 21.2619 39.8704 21.2619 37.1906V36.8989C25.1514 37.3497 28.5093 37.3297 31.274 36.8406C31.3776 37.2591 31.5118 37.6686 31.6613 38.0718L30.4546 39.2449C30.1212 39.569 30.0607 40.0732 30.3088 40.463C30.4978 40.7607 30.8287 40.9316 31.1736 40.9316C31.2806 40.9316 31.3888 40.9153 31.4948 40.881L32.8054 40.4564C33.459 41.5623 34.2082 42.5529 34.9146 43.3807L32.6597 44.1601C32.2483 44.3021 31.9932 44.6758 31.9871 45.0765C31.9863 45.0817 31.9837 45.0852 31.9837 45.0911V50.2419C31.9837 50.7876 32.4389 51.23 33.0003 51.23C33.5617 51.23 34.0168 50.7876 34.0168 50.2419V45.7885L36.3917 44.9676C36.6168 45.1894 36.8184 45.3791 36.9851 45.5321L34.6427 52.5034L29.6394 58.382C29.2935 58.7886 29.3372 59.3874 29.7385 59.7426C29.9329 59.9145 30.1779 60 30.4224 60C30.6831 60 30.9433 59.9029 31.1413 59.7105L42.7414 48.4346C43.0136 48.1701 43.1086 47.7788 42.9871 47.4235L41.8395 44.0771L42.5551 42.8246C42.6021 42.8155 42.6489 42.8049 42.6954 42.7888L48.2436 40.8711C48.5824 40.754 48.8319 40.4722 48.9008 40.1293C48.9697 39.7862 48.8469 39.4339 48.5783 39.2017L45.9318 36.9152L48.4794 32.4571C48.4863 32.4445 48.4934 32.4319 48.5 32.4191C48.6464 32.1342 48.7692 31.8413 48.8736 31.5438V35.7554C48.8736 41.6843 58.3858 43.5408 58.7903 43.6166C58.8549 43.6289 58.9194 43.6346 58.9837 43.6346C59.3194 43.6346 59.6391 43.4726 59.83 43.1937C60.0569 42.8619 60.0567 42.4296 59.8292 42.0984ZM36.3314 11.5205L40.4476 13.9211C41.2906 14.4129 41.9261 15.1831 42.2372 16.09C42.853 17.8854 42.117 19.8191 40.4476 20.7929L34.4592 24.2854C34.1083 24.4899 33.9179 24.879 33.9759 25.2725L35.3378 34.5393L31.2132 25.1836C30.7639 24.1651 30.9949 23.0009 31.8008 22.2173L33.7967 20.2774C34.1002 19.9824 34.1805 19.5341 33.9972 19.1568C33.814 18.7796 33.4066 18.5536 32.9799 18.5951L27.154 19.1433L29.338 17.8693C29.6452 17.69 29.832 17.3664 29.8307 17.0183C29.8295 16.6703 29.6389 16.3476 29.3306 16.1705C29.2861 16.1451 24.9141 13.5913 26.3685 10.7638C26.5113 10.4857 26.5113 10.1583 26.3685 9.87995L25.4663 8.12605C25.4391 8.07318 25.4061 8.02551 25.371 7.97981L28.5596 8.5996C31.3111 9.13466 33.9258 10.1173 36.3314 11.5205ZM35.7607 37.4157L34.9365 37.6827L35.692 36.9483L35.7607 37.4157ZM30.2567 20.9312H29.2526L30.3553 20.8275C30.321 20.8611 30.2897 20.8969 30.2567 20.9312ZM24.2584 10.1971L24.3372 10.3503C23.2825 13.0478 25.1415 15.49 26.958 16.9529L22.9275 19.3036C22.7496 19.0825 22.636 18.8108 22.6096 18.5165C22.3928 16.1095 21.7189 14.0041 20.8419 12.2025C20.9016 12.2129 20.9615 12.2218 21.0215 12.2218C21.2129 12.2218 21.402 12.1692 21.5661 12.0679L23.2617 11.0222C23.6373 10.7902 23.97 10.5111 24.2584 10.1971ZM19.5125 4.56415L20.2817 4.08985C20.5064 3.95127 20.761 3.87988 21.0208 3.87988C21.1222 3.87988 21.2243 3.89075 21.3257 3.91298C21.6868 3.99129 21.9948 4.20176 22.1928 4.50536L23.0025 5.74593C23.3875 6.33534 23.513 7.03542 23.3562 7.71672C23.1994 8.39803 22.7791 8.97928 22.1727 9.35328L21.3354 9.86957L19.0853 6.42205C18.6759 5.79534 18.8678 4.96186 19.5125 4.56415ZM8.24251 39.1607L5.75557 36.7433H11.8705L8.24251 39.1607ZM12.7905 34.7671H6.50704L11.6824 33.6493C12.0461 34.0704 12.4217 34.4415 12.7905 34.7671ZM33.0874 35.5351C33.0493 35.2577 32.8918 35.0094 32.6544 34.851C32.417 34.6929 32.122 34.6403 31.8419 34.7055C28.8866 35.3975 25.0327 35.4279 20.3864 34.796C20.0934 34.7562 19.8002 34.8414 19.5783 35.0289C19.3565 35.2164 19.2289 35.4884 19.2289 35.7744V37.1906C19.2289 38.9369 18.0042 40.421 16.2502 40.8L8.42472 42.4906C8.2054 42.5378 8.0082 42.6547 7.86436 42.8226L7.02649 43.8001L8.14797 41.6196L16.1285 36.3018C16.4197 36.1077 16.5867 35.7804 16.5689 35.4375C16.5511 35.0946 16.3519 34.7851 16.0421 34.6201C13.9269 33.4939 9.29589 30.0323 11.9706 22.2319C11.9841 22.1931 11.9948 22.1535 12.0029 22.1133C12.0164 22.0488 12.3287 20.5148 12.4334 18.7095C12.5854 16.0868 12.2359 14.3099 11.3648 13.2771C10.823 12.6346 10.0845 12.2949 9.2293 12.2949C8.97619 12.2949 8.73197 12.3868 8.54492 12.5525L3.77386 16.7772C3.39266 17.0077 2.91311 17.002 2.53674 16.758C2.0234 16.4252 1.87524 15.7429 2.20662 15.237L6.53296 8.63196C6.6369 8.47337 6.69205 8.28933 6.69205 8.10135C6.69205 6.74145 7.83031 5.63502 9.2293 5.63502C9.50224 5.63502 9.764 5.5283 9.9551 5.33858C10.1462 5.14911 10.2509 4.8927 10.2456 4.62739L10.2034 2.53358C10.4939 2.73021 10.7577 2.97403 10.9104 3.26379C11.1114 3.64421 11.103 4.0901 10.885 4.62714C10.7785 4.88924 10.7925 5.18295 10.9226 5.43443C11.053 5.6859 11.2878 5.87142 11.5676 5.94429C13.1523 6.35683 14.562 7.16684 15.6438 8.28662C17.6581 10.3715 20.1501 13.8687 20.5842 18.6887C20.7072 20.0615 21.6502 21.2282 22.9867 21.6612L25.1189 22.3519C26.2569 22.7207 27.4419 22.9077 28.6412 22.9077H29.1161C28.8412 23.8978 28.9065 24.9699 29.3441 25.9622L33.7764 36.0153L33.2819 36.496C33.199 36.1783 33.1319 35.8579 33.0874 35.5351ZM45.9432 39.5688L44.0395 40.2269L44.9206 38.6852L45.9432 39.5688ZM46.6909 31.5169L39.8448 43.4973C39.7066 43.7394 39.6791 44.0269 39.7691 44.2895L40.8596 47.469L37.3152 50.9141L39.1221 45.5367C39.2499 45.1561 39.1282 44.7379 38.8151 44.478C38.7808 44.4496 36.4743 42.5114 34.7817 39.8158L37.2084 39.0295C37.6745 38.8786 37.963 38.425 37.8933 37.9525L36.0839 25.6423L41.3452 22.574C44.7206 23.0782 46.6837 25.1115 47.1783 28.6212C47.3181 29.6153 47.1496 30.6162 46.6909 31.5169ZM54.8815 40.2555C52.2442 39.008 50.9067 37.494 50.9067 35.7552V27.0944C50.9067 25.985 50.4355 24.9403 49.6429 24.1886H50.0436C52.1374 24.1886 53.8409 25.8444 53.8409 27.8799V32.1683C53.8409 34.8382 55.0343 38.6698 56.558 40.8916L56.6028 40.9568C56.0577 40.7656 55.4691 40.5334 54.8815 40.2555Z" fill="#C3B7D2"/>
</svg>
