<svg width="60" height="60" viewBox="0 0 60 60" fill="none" xmlns="http://www.w3.org/2000/svg">
<path d="M60 60V56.484H49.8286V14.9418C49.8286 11.5013 48.6592 8.32916 46.6979 5.80069C49.5362 5.39741 51.7262 2.95238 51.7262 0.00421919H48.2106C48.2106 1.29447 47.1609 2.34423 45.8708 2.34423H44.1227C43.7377 2.34423 43.3559 2.35806 42.9776 2.38513C40.6447 0.876772 37.8671 0 34.8885 0H25.1098C22.1311 0 19.3535 0.876772 17.0207 2.38513C16.6424 2.35806 16.2606 2.34423 15.8755 2.34423H14.1274C12.8373 2.34423 11.7877 1.29447 11.7877 0.00421919H8.27203C8.27203 2.95238 10.462 5.39741 13.3003 5.80069C11.3389 8.32916 10.1695 11.5013 10.1695 14.9418V32.1806C10.1695 39.6114 13.0629 46.5976 18.3168 51.8519C20.1589 53.6943 22.2145 55.2451 24.427 56.484H0V60H60ZM46.313 48.4265C43.7409 47.6662 41.8582 45.2836 41.8582 42.4682V39.4048H38.3426V42.4682C38.3426 47.2324 41.7854 51.2051 46.313 52.0352V56.3736C39.4474 55.5066 34.1204 49.6299 34.1204 42.5322V32.5817C39.0996 32.0069 43.4584 29.3651 46.313 25.5376V48.4265ZM25.1098 3.516H34.8884C35.7749 3.516 36.6381 3.61749 37.4671 3.80958C34.2543 5.29896 31.6184 7.82977 29.9991 10.9681C28.3798 7.82977 25.7439 5.29896 22.5311 3.80958C23.36 3.61749 24.2232 3.516 25.1098 3.516ZM17.9604 6.03685C23.7895 7.03094 28.2413 12.1186 28.2413 18.2273V22.3102H31.7569V18.2273C31.7569 12.1186 36.2086 7.03094 42.0377 6.03685C44.6426 8.13285 46.313 11.3456 46.313 14.9418C46.313 22.7954 39.9244 29.1845 32.0716 29.1845H27.9265C20.0737 29.1845 13.6852 22.7953 13.6852 14.9418C13.6852 11.3456 15.3555 8.13285 17.9604 6.03685ZM13.6852 32.1806V25.5376C16.9252 29.8821 22.1029 32.7005 27.9265 32.7005H30.6048V42.5322C30.6048 48.2236 33.341 53.2875 37.5666 56.4787C24.3599 56.2538 13.6852 45.4413 13.6852 32.1806Z" fill="#C3B7D2"/>
<path d="M38.7596 19.6058C40.4687 19.6058 41.8591 18.2153 41.8591 16.5061C41.8591 14.7968 40.4687 13.4062 38.7596 13.4062C37.0506 13.4062 35.6602 14.7968 35.6602 16.5061C35.6602 18.2153 37.0506 19.6058 38.7596 19.6058Z" fill="#C3B7D2"/>
<path d="M21.2401 19.6058C22.9492 19.6058 24.3396 18.2153 24.3396 16.5061C24.3396 14.7968 22.9492 13.4062 21.2401 13.4062C19.5311 13.4062 18.1406 14.7968 18.1406 16.5061C18.1406 18.2153 19.5311 19.6058 21.2401 19.6058Z" fill="#C3B7D2"/>
</svg>
