<svg width="60" height="60" viewBox="0 0 60 60" fill="none" xmlns="http://www.w3.org/2000/svg">
<path d="M14.3692 43.6875C19.0963 43.6875 23.2742 46.1078 25.8939 49.8265C28.5119 46.1078 32.6918 43.6875 37.4168 43.6875C45.3525 43.6875 51.7852 50.4837 51.7852 58.8667C51.7852 59.019 51.783 59.1715 51.7772 59.3238C51.7674 59.6482 51.5475 59.9218 51.2455 59.9851C50.9451 60.0484 50.6412 59.8824 50.5154 59.5861C48.2706 54.302 43.2549 50.6196 37.4168 50.6196C32.6917 50.6196 28.5119 53.0398 25.8939 56.7586C23.2743 53.0396 19.0963 50.6196 14.3692 50.6196C8.53306 50.6196 3.51541 54.302 1.27047 59.5861C1.14473 59.8815 0.840813 60.0474 0.540535 59.984C0.238369 59.9218 0.0185509 59.6483 0.00871277 59.3238C0.00291824 59.1714 0.000762939 59.019 0.000762939 58.8667C0.000896454 50.4838 6.43355 43.6875 14.3692 43.6875Z" fill="#C3B7D2"/>
<path d="M39.8349 29.278C37.7962 26.38 34.5425 24.4958 30.8612 24.4958C26.3146 24.4958 22.4075 27.3645 20.6589 31.4793C20.5608 31.7105 20.3254 31.8389 20.0898 31.7904C19.8546 31.7415 19.6837 31.5283 19.6759 31.2751C19.672 31.1571 19.6701 31.0378 19.6701 30.9185C19.6701 24.39 24.6799 19.0977 30.8612 19.0977C34.5425 19.0977 37.7962 20.9819 39.8349 23.878C41.8758 20.9821 45.1294 19.0977 48.8108 19.0977C54.9902 19.0977 60 24.39 60 30.9185C60 31.0378 59.9981 31.1561 59.9941 31.273C59.9861 31.526 59.8156 31.7395 59.5802 31.7892C59.3446 31.8381 59.1091 31.7094 59.011 31.4781C57.2626 27.3634 53.3555 24.4956 48.8106 24.4956C45.1294 24.4958 41.8757 26.38 39.8349 29.278Z" fill="#C3B7D2"/>
<path d="M34.8681 6.68526C34.7446 6.71118 34.6211 6.64384 34.57 6.52154C33.6476 4.35424 31.5892 2.84412 29.1951 2.84412C27.2561 2.84412 25.5412 3.83715 24.4677 5.36379C23.3925 3.83715 21.6775 2.84412 19.7385 2.84412C17.3425 2.84412 15.286 4.35524 14.3617 6.52353C14.3106 6.64483 14.187 6.71217 14.0634 6.68626C13.9398 6.66135 13.8475 6.54845 13.8436 6.41576C13.8436 6.35354 13.8414 6.29033 13.8414 6.22812C13.8414 2.78917 16.4829 0 19.7384 0C21.6774 0 23.3922 0.993031 24.4676 2.51867C25.5411 0.993031 27.2561 0 29.1949 0C32.4524 0 35.0898 2.78917 35.0898 6.22812C35.0898 6.29033 35.0898 6.35255 35.0878 6.41362C35.084 6.54645 34.9938 6.6595 34.8681 6.68526Z" fill="#C3B7D2"/>
</svg>
