<svg width="60" height="60" viewBox="0 0 60 60" fill="none" xmlns="http://www.w3.org/2000/svg">
<path d="M59.9834 49.8889C59.8206 48.5014 57.6944 47.6399 52.9454 47.0746C53.3541 46.2845 53.6614 45.4038 53.8725 44.4159C54.1518 43.1117 54.0478 41.4734 53.5642 39.5471C53.4446 39.0715 52.9101 38.7712 52.3703 38.8765C51.8301 38.9818 51.4895 39.4524 51.6086 39.9275C52.0339 41.6203 52.1332 43.0206 51.9044 44.0895C51.1229 47.7411 48.9702 50.2492 41.0082 51.2833C42.8994 46.9849 43.3934 43.6652 43.4189 43.488C43.4875 43.0051 43.0991 42.5642 42.5505 42.5034C42.003 42.442 41.5007 42.7844 41.4315 43.2678C41.4242 43.3205 40.6385 48.6049 37.2446 54.348C37.0075 54.7485 37.1531 55.242 37.5821 55.4906C38.6293 56.0985 39.6542 56.8172 40.2553 57.3413C40.143 57.3175 40.0369 57.2937 39.9511 57.274C39.3329 57.1353 38.7494 57.0035 38.2232 57.1124C37.5452 57.253 37.1198 57.6773 36.8094 57.9872C36.7376 58.0586 36.6394 58.157 36.5676 58.217C36.3404 58.1456 35.9296 57.9222 35.694 57.7945C35.1418 57.4951 34.7061 57.2589 34.2178 57.2589C33.833 57.2589 33.4514 57.4054 32.7536 57.686C32.6792 57.7158 32.5898 57.7519 32.4936 57.7899C32.7785 57.0602 33.351 56.0202 33.9989 55.3729C34.1825 55.1889 34.2714 54.9463 34.2438 54.7028C33.9547 52.1333 33.2023 45.4349 33.1685 45.0851C33.1368 44.6233 32.7016 44.2575 32.1691 44.2575C31.6158 44.2575 31.1676 44.6526 31.1676 45.1392C31.1676 45.1909 31.1676 45.2408 31.9075 51.8216C31.2898 51.8294 30.6534 51.8335 29.9997 51.8335C29.3461 51.8335 28.7097 51.8289 28.0925 51.8216C28.8319 45.2412 28.8319 45.1909 28.8319 45.1392C28.8319 44.6526 28.3836 44.2575 27.8304 44.2575C27.2984 44.2575 26.8632 44.6233 26.831 45.0851C26.7977 45.4353 26.0453 52.1333 25.7557 54.7028C25.7281 54.9463 25.817 55.1889 26.0011 55.3729C26.649 56.0202 27.221 57.0602 27.5059 57.7899C27.4102 57.7519 27.3208 57.7158 27.2464 57.686C26.5486 57.4054 26.1664 57.2589 25.7817 57.2589C25.2934 57.2589 24.8577 57.4951 24.306 57.7945C24.0683 57.9236 23.6523 58.1493 23.434 58.2184C23.3617 58.1584 23.2624 58.0595 23.1901 57.9872C22.8797 57.6773 22.4543 57.253 21.7768 57.1124C21.25 57.0035 20.6666 57.1349 20.0484 57.274C19.9626 57.2932 19.857 57.3171 19.7452 57.3409C20.3463 56.8172 21.3707 56.0989 22.4179 55.4906C22.8464 55.242 22.992 54.7485 22.7549 54.348C19.3708 48.6214 18.5758 43.32 18.568 43.2674C18.4983 42.7844 17.9981 42.4425 17.4495 42.5034C16.9004 42.5642 16.512 43.0051 16.5811 43.488C16.6066 43.6656 17.1006 46.9872 18.9928 51.2874C13.0136 50.5399 9.12618 48.9075 8.09506 44.0895C8.01395 43.7114 7.97391 43.2857 7.97599 42.8233C7.97755 42.3367 7.53089 41.9408 6.97763 41.9389C6.97659 41.9389 6.97555 41.9389 6.97451 41.9389C6.42281 41.9389 5.9751 42.3317 5.97302 42.8174C5.97094 43.3905 6.02294 43.9284 6.12694 44.4159C6.33857 45.4038 6.64588 46.2845 7.05458 47.0746C2.30561 47.6399 0.179407 48.5014 0.0166537 49.8885C-0.186139 51.6179 1.51056 52.0725 2.52452 52.3439C3.05698 52.4867 3.60764 52.6341 3.83071 52.8676C4.10526 53.1555 4.12086 53.4087 4.12658 53.8687C4.1323 54.3906 4.14165 55.1798 4.9705 55.8064C5.58876 56.2738 6.52524 56.1983 7.60992 56.1108C8.11638 56.0701 9.05495 55.9941 9.31754 56.1003C9.45845 56.2061 9.61341 56.478 9.75068 56.7192C10.1037 57.3377 10.6804 58.3489 12.1207 58.3489C12.2102 58.3489 12.3033 58.3447 12.4 58.3365C13.455 58.2472 14.1482 57.3807 15.1075 56.1813C15.9093 55.1793 16.8936 53.9507 18.2628 52.9692C18.7817 53.0415 19.322 53.107 19.8835 53.1665C20.1014 53.595 20.3333 54.0294 20.5793 54.4684C20.2064 54.7041 19.7348 55.014 19.2715 55.3514C18.048 56.2418 16.8609 57.2887 17.333 58.3044C17.9222 59.5725 19.6282 59.1884 20.5444 58.9824C20.7966 58.9256 21.1689 58.8419 21.3286 58.8355C21.4164 58.8821 21.5849 59.0501 21.6884 59.1536C22.0279 59.4928 22.537 60.0009 23.3612 60.0009C23.383 60.0009 23.4054 60.0005 23.4277 59.9995C24.099 59.9776 24.7672 59.6155 25.3568 59.2955C25.4936 59.2213 25.6808 59.1197 25.8134 59.0566C25.9808 59.1151 26.2314 59.2163 26.414 59.2896C27.4196 59.6942 28.2885 60.044 28.9951 59.7057C29.2016 59.6072 29.5635 59.3633 29.6685 58.8387C29.8869 57.7528 28.7741 55.665 27.7893 54.5169C27.8257 54.1942 27.8605 53.8834 27.8943 53.5826C28.5734 53.5918 29.277 53.5963 29.9997 53.5963C30.7225 53.5963 31.426 53.5913 32.1051 53.5826C32.1389 53.8829 32.1743 54.1928 32.2102 54.5146C31.7469 55.0488 31.2893 55.7465 30.9222 56.4862C30.5764 57.1816 30.1937 58.1543 30.331 58.8387C30.4365 59.3628 30.7979 59.6068 31.0043 59.7057C31.7115 60.044 32.5799 59.6942 33.586 59.2891C33.7686 59.2159 34.0192 59.1151 34.1866 59.0566C34.3187 59.1193 34.5059 59.2209 34.6432 59.2955C35.2323 59.615 35.9005 59.9776 36.5718 59.9995C36.5947 60 36.6165 60.0005 36.6383 60.0005C37.4625 60.0005 37.9716 59.4923 38.3111 59.1531C38.4161 59.0488 38.5877 58.8771 38.6678 58.835C38.8259 58.8405 39.2013 58.9247 39.4551 58.9819C40.3718 59.1884 42.0778 59.5725 42.667 58.3044C43.1391 57.2882 41.952 56.2413 40.7285 55.3514C40.2647 55.014 39.7936 54.7041 39.4202 54.4679C39.6667 54.0294 39.8981 53.595 40.116 53.1661C40.6781 53.107 41.2178 53.0411 41.7373 52.9688C43.1064 53.9502 44.0907 55.1793 44.892 56.1809C45.8519 57.3807 46.545 58.2472 47.6 58.3365C47.6962 58.3447 47.7893 58.3484 47.8787 58.3484C49.3191 58.3484 49.8963 57.3377 50.2488 56.7188C50.3861 56.478 50.5416 56.2061 50.6819 56.1003C50.9451 55.9937 51.8831 56.0696 52.3901 56.1104C53.4742 56.1983 54.4112 56.2738 55.029 55.8064C55.8584 55.1793 55.8672 54.3906 55.8734 53.8687C55.8786 53.4087 55.8942 53.1555 56.1688 52.8676C56.3918 52.6337 56.9425 52.4863 57.475 52.3439C58.4889 52.0725 60.1861 51.6179 59.9834 49.8889ZM13.4706 55.166C13.0338 55.7117 12.44 56.4546 12.1665 56.5851C11.983 56.5974 11.9013 56.5599 11.5405 55.9277C11.3039 55.5135 11.0356 55.0433 10.5348 54.7C9.7564 54.1672 8.5724 54.2629 7.42689 54.3553C7.0343 54.3869 6.46077 54.4331 6.20806 54.4061C6.14878 54.3297 6.13318 54.2088 6.12902 53.8509C6.12278 53.3203 6.11342 52.5188 5.36465 51.7342C4.75939 51.0997 3.88219 50.8644 3.10793 50.657C2.08045 50.3819 1.99206 50.2977 2.00298 50.1256C2.14025 49.9951 3.12093 49.2613 8.1715 48.7271C8.7596 49.4037 9.46313 49.9937 10.2946 50.5096C11.7193 51.3945 13.5263 52.0642 15.8318 52.5499C14.8418 53.4531 14.0795 54.4052 13.4706 55.166ZM56.8921 50.6575C56.1178 50.8649 55.2406 51.0997 54.6354 51.7342C53.8861 52.5188 53.8767 53.3203 53.8705 53.8509C53.8668 54.2088 53.8507 54.3301 53.7914 54.4061C53.5387 54.4331 52.9657 54.3869 52.5731 54.3553C51.4281 54.2629 50.2436 54.1672 49.4652 54.7C48.9639 55.0433 48.6956 55.5135 48.4596 55.9277C48.0987 56.5599 48.0165 56.5974 47.8335 56.5851C47.56 56.4546 46.9662 55.7117 46.5294 55.166C45.9205 54.4052 45.1582 53.4531 44.1682 52.5499C46.4738 52.0642 48.2802 51.395 49.7054 50.5101C50.5364 49.9937 51.2404 49.4042 51.8285 48.7271C56.8786 49.2613 57.8598 49.9951 57.9965 50.1256C58.0079 50.2977 57.9196 50.3824 56.8921 50.6575Z" fill="#C3B7D2"/>
<path d="M8.33854 31.9733C8.61153 32.1706 8.89388 32.3629 9.18455 32.551C8.27771 34.3528 7.18887 36.7744 6.54773 39.1167C6.42138 39.5777 6.74741 40.0556 7.26791 40.176C7.80348 40.2996 8.36506 40.003 8.49454 39.5296C9.07068 37.4258 10.0378 35.2349 10.8792 33.5384C12.5093 34.3976 14.3537 35.1333 16.3962 35.7339C16.9141 35.8863 17.4907 35.6327 17.6633 35.1772C17.8386 34.7153 17.5557 34.2159 17.0311 34.0616C10.472 32.1317 6.35794 28.882 4.8032 24.4024C4.00139 22.0925 4.06119 19.1715 4.97583 15.9553C5.10999 15.4828 4.78396 15.004 4.24786 14.8859C3.71228 14.7678 3.16734 15.0548 3.03319 15.5268C2.03015 19.0543 1.98023 22.3012 2.88811 24.9174C3.84696 27.6809 5.68093 30.0548 8.33854 31.9733Z" fill="#C3B7D2"/>
<path d="M4.87045 13.1946C5.38471 13.3722 5.96605 13.1493 6.16832 12.6961C8.77134 6.85546 13.3446 2.28331 17.0432 1.82463C21.072 1.32567 23.2086 4.0901 23.2949 4.205C23.48 4.45448 23.7956 4.60509 24.1342 4.60509H35.8685C36.2071 4.60509 36.5227 4.45448 36.7078 4.205C36.7291 4.17616 38.8938 1.32109 42.96 1.82463C45.5147 2.1414 48.5566 4.42656 51.0967 7.93715C52.9239 10.4617 54.3512 13.4262 55.1156 16.2845C55.9413 19.3698 55.9694 22.1768 55.1972 24.4015C53.643 28.8812 49.5289 32.1313 42.9699 34.0608C42.4723 34.2073 42.1832 34.6834 42.321 35.1288C42.4702 35.6108 43.0661 35.8914 43.6043 35.733C45.6468 35.1324 47.4917 34.3968 49.1213 33.5376C49.6548 34.6115 50.1243 35.6525 50.52 36.6417C50.7109 37.1187 51.34 37.359 51.8668 37.1562C52.3405 36.9736 52.5807 36.4851 52.4091 36.0562C51.9625 34.9402 51.4274 33.7633 50.8159 32.5502C51.1066 32.3625 51.3889 32.1698 51.6619 31.973C54.32 30.054 56.1535 27.68 57.1129 24.917C59.0482 19.3391 56.3339 11.8941 52.7856 6.99004C49.8924 2.99147 46.4127 0.472397 43.2393 0.0791778C38.9115 -0.456864 36.2653 1.87315 35.3688 2.84224H24.6339C23.7374 1.87315 21.0897 -0.457321 16.764 0.0791778C14.4443 0.366653 11.9869 1.7578 9.65583 4.10201C7.54107 6.22969 5.64054 9.05272 4.30367 12.052C4.10192 12.5052 4.35567 13.0165 4.87045 13.1946Z" fill="#C3B7D2"/>
<path d="M25.4052 8.92059C24.8592 8.84643 24.3471 9.17556 24.2623 9.65667C24.2342 9.81368 24.0252 11.2273 25.2035 12.438C26.1909 13.4529 27.8039 13.9674 29.9982 13.9674C32.1925 13.9674 33.8055 13.4529 34.7929 12.438C35.9707 11.2273 35.7617 9.81368 35.7336 9.65667C35.6488 9.17556 35.1361 8.84643 34.5907 8.92059C34.0442 8.99566 33.6698 9.4461 33.7545 9.92721C33.7561 9.93453 33.858 10.6885 33.272 11.2913C32.6907 11.8887 31.5587 12.2046 29.9977 12.2046C28.4523 12.2046 27.3255 11.8942 26.74 11.3074C26.1348 10.7008 26.2382 9.94872 26.2414 9.92721C26.3261 9.4461 25.9517 8.99566 25.4052 8.92059Z" fill="#C3B7D2"/>
<path d="M18.274 4.89746C17.168 4.44107 15.8026 5.02289 15.1646 6.22132C14.5265 7.41929 14.8931 8.71567 15.9986 9.17161C17.2637 9.69346 18.5793 8.83973 19.107 7.84775C19.6343 6.85807 19.5324 5.41703 18.274 4.89746Z" fill="#C3B7D2"/>
<path d="M43.9991 9.17142C45.104 8.71548 45.4701 7.41956 44.8326 6.22113C44.1946 5.0227 42.8291 4.44134 41.7231 4.89728C40.4647 5.41638 40.3628 6.85788 40.8901 7.84756C41.4179 8.83954 42.7334 9.69327 43.9991 9.17142Z" fill="#C3B7D2"/>
</svg>
