<svg width="60" height="41" viewBox="0 0 60 41" fill="none" xmlns="http://www.w3.org/2000/svg">
<path d="M9.33372 24.258C8.84821 24.258 8.45481 24.6997 8.45481 25.2448V25.7723C8.45481 26.6822 7.79551 27.4223 6.98516 27.4223C6.17481 27.4223 5.51563 26.6822 5.51563 25.7723V24.7175C5.51563 23.8076 6.17481 23.0674 6.98516 23.0674C7.47067 23.0674 7.86407 22.6257 7.86407 22.0806C7.86407 21.5355 7.47067 21.0938 6.98516 21.0938C5.20555 21.0938 3.75781 22.7193 3.75781 24.7175V25.7723C3.75781 27.7705 5.20555 29.396 6.98516 29.396C8.76489 29.396 10.2126 27.7705 10.2126 25.7723V25.2448C10.2126 24.6997 9.81922 24.258 9.33372 24.258Z" fill="#C3B7D2"/>
<path d="M59.5894 25.4661C54.4908 21.8616 49.0157 19.1138 43.2644 17.2667L41.322 11.2951C40.9759 10.2707 40.196 9.5423 39.2359 9.34664C38.2756 9.15045 37.3178 9.52506 36.6734 10.3476L33.0466 14.9751C19.764 13.2206 9.74544 16.4105 7.9711 17.0291C7.50868 16.9288 7.0227 16.8763 6.51516 16.8763C6.39493 16.8763 6.27598 16.8793 6.15821 16.885C5.23571 14.394 4.37977 10.9713 4.99313 7.81794C5.37739 5.84188 6.17626 4.8745 6.20251 4.84306C6.54059 4.45726 6.53872 3.83687 6.19735 3.45331C5.85399 3.06805 5.29758 3.06805 4.95434 3.45331C4.80012 3.62647 1.5518 7.41084 3.83356 15.5012C2.87696 14.0877 1.75781 11.7197 1.75781 8.37018C1.75781 3.64463 3.36973 1.6958 3.37922 1.68462C3.72246 1.29909 3.72246 0.674346 3.37922 0.288949C3.03586 -0.0963164 2.47946 -0.0963164 2.13621 0.288949C2.04891 0.387108 0 2.75225 0 8.37018C0 13.2128 2.03192 16.3293 3.24 17.7542C2.74184 18.0608 2.29078 18.4441 1.89633 18.9045C0.637969 20.3732 0 22.5069 0 25.2463C0 27.9219 0.68754 30.7456 1.88625 32.9932C3.17004 35.4002 4.85731 36.7808 6.51528 36.7808C7.73274 36.7808 8.96579 36.0356 10.0434 34.6871C10.2279 34.7325 10.562 34.8126 11.0319 34.9167L8.85352 38.9931C8.84251 39.0135 8.82259 39.0263 8.80161 39.0263H3.69715C3.21164 39.0263 2.81824 39.468 2.81824 40.0132C2.81824 40.5583 3.21164 41 3.69715 41H8.80161C9.43653 41 10.0341 40.6201 10.3609 40.0087L12.8782 35.2979C13.5103 35.42 14.2308 35.551 15.0304 35.6839V38.9583C15.0304 38.9958 15.0033 39.0263 14.9699 39.0263H13.091C12.6055 39.0263 12.2121 39.468 12.2121 40.0132C12.2121 40.5583 12.6055 41 13.091 41H14.9698C15.9724 41 16.7881 40.0841 16.7881 38.9583V35.9583C17.5009 36.0625 18.2588 36.1643 19.0551 36.2608C19.626 36.7043 20.4273 37.2513 21.3512 37.6662C22.303 38.0937 23.2089 38.3062 24.057 38.3062C25.3317 38.3062 26.4754 37.8246 27.4463 36.8714C28.0512 36.8851 28.6511 36.8935 29.2435 36.8935C35.9631 36.8935 41.8731 36.0068 46.9163 34.2476L48.4509 38.9656C48.8466 40.1825 49.8876 41 51.0412 41H56.3028C56.7883 41 57.1817 40.5583 57.1817 40.0132C57.1817 39.468 56.7883 39.0263 56.3028 39.0263H51.0412C50.6229 39.0263 50.2455 38.7299 50.1019 38.2887L48.5835 33.6206C50.6096 32.8034 52.484 31.8351 54.2004 30.7143C54.4485 30.5523 54.6105 30.2645 54.6344 29.9435C54.6583 29.6224 54.5411 29.3083 54.3204 29.1023L52.749 27.6353C54.8774 27.5525 57.0222 27.4373 59.1758 27.2862C59.5564 27.2595 59.8783 26.9602 59.9726 26.5452C60.067 26.1302 59.9122 25.6944 59.5894 25.4661ZM40.7012 15.1394L41.1902 16.6429C40.7989 16.5331 40.4062 16.4279 40.0125 16.3263C40.266 15.8898 40.4966 15.4923 40.7012 15.1394ZM26.3448 16.4485C28.0296 16.4802 29.7959 16.5864 31.6259 16.7881L25.4589 24.6566C21.3524 24.1461 18.156 23.5511 15.9543 23.0728C16.892 22.7698 17.9369 22.4036 18.9942 21.9786C23.2391 20.2724 25.6556 18.4562 26.3448 16.4485ZM24.3266 16.445C22.6853 18.6753 17.0515 20.8876 12.6649 22.0015C12.3527 20.7661 11.8415 19.7301 11.1341 18.9046C10.9473 18.6866 10.747 18.4872 10.5361 18.3034C13.2267 17.5804 18.1336 16.5392 24.3266 16.445ZM9.63622 31.9792C8.6918 33.75 7.52508 34.8071 6.51528 34.8071C5.50547 34.8071 4.33875 33.75 3.39434 31.9792C2.3543 30.0291 1.75781 27.5752 1.75781 25.2463C1.75781 21.1216 3.44742 18.85 6.51528 18.85C9.58313 18.85 11.2727 21.1217 11.2727 25.2463C11.2727 27.575 10.6763 30.0291 9.63622 31.9792ZM13.0283 33.3217C12.2605 33.1718 11.6343 33.0377 11.1742 32.9346C12.354 30.6965 13.0304 27.899 13.0304 25.2463C13.0304 24.9546 13.0217 24.6712 13.0072 24.3933C13.9374 24.6378 15.4542 25.0045 17.545 25.4092C16.9819 26.8628 15.5381 30.1732 13.0283 33.3217ZM18.0283 34.1428C16.9483 33.9971 15.9533 33.8428 15.0608 33.6915C17.5804 30.2526 18.9129 26.8983 19.3309 25.7378C20.7141 25.9796 22.285 26.2264 24.0442 26.4615C24.0443 26.4615 18.0372 34.1297 18.0283 34.1428ZM26.5499 35.108C25.4017 36.4418 23.9269 36.6846 22.0409 35.8501C21.2221 35.4877 20.5027 34.9883 20.0077 34.5994L37.993 11.6515C38.3298 11.2217 38.755 11.2548 38.9221 11.2886C39.0893 11.3227 39.4976 11.4597 39.6747 11.9836L39.9469 12.8206C36.4867 18.8063 27.8363 33.6139 26.5499 35.108ZM40.5886 33.9002C37.0237 34.593 33.0999 34.9336 28.9054 34.9179C30.0149 33.21 31.7099 30.4182 33.5083 27.4007C35.4269 27.5302 37.3959 27.629 39.3685 27.6928C39.377 27.6931 39.3856 27.6932 39.3943 27.6932C39.8679 27.6932 40.2586 27.2699 40.2723 26.7348C40.2863 26.1899 39.9043 25.7356 39.4191 25.7199C37.8148 25.6681 36.2131 25.5927 34.6391 25.4967C36.186 22.8842 37.7334 20.2404 38.9852 18.092C39.972 18.3342 40.9517 18.6018 41.9233 18.897L44.1712 25.8078C43.8339 25.8058 43.4959 25.8046 43.1603 25.801C43.1574 25.801 43.1543 25.801 43.1514 25.801C42.6702 25.801 42.2775 26.2364 42.2727 26.7781C42.2679 27.3231 42.6575 27.7691 43.143 27.7746C43.6974 27.7808 44.2553 27.7828 44.8139 27.7839L46.3093 32.381C44.5182 32.9992 42.6095 33.5075 40.5886 33.9002ZM47.9781 31.7588L46.6837 27.7791C47.8125 27.7702 48.9491 27.7508 50.0918 27.7216L52.207 29.696C50.895 30.4674 49.4826 31.1548 47.9781 31.7588ZM46.043 25.8094L44.0164 19.5788C48.2567 21.0493 52.3367 23.027 56.2121 25.4969C52.7775 25.6902 49.3756 25.7941 46.043 25.8094Z" fill="#C3B7D2"/>
</svg>
