<svg width="60" height="60" viewBox="0 0 60 60" fill="none" xmlns="http://www.w3.org/2000/svg">
<path d="M23.3332 47.9812C22.72 47.9812 22.2227 48.4288 22.2227 48.9812V49.9808C22.2146 51.6487 23.3622 53.144 25.0971 53.728C26.8326 54.312 28.7887 53.8612 29.9984 52.5984C31.2081 53.8612 33.1637 54.312 34.8992 53.728C36.6346 53.144 37.7817 51.6487 37.7736 49.9808V48.9812C37.7736 48.4288 37.2763 47.9812 36.6631 47.9812C36.0494 47.9812 35.5521 48.4288 35.5521 48.9812V49.9808C35.5521 51.0853 34.5575 51.9805 33.3305 51.9805C32.1035 51.9805 31.1089 51.0853 31.1089 49.9808V46.7934C31.5 46.6639 31.8534 46.4557 32.1422 46.1852L33.8049 44.585C34.4344 44.0047 34.6134 43.1401 34.2575 42.3945C33.7815 41.5015 32.763 40.9468 31.6632 40.9821H28.3331C27.2333 40.9468 26.2153 41.5015 25.7394 42.3945C25.3839 43.1396 25.5619 44.0042 26.1909 44.585L27.8557 46.1852C28.144 46.4557 28.4969 46.6639 28.8874 46.7934V49.9808C28.8874 51.0853 27.8928 51.9805 26.6658 51.9805C25.4389 51.9805 24.4443 51.0853 24.4443 49.9808V48.9812C24.4443 48.4288 23.947 47.9812 23.3332 47.9812ZM27.7753 43.1946C27.7885 43.1479 27.9548 42.9817 28.3331 42.9817H31.6632C32.042 42.9817 32.2078 43.1479 32.1829 43.2184L30.5201 44.818C30.2089 45.0203 29.7889 45.0203 29.4777 44.818L27.7753 43.1946Z" fill="#C3B7D2"/>
<path d="M15.9657 37.5726C17.9427 36.8769 19.5159 36.7945 20.6453 37.3319C21.4329 37.7401 22.0105 38.4116 22.2515 39.2006C22.3914 39.7307 22.9766 40.0625 23.568 39.9467C24.1594 39.8314 24.5392 39.3105 24.4223 38.7764C24.0429 37.4243 23.0672 36.27 21.7202 35.5816C19.9919 34.7445 17.7845 34.7875 15.1562 35.7098C14.5847 35.9112 14.3024 36.4911 14.5257 37.0055C14.7494 37.52 15.3936 37.774 15.9657 37.5726Z" fill="#C3B7D2"/>
<path d="M35.32 39.9601C35.6078 40.015 35.9088 39.9652 36.1559 39.821C36.403 39.6764 36.5764 39.4493 36.638 39.1903C36.8754 38.4099 37.4444 37.7453 38.2214 37.3394C39.3507 36.7915 40.9326 36.8702 42.9228 37.5691C43.4943 37.7705 44.1391 37.5165 44.3623 37.002C44.586 36.4876 44.3038 35.9072 43.7323 35.7063C41.105 34.7836 38.8971 34.7405 37.1683 35.5777C35.8213 36.2665 34.845 37.4208 34.4662 38.7729C34.4042 39.0319 34.4596 39.3029 34.6193 39.5258C34.7795 39.7482 35.0317 39.9047 35.32 39.9601Z" fill="#C3B7D2"/>
<path d="M1.11922 38.9835C2.13008 38.9844 3.14044 39.0417 4.14367 39.1542C3.62146 40.7209 3.35095 42.3471 3.34078 43.983V43.9917C2.33958 44.2576 1.38465 44.648 0.502941 45.1505C0.168868 45.3474 -0.0223214 45.6902 0.00208567 46.049C0.0264929 46.4078 0.262937 46.7269 0.621417 46.8852C0.979897 47.0436 1.40499 47.0166 1.7355 46.8147C2.29382 46.4934 2.89332 46.2335 3.52078 46.0403C3.71553 47.2546 4.10198 48.4377 4.66894 49.5536C2.61213 50.7674 1.30024 52.7735 1.11922 54.9814C1.11922 58.0649 4.52402 59.9804 10.0055 59.9804C12.4777 60.1173 14.9337 59.5346 17.0098 58.319C21.2221 59.4605 25.6016 60.0207 30 59.9804C34.3984 60.0207 38.7779 59.4605 42.9897 58.319C45.0658 59.5346 47.5218 60.1173 49.994 59.9804C55.4755 59.9804 58.8803 58.0649 58.8803 54.9814C58.6998 52.7735 57.3874 50.7674 55.3306 49.5536C55.8975 48.4377 56.284 47.2546 56.4787 46.0403C57.1062 46.2335 57.7057 46.4934 58.2645 46.8147C58.5945 47.0166 59.0196 47.0436 59.3781 46.8852C59.7366 46.7269 59.973 46.4078 59.9979 46.049C60.0223 45.6902 59.8311 45.3474 59.4966 45.1505C58.6148 44.648 57.6599 44.2576 56.6587 43.9917V43.983C56.6491 42.3471 56.3785 40.7209 55.8558 39.1542C56.8591 39.0417 57.8694 38.9849 58.8803 38.9835C59.494 38.9835 59.9913 38.5359 59.9913 37.9839C59.9913 37.4315 59.494 36.9838 58.8803 36.9838C57.6126 36.9843 56.3465 37.0649 55.0911 37.2246C54.6243 36.1943 54.0716 35.197 53.4385 34.2413C54.1692 32.1062 57.0319 23.1229 54.5643 20.0596C54.04 19.3762 53.1715 18.9739 52.2492 18.9867C50.5951 19.1002 48.9867 19.5295 47.5315 20.2463C44.6895 16.6305 39.6785 14.0903 33.9667 13.2742C33.9479 11.9121 33.7577 10.5564 33.4002 9.23227C33.1511 8.12281 33.6082 6.9804 34.586 6.26822C35.9716 5.42789 38.2344 6.72821 39.142 7.3255C40.103 7.96765 41.3722 8.09672 42.468 7.66374C43.5638 7.23122 44.3178 6.30255 44.4429 5.23108C44.5685 4.16007 44.0458 3.11056 43.0746 2.48169C36.9779 -1.53461 32.5119 0.300302 30.8675 1.27978C27.5705 3.39617 26.0166 7.09391 26.9323 10.6447C27.153 11.4558 27.2811 12.2847 27.3137 13.119C21.0711 13.715 15.5174 16.3577 12.4706 20.2394C11.0245 19.5282 9.42681 19.1011 7.7839 18.9867C6.85999 18.9739 5.98947 19.3771 5.46369 20.0609C3.00569 23.1115 5.85421 32.0686 6.58286 34.2006C5.94014 35.1686 5.37979 36.1792 4.90691 37.2237C3.65197 37.0644 2.38636 36.9843 1.11922 36.9838C0.505483 36.9838 0.0081874 37.4315 0.0081874 37.9839C0.0081874 38.5359 0.505483 38.9835 1.11922 38.9835ZM3.34078 54.9814C3.34078 52.7309 6.41608 49.982 10.0055 49.982C13.5948 49.982 16.6701 52.7309 16.6701 54.9814C16.6701 56.4369 15.1762 57.2727 13.2384 57.6764C13.3019 57.4489 13.3355 57.2155 13.3381 56.9811V54.9814C13.3381 54.429 12.8408 53.9814 12.227 53.9814C11.6138 53.9814 11.1165 54.429 11.1165 54.9814V56.9811C11.1165 57.5331 10.6192 57.9807 10.0055 57.9807C9.39223 57.9807 8.89442 57.5331 8.89442 56.9811V54.9814C8.89442 54.429 8.39713 53.9814 7.7839 53.9814C7.17016 53.9814 6.67287 54.429 6.67287 54.9814V56.9811C6.67541 57.2155 6.70897 57.4489 6.77253 57.6764C4.8347 57.2727 3.34078 56.4369 3.34078 54.9814ZM56.6587 54.9814C56.6587 56.4369 55.1648 57.2727 53.2275 57.6764C53.2905 57.4489 53.3241 57.2155 53.3266 56.9811V54.9814C53.3266 54.429 52.8293 53.9814 52.2156 53.9814C51.6024 53.9814 51.1051 54.429 51.1051 54.9814V56.9811C51.1051 57.5331 50.6078 57.9807 49.994 57.9807C49.3808 57.9807 48.8835 57.5331 48.8835 56.9811V54.9814C48.8835 54.429 48.3862 53.9814 47.7725 53.9814C47.1592 53.9814 46.6619 54.429 46.6619 54.9814V56.9811C46.6645 57.2155 46.6975 57.4489 46.7611 57.6764C44.8233 57.2727 43.3294 56.4369 43.3294 54.9814C43.3294 52.7309 46.4047 49.982 49.994 49.982C53.5834 49.982 56.6587 52.7318 56.6587 54.9814ZM29.0898 10.1687C28.3764 7.43352 29.5652 4.58069 32.1011 2.94305C33.6534 2.01896 36.9703 0.938333 41.7632 4.09599C42.0836 4.30699 42.2549 4.65529 42.2122 5.01093C42.17 5.3661 41.9198 5.67367 41.5568 5.8183C41.1942 5.96294 40.7727 5.92174 40.4524 5.7112C37.6938 3.89552 35.1708 3.50419 33.3494 4.60678C31.5971 5.78718 30.7729 7.78091 31.2417 9.70507C31.5402 10.8003 31.7095 11.9208 31.7482 13.0476C31.169 13.0119 30.5873 12.9872 30 12.9872C29.8424 12.9872 29.6868 12.9968 29.5297 12.9996C29.4895 12.0448 29.342 11.0965 29.0898 10.1687ZM30 14.9869C36.4755 14.9869 42.4309 17.3939 45.5524 21.191C44.0636 21.9494 42.4207 22.8886 40.6013 24.0365C33.865 21.3169 26.1599 21.3137 19.421 24.0278C17.5925 22.8794 15.9435 21.9402 14.4521 21.1828C17.5656 17.3907 23.5184 14.9869 30 14.9869ZM8.85019 34.0244C6.81422 28.4125 6.10133 22.6762 7.26169 21.2354C7.37101 21.0711 7.57186 20.9754 7.7839 20.9864C9.36884 21.1448 10.8948 21.6185 12.2509 22.3728C12.2606 22.3783 12.2652 22.387 12.2748 22.3924C12.3109 22.4085 12.348 22.4227 12.3857 22.435C14.561 23.4969 16.6569 24.6851 18.6603 25.9918C18.9873 26.2005 19.4134 26.2344 19.7754 26.0801C26.2484 23.2973 33.7729 23.3005 40.2429 26.0888C40.6064 26.2449 41.0356 26.2115 41.3636 26.0005C46.3386 22.814 50.3068 20.9864 52.2492 20.9864C52.4586 20.9759 52.6575 21.0711 52.7653 21.2331C53.9317 22.6813 53.2158 28.4368 51.1707 34.0633C51.068 34.3452 51.1096 34.6533 51.2846 34.9045C51.8815 35.7664 52.4063 36.6667 52.8558 37.5976C50.4069 38.0581 48.0781 38.9359 45.9953 40.1836C45.5168 40.5177 45.4243 41.1352 45.7869 41.5718C46.1494 42.0084 46.8338 42.1032 47.325 41.7846C49.2547 40.6701 51.4 39.8925 53.649 39.492C54.098 40.7864 54.3553 42.1288 54.4143 43.4841C52.5898 43.1742 50.7395 43.0067 48.8835 42.9829C48.2698 42.9829 47.7725 43.4305 47.7725 43.983C47.7725 44.5349 48.2698 44.9826 48.8835 44.9826C50.713 45.0119 52.5364 45.1872 54.3314 45.5062C54.1844 46.5685 53.8656 47.6056 53.3851 48.5851C52.3086 48.1887 51.1569 47.9841 49.994 47.9823C44.989 47.9823 41.1078 51.7446 41.1078 54.9814C41.1037 55.554 41.2344 56.1211 41.4907 56.6456C37.7467 57.5633 33.8802 58.0128 30 57.9807C26.1198 58.0128 22.2533 57.5633 18.5088 56.6456C18.7651 56.1211 18.8958 55.554 18.8917 54.9814C18.8917 51.7446 15.0105 47.9823 10.0055 47.9823C8.84256 47.9841 7.69085 48.1887 6.61439 48.5851C6.13387 47.6056 5.81506 46.5685 5.6681 45.5062C7.46356 45.1872 9.28646 45.0119 11.1165 44.9826C11.7297 44.9826 12.227 44.5349 12.227 43.983C12.227 43.4305 11.7297 42.9829 11.1165 42.9829C9.26002 43.0067 7.40915 43.1742 5.58522 43.4841C5.6437 42.1293 5.90099 40.7869 6.34998 39.4925C8.599 39.8925 10.7443 40.6701 12.674 41.7846C13.1652 42.1027 13.8496 42.0084 14.2121 41.5718C14.5752 41.1356 14.4826 40.5177 14.0042 40.1836C11.9209 38.9355 9.59206 38.0576 7.14219 37.5972C7.59729 36.652 8.13018 35.7385 8.7368 34.8652C8.9112 34.6139 8.9529 34.3059 8.85019 34.0244Z" fill="#C3B7D2"/>
</svg>
