<svg width="60" height="60" viewBox="0 0 60 60" fill="none" xmlns="http://www.w3.org/2000/svg">
<path d="M57.7568 43.35C59.221 40.0761 60 36.4868 60 32.9032C60 26.4997 54.7906 21.2903 48.3871 21.2903C46.3084 21.2903 44.2461 21.9774 42.5797 23.2258L41.7784 23.8277C40.6897 23.4319 39.5235 23.2229 38.3187 23.2229C38.3071 23.2229 38.2955 23.2229 38.2829 23.2229C36.7848 23.2268 35.2897 23.399 33.8226 23.7145C33.5777 21.2739 31.5358 19.3548 29.0323 19.3548C28.59 19.3548 28.1748 19.4623 27.7984 19.6403C26.7184 18.1568 26.129 16.3674 26.129 14.5161V10.6452C26.129 6.20613 22.8581 2.55968 18.5458 2.01L18.5429 1.99161C18.3813 0.856452 17.3952 0 16.2484 0C15.4384 0 14.6768 0.431613 14.2606 1.12548L13.7748 1.93548H7.74194C5.6071 1.93548 3.87097 3.67161 3.87097 5.80645C3.87097 7.4371 4.88613 8.82774 6.31548 9.39774L3.80903 14.4097C3.3571 15.3126 2.67581 16.0848 1.83677 16.6452L1.42258 16.921C0.532258 17.5142 0 18.5081 0 19.5794C0 20.2684 0.227419 20.9497 0.639677 21.4965L2.14452 23.5035C2.92355 24.5419 4.16226 25.1613 5.45903 25.1613C6.56613 25.1613 7.60645 24.7306 8.38839 23.9477L9.13935 23.1968C9.5671 22.769 10.0413 22.3984 10.5377 22.0597C11.3342 23.5442 11.8752 25.1361 12.1152 26.8171L12.9106 32.3874C13.0287 33.2168 13.2377 34.021 13.4961 34.8048L8.01 41.6623C7.22903 42.6387 6.73452 43.8116 6.57871 45.0542L5.91968 50.3226H5.80645C4.73903 50.3226 3.87097 51.1906 3.87097 52.2581V54.1935C3.87097 55.261 4.73903 56.129 5.80645 56.129H11.6129C12.6803 56.129 13.5484 55.261 13.5484 54.1935V52.2581C13.5484 51.6048 13.2203 51.0281 12.7229 50.6768L13.3123 47.729C13.4061 47.2606 13.6674 46.8465 14.0487 46.56L18.9735 42.8661C19.2252 44.5616 19.3548 46.2794 19.3548 48.0155V54.1935C18.2874 54.1935 17.4194 55.0616 17.4194 56.129V58.0645C17.4194 59.1319 18.2874 60 19.3548 60H25.1613C26.2287 60 27.0968 59.1319 27.0968 58.0645V56.129C27.0968 55.3248 26.6023 54.6339 25.9026 54.3426L26.3313 53.699C26.8326 52.9481 27.0968 52.0742 27.0968 51.1703C27.0968 50.4648 26.9303 49.7603 26.6158 49.1313L26.0313 47.9623C25.5368 46.9742 25.4894 45.8197 25.8997 44.7939L26.0303 44.4668C26.3197 44.4842 26.6071 44.5161 26.8965 44.5161C28.4187 44.5161 29.9226 44.2723 31.3645 43.7903L33.5652 43.0568C34.2494 43.7952 35.039 44.4445 35.9448 44.9477L37.2784 45.6881C38.7581 46.5106 39.6774 48.0726 39.6774 49.7652C39.6774 50.071 39.6474 50.3787 39.5864 50.6797L38.8839 54.1935H38.7097C37.6423 54.1935 36.7742 55.0616 36.7742 56.129V58.0645C36.7742 59.1319 37.6423 60 38.7097 60H44.5161C45.5835 60 46.4516 59.1319 46.4516 58.0645V55.5619L47.2674 54.7461C47.9894 54.0242 48.3871 53.0642 48.3871 52.0423C48.3871 51.4171 48.27 50.8084 48.0387 50.2326L46.8406 47.2365C46.5823 46.5929 46.4516 45.9135 46.4516 45.2197C46.4516 44.8239 46.4952 44.4271 46.5813 44.04L47.82 38.4677C48.1558 36.9561 48.3348 35.4077 48.3716 33.8584C49.5765 34.7555 50.3226 36.1887 50.3226 37.7671C50.3226 38.2887 50.2394 38.8035 50.0748 39.2971L48.7345 43.3152C48.5042 44.0081 48.3871 44.729 48.3871 45.4839C48.3871 49.2184 51.4268 52.2581 55.1613 52.2581C57.8294 52.2581 60 50.0874 60 47.4194C60 45.7084 59.1019 44.2103 57.7568 43.35ZM24.1935 10.6452V14.5161C24.1935 16.8794 24.9832 19.1574 26.4184 21.0165C26.2384 21.3948 26.129 21.8119 26.129 22.2581C26.129 23.8587 27.4316 25.1613 29.0323 25.1613H30V23.2258H29.0323C28.4981 23.2258 28.0645 22.7923 28.0645 22.2581C28.0645 21.7239 28.4981 21.2903 29.0323 21.2903C30.6329 21.2903 31.9355 22.5929 31.9355 24.1935C31.9355 25.7942 30.6329 27.0968 29.0323 27.0968C26.3642 27.0968 24.1935 24.9261 24.1935 22.2581V21.2903H22.2581V22.2581C22.2581 22.9326 22.3606 23.5829 22.5445 24.1984C21.2023 23.5655 20.3226 22.2194 20.3226 20.7058V10.0781C20.3226 9.05032 19.9626 8.08064 19.3026 7.30742L18.8332 4.0229C21.9174 4.67032 24.1935 7.38 24.1935 10.6452ZM7.74194 3.87097H12.6135L12.2497 4.47774C11.8335 5.17064 11.6129 5.96516 11.6129 6.77516C11.6129 7.30839 11.1765 7.74194 10.591 7.74194C10.3461 7.74194 10.1158 7.64613 9.94258 7.47387C9.76935 7.30161 9.67548 7.07032 9.67548 6.82645L9.67742 5.80839L7.74194 5.80452L7.74 6.82355C7.74 7.14193 7.8029 7.44871 7.90258 7.74194H7.74194C6.67452 7.74194 5.80645 6.87387 5.80645 5.80645C5.80645 4.73903 6.67452 3.87097 7.74194 3.87097ZM5.80645 54.1935V52.2581H11.6129L11.6148 54.1935H5.80645ZM12.8874 45.0116C12.1248 45.5835 11.6013 46.4139 11.4145 47.3497L10.8194 50.3226H7.87065L8.49968 45.2952C8.61097 44.4077 8.96419 43.5706 9.52355 42.8729L14.3439 36.8477C15.2119 38.5335 16.411 40.0394 17.8868 41.2635L12.8874 45.0116ZM19.3548 58.0645V56.129H25.1613L25.1632 58.0645H19.3548ZM44.5161 58.0645H38.7097V56.129H44.5161V58.0645ZM45.93 38.0477L44.6913 43.621C44.5752 44.1445 44.5161 44.6826 44.5161 45.2197C44.5161 46.1623 44.6932 47.0826 45.0426 47.9555L46.2416 50.9535C46.381 51.3 46.4516 51.6668 46.4516 52.0423C46.4516 52.5465 46.2552 53.0216 45.899 53.3777L45.0832 54.1935H40.8581L41.4852 51.06C41.5694 50.6332 41.6129 50.1977 41.6129 49.7652C41.6129 47.369 40.3123 45.1597 38.2181 43.9965L36.8855 43.2561C34.4294 41.8906 32.9032 39.2971 32.9032 36.4877V34.8387H30.9677V36.4877C30.9677 38.2577 31.4545 39.9581 32.3284 41.429L30.7519 41.9545C29.4329 42.3939 28.0374 42.5942 26.6545 42.569C26.94 41.4687 27.0968 40.3394 27.0968 39.1897V36.7742H25.1613V39.1897C25.1613 40.6742 24.8816 42.1248 24.331 43.5029L24.1026 44.0748C23.4871 45.6135 23.5587 47.3458 24.3 48.8274L24.8845 49.9964C25.0655 50.3584 25.1613 50.7648 25.1613 51.1703C25.1613 51.69 25.0094 52.1942 24.721 52.6258L23.6758 54.1935H21.2903V48.0155C21.2903 42.9929 20.2877 38.1048 18.3087 33.4897L16.53 34.2513C17.1735 35.7532 17.7 37.2881 18.1248 38.8452C16.3626 37.0171 15.1935 34.6703 14.8277 32.1126L14.0323 26.5432C13.7574 24.6194 13.1361 22.799 12.2187 21.1026L13.7768 20.3226C15.4268 19.4961 16.4516 17.8394 16.4516 15.9948V15.4839H14.5161V15.9948C14.5161 17.101 13.9006 18.0958 12.9116 18.5913L10.7903 19.6529C9.67258 20.2113 8.65645 20.9439 7.77194 21.8284L7.02097 22.5794C6.12097 23.4794 4.45742 23.3613 3.69387 22.3432L2.1871 20.3352C2.02548 20.1194 1.93548 19.8513 1.93548 19.5794C1.93548 19.1565 2.14548 18.7645 2.49677 18.5303L2.91097 18.2545C4.02968 17.5084 4.93935 16.4787 5.54129 15.2748L8.34 9.67742H10.6452V9.67645C12.2458 9.67355 13.5484 8.3729 13.5484 6.77419C13.5484 6.31548 13.6732 5.86645 13.9084 5.47452L15.9213 2.12032C16.0858 1.84452 16.5823 1.94323 16.6268 2.26355L17.4755 8.19774L17.7029 8.42516C18.1442 8.86742 18.3871 9.45484 18.3871 10.0781V20.7058C18.3871 23.2094 19.9819 25.4226 22.3577 26.2132L23.9806 26.7542C25.2223 28.1487 27.0242 29.0323 29.0323 29.0323C31.1555 29.0323 32.9429 27.6494 33.5932 25.7439L33.6048 25.741C35.1368 25.3577 36.7123 25.1623 38.37 25.1565H38.3952C40.2406 25.1565 42.0377 25.8068 43.5252 27.0465C45.3842 28.5968 46.4516 30.8739 46.4516 33.2952C46.4516 34.8919 46.2755 36.4906 45.93 38.0477ZM55.1613 50.3226C52.4932 50.3226 50.3226 48.1519 50.3226 45.4587C50.3226 44.9371 50.4058 44.4223 50.5703 43.9287L51.9106 39.9106C52.141 39.2177 52.2581 38.4968 52.2581 37.7419C52.2581 35.0448 50.6526 32.6448 48.2235 31.5668C48.0852 30.7752 47.8568 30.0068 47.5355 29.2742C51.3842 30.1897 54.1935 33.6165 54.1935 37.7419V38.7097H56.129V37.7419C56.129 32.1048 51.8371 27.5439 46.2765 27.1374C45.8177 26.5461 45.2894 25.9974 44.6952 25.501C44.3835 25.2416 44.0535 25.0103 43.7148 24.7935L43.7419 24.7732C45.0735 23.7755 46.7235 23.2258 48.3871 23.2258C53.7232 23.2258 58.0645 27.5671 58.0645 32.9032C58.0645 36.2535 57.3281 39.6068 55.9461 42.66C55.6887 42.6174 55.4303 42.5806 55.1613 42.5806C53.5606 42.5806 52.2581 43.8832 52.2581 45.4839C52.2581 47.0845 53.5606 48.3871 55.1613 48.3871H56.129V46.4516H55.1613C54.6271 46.4516 54.1935 46.0181 54.1935 45.4839C54.1935 44.9497 54.6271 44.5161 55.1613 44.5161C56.7619 44.5161 58.0645 45.8187 58.0645 47.4194C58.0645 49.02 56.7619 50.3226 55.1613 50.3226Z" fill="#C3B7D2"/>
</svg>
