<svg width="60" height="60" viewBox="0 0 60 60" fill="none" xmlns="http://www.w3.org/2000/svg">
<path d="M56.8684 25.0876C55.8287 24.9423 54.7663 24.8862 53.7153 24.8862C45.539 24.8862 40.0191 28.793 37.7812 30.6649L34.6328 33.2971C31.4604 35.9484 27.4318 37.4078 23.2889 37.409C20.8152 37.409 18.4185 36.9102 16.1625 35.9268C12.4934 34.3284 10.1244 30.7225 10.1244 26.7389C10.1244 23.8434 11.5554 21.2167 12.2734 20.0188C12.4792 19.6751 12.6658 19.3219 12.8335 18.9614C17.3518 18.8205 21.6114 16.6201 24.3547 12.9696C24.7225 12.4801 24.6619 11.793 24.2141 11.375C21.1487 8.51427 16.9877 7.05525 12.7978 7.37111C12.3545 7.40529 11.9347 7.18716 11.699 6.80415C9.57214 3.34745 6.21889 0.941932 2.25725 0.0308102C1.65945 -0.106853 1.05876 0.228432 0.851561 0.804389C-1.36142 6.95464 0.973983 13.4687 5.14607 17.0006C2.22851 21.1627 0.689214 26.0311 0.68296 31.1541C0.674903 37.7027 3.26717 43.9016 7.98222 48.6092C12.7611 53.3804 19.0809 56.008 25.7772 56.008H29.3914C29.6381 56.9437 29.989 57.8546 30.4426 58.7208C31.2787 60.3173 33.3618 60.3636 34.403 59.1703C35.3878 58.0415 36.1715 56.7458 36.7307 55.352C41.6247 54.3059 45.1734 52.203 46.7775 51.1478C47.3319 50.7844 47.4746 50.0509 47.119 49.4869C46.83 49.0286 46.0819 48.724 45.4523 49.1464C42.9885 50.7672 40.3182 51.9596 37.4929 52.7049C37.8906 50.5047 37.7339 48.2652 37.0329 46.2069C36.8755 45.7447 37.013 45.233 37.3832 44.9035C39.0295 43.4383 40.4726 41.7586 41.6726 39.9114C43.7504 36.7123 46.9504 34.4133 50.6832 33.4379C52.7453 32.899 54.8545 32.6519 56.9709 32.6985C56.1926 36.0107 54.7898 39.1631 52.8288 41.973C52.45 42.515 52.577 43.2758 53.1283 43.6422C53.8249 44.1054 54.5189 43.7454 54.8023 43.3437C58.9301 37.4907 59.783 31.5601 59.9902 28.9453C60.1095 27.4409 59.1474 25.4061 56.8684 25.0876ZM28.9941 53.6097H25.7772C21.0656 53.6097 16.5591 52.1686 12.7534 49.4943C18.5752 52.0717 25.0472 51.2383 29.2905 49.7106C28.9955 50.9944 28.8997 52.3099 28.9941 53.6097ZM50.0736 31.1178C45.7592 32.2452 42.0586 34.9052 39.6539 38.6076C39.5408 38.7817 39.4239 38.9532 39.306 39.124L38.7491 38.7178C38.2131 38.3266 37.4607 38.4429 37.0684 38.9774C36.6761 39.5119 36.7928 40.2622 37.3288 40.6533L37.838 41.025C37.1997 41.7648 36.513 42.4632 35.7815 43.1144C34.6897 44.0862 34.287 45.6027 34.7555 46.9782C35.9638 50.5261 35.1123 54.6949 32.5716 57.6054C31.2076 55.0134 30.983 51.9245 31.955 49.1307C32.513 47.5274 32.4075 45.7293 31.6653 44.1975C31.3765 43.6012 30.6577 43.3512 30.0594 43.6392C29.4614 43.9273 29.2108 44.6443 29.4996 45.2406C29.7502 45.7579 29.8845 46.3232 29.902 46.8918C26.885 48.2079 23.5695 48.8482 20.2648 48.7461C11.0855 48.4623 3.74724 41.4968 3.13056 32.5288C2.74285 26.8915 4.65133 21.4099 7.75205 17.5125C8.11956 17.0506 8.14277 16.277 7.50973 15.813C3.35784 12.7695 1.53763 7.60615 2.79865 2.66633C5.65392 3.58968 8.05919 5.4744 9.64899 8.05847C10.3583 9.2111 11.6338 9.86393 12.9793 9.7626C16.124 9.52456 19.2497 10.4784 21.7165 12.3978C19.6231 14.721 16.7386 16.1847 13.6524 16.5037C13.8122 15.7435 13.9656 14.5402 13.8656 13.3741C13.7291 11.784 11.3743 11.9547 11.4664 13.548C11.5875 15.6426 11.0467 17.3901 10.2085 18.7883C9.392 20.1494 7.71922 23.2398 7.71922 26.7388C7.71922 33.0497 12.1334 36.8237 15.1992 38.1236C18.8884 39.6876 21.7668 39.8072 23.2938 39.8072C29.8706 39.8072 34.343 36.669 36.1781 35.1353L39.3265 32.5019C43.3491 29.1383 48.46 27.2844 53.7153 27.2844C54.6653 27.2844 55.6237 27.3455 56.563 27.4666C57.1438 27.5362 57.6326 28.0617 57.5936 28.7521C57.564 29.2755 57.4916 29.7946 57.4183 30.3121C54.9463 30.2191 52.4808 30.4889 50.0736 31.1178ZM51.5249 46.7668C51.5249 47.4288 50.9866 47.9655 50.3228 47.9655C49.659 47.9655 49.1207 47.4287 49.1207 46.7668C49.1207 46.1048 49.659 45.5681 50.3228 45.5681C50.9866 45.5681 51.5249 46.1047 51.5249 46.7668Z" fill="#C3B7D2"/>
</svg>
