<svg width="60" height="60" viewBox="0 0 60 60" fill="none" xmlns="http://www.w3.org/2000/svg">
<path d="M58.8279 44.4122H42.9553C44.9922 43.3109 46.8919 41.8762 48.5901 40.1323C49.0658 39.644 49.0953 38.8195 48.656 38.2905C48.2169 37.7616 47.4752 37.7288 46.9997 38.2173C43.1092 42.2123 38.0481 44.4123 32.7486 44.4122H30.1888C30.9245 43.7614 31.6337 43.0617 32.3101 42.3095C35.8532 38.3695 37.8084 33.1285 37.8156 27.5516C37.8222 22.4077 36.169 17.5531 33.1388 13.7414L40.9532 5.05056C42.3702 3.47465 44.2544 2.60687 46.2584 2.60687C50.3954 2.60687 53.761 6.3495 53.761 10.9497V21.0466C53.761 23.7922 53.3371 26.4802 52.501 29.0356C52.2797 29.712 52.5934 30.4599 53.2017 30.706C53.334 30.7594 53.4693 30.7848 53.6023 30.7848C54.0811 30.7848 54.5307 30.4561 54.7038 29.9267C55.6336 27.0847 56.105 24.0971 56.105 21.0464V15.5289H58.8277C59.3018 15.5289 59.7291 15.2112 59.9106 14.7243C60.0919 14.2372 59.9916 13.6767 59.6565 13.3039L55.9802 9.21587C55.2306 3.99939 51.157 0 46.2581 0C43.628 0 41.1552 1.13902 39.2954 3.2072L1.90675 44.7847C1.64831 45.0721 1.52524 45.4771 1.57388 45.8798C1.62252 46.2827 1.83736 46.6372 2.15488 46.8384C3.46199 47.6675 4.81668 48.3489 6.20056 48.8924L0.34331 55.4056C0.122607 55.651 -0.00104818 55.9843 6.6942e-06 56.3313C0.000944361 56.6784 0.126357 57.0107 0.348467 57.2546C2.01529 59.0856 4.19841 60 6.38118 60C8.58165 60 10.7818 59.0704 12.4517 57.2133L18.8884 50.0557C21.5936 49.5285 24.2254 48.5101 26.6664 47.019H39.3649L43.6383 51.771V53.3164C43.6383 56.9817 46.3199 59.9636 49.6159 59.9636H51.4913C52.1385 59.9636 52.6633 59.38 52.6633 58.6603V56.5749C52.6633 52.9097 49.9817 49.9277 46.6857 49.9277H45.2959L42.6802 47.019H58.8279C59.4751 47.019 60 46.4354 60 45.7156C60 44.9959 59.4751 44.4122 58.8279 44.4122ZM23.5304 33.3018C19.6009 37.6716 14.3921 40.271 8.92073 40.6715L28.3218 19.0975C28.6528 24.3406 26.9403 29.5099 23.5304 33.3018ZM6.54363 43.3149C6.84005 43.3266 7.13612 43.3346 7.43183 43.3346C14.0597 43.3346 20.4631 40.3993 25.188 35.1451C29.5503 30.2941 31.4822 23.4682 30.424 16.7598L31.4783 15.5874C34.0674 18.9026 35.4773 23.102 35.4716 27.5479C35.4651 32.4299 33.7539 37.0177 30.6527 40.4663C23.79 48.0975 13.3158 50.0076 4.68928 45.377L6.54363 43.3149ZM10.7942 55.3699C8.661 57.7423 5.33826 58.0326 2.91427 56.2331L8.76238 49.73C10.6623 50.2293 12.5976 50.4788 14.5282 50.4788C14.7531 50.4788 14.9778 50.4746 15.2025 50.4679L10.7942 55.3699ZM50.3193 56.575V57.357H49.616C47.6125 57.357 45.9826 55.5446 45.9826 53.3166V52.5346H46.6858C48.6894 52.5346 50.3193 54.347 50.3193 56.575Z" fill="#C3B7D2"/>
</svg>
