<svg width="60" height="60" viewBox="0 0 60 60" fill="none" xmlns="http://www.w3.org/2000/svg">
<path d="M59.8412 10.2404C58.4701 7.29379 56.2507 6.26018 54.9655 5.8996C54.704 4.40677 53.9883 3.02355 52.9111 1.98146C51.5974 0.705218 49.8701 0.00278048 48.0466 0C47.1349 0.00146341 46.2197 0.179853 45.3244 0.529755C44.4724 0.863266 43.6638 1.34195 42.9186 1.95351C42.1674 2.57546 41.5298 3.2896 41.0224 4.07692C40.4776 4.92145 40.0943 5.83462 39.8833 6.79008C39.7837 7.25837 39.7369 7.75154 39.7357 8.34422C39.7415 10.0374 40.133 11.8405 40.427 13.0478C40.4938 13.3185 40.5664 13.598 40.6414 13.8775C39.0513 14.4423 36.5329 15.4522 33.5609 17.0457C30.8398 18.5061 28.2969 20.1598 26.0023 21.9598C23.1184 24.2238 20.5941 26.7437 18.5 29.4525C17.941 29.7569 16.4633 30.6159 14.7945 32.0427C13.6156 33.0539 12.575 34.1412 11.7043 35.2724C10.5968 36.7108 9.72849 38.2622 9.12497 39.8806L0.676202 44.814C0.364483 44.9955 0.133623 45.3379 0.0422168 45.7506C-0.0491896 46.1648 0.00940426 46.6067 0.202764 46.9609C0.257842 47.0648 0.778156 47.9942 2.07308 48.8633C2.77738 49.3389 3.593 49.7165 4.49652 49.9843C5.59105 50.3093 6.8145 50.4747 8.13286 50.4747H8.14458C8.85122 50.4747 11.4727 50.239 12.1055 50.239H12.1594C13.9641 50.239 16.0407 50.5156 18.2391 50.8098C20.8958 51.1654 23.9087 51.5678 27.0973 51.5706C29.9341 51.5706 32.5517 51.246 35.056 50.5844L35.5107 58.6395C35.554 59.4059 36.0645 60 36.6798 60H44.4532C45.1003 60 45.6251 59.3447 45.6251 58.5366C45.6251 57.7285 45.1003 57.0732 44.4532 57.0732H37.7719C37.7719 57.0732 37.3455 49.0718 37.3582 49.0478C37.6957 48.4039 38.6812 46.7721 40.541 45.534C40.8164 45.3511 41.0191 45.0438 41.1104 44.6693C41.2008 44.296 41.1702 43.8994 41.0225 43.5556C40.8186 43.077 40.4225 42.78 39.9878 42.78C39.7967 42.78 39.6069 42.8384 39.4383 42.9527C37.1506 44.4791 35.9086 46.4547 35.3694 47.4981C32.7832 48.2694 30.0545 48.6439 27.0744 48.6439C24.1107 48.6439 21.3164 48.2752 18.6363 47.9166C16.3242 47.6078 14.1421 47.3166 12.1054 47.3122C11.3952 47.3122 8.77258 47.5478 8.14446 47.5478C6.23196 47.5462 4.64523 47.1731 3.42531 46.44L10.1056 42.5412C13.5725 43.8717 16.5671 44.4104 19.1962 44.4104C25.4778 44.4104 29.6772 41.3462 33.2647 38.7279C34.869 37.557 36.3845 36.4509 37.8988 35.7663C41.5323 34.1235 45.7029 31.4844 45.7029 25.61C45.7029 21.7482 43.9821 18.3796 41.4484 16.6343C41.6094 16.5778 42.4509 16.3042 42.4533 16.3042C42.7896 16.2061 43.072 15.9294 43.2302 15.546C43.3874 15.1625 43.4013 14.7147 43.2689 14.3168C43.2689 14.3168 43.2666 14.3095 43.2584 14.2845C43.2232 14.1764 42.9056 13.1913 42.6103 11.9533C42.2741 10.5587 42.0759 9.20939 42.0796 8.34452C42.0796 8.0372 42.1042 7.74744 42.1475 7.55135C42.3725 6.45964 43.1623 5.25087 44.2089 4.3977C45.3396 3.46243 46.7442 2.92682 48.045 2.92682C49.3294 2.92682 50.5838 3.42292 51.4686 4.28926C52.2772 5.08462 52.7119 6.10301 52.7323 7.14657C52.7127 8.16774 52.2932 9.21715 51.5132 10.0068C51.0279 10.4927 50.9306 11.3678 51.2916 11.9985C51.8974 13.0462 52.4987 14.8754 52.9006 16.892C53.3375 19.0549 53.5779 21.4741 53.5779 23.7058C53.5779 24.1066 53.5708 24.5017 53.5556 24.8808C53.408 29.0281 51.458 33.7286 48.465 37.15C48.2341 37.415 48.1007 37.7763 48.0877 38.1671C48.0736 38.5578 48.1838 38.9311 48.3959 39.2179C48.6162 39.5194 48.9314 39.692 49.2584 39.692C49.5525 39.692 49.8338 39.5545 50.0517 39.3056C51.7252 37.3754 53.142 35.0822 54.1463 32.6734C54.6607 31.4398 55.0709 30.1739 55.3638 28.9095C55.665 27.6056 55.8444 26.2973 55.8972 25.0213C55.9136 24.5925 55.9218 24.1507 55.9218 23.7058C55.9205 21.2078 55.6628 18.6043 55.174 16.1765C54.7886 14.2829 54.3069 12.6717 53.742 11.3881C54.1615 10.7985 54.4896 10.1473 54.717 9.45217C54.7778 9.26632 54.8308 9.07827 54.8762 8.88847C55.7598 9.22198 57.0106 9.98266 57.8147 11.7109C58.0322 12.1784 58.4251 12.4394 58.8291 12.4394C59.0289 12.4394 59.2315 12.3753 59.4168 12.2411C59.9762 11.8349 60.1663 10.9391 59.8412 10.2404ZM43.3592 25.6097C43.3592 28.8591 41.546 31.0043 37.101 33.0143C35.386 33.7896 33.7813 34.9609 32.0822 36.2007C27.2853 39.7018 21.8732 43.6492 11.6865 40.072C12.8606 37.5754 14.6848 35.6778 16.1191 34.4575C17.0988 33.6189 18.007 33.0014 18.5964 32.6311C18.8589 32.4658 19.9113 31.8453 20.0296 31.6902C24.491 25.819 30.3538 21.9482 34.4859 19.7341C35.5278 19.1751 37.4651 18.2926 37.5 18.2926C40.7308 18.2926 43.3592 21.5751 43.3592 25.6097Z" fill="#C3B7D2"/>
<path d="M48.6133 8.82135C49.2605 8.82135 49.7852 8.16616 49.7852 7.35794C49.7852 6.54972 49.2605 5.89453 48.6133 5.89453C47.9661 5.89453 47.4414 6.54972 47.4414 7.35794C47.4414 8.16616 47.9661 8.82135 48.6133 8.82135Z" fill="#C3B7D2"/>
<path d="M44.9102 43.3721C45.5574 43.3721 46.082 42.7169 46.082 41.9087C46.082 41.1005 45.5574 40.4453 44.9102 40.4453C44.2629 40.4453 43.7383 41.1005 43.7383 41.9087C43.7383 42.7169 44.2629 43.3721 44.9102 43.3721Z" fill="#C3B7D2"/>
</svg>
