<svg width="60" height="41" viewBox="0 0 60 41" fill="none" xmlns="http://www.w3.org/2000/svg">
<path d="M41.3046 33.1277C41.2359 32.4804 40.3383 32.0785 38.3333 31.8148C38.5058 31.4462 38.6356 31.0353 38.7247 30.5745C38.8426 29.9661 38.7987 29.2018 38.5945 28.3031C38.544 28.0813 38.3184 27.9412 38.0905 27.9903C37.8624 28.0394 37.7186 28.2589 37.7689 28.4806C37.9485 29.2703 37.9904 29.9236 37.8938 30.4222C37.5639 32.1257 36.655 33.2957 33.2936 33.7781C34.092 31.7729 34.3006 30.2242 34.3113 30.1416C34.3403 29.9163 34.1763 29.7106 33.9447 29.6822C33.7135 29.6536 33.5015 29.8134 33.4723 30.0389C33.4692 30.0634 33.1375 32.5287 31.7046 35.2079C31.6045 35.3947 31.666 35.6249 31.8471 35.7409C32.2892 36.0245 32.7219 36.3598 32.9757 36.6043C32.9283 36.5932 32.8835 36.5821 32.8473 36.5729C32.5863 36.5082 32.34 36.4467 32.1178 36.4975C31.8315 36.5631 31.652 36.761 31.5209 36.9056C31.4906 36.9389 31.4491 36.9848 31.4188 37.0128C31.3229 36.9795 31.1495 36.8753 31.05 36.8157C30.8169 36.676 30.6329 36.5658 30.4268 36.5658C30.2643 36.5658 30.1032 36.6342 29.8086 36.7651C29.7772 36.779 29.7394 36.7958 29.6988 36.8136C29.8191 36.4732 30.0608 35.988 30.3343 35.686C30.4118 35.6002 30.4494 35.487 30.4377 35.3734C30.3157 34.1747 29.998 31.0498 29.9838 30.8867C29.9704 30.6712 29.7866 30.5006 29.5618 30.5006C29.3282 30.5006 29.139 30.6849 29.139 30.9119C29.139 30.936 29.139 30.9593 29.4514 34.0293C29.1906 34.0329 28.9219 34.0348 28.6459 34.0348C28.37 34.0348 28.1013 34.0327 27.8407 34.0293C28.1529 30.9595 28.1529 30.936 28.1529 30.9119C28.1529 30.6849 27.9637 30.5006 27.7301 30.5006C27.5055 30.5006 27.3218 30.6712 27.3081 30.8867C27.2941 31.05 26.9764 34.1747 26.8542 35.3734C26.8425 35.487 26.8801 35.6002 26.9578 35.686C27.2313 35.988 27.4728 36.4732 27.5931 36.8136C27.5527 36.7958 27.5149 36.779 27.4835 36.7651C27.1889 36.6342 27.0276 36.5658 26.8651 36.5658C26.659 36.5658 26.475 36.676 26.2421 36.8157C26.1418 36.8759 25.9662 36.9812 25.874 37.0134C25.8434 36.9855 25.8015 36.9393 25.771 36.9056C25.6399 36.761 25.4604 36.5631 25.1743 36.4975C24.9519 36.4467 24.7056 36.508 24.4446 36.5729C24.4084 36.5819 24.3638 36.593 24.3166 36.6041C24.5704 36.3598 25.0029 36.0247 25.445 35.7409C25.6259 35.6249 25.6874 35.3947 25.5873 35.2079C24.1586 32.5363 23.8229 30.0632 23.8196 30.0387C23.7902 29.8134 23.579 29.6538 23.3474 29.6822C23.1156 29.7106 22.9516 29.9163 22.9808 30.1416C22.9916 30.2244 23.2001 31.774 23.999 33.7801C21.4746 33.4313 19.8334 32.6698 19.3981 30.4222C19.3638 30.2458 19.3469 30.0472 19.3478 29.8315C19.3485 29.6045 19.1599 29.4198 18.9263 29.4189C18.9259 29.4189 18.9254 29.4189 18.925 29.4189C18.6921 29.4189 18.5031 29.6022 18.5022 29.8287C18.5013 30.0961 18.5233 30.347 18.5672 30.5745C18.6565 31.0353 18.7863 31.4462 18.9588 31.8148C16.9539 32.0785 16.0562 32.4804 15.9875 33.1275C15.9019 33.9343 16.6182 34.1463 17.0463 34.2729C17.2711 34.3396 17.5036 34.4083 17.5977 34.5172C17.7137 34.6516 17.7202 34.7697 17.7227 34.9843C17.7251 35.2277 17.729 35.5959 18.0789 35.8882C18.34 36.1063 18.7353 36.071 19.1933 36.0303C19.4071 36.0112 19.8033 35.9758 19.9142 36.0253C19.9737 36.0747 20.0391 36.2015 20.0971 36.3141C20.2461 36.6026 20.4896 37.0743 21.0977 37.0743C21.1354 37.0743 21.1747 37.0724 21.2156 37.0685C21.661 37.0269 21.9536 36.6226 22.3587 36.0631C22.6972 35.5957 23.1127 35.0225 23.6908 34.5647C23.9098 34.5984 24.1379 34.6289 24.375 34.6567C24.467 34.8566 24.5649 35.0592 24.6688 35.264C24.5113 35.374 24.3122 35.5186 24.1166 35.676C23.6001 36.0913 23.0989 36.5797 23.2982 37.0536C23.547 37.6451 24.2672 37.466 24.654 37.3699C24.7605 37.3434 24.9177 37.3043 24.9851 37.3013C25.0222 37.3231 25.0933 37.4015 25.137 37.4497C25.2804 37.608 25.4953 37.845 25.8432 37.845C25.8524 37.845 25.8619 37.8448 25.8713 37.8444C26.1547 37.8341 26.4368 37.6652 26.6858 37.5159C26.7435 37.4813 26.8225 37.4339 26.8785 37.4045C26.9492 37.4318 27.055 37.479 27.1321 37.5132C27.5566 37.7019 27.9235 37.8651 28.2218 37.7073C28.309 37.6614 28.4618 37.5475 28.5061 37.3028C28.5983 36.7963 28.1285 35.8223 27.7127 35.2867C27.7281 35.1361 27.7428 34.9911 27.7571 34.8508C28.0438 34.8551 28.3408 34.8572 28.6459 34.8572C28.9511 34.8572 29.2481 34.8549 29.5348 34.8508C29.5491 34.9909 29.564 35.1355 29.5792 35.2856C29.3836 35.5348 29.1904 35.8603 29.0354 36.2054C28.8894 36.5297 28.7278 36.9835 28.7858 37.3028C28.8304 37.5473 28.9829 37.6611 29.0701 37.7073C29.3686 37.8651 29.7352 37.7019 30.16 37.5129C30.2371 37.4788 30.3429 37.4318 30.4136 37.4045C30.4694 37.4337 30.5484 37.4811 30.6063 37.5159C30.8551 37.665 31.1372 37.8341 31.4206 37.8444C31.4302 37.8446 31.4394 37.8448 31.4487 37.8448C31.7966 37.8448 32.0115 37.6078 32.1549 37.4495C32.1992 37.4008 32.2717 37.3207 32.3055 37.3011C32.3722 37.3037 32.5307 37.3429 32.6379 37.3696C33.0249 37.466 33.7452 37.6451 33.9939 37.0536C34.1932 36.5795 33.692 36.0911 33.1755 35.676C32.9797 35.5186 32.7808 35.374 32.6231 35.2638C32.7272 35.0592 32.8249 34.8566 32.9169 34.6565C33.1542 34.6289 33.3821 34.5982 33.6014 34.5644C34.1794 35.0223 34.5949 35.5957 34.9332 36.0629C35.3385 36.6226 35.6311 37.0269 36.0765 37.0685C36.1172 37.0724 36.1565 37.0741 36.1942 37.0741C36.8023 37.0741 37.046 36.6026 37.1948 36.3138C37.2528 36.2015 37.3184 36.0747 37.3777 36.0253C37.4888 35.9756 37.8848 36.011 38.0988 36.03C38.5566 36.071 38.9522 36.1063 39.2129 35.8882C39.5631 35.5957 39.5668 35.2277 39.5695 34.9843C39.5717 34.7697 39.5782 34.6516 39.6942 34.5172C39.7883 34.4081 40.0208 34.3394 40.2456 34.2729C40.6737 34.1463 41.3902 33.9343 41.3046 33.1277ZM21.6676 35.5895C21.4832 35.844 21.2325 36.1906 21.117 36.2515C21.0395 36.2573 21.005 36.2397 20.8527 35.9448C20.7528 35.7516 20.6395 35.5323 20.4281 35.3721C20.0995 35.1235 19.5996 35.1681 19.116 35.2113C18.9503 35.226 18.7081 35.2476 18.6014 35.235C18.5764 35.1993 18.5698 35.143 18.5681 34.976C18.5654 34.7284 18.5615 34.3545 18.2453 33.9885C17.9898 33.6925 17.6195 33.5827 17.2926 33.486C16.8588 33.3577 16.8215 33.3184 16.8261 33.2381C16.8841 33.1772 17.2981 32.8349 19.4304 32.5857C19.6787 32.9013 19.9757 33.1766 20.3267 33.4172C20.9282 33.83 21.6911 34.1425 22.6645 34.369C22.2465 34.7904 21.9246 35.2346 21.6676 35.5895ZM39.9995 33.4862C39.6726 33.583 39.3023 33.6925 39.0468 33.9885C38.7304 34.3545 38.7265 34.7284 38.7238 34.976C38.7223 35.143 38.7155 35.1995 38.6905 35.235C38.5838 35.2476 38.3419 35.226 38.1761 35.2113C37.6927 35.1681 37.1926 35.1235 36.864 35.3721C36.6524 35.5323 36.5391 35.7516 36.4394 35.9448C36.2871 36.2397 36.2524 36.2573 36.1751 36.2515C36.0596 36.1906 35.8089 35.844 35.6245 35.5895C35.3675 35.2346 35.0456 34.7904 34.6277 34.369C35.601 34.1425 36.3637 33.8303 36.9654 33.4175C37.3162 33.1766 37.6135 32.9015 37.8618 32.5857C39.9938 32.8349 40.4081 33.1772 40.4658 33.2381C40.4706 33.3184 40.4333 33.3579 39.9995 33.4862Z" fill="white"/>
<path d="M19.4996 24.7729C19.6148 24.8649 19.734 24.9546 19.8568 25.0424C19.4739 25.8829 19.0142 27.0126 18.7435 28.1053C18.6902 28.3204 18.8278 28.5433 19.0476 28.5995C19.2737 28.6571 19.5108 28.5188 19.5654 28.298C19.8087 27.3165 20.217 26.2944 20.5722 25.503C21.2604 25.9038 22.0391 26.247 22.9014 26.5272C23.12 26.5983 23.3635 26.48 23.4364 26.2675C23.5104 26.052 23.3909 25.8191 23.1694 25.7471C20.4003 24.8468 18.6634 23.3308 18.007 21.241C17.6685 20.1634 17.6937 18.8007 18.0799 17.3003C18.1365 17.0799 17.9989 16.8565 17.7725 16.8014C17.5464 16.7464 17.3164 16.8802 17.2597 17.1004C16.8363 18.746 16.8152 20.2608 17.1985 21.4812C17.6033 22.7704 18.3776 23.8779 19.4996 24.7729Z" fill="white"/>
<path d="M18.0381 16.0109C18.2552 16.0937 18.5006 15.9897 18.586 15.7783C19.685 13.0536 21.6157 10.9207 23.1772 10.7067C24.8781 10.4739 25.7802 11.7635 25.8166 11.8171C25.8948 11.9335 26.028 12.0038 26.1709 12.0038H31.125C31.268 12.0038 31.4012 11.9335 31.4794 11.8171C31.4884 11.8037 32.4023 10.4718 34.119 10.7067C35.1975 10.8545 36.4818 11.9205 37.5542 13.5582C38.3256 14.736 38.9282 16.1189 39.2509 17.4523C39.5995 18.8917 39.6114 20.2011 39.2854 21.239C38.6292 23.3288 36.8923 24.845 34.1231 25.7451C33.9131 25.8135 33.791 26.0356 33.8492 26.2434C33.9122 26.4682 34.1638 26.5991 34.391 26.5252C35.2533 26.2451 36.0322 25.9019 36.7202 25.501C36.9454 26.002 37.1436 26.4877 37.3107 26.9491C37.3913 27.1717 37.6569 27.2838 37.8793 27.1892C38.0793 27.104 38.1807 26.8761 38.1082 26.676C37.9197 26.1554 37.6938 25.6063 37.4356 25.0404C37.5583 24.9529 37.6775 24.863 37.7928 24.7711C38.915 23.8759 39.6891 22.7685 40.0941 21.4795C40.9112 18.8773 39.7652 15.4042 38.2672 13.1164C37.0457 11.251 35.5766 10.0758 34.2369 9.89241C32.4097 9.64234 31.2925 10.7293 30.9141 11.1814H26.3819C26.0034 10.7293 24.8856 9.64212 23.0593 9.89241C22.08 10.0265 21.0425 10.6755 20.0584 11.7691C19.1656 12.7617 18.3632 14.0786 17.7988 15.4778C17.7136 15.6892 17.8207 15.9278 18.0381 16.0109Z" fill="white"/>
<path d="M26.7069 14.0166C26.4764 13.982 26.2602 14.1355 26.2244 14.36C26.2125 14.4332 26.1243 15.0927 26.6217 15.6575C27.0386 16.131 27.7196 16.371 28.646 16.371C29.5724 16.371 30.2534 16.131 30.6703 15.6575C31.1675 15.0927 31.0792 14.4332 31.0674 14.36C31.0316 14.1355 30.8152 13.982 30.5849 14.0166C30.3541 14.0516 30.1961 14.2617 30.2319 14.4862C30.2325 14.4896 30.2756 14.8413 30.0281 15.1226C29.7827 15.4012 29.3048 15.5486 28.6458 15.5486C27.9933 15.5486 27.5176 15.4038 27.2704 15.13C27.0149 14.8471 27.0586 14.4962 27.0599 14.4862C27.0957 14.2617 26.9376 14.0516 26.7069 14.0166Z" fill="white"/>
<path d="M23.6949 12.1388C23.228 11.9259 22.6515 12.1974 22.3821 12.7564C22.1128 13.3153 22.2675 13.9201 22.7343 14.1328C23.2684 14.3762 23.8238 13.9779 24.0466 13.5152C24.2692 13.0535 24.2262 12.3812 23.6949 12.1388Z" fill="white"/>
<path d="M34.5565 14.1327C35.023 13.92 35.1776 13.3154 34.9084 12.7563C34.6391 12.1973 34.0626 11.9261 33.5956 12.1388C33.0644 12.3809 33.0213 13.0534 33.2439 13.5151C33.4668 13.9779 34.0222 14.3761 34.5565 14.1327Z" fill="white"/>
<path d="M14.6065 12.7908C14.5746 12.49 14.1574 12.3032 13.2255 12.1806C13.3057 12.0093 13.366 11.8183 13.4074 11.6041C13.4622 11.3213 13.4418 10.9661 13.3469 10.5484C13.3234 10.4453 13.2185 10.3802 13.1126 10.403C13.0066 10.4258 12.9398 10.5279 12.9631 10.6309C13.0466 10.9979 13.0661 11.3016 13.0212 11.5333C12.8678 12.3251 12.4454 12.869 10.883 13.0932C11.2541 12.1611 11.3511 11.4413 11.3561 11.4029C11.3695 11.2982 11.2933 11.2026 11.1857 11.1894C11.0782 11.1761 10.9796 11.2504 10.9661 11.3552C10.9646 11.3666 10.8105 12.5124 10.1445 13.7577C10.098 13.8446 10.1265 13.9516 10.2107 14.0055C10.4162 14.1373 10.6173 14.2931 10.7353 14.4068C10.7132 14.4016 10.6924 14.3964 10.6756 14.3922C10.5543 14.3621 10.4398 14.3335 10.3365 14.3571C10.2035 14.3876 10.12 14.4796 10.0591 14.5468C10.045 14.5623 10.0257 14.5836 10.0116 14.5966C9.96704 14.5812 9.88643 14.5327 9.84021 14.505C9.73184 14.4401 9.64634 14.3889 9.55053 14.3889C9.47502 14.3889 9.40013 14.4207 9.26319 14.4815C9.2486 14.4879 9.23105 14.4958 9.21217 14.504C9.26809 14.3458 9.38043 14.1203 9.50757 13.9799C9.54359 13.94 9.56104 13.8874 9.55563 13.8346C9.4989 13.2775 9.35125 11.8251 9.34462 11.7492C9.33839 11.6491 9.25299 11.5698 9.1485 11.5698C9.03994 11.5698 8.95198 11.6554 8.95198 11.7609C8.95198 11.7722 8.95198 11.783 9.09718 13.2099C8.97596 13.2116 8.85107 13.2125 8.72281 13.2125C8.59455 13.2125 8.46966 13.2115 8.34854 13.2099C8.49364 11.7831 8.49364 11.7722 8.49364 11.7609C8.49364 11.6554 8.40568 11.5698 8.29712 11.5698C8.19273 11.5698 8.10733 11.6491 8.101 11.7492C8.09447 11.8252 7.94683 13.2775 7.88999 13.8346C7.88458 13.8874 7.90203 13.94 7.93815 13.9799C8.06529 14.1203 8.17753 14.3458 8.23344 14.504C8.21467 14.4958 8.19712 14.4879 8.18253 14.4815C8.0456 14.4207 7.9706 14.3889 7.89509 14.3889C7.79928 14.3889 7.71378 14.4401 7.60552 14.505C7.55888 14.533 7.47726 14.5819 7.4344 14.5969C7.42022 14.5839 7.40073 14.5625 7.38655 14.5468C7.32563 14.4796 7.24216 14.3876 7.10921 14.3571C7.00585 14.3335 6.89136 14.362 6.77004 14.3922C6.75321 14.3963 6.73249 14.4015 6.71056 14.4067C6.82851 14.2931 7.02952 14.1374 7.23502 14.0055C7.3191 13.9516 7.34767 13.8446 7.30114 13.7577C6.63709 12.516 6.48108 11.3665 6.47955 11.3551C6.46587 11.2504 6.36772 11.1762 6.26007 11.1894C6.15232 11.2026 6.0761 11.2982 6.08967 11.4029C6.09467 11.4414 6.1916 12.1616 6.56291 13.0941C5.3896 12.932 4.62678 12.578 4.42444 11.5333C4.40852 11.4514 4.40066 11.359 4.40107 11.2588C4.40138 11.1533 4.31373 11.0674 4.20516 11.067C4.20496 11.067 4.20475 11.067 4.20455 11.067C4.09629 11.067 4.00844 11.1522 4.00803 11.2575C4.00762 11.3818 4.01782 11.4984 4.03823 11.6041C4.07976 11.8183 4.14006 12.0093 4.22026 12.1806C3.28837 12.3032 2.87114 12.49 2.83921 12.7907C2.79941 13.1657 3.13236 13.2643 3.33133 13.3232C3.43581 13.3541 3.54387 13.3861 3.58764 13.4367C3.64152 13.4991 3.64458 13.554 3.6457 13.6538C3.64682 13.7669 3.64866 13.9381 3.8113 14.0739C3.93262 14.1753 4.11639 14.1589 4.32924 14.14C4.42862 14.1311 4.6128 14.1146 4.66432 14.1377C4.69198 14.1606 4.72238 14.2196 4.74932 14.2719C4.8186 14.406 4.93176 14.6252 5.2144 14.6252C5.23195 14.6252 5.25022 14.6243 5.26919 14.6225C5.47623 14.6032 5.61224 14.4153 5.8005 14.1552C5.95784 13.938 6.15099 13.6716 6.41965 13.4587C6.52148 13.4744 6.6275 13.4886 6.7377 13.5015C6.78045 13.5944 6.82596 13.6886 6.87422 13.7838C6.80106 13.8349 6.70852 13.9021 6.6176 13.9753C6.37751 14.1683 6.14456 14.3953 6.23721 14.6156C6.35282 14.8905 6.6876 14.8073 6.86739 14.7626C6.91687 14.7503 6.98993 14.7321 7.02126 14.7307C7.0385 14.7409 7.07156 14.7773 7.09187 14.7997C7.15849 14.8733 7.25839 14.9834 7.42012 14.9834C7.4244 14.9834 7.42879 14.9833 7.43318 14.9831C7.5649 14.9784 7.69602 14.8999 7.81173 14.8305C7.83857 14.8144 7.8753 14.7924 7.90132 14.7787C7.93417 14.7914 7.98335 14.8133 8.01917 14.8292C8.21651 14.9169 8.38701 14.9928 8.52568 14.9194C8.56618 14.8981 8.6372 14.8452 8.65781 14.7314C8.70067 14.496 8.48231 14.0433 8.28905 13.7943C8.2962 13.7244 8.30303 13.657 8.30967 13.5918C8.44292 13.5937 8.58098 13.5947 8.72281 13.5947C8.86464 13.5947 9.00269 13.5936 9.13595 13.5918C9.14259 13.6569 9.14952 13.7241 9.15657 13.7938C9.06565 13.9097 8.97586 14.0609 8.90382 14.2213C8.83597 14.3721 8.76087 14.583 8.78781 14.7314C8.80852 14.8451 8.87944 14.898 8.91994 14.9194C9.05871 14.9928 9.22911 14.9169 9.42655 14.8291C9.46237 14.8132 9.51155 14.7914 9.5444 14.7787C9.57032 14.7923 9.60705 14.8143 9.63399 14.8305C9.7496 14.8998 9.88072 14.9784 10.0124 14.9831C10.0169 14.9832 10.0212 14.9833 10.0255 14.9833C10.1872 14.9833 10.2871 14.8732 10.3538 14.7996C10.3744 14.777 10.408 14.7398 10.4238 14.7306C10.4548 14.7318 10.5284 14.7501 10.5782 14.7625C10.7581 14.8073 11.0929 14.8905 11.2085 14.6156C11.3012 14.3952 11.0682 14.1682 10.8281 13.9753C10.7371 13.9021 10.6447 13.8349 10.5714 13.7837C10.6198 13.6886 10.6652 13.5944 10.7079 13.5014C10.8182 13.4886 10.9241 13.4743 11.0261 13.4586C11.2947 13.6715 11.4879 13.938 11.6451 14.1551C11.8335 14.4153 11.9695 14.6032 12.1765 14.6225C12.1954 14.6243 12.2137 14.6251 12.2312 14.6251C12.5139 14.6251 12.6271 14.406 12.6963 14.2718C12.7232 14.2196 12.7537 14.1606 12.7813 14.1377C12.8329 14.1145 13.017 14.131 13.1165 14.1399C13.3292 14.1589 13.5131 14.1753 13.6343 14.0739C13.7971 13.938 13.7988 13.7669 13.8 13.6538C13.801 13.554 13.8041 13.4991 13.858 13.4367C13.9018 13.386 14.0098 13.354 14.1143 13.3232C14.3133 13.2643 14.6463 13.1657 14.6065 12.7908ZM5.47929 13.9351C5.39358 14.0534 5.27705 14.2145 5.22338 14.2428C5.18736 14.2455 5.17134 14.2373 5.10053 14.1002C5.0541 14.0104 5.00145 13.9085 4.90319 13.834C4.75044 13.7185 4.51811 13.7392 4.29332 13.7593C4.21628 13.7661 4.10374 13.7762 4.05415 13.7703C4.04252 13.7537 4.03946 13.7275 4.03864 13.6499C4.03742 13.5349 4.03558 13.3611 3.88865 13.1909C3.76988 13.0534 3.59774 13.0024 3.44581 12.9574C3.24419 12.8977 3.22684 12.8795 3.22898 12.8422C3.25592 12.8139 3.44836 12.6548 4.43944 12.5389C4.55484 12.6856 4.69289 12.8136 4.85605 12.9254C5.13563 13.1173 5.4902 13.2625 5.94263 13.3678C5.74836 13.5637 5.59877 13.7701 5.47929 13.9351ZM13.9999 12.9575C13.848 13.0025 13.6758 13.0534 13.5571 13.1909C13.41 13.3611 13.4082 13.5349 13.407 13.6499C13.4063 13.7275 13.4031 13.7538 13.3915 13.7703C13.3419 13.7762 13.2294 13.7661 13.1524 13.7593C12.9277 13.7392 12.6953 13.7185 12.5425 13.834C12.4442 13.9085 12.3915 14.0104 12.3452 14.1002C12.2744 14.2373 12.2583 14.2455 12.2223 14.2428C12.1687 14.2145 12.0521 14.0534 11.9664 13.9351C11.847 13.7701 11.6974 13.5637 11.5031 13.3678C11.9555 13.2625 12.31 13.1174 12.5897 12.9255C12.7527 12.8136 12.8909 12.6857 13.0063 12.5389C13.9973 12.6548 14.1898 12.8139 14.2166 12.8422C14.2189 12.8795 14.2015 12.8978 13.9999 12.9575Z" fill="white"/>
<path d="M4.47364 8.90616C4.52721 8.94894 4.58261 8.99063 4.63965 9.03142C4.4617 9.4221 4.24803 9.94717 4.12222 10.4551C4.09743 10.555 4.16141 10.6587 4.26354 10.6848C4.36864 10.7116 4.47884 10.6472 4.50425 10.5446C4.6173 10.0884 4.80709 9.61337 4.97219 9.24552C5.29207 9.43183 5.65399 9.59134 6.05479 9.72156C6.15642 9.75461 6.26957 9.69963 6.30345 9.60086C6.33784 9.50071 6.28233 9.39242 6.17937 9.35897C4.89229 8.9405 4.08498 8.23587 3.77989 7.26454C3.62255 6.76368 3.63429 6.13032 3.81377 5.43294C3.84009 5.3305 3.77612 5.22668 3.67092 5.20107C3.56582 5.17546 3.45889 5.2377 3.43256 5.34003C3.23573 6.10491 3.22594 6.80894 3.40409 7.3762C3.59225 7.97542 3.95213 8.49017 4.47364 8.90616Z" fill="white"/>
<path d="M3.79279 4.83366C3.8937 4.87217 4.00778 4.82383 4.04747 4.72557C4.55826 3.45914 5.45567 2.46775 6.18145 2.36829C6.97203 2.2601 7.39129 2.85952 7.40823 2.88443C7.44456 2.93853 7.50649 2.97119 7.57292 2.97119H9.87557C9.94199 2.97119 10.0039 2.93853 10.0403 2.88443C10.0444 2.87818 10.4692 2.25911 11.2671 2.36829C11.7684 2.43698 12.3653 2.93248 12.8638 3.69368C13.2224 4.24109 13.5024 4.88388 13.6524 5.50365C13.8145 6.17264 13.82 6.78129 13.6685 7.26368C13.3635 8.23502 12.5562 8.93975 11.2691 9.35812C11.1714 9.38988 11.1147 9.49311 11.1417 9.58969C11.171 9.69421 11.2879 9.75505 11.3936 9.72071C11.7944 9.59048 12.1564 9.43098 12.4762 9.24467C12.5808 9.47753 12.673 9.70324 12.7506 9.91774C12.7881 10.0212 12.9115 10.0733 13.0149 10.0293C13.1079 9.9897 13.155 9.88379 13.1213 9.79079C13.0337 9.5488 12.9287 9.2936 12.8087 9.03057C12.8657 8.98988 12.9211 8.94809 12.9747 8.90541C13.4963 8.48932 13.8561 7.97457 14.0444 7.37545C14.4241 6.16599 13.8915 4.55167 13.1952 3.48832C12.6275 2.6213 11.9447 2.07509 11.3219 1.98982C10.4727 1.87359 9.95342 2.37882 9.77751 2.58894H7.67097C7.49506 2.37882 6.9755 1.87349 6.12666 1.98982C5.67147 2.05216 5.18925 2.3538 4.73182 2.8621C4.31684 3.32345 3.9439 3.93557 3.68157 4.58591C3.64198 4.68418 3.69177 4.79505 3.79279 4.83366Z" fill="white"/>
<path d="M7.82427 3.90851C7.71714 3.89243 7.61663 3.9638 7.6 4.06812C7.59449 4.10216 7.55347 4.40867 7.78468 4.67121C7.97845 4.89126 8.29497 5.00283 8.72556 5.00283C9.15615 5.00283 9.47267 4.89126 9.66643 4.67121C9.89754 4.40867 9.85653 4.10216 9.85102 4.06812C9.83438 3.9638 9.73378 3.89243 9.62674 3.90851C9.5195 3.92479 9.44603 4.02246 9.46267 4.12678C9.46297 4.12837 9.48297 4.29185 9.36798 4.42257C9.2539 4.5521 9.03177 4.62059 8.72546 4.62059C8.4222 4.62059 8.20109 4.55329 8.0862 4.42604C7.96743 4.29453 7.98773 4.13144 7.98835 4.12678C8.00498 4.02246 7.93151 3.92479 7.82427 3.90851Z" fill="white"/>
<path d="M6.42159 3.03367C6.20456 2.93471 5.93662 3.06087 5.81142 3.32072C5.68622 3.58048 5.75816 3.86158 5.97508 3.96044C6.22334 4.07359 6.48149 3.88848 6.58506 3.67338C6.68852 3.45879 6.66852 3.14633 6.42159 3.03367Z" fill="white"/>
<path d="M11.4698 3.9604C11.6866 3.86154 11.7584 3.58054 11.6333 3.32068C11.5081 3.06082 11.2402 2.93477 11.0232 3.03363C10.7762 3.14619 10.7562 3.45875 10.8597 3.67334C10.9633 3.88844 11.2214 4.07355 11.4698 3.9604Z" fill="white"/>
<path d="M59.9971 33.6815C59.9652 33.3806 59.548 33.1938 58.6161 33.0712C58.6963 32.8999 58.7566 32.7089 58.798 32.4947C58.8528 32.212 58.8324 31.8567 58.7375 31.439C58.714 31.3359 58.6091 31.2708 58.5032 31.2936C58.3972 31.3165 58.3304 31.4185 58.3537 31.5215C58.4372 31.8886 58.4567 32.1922 58.4118 32.424C58.2584 33.2157 57.836 33.7596 56.2736 33.9838C56.6447 33.0518 56.7417 32.332 56.7467 32.2935C56.7601 32.1888 56.6839 32.0932 56.5763 32.08C56.4688 32.0667 56.3703 32.141 56.3567 32.2458C56.3553 32.2572 56.2011 33.403 55.5351 34.6483C55.4886 34.7352 55.5171 34.8422 55.6013 34.8961C55.8068 35.0279 56.0079 35.1837 56.1259 35.2974C56.1039 35.2922 56.083 35.2871 56.0662 35.2828C55.9449 35.2527 55.8304 35.2241 55.7271 35.2478C55.5941 35.2782 55.5106 35.3702 55.4497 35.4374C55.4356 35.4529 55.4163 35.4743 55.4023 35.4873C55.3577 35.4718 55.2771 35.4233 55.2308 35.3956C55.1225 35.3307 55.037 35.2795 54.9412 35.2795C54.8656 35.2795 54.7908 35.3113 54.6538 35.3721C54.6392 35.3786 54.6217 35.3864 54.6028 35.3947C54.6587 35.2364 54.7711 35.0109 54.8982 34.8706C54.9342 34.8307 54.9517 34.7781 54.9463 34.7253C54.8895 34.1681 54.7419 32.7157 54.7352 32.6399C54.729 32.5397 54.6436 32.4604 54.5391 32.4604C54.4306 32.4604 54.3426 32.5461 54.3426 32.6516C54.3426 32.6628 54.3426 32.6736 54.4878 34.1005C54.3666 34.1022 54.2417 34.1031 54.1134 34.1031C53.9852 34.1031 53.8603 34.1021 53.7392 34.1005C53.8843 32.6737 53.8843 32.6628 53.8843 32.6516C53.8843 32.5461 53.7963 32.4604 53.6877 32.4604C53.5834 32.4604 53.498 32.5397 53.4916 32.6399C53.4851 32.7158 53.3375 34.1681 53.2806 34.7253C53.2752 34.7781 53.2927 34.8307 53.3288 34.8706C53.4559 35.0109 53.5682 35.2364 53.6241 35.3947C53.6053 35.3864 53.5877 35.3786 53.5732 35.3721C53.4362 35.3113 53.3612 35.2795 53.2857 35.2795C53.1899 35.2795 53.1044 35.3307 52.9961 35.3956C52.9495 35.4236 52.8679 35.4726 52.825 35.4876C52.8108 35.4746 52.7914 35.4531 52.7772 35.4374C52.7163 35.3702 52.6328 35.2782 52.4998 35.2478C52.3965 35.2241 52.282 35.2526 52.1607 35.2828C52.1438 35.287 52.1231 35.2921 52.1012 35.2973C52.2191 35.1837 52.4201 35.028 52.6256 34.8961C52.7097 34.8422 52.7383 34.7352 52.6918 34.6483C52.0277 33.4066 51.8717 32.2571 51.8702 32.2457C51.8565 32.141 51.7583 32.0668 51.6507 32.08C51.5429 32.0932 51.4667 32.1888 51.4803 32.2935C51.4853 32.3321 51.5822 33.0523 51.9535 33.9847C50.7802 33.8226 50.0174 33.4687 49.8151 32.424C49.7991 32.342 49.7913 32.2497 49.7917 32.1494C49.792 32.0439 49.7044 31.9581 49.5958 31.9577C49.5956 31.9577 49.5954 31.9577 49.5952 31.9577C49.4869 31.9577 49.3991 32.0428 49.3987 32.1481C49.3982 32.2724 49.4084 32.389 49.4289 32.4947C49.4704 32.7089 49.5307 32.8999 49.6109 33.0712C48.679 33.1938 48.2618 33.3806 48.2298 33.6814C48.19 34.0564 48.523 34.1549 48.722 34.2138C48.8264 34.2448 48.9345 34.2767 48.9783 34.3273C49.0321 34.3898 49.0352 34.4447 49.0363 34.5444C49.0374 34.6576 49.0393 34.8287 49.2019 34.9646C49.3232 35.0659 49.507 35.0495 49.7199 35.0306C49.8192 35.0217 50.0034 35.0053 50.0549 35.0283C50.0826 35.0512 50.113 35.1102 50.1399 35.1625C50.2092 35.2966 50.3224 35.5158 50.605 35.5158C50.6226 35.5158 50.6408 35.515 50.6598 35.5132C50.8669 35.4938 51.0029 35.3059 51.1911 35.0459C51.3485 34.8286 51.5416 34.5622 51.8103 34.3494C51.9121 34.3651 52.0181 34.3792 52.1283 34.3921C52.1711 34.4851 52.2166 34.5793 52.2648 34.6744C52.1917 34.7256 52.0991 34.7928 52.0082 34.8659C51.7681 35.059 51.5352 35.286 51.6278 35.5062C51.7434 35.7812 52.0782 35.6979 52.258 35.6532C52.3075 35.6409 52.3806 35.6227 52.4119 35.6214C52.4291 35.6315 52.4622 35.6679 52.4825 35.6903C52.5491 35.7639 52.649 35.8741 52.8107 35.8741C52.815 35.8741 52.8194 35.874 52.8238 35.8738C52.9555 35.869 53.0866 35.7905 53.2024 35.7211C53.2292 35.705 53.2659 35.683 53.2919 35.6693C53.3248 35.682 53.374 35.7039 53.4098 35.7198C53.6071 35.8076 53.7776 35.8834 53.9163 35.81C53.9568 35.7887 54.0278 35.7358 54.0484 35.6221C54.0913 35.3866 53.8729 34.9339 53.6797 34.685C53.6868 34.615 53.6937 34.5476 53.7003 34.4824C53.8335 34.4844 53.9716 34.4854 54.1134 34.4854C54.2553 34.4854 54.3933 34.4843 54.5266 34.4824C54.5332 34.5475 54.5401 34.6147 54.5472 34.6845C54.4563 34.8003 54.3665 34.9516 54.2944 35.112C54.2266 35.2627 54.1515 35.4737 54.1784 35.6221C54.1991 35.7357 54.2701 35.7886 54.3106 35.81C54.4493 35.8834 54.6197 35.8076 54.8172 35.7197C54.853 35.7038 54.9022 35.682 54.935 35.6693C54.9609 35.6829 54.9977 35.7049 55.0246 35.7211C55.1402 35.7904 55.2713 35.869 55.4031 35.8738C55.4076 35.8739 55.4118 35.874 55.4161 35.874C55.5779 35.874 55.6778 35.7638 55.7444 35.6902C55.765 35.6676 55.7987 35.6304 55.8144 35.6213C55.8454 35.6224 55.9191 35.6407 55.9689 35.6531C56.1487 35.6979 56.4835 35.7812 56.5991 35.5062C56.6918 35.2859 56.4588 35.0589 56.2187 34.8659C56.1277 34.7928 56.0353 34.7256 55.962 34.6743C56.0104 34.5793 56.0558 34.4851 56.0985 34.3921C56.2088 34.3792 56.3148 34.365 56.4167 34.3493C56.6854 34.5621 56.8785 34.8286 57.0357 35.0458C57.2241 35.3059 57.3601 35.4938 57.5672 35.5132C57.586 35.515 57.6043 35.5157 57.6218 35.5157C57.9045 35.5157 58.0177 35.2966 58.0869 35.1624C58.1139 35.1102 58.1444 35.0512 58.1719 35.0283C58.2236 35.0052 58.4076 35.0216 58.5071 35.0305C58.7199 35.0495 58.9037 35.0659 59.0249 34.9646C59.1877 34.8286 59.1894 34.6576 59.1906 34.5444C59.1917 34.4447 59.1947 34.3898 59.2486 34.3273C59.2924 34.2766 59.4004 34.2447 59.5049 34.2138C59.7039 34.1549 60.0369 34.0564 59.9971 33.6815ZM50.8699 34.8257C50.7842 34.944 50.6677 35.1051 50.614 35.1334C50.578 35.1361 50.562 35.1279 50.4912 34.9909C50.4447 34.901 50.3921 34.7991 50.2938 34.7247C50.1411 34.6091 49.9087 34.6299 49.6839 34.6499C49.6069 34.6568 49.4944 34.6668 49.4448 34.6609C49.4331 34.6444 49.4301 34.6182 49.4293 34.5405C49.428 34.4255 49.4262 34.2517 49.2793 34.0816C49.1605 33.944 48.9884 33.893 48.8364 33.848C48.6348 33.7884 48.6175 33.7701 48.6196 33.7328C48.6465 33.7045 48.839 33.5454 49.8301 33.4295C49.9455 33.5763 50.0835 33.7042 50.2467 33.8161C50.5263 34.0079 50.8808 34.1531 51.3333 34.2584C51.139 34.4543 50.9894 34.6607 50.8699 34.8257ZM59.3905 33.8481C59.2386 33.8931 59.0665 33.944 58.9477 34.0816C58.8007 34.2517 58.7988 34.4255 58.7976 34.5405C58.7969 34.6182 58.7937 34.6445 58.7821 34.6609C58.7325 34.6668 58.6201 34.6568 58.543 34.6499C58.3183 34.6299 58.0859 34.6091 57.9332 34.7247C57.8348 34.7991 57.7821 34.901 57.7358 34.9909C57.665 35.1279 57.6489 35.1361 57.613 35.1334C57.5593 35.1051 57.4428 34.944 57.3571 34.8257C57.2376 34.6607 57.088 34.4543 56.8937 34.2584C57.3461 34.1531 57.7006 34.008 57.9803 33.8162C58.1434 33.7042 58.2815 33.5764 58.3969 33.4295C59.3879 33.5454 59.5804 33.7045 59.6073 33.7328C59.6095 33.7701 59.5922 33.7885 59.3905 33.8481Z" fill="white"/>
<path d="M49.8643 29.7968C49.9178 29.8396 49.9732 29.8813 50.0303 29.922C49.8523 30.3127 49.6387 30.8378 49.5128 31.3457C49.4881 31.4457 49.552 31.5493 49.6542 31.5754C49.7593 31.6022 49.8695 31.5379 49.8949 31.4352C50.0079 30.979 50.1977 30.504 50.3628 30.1361C50.6827 30.3225 51.0446 30.482 51.4454 30.6122C51.547 30.6452 51.6602 30.5903 51.6941 30.4915C51.7285 30.3913 51.673 30.283 51.57 30.2496C50.2829 29.8311 49.4756 29.1265 49.1705 28.1552C49.0132 27.6543 49.0249 27.0209 49.2044 26.3236C49.2307 26.2211 49.1667 26.1173 49.0615 26.0917C48.9564 26.0661 48.8495 26.1283 48.8232 26.2307C48.6264 26.9955 48.6166 27.6996 48.7947 28.2668C48.9829 28.866 49.3428 29.3808 49.8643 29.7968Z" fill="white"/>
<path d="M49.1834 25.7243C49.2843 25.7628 49.3984 25.7145 49.4381 25.6162C49.9489 24.3498 50.8463 23.3584 51.5721 23.2589C52.3627 23.1507 52.7819 23.7501 52.7989 23.7751C52.8352 23.8292 52.8971 23.8618 52.9635 23.8618H55.2662C55.3326 23.8618 55.3946 23.8292 55.4309 23.7751C55.4351 23.7688 55.8598 23.1497 56.6578 23.2589C57.1591 23.3276 57.756 23.8231 58.2544 24.5843C58.613 25.1317 58.8931 25.7745 59.0431 26.3943C59.2051 27.0633 59.2106 27.6719 59.0591 28.1543C58.7541 29.1256 57.9468 29.8304 56.6597 30.2487C56.562 30.2805 56.5053 30.3837 56.5324 30.4803C56.5616 30.5848 56.6786 30.6457 56.7842 30.6113C57.185 30.4811 57.547 30.3216 57.8668 30.1353C57.9715 30.3682 58.0636 30.5939 58.1413 30.8084C58.1787 30.9118 58.3022 30.9639 58.4055 30.9199C58.4985 30.8803 58.5456 30.7744 58.512 30.6814C58.4243 30.4394 58.3193 30.1842 58.1993 29.9212C58.2564 29.8805 58.3118 29.8387 58.3653 29.796C58.8869 29.3799 59.2467 28.8652 59.435 28.2661C59.8148 27.0566 59.2821 25.4423 58.5858 24.3789C58.0181 23.5119 57.3353 22.9657 56.7126 22.8804C55.8633 22.7642 55.344 23.2694 55.1681 23.4796H53.0616C52.8857 23.2694 52.3661 22.7641 51.5173 22.8804C51.0621 22.9428 50.5799 23.2444 50.1224 23.7527C49.7075 24.2141 49.3345 24.8262 49.0722 25.4765C49.0326 25.5748 49.0824 25.6857 49.1834 25.7243Z" fill="white"/>
<path d="M53.211 24.7991C53.1039 24.7831 53.0033 24.8544 52.9867 24.9587C52.9812 24.9928 52.9402 25.2993 53.1714 25.5618C53.3652 25.7819 53.6817 25.8935 54.1123 25.8935C54.5429 25.8935 54.8594 25.7819 55.0532 25.5618C55.2843 25.2993 55.2432 24.9928 55.2377 24.9587C55.2211 24.8544 55.1205 24.7831 55.0135 24.7991C54.9062 24.8154 54.8328 24.9131 54.8494 25.0174C54.8497 25.019 54.8697 25.1825 54.7547 25.3132C54.6406 25.4427 54.4185 25.5112 54.1122 25.5112C53.8089 25.5112 53.5878 25.4439 53.4729 25.3167C53.3541 25.1852 53.3745 25.0221 53.3751 25.0174C53.3917 24.9131 53.3182 24.8154 53.211 24.7991Z" fill="white"/>
<path d="M51.8122 23.9243C51.5952 23.8253 51.3272 23.9515 51.202 24.2113C51.0768 24.4711 51.1488 24.7522 51.3657 24.8511C51.614 24.9642 51.8721 24.7791 51.9757 24.564C52.0791 24.3494 52.0591 24.037 51.8122 23.9243Z" fill="white"/>
<path d="M56.8604 24.851C57.0772 24.7522 57.1491 24.4712 57.024 24.2113C56.8988 23.9514 56.6308 23.8254 56.4138 23.9243C56.1669 24.0368 56.1469 24.3494 56.2503 24.564C56.3539 24.7791 56.612 24.9642 56.8604 24.851Z" fill="white"/>
<path d="M11.7706 38.8065C11.7386 38.5056 11.3214 38.3188 10.3895 38.1962C10.4697 38.0249 10.53 37.8339 10.5715 37.6197C10.6262 37.337 10.6058 36.9817 10.5109 36.564C10.4875 36.4609 10.3826 36.3958 10.2767 36.4186C10.1707 36.4415 10.1038 36.5435 10.1272 36.6465C10.2107 37.0136 10.2301 37.3172 10.1852 37.549C10.0319 38.3407 9.60946 38.8846 8.04708 39.1088C8.41818 38.1768 8.51512 37.457 8.52012 37.4185C8.53359 37.3138 8.45737 37.2182 8.34972 37.205C8.24227 37.1917 8.14371 37.266 8.13014 37.3708C8.12871 37.3822 7.97453 38.528 7.30854 39.7733C7.26201 39.8602 7.29058 39.9672 7.37476 40.0211C7.58026 40.1529 7.78138 40.3087 7.89933 40.4224C7.87729 40.4172 7.85648 40.4121 7.83964 40.4078C7.71832 40.3777 7.60383 40.3491 7.50057 40.3728C7.36752 40.4032 7.28405 40.4952 7.22314 40.5624C7.20906 40.5779 7.18977 40.5993 7.17569 40.6123C7.1311 40.5968 7.05049 40.5483 7.00427 40.5206C6.89591 40.4557 6.8104 40.4045 6.71459 40.4045C6.63908 40.4045 6.56419 40.4363 6.42726 40.4971C6.41266 40.5036 6.39511 40.5114 6.37624 40.5197C6.43215 40.3614 6.5445 40.1359 6.67163 39.9956C6.70765 39.9557 6.7251 39.9031 6.71969 39.8503C6.66296 39.2931 6.51531 37.8407 6.50868 37.7649C6.50246 37.6647 6.41705 37.5854 6.31257 37.5854C6.204 37.5854 6.11605 37.6711 6.11605 37.7766C6.11605 37.7878 6.11605 37.7986 6.26124 39.2255C6.14002 39.2272 6.01513 39.2281 5.88687 39.2281C5.75861 39.2281 5.63372 39.2271 5.5126 39.2255C5.6577 37.7987 5.6577 37.7878 5.6577 37.7766C5.6577 37.6711 5.56974 37.5854 5.46118 37.5854C5.35679 37.5854 5.27139 37.6647 5.26506 37.7649C5.25853 37.8408 5.11089 39.2931 5.05405 39.8503C5.04865 39.9031 5.06609 39.9557 5.10221 39.9956C5.22935 40.1359 5.34159 40.3614 5.39751 40.5197C5.37873 40.5114 5.36118 40.5036 5.34659 40.4971C5.20966 40.4363 5.13466 40.4045 5.05916 40.4045C4.96334 40.4045 4.87784 40.4557 4.76958 40.5206C4.72295 40.5486 4.64132 40.5976 4.59846 40.6126C4.58428 40.5996 4.56479 40.5781 4.55061 40.5624C4.48969 40.4952 4.40623 40.4032 4.27327 40.3728C4.16991 40.3491 4.05543 40.3776 3.93411 40.4078C3.91727 40.412 3.89656 40.4171 3.87462 40.4223C3.99257 40.3087 4.19358 40.153 4.39908 40.0211C4.48316 39.9672 4.51173 39.8602 4.4652 39.7733C3.80115 38.5316 3.64514 37.3821 3.64361 37.3707C3.62994 37.266 3.53178 37.1918 3.42413 37.205C3.31638 37.2182 3.24016 37.3138 3.25373 37.4185C3.25873 37.4571 3.35566 38.1773 3.72697 39.1097C2.55366 38.9476 1.79084 38.5937 1.5885 37.549C1.57258 37.467 1.56473 37.3747 1.56513 37.2744C1.56544 37.1689 1.47779 37.0831 1.36922 37.0827C1.36902 37.0827 1.36882 37.0827 1.36861 37.0827C1.26035 37.0827 1.1725 37.1678 1.17209 37.2731C1.17168 37.3974 1.18189 37.514 1.20229 37.6197C1.24382 37.8339 1.30413 38.0249 1.38433 38.1962C0.452431 38.3188 0.0352052 38.5056 0.00326796 38.8064C-0.0365261 39.1814 0.296418 39.2799 0.495388 39.3388C0.599873 39.3698 0.707929 39.4017 0.751703 39.4523C0.805578 39.5148 0.808639 39.5697 0.809761 39.6694C0.810884 39.7826 0.81272 39.9537 0.975366 40.0896C1.09669 40.1909 1.28045 40.1745 1.4933 40.1556C1.59268 40.1467 1.77686 40.1303 1.82839 40.1533C1.85604 40.1762 1.88645 40.2352 1.91338 40.2875C1.98267 40.4216 2.09582 40.6408 2.37846 40.6408C2.39601 40.6408 2.41428 40.64 2.43326 40.6382C2.64029 40.6188 2.7763 40.4309 2.96456 40.1709C3.1219 39.9536 3.31505 39.6872 3.58371 39.4744C3.68555 39.4901 3.79156 39.5042 3.90176 39.5171C3.94451 39.6101 3.99002 39.7043 4.03828 39.7994C3.96512 39.8506 3.87258 39.9178 3.78166 39.9909C3.54157 40.184 3.30862 40.411 3.40127 40.6312C3.51688 40.9062 3.85166 40.8229 4.03145 40.7782C4.08094 40.7659 4.15399 40.7477 4.18532 40.7464C4.20256 40.7565 4.23562 40.7929 4.25593 40.8153C4.32256 40.8889 4.42245 40.9991 4.58418 40.9991C4.58846 40.9991 4.59285 40.999 4.59724 40.9988C4.72897 40.994 4.86008 40.9155 4.97579 40.8461C5.00263 40.83 5.03936 40.808 5.06538 40.7943C5.09824 40.807 5.14742 40.8289 5.18323 40.8448C5.38057 40.9326 5.55107 41.0084 5.68974 40.935C5.73025 40.9137 5.80126 40.8608 5.82188 40.7471C5.86473 40.5116 5.64637 40.0589 5.45312 39.81C5.46026 39.74 5.4671 39.6726 5.47373 39.6074C5.60699 39.6094 5.74504 39.6104 5.88687 39.6104C6.0287 39.6104 6.16676 39.6093 6.30002 39.6074C6.30665 39.6725 6.31359 39.7397 6.32063 39.8095C6.22971 39.9253 6.13992 40.0766 6.06788 40.237C6.00003 40.3877 5.92493 40.5987 5.95187 40.7471C5.97258 40.8607 6.0435 40.9136 6.08401 40.935C6.22277 41.0084 6.39318 40.9326 6.59062 40.8447C6.62643 40.8288 6.67561 40.807 6.70847 40.7943C6.73438 40.8079 6.77112 40.8299 6.79806 40.8461C6.91366 40.9154 7.04478 40.994 7.17651 40.9988C7.181 40.9989 7.18528 40.999 7.18957 40.999C7.35129 40.999 7.45119 40.8888 7.51782 40.8152C7.53843 40.7926 7.5721 40.7554 7.58781 40.7463C7.61883 40.7474 7.6925 40.7657 7.7423 40.7781C7.92219 40.8229 8.25697 40.9062 8.37257 40.6312C8.46522 40.4109 8.23227 40.1839 7.99218 39.9909C7.90117 39.9178 7.80872 39.8506 7.73546 39.7993C7.78383 39.7043 7.82923 39.6101 7.87198 39.5171C7.98229 39.5042 8.0882 39.49 8.19013 39.4743C8.45879 39.6871 8.65195 39.9536 8.80919 40.1708C8.99754 40.4309 9.13356 40.6188 9.34059 40.6382C9.35947 40.64 9.37773 40.6407 9.39528 40.6407C9.67792 40.6407 9.79118 40.4216 9.86036 40.2874C9.8873 40.2352 9.91781 40.1762 9.94536 40.1533C9.99699 40.1302 10.1811 40.1466 10.2805 40.1555C10.4933 40.1745 10.6772 40.1909 10.7984 40.0896C10.9611 39.9536 10.9629 39.7826 10.9641 39.6694C10.9651 39.5697 10.9682 39.5148 11.022 39.4523C11.0658 39.4016 11.1739 39.3697 11.2784 39.3388C11.4773 39.2799 11.8104 39.1814 11.7706 38.8065ZM2.64335 39.9507C2.55764 40.069 2.44111 40.2301 2.38744 40.2584C2.35142 40.2611 2.3354 40.2529 2.26459 40.1159C2.21817 40.026 2.16551 39.9241 2.06725 39.8497C1.91451 39.7341 1.68217 39.7549 1.45738 39.7749C1.38035 39.7818 1.2678 39.7918 1.21821 39.7859C1.20658 39.7694 1.20352 39.7432 1.2027 39.6655C1.20148 39.5505 1.19964 39.3767 1.05271 39.2066C0.933939 39.069 0.761804 39.018 0.609872 38.973C0.408249 38.9134 0.390903 38.8951 0.393046 38.8578C0.419983 38.8295 0.612423 38.6704 1.6035 38.5545C1.7189 38.7013 1.85696 38.8292 2.02011 38.9411C2.29969 39.1329 2.65427 39.2781 3.1067 39.3834C2.91242 39.5793 2.76283 39.7857 2.64335 39.9507ZM11.164 38.9731C11.012 39.0181 10.8399 39.069 10.7211 39.2066C10.5741 39.3767 10.5723 39.5505 10.571 39.6655C10.5703 39.7432 10.5672 39.7695 10.5555 39.7859C10.5059 39.7918 10.3935 39.7818 10.3165 39.7749C10.0918 39.7549 9.85934 39.7341 9.70659 39.8497C9.60823 39.9241 9.55558 40.026 9.50926 40.1159C9.43844 40.2529 9.42232 40.2611 9.3864 40.2584C9.33273 40.2301 9.21621 40.069 9.1305 39.9507C9.01101 39.7857 8.86143 39.5793 8.66715 39.3834C9.11958 39.2781 9.47405 39.133 9.75373 38.9412C9.91679 38.8292 10.0549 38.7014 10.1703 38.5545C11.1613 38.6704 11.3539 38.8295 11.3807 38.8578C11.3829 38.8951 11.3656 38.9135 11.164 38.9731Z" fill="white"/>
<path d="M1.6377 34.9218C1.69127 34.9646 1.74667 35.0063 1.80371 35.047C1.62576 35.4377 1.4121 35.9628 1.28629 36.4707C1.26149 36.5707 1.32547 36.6743 1.42761 36.7004C1.5327 36.7272 1.6429 36.6629 1.66831 36.5602C1.78137 36.104 1.97115 35.629 2.13625 35.2611C2.45613 35.4475 2.81805 35.607 3.21885 35.7372C3.32048 35.7702 3.43364 35.7153 3.46751 35.6165C3.5019 35.5163 3.44639 35.408 3.34344 35.3746C2.05635 34.9561 1.24904 34.2515 0.943956 33.2802C0.786616 32.7793 0.79835 32.1459 0.977832 31.4486C1.00416 31.3461 0.94018 31.2423 0.834981 31.2167C0.729884 31.1911 0.62295 31.2533 0.596625 31.3557C0.399797 32.1205 0.390002 32.8246 0.568157 33.3918C0.756311 33.991 1.11619 34.5058 1.6377 34.9218Z" fill="white"/>
<path d="M0.955872 30.8493C1.05679 30.8878 1.17086 30.8395 1.21055 30.7412C1.72135 29.4748 2.61875 28.4834 3.34454 28.3839C4.13511 28.2757 4.55438 28.8751 4.57132 28.9001C4.60764 28.9542 4.66958 28.9868 4.736 28.9868H7.03865C7.10508 28.9868 7.16701 28.9542 7.20334 28.9001C7.20752 28.8938 7.6323 28.2747 8.43022 28.3839C8.93152 28.4526 9.52843 28.9481 10.0269 29.7093C10.3854 30.2567 10.6655 30.8995 10.8155 31.5193C10.9776 32.1883 10.9831 32.7969 10.8315 33.2793C10.5266 34.2506 9.71924 34.9554 8.43216 35.3737C8.33451 35.4055 8.27778 35.5087 8.30482 35.6053C8.3341 35.7098 8.45104 35.7707 8.55664 35.7363C8.95744 35.6061 9.31946 35.4466 9.63925 35.2603C9.74393 35.4932 9.83607 35.7189 9.91372 35.9334C9.95117 36.0368 10.0746 36.0889 10.178 36.0449C10.271 36.0053 10.3181 35.8994 10.2844 35.8064C10.1968 35.5644 10.0918 35.3092 9.97178 35.0462C10.0288 35.0055 10.0842 34.9637 10.1378 34.921C10.6594 34.5049 11.0192 33.9902 11.2074 33.3911C11.5872 32.1816 11.0546 30.5673 10.3583 29.5039C9.79057 28.6369 9.10774 28.0907 8.48501 28.0054C7.63577 27.8892 7.11651 28.3944 6.9406 28.6046H4.83406C4.65815 28.3944 4.13858 27.8891 3.28974 28.0054C2.83456 28.0678 2.35234 28.3694 1.89491 28.8777C1.47993 29.3391 1.10699 29.9512 0.844653 30.6015C0.805063 30.6998 0.854857 30.8107 0.955872 30.8493Z" fill="white"/>
<path d="M4.98443 29.9241C4.87729 29.9081 4.77679 29.9794 4.76015 30.0837C4.75464 30.1178 4.71363 30.4243 4.94484 30.6868C5.13861 30.9069 5.45512 31.0185 5.88571 31.0185C6.31631 31.0185 6.63282 30.9069 6.82659 30.6868C7.0577 30.4243 7.01668 30.1178 7.01117 30.0837C6.99454 29.9794 6.89393 29.9081 6.7869 29.9241C6.67966 29.9404 6.60619 30.0381 6.62282 30.1424C6.62313 30.144 6.64313 30.3075 6.52813 30.4382C6.41406 30.5677 6.19192 30.6362 5.88561 30.6362C5.58236 30.6362 5.36125 30.5689 5.24636 30.4417C5.12759 30.3102 5.14789 30.1471 5.1485 30.1424C5.16514 30.0381 5.09167 29.9404 4.98443 29.9241Z" fill="white"/>
<path d="M3.58566 29.0493C3.36863 28.9503 3.10068 29.0765 2.97548 29.3363C2.85028 29.5961 2.92222 29.8772 3.13915 29.9761C3.3874 30.0892 3.64555 29.9041 3.74912 29.689C3.85258 29.4744 3.83258 29.162 3.58566 29.0493Z" fill="white"/>
<path d="M8.63384 29.976C8.85066 29.8772 8.9225 29.5962 8.7974 29.3363C8.6722 29.0764 8.40425 28.9504 8.18722 29.0493C7.9403 29.1618 7.9203 29.4744 8.02376 29.689C8.12733 29.9041 8.38548 30.0892 8.63384 29.976Z" fill="white"/>
<path d="M55.9629 12.1277C55.9271 11.7904 55.4593 11.5809 54.4144 11.4435C54.5044 11.2514 54.572 11.0373 54.6184 10.7971C54.6799 10.4801 54.657 10.0818 54.5506 9.61346C54.5243 9.49783 54.4067 9.42483 54.2879 9.45043C54.169 9.47602 54.0941 9.59043 54.1203 9.70594C54.2139 10.1175 54.2357 10.4579 54.1854 10.7178C54.0135 11.6055 53.5398 12.2153 51.7881 12.4667C52.2042 11.4217 52.3128 10.6146 52.3185 10.5715C52.3336 10.4541 52.2481 10.347 52.1274 10.3322C52.0069 10.3173 51.8964 10.4005 51.8812 10.518C51.8796 10.5308 51.7067 11.8155 50.96 13.2118C50.9079 13.3091 50.9399 13.4291 51.0343 13.4895C51.2647 13.6373 51.4902 13.812 51.6224 13.9395C51.5977 13.9337 51.5744 13.9279 51.5555 13.9231C51.4195 13.8894 51.2911 13.8573 51.1753 13.8838C51.0261 13.918 50.9326 14.0212 50.8643 14.0965C50.8485 14.1139 50.8269 14.1378 50.8111 14.1524C50.7611 14.135 50.6707 14.0807 50.6189 14.0496C50.4974 13.9769 50.4015 13.9194 50.2941 13.9194C50.2094 13.9194 50.1254 13.9551 49.9719 14.0233C49.9556 14.0305 49.9359 14.0393 49.9147 14.0485C49.9774 13.8711 50.1034 13.6183 50.2459 13.4609C50.2863 13.4162 50.3059 13.3572 50.2998 13.298C50.2362 12.6733 50.0706 11.0449 50.0632 10.9598C50.0562 10.8475 49.9605 10.7586 49.8433 10.7586C49.7216 10.7586 49.623 10.8547 49.623 10.973C49.623 10.9855 49.623 10.9977 49.7858 12.5976C49.6499 12.5994 49.5098 12.6004 49.366 12.6004C49.2222 12.6004 49.0822 12.5993 48.9464 12.5976C49.1091 10.9978 49.1091 10.9855 49.1091 10.973C49.1091 10.8547 49.0105 10.7586 48.8887 10.7586C48.7717 10.7586 48.676 10.8475 48.6689 10.9598C48.6615 11.045 48.496 12.6733 48.4323 13.298C48.4262 13.3572 48.4458 13.4162 48.4863 13.4609C48.6288 13.6183 48.7547 13.8711 48.8174 14.0485C48.7963 14.0393 48.7766 14.0305 48.7603 14.0233C48.6067 13.9551 48.5227 13.9194 48.438 13.9194C48.3306 13.9194 48.2347 13.9769 48.1133 14.0496C48.061 14.081 47.9695 14.1359 47.9215 14.1527C47.9056 14.1381 47.8837 14.1141 47.8678 14.0965C47.7995 14.0212 47.7059 13.918 47.5569 13.8838C47.441 13.8573 47.3126 13.8893 47.1766 13.9231C47.1577 13.9278 47.1345 13.9336 47.1099 13.9394C47.2421 13.812 47.4675 13.6374 47.6979 13.4895C47.7922 13.4291 47.8242 13.3091 47.772 13.2118C47.0275 11.8195 46.8526 10.5307 46.8509 10.5179C46.8355 10.4005 46.7255 10.3174 46.6048 10.3322C46.484 10.347 46.3985 10.4541 46.4137 10.5715C46.4193 10.6147 46.528 11.4222 46.9443 12.4677C45.6288 12.2859 44.7735 11.8891 44.5467 10.7178C44.5288 10.6259 44.52 10.5224 44.5205 10.41C44.5208 10.2917 44.4225 10.1954 44.3008 10.1949C44.3006 10.1949 44.3004 10.1949 44.3001 10.1949C44.1787 10.1949 44.0802 10.2904 44.0798 10.4085C44.0793 10.5478 44.0908 10.6786 44.1136 10.7971C44.1602 11.0373 44.2278 11.2514 44.3177 11.4435C43.2729 11.5809 42.8051 11.7904 42.7693 12.1276C42.7247 12.548 43.098 12.6585 43.3211 12.7245C43.4382 12.7593 43.5594 12.7951 43.6084 12.8518C43.6688 12.9218 43.6723 12.9834 43.6735 13.0952C43.6748 13.2221 43.6769 13.414 43.8592 13.5663C43.9952 13.6799 44.2013 13.6616 44.4399 13.6403C44.5514 13.6304 44.7579 13.6119 44.8156 13.6378C44.8466 13.6635 44.8807 13.7296 44.9109 13.7882C44.9886 13.9386 45.1155 14.1844 45.4324 14.1844C45.4521 14.1844 45.4725 14.1834 45.4938 14.1814C45.7259 14.1597 45.8784 13.949 46.0895 13.6575C46.2659 13.4139 46.4825 13.1152 46.7837 12.8766C46.8979 12.8941 47.0168 12.9101 47.1403 12.9245C47.1882 13.0287 47.2393 13.1343 47.2934 13.241C47.2114 13.2983 47.1076 13.3737 47.0057 13.4557C46.7365 13.6722 46.4753 13.9267 46.5792 14.1736C46.7088 14.4819 47.0841 14.3885 47.2857 14.3384C47.3412 14.3246 47.4231 14.3043 47.4582 14.3027C47.4776 14.3141 47.5146 14.3549 47.5374 14.3801C47.6121 14.4625 47.7241 14.5861 47.9054 14.5861C47.9102 14.5861 47.9152 14.5859 47.9201 14.5857C48.0678 14.5804 48.2148 14.4924 48.3445 14.4146C48.3746 14.3965 48.4158 14.3718 48.445 14.3565C48.4818 14.3707 48.537 14.3953 48.5771 14.4131C48.7984 14.5115 48.9895 14.5965 49.145 14.5143C49.1904 14.4903 49.2701 14.431 49.2932 14.3035C49.3412 14.0395 49.0964 13.5319 48.8797 13.2528C48.8877 13.1744 48.8954 13.0988 48.9028 13.0257C49.0522 13.0279 49.207 13.029 49.366 13.029C49.5251 13.029 49.6798 13.0278 49.8293 13.0257C49.8367 13.0987 49.8445 13.174 49.8524 13.2523C49.7504 13.3821 49.6498 13.5517 49.569 13.7316C49.4929 13.9006 49.4087 14.1371 49.4389 14.3035C49.4621 14.4309 49.5416 14.4902 49.5871 14.5143C49.7427 14.5965 49.9337 14.5115 50.1551 14.413C50.1952 14.3952 50.2504 14.3707 50.2872 14.3565C50.3163 14.3717 50.3575 14.3964 50.3877 14.4146C50.5173 14.4922 50.6643 14.5804 50.812 14.5857C50.817 14.5858 50.8218 14.5859 50.8266 14.5859C51.008 14.5859 51.12 14.4624 51.1947 14.38C51.2178 14.3546 51.2555 14.3128 51.2731 14.3026C51.3079 14.3039 51.3905 14.3244 51.4464 14.3383C51.648 14.3885 52.0234 14.4819 52.153 14.1736C52.2569 13.9266 51.9957 13.672 51.7265 13.4557C51.6245 13.3737 51.5208 13.2983 51.4387 13.2409C51.4929 13.1343 51.5438 13.0287 51.5918 12.9244C51.7154 12.9101 51.8342 12.894 51.9485 12.8764C52.2497 13.115 52.4663 13.4139 52.6426 13.6574C52.8537 13.949 53.0062 14.1597 53.2384 14.1814C53.2595 14.1834 53.28 14.1843 53.2997 14.1843C53.6166 14.1843 53.7436 13.9386 53.8211 13.7881C53.8513 13.7296 53.8856 13.6635 53.9164 13.6378C53.9743 13.6118 54.1807 13.6303 54.2923 13.6402C54.5308 13.6616 54.7369 13.6799 54.8729 13.5663C55.0553 13.4139 55.0573 13.2221 55.0586 13.0952C55.0598 12.9834 55.0632 12.9218 55.1236 12.8518C55.1727 12.795 55.2939 12.7591 55.411 12.7245C55.6341 12.6585 56.0075 12.548 55.9629 12.1277ZM45.7294 13.4106C45.6333 13.5433 45.5026 13.7239 45.4424 13.7556C45.4021 13.7586 45.3841 13.7495 45.3047 13.5958C45.2527 13.4951 45.1936 13.3808 45.0834 13.2973C44.9122 13.1678 44.6517 13.1911 44.3997 13.2135C44.3133 13.2212 44.1871 13.2325 44.1315 13.2259C44.1185 13.2073 44.115 13.1779 44.1141 13.0909C44.1127 12.9619 44.1107 12.767 43.9459 12.5763C43.8128 12.4221 43.6198 12.3649 43.4494 12.3144C43.2234 12.2476 43.2039 12.2271 43.2063 12.1852C43.2365 12.1535 43.4523 11.9751 44.5635 11.8452C44.6929 12.0097 44.8477 12.1532 45.0306 12.2786C45.3441 12.4937 45.7416 12.6565 46.2489 12.7746C46.0311 12.9942 45.8633 13.2257 45.7294 13.4106ZM55.2828 12.3145C55.1124 12.365 54.9194 12.4221 54.7863 12.5763C54.6214 12.767 54.6193 12.9619 54.618 13.0909C54.6172 13.1779 54.6136 13.2074 54.6006 13.2259C54.545 13.2325 54.4189 13.2212 54.3325 13.2135C54.0806 13.1911 53.82 13.1678 53.6487 13.2973C53.5385 13.3808 53.4794 13.4951 53.4275 13.5958C53.3481 13.7495 53.33 13.7586 53.2897 13.7556C53.2296 13.7239 53.0989 13.5433 53.0028 13.4106C52.8688 13.2257 52.7011 12.9942 52.4833 12.7746C52.9906 12.6565 53.388 12.4938 53.7016 12.2787C53.8844 12.1532 54.0393 12.0098 54.1687 11.8452C55.2798 11.9751 55.4957 12.1535 55.5258 12.1852C55.5283 12.2271 55.5088 12.2477 55.2828 12.3145Z" fill="white"/>
<path d="M44.5991 7.77391C44.6592 7.82188 44.7213 7.86862 44.7852 7.91436C44.5857 8.35239 44.3462 8.94111 44.2051 9.51057C44.1773 9.62264 44.249 9.73882 44.3635 9.76809C44.4814 9.79814 44.6049 9.72603 44.6334 9.61095C44.7602 9.09947 44.973 8.56684 45.1581 8.15441C45.5167 8.3633 45.9225 8.54214 46.3719 8.68815C46.4859 8.72521 46.6127 8.66356 46.6507 8.55282C46.6893 8.44053 46.627 8.31912 46.5116 8.28161C45.0685 7.81242 44.1633 7.02238 43.8213 5.93331C43.6449 5.37175 43.658 4.66162 43.8593 3.87971C43.8888 3.76486 43.817 3.64845 43.6991 3.61974C43.5813 3.59102 43.4614 3.6608 43.4318 3.77554C43.2112 4.63313 43.2002 5.4225 43.3999 6.05851C43.6109 6.73036 44.0144 7.3075 44.5991 7.77391Z" fill="white"/>
<path d="M43.8392 3.20778C43.9523 3.25096 44.0802 3.19676 44.1247 3.08658C44.6974 1.66665 45.7036 0.555104 46.5174 0.443592C47.4038 0.322288 47.8738 0.99436 47.8928 1.02229C47.9336 1.08295 48.003 1.11956 48.0775 1.11956H50.6592C50.7337 1.11956 50.8031 1.08295 50.8439 1.02229C50.8486 1.01528 51.3248 0.321175 52.2195 0.443592C52.7815 0.520604 53.4508 1.07616 54.0097 1.92963C54.4117 2.54339 54.7257 3.26409 54.8939 3.95898C55.0756 4.70906 55.0817 5.39148 54.9118 5.93234C54.5699 7.02141 53.6647 7.81156 52.2216 8.28065C52.1122 8.31626 52.0485 8.432 52.0789 8.54028C52.1117 8.65747 52.2428 8.72569 52.3612 8.68718C52.8106 8.54117 53.2165 8.36233 53.575 8.15344C53.6924 8.41453 53.7957 8.6676 53.8828 8.90809C53.9248 9.02405 54.0632 9.08248 54.1791 9.03318C54.2833 8.98877 54.3362 8.87003 54.2984 8.76575C54.2001 8.49443 54.0824 8.20831 53.9479 7.91339C54.0118 7.86776 54.074 7.82091 54.134 7.77306C54.7188 7.30654 55.1222 6.72939 55.3333 6.05766C55.7591 4.7016 55.1619 2.89161 54.3812 1.69937C53.7447 0.727267 52.9791 0.114846 52.2809 0.0192492C51.3287 -0.11107 50.7465 0.455389 50.5493 0.690987H48.1874C47.9902 0.455389 47.4076 -0.111181 46.4559 0.0192492C45.9456 0.0891384 45.4049 0.427344 44.892 0.997253C44.4267 1.51452 44.0086 2.20084 43.7145 2.93C43.6701 3.04018 43.7259 3.16449 43.8392 3.20778Z" fill="white"/>
<path d="M48.3561 2.1666C48.236 2.14857 48.1233 2.22859 48.1047 2.34555C48.0985 2.38372 48.0525 2.72738 48.3117 3.02174C48.529 3.26847 48.8839 3.39355 49.3666 3.39355C49.8494 3.39355 50.2043 3.26847 50.4216 3.02174C50.6807 2.72738 50.6347 2.38372 50.6285 2.34555C50.6099 2.22859 50.4971 2.14857 50.3771 2.1666C50.2568 2.18485 50.1745 2.29436 50.1931 2.41132C50.1934 2.4131 50.2159 2.59639 50.0869 2.74296C49.959 2.88819 49.71 2.96498 49.3665 2.96498C49.0265 2.96498 48.7786 2.88953 48.6498 2.74686C48.5166 2.5994 48.5394 2.41655 48.5401 2.41132C48.5587 2.29436 48.4764 2.18485 48.3561 2.1666Z" fill="white"/>
<path d="M46.7882 1.19009C46.5448 1.07914 46.2444 1.22059 46.104 1.51194C45.9636 1.80318 46.0443 2.11835 46.2875 2.2292C46.5659 2.35606 46.8553 2.14851 46.9714 1.90735C47.0874 1.66674 47.065 1.31641 46.7882 1.19009Z" fill="white"/>
<path d="M52.4454 2.22915C52.6885 2.11831 52.769 1.80325 52.6288 1.51189C52.4884 1.22054 52.188 1.0792 51.9446 1.19005C51.6678 1.31625 51.6454 1.6667 51.7614 1.9073C51.8775 2.14847 52.1669 2.35602 52.4454 2.22915Z" fill="white"/>
</svg>
