<svg width="44" height="60" viewBox="0 0 44 60" fill="none" xmlns="http://www.w3.org/2000/svg">
<path d="M43.5625 35.625C43.5625 30.5798 41.0505 25.6813 38.6211 20.9443C36.9824 17.749 35.125 14.1275 35.125 11.9467C35.125 11.3384 35.161 10.5634 35.2981 9.81949C35.9775 10.1416 36.7185 10.3125 37.4688 10.3125C40.312 10.3125 42.625 7.99945 42.625 5.15625C42.625 2.31305 40.312 0 37.4688 0C37.3758 0 37.2964 0.00902344 37.2373 0.0171094C37.176 0.00902344 37.0941 0 37 0C34.5566 0 32.2967 0.978281 30.6366 2.75473C28.7849 4.73613 27.7541 7.66324 27.6367 11.25H26.6875V8.18379C27.247 7.85906 27.625 7.25473 27.625 6.5625C27.625 5.52867 26.7838 4.6875 25.75 4.6875C24.7162 4.6875 23.875 5.52867 23.875 6.5625C23.875 7.25473 24.253 7.85895 24.8125 8.18379V11.25H22.9375V3.49629C23.497 3.17156 23.875 2.56723 23.875 1.875C23.875 0.841172 23.0338 0 22 0C20.9662 0 20.125 0.841172 20.125 1.875C20.125 2.56723 20.503 3.17145 21.0625 3.49629V11.25H19.1875V8.18379C19.747 7.85906 20.125 7.25473 20.125 6.5625C20.125 5.52867 19.2838 4.6875 18.25 4.6875C17.2162 4.6875 16.375 5.52867 16.375 6.5625C16.375 7.25473 16.753 7.85895 17.3125 8.18379V11.25H16.3633C16.2459 7.66324 15.2151 4.73613 13.3634 2.75473C11.7033 0.978281 9.44336 0 7 0C6.9059 0 6.82398 0.00902344 6.7627 0.0171094C6.70363 0.00902344 6.62418 0 6.53125 0C3.68805 0 1.375 2.31305 1.375 5.15625C1.375 7.99945 3.68805 10.3125 6.53125 10.3125C7.28148 10.3125 8.02246 10.1416 8.70191 9.81949C8.83902 10.5635 8.875 11.3384 8.875 11.9467C8.875 14.1274 7.01758 17.749 5.37895 20.9442C2.94953 25.6813 0.4375 30.5798 0.4375 35.6396C0.4375 42.9082 5.74445 49.172 13.3274 51.9327C12.7898 53.3764 11.393 54.375 9.8125 54.375C9.29477 54.375 8.875 54.7948 8.875 55.3125V59.0625C8.875 59.5802 9.29477 60 9.8125 60H34.1875C34.7052 60 35.125 59.5802 35.125 59.0625V55.3125C35.125 54.7948 34.7052 54.375 34.1875 54.375C32.6066 54.375 31.2094 53.376 30.6721 51.9315C38.2553 49.1687 43.5625 42.8998 43.5625 35.625ZM27.6845 13.125C28.039 16.744 29.9432 20.458 31.951 24.3729C33.9723 28.3157 36.0625 32.3926 36.0625 35.6396C36.0625 39.1207 33.6912 42.2033 30.0699 44.0682C30.0418 44.0468 30.0126 44.0263 29.9815 44.0077C29.0741 43.4643 27.9491 43.0314 26.6875 42.7233V13.125H27.6845ZM22 44.0625C24.1502 44.0625 26.2098 44.4138 27.7847 45.0254C26.0195 45.6111 24.0607 45.9375 22 45.9375C19.9398 45.9375 17.9818 45.6109 16.217 45.0247C17.7917 44.4135 19.8507 44.0625 22 44.0625ZM24.8125 13.125V42.3716C24.2052 42.2903 23.5777 42.2365 22.9375 42.2092V13.125H24.8125ZM21.0625 13.125V42.2092C20.4223 42.2365 19.7948 42.2903 19.1875 42.3716V13.125H21.0625ZM17.3125 42.7233C16.0509 43.0314 14.9259 43.4643 14.0185 44.0077C13.9881 44.0258 13.9595 44.0456 13.9321 44.0666C10.3096 42.1992 7.9375 39.1116 7.9375 35.625C7.9375 32.3926 10.0277 28.3157 12.0524 24.3661C14.0571 20.4574 15.961 16.744 16.3155 13.125H17.3125V42.7233ZM29.9986 54.375H29.5004C28.9826 54.375 28.5629 54.7948 28.5629 55.3125C28.5629 55.8302 28.9826 56.25 29.5004 56.25H33.25V58.125H10.75V56.25H25.7501C26.2679 56.25 26.6876 55.8302 26.6876 55.3125C26.6876 54.7948 26.2679 54.375 25.7501 54.375H14.0014C14.4838 53.8382 14.8653 53.2061 15.1138 52.5068C17.2771 53.1101 19.5931 53.4375 22 53.4375C24.4068 53.4375 26.7227 53.1098 28.8859 52.5061C29.1345 53.2057 29.5161 53.8379 29.9986 54.375ZM22 51.5625C11.1442 51.5625 2.3125 44.4196 2.3125 35.6396C2.3125 31.0327 4.71953 26.3389 7.04723 21.7998C8.86773 18.2504 10.75 14.5804 10.75 11.9467C10.75 10.8526 10.6428 9.27984 10.1318 8.00051C10.0197 7.71973 9.77898 7.51008 9.48531 7.43789C9.41113 7.41961 9.33602 7.4107 9.26125 7.4107C9.04 7.4107 8.8232 7.4891 8.65152 7.63605C8.22449 8.00168 7.51 8.4375 6.53125 8.4375C4.72199 8.4375 3.25 6.96551 3.25 5.15625C3.25 3.35391 4.71074 1.88637 6.51051 1.87512L6.53336 1.87805C6.59266 1.88637 6.65207 1.89375 6.71277 1.89715C6.75672 1.89973 6.80066 1.89902 6.84449 1.89527C6.89055 1.89141 6.93602 1.88555 6.98125 1.87934C6.99227 1.87781 7.00328 1.87617 7.0143 1.87488C8.12922 1.87734 10.2447 2.16352 11.9935 4.03477C13.6333 5.78953 14.5 8.52551 14.5 11.9467C14.5 15.4853 12.5007 19.3834 10.3805 23.5174C8.25766 27.6584 6.0625 31.94 6.0625 35.625C6.0625 42.3452 13.212 47.8125 22 47.8125C30.788 47.8125 37.9375 42.3517 37.9375 35.6396C37.9375 31.94 35.7423 27.6584 33.6159 23.5105C31.4993 19.3834 29.5 15.4854 29.5 11.9467C29.5 8.52551 30.3667 5.78953 32.0065 4.03477C33.7553 2.16352 35.8708 1.87734 36.9857 1.87488C36.9967 1.87617 37.0077 1.87781 37.0187 1.87934C37.0641 1.88555 37.1095 1.89141 37.1555 1.89527C37.1993 1.89891 37.2433 1.89973 37.2872 1.89715C37.3479 1.89375 37.4073 1.88637 37.4666 1.87805L37.4895 1.87512C39.2893 1.88637 40.75 3.35391 40.75 5.15625C40.75 6.96551 39.278 8.4375 37.4688 8.4375C36.49 8.4375 35.7755 8.00168 35.3485 7.63605C35.1188 7.4393 34.8085 7.36547 34.5147 7.43801C34.2211 7.5102 33.9803 7.71973 33.8682 8.00063C33.3572 9.27984 33.25 10.8526 33.25 11.9467C33.25 14.5804 35.1324 18.2504 36.9527 21.7998C39.2805 26.3389 41.6875 31.0327 41.6875 35.625C41.6875 44.4129 32.8558 51.5625 22 51.5625Z" fill="#C3B7D2"/>
</svg>
