<svg width="60" height="60" viewBox="0 0 60 60" fill="none" xmlns="http://www.w3.org/2000/svg">
<path d="M58.7878 12.4622L48.8634 2.53781C47.8322 1.50563 46.4597 0.9375 45 0.9375C43.5403 0.9375 42.1678 1.50563 41.1366 2.53781L36.5625 7.11188L35.3503 5.89969C34.9837 5.53313 34.3913 5.53313 34.0247 5.89969L5.89969 34.0247C5.53313 34.3913 5.53313 34.9837 5.89969 35.3503L7.11188 36.5625L2.53781 41.1366C1.52062 42.1538 0.9375 43.5619 0.9375 45C0.9375 46.4381 1.52062 47.8462 2.53781 48.8634L12.4622 58.7878C12.645 58.9706 12.885 59.0625 13.125 59.0625C13.365 59.0625 13.605 58.9706 13.7878 58.7878L58.7878 13.7878C59.1544 13.4212 59.1544 12.8288 58.7878 12.4622ZM34.6875 7.88812L38.9869 12.1875L12.1875 38.9869L7.88812 34.6875L34.6875 7.88812ZM2.8125 45C2.8125 44.055 3.19594 43.1306 3.86344 42.4622L8.4375 37.8881L11.5247 40.9753C11.7075 41.1581 11.9475 41.25 12.1875 41.25C12.4275 41.25 12.6675 41.1581 12.8503 40.9753L40.9753 12.8503C41.3419 12.4837 41.3419 11.8913 40.9753 11.5247L37.8881 8.4375L42.4622 3.86344C43.8178 2.50875 46.1822 2.50875 47.5378 3.86344L52.1119 8.4375L8.4375 52.1119L3.86344 47.5378C3.19594 46.8694 2.8125 45.945 2.8125 45ZM15.9375 47.2631L19.2994 50.625L16.875 53.0494L13.5131 49.6875L15.9375 47.2631ZM17.2631 45.9375L19.6875 43.5131L23.0494 46.875L20.625 49.2994L17.2631 45.9375ZM21.0131 42.1875L23.4375 39.7631L26.7994 43.125L24.375 45.5494L21.0131 42.1875ZM24.7631 38.4375L27.1875 36.0131L30.5494 39.375L28.125 41.7994L24.7631 38.4375ZM28.5131 34.6875L30.9375 32.2631L34.2994 35.625L31.875 38.0494L28.5131 34.6875ZM32.2631 30.9375L34.6875 28.5131L38.0494 31.875L35.625 34.2994L32.2631 30.9375ZM36.0131 27.1875L38.4375 24.7631L41.7994 28.125L39.375 30.5494L36.0131 27.1875ZM39.7631 23.4375L42.1875 21.0131L45.5494 24.375L43.125 26.7994L39.7631 23.4375ZM43.5131 19.6875L45.9375 17.2631L49.2994 20.625L46.875 23.0494L43.5131 19.6875ZM47.2631 15.9375L49.6875 13.5131L53.0494 16.875L50.625 19.2994L47.2631 15.9375ZM13.125 56.7994L9.76312 53.4375L12.1875 51.0131L15.5494 54.375L13.125 56.7994ZM54.375 15.5494L51.0131 12.1875L53.4375 9.76312L56.7994 13.125L54.375 15.5494Z" fill="#C3B7D2"/>
<path d="M15.6413 6.51375C17.1244 7.00875 18.3047 8.18906 18.7987 9.67125C18.9262 10.0547 19.2834 10.3125 19.6875 10.3125C20.0916 10.3125 20.4487 10.0547 20.5772 9.67125C21.0712 8.18906 22.2516 7.00875 23.7347 6.51375C24.1172 6.38625 24.375 6.02906 24.375 5.625C24.375 5.22094 24.1172 4.86375 23.7338 4.73625C22.2506 4.24125 21.0703 3.06094 20.5763 1.57875C20.4488 1.19531 20.0916 0.9375 19.6875 0.9375C19.2834 0.9375 18.9263 1.19531 18.7978 1.57875C18.3038 3.06094 17.1234 4.24125 15.6403 4.73625C15.2578 4.86375 15 5.22094 15 5.625C15 6.02906 15.2578 6.38625 15.6413 6.51375ZM19.6875 3.93375C20.1487 4.59 20.7225 5.16375 21.3788 5.625C20.7225 6.08625 20.1487 6.66 19.6875 7.31625C19.2263 6.66 18.6525 6.08625 17.9962 5.625C18.6525 5.16375 19.2263 4.59 19.6875 3.93375Z" fill="#C3B7D2"/>
<path d="M1.57875 25.2638C3.06188 25.7587 4.24219 26.9391 4.73625 28.4213C4.86375 28.8047 5.22094 29.0625 5.625 29.0625C6.02906 29.0625 6.38625 28.8047 6.51469 28.4213C7.00875 26.9391 8.18906 25.7587 9.67219 25.2638C10.0547 25.1363 10.3125 24.7791 10.3125 24.375C10.3125 23.9709 10.0547 23.6137 9.67125 23.4862C8.18813 22.9913 7.00781 21.8109 6.51375 20.3288C6.38625 19.9453 6.02906 19.6875 5.625 19.6875C5.22094 19.6875 4.86375 19.9453 4.73531 20.3288C4.24125 21.8109 3.06094 22.9913 1.57781 23.4862C1.19531 23.6137 0.9375 23.9709 0.9375 24.375C0.9375 24.7791 1.19531 25.1363 1.57875 25.2638ZM5.625 22.6837C6.08625 23.34 6.66 23.9138 7.31625 24.375C6.66 24.8362 6.08625 25.41 5.625 26.0663C5.16375 25.41 4.59 24.8362 3.93375 24.375C4.59 23.9138 5.16375 23.34 5.625 22.6837Z" fill="#C3B7D2"/>
<path d="M48.3909 42.2598C48.0412 42.4041 47.8125 42.7473 47.8125 43.126V49.861C47.5181 49.756 47.205 49.6885 46.875 49.6885C45.3244 49.6885 44.0625 50.9504 44.0625 52.501C44.0625 54.0516 45.3244 55.3135 46.875 55.3135C48.4256 55.3135 49.6875 54.0516 49.6875 52.501V45.3891L51.8372 47.5388L53.1628 46.2132L49.4128 42.4632C49.1447 42.1951 48.7406 42.1126 48.3909 42.2598ZM46.875 53.4385C46.3584 53.4385 45.9375 53.0185 45.9375 52.501C45.9375 51.9835 46.3584 51.5635 46.875 51.5635C47.3916 51.5635 47.8125 51.9835 47.8125 52.501C47.8125 53.0185 47.3916 53.4385 46.875 53.4385Z" fill="#C3B7D2"/>
<path d="M48.75 38.4375C43.0641 38.4375 38.4375 43.0641 38.4375 48.75C38.4375 54.4359 43.0641 59.0625 48.75 59.0625C54.4359 59.0625 59.0625 54.4359 59.0625 48.75C59.0625 43.0641 54.4359 38.4375 48.75 38.4375ZM48.75 57.1875C44.0981 57.1875 40.3125 53.4028 40.3125 48.75C40.3125 44.0972 44.0981 40.3125 48.75 40.3125C53.4019 40.3125 57.1875 44.0972 57.1875 48.75C57.1875 53.4028 53.4019 57.1875 48.75 57.1875Z" fill="#C3B7D2"/>
</svg>
