<svg width="58" height="55" viewBox="0 0 58 55" fill="none" xmlns="http://www.w3.org/2000/svg">
<path d="M56.8672 22.2104C57.4927 22.2104 58 21.653 58 20.9656V15.9821C58 15.2947 57.4927 14.7373 56.8672 14.7373H53.6664V11.8151C53.6664 11.1277 53.1592 10.5703 52.5336 10.5703H44.2522C43.6267 10.5703 43.1194 11.1277 43.1194 11.8151V14.7373H40.7379V11.8151C40.7379 11.1277 40.2306 10.5703 39.6051 10.5703H31.3237C30.6982 10.5703 30.1909 11.1277 30.1909 11.8151V14.7373H27.8094V11.8151C27.8094 11.1277 27.3021 10.5703 26.6766 10.5703H18.3953C17.7698 10.5703 17.2625 11.1277 17.2625 11.8151V14.7373H14.8806V11.8151C14.8806 11.1277 14.3734 10.5703 13.7478 10.5703H5.46639C4.84085 10.5703 4.33357 11.1277 4.33357 11.8151V14.7373H1.13281C0.507273 14.7373 0 15.2947 0 15.9821V20.9655C0 21.6529 0.507273 22.2103 1.13281 22.2103H4.33357V32.7875H1.13281C0.507273 32.7875 0 33.3449 0 34.0323V39.0157C0 39.7031 0.507273 40.2605 1.13281 40.2605H4.33357V43.1826C4.33357 43.87 4.84085 44.4274 5.46639 44.4274H13.7478C14.3734 44.4274 14.8806 43.87 14.8806 43.1826V40.2606H17.2621V43.1828C17.2621 43.8701 17.7694 44.4276 18.3949 44.4276H26.6763C27.3018 44.4276 27.8091 43.8701 27.8091 43.1828V40.2606H30.1906V43.1828C30.1906 43.8701 30.6979 44.4276 31.3234 44.4276H39.6047C40.2303 44.4276 40.7375 43.8701 40.7375 43.1828V40.2606H43.119V43.1828C43.119 43.8701 43.6263 44.4276 44.2518 44.4276H52.5333C53.1588 44.4276 53.6661 43.8701 53.6661 43.1828V40.2606H56.8672C57.4927 40.2606 58 39.7032 58 39.0158V34.0324C58 33.345 57.4927 32.7876 56.8672 32.7876H53.6664V22.2104H56.8672ZM55.7344 17.2269V19.7207H53.6664V17.2269H55.7344ZM40.7378 22.2104H43.1193V32.7876H40.7378V22.2104ZM43.1194 17.2269V19.7207H40.7379V17.2269H43.1194ZM27.8092 22.2104H30.1907V32.7876H27.8092V22.2104ZM30.1908 17.2269V19.7207H27.8093V17.2269H30.1908ZM17.2621 17.2269V19.7207H14.8806V17.2269H17.2621ZM2.26562 19.7208V17.2269H4.33357V19.7207H2.26562V19.7208ZM2.26562 37.771V35.2772H4.33357V37.771H2.26562ZM12.615 41.9378H6.5992V13.06H12.615V41.9378ZM17.2621 37.771H14.8806V35.2772H17.262V37.771H17.2621ZM14.8806 32.7875V22.2103H17.2621V32.7875H14.8806ZM25.5436 41.9378H19.5279V13.06H25.5436V41.9378ZM27.8092 37.771V35.2772H30.1907V37.771H27.8092ZM38.4721 41.9378H32.4564V13.06H38.4721V41.9378ZM40.7378 37.771V35.2772H43.1193V37.771H40.7378ZM51.4008 41.9378H45.385V13.06H51.4008V41.9378ZM55.7344 35.2771V37.7709H53.6664V35.2771H55.7344Z" fill="#C3B7D2"/>
<path d="M48.3945 35.0195C47.769 35.0195 47.2617 35.577 47.2617 36.2643V37.3022C47.2617 37.9896 47.769 38.547 48.3945 38.547C49.0201 38.547 49.5273 37.9896 49.5273 37.3022V36.2643C49.5273 35.577 49.0202 35.0195 48.3945 35.0195Z" fill="#C3B7D2"/>
<path d="M48.3945 16.4531C47.769 16.4531 47.2617 17.0105 47.2617 17.6979V18.7358C47.2617 19.4232 47.769 19.9806 48.3945 19.9806C49.0201 19.9806 49.5273 19.4232 49.5273 18.7358V17.6979C49.5273 17.0105 49.0202 16.4531 48.3945 16.4531Z" fill="#C3B7D2"/>
<path d="M35.4648 38.547C36.0904 38.547 36.5977 37.9896 36.5977 37.3022V36.2643C36.5977 35.577 36.0904 35.0195 35.4648 35.0195C34.8393 35.0195 34.332 35.577 34.332 36.2643V37.3022C34.332 37.9896 34.8393 38.547 35.4648 38.547Z" fill="#C3B7D2"/>
<path d="M35.4648 19.9806C36.0904 19.9806 36.5977 19.4232 36.5977 18.7358V17.6979C36.5977 17.0105 36.0904 16.4531 35.4648 16.4531C34.8393 16.4531 34.332 17.0105 34.332 17.6979V18.7358C34.332 19.4232 34.8393 19.9806 35.4648 19.9806Z" fill="#C3B7D2"/>
<path d="M22.5352 35.0195C21.9096 35.0195 21.4023 35.577 21.4023 36.2643V37.3022C21.4023 37.9896 21.9096 38.547 22.5352 38.547C23.1607 38.547 23.668 37.9896 23.668 37.3022V36.2643C23.668 35.577 23.1607 35.0195 22.5352 35.0195Z" fill="#C3B7D2"/>
<path d="M22.5352 16.4531C21.9096 16.4531 21.4023 17.0105 21.4023 17.6979V18.7358C21.4023 19.4232 21.9096 19.9806 22.5352 19.9806C23.1607 19.9806 23.668 19.4232 23.668 18.7358V17.6979C23.668 17.0105 23.1607 16.4531 22.5352 16.4531Z" fill="#C3B7D2"/>
<path d="M9.60547 38.547C10.231 38.547 10.7383 37.9896 10.7383 37.3022V36.2643C10.7383 35.577 10.231 35.0195 9.60547 35.0195C8.97993 35.0195 8.47266 35.577 8.47266 36.2643V37.3022C8.47266 37.9896 8.97982 38.547 9.60547 38.547Z" fill="#C3B7D2"/>
<path d="M9.60547 19.9806C10.231 19.9806 10.7383 19.4232 10.7383 18.7358V17.6979C10.7383 17.0105 10.231 16.4531 9.60547 16.4531C8.97993 16.4531 8.47266 17.0105 8.47266 17.6979V18.7358C8.47266 19.4232 8.97982 19.9806 9.60547 19.9806Z" fill="#C3B7D2"/>
<path d="M18.9481 8.76275C20.7533 8.76275 22.2822 7.43767 22.7715 5.62611H50.7705C51.396 5.62611 51.9033 5.06869 51.9033 4.38132C51.9033 3.69394 51.396 3.13652 50.7705 3.13652H22.7715C22.2822 1.32496 20.7532 0 18.9481 0C16.7495 0 14.9609 1.96541 14.9609 4.38132C14.9609 6.79722 16.7494 8.76275 18.9481 8.76275ZM18.9481 2.48947C19.8974 2.48947 20.6697 3.33805 20.6697 4.38119C20.6697 5.42433 19.8974 6.27303 18.9481 6.27303C17.9988 6.27303 17.2266 5.42433 17.2266 4.38119C17.2266 3.33805 17.9988 2.48947 18.9481 2.48947Z" fill="#C3B7D2"/>
<path d="M50.7705 49.3749H22.7715C22.2822 47.5634 20.7532 46.2383 18.9481 46.2383C16.7495 46.2383 14.9609 48.2038 14.9609 50.6197C14.9609 53.0356 16.7495 55.001 18.9481 55.001C20.7533 55.001 22.2822 53.6759 22.7715 51.8645H50.7705C51.396 51.8645 51.9033 51.3071 51.9033 50.6197C51.9033 49.9323 51.396 49.3749 50.7705 49.3749ZM18.9481 52.5114C17.9988 52.5114 17.2266 51.6629 17.2266 50.6197C17.2266 49.5766 17.9988 48.7279 18.9481 48.7279C19.8974 48.7279 20.6697 49.5766 20.6697 50.6197C20.6697 51.6629 19.8974 52.5114 18.9481 52.5114Z" fill="#C3B7D2"/>
</svg>
