<svg width="60" height="60" viewBox="0 0 60 60" fill="none" xmlns="http://www.w3.org/2000/svg">
<path fill-rule="evenodd" clip-rule="evenodd" d="M44.2737 29.7071C44.2737 37.4284 38.0143 43.6877 30.2931 43.6877C22.5718 43.6877 16.3125 37.4284 16.3125 29.7071C16.3125 21.9859 22.5718 15.7266 30.2931 15.7266C38.0143 15.7266 44.2737 21.9859 44.2737 29.7071ZM30.2931 40.7751C36.4057 40.7751 41.361 35.8198 41.361 29.7071C41.361 23.5945 36.4057 18.6392 30.2931 18.6392C24.1804 18.6392 19.2251 23.5945 19.2251 29.7071C19.2251 35.8198 24.1804 40.7751 30.2931 40.7751Z" fill="#C3B7D2"/>
<path fill-rule="evenodd" clip-rule="evenodd" d="M60 30C60 46.5685 46.5685 60 30 60C13.4315 60 0 46.5685 0 30C0 13.4315 13.4315 0 30 0C46.5685 0 60 13.4315 60 30ZM30 57.0874C44.9599 57.0874 57.0874 44.9599 57.0874 30C57.0874 15.0401 44.9599 2.91262 30 2.91262C15.0401 2.91262 2.91262 15.0401 2.91262 30C2.91262 44.9599 15.0401 57.0874 30 57.0874Z" fill="#C3B7D2"/>
<path fill-rule="evenodd" clip-rule="evenodd" d="M36.1153 11.0674C36.1153 14.2846 33.5073 16.8927 30.2901 16.8927C27.0729 16.8927 24.4648 14.2846 24.4648 11.0674C24.4648 7.85024 27.0729 5.24219 30.2901 5.24219C33.5073 5.24219 36.1153 7.85024 36.1153 11.0674ZM30.2901 13.9801C31.8987 13.9801 33.2027 12.676 33.2027 11.0674C33.2027 9.45883 31.8987 8.15481 30.2901 8.15481C28.6815 8.15481 27.3775 9.45883 27.3775 11.0674C27.3775 12.676 28.6815 13.9801 30.2901 13.9801Z" fill="#C3B7D2"/>
<path fill-rule="evenodd" clip-rule="evenodd" d="M48.9317 15.7276C48.9317 18.9448 46.3237 21.5528 43.1065 21.5528C39.8893 21.5528 37.2812 18.9448 37.2812 15.7276C37.2812 12.5104 39.8893 9.90234 43.1065 9.90234C46.3237 9.90234 48.9317 12.5104 48.9317 15.7276ZM43.1065 18.6402C44.7151 18.6402 46.0191 17.3362 46.0191 15.7276C46.0191 14.119 44.7151 12.815 43.1065 12.815C41.4979 12.815 40.1939 14.119 40.1939 15.7276C40.1939 17.3362 41.4979 18.6402 43.1065 18.6402Z" fill="#C3B7D2"/>
<path fill-rule="evenodd" clip-rule="evenodd" d="M23.3028 42.5245C23.3028 45.7417 20.6948 48.3497 17.4776 48.3497C14.2604 48.3497 11.6523 45.7417 11.6523 42.5245C11.6523 39.3073 14.2604 36.6992 17.4776 36.6992C20.6948 36.6992 23.3028 39.3073 23.3028 42.5245ZM17.4776 45.4371C19.0862 45.4371 20.3902 44.1331 20.3902 42.5245C20.3902 40.9159 19.0862 39.6118 17.4776 39.6118C15.869 39.6118 14.565 40.9159 14.565 42.5245C14.565 44.1331 15.869 45.4371 17.4776 45.4371Z" fill="#C3B7D2"/>
<path fill-rule="evenodd" clip-rule="evenodd" d="M48.9317 42.5245C48.9317 45.7417 46.3237 48.3497 43.1065 48.3497C39.8893 48.3497 37.2812 45.7417 37.2812 42.5245C37.2812 39.3073 39.8893 36.6992 43.1065 36.6992C46.3237 36.6992 48.9317 39.3073 48.9317 42.5245ZM43.1065 45.4371C44.7151 45.4371 46.0191 44.1331 46.0191 42.5245C46.0191 40.9159 44.7151 39.6118 43.1065 39.6118C41.4979 39.6118 40.1939 40.9159 40.1939 42.5245C40.1939 44.1331 41.4979 45.4371 43.1065 45.4371Z" fill="#C3B7D2"/>
<path fill-rule="evenodd" clip-rule="evenodd" d="M23.3028 15.7276C23.3028 18.9448 20.6948 21.5528 17.4776 21.5528C14.2604 21.5528 11.6523 18.9448 11.6523 15.7276C11.6523 12.5104 14.2604 9.90234 17.4776 9.90234C20.6948 9.90234 23.3028 12.5104 23.3028 15.7276ZM17.4776 18.6402C19.0862 18.6402 20.3902 17.3362 20.3902 15.7276C20.3902 14.119 19.0862 12.815 17.4776 12.815C15.869 12.815 14.565 14.119 14.565 15.7276C14.565 17.3362 15.869 18.6402 17.4776 18.6402Z" fill="#C3B7D2"/>
<path fill-rule="evenodd" clip-rule="evenodd" d="M54.7599 29.7081C54.7599 32.9252 52.1518 35.5333 48.9346 35.5333C45.7174 35.5333 43.1094 32.9252 43.1094 29.7081C43.1094 26.4909 45.7174 23.8828 48.9346 23.8828C52.1518 23.8828 54.7599 26.4909 54.7599 29.7081ZM48.9346 32.6207C50.5432 32.6207 51.8472 31.3167 51.8472 29.7081C51.8472 28.0995 50.5432 26.7954 48.9346 26.7954C47.326 26.7954 46.022 28.0995 46.022 29.7081C46.022 31.3167 47.326 32.6207 48.9346 32.6207Z" fill="#C3B7D2"/>
<path fill-rule="evenodd" clip-rule="evenodd" d="M36.1153 48.9307C36.1153 52.1479 33.5073 54.756 30.2901 54.756C27.0729 54.756 24.4648 52.1479 24.4648 48.9307C24.4648 45.7135 27.0729 43.1055 30.2901 43.1055C33.5073 43.1055 36.1153 45.7135 36.1153 48.9307ZM30.2901 51.8433C31.8987 51.8433 33.2027 50.5393 33.2027 48.9307C33.2027 47.3221 31.8987 46.0181 30.2901 46.0181C28.6815 46.0181 27.3775 47.3221 27.3775 48.9307C27.3775 50.5393 28.6815 51.8433 30.2901 51.8433Z" fill="#C3B7D2"/>
<path fill-rule="evenodd" clip-rule="evenodd" d="M16.8927 29.7081C16.8927 32.9252 14.2846 35.5333 11.0674 35.5333C7.85024 35.5333 5.24219 32.9252 5.24219 29.7081C5.24219 26.4909 7.85024 23.8828 11.0674 23.8828C14.2846 23.8828 16.8927 26.4909 16.8927 29.7081ZM11.0674 32.6207C12.676 32.6207 13.9801 31.3167 13.9801 29.7081C13.9801 28.0995 12.676 26.7954 11.0674 26.7954C9.45883 26.7954 8.15481 28.0995 8.15481 29.7081C8.15481 31.3167 9.45883 32.6207 11.0674 32.6207Z" fill="#C3B7D2"/>
</svg>
