<svg width="60" height="60" viewBox="0 0 60 60" fill="none" xmlns="http://www.w3.org/2000/svg">
<path d="M58.2776 19.937C57.8199 19.4793 57.0781 19.4793 56.6203 19.937L18.559 57.9982C18.1014 58.4558 18.1014 59.1978 18.559 59.6556C18.7879 59.8844 19.0878 59.9988 19.3877 59.9988C19.6876 59.9988 19.9874 59.8844 20.2163 59.6556L23.7579 56.1139C24.7083 56.745 25.8229 57.0841 26.9897 57.0841C28.555 57.0841 30.0263 56.4746 31.1329 55.3679L38.8158 47.685C39.2735 47.2274 39.2735 46.4853 38.8158 46.0277C38.3582 45.5701 37.6162 45.5701 37.1585 46.0276L29.4754 53.7105C28.8114 54.3745 27.9286 54.7402 26.9895 54.7402C26.4561 54.7402 25.9408 54.6219 25.4733 54.3982L57.3079 22.5636C57.5316 23.0311 57.6497 23.5465 57.6497 24.08C57.6497 25.019 57.2841 25.9019 56.62 26.5659L44.6142 38.5718C44.1565 39.0294 44.1565 39.7714 44.6142 40.229C45.0719 40.6867 45.8137 40.6867 46.2715 40.229L58.2774 28.2232C59.384 27.1165 59.9936 25.6452 59.9936 24.08C59.9937 22.5151 59.3842 21.0436 58.2776 19.937Z" fill="white"/>
<path d="M23.3261 48.1672L25.8339 44.2788C26.1332 43.8148 26.0679 43.2048 25.6773 42.8146L25.6215 42.7587C24.2241 41.3614 24.2241 39.0879 25.6215 37.6907C26.2382 37.0739 27.0582 36.7343 27.9303 36.7343C28.8024 36.7343 29.6223 37.0739 30.2391 37.6907C30.4588 37.9105 30.757 38.0339 31.0677 38.0339C31.3785 38.0339 31.6765 37.9104 31.8964 37.6907L34.3158 35.2713C37.5672 32.0198 37.8232 26.8929 35.089 23.3428L45.6592 12.7726L46.9138 14.0272C47.1427 14.2561 47.4426 14.3705 47.7425 14.3705C48.0423 14.3705 48.3422 14.256 48.5711 14.0272C49.0287 13.5696 49.0287 12.8276 48.5711 12.37L47.3165 11.1154L49.3053 9.12668L50.5598 10.3812C50.7886 10.61 51.0885 10.7244 51.3884 10.7244C51.6883 10.7244 51.9882 10.6099 52.217 10.3812C52.6747 9.92355 52.6747 9.18152 52.217 8.72391L50.9628 7.46953L52.7857 5.64656C53.2434 5.18895 53.2434 4.44691 52.7857 3.9893L49.1398 0.343242C48.92 0.123516 48.622 0 48.3111 0C48.0003 0 47.7021 0.123516 47.4824 0.343242L45.6593 2.16633L44.4048 0.911719C43.9472 0.454102 43.2054 0.454102 42.7476 0.911719C42.29 1.36934 42.29 2.11137 42.7476 2.56898L44.0021 3.82359L42.0134 5.81227L40.7588 4.55766C40.3011 4.10004 39.5593 4.10004 39.1014 4.55766C38.6438 5.01527 38.6438 5.7573 39.1014 6.21504L40.356 7.46965L29.7865 18.039C28.21 16.8213 26.2882 16.1595 24.2636 16.1595C21.8437 16.1595 19.5685 17.1019 17.8573 18.813L15.4379 21.2324C15.2181 21.4522 15.0946 21.7502 15.0946 22.061C15.0946 22.3718 15.2181 22.6699 15.4379 22.8896C16.0547 23.5064 16.3942 24.3264 16.3942 25.1985C16.3942 26.0706 16.0546 26.8905 15.4379 27.5073C14.0407 28.9046 11.7671 28.9046 10.37 27.5073L10.3137 27.4509C9.92325 27.0607 9.31352 26.9957 8.84993 27.2948L4.96153 29.8028C4.31618 30.2191 3.71395 30.7054 3.17126 31.2479C-1.0571 35.4763 -1.0571 42.3564 3.17137 46.5847L6.54415 49.9576C8.65833 52.0717 11.4354 53.1288 14.2124 53.1288C16.9895 53.1288 19.7666 52.0717 21.8809 49.9576C22.4239 49.4147 22.9101 48.8123 23.3261 48.1672ZM42.0134 9.1268L44.0021 11.1156L25.988 29.1295L23.9992 27.1407L42.0134 9.1268ZM48.3111 2.82914L50.2998 4.81793L45.6593 9.45832L43.6707 7.46953L48.3111 2.82914ZM7.50942 47.6082L5.52075 45.6196L8.60126 42.5391L10.59 44.5277L7.50942 47.6082ZM20.2237 48.3005C17.2379 51.2863 12.5657 51.5811 9.2452 49.1871L13.0758 45.3564C13.5334 44.8987 13.5334 44.1567 13.0758 43.6991L9.42989 40.0532C9.21004 39.8334 8.91204 39.7099 8.60126 39.7099C8.29047 39.7099 7.99247 39.8334 7.77262 40.0532L3.94188 43.8839C1.54809 40.5634 1.8427 35.8914 4.82864 32.9054C5.25403 32.48 5.72618 32.0988 6.23208 31.7726L9.38161 29.7413C11.7 31.4566 14.9958 31.2645 17.0955 29.1649C18.1548 28.1054 18.7383 26.697 18.7383 25.1987C18.7383 24.0991 18.424 23.0479 17.838 22.1474L19.5149 20.4704C20.7834 19.202 22.4699 18.5033 24.2638 18.5033C25.6605 18.5033 26.9911 18.9286 28.111 19.7148L21.5134 26.3123C21.0558 26.77 21.0558 27.512 21.5134 27.9696L25.1594 31.6157C25.3792 31.8354 25.6772 31.9589 25.988 31.9589C26.2988 31.9589 26.5968 31.8354 26.8166 31.6157L33.4134 25.0189C35.2448 27.6369 34.9945 31.2785 32.6586 33.6143L30.9816 35.2913C30.0811 34.7052 29.03 34.3909 27.9303 34.3909C26.4322 34.3909 25.0236 34.9743 23.9641 36.0336C21.8647 38.1332 21.6722 41.4287 23.3877 43.7475L21.3564 46.897C21.0304 47.4026 20.6492 47.8747 20.2237 48.3005Z" fill="white"/>
<path d="M14.4693 35.0112C14.0116 34.5536 13.2698 34.5536 12.812 35.0112C12.3543 35.4688 12.3543 36.2108 12.812 36.6686L16.4579 40.3145C16.6868 40.5434 16.9866 40.6577 17.2865 40.6577C17.5865 40.6577 17.8863 40.5434 18.1152 40.3145C18.5728 39.8569 18.5728 39.1149 18.1152 38.6571L14.4693 35.0112Z" fill="white"/>
<path d="M41.7148 41.957C41.4065 41.957 41.1042 42.0824 40.8863 42.3004C40.6684 42.5184 40.543 42.8207 40.543 43.1289C40.543 43.4383 40.6682 43.7395 40.8863 43.9574C41.1042 44.1766 41.4065 44.3008 41.7148 44.3008C42.023 44.3008 42.3254 44.1766 42.5432 43.9574C42.7624 43.7395 42.8867 43.4383 42.8867 43.1289C42.8867 42.8207 42.7624 42.5184 42.5432 42.3004C42.3254 42.0824 42.023 41.957 41.7148 41.957Z" fill="white"/>
</svg>
