<svg width="60" height="60" viewBox="0 0 60 60" fill="none" xmlns="http://www.w3.org/2000/svg">
<path d="M29.0506 32.5466C29.9329 32.5466 30.6481 31.8313 30.6481 30.9491C30.6481 30.0668 29.9329 29.3516 29.0506 29.3516C28.1683 29.3516 27.4531 30.0668 27.4531 30.9491C27.4531 31.8313 28.1683 32.5466 29.0506 32.5466Z" fill="white"/>
<path d="M33.3123 28.2848C34.1946 28.2848 34.9098 27.5696 34.9098 26.6873C34.9098 25.8051 34.1946 25.0898 33.3123 25.0898C32.4301 25.0898 31.7148 25.8051 31.7148 26.6873C31.7148 27.5696 32.4301 28.2848 33.3123 28.2848Z" fill="white"/>
<path d="M24.785 36.8083C25.6673 36.8083 26.3825 36.093 26.3825 35.2108C26.3825 34.3285 25.6673 33.6133 24.785 33.6133C23.9027 33.6133 23.1875 34.3285 23.1875 35.2108C23.1875 36.093 23.9027 36.8083 24.785 36.8083Z" fill="white"/>
<path d="M20.5233 41.07C21.4056 41.07 22.1208 40.3548 22.1208 39.4725C22.1208 38.5902 21.4056 37.875 20.5233 37.875C19.641 37.875 18.9258 38.5902 18.9258 39.4725C18.9258 40.3548 19.641 41.07 20.5233 41.07Z" fill="white"/>
<path d="M11.203 50.3942C12.0852 50.3942 12.8005 49.679 12.8005 48.7967C12.8005 47.9144 12.0852 47.1992 11.203 47.1992C10.3207 47.1992 9.60547 47.9144 9.60547 48.7967C9.60547 49.679 10.3207 50.3942 11.203 50.3942Z" fill="white"/>
<path d="M59.5985 2.86604C58.9548 1.79319 58.2077 1.04436 57.1305 0.398076C56.1285 -0.203095 54.8223 -0.117079 53.9098 0.613583C52.7346 1.55471 50.1167 3.44987 45.7855 5.56721C43.7384 6.56787 42.0894 8.38814 40.8713 10.9811C40.4925 10.8232 40.0826 10.7401 39.66 10.7401C38.82 10.7401 38.0302 11.0673 37.4362 11.6612C36.4258 12.6717 36.2488 14.2039 36.9037 15.3982L33.619 18.6828C33.2757 19.0262 33.2757 19.5827 33.619 19.9261C33.9624 20.2694 34.519 20.2694 34.8623 19.9261L38.0577 16.7306L43.2656 21.9384L26.7888 38.4156C26.4454 38.759 26.4454 39.3156 26.7888 39.6589C27.1278 39.9979 27.6933 39.9978 28.0321 39.6589L44.597 23.0939C45.0557 23.3466 45.573 23.4815 46.1111 23.4815C46.9511 23.4815 47.7409 23.1543 48.3348 22.5604C49.2252 21.67 49.5001 20.2882 49.0151 19.1253C51.6081 17.907 53.4284 16.258 54.4291 14.2111C56.5465 9.88017 58.4415 7.26197 59.3828 6.0867C60.1173 5.16959 60.2039 3.87526 59.5985 2.86604ZM47.0917 21.3172C46.5569 21.852 45.6652 21.8514 45.1306 21.3172C45.1306 21.3172 38.6794 14.866 38.6791 14.8657C38.1387 14.3251 38.1388 13.4455 38.6794 12.9049C39.2134 12.3709 40.1071 12.3717 40.6404 12.9049C40.6404 12.9049 47.0908 19.3552 47.0918 19.3563C47.634 19.8833 47.6207 20.7881 47.0917 21.3172ZM58.0104 4.98772C56.8051 6.49252 54.9315 9.18044 52.8496 13.4388C51.9867 15.2038 50.329 16.6338 47.9175 17.6954L42.3012 12.079C43.3627 9.66736 44.7928 8.00986 46.5578 7.14701C50.8166 5.06494 53.5042 3.19135 55.0089 1.9862C55.3543 1.70952 55.8472 1.67858 56.226 1.90581C57.0574 2.40467 57.59 2.936 58.0908 3.77061C58.3199 4.15252 58.2875 4.64166 58.0104 4.98772Z" fill="white"/>
<path d="M32.3973 21.1481C32.054 20.8048 31.4973 20.8048 31.1541 21.1481L13.4998 38.8025C13.0412 38.5497 12.524 38.4149 11.9858 38.4149C11.1457 38.4149 10.3559 38.7421 9.76191 39.336C8.72445 40.3734 8.56495 41.9614 9.28331 43.1685C8.6791 43.8991 7.27578 45.3154 4.90484 46.2146C4.38629 45.859 3.77364 45.6671 3.13122 45.6671C2.29122 45.6671 1.50137 45.9943 0.907469 46.5882C-0.303427 47.7992 -0.301552 49.8269 0.907469 51.0358C0.907469 51.0358 8.95531 59.0838 8.9607 59.0893C10.1734 60.3019 12.1966 60.301 13.4083 59.0893C14.4935 58.0039 14.6176 56.3169 13.7818 55.0931C14.6757 52.7408 16.0986 51.3261 16.8304 50.7159C17.3115 51.0028 17.8624 51.1559 18.437 51.1559C19.277 51.1559 20.0669 50.8287 20.6608 50.2348C21.6712 49.2245 21.8482 47.6922 21.1933 46.498L25.6382 42.0531C25.9816 41.7097 25.9816 41.1531 25.6382 40.8098C25.295 40.4662 24.7383 40.4662 24.395 40.8097L20.039 45.1656L14.8311 39.9576L32.3973 22.3914C32.7407 22.048 32.7407 21.4915 32.3973 21.1481ZM12.1649 57.846C11.6295 58.3815 10.7382 58.3803 10.2039 57.846C10.2039 57.846 2.16383 49.8057 2.15071 49.7926C1.61622 49.2581 1.61704 48.3652 2.15071 47.8316C2.68602 47.2963 3.577 47.297 4.11172 47.8316L12.1649 55.8848C12.7057 56.4257 12.7057 57.3053 12.1649 57.846ZM12.4592 53.6927L6.30406 47.5375C8.38624 46.5931 9.73753 45.3231 10.4671 44.489L15.5079 49.5298C14.6738 50.2592 13.4036 51.6104 12.4592 53.6927ZM19.4176 47.0305C19.958 47.5712 19.9579 48.4508 19.4174 48.9914C18.8822 49.5266 17.9903 49.5253 17.4564 48.9914C17.4564 48.9914 11.0053 42.5402 11.0049 42.5399C10.4646 41.9993 10.4646 41.1198 11.0051 40.5791C11.5405 40.0437 12.4311 40.044 12.9664 40.5791C12.9663 40.5792 19.4174 47.0304 19.4176 47.0305Z" fill="white"/>
</svg>
