<svg width="52" height="52" viewBox="0 0 52 52" fill="none" xmlns="http://www.w3.org/2000/svg">
<path fill-rule="evenodd" clip-rule="evenodd" d="M0 6.60413C0 2.95678 2.95678 0 6.60413 0H45.0281C48.6755 0 51.6323 2.95678 51.6323 6.60413V45.0281C51.6323 48.6755 48.6755 51.6323 45.0281 51.6323H6.60413C2.95678 51.6323 0 48.6755 0 45.0281V6.60413ZM37.2233 48.03H45.0281C46.6861 48.03 48.03 46.6861 48.03 45.0281V6.60413C48.03 4.94623 46.6861 3.60225 45.0281 3.60225H42.0263V25.8161C42.0263 26.8108 41.2198 27.6173 40.2251 27.6173H37.2233V48.03ZM33.621 27.6173V48.03H18.0113V27.6173H21.0131C22.0078 27.6173 22.8143 26.8108 22.8143 25.8161V3.60225H28.818V25.8161C28.818 26.8108 29.6244 27.6173 30.6191 27.6173H33.621ZM14.409 48.03V27.6173H11.4071C10.4124 27.6173 9.606 26.8108 9.606 25.8161V3.60225H6.60413C4.94623 3.60225 3.60225 4.94623 3.60225 6.60413V45.0281C3.60225 46.6861 4.94623 48.03 6.60413 48.03H14.409Z" fill="#C3B7D2"/>
</svg>
