<svg width="50" height="60" viewBox="0 0 50 60" fill="none" xmlns="http://www.w3.org/2000/svg">
<path d="M45.0846 50.0658L43.1199 26.0397L44.8936 24.266C47.605 21.5546 49.0982 17.9497 49.0982 14.1153C49.0982 7.69237 44.3175 1.83526 37.7308 0.188607L37.3047 0.0820312L36.8787 0.188607C30.2919 1.83538 25.5112 7.69237 25.5112 14.1153C25.5112 17.9497 27.0045 21.5546 29.7158 24.266L31.4897 26.0397L29.5274 50.0342L29.5234 50.0975C29.342 54.0866 31.7113 57.7634 35.419 59.2465L37.3048 60.0009L39.1908 59.2465C42.8984 57.7635 45.2677 54.0867 45.0863 50.0975L45.0846 50.0658ZM36.7237 55.9843C34.4118 55.0595 32.9313 52.7726 33.0319 50.2869L33.1421 48.9398C33.5582 45.9531 35.9197 43.4733 37.3016 42.253C38.6832 43.4789 41.0529 45.9717 41.4672 48.9385L41.5774 50.287C41.6778 52.7727 40.1974 55.0597 37.8856 55.9844L37.3046 56.2166L36.7237 55.9843ZM29.0246 14.1152C29.0246 11.7917 29.8993 9.46071 31.4873 7.54281C32.3218 9.05818 33.7312 10.2134 35.4195 10.7146C34.933 13.1811 33.0935 15.2437 30.615 15.9518L29.2538 16.3406C29.1035 15.6165 29.0246 14.872 29.0246 14.1152ZM43.122 7.54281C44.71 9.46071 45.5847 11.7917 45.5847 14.1152C45.5847 14.872 45.5058 15.6165 45.3555 16.3407L43.9943 15.9519C41.5159 15.2438 39.6763 13.1813 39.1898 10.7147C40.8781 10.2134 42.2876 9.05818 43.122 7.54281ZM40.3384 5.09239C40.0051 6.45832 38.7717 7.47536 37.3046 7.47536C35.8375 7.47536 34.6041 6.4582 34.2708 5.09239C35.2133 4.49263 36.2363 4.02394 37.3046 3.71252C38.3729 4.02394 39.396 4.49263 40.3384 5.09239ZM31.5803 19.3301C33.9753 18.6458 35.976 17.1267 37.3046 15.1474C38.6332 17.1267 40.6339 18.6458 43.0289 19.3301L44.0806 19.6306C43.6213 20.4052 43.0626 21.1281 42.4091 21.7815L39.4855 24.7052L40.7956 40.7269C39.512 39.4012 38.4102 38.6237 38.3072 38.5521L37.3046 37.8551L36.302 38.5521C36.199 38.6236 35.0972 39.4012 33.8136 40.7268L35.1238 24.7051L32.2001 21.7814C31.5466 21.1278 30.9879 20.4051 30.5286 19.6305L31.5803 19.3301Z" fill="#C3B7D2"/>
<path d="M18.5109 33.9611L20.4732 9.9666L20.4772 9.90324C20.6585 5.91402 18.2891 2.23739 14.5814 0.754347L12.6956 0L10.8098 0.754229C7.10225 2.23727 4.73287 5.91391 4.91416 9.90313L4.91557 9.93486L6.88043 33.9611L5.10682 35.7349C2.39558 38.4461 0.902344 42.0511 0.902344 45.8856C0.902344 52.3085 5.68303 58.1656 12.2699 59.8123L12.696 59.9188L13.122 59.8123C19.7088 58.1656 24.4895 52.3085 24.4895 45.8856C24.4895 42.0511 22.9962 38.4463 20.285 35.7349L18.5109 33.9611ZM12.6956 3.78415L13.2765 4.01651C15.5883 4.94126 17.069 7.22807 16.9685 9.71387L16.8583 11.0611C16.4422 14.0476 14.0806 16.5276 12.6988 17.7479C11.3169 16.5218 8.9466 14.0283 8.53294 11.0609L8.42274 9.71387C8.32237 7.22807 9.80284 4.94126 12.1147 4.01651L12.6956 3.78415ZM10.5148 35.2956L9.20461 19.2737C10.4883 20.5995 11.5901 21.377 11.6931 21.4486L12.6957 22.1455L13.6985 21.4486C13.8014 21.377 14.9033 20.5995 16.1868 19.2737L14.8767 35.2956L17.8004 38.2193C18.4539 38.8728 19.0125 39.5955 19.4718 40.3701L18.42 40.6707C16.025 41.355 14.0243 42.8741 12.6957 44.8533C11.3672 42.8741 9.36658 41.355 6.97155 40.6707L5.91973 40.3701C6.37906 39.5955 6.9377 38.8727 7.59121 38.2193L10.5148 35.2956ZM20.9757 45.8855C20.9757 48.209 20.101 50.54 18.513 52.4578C17.6786 50.9425 16.2692 49.7872 14.5808 49.2861C15.0673 46.8195 16.9069 44.757 19.3853 44.0489L20.7465 43.66C20.8968 44.3842 20.9757 45.1287 20.9757 45.8855ZM6.87844 52.4579C5.29046 50.54 4.41572 48.2091 4.41572 45.8856C4.41572 45.1288 4.49465 44.3843 4.64491 43.66L6.00616 44.0489C8.48457 44.757 10.324 46.8195 10.8105 49.2861C9.12227 49.7873 7.71289 50.9425 6.87844 52.4579ZM12.6956 52.5253C14.1627 52.5253 15.3962 53.5424 15.7294 54.9084C14.787 55.508 13.7639 55.9767 12.6957 56.2882C11.6274 55.9767 10.6044 55.508 9.66194 54.9083C9.99526 53.5424 11.2286 52.5253 12.6956 52.5253Z" fill="#C3B7D2"/>
</svg>
