<svg width="60" height="51" viewBox="0 0 60 51" fill="none" xmlns="http://www.w3.org/2000/svg">
<path d="M51.891 6.16112C51.7083 5.70325 51.9275 5.18825 52.376 5.00308C52.8278 4.82124 53.336 5.04346 53.5187 5.49789C53.7147 6.00291 53.8709 6.52813 53.9705 7.06676C54.0735 7.60219 54.1267 8.1476 54.1267 8.69645C54.1267 9.20824 54.0802 9.7097 53.9972 10.2013C53.934 10.5516 53.8511 10.8981 53.7481 11.2382C53.4591 12.181 53.3428 11.649 53.9939 12.3459C54.9373 13.3559 55.7046 14.5344 56.2461 15.8339C56.8308 17.2311 57.1531 18.7596 57.1531 20.3556C57.1531 21.6988 56.9271 22.9883 56.5119 24.1902H59.123C59.608 24.1902 60 24.5876 60 25.0791V45.2092C60 46.8017 59.3589 48.2496 58.3225 49.2999C57.2893 50.347 55.861 51 54.2864 51H5.71357C4.14233 51 2.71393 50.347 1.67753 49.2999C0.644412 48.2495 0 46.8017 0 45.2092C0 38.4992 0 31.7893 0 25.0792C0 24.5876 0.395272 24.1903 0.880309 24.1903H14.5931C15.0781 24.1903 15.4734 24.5877 15.4734 25.0792C15.4734 25.5708 15.0781 25.9714 14.5931 25.9714H1.75734V30.9677H8.46418C8.94922 30.9677 9.3411 31.3683 9.3411 31.8599C9.3411 32.3515 8.94911 32.7486 8.46418 32.7486H1.75734V40.2803H12.3375C13.0716 40.2803 13.7758 40.132 14.4203 39.856C15.0946 39.5697 15.7093 39.1489 16.234 38.6237C16.7522 38.1019 17.1875 37.4824 17.513 36.7888C17.8286 36.1188 18.0379 35.3816 18.121 34.6073C18.1443 33.7722 18.4664 33.018 18.9747 32.4694C19.5095 31.8833 20.257 31.5231 21.0841 31.5231V31.5199H25.5952C26.3692 31.5199 27.1099 31.3483 27.7843 31.0418C28.4986 30.7152 29.143 30.2406 29.6779 29.6548C30.2227 29.0588 30.6612 28.3451 30.9634 27.5537C31.1526 27.0555 31.2857 26.527 31.3554 25.9714H18.5761C18.0911 25.9714 17.6958 25.5708 17.6958 25.0792C17.6958 24.5876 18.0911 24.1903 18.5761 24.1903H32.2888H34.3816C33.9664 22.9884 33.7405 21.6988 33.7405 20.3557C33.7405 18.7698 34.0595 17.2481 34.6374 15.8576C35.1556 14.6084 35.8831 13.4671 36.7767 12.4807C37.677 11.4874 37.4379 12.3594 37.0524 10.9084C36.8631 10.1879 36.7667 9.44389 36.7667 8.69645C36.7667 6.29593 37.7401 4.12095 39.3179 2.54531C40.8859 0.97299 43.055 0 45.4468 0C46.4533 0 47.4233 0.174953 48.3303 0.494809C49.2702 0.828205 50.134 1.31304 50.8881 1.92567C51.2701 2.2321 51.3332 2.79093 51.031 3.17493C50.7286 3.55856 50.1773 3.6227 49.7985 3.31615C49.1905 2.82454 48.4997 2.43746 47.7556 2.17153C47.0379 1.9189 46.2608 1.78088 45.4469 1.78088C43.5302 1.78088 41.7994 2.55873 40.5472 3.81119C39.2982 5.06021 38.5242 6.78753 38.5242 8.69645C38.5242 9.48748 38.6571 10.2753 38.9195 11.0195C39.1121 11.5515 39.2084 11.831 39.1254 12.2484C39.0424 12.6692 38.8364 12.8982 38.4212 13.3124C37.4976 14.2315 36.7569 15.3291 36.2486 16.5478C35.7636 17.7161 35.4978 19.0022 35.4978 20.3558C35.4978 23.1029 36.6074 25.5877 38.4045 27.3858C40.0122 28.995 42.1681 30.0555 44.5666 30.2641V27.8366L41.3276 24.5541C40.9856 24.2073 40.9856 23.6417 41.3276 23.2949C41.6698 22.948 42.2279 22.948 42.5701 23.2949L44.5666 25.3182V21.9851L41.3276 18.6992C40.9856 18.3524 40.9856 17.7868 41.3276 17.4399C41.6698 17.0931 42.2279 17.0931 42.5701 17.4399L44.5666 19.4635V16.1302L41.3276 12.8442C40.9856 12.4974 40.9856 11.9318 41.3276 11.585C41.6698 11.2382 42.2279 11.2382 42.5701 11.585L44.5666 13.6086V10.1542C44.5666 9.66255 44.9619 9.26193 45.4469 9.26193C45.9319 9.26193 46.3272 9.66255 46.3272 10.1542V13.6086L48.3237 11.585C48.6659 11.2382 49.2239 11.2382 49.5661 11.585C49.9083 11.9318 49.9083 12.4974 49.5661 12.8442L46.3273 16.1302V19.4635L48.3238 17.4399C48.666 17.0931 49.2241 17.0931 49.5662 17.4399C49.9084 17.7868 49.9084 18.3524 49.5662 18.6992L46.3274 21.9851V25.3182L48.324 23.2949C48.6661 22.948 49.2242 22.948 49.5664 23.2949C49.9086 23.6417 49.9086 24.2073 49.5664 24.5541L46.3275 27.8366V30.2641C48.726 30.0555 50.8818 28.9949 52.4896 27.3858C54.2869 25.5877 55.3963 23.1029 55.3963 20.3558C55.3963 18.9923 55.124 17.6959 54.6356 16.521C54.1241 15.2987 53.37 14.1979 52.4365 13.2754C52.0378 12.8815 51.8419 12.6019 51.7722 12.1981C51.7057 11.8075 51.7954 11.5145 51.9616 11.0466C52.0944 10.6831 52.1975 10.296 52.2672 9.89511C52.3336 9.50791 52.3701 9.10729 52.3701 8.69669C52.3701 8.24879 52.3269 7.818 52.2504 7.4004C52.1667 6.96901 52.0471 6.55497 51.891 6.16112ZM20.7319 6.07358C20.4395 5.67973 20.5159 5.12067 20.9046 4.82789C21.2901 4.53167 21.8414 4.60887 22.1337 4.99952C22.4692 5.45074 22.735 5.95897 22.9177 6.51138C23.087 7.02983 23.1835 7.57523 23.19 8.13727C23.7381 8.45392 24.2099 8.89148 24.5686 9.41016C25.0403 10.0968 25.3193 10.9284 25.3193 11.8241C25.3193 12.9889 24.8476 14.0494 24.0903 14.8139C23.3329 15.5815 22.2898 16.0593 21.1404 16.0593H9.55039C8.40102 16.0593 7.35794 15.5815 6.60056 14.8139C5.84318 14.0494 5.3715 12.9889 5.3715 11.8241C5.3715 10.6591 5.84318 9.59853 6.60056 8.8309C7.17853 8.24511 7.92934 7.82762 8.76313 7.66265C8.91594 6.99942 9.25145 6.40353 9.70988 5.93878C10.3543 5.28897 11.238 4.88514 12.2178 4.88514C12.6464 4.88514 13.0583 4.96234 13.4403 5.10713C13.5035 5.13076 13.5665 5.1544 13.6297 5.18136C14.0217 4.60555 14.5199 4.11727 15.0879 3.74373C15.9283 3.19143 16.9249 2.88167 17.9713 2.88512C18.453 2.88833 18.845 3.28574 18.8417 3.77734C18.8417 4.26538 18.4464 4.6628 17.9648 4.65935C17.2672 4.65935 16.6027 4.86471 16.0414 5.2316C15.4899 5.59528 15.0381 6.1205 14.7591 6.75689C14.7226 6.8411 14.676 6.92531 14.613 6.9993C14.2974 7.36952 13.746 7.41334 13.3773 7.09693C13.0517 6.81413 12.6431 6.6659 12.2178 6.6659C11.7262 6.6659 11.2777 6.86794 10.9556 7.19789C10.63 7.52452 10.4307 7.97894 10.4307 8.4772C10.4307 8.97224 10.0387 9.36942 9.55039 9.36942C8.88606 9.36942 8.28149 9.64545 7.84298 10.0899C7.40446 10.5378 7.132 11.1505 7.132 11.824C7.132 12.4972 7.40446 13.1101 7.84298 13.5545C8.28149 14.0023 8.88606 14.2783 9.55039 14.2783H21.1404C21.8048 14.2783 22.4094 14.0023 22.848 13.5545C23.2865 13.1101 23.5621 12.4972 23.5621 11.824C23.5621 11.3055 23.3993 10.8239 23.127 10.4267C22.8546 10.0293 22.4692 9.71624 22.0241 9.53784C21.6287 9.41325 21.3631 9.01939 21.4096 8.58837C21.4262 8.4538 21.4295 8.33253 21.4295 8.19796C21.4295 7.79734 21.3698 7.42356 21.2535 7.07686C21.1337 6.71318 20.9577 6.37657 20.7319 6.07358ZM6.21525 37.5464C5.73021 37.5464 5.33822 37.1458 5.33822 36.6542C5.33822 36.1626 5.73021 35.7653 6.21525 35.7653H13.7924C14.2775 35.7653 14.6694 36.1627 14.6694 36.6542C14.6694 37.1457 14.2774 37.5464 13.7924 37.5464H6.21525ZM15.5829 29.6378C15.0979 29.6378 14.706 29.2372 14.706 28.7456C14.706 28.254 15.098 27.8567 15.5829 27.8567H25.9704C26.4554 27.8567 26.8473 28.2541 26.8473 28.7456C26.8473 29.2372 26.4553 29.6378 25.9704 29.6378H15.5829ZM46.3269 39.3612C46.3269 39.8528 45.9316 40.2498 45.4465 40.2498C44.9615 40.2498 44.5662 39.8527 44.5662 39.3612V32.0518C41.6894 31.8363 39.0984 30.5805 37.175 28.6546C36.3843 27.8633 35.7068 26.9611 35.1685 25.9713H33.1223C33.0426 26.7457 32.8632 27.493 32.5974 28.1934C32.2154 29.1933 31.6574 30.0957 30.9632 30.8566C30.2623 31.6242 29.4285 32.2436 28.5049 32.6644C27.6046 33.0752 26.6214 33.3009 25.5949 33.3009H21.0838C20.7682 33.3009 20.4726 33.4421 20.2567 33.6779C19.9245 34.0415 19.9113 34.3244 19.8681 34.7687C19.7651 35.7586 19.4995 36.6981 19.1008 37.5464C18.6856 38.4285 18.1308 39.2232 17.4631 39.8897C16.7788 40.5731 15.9782 41.1254 15.0913 41.4992C14.2376 41.8628 13.3075 42.0648 12.3375 42.0648H1.75734V45.2093C1.75734 46.3104 2.20241 47.3136 2.92007 48.0409C3.6376 48.7649 4.62748 49.2194 5.71369 49.2194H54.2862C55.3757 49.2194 56.3623 48.7649 57.0798 48.0409C57.7975 47.3136 58.2425 46.3104 58.2425 45.2093V25.9714H55.7245C55.1864 26.9613 54.5087 27.8635 53.7182 28.6547C51.7948 30.5806 49.2038 31.8363 46.327 32.0519V39.3612H46.3269Z" fill="#C3B7D2"/>
</svg>
