<svg width="53" height="60" viewBox="0 0 53 60" fill="none" xmlns="http://www.w3.org/2000/svg">
<path d="M45.9861 18.4443C45.006 17.4378 43.6925 16.1887 42.1795 15.3727C42.1396 15.3503 42.098 15.3294 42.0556 15.3094C41.2367 14.9227 40.2506 14.9827 39.4904 15.4632C38.6732 15.9804 37.5532 16.6891 38.4645 28.2059C38.4662 28.2347 38.4695 28.2627 38.4729 28.2915C38.5493 28.9457 38.5017 29.3244 38.4483 29.5262C38.4399 29.5599 38.4313 29.5935 38.4237 29.6271C37.8645 32.207 35.4427 33.4746 33.5403 33.7757C32.6085 33.9238 29.4333 34.1856 27.676 31.3855C26.5983 29.6328 26.4838 27.5268 27.3587 25.5979C27.5581 25.2191 27.7507 24.8339 27.9449 24.4464C28.3913 23.5544 28.813 22.712 29.3501 21.9025C33.402 15.5815 32.7478 7.96984 27.5546 1.01876C27.1151 0.42942 26.4176 0.057936 25.6564 0.0066079C24.8961 -0.0470639 24.1485 0.228444 23.6241 0.752037C21.6079 2.76508 19.6444 4.87821 17.7453 6.9216C15.4619 9.37902 13.0995 11.9206 10.6421 14.2843C6.93646 17.9836 1.84168 23.7433 0.398381 31.0387C-0.541839 35.9215 0.195584 41.0781 2.46883 45.5477C6.5716 53.732 15.7674 59.5284 25.3492 59.972C25.7497 59.9904 26.1486 60 26.5482 60C35.7915 59.9992 44.8336 55.0964 49.3234 47.5535C55.2557 37.733 53.9141 26.0416 45.9861 18.4443ZM44.894 45.1861C41.1231 51.5207 33.3605 55.5331 25.5995 55.1743C17.8403 54.8148 10.3943 50.121 7.06549 43.4814C5.24615 39.9053 4.65725 35.792 5.40573 31.9101C6.31453 27.3139 9.15469 22.7625 14.3087 17.6179C16.8348 15.1901 19.2439 12.5965 21.574 10.0894C22.7093 8.86668 23.8685 7.61992 25.0412 6.3925C26.7349 9.60578 28.1409 14.507 25.0131 19.3867C24.3377 20.4052 23.8311 21.4165 23.3414 22.3942C23.1539 22.7705 22.9673 23.1429 22.7729 23.5096C22.7534 23.5464 22.7355 23.5833 22.7178 23.6209C21.182 26.9328 21.3898 30.737 23.2838 33.8149C25.5571 37.4374 29.8066 39.2374 34.3829 38.5136C38.9643 37.7881 42.4977 34.6989 43.4014 30.6385C43.6144 29.8024 43.6602 28.8753 43.5389 27.8071C43.3997 26.0343 43.3276 24.2959 43.2987 22.7809C48.7599 28.8305 49.4431 37.6553 44.894 45.1861Z" fill="#C3B7D2"/>
</svg>
