<svg width="60" height="60" viewBox="0 0 60 60" fill="none" xmlns="http://www.w3.org/2000/svg">
<path d="M56.4832 31.7549L44.5244 34.6775L39.9147 32.251V27.6974L44.4717 25.3095L56.4829 28.2464C56.7244 28.3052 56.967 28.3342 57.2074 28.3342C58.4412 28.3342 59.5702 27.5823 59.9036 26.4434C60.3032 25.0823 59.4189 23.6836 57.9275 23.3194L51.3427 21.7094L57.4129 18.5292C58.7509 17.8279 59.2139 16.2691 58.4453 15.0477C57.6741 13.8262 55.9692 13.4031 54.6307 14.106L48.548 17.2938L50.3119 11.2829C50.711 9.92224 49.828 8.52325 48.3359 8.15902C46.8538 7.80425 45.3147 8.60226 44.915 9.96201L41.7099 20.8752L37.1244 23.2783L32.7774 20.9848V16.1725L41.568 8.15099C42.6592 7.15469 42.6592 5.54094 41.568 4.5445C40.4765 3.54833 38.7084 3.54833 37.6161 4.5445L32.7774 8.95974V2.55008C32.7775 1.14189 31.5259 0 29.9826 0C28.4395 0 27.188 1.14176 27.188 2.55008V8.92814L22.3846 4.5445C21.2929 3.54833 19.5244 3.54833 18.4325 4.5445C17.3408 5.54081 17.3408 7.15456 18.4325 8.15099L27.188 16.1405V21.0033L22.874 23.2744L18.2884 20.8736L15.0856 9.96214C14.6867 8.60239 13.1548 7.80218 11.6649 8.15915C10.1736 8.52338 9.28861 9.92237 9.68817 11.283L11.4519 17.2928L5.36946 14.106C4.02853 13.403 2.32169 13.8252 1.55435 15.0483C0.786302 16.27 1.24946 17.8278 2.58783 18.529L8.65753 21.7093L2.07258 23.3192C0.581196 23.6835 -0.303526 25.0822 0.0958978 26.4433C0.43017 27.5822 1.55889 28.3341 2.79279 28.3341C3.0331 28.3341 3.27582 28.305 3.51797 28.2462L15.5308 25.3084L20.0827 27.6932L20.0874 32.2509L15.4763 34.6818L3.51797 31.7548C2.03709 31.4002 0.495889 32.1991 0.0958978 33.5583C-0.303526 34.9188 0.581196 36.318 2.07258 36.6802L8.6334 38.286L2.58087 41.4743C1.24477 42.1791 0.786302 43.7374 1.55903 44.9567C2.07669 45.7774 3.01578 46.2318 3.98056 46.2318C4.45422 46.2318 4.93497 46.1243 5.37542 45.8891L11.4586 42.6857L9.68817 48.7185C9.28861 50.0814 10.1736 51.4761 11.6649 51.8425C11.9063 51.9022 12.1489 51.9305 12.3893 51.9305C13.6227 51.9305 14.7514 51.1774 15.0856 50.0377L18.3043 39.0793L22.8822 36.669L27.188 38.9362V43.8614L18.4325 51.8511C17.3408 52.8471 17.3408 54.4606 18.4325 55.4573C18.9784 55.9555 19.6922 56.2023 20.4085 56.2023C21.1223 56.2023 21.8387 55.9555 22.3846 55.4573L27.188 51.0739V57.4498C27.188 58.8606 28.4395 60 29.9826 60C31.5259 60 32.7775 58.8603 32.7775 57.4498V51.0421L37.6162 55.4573C38.162 55.9555 38.8758 56.2023 39.5922 56.2023C40.3085 56.2023 41.0224 55.9555 41.5681 55.4573C42.6594 54.4609 42.6594 52.8474 41.5681 51.8511L32.7775 43.8295V38.9559L37.1203 36.6687L41.6969 39.079L44.9155 50.0375C45.2494 51.1772 46.3781 51.9302 47.6113 51.9302C47.8509 51.9302 48.0942 51.902 48.3362 51.8423C49.8283 51.4758 50.7112 50.0811 50.3122 48.7183L48.5397 42.6854L54.6252 45.8888C55.0658 46.1238 55.5464 46.2315 56.0202 46.2315C56.985 46.2315 57.9238 45.7772 58.4416 44.9565C59.2142 43.7371 58.756 42.1791 57.4198 41.4741L51.3672 38.2862L57.9279 36.6804C59.4193 36.3181 60.3036 34.9188 59.904 33.5586C59.5069 32.1991 57.972 31.3985 56.4832 31.7549ZM34.3253 32.251L30 34.5305L25.6779 32.2509L25.6731 27.6891L30 25.4112L34.3253 27.6925V32.251Z" fill="#C3B7D2"/>
</svg>
