<svg width="60" height="60" viewBox="0 0 60 60" fill="none" xmlns="http://www.w3.org/2000/svg">
<path d="M0 2.34375C0 1.04919 1.04919 0 2.34375 0C8.18298 0 11.9659 2.61383 14.1119 4.80606C15.3246 6.04568 16.1559 7.28073 16.6832 8.20312H43.3864C43.824 7.26791 44.5171 6.0759 45.5809 4.88434C47.5703 2.65594 51.2801 0 57.6562 0C58.9508 0 60 1.04919 60 2.34375C60 3.63831 58.9508 4.6875 57.6562 4.6875C49.8596 4.6875 47.7205 9.76181 47.3438 10.8829V41.4954C49.0324 40.4572 51.2631 39.668 54.1406 39.668C55.4352 39.668 56.4844 40.7172 56.4844 42.0117C56.4844 43.3063 55.4352 44.3555 54.1406 44.3555C48.934 44.3555 47.1629 48.2478 47.1455 48.2867C46.7661 49.151 45.9151 49.688 45.0009 49.688C44.8412 49.688 44.6796 49.6715 44.518 49.6376C43.4331 49.4096 42.6562 48.4525 42.6562 47.3438V12.8906H37.0312V21.0938C37.0312 22.3883 35.9821 23.4375 34.6875 23.4375C33.3929 23.4375 32.3438 22.3883 32.3438 21.0938V12.8906H27.7734V32.1094C27.7734 33.4039 26.7242 34.4531 25.4297 34.4531C24.1351 34.4531 23.0859 33.4039 23.0859 32.1094V12.8906H17.5781V47.2266C17.5781 48.5211 16.5289 49.5703 15.2344 49.5703C14.2969 49.5703 13.4903 49.0187 13.1158 48.2236L12.9716 48.2867L12.9817 48.3092C12.9062 48.1476 11.082 44.3555 5.97656 44.3555C4.68201 44.3555 3.63281 43.3063 3.63281 42.0117C3.63281 40.7172 4.68201 39.668 5.97656 39.668C8.92181 39.668 11.1882 40.4947 12.8906 41.5686V11.0454C12.2049 9.64005 9.29489 4.6875 2.34375 4.6875C1.04919 4.6875 0 3.63831 0 2.34375ZM34.6875 28.125C33.3929 28.125 32.3438 29.1742 32.3438 30.4688V43.8281C32.3438 45.1227 33.3929 46.1719 34.6875 46.1719C35.9821 46.1719 37.0312 45.1227 37.0312 43.8281V30.4688C37.0312 29.1742 35.9821 28.125 34.6875 28.125ZM25.4297 39.1406C24.1351 39.1406 23.0859 40.1898 23.0859 41.4844V46.1719C23.0859 47.4664 24.1351 48.5156 25.4297 48.5156C26.7242 48.5156 27.7734 47.4664 27.7734 46.1719V41.4844C27.7734 40.1898 26.7242 39.1406 25.4297 39.1406ZM56.6354 52.9866C55.6306 51.7836 54.1232 51.0938 52.5 51.0938C50.8768 51.0938 49.3694 51.7836 48.3646 52.9866C47.13 54.4647 45.9036 55.3125 45 55.3125C44.0964 55.3125 42.87 54.4647 41.6354 52.9866C40.6306 51.7836 39.1232 51.0938 37.5 51.0938C35.8768 51.0938 34.3694 51.7836 33.3646 52.9866C32.13 54.4647 30.9036 55.3125 30 55.3125C29.0964 55.3125 27.87 54.4647 26.6354 52.9866C25.6306 51.7836 24.1232 51.0938 22.5 51.0938C20.8768 51.0938 19.3694 51.7836 18.3646 52.9866C17.13 54.4647 15.9036 55.3125 15 55.3125C14.0964 55.3125 12.87 54.4647 11.6354 52.9866C10.6306 51.7836 9.12323 51.0938 7.5 51.0938C5.87677 51.0938 4.36935 51.7836 3.36456 52.9866C2.12997 54.4647 0.903626 55.3125 0 55.3125V60C2.39822 60 4.7406 58.6514 6.96213 55.9914C7.07245 55.86 7.27341 55.7812 7.5 55.7812C7.72659 55.7812 7.92755 55.86 8.03787 55.9918C10.2594 58.6514 12.6018 60 15 60C17.3982 60 19.7406 58.6514 21.9621 55.9914C22.0724 55.86 22.2734 55.7812 22.5 55.7812C22.7266 55.7812 22.9276 55.86 23.0379 55.9918C25.2594 58.6514 27.6018 60 30 60C32.3982 60 34.7406 58.6514 36.9621 55.9914C37.0724 55.86 37.2734 55.7812 37.5 55.7812C37.7266 55.7812 37.9276 55.86 38.0379 55.9918C40.2594 58.6514 42.6018 60 45 60C47.3982 60 49.7406 58.6514 51.9621 55.9914C52.0724 55.86 52.2734 55.7812 52.5 55.7812C52.7266 55.7812 52.9276 55.86 53.0379 55.9918C55.2594 58.6514 57.6018 60 60 60V55.3125C59.0964 55.3125 57.87 54.4647 56.6354 52.9866Z" fill="#C3B7D2"/>
</svg>
