<svg width="60" height="51" viewBox="0 0 60 51" fill="none" xmlns="http://www.w3.org/2000/svg">
<path d="M33.9127 28.5021C33.7617 27.7379 33.4499 27.026 32.9592 26.3253C32.2513 25.3142 32.3268 23.7704 33.1279 22.8769C33.9289 21.9834 35.1519 22.0785 35.8599 23.0897C36.7594 24.3744 37.3679 25.7976 37.6686 27.32C37.9726 28.8586 37.0505 30.3547 35.7893 30.3547C34.9215 30.3547 34.132 29.6128 33.9127 28.5021ZM37.0352 14.9017C35.2683 13.6635 33.2655 12.2599 33.2661 11.3004C33.2663 11.0274 33.4979 8.55604 41.3525 4.88594H58.0645C59.1335 4.88594 60 3.79225 60 2.44297C60 1.09369 59.1335 0 58.0645 0C57.3993 0 3.00677 0 1.93548 0C0.866492 0 0 1.09369 0 2.44297C0 3.79225 0.866492 4.88594 1.93548 4.88594H20.2016C16.9887 7.38509 15.3197 10.1831 15.2429 13.2052C15.0394 21.2108 25.7396 23.6948 26.3874 29.9381C26.8216 34.1228 22.2982 39.9874 13.6508 46.452C12.731 47.1395 12.4271 48.638 12.9719 49.7989C13.5166 50.9597 14.7034 51.3436 15.6235 50.6559C26.1253 42.8051 30.9018 35.8206 30.2256 29.3037C29.709 24.3237 26.2998 21.348 23.2921 18.7226C21.216 16.9107 19.0695 15.0368 19.1121 13.362C19.1358 12.4263 19.9776 9.07105 29.7145 4.88579H32.652C30.4552 6.88887 29.3964 8.99669 29.3952 11.2967C29.3892 22.0212 51.518 18.0204 41.7615 47.6153C41.2282 49.2327 42.1787 50.9973 43.5477 50.9973C44.3061 50.9973 45.026 50.4311 45.3354 49.4923C48.6513 39.4338 48.9456 31.1686 46.2099 24.9265C43.9355 19.7372 40.1094 17.056 37.0352 14.9017ZM39.937 32.6433C38.8808 32.4507 37.8973 33.3752 37.744 34.7108C37.5087 36.7609 36.9654 38.9709 36.1294 41.2795C35.5412 42.9039 36.4908 44.7385 37.8885 44.7385C38.6227 44.7385 39.3249 44.2084 39.6501 43.3105C40.6392 40.5789 41.2869 37.9213 41.575 35.4111C41.7283 34.0761 40.995 32.8369 39.937 32.6433ZM35.1859 46.1584C33.6271 46.5834 33.1293 48.9342 34.1962 50.2809C35.4773 51.8978 37.6628 50.5913 37.4902 48.3143C37.3828 46.898 36.3247 45.8774 35.1859 46.1584ZM11.7339 21.834C11.7339 20.4848 10.8674 19.3911 9.79839 19.3911H3.62903C2.56004 19.3911 1.69355 20.4848 1.69355 21.834C1.69355 23.1833 2.56004 24.277 3.62903 24.277H9.79839C10.8674 24.277 11.7339 23.1833 11.7339 21.834ZM18.9919 32.3693C18.9919 31.0201 18.1254 29.9264 17.0565 29.9264H7.37903C6.31004 29.9264 5.44355 31.0201 5.44355 32.3693C5.44355 33.7186 6.31004 34.8123 7.37903 34.8123H17.0565C18.1254 34.8123 18.9919 33.7186 18.9919 32.3693ZM46.0887 9.00845C45.0197 9.00845 44.1532 10.1021 44.1532 11.4514C44.1532 12.8007 45.0197 13.8944 46.0887 13.8944H54.1935C55.2625 13.8944 56.129 12.8007 56.129 11.4514C56.129 10.1021 55.2625 9.00845 54.1935 9.00845H46.0887ZM58.0645 21.6813H53.9516C52.8826 21.6813 52.0161 22.775 52.0161 24.1243C52.0161 25.4736 52.8826 26.5673 53.9516 26.5673H58.0645C59.1335 26.5673 60 25.4736 60 24.1243C60 22.775 59.1335 21.6813 58.0645 21.6813ZM54.4355 34.5069H52.9839C51.9149 34.5069 51.0484 35.6006 51.0484 36.9499C51.0484 38.2992 51.9149 39.3929 52.9839 39.3929H54.4355C55.5045 39.3929 56.371 38.2992 56.371 36.9499C56.371 35.6006 55.5045 34.5069 54.4355 34.5069Z" fill="#C3B7D2"/>
</svg>
