<svg width="60" height="60" viewBox="0 0 60 60" fill="none" xmlns="http://www.w3.org/2000/svg">
<path d="M55.5941 21.0986C55.6276 20.7938 55.6445 20.4882 55.6445 20.1836C55.6445 15.5391 51.8665 11.7598 47.2206 11.7548C45.8363 8.45388 43.5698 5.62408 40.6261 3.53294C37.372 1.22159 33.5357 0 29.5314 0C25.0908 0 20.7614 1.55277 17.3406 4.37237C14.2187 6.94552 11.9807 10.4572 10.9682 14.3413C4.88965 14.5196 0 19.5173 0 25.635C0 31.8652 5.07141 36.9338 11.3051 36.9338H24.7264C25.3736 36.9338 25.8983 36.409 25.8983 35.7619C25.8983 35.1148 25.3736 34.59 24.7264 34.59H11.3051C6.36375 34.59 2.34375 30.5728 2.34375 25.635C2.34375 20.6972 6.36375 16.6799 11.3051 16.6799C13.5035 16.6799 15.6178 17.4832 17.2586 18.9417C17.4817 19.1402 17.7596 19.2377 18.0367 19.2377C18.3598 19.2377 18.6814 19.105 18.913 18.8444C19.3431 18.3607 19.2995 17.62 18.8157 17.1899C17.261 15.8078 15.3695 14.8922 13.3493 14.5219C15.3981 7.39424 22.0091 2.34369 29.5314 2.34369C36.5624 2.34369 42.915 6.77594 45.3391 13.3729C45.5244 13.8771 46.0288 14.1896 46.5623 14.1342C46.7858 14.1105 47.0043 14.0986 47.2113 14.0986C50.569 14.0986 53.3007 16.8283 53.3007 20.1836C53.3007 20.6298 53.2504 21.0803 53.151 21.5225C53.0254 22.0818 53.3228 22.6501 53.854 22.8655C56.1639 23.8019 57.6562 26.0157 57.6562 28.505C57.6562 31.8603 54.9245 34.59 51.5668 34.59H35.2731C34.626 34.59 34.1012 35.1148 34.1012 35.7619C34.1012 36.409 34.626 36.9338 35.2731 36.9338H51.5668C56.217 36.9338 60 33.1527 60 28.505C60 25.3762 58.2984 22.562 55.5941 21.0986Z" fill="#C3B7D2"/>
<path d="M8.98047 48.7697C8.33336 48.7697 7.80859 48.2449 7.80859 47.5978V40.9571C7.80859 40.3099 8.33336 39.7852 8.98047 39.7852C9.62758 39.7852 10.1523 40.3099 10.1523 40.9571V47.5978C10.1523 48.245 9.62758 48.7697 8.98047 48.7697Z" fill="#C3B7D2"/>
<path d="M17.418 51.2455C16.7709 51.2455 16.2461 50.7208 16.2461 50.0736V40.9571C16.2461 40.3099 16.7709 39.7852 17.418 39.7852C18.0651 39.7852 18.5898 40.3099 18.5898 40.9571V50.0736C18.5898 50.7208 18.0651 51.2455 17.418 51.2455Z" fill="#C3B7D2"/>
<path d="M25.8555 44.5607C25.2084 44.5607 24.6836 44.0359 24.6836 43.3888V40.9571C24.6836 40.3099 25.2084 39.7852 25.8555 39.7852C26.5026 39.7852 27.0273 40.3099 27.0273 40.9571V43.3888C27.0273 44.0359 26.5026 44.5607 25.8555 44.5607Z" fill="#C3B7D2"/>
<path d="M34.293 50.1959C33.6459 50.1959 33.1211 49.6711 33.1211 49.024V40.9571C33.1211 40.3099 33.6459 39.7852 34.293 39.7852C34.9401 39.7852 35.4648 40.3099 35.4648 40.9571V49.024C35.4648 49.6711 34.9401 50.1959 34.293 50.1959Z" fill="#C3B7D2"/>
<path d="M42.7305 48.3398C42.0834 48.3398 41.5586 47.815 41.5586 47.1679V40.9571C41.5586 40.3099 42.0834 39.7852 42.7305 39.7852C43.3776 39.7852 43.9023 40.3099 43.9023 40.9571V47.1679C43.9023 47.8152 43.3776 48.3398 42.7305 48.3398Z" fill="#C3B7D2"/>
<path d="M42.7305 60.0001C42.0834 60.0001 41.5586 59.4753 41.5586 58.8282V52.2852C41.5586 51.6381 42.0834 51.1133 42.7305 51.1133C43.3776 51.1133 43.9023 51.6381 43.9023 52.2852V58.8282C43.9023 59.4754 43.3776 60.0001 42.7305 60.0001Z" fill="#C3B7D2"/>
<path d="M17.418 60.0006C16.7709 60.0006 16.2461 59.4758 16.2461 58.8287V55.1914C16.2461 54.5443 16.7709 54.0195 17.418 54.0195C18.0651 54.0195 18.5898 54.5443 18.5898 55.1914V58.8287C18.5898 59.4759 18.0651 60.0006 17.418 60.0006Z" fill="#C3B7D2"/>
<path d="M25.8555 53.6742C25.2084 53.6742 24.6836 53.1494 24.6836 52.5023V48.5078C24.6836 47.8607 25.2084 47.3359 25.8555 47.3359C26.5026 47.3359 27.0273 47.8607 27.0273 48.5078V52.5023C27.0273 53.1494 26.5026 53.6742 25.8555 53.6742Z" fill="#C3B7D2"/>
<path d="M34.293 57.2266C33.6459 57.2266 33.1211 56.7018 33.1211 56.0547V54.1407C33.1211 53.4935 33.6459 52.9688 34.293 52.9688C34.9401 52.9688 35.4648 53.4935 35.4648 54.1407V56.0547C35.4648 56.7018 34.9401 57.2266 34.293 57.2266Z" fill="#C3B7D2"/>
<path d="M51.168 48.7697C50.5209 48.7697 49.9961 48.2449 49.9961 47.5978V40.9571C49.9961 40.3099 50.5209 39.7852 51.168 39.7852C51.8151 39.7852 52.3398 40.3099 52.3398 40.9571V47.5978C52.3398 48.245 51.8151 48.7697 51.168 48.7697Z" fill="#C3B7D2"/>
<path d="M30 36.9337C29.6918 36.9337 29.3894 36.8083 29.1715 36.5903C28.9535 36.3723 28.8281 36.07 28.8281 35.7617C28.8281 35.4524 28.9534 35.1512 29.1715 34.9332C29.3894 34.7154 29.6918 34.5898 30 34.5898C30.3082 34.5898 30.6105 34.7152 30.8284 34.9332C31.0464 35.1512 31.1719 35.4535 31.1719 35.7617C31.1719 36.07 31.0465 36.3711 30.8284 36.5903C30.6094 36.8083 30.3082 36.9337 30 36.9337Z" fill="#C3B7D2"/>
</svg>
