<svg width="60" height="22" viewBox="0 0 60 22" fill="none" xmlns="http://www.w3.org/2000/svg">
<path d="M59.8765 5.66446C59.6712 5.32412 59.2581 5.16389 58.8727 5.27602C58.6712 5.33464 54.8608 6.4685 52.8337 8.92466L51.7533 4.95163C51.6583 4.60227 51.3534 4.34782 50.9886 4.31326C50.6229 4.27811 50.2753 4.47095 50.1145 4.79603L48.8967 7.25763L46.3388 3.65292C46.1369 3.36841 45.7829 3.23026 45.4379 3.30159C45.0934 3.37304 44.8253 3.64032 44.7567 3.98089L43.9071 8.19288L41.9926 0.656179C41.8955 0.274448 41.5499 0.00497106 41.1512 0C41.1473 0 41.1435 0 41.1398 0C40.7455 0 40.3987 0.259419 40.293 0.635023L38.528 6.90306L36.7046 2.87073C36.5548 2.53963 36.211 2.33443 35.8452 2.35871C35.4784 2.38206 35.1651 2.62819 35.0599 2.97558L33.7287 7.36722L33.0966 4.76863C33.0079 4.40401 32.6916 4.13696 32.3129 4.10667C31.9346 4.0765 31.5784 4.28979 31.4315 4.63557L28.6441 11.1929L24.5691 1.69848C24.3981 1.3001 23.955 1.08739 23.532 1.1993C23.1085 1.31132 22.8334 1.71432 22.8874 2.14357C23.1073 3.89153 23.3131 8.28687 22.224 11.013L20.46 6.19613C20.3304 5.84238 19.9808 5.61163 19.6034 5.62423C19.2223 5.63706 18.8932 5.89082 18.7883 6.25243L17.3967 11.054C16.4857 8.98223 15.3916 5.56145 16.2991 2.4705C16.4169 2.06935 16.2282 1.64253 15.8501 1.45467C15.472 1.26704 15.0119 1.37166 14.7554 1.70392C14.6298 1.8668 12.4891 4.6662 11.4437 7.6167L10.7497 5.80134C10.6156 5.45082 10.2705 5.22435 9.88896 5.24111C9.50939 5.25741 9.18349 5.51244 9.08095 5.87324L7.99509 9.69344C7.14677 7.23647 5.31407 4.02297 1.35593 1.5008C1.03882 1.29872 0.626554 1.31895 0.331006 1.5512C0.0359273 1.78334 -0.0761042 2.17559 0.0530368 2.52564C0.0828025 2.60657 3.00922 10.7243 0.726281 20.1617C0.621398 20.5958 0.721945 21.0456 1.00214 21.3958C1.28187 21.7454 1.70128 21.9458 2.15293 21.9458H31.758C32.2435 21.9458 32.6369 21.5576 32.6369 21.0788C32.6369 20.5999 32.2435 20.2117 31.758 20.2117H2.51902C4.04516 13.5768 3.185 7.69277 2.43382 4.48528C4.09285 5.95717 5.33071 7.71439 6.12735 9.7324C6.94919 11.8147 6.9677 13.4126 6.96782 13.426C6.96782 13.8592 7.29196 14.2259 7.72708 14.285C8.16161 14.3442 8.57447 14.0772 8.69306 13.6601L10.0497 8.88663L10.9643 11.2789C11.1214 11.6896 11.5649 11.9199 11.9969 11.8148C12.429 11.7098 12.7134 11.3029 12.6592 10.8672C12.4798 9.42593 13.2905 7.44525 14.2208 5.74955C14.4767 9.99159 16.7508 13.6829 16.8749 13.881C17.0577 14.1733 17.3982 14.3318 17.743 14.2845C18.0879 14.2374 18.3722 13.9941 18.4678 13.6639L19.73 9.30894L21.2 13.3229C21.3053 13.6099 21.5556 13.8214 21.8595 13.8794C22.1639 13.9377 22.4758 13.8338 22.6819 13.6061C24.1697 11.9645 24.6673 9.12605 24.7876 6.6574L27.8378 13.7639C27.9755 14.0846 28.2941 14.2929 28.6471 14.2929C28.6476 14.2929 28.6482 14.2929 28.6486 14.2929C29.0021 14.2922 29.3209 14.0828 29.4576 13.7612L32.0132 7.74941L32.7802 10.903C32.8729 11.2842 33.2133 11.5567 33.6107 11.5674C34.0082 11.5786 34.3632 11.3246 34.477 10.949L36.0642 5.71267L37.9174 9.8109C38.0685 10.1449 38.4179 10.349 38.7853 10.3223C39.155 10.2952 39.4676 10.0421 39.5669 9.68974L41.0953 4.26181L43.152 12.3582C43.252 12.7516 43.6136 13.0274 44.0262 13.0141C44.4373 13.0042 44.7863 12.7143 44.8666 12.3165L46.0781 6.31058L48.3113 9.45761C48.4897 9.70917 48.7897 9.84928 49.1001 9.82477C49.4104 9.80072 49.6847 9.61656 49.8212 9.34061L50.6629 7.63889L51.7183 11.5197C51.8228 11.9039 52.1771 12.1675 52.5819 12.162C52.985 12.1554 53.3319 11.8791 53.4233 11.4917C53.7851 9.95876 55.4162 8.74386 56.9524 7.93901C55.3989 11.6545 55.2605 17.322 55.3057 20.2117H44.6043C44.1188 20.2117 43.7254 20.5999 43.7254 21.0788C43.7254 21.5576 44.1188 21.9458 44.6043 21.9458H55.6014C55.9992 21.9458 56.3716 21.7915 56.6503 21.5113C56.9285 21.231 57.0772 20.8605 57.0689 20.468C56.9583 15.2093 57.6025 8.83623 59.7424 6.71994C60.027 6.4396 60.0819 6.00515 59.8765 5.66446Z" fill="#C3B7D2"/>
<path d="M39.6678 20.2227H36.5586C36.0731 20.2227 35.6797 20.6109 35.6797 21.0897C35.6797 21.5685 36.0731 21.9567 36.5586 21.9567H39.6678C40.1533 21.9567 40.5467 21.5685 40.5467 21.0897C40.5469 20.6109 40.1533 20.2227 39.6678 20.2227Z" fill="#C3B7D2"/>
<path d="M11.8968 15.7586C12.4525 15.7586 12.903 15.3142 12.903 14.766C12.903 14.2178 12.4525 13.7734 11.8968 13.7734C11.3411 13.7734 10.8906 14.2178 10.8906 14.766C10.8906 15.3142 11.3411 15.7586 11.8968 15.7586Z" fill="#C3B7D2"/>
<path d="M14.7093 18.536C15.265 18.536 15.7155 18.0916 15.7155 17.5434C15.7155 16.9952 15.265 16.5508 14.7093 16.5508C14.1536 16.5508 13.7031 16.9952 13.7031 17.5434C13.7031 18.0916 14.1536 18.536 14.7093 18.536Z" fill="#C3B7D2"/>
<path d="M48.2874 14.3172C48.8431 14.3172 49.2936 13.8728 49.2936 13.3246C49.2936 12.7764 48.8431 12.332 48.2874 12.332C47.7317 12.332 47.2812 12.7764 47.2812 13.3246C47.2812 13.8728 47.7317 14.3172 48.2874 14.3172Z" fill="#C3B7D2"/>
</svg>
