<svg width="60" height="60" viewBox="0 0 60 60" fill="none" xmlns="http://www.w3.org/2000/svg">
<path d="M58.2422 56.4844H56.3882C56.5236 50.9508 57.3947 45.4659 58.987 40.1583L59.8088 37.4192C60.0239 36.7022 59.7614 35.9277 59.1546 35.4893C58.5482 35.0509 57.7303 35.0448 57.1171 35.474L55.9587 36.2848C53.0748 38.3035 50.6645 40.8468 48.82 43.7363C49.9235 35.9187 52.4059 28.3077 56.1572 21.3411C56.5485 20.6145 56.3816 19.7137 55.7561 19.1754C55.1306 18.6372 54.215 18.6064 53.5548 19.1015C47.5462 23.6079 42.5948 29.5408 39.2359 36.2584C38.9707 36.7889 38.7165 37.3249 38.4711 37.8651C40.0132 25.6026 43.6275 13.5898 49.1504 2.54384C49.5361 1.77275 49.3054 0.835718 48.606 0.331695C47.9065 -0.172328 46.9447 -0.0946327 46.3352 0.514976L46.0998 0.750406C39.3926 7.45763 33.9889 15.1702 29.9998 23.7212C26.0095 15.1703 20.6057 7.45575 13.9003 0.750523L13.6648 0.514976C13.0552 -0.0947498 12.0933 -0.172211 11.394 0.331929C10.6946 0.835952 10.464 1.77287 10.8496 2.54396C16.3726 13.59 19.9869 25.6028 21.529 37.8653C21.2836 37.3252 21.0293 36.789 20.7641 36.2585C17.4053 29.5409 12.4539 23.608 6.44531 19.1016C5.7852 18.6065 4.86949 18.6372 4.24395 19.1755C3.61852 19.7138 3.45164 20.6147 3.84293 21.3412C7.59422 28.3078 10.0765 35.9188 11.1802 43.7363C9.33562 40.8468 6.92531 38.3035 4.04145 36.2848L2.88305 35.474C2.26992 35.0448 1.45207 35.0509 0.845391 35.4893C0.238711 35.9277 -0.0237891 36.7022 0.19125 37.4192L1.01297 40.1583C2.60543 45.4659 3.47637 50.9509 3.61184 56.4844H1.75781C0.787031 56.4844 0 57.2714 0 58.2422C0 59.213 0.787031 60 1.75781 60H58.2422C59.213 60 60 59.213 60 58.2422C60 57.2714 59.213 56.4844 58.2422 56.4844ZM54.8974 41.7479C53.6646 46.5675 52.9845 51.5074 52.8691 56.4844H48.2146C48.5856 50.9039 50.9818 45.6676 54.8974 41.7479ZM49.4095 27.6085C46.2793 35.6988 44.6484 44.3518 44.6484 53.0447V56.4844H37.6433C38.0118 45.7509 42.2579 35.4774 49.4095 27.6085ZM41.3886 11.5241C39.6657 16.0819 38.2371 20.7517 37.1181 25.4925C36.1871 29.436 35.4725 33.4313 34.9713 37.4533C34.1413 34.2973 33.1166 31.1844 31.9 28.123C34.386 22.1755 37.5605 16.6223 41.3886 11.5241ZM18.6011 11.4966C28.3586 24.4385 33.7718 40.0411 34.087 56.4844H25.8984V51.3991C25.8984 42.6874 24.8836 33.9712 22.882 25.4924C21.7605 20.7419 20.3288 16.0633 18.6011 11.4966ZM10.5905 27.6085C17.7421 35.4774 21.9882 45.7509 22.3567 56.4844H15.3516V53.0447C15.3516 44.352 13.7207 35.699 10.5905 27.6085ZM5.10258 41.7481C9.01828 45.6677 11.4144 50.9039 11.7854 56.4844H7.13086C7.01555 51.5074 6.33539 46.5676 5.10258 41.7481Z" fill="#C3B7D2"/>
</svg>
