<svg width="60" height="60" viewBox="0 0 60 60" fill="none" xmlns="http://www.w3.org/2000/svg">
<path d="M49.6875 39.415H13.125C5.88785 39.415 0 33.5386 0 26.3156C0 20.0139 4.44645 14.7914 10.322 13.5162C10.5966 6.01681 16.7951 0 24.375 0C30.0633 0 34.8649 3.33846 37.1039 8.07001C44.3977 5.90581 51.6754 11.455 51.5612 19.0006C56.3562 19.8826 60 24.0858 60 29.1226C60 34.7978 55.3738 39.415 49.6875 39.415ZM24.375 3.74267C18.3472 3.74267 13.567 8.90966 14.1042 14.9572C14.1961 15.9924 13.4238 16.9069 12.3826 16.988C7.54184 17.3655 3.75 21.4627 3.75 26.3156C3.75 31.4749 7.95563 35.6723 13.125 35.6723H49.6875C53.306 35.6723 56.25 32.7341 56.25 29.1226C56.25 25.7237 53.5846 22.573 49.4995 22.573C48.3164 22.573 47.426 21.4896 47.662 20.3292C48.9141 14.1777 42.4567 9.31983 36.8958 12.1676C35.8561 12.7 34.5846 12.1629 34.2453 11.0453C32.94 6.74569 28.8811 3.74267 24.375 3.74267Z" fill="#C3B7D2"/>
<path d="M36.5635 53.4515C35.1856 53.4515 34.2605 51.995 34.8878 50.7429L38.6378 43.2575C39.101 42.3331 40.2274 41.9585 41.1534 42.4206C42.0796 42.8828 42.455 44.0069 41.992 44.9312L38.242 52.4165C37.9135 53.0724 37.2511 53.4515 36.5635 53.4515Z" fill="#C3B7D2"/>
<path d="M53.4346 53.4515C52.0567 53.4515 51.1316 51.995 51.7589 50.7429L55.5089 43.2575C55.9721 42.3331 57.0983 41.9585 58.0245 42.4206C58.9507 42.8828 59.3261 44.0069 58.8631 44.9312L55.1131 52.4165C54.7846 53.0724 54.1222 53.4515 53.4346 53.4515Z" fill="#C3B7D2"/>
<path d="M19.6885 53.4515C18.3106 53.4515 17.3855 51.995 18.0128 50.7429L21.7628 43.2575C22.2258 42.3331 23.3524 41.9585 24.2784 42.4206C25.2046 42.8828 25.58 44.0069 25.117 44.9312L21.367 52.4165C21.0385 53.0724 20.3761 53.4515 19.6885 53.4515Z" fill="#C3B7D2"/>
<path d="M2.80958 53.4515C1.43169 53.4515 0.506616 51.995 1.13392 50.7429L4.88392 43.2575C5.34693 42.3331 6.47345 41.9585 7.39947 42.4206C8.32572 42.8828 8.70107 44.0069 8.23806 44.9312L4.48806 52.4165C4.15958 53.0724 3.49724 53.4515 2.80958 53.4515Z" fill="#C3B7D2"/>
<path d="M25.3096 59.9984C23.9317 59.9984 23.0066 58.5419 23.6339 57.2897L27.3839 49.8044C27.847 48.88 28.9733 48.5054 29.8995 48.9675C30.8257 49.4297 31.2011 50.5538 30.7381 51.4781L26.9881 58.9634C26.6596 59.6193 25.9972 59.9984 25.3096 59.9984Z" fill="#C3B7D2"/>
<path d="M42.1885 59.9984C40.8106 59.9984 39.8855 58.5419 40.5128 57.2897L44.2628 49.8044C44.726 48.88 45.8522 48.5054 46.7784 48.9675C47.7046 49.4297 48.08 50.5538 47.617 51.4781L43.867 58.9634C43.5385 59.6193 42.8761 59.9984 42.1885 59.9984Z" fill="#C3B7D2"/>
<path d="M8.43849 59.9984C7.0606 59.9984 6.13552 58.5419 6.76283 57.2897L10.5128 49.8044C10.976 48.88 12.1022 48.5054 13.0284 48.9675C13.9546 49.4297 14.33 50.5538 13.867 51.4781L10.117 58.9634C9.78849 59.6193 9.12615 59.9984 8.43849 59.9984Z" fill="#C3B7D2"/>
</svg>
