<svg width="60" height="50" viewBox="0 0 60 50" fill="none" xmlns="http://www.w3.org/2000/svg">
<path d="M51.6108 16.5834C51.0387 7.34367 43.251 0 33.7605 0C30.3428 0 27.02 0.956525 24.1514 2.76627C21.6663 4.33407 19.6177 6.47447 18.177 8.99798C16.743 8.50715 15.2437 8.25896 13.7064 8.25896C6.14859 8.25884 0 14.335 0 21.8035C0 29.2727 6.14859 35.3494 13.7063 35.3494H21.3165L20.9466 35.8516C20.687 36.2038 20.6495 36.6702 20.8495 37.0585C21.0495 37.4468 21.4529 37.6914 21.8939 37.6914H28.4939L24.4861 48.4413C24.2839 48.9837 24.5174 49.5904 25.033 49.863C25.2081 49.9555 25.3976 50 25.5851 50C25.9494 50 26.3058 49.832 26.5331 49.5234L36.9765 35.3493H42.8906C43.5377 35.3493 44.0625 34.8308 44.0625 34.1911C44.0625 33.5515 43.5377 33.0329 42.8906 33.0329H38.6831L39.0533 32.5304C39.3129 32.1782 39.3504 31.7118 39.1504 31.3235C38.9504 30.9352 38.547 30.6906 38.106 30.6906H31.4813L35.513 19.9428C35.7164 19.4005 35.4838 18.7929 34.968 18.5196C34.4524 18.2462 33.8115 18.3909 33.4669 18.8586L23.0232 33.0331H13.7063C-1.22695 32.7659 -1.22449 10.8391 13.7067 10.5752C18.4302 10.5196 22.8846 13.6569 24.4147 18.0605C24.5848 18.5359 25.037 18.8331 25.5197 18.8331C25.6492 18.8331 25.781 18.8117 25.9103 18.7665C26.5205 18.5534 26.8403 17.8916 26.6246 17.2886C25.507 14.1636 23.2453 11.5445 20.3275 9.94686C23.108 5.2123 28.1549 2.31632 33.7605 2.31632C41.9617 2.31632 48.6986 8.6276 49.2618 16.5937C47.8536 16.7706 46.504 17.2542 45.3046 18.0206C44.7611 18.368 44.6053 19.085 44.9568 19.6221C45.1811 19.9648 45.5576 20.1515 45.942 20.1515C46.1598 20.1515 46.3805 20.0915 46.5771 19.9658C56.321 14.4633 62.8107 29.906 52.0152 32.8693C51.383 33.006 50.9824 33.6233 51.1207 34.2482C51.2591 34.8731 51.8839 35.2685 52.5159 35.1321C54.6059 34.6804 56.5048 33.524 57.8629 31.8759C59.241 30.2036 60 28.0928 60 25.9324C60 21.121 56.3297 17.141 51.6108 16.5834ZM30.3645 27.0043L28.6982 31.4463C28.5647 31.8017 28.6159 32.1991 28.8349 32.5104C29.0541 32.8215 29.4134 33.007 29.7969 33.007H35.803L29.5988 41.4278L31.2743 36.9338C31.4067 36.5784 31.3552 36.1815 31.1359 35.8709C30.9168 35.5603 30.5577 35.3752 30.1746 35.3752H24.1969L30.3645 27.0043Z" fill="#C3B7D2"/>
<path d="M47.5781 35.3476C48.2253 35.3476 48.75 34.829 48.75 34.1894C48.75 33.5498 48.2253 33.0312 47.5781 33.0312C46.9309 33.0312 46.4062 33.5498 46.4062 34.1894C46.4062 34.829 46.9309 35.3476 47.5781 35.3476Z" fill="#C3B7D2"/>
<path d="M13.4279 38.2261C13.216 37.8774 12.8348 37.6641 12.4232 37.6641C12.0117 37.6641 11.6303 37.8774 11.4186 38.2261L9.37002 41.5979C8.70064 42.6996 8.68342 44.025 9.32385 45.1434C9.96428 46.2617 11.1229 46.9293 12.4231 46.9293C13.7233 46.9293 14.8819 46.2617 15.5224 45.1434C16.1629 44.025 16.1456 42.6995 15.4762 41.5979L13.4279 38.2261ZM13.4828 44.0026C13.3777 44.1861 13.064 44.6131 12.4232 44.6131C11.7824 44.6131 11.4687 44.1861 11.3636 44.0026C11.2585 43.819 11.0495 43.3333 11.3794 42.7903L12.4232 41.0723L13.467 42.7904C13.7969 43.3333 13.5879 43.8189 13.4828 44.0026Z" fill="#C3B7D2"/>
<path d="M48.584 38.2261C48.3721 37.8774 47.9908 37.6641 47.5794 37.6641C47.1679 37.6641 46.7865 37.8774 46.5747 38.2261L44.5263 41.5979C43.8569 42.6996 43.8397 44.025 44.4801 45.1434C45.1205 46.2617 46.2792 46.9293 47.5794 46.9293C48.8796 46.9293 50.0382 46.2617 50.6786 45.1434C51.3192 44.025 51.3018 42.6995 50.6325 41.5979L48.584 38.2261ZM48.639 44.0026C48.5339 44.1861 48.2201 44.6131 47.5794 44.6131C46.9386 44.6131 46.6249 44.1861 46.5198 44.0026C46.4145 43.819 46.2057 43.3333 46.5356 42.7903L47.5794 41.0723L48.6232 42.7904C48.953 43.3333 48.7442 43.8189 48.639 44.0026Z" fill="#C3B7D2"/>
</svg>
