<svg width="60" height="60" viewBox="0 0 60 60" fill="none" xmlns="http://www.w3.org/2000/svg">
<path d="M36.4465 6.39409L38.8465 2.94444C39.3152 2.27084 39.3152 1.1788 38.8465 0.5052C38.3779 -0.1684 37.6181 -0.1684 37.1495 0.5052L34.7494 3.95484C34.2808 4.62844 34.2808 5.72049 34.7494 6.39409C35.2179 7.06757 35.9778 7.06769 36.4465 6.39409Z" fill="#C3B7D2"/>
<path d="M30.0446 16.7417L32.4447 13.2921C32.9133 12.6185 32.9133 11.5265 32.4447 10.8529C31.9761 10.1793 31.2162 10.1793 30.7476 10.8529L28.3476 14.3025C27.8789 14.9761 27.8789 16.0681 28.3476 16.7417C28.8161 17.4152 29.576 17.4153 30.0446 16.7417Z" fill="#C3B7D2"/>
<path d="M29.2478 6.39409L31.6478 2.94444C32.1164 2.27084 32.1164 1.1788 31.6478 0.5052C31.1792 -0.1684 30.4194 -0.1684 29.9507 0.5052L27.5507 3.95484C27.0821 4.62844 27.0821 5.72049 27.5507 6.39409C28.0192 7.06757 28.7791 7.06769 29.2478 6.39409Z" fill="#C3B7D2"/>
<path d="M22.8454 16.7417L25.2454 13.2921C25.7141 12.6185 25.7141 11.5265 25.2454 10.8529C24.7769 10.1793 24.017 10.1793 23.5484 10.8529L21.1484 14.3025C20.6797 14.9761 20.6797 16.0681 21.1484 16.7417C21.6168 17.4152 22.3768 17.4153 22.8454 16.7417Z" fill="#C3B7D2"/>
<path d="M22.0446 6.39409L24.4447 2.94444C24.9133 2.27084 24.9133 1.1788 24.4447 0.5052C23.9761 -0.1684 23.2162 -0.1684 22.7476 0.5052L20.3476 3.95484C19.8789 4.62844 19.8789 5.72049 20.3476 6.39409C20.8161 7.06757 21.576 7.06769 22.0446 6.39409Z" fill="#C3B7D2"/>
<path d="M15.6462 16.7417L18.0462 13.2921C18.5149 12.6185 18.5149 11.5265 18.0462 10.8529C17.5777 10.1793 16.8178 10.1793 16.3492 10.8529L13.9491 14.3025C13.4805 14.9761 13.4805 16.0681 13.9491 16.7417C14.4176 17.4152 15.1775 17.4153 15.6462 16.7417Z" fill="#C3B7D2"/>
<path d="M43.6462 6.39409L46.0462 2.94444C46.5149 2.27084 46.5149 1.1788 46.0462 0.5052C45.5776 -0.1684 44.8178 -0.1684 44.3492 0.5052L41.9491 3.95484C41.4805 4.62844 41.4805 5.72049 41.9491 6.39409C42.4176 7.06757 43.1775 7.06769 43.6462 6.39409Z" fill="#C3B7D2"/>
<path d="M37.2478 16.7417L39.6478 13.2921C40.1164 12.6185 40.1164 11.5265 39.6478 10.8529C39.1792 10.1793 38.4194 10.1793 37.9507 10.8529L35.5507 14.3025C35.0821 14.9761 35.0821 16.0681 35.5507 16.7417C36.0192 17.4152 36.7791 17.4153 37.2478 16.7417Z" fill="#C3B7D2"/>
<path d="M50.8454 6.39409L53.2454 2.94444C53.7141 2.27084 53.7141 1.1788 53.2454 0.5052C52.7769 -0.1684 52.017 -0.1684 51.5484 0.5052L49.1484 3.95484C48.6797 4.62844 48.6797 5.72049 49.1484 6.39409C49.6168 7.06757 50.3768 7.06769 50.8454 6.39409Z" fill="#C3B7D2"/>
<path d="M44.447 16.7417L46.847 13.2921C47.3156 12.6185 47.3156 11.5265 46.847 10.8529C46.3784 10.1793 45.6186 10.1793 45.1499 10.8529L42.7499 14.3025C42.2813 14.9761 42.2813 16.0681 42.7499 16.7417C43.2184 17.4152 43.9783 17.4153 44.447 16.7417Z" fill="#C3B7D2"/>
<path d="M41.1056 22.582C41.1004 22.6175 41.095 22.6545 41.0898 22.6908C41.0951 22.6545 41.1005 22.6173 41.1056 22.582Z" fill="#C3B7D2"/>
<path d="M41.0242 23.1523C41.0176 23.1977 41.0108 23.2436 41.0039 23.2899C41.0109 23.2434 41.0176 23.1977 41.0242 23.1523Z" fill="#C3B7D2"/>
<path d="M41.0626 22.8594C41.0562 22.9036 41.0496 22.9491 41.043 22.9945C41.0496 22.9489 41.0562 22.9038 41.0626 22.8594Z" fill="#C3B7D2"/>
<path d="M40.9746 23.4844C40.9688 23.5235 40.963 23.5624 40.957 23.602C40.963 23.5622 40.9686 23.5235 40.9746 23.4844Z" fill="#C3B7D2"/>
<path d="M40.9189 23.8516C40.9147 23.8796 40.9106 23.907 40.9062 23.9352C40.9106 23.907 40.9147 23.8796 40.9189 23.8516Z" fill="#C3B7D2"/>
<path d="M31.2619 36.2472L21.378 36.7817C20.981 36.8031 20.6379 37.1873 20.5261 37.7353L19.1545 44.4592C19.0727 44.8607 19.1271 45.294 19.3016 45.6291C19.4759 45.9638 19.7501 46.1609 20.0412 46.1609H29.801C30.2103 46.1609 30.5709 45.7741 30.687 45.21L32.1827 37.9516C32.2673 37.5414 32.2091 37.0978 32.0265 36.7598C31.8441 36.4221 31.5606 36.2299 31.2619 36.2472ZM29.1109 43.5046H22.9822H21.2751L22.1123 39.4002L30.0451 38.9712L29.1109 43.5046Z" fill="#C3B7D2"/>
<path d="M59.2051 52.327C58.9364 52.2727 58.6708 52.2078 58.408 52.1338L58.7399 50.7605C58.9073 50.0676 58.6521 49.3107 58.1701 49.0702C57.6884 48.8299 57.1615 49.1961 56.9941 49.8891L56.6151 51.4578C53.2432 49.849 50.4069 46.4783 48.1606 41.3953C47.1926 39.205 46.5063 37.0564 46.0437 35.3575C44.2623 27.3616 43.2349 20.5291 43.2144 20.3916C43.2082 20.3502 43.2007 20.3098 43.1921 20.2703C43.1908 20.2644 43.1891 20.2586 43.1878 20.2529C43.1785 20.2125 43.168 20.1732 43.1562 20.1348C43.1526 20.1231 43.1487 20.1111 43.1449 20.0994C43.1331 20.0639 43.1204 20.0297 43.1068 19.9962C43.1034 19.9878 43.1002 19.9791 43.0967 19.9707C43.0791 19.9297 43.0602 19.8907 43.0398 19.8533C43.0352 19.8447 43.0301 19.8368 43.0254 19.8282C43.0085 19.7986 42.9907 19.77 42.9722 19.7427C42.9682 19.737 42.9648 19.7303 42.9608 19.7244C42.9579 19.7203 42.9545 19.7169 42.9516 19.7127C42.9282 19.6802 42.9041 19.6491 42.8782 19.6205C42.8735 19.6152 42.8684 19.6106 42.8636 19.6053C42.8419 19.5821 42.8195 19.5603 42.7965 19.5396C42.7871 19.5313 42.7775 19.5233 42.768 19.5155C42.7459 19.4973 42.7232 19.4804 42.7 19.4649C42.6931 19.4605 42.6865 19.4552 42.6798 19.451C42.6501 19.4324 42.6199 19.4163 42.5888 19.4023C42.5805 19.3985 42.5722 19.3956 42.5639 19.392C42.5396 19.382 42.5152 19.3734 42.4901 19.3664C42.4807 19.3636 42.4711 19.3609 42.4616 19.3586C42.4311 19.3514 42.4002 19.3459 42.3689 19.3429C42.3667 19.3427 42.3646 19.3421 42.3622 19.3419C42.3345 19.3397 42.3064 19.3393 42.2781 19.3406C42.2747 19.3408 42.2714 19.3423 42.2679 19.3425C42.225 19.3454 42.1821 19.3512 42.1392 19.3628C33.3583 21.7459 17.6186 23.578 17.4606 23.5962C17.0358 23.6452 16.6894 24.1055 16.6221 24.7102C16.2744 27.8331 15.787 30.807 15.2146 33.6011C14.8457 34.7782 10.338 48.7288 3.3364 51.997L2.96849 50.3145C2.8155 49.6145 2.29658 49.2256 1.80987 49.4456C1.32303 49.6656 1.05242 50.4112 1.20554 51.111L1.52645 52.5784C1.31155 52.6165 1.09519 52.6469 0.87632 52.6632C0.366774 52.701 -0.0250219 53.3256 0.00124746 54.0582C0.0267248 54.7672 0.434889 55.3176 0.923314 55.3176C0.939287 55.3176 0.955524 55.3171 0.971761 55.3159C1.34428 55.2882 1.71667 55.2315 2.08841 55.1478L2.94605 59.0695C3.07001 59.6366 3.43435 59.9996 3.82733 59.9996C3.91907 59.9996 4.0124 59.9799 4.10468 59.9381C4.59152 59.7182 4.86213 58.9725 4.70913 58.273L3.88884 54.5221C6.61148 53.2453 9.27274 50.4822 11.7405 46.3491C9.29901 53.4791 6.95166 57.7666 6.90969 57.8419C6.68791 58.2407 6.64488 58.7866 6.79867 59.2467C6.95259 59.7068 7.27627 59.9992 7.6315 59.9992H41.4128C41.8117 59.9992 42.1655 59.6315 42.2902 59.0868L43.9159 51.9987L45.8777 59.0481C46.018 59.5522 46.3578 59.8829 46.7356 59.8829H52.9464C53.3168 59.8829 53.6511 59.5653 53.7965 59.0758C53.9417 58.586 53.8696 58.0193 53.6131 57.6351C52.0513 55.2956 50.6189 51.7861 49.349 47.8414C51.2906 50.6947 53.5335 52.755 56.0108 53.9566L54.977 58.2352C54.8096 58.9281 55.0648 59.685 55.5468 59.9256C55.6472 59.9757 55.7494 59.9994 55.85 59.9994C56.2325 59.9994 56.5903 59.6554 56.7228 59.1067L57.7968 54.6613C58.1757 54.7778 58.5586 54.8778 58.9469 54.9566C58.9905 54.9653 59.034 54.9697 59.0769 54.9697C59.5301 54.9697 59.9257 54.4902 59.9908 53.8265C60.0623 53.1013 59.7104 52.4295 59.2051 52.327ZM11.6462 57.3437H9.44963C11.6412 52.7784 16.4798 41.3513 18.3269 26.1582C21.3548 25.789 33.2647 24.27 41.1435 22.3199C41.1315 22.4041 41.119 22.4916 41.106 22.5809C41.1009 22.6164 41.0955 22.6534 41.0903 22.6897C41.0823 22.7449 41.0742 22.8007 41.0659 22.8578C41.0594 22.9022 41.0528 22.9475 41.0462 22.9929C41.0384 23.0458 41.0306 23.0995 41.0226 23.1538C41.016 23.1991 41.0091 23.2448 41.0023 23.2913C40.9929 23.3549 40.9832 23.4194 40.9736 23.4847C40.9678 23.5239 40.962 23.5626 40.9561 23.6023C40.9439 23.6835 40.9315 23.7666 40.9188 23.8505C40.9146 23.8786 40.9105 23.9059 40.9062 23.9341C40.8736 24.1503 40.8392 24.3759 40.8033 24.6089C40.2977 27.8949 39.4669 32.8362 38.2923 38.3957C36.2636 47.2724 33.9494 54.9488 33.2075 57.3437H11.6462ZM47.3614 57.2275L44.6904 47.6291C44.5461 47.1109 44.1913 46.7776 43.8037 46.795C43.4156 46.8123 43.0763 47.1766 42.9548 47.7067L40.7445 57.3438H37.2116H35.2839C37.1516 51.6806 38.673 45.6086 39.8652 40.0751C40.832 35.9079 41.7501 31.432 42.431 27.0485C42.5788 27.8619 42.9252 29.7606 43.2985 31.6684C43.6297 33.3614 43.9822 35.0617 44.2356 36.0166C45.8724 43.3816 48.1643 51.7988 50.9698 57.2275H47.3614Z" fill="#C3B7D2"/>
</svg>
