<svg width="60" height="61" viewBox="0 0 60 61" fill="none" xmlns="http://www.w3.org/2000/svg">
<path d="M21.1915 58.2072C15.9213 58.2072 10.9803 57.0451 7.27837 54.9343C3.73623 52.9151 1.78526 50.2864 1.78526 47.5325C1.78526 45.3845 2.97635 43.3009 5.2299 41.5067C5.61625 41.1989 5.68125 40.6349 5.37501 40.2466C5.06877 39.8579 4.50755 39.7925 4.1212 40.1003C1.425 42.2469 0 44.8168 0 47.5325C0 50.9604 2.27186 54.143 6.39764 56.4953C10.3637 58.756 15.6174 60.0014 21.1915 60.0014C21.684 60.0014 22.0837 59.5998 22.0837 59.1043C22.0837 58.6088 21.684 58.2072 21.1915 58.2072Z" fill="#C3B7D2"/>
<path d="M35.9839 38.5686C32.0179 36.3074 26.7642 35.0625 21.19 35.0625C17.8223 35.0625 14.4729 35.5322 11.5052 36.4215C11.0328 36.5632 10.7637 37.0628 10.9047 37.5376C11.0457 38.0124 11.5428 38.2824 12.0152 38.1412C14.8199 37.3007 17.9926 36.8567 21.19 36.8567C26.4602 36.8567 31.4013 38.0188 35.1032 40.1291C38.6453 42.1483 40.5963 44.777 40.5963 47.5309C40.5963 49.6039 39.4807 51.6268 37.3695 53.3801C35.2071 55.1761 32.179 56.5609 28.6117 57.3853C28.131 57.4962 27.8312 57.9779 27.942 58.4605C28.0367 58.8759 28.4043 59.157 28.8108 59.157C28.8772 59.157 28.9445 59.1492 29.0118 59.134C37.1338 57.257 42.3815 52.7024 42.3815 47.5314C42.3815 44.1035 40.1097 40.9204 35.9839 38.5686Z" fill="#C3B7D2"/>
<path d="M21.1875 53.9248C18.522 53.9248 15.9961 53.4486 13.8821 52.5474C13.4285 52.3537 12.9044 52.5667 12.7116 53.023C12.5194 53.479 12.7309 54.0057 13.185 54.199C15.5177 55.1936 18.2849 55.719 21.1875 55.719C24.7562 55.719 28.1248 54.9189 30.6732 53.4661C33.3808 51.9226 34.8722 49.8142 34.8722 47.5295C34.8722 46.8698 34.7445 46.2142 34.4932 45.5807C34.3105 45.1202 33.7914 44.8962 33.3337 45.0797C32.8759 45.2633 32.6525 45.7855 32.8352 46.2455C33.0023 46.6665 33.0869 47.098 33.0869 47.5291C33.0869 50.996 27.6373 53.9248 21.1875 53.9248Z" fill="#C3B7D2"/>
<path d="M29.8783 41.1732C27.4489 39.9908 24.3627 39.3398 21.1886 39.3398C17.6199 39.3398 14.2513 40.1399 11.7029 41.5927C8.99529 43.1362 7.50391 45.2447 7.50391 47.5293C7.50391 48.7126 7.90261 49.8489 8.68859 50.9075C8.86391 51.1435 9.13216 51.2677 9.40452 51.2677C9.58992 51.2677 9.7776 51.2097 9.93735 51.0897C10.3324 50.7934 10.4139 50.2312 10.1191 49.8342C9.5684 49.0926 9.28917 48.3174 9.28917 47.5293C9.28917 44.0628 14.7383 41.1341 21.1886 41.1341C24.0991 41.1341 26.9088 41.7216 29.1005 42.788C29.5436 43.0037 30.0778 42.8174 30.293 42.3716C30.5077 41.9254 30.3223 41.3889 29.8783 41.1732Z" fill="#C3B7D2"/>
<path d="M21.1913 45.6184C22.3393 45.6184 23.4498 45.8761 24.2376 46.3251C24.6666 46.5694 25.2113 46.4185 25.4544 45.9874C25.6974 45.5563 25.5473 45.0089 25.1184 44.7646C24.055 44.1582 22.6602 43.8242 21.1913 43.8242C17.9256 43.8242 15.3672 45.4533 15.3672 47.5323C15.3672 49.6117 17.9256 51.2408 21.1913 51.2408C22.6602 51.2408 24.055 50.9068 25.1184 50.3004C25.5473 50.0561 25.6974 49.5087 25.4544 49.0776C25.2113 48.6465 24.6661 48.4952 24.2376 48.7399C23.4498 49.1889 22.3393 49.4466 21.1913 49.4466C18.8796 49.4466 17.1524 48.4358 17.1524 47.5323C17.1524 46.6292 18.8796 45.6184 21.1913 45.6184Z" fill="#C3B7D2"/>
<path d="M54.7004 16.7975C51.443 14.9407 47.1318 13.918 42.5606 13.918C42.0676 13.918 41.668 14.3196 41.668 14.8151C41.668 15.3106 42.0676 15.7122 42.5606 15.7122C46.8278 15.7122 50.8264 16.6521 53.8196 18.358C56.6527 19.9732 58.2132 22.0646 58.2132 24.2476C58.2132 26.3749 56.7433 28.0039 55.5101 28.9954C55.1252 29.305 55.0629 29.8695 55.3705 30.2564C55.5472 30.4781 55.8063 30.5931 56.0682 30.5931C56.2636 30.5931 56.4609 30.5287 56.6252 30.3962C58.8321 28.6218 59.9985 26.4954 59.9985 24.2471C59.9985 21.3911 58.1171 18.7453 54.7004 16.7975Z" fill="#C3B7D2"/>
<path d="M48.6595 32.0972C46.7259 32.5517 44.6734 32.7822 42.5594 32.7822C38.2917 32.7822 34.2932 31.8428 31.3004 30.1364C28.4669 28.5216 26.9064 26.4297 26.9064 24.2472C26.9064 22.7401 27.6676 21.2472 29.1073 19.9296C30.5936 18.5702 32.7181 17.4587 35.2518 16.7157C35.7251 16.5767 35.9965 16.079 35.8587 15.6033C35.7205 15.1276 35.2248 14.8543 34.7519 14.9932C28.8111 16.7355 25.1211 20.2811 25.1211 24.2477C25.1211 27.1037 27.0029 29.7495 30.4192 31.6974C33.6766 33.5542 37.9878 34.5769 42.559 34.5769C44.8102 34.5769 46.9992 34.3303 49.066 33.8445C49.5462 33.7317 49.8442 33.2487 49.732 32.7666C49.6199 32.284 49.1397 31.984 48.6595 32.0972Z" fill="#C3B7D2"/>
<path d="M41.9773 25.6412C41.0686 25.6412 40.1934 25.4392 39.5754 25.0868C39.1465 24.8426 38.6018 24.9939 38.3587 25.4245C38.1152 25.8556 38.2658 26.4031 38.6947 26.6473C39.586 27.1557 40.7519 27.4354 41.9773 27.4354C44.7316 27.4354 46.8891 26.035 46.8891 24.2468C46.8891 22.459 44.7316 21.0586 41.9773 21.0586C40.7519 21.0586 39.586 21.3383 38.6947 21.8462C38.2658 22.0905 38.1152 22.6384 38.3587 23.069C38.6018 23.5001 39.147 23.6515 39.5754 23.4067C40.1934 23.0548 41.0686 22.8528 41.9773 22.8528C43.8862 22.8528 45.1038 23.6786 45.1038 24.2468C45.1038 24.8154 43.8857 25.6412 41.9773 25.6412Z" fill="#C3B7D2"/>
<path d="M39.0752 19.5598C40.1867 19.3215 41.3594 19.2005 42.5615 19.2005C45.1945 19.2005 47.6568 19.7774 49.4943 20.8245C49.633 20.9041 49.7845 20.9413 49.9337 20.9413C50.2445 20.9413 50.5462 20.778 50.7105 20.4868C50.9541 20.0557 50.8034 19.5082 50.375 19.264C48.2734 18.066 45.4985 17.4062 42.5615 17.4062C41.2345 17.4062 39.9363 17.5406 38.7026 17.8051C38.2206 17.9086 37.913 18.3852 38.016 18.8697C38.119 19.3541 38.5927 19.6633 39.0752 19.5598Z" fill="#C3B7D2"/>
<path d="M51.6319 21.2132C51.2369 21.509 51.1554 22.0712 51.4502 22.4687C51.8763 23.0429 52.0924 23.6409 52.0924 24.2459C52.0924 26.9819 47.7263 29.2932 42.5582 29.2932C37.3896 29.2932 33.0235 26.9819 33.0235 24.2459C33.0235 23.7504 32.6239 23.3488 32.1309 23.3488C31.6379 23.3488 31.2383 23.7504 31.2383 24.2459C31.2383 28.0823 36.2105 31.0874 42.5582 31.0874C48.9055 31.0874 53.8777 28.0823 53.8777 24.2459C53.8777 23.2462 53.5421 22.287 52.8811 21.3959C52.5863 20.9988 52.0274 20.917 51.6319 21.2132Z" fill="#C3B7D2"/>
<path d="M8.78337 30.968C10.9641 30.968 13.2236 29.4751 13.3234 26.6218C13.3266 26.5294 13.3285 26.4364 13.3285 26.343C13.3285 23.4497 11.7474 20.8081 9.20222 19.4486C8.94038 19.3088 8.62636 19.3088 8.36452 19.4486C5.81938 20.8081 4.23828 23.4502 4.23828 26.343C4.23828 26.4364 4.24011 26.5289 4.24332 26.6214C4.34311 29.4751 6.60261 30.968 8.78337 30.968ZM8.78337 21.2787C10.4972 22.3797 11.5432 24.2783 11.5432 26.343C11.5432 26.4148 11.5418 26.4866 11.5395 26.5583C11.4764 28.365 10.1095 29.1738 8.78337 29.1738C7.45724 29.1738 6.09037 28.365 6.0272 26.5583C6.02491 26.487 6.02354 26.4153 6.02354 26.343C6.02354 24.2783 7.06952 22.3797 8.78337 21.2787Z" fill="#C3B7D2"/>
<path d="M21.4982 11.6242C23.679 11.6242 25.9385 10.1309 26.0383 7.27762C26.0415 7.18515 26.0433 7.09222 26.0433 6.99928C26.0433 4.106 24.4622 1.46436 21.9171 0.104893C21.6552 -0.0349642 21.3412 -0.0349642 21.0794 0.104893C18.5342 1.46436 16.9531 4.106 16.9531 6.99928C16.9531 7.09222 16.955 7.18515 16.9582 7.27762C17.058 10.1309 19.3179 11.6242 21.4982 11.6242ZM21.4982 1.93499C23.2121 3.03591 24.258 4.93456 24.258 6.99928C24.258 7.07151 24.2567 7.14328 24.2544 7.21459C24.1912 9.02123 22.8248 9.83001 21.4982 9.83001C20.1721 9.83001 18.8052 9.02123 18.742 7.21459C18.7398 7.14328 18.7384 7.07151 18.7384 6.99928C18.7384 4.93456 19.7848 3.03545 21.4982 1.93499Z" fill="#C3B7D2"/>
<path d="M50.7599 12.4679C52.9407 12.4679 55.2002 10.975 55.3 8.12217C55.3032 8.0297 55.305 7.93631 55.305 7.84292C55.305 4.95009 53.7239 2.30799 51.1788 0.948988C50.9169 0.808671 50.6029 0.808671 50.3411 0.948988C47.7959 2.30799 46.2148 4.95009 46.2148 7.84292C46.2148 7.93631 46.2167 8.02878 46.2199 8.12171C46.3197 10.975 48.5792 12.4679 50.7599 12.4679ZM50.7599 2.77909C52.4738 3.87954 53.5198 5.77865 53.5198 7.84292C53.5198 7.91515 53.5184 7.98692 53.5161 8.05869C53.4529 9.86532 52.0865 10.6736 50.7599 10.6736C49.4338 10.6736 48.0669 9.86486 48.0038 8.05869C48.0015 7.98738 48.0001 7.91515 48.0001 7.84292C48.0001 5.77865 49.0461 3.88 50.7599 2.77909Z" fill="#C3B7D2"/>
</svg>
