<svg width="60" height="48" viewBox="0 0 60 48" fill="none" xmlns="http://www.w3.org/2000/svg">
<path d="M59.1211 46.2106H46.5109C46.5492 45.4817 46.6907 44.6429 47.0416 43.8254C49.8164 44.8904 52.9323 43.2032 53.5724 40.2079C53.6176 39.9966 53.649 39.782 53.6666 39.5659C54.4302 39.2819 55.1004 38.8021 55.5914 38.1803C56.289 37.2982 56.6256 36.137 56.538 34.9793C56.9486 34.7848 57.3345 34.5462 57.6905 34.2666C58.8083 33.3864 59.6597 31.9451 59.9681 30.4114C60.0558 29.9758 59.9579 29.5188 59.6996 29.1575C59.4382 28.7916 59.0346 28.553 58.5926 28.5025C58.0454 28.4401 57.6258 28.3945 57.232 28.3547C56.7479 28.3062 56.3186 28.6647 56.2705 29.156C56.2225 29.6474 56.5753 30.0853 57.0582 30.1341C57.3962 30.1682 57.7546 30.2068 58.2004 30.2573C57.9445 31.3056 57.3611 32.2646 56.6153 32.8521C56.2494 33.1394 55.837 33.3664 55.3897 33.527C54.9053 33.7008 54.6214 34.2175 54.7298 34.7294C54.9039 35.5501 54.7092 36.443 54.2212 37.06C53.8601 37.5171 53.3258 37.8478 52.7163 37.991C52.2397 38.1032 51.9061 38.5456 51.9232 39.043C51.986 40.8591 50.5355 42.3577 48.7839 42.3577C48.7752 42.3577 48.7662 42.3577 48.7574 42.3576C46.9413 42.3418 45.5418 40.7921 45.6377 38.9848C45.6676 38.4219 45.8427 37.877 46.1439 37.409C46.27 37.213 46.3154 36.9745 46.2705 36.7447C46.1232 35.9919 46.3124 35.2112 46.7764 34.6568C47.9657 33.2368 50.3332 33.2521 52.1749 33.294C52.6574 33.3062 53.0623 32.9137 53.0732 32.4199C53.0841 31.9262 52.6993 31.5172 52.2139 31.5062C51.3681 31.4871 50.5005 31.4675 49.6256 31.5575C49.6349 31.5342 49.6437 31.5107 49.6541 31.4882C49.9147 30.9252 50.4916 30.4565 51.2382 30.2018C51.7361 30.0315 52.317 29.9429 53.0665 29.9232C53.5518 29.9105 53.935 29.4999 53.9223 29.0063C53.9098 28.5127 53.5034 28.1262 53.0209 28.1357C52.091 28.1603 51.3464 28.2783 50.6786 28.5068C49.4805 28.9153 48.5276 29.7245 48.063 30.7281C47.8859 31.1131 47.7834 31.5327 47.7595 31.9573C46.9567 32.2399 46.0373 32.7819 45.4383 33.4972C44.7038 34.3749 44.3613 35.5631 44.4918 36.7351C44.1322 37.3933 43.9228 38.1307 43.8825 38.8883C43.8012 40.4208 44.3965 41.8673 45.5286 42.8916C45.0664 43.8821 44.8031 45.0064 44.7514 46.2105H31.2789C31.3172 45.4814 31.4586 44.6427 31.8096 43.8253C32.3448 44.0308 32.9183 44.1403 33.5108 44.1455C33.5248 44.1456 33.5384 44.1457 33.5523 44.1457C36.0751 44.1455 38.2247 42.1502 38.4348 39.5657C39.1983 39.2818 39.8687 38.8018 40.3597 38.1802C41.0572 37.2982 41.3938 36.1371 41.3064 34.9793C41.7169 34.7847 42.1028 34.5462 42.4588 34.2666C43.5765 33.3865 44.428 31.9453 44.7366 30.4113C44.8242 29.9757 44.7262 29.5187 44.468 29.1573C44.2065 28.7915 43.803 28.5528 43.361 28.5024C41.8937 28.335 40.1868 28.1546 38.4959 28.1322C37.5172 28.1199 36.4696 28.1567 35.4471 28.5067C34.249 28.9153 33.296 29.7244 32.8316 30.728C32.6543 31.1128 32.552 31.5326 32.5281 31.9573C31.7321 32.2374 30.8091 32.7782 30.2068 33.4972C29.4722 34.3748 29.1298 35.563 29.2602 36.7351C28.9007 37.3933 28.6912 38.1307 28.6511 38.8883C28.5782 40.2617 29.048 41.5703 29.9739 42.5731C30.0773 42.6852 30.1855 42.7908 30.297 42.8916C29.8348 43.8821 29.5714 45.0064 29.5198 46.2106H22.3772L25.0972 35.8842C25.2203 35.4171 25.0646 34.9139 24.7007 34.6025L16.9113 27.9384C16.6313 27.699 16.2643 27.5988 15.9043 27.664L5.88305 29.4735C5.41465 29.558 5.03262 29.9148 4.90957 30.382L2.00953 41.3916C1.80047 42.1852 2.26512 43.0039 3.04535 43.2167L14.0296 46.2106H0.878906C0.393516 46.2106 0 46.6109 0 47.1047C0 47.5984 0.393516 47.9987 0.878906 47.9987H59.1211C59.6065 47.9987 60 47.5984 60 47.1047C60 46.6109 59.6065 46.2106 59.1211 46.2106ZM30.4062 38.9848C30.4361 38.4218 30.6111 37.8769 30.9123 37.409C31.0384 37.213 31.0839 36.9745 31.039 36.7448C30.8917 35.9919 31.0808 35.2112 31.5449 34.6568C32.7673 33.1969 35.2039 33.2545 36.9432 33.2941C37.4242 33.3064 37.8307 32.9138 37.8415 32.4201C37.8523 31.9264 37.4677 31.5173 36.9823 31.5063C36.1363 31.4871 35.2689 31.4676 34.3941 31.5576C34.4033 31.5343 34.4121 31.5109 34.4225 31.4883C34.683 30.9253 35.2601 30.4566 36.0067 30.202C37.5565 29.6715 40.6714 29.9976 42.9688 30.2573C42.7129 31.3057 42.1295 32.2647 41.3836 32.8521C41.0179 33.1394 40.6055 33.3664 40.1584 33.527C39.6734 33.7008 39.3895 34.2178 39.4983 34.7295C39.6723 35.5502 39.4777 36.4431 38.9897 37.0601C38.6285 37.5173 38.0941 37.8479 37.4846 37.9911C37.008 38.1033 36.6744 38.5457 36.6915 39.0431C36.7543 40.8593 35.3038 42.3578 33.5523 42.3578C33.5435 42.3578 33.5345 42.3578 33.5257 42.3577C31.7271 42.342 30.3093 40.8109 30.4062 38.9848ZM10.3105 43.3457L11.4398 39.0583C11.7158 38.0102 12.7788 37.3857 13.8091 37.6669C14.8395 37.9476 15.453 39.0288 15.177 40.077L14.0476 44.3644L10.3105 43.3457ZM6.52066 31.1745L15.9687 29.4685L23.3125 35.7513L20.5751 46.1435L15.7458 44.8272L16.875 40.5397C17.402 38.5392 16.2307 36.4756 14.2641 35.9396C12.298 35.4038 10.2689 36.5951 9.74191 38.5955L8.61258 42.8829L3.78328 41.5666L6.52066 31.1745Z" fill="#C3B7D2"/>
<path d="M52.2158 18.5307C52.4909 18.2508 52.8568 18.0967 53.246 18.0967C54.0492 18.0967 54.7027 18.7615 54.7027 19.5786C54.7027 20.3956 54.0492 21.0605 53.246 21.0605H34.6719C34.1865 21.0605 33.793 21.4608 33.793 21.9545C33.793 22.4483 34.1865 22.8486 34.6719 22.8486H53.246C55.0184 22.8486 56.4605 21.3816 56.4605 19.5786C56.4605 17.7756 55.0184 16.3086 53.246 16.3086C52.3873 16.3086 51.58 16.6488 50.9729 17.2664C50.6297 17.6156 50.6297 18.1817 50.9729 18.5307C51.316 18.8799 51.8725 18.8799 52.2158 18.5307Z" fill="#C3B7D2"/>
<path d="M43.5914 10.5776C43.8666 10.2977 44.2323 10.1436 44.6215 10.1436C45.4247 10.1436 46.0782 10.8084 46.0782 11.6255C46.0782 12.4425 45.4247 13.1073 44.6215 13.1073H29.2031C28.7177 13.1073 28.3242 13.5076 28.3242 14.0014C28.3242 14.4951 28.7177 14.8954 29.2031 14.8954H44.6215C46.3939 14.8954 47.8361 13.4285 47.8361 11.6255C47.8361 9.82244 46.3939 8.35547 44.6215 8.35547C43.7627 8.35547 42.9555 8.69569 42.3484 9.3133C42.0052 9.66246 42.0053 10.2286 42.3485 10.5776C42.6916 10.9269 43.2482 10.9269 43.5914 10.5776Z" fill="#C3B7D2"/>
<path d="M16.4541 6.5401H31.8726C33.645 6.5401 35.0872 5.07313 35.0872 3.27011C35.0872 1.46697 33.645 0 31.8726 0C31.0139 0 30.2066 0.340219 29.5995 0.957835C29.2562 1.307 29.2562 1.87311 29.5995 2.22215C29.9427 2.57131 30.4993 2.57131 30.8424 2.22215C31.1175 1.94225 31.4834 1.78812 31.8726 1.78812C32.6758 1.78812 33.3293 2.45294 33.3293 3.27011C33.3293 4.08716 32.6758 4.75198 31.8726 4.75198H16.4541C15.9687 4.75198 15.5752 5.15228 15.5752 5.64604C15.5752 6.1398 15.9687 6.5401 16.4541 6.5401Z" fill="#C3B7D2"/>
<path d="M6.0016 21.3358L18.2448 22.4112C18.2637 22.4129 18.2809 22.423 18.2919 22.4389L25.329 32.6869C25.5942 33.073 26.0189 33.28 26.4501 33.28C26.72 33.28 26.9925 33.1989 27.23 33.0301L29.1237 31.6845C29.7409 31.2459 29.8923 30.3785 29.4611 29.7507L26.9568 26.1037C26.6789 25.6988 26.131 25.6 25.733 25.8827C25.3351 26.1654 25.2378 26.7227 25.5158 27.1276L27.7953 30.4471L26.5453 31.3354L19.733 21.4148C19.423 20.9631 18.9356 20.6769 18.3961 20.6295L6.54406 19.5886L6.67531 18.0433L19.7315 19.19C19.9572 19.2099 20.1612 19.3296 20.291 19.5185L23.1675 23.7077C23.4454 24.1126 23.9934 24.2115 24.3912 23.9287C24.7892 23.646 24.8865 23.0887 24.6085 22.6838L21.732 18.4946C21.303 17.87 20.6289 17.474 19.8827 17.4085L15.6058 17.0329L17.238 14.1579C17.4041 13.8653 17.4481 13.5244 17.3623 13.1979C17.2764 12.8709 17.0704 12.5978 16.7824 12.4287L14.1809 10.9019C13.8937 10.7322 13.5584 10.6865 13.2369 10.7737C12.9161 10.8606 12.6479 11.0689 12.4801 11.3627L9.5641 16.5023L6.43543 16.2275C6.07179 16.1952 5.71824 16.3096 5.43922 16.5483C5.16019 16.7871 4.98922 17.1221 4.95781 17.4917L4.75906 19.833C4.72777 20.2025 4.83969 20.5623 5.07441 20.8463C5.30902 21.1301 5.63844 21.304 6.0016 21.3358ZM13.7449 12.7106L15.4587 13.7164L13.6722 16.8633L11.4972 16.6723L13.7449 12.7106Z" fill="#C3B7D2"/>
</svg>
