<svg width="40" height="60" viewBox="0 0 40 60" fill="none" xmlns="http://www.w3.org/2000/svg">
<path d="M38.8353 23.3533C38.4347 22.817 37.7467 22.4982 37.0109 22.4982H21.7711V1.87226C21.7711 0.987221 21.0527 0.222185 20.0468 0.0384264C19.0323 -0.137832 18.0221 0.304689 17.6041 1.11098L0.187261 34.8626C-0.11318 35.4401 -0.0478665 36.1151 0.352721 36.6439C0.753309 37.1764 1.44128 37.4989 2.17714 37.4989H17.4169V58.1249C17.4169 59.01 18.1353 59.775 19.1412 59.9587C19.2936 59.985 19.446 60 19.594 60C20.4387 60 21.2268 59.5762 21.5839 58.8899L39.0008 25.1384C39.2968 24.5571 39.2402 23.8858 38.8353 23.3533ZM21.7711 49.2895V35.6239C21.7711 34.5888 20.7958 33.7488 19.594 33.7488H5.52989L17.4169 10.7077V24.3733C17.4169 25.4084 18.3922 26.2484 19.594 26.2484H33.6581L21.7711 49.2895Z" fill="#C3B7D2"/>
</svg>
