<svg width="60" height="60" viewBox="0 0 60 60" fill="none" xmlns="http://www.w3.org/2000/svg">
<path d="M22.301 36.2739C22.9549 36.2739 23.4849 35.7439 23.4849 35.0901C23.4849 34.4363 22.9549 33.9062 22.301 33.9062C21.6472 33.9062 21.1172 34.4363 21.1172 35.0901C21.1172 35.7439 21.6472 36.2739 22.301 36.2739Z" fill="#C3B7D2"/>
<path d="M35.3245 48.1138C35.9783 48.1138 36.5083 47.5837 36.5083 46.9299C36.5083 46.2761 35.9783 45.7461 35.3245 45.7461C34.6706 45.7461 34.1406 46.2761 34.1406 46.9299C34.1406 47.5837 34.6706 48.1138 35.3245 48.1138Z" fill="#C3B7D2"/>
<path d="M39.8284 35.3286C40.4822 35.3286 41.0122 34.7986 41.0122 34.1448C41.0122 33.491 40.4822 32.9609 39.8284 32.9609C39.1746 32.9609 38.6445 33.491 38.6445 34.1448C38.6445 34.7986 39.1746 35.3286 39.8284 35.3286Z" fill="#C3B7D2"/>
<path d="M54.7385 39.8247C55.3924 39.8247 55.9224 39.2947 55.9224 38.6409C55.9224 37.987 55.3924 37.457 54.7385 37.457C54.0847 37.457 53.5547 37.987 53.5547 38.6409C53.5547 39.2947 54.0847 39.8247 54.7385 39.8247Z" fill="#C3B7D2"/>
<path d="M17.4534 55.2153C18.1072 55.2153 18.6372 54.6853 18.6372 54.0315C18.6372 53.3777 18.1072 52.8477 17.4534 52.8477C16.7996 52.8477 16.2695 53.3777 16.2695 54.0315C16.2695 54.6853 16.7996 55.2153 17.4534 55.2153Z" fill="#C3B7D2"/>
<path d="M2.06275 41.9575C2.71657 41.9575 3.2466 41.4275 3.2466 40.7737C3.2466 40.1199 2.71657 39.5898 2.06275 39.5898C1.40893 39.5898 0.878906 40.1199 0.878906 40.7737C0.878906 41.4275 1.40893 41.9575 2.06275 41.9575Z" fill="#C3B7D2"/>
<path d="M6.04814 30.8789H11.9334C12.4188 30.8789 12.8123 30.4855 12.8123 30C12.8123 29.5145 12.4188 29.1211 11.9334 29.1211H6.04814C3.68244 29.1211 1.75784 27.1965 1.75784 24.8309C1.75784 22.4652 3.68244 20.5407 6.04814 20.5407C6.19662 20.5407 6.3451 20.5485 6.48982 20.5638C6.84514 20.6016 7.18815 20.4202 7.35714 20.1053C8.33895 18.2749 10.1555 17.0745 12.2163 16.8941C12.5762 16.8625 12.8802 16.614 12.9826 16.2675C13.582 14.239 14.8455 12.4136 16.5404 11.1277C18.2909 9.79934 20.381 9.09727 22.5847 9.09727C25.3813 9.09727 27.9758 10.2218 29.8902 12.2637C30.169 12.561 30.6155 12.6277 30.9688 12.4248C31.4827 12.1301 32.0668 11.9742 32.6583 11.9742C34.5356 11.9742 36.0628 13.5014 36.0628 15.3786C36.0628 15.7584 35.9998 16.1329 35.8756 16.4911C35.7328 16.9029 35.9133 17.3571 36.3 17.5583C38.3374 18.6197 39.6031 20.7027 39.6031 22.9945C39.6031 26.3727 36.8546 29.1211 33.4764 29.1211H16.035C15.5496 29.1211 15.1561 29.5145 15.1561 30C15.1561 30.4855 15.5496 30.8789 16.035 30.8789H33.4763C37.0596 30.8789 40.0901 28.4754 41.0457 25.1965H46.0238C46.5094 25.1965 46.9028 24.8031 46.9028 24.3176C46.9028 23.8321 46.5094 23.4387 46.0238 23.4387H41.3476C41.3559 23.2916 41.3609 23.1436 41.3609 22.9945C41.3609 20.2833 39.9852 17.7994 37.7274 16.3555C37.7893 16.0346 37.8206 15.7079 37.8206 15.3786C37.8206 12.5321 35.5048 10.2164 32.6583 10.2164C31.9906 10.2164 31.329 10.3471 30.7132 10.5981C30.3391 10.2415 29.9427 9.91195 29.5279 9.60961C29.6754 9.59473 29.8233 9.58289 29.9723 9.57727C30.3553 9.56297 30.6849 9.30211 30.7869 8.93273C31.2601 7.2177 32.8355 6.02004 34.6178 6.02004C34.8877 6.02004 35.1562 6.04664 35.4158 6.09891C35.6594 6.14766 35.9116 6.09164 36.1113 5.94457C36.3109 5.79727 36.4389 5.57238 36.4639 5.3257C36.6691 3.29156 38.3688 1.75781 40.4174 1.75781C40.788 1.75781 41.1555 1.80867 41.5096 1.90863C41.9767 2.04082 42.4624 1.76918 42.5944 1.30195C42.7265 0.834727 42.455 0.349102 41.9877 0.217148C41.4778 0.0730078 40.9497 0 40.4174 0C37.7667 0 35.5209 1.7816 34.8729 4.26773C34.788 4.26398 34.703 4.26211 34.6178 4.26211C32.2608 4.26211 30.1546 5.71535 29.2945 7.8648C28.6091 7.93863 27.939 8.09402 27.2922 8.32711C25.8191 7.68387 24.2161 7.33945 22.5848 7.33945C19.9942 7.33945 17.5367 8.16516 15.4779 9.72715C13.6416 11.1205 12.2361 13.0534 11.4756 15.2164C9.25268 15.5795 7.30112 16.8727 6.09454 18.7832C2.73485 18.7536 0 21.4807 0 24.8309C0 28.1658 2.71317 30.8789 6.04814 30.8789Z" fill="#C3B7D2"/>
<path d="M60.0009 18.2802C60.0009 14.856 57.4859 11.9723 54.1665 11.4501C53.4832 9.29622 51.5747 7.73458 49.3221 7.49107C48.7335 6.16157 47.5184 5.20228 46.0951 4.93157C46.0168 4.36978 45.8556 3.82591 45.6127 3.30724C45.4068 2.86755 44.8838 2.67818 44.444 2.88384C44.0043 3.08974 43.8148 3.61298 44.0206 4.05255C44.2673 4.57954 44.3925 5.14486 44.3925 5.73302C44.3925 6.21853 44.7859 6.61193 45.2714 6.61193C46.4696 6.61193 47.5283 7.41724 47.846 8.57036C47.951 8.95169 48.2978 9.21583 48.6933 9.21583H48.7051C50.6034 9.21583 52.243 10.5652 52.6038 12.4243C52.68 12.8174 53.0122 13.1092 53.4119 13.1341C56.121 13.3029 58.243 15.5634 58.243 18.2802C58.243 21.1245 55.9289 23.4388 53.0844 23.4388H50.1254C49.6398 23.4388 49.2464 23.8322 49.2464 24.3177C49.2464 24.8032 49.6398 25.1966 50.1254 25.1966H53.0844C56.8982 25.1966 60.0009 22.0939 60.0009 18.2802Z" fill="#C3B7D2"/>
<path d="M50.1206 27.2266C48.5916 27.2266 47.3477 28.4705 47.3477 29.9996C47.3477 31.5286 48.5916 32.7726 50.1206 32.7726C51.6497 32.7726 52.8936 31.5286 52.8936 29.9996C52.8936 28.4705 51.6496 27.2266 50.1206 27.2266ZM50.1206 31.0148C49.5609 31.0148 49.1055 30.5593 49.1055 29.9996C49.1055 29.4399 49.5609 28.9844 50.1206 28.9844C50.6803 28.9844 51.1358 29.4399 51.1358 29.9996C51.1358 30.5593 50.6803 31.0148 50.1206 31.0148Z" fill="#C3B7D2"/>
<path d="M26.9719 44.7964C26.9719 43.2674 25.7279 42.0234 24.1988 42.0234C22.6697 42.0234 21.4258 43.2674 21.4258 44.7964C21.4258 46.3254 22.6697 47.5693 24.1988 47.5693C25.7279 47.5693 26.9719 46.3253 26.9719 44.7964ZM23.1836 44.7964C23.1836 44.2368 23.639 43.7813 24.1988 43.7813C24.7586 43.7813 25.214 44.2368 25.214 44.7964C25.214 45.3561 24.7586 45.8115 24.1988 45.8115C23.639 45.8115 23.1836 45.3561 23.1836 44.7964Z" fill="#C3B7D2"/>
<path d="M31.8941 36.5781C30.3651 36.5781 29.1211 37.8221 29.1211 39.351C29.1211 40.8801 30.3651 42.124 31.8941 42.124C33.4231 42.124 34.6671 40.8801 34.6671 39.351C34.6671 37.8221 33.4231 36.5781 31.8941 36.5781ZM31.8941 40.3662C31.3344 40.3662 30.8789 39.9107 30.8789 39.351C30.8789 38.7913 31.3344 38.3359 31.8941 38.3359C32.4538 38.3359 32.9092 38.7913 32.9092 39.351C32.9092 39.9107 32.4538 40.3662 31.8941 40.3662Z" fill="#C3B7D2"/>
<path d="M57.2261 49.0078C55.6971 49.0078 54.4531 50.2518 54.4531 51.7808C54.4531 53.3098 55.6971 54.5537 57.2261 54.5537C58.7551 54.5537 59.9991 53.3098 59.9991 51.7808C59.9991 50.2518 58.7551 49.0078 57.2261 49.0078ZM57.2261 52.7959C56.6664 52.7959 56.211 52.3405 56.211 51.7808C56.211 51.2211 56.6664 50.7656 57.2261 50.7656C57.7858 50.7656 58.2413 51.2211 58.2413 51.7808C58.2413 52.3405 57.7858 52.7959 57.2261 52.7959Z" fill="#C3B7D2"/>
<path d="M5.44531 35.6832C5.44531 37.2121 6.68928 38.4561 8.21836 38.4561C9.74744 38.4561 10.9914 37.2121 10.9914 35.6832C10.9914 34.1541 9.74744 32.9102 8.21836 32.9102C6.68928 32.9102 5.44531 34.1541 5.44531 35.6832ZM9.23345 35.6832C9.23345 36.2429 8.77806 36.6982 8.21824 36.6982C7.65843 36.6982 7.20303 36.2429 7.20303 35.6832C7.20303 35.1235 7.65843 34.668 8.21824 34.668C8.77806 34.668 9.23345 35.1235 9.23345 35.6832Z" fill="#C3B7D2"/>
<path d="M43.3802 44.1392C45.4315 44.1392 47.1003 42.4705 47.1003 40.4192C47.1003 38.368 45.4315 36.6992 43.3802 36.6992C41.3289 36.6992 39.6602 38.368 39.6602 40.4192C39.6602 42.4705 41.3291 44.1392 43.3802 44.1392ZM43.3802 38.4569C44.4621 38.4569 45.3424 39.3372 45.3424 40.4191C45.3424 41.501 44.4621 42.3813 43.3802 42.3813C42.2983 42.3813 41.418 41.501 41.418 40.4191C41.418 39.3372 42.2983 38.4569 43.3802 38.4569Z" fill="#C3B7D2"/>
<path d="M8.21615 52.5586C6.16499 52.5586 4.49609 54.2273 4.49609 56.2786C4.49609 58.3298 6.16487 59.9986 8.21615 59.9986C10.2674 59.9986 11.9362 58.3298 11.9362 56.2786C11.9362 54.2273 10.2674 52.5586 8.21615 52.5586ZM8.21615 58.2408C7.13426 58.2408 6.25393 57.3605 6.25393 56.2786C6.25393 55.1967 7.13414 54.3164 8.21615 54.3164C9.29816 54.3164 10.1784 55.1967 10.1784 56.2786C10.1784 57.3605 9.29816 58.2408 8.21615 58.2408Z" fill="#C3B7D2"/>
<path d="M27.1576 52.5586C25.1064 52.5586 23.4375 54.2273 23.4375 56.2786C23.4375 58.3298 25.1063 59.9986 27.1576 59.9986C29.2088 59.9986 30.8776 58.3298 30.8776 56.2786C30.8776 54.2273 29.2088 52.5586 27.1576 52.5586ZM27.1576 58.2408C26.0757 58.2408 25.1953 57.3605 25.1953 56.2786C25.1953 55.1967 26.0755 54.3164 27.1576 54.3164C28.2396 54.3164 29.1198 55.1967 29.1198 56.2786C29.1198 57.3605 28.2396 58.2408 27.1576 58.2408Z" fill="#C3B7D2"/>
<path d="M48.9624 45.2188C47.92 45.2188 46.9189 45.6604 46.2154 46.4304C45.888 46.7887 45.913 47.3446 46.2715 47.6721C46.6299 47.9995 47.1857 47.9743 47.5133 47.6159C47.8845 47.2095 48.4128 46.9766 48.9625 46.9766C50.0444 46.9766 50.9248 47.8569 50.9248 48.9388C50.9248 50.0206 50.0444 50.9009 48.9625 50.9009H39.7774C39.2918 50.9009 38.8984 51.2943 38.8984 51.7798C38.8984 52.2654 39.2918 52.6587 39.7774 52.6587H48.9625C51.0138 52.6587 52.6826 50.99 52.6826 48.9388C52.6826 46.8875 51.0137 45.2188 48.9624 45.2188Z" fill="#C3B7D2"/>
<path d="M48.5108 54.6914H46.2813C45.7957 54.6914 45.4023 55.0848 45.4023 55.5703C45.4023 56.0558 45.7957 56.4492 46.2813 56.4492H48.5108C48.9963 56.4492 49.3897 56.0558 49.3897 55.5703C49.3897 55.0848 48.9963 54.6914 48.5108 54.6914Z" fill="#C3B7D2"/>
<path d="M42.5161 54.6914H36.8672C36.3817 54.6914 35.9883 55.0848 35.9883 55.5703C35.9883 56.0558 36.3817 56.4492 36.8672 56.4492H42.5161C43.0016 56.4492 43.395 56.0558 43.395 55.5703C43.395 55.0848 43.0016 54.6914 42.5161 54.6914Z" fill="#C3B7D2"/>
<path d="M15.1032 38.3555C14.0608 38.3555 13.0595 38.7971 12.3561 39.567C12.0287 39.9254 12.0538 40.4812 12.4123 40.8087C12.7705 41.1361 13.3264 41.1109 13.654 40.7525C14.0251 40.3462 14.5534 40.1133 15.1033 40.1133C16.1853 40.1133 17.0655 40.9935 17.0655 42.0754C17.0655 43.1572 16.1853 44.0375 15.1033 44.0375H5.91798C5.43258 44.0375 5.03906 44.4309 5.03906 44.9164C5.03906 45.402 5.43258 45.7953 5.91798 45.7953H15.103C17.1543 45.7953 18.8231 44.1266 18.8231 42.0754C18.8232 40.0242 17.1544 38.3555 15.1032 38.3555Z" fill="#C3B7D2"/>
<path d="M14.6514 47.8242H12.4219C11.9365 47.8242 11.543 48.2176 11.543 48.7031C11.543 49.1886 11.9365 49.582 12.4219 49.582H14.6514C15.1368 49.582 15.5303 49.1886 15.5303 48.7031C15.5303 48.2176 15.1368 47.8242 14.6514 47.8242Z" fill="#C3B7D2"/>
<path d="M9.53562 48.7031C9.53562 48.2176 9.1421 47.8242 8.6567 47.8242H3.00783C2.52243 47.8242 2.12891 48.2176 2.12891 48.7031C2.12891 49.1886 2.52243 49.582 3.00783 49.582H8.6567C9.1421 49.582 9.53562 49.1886 9.53562 48.7031Z" fill="#C3B7D2"/>
</svg>
