<svg width="60" height="50" viewBox="0 0 60 50" fill="none" xmlns="http://www.w3.org/2000/svg">
<path d="M55.3181 27.9849C54.4778 28.5307 53.8705 28.925 52.4995 28.925C51.1284 28.925 50.5213 28.5307 49.6808 27.9849C49.0146 27.5522 48.2405 27.0523 47.1295 26.7538C46.6521 17.365 39.1514 9.87891 29.9994 9.87891C20.8474 9.87891 13.3467 17.3649 12.8694 26.7537C11.7584 27.0521 10.9841 27.5522 10.3179 27.9849C9.47766 28.5305 8.87039 28.925 7.49965 28.925C6.12891 28.925 5.52176 28.5307 4.68152 27.9849C3.65578 27.3186 2.37914 26.4895 0 26.4895V30.1427C1.37074 30.1427 1.97789 30.537 2.81813 31.0828C3.84387 31.7491 5.12051 32.5782 7.49965 32.5782C9.87879 32.5782 11.1554 31.7491 12.1813 31.0828C13.0215 30.5371 13.6288 30.1427 14.9995 30.1427C16.3703 30.1427 16.9775 30.537 17.8178 31.0828C18.8436 31.7491 20.1203 32.5782 22.4994 32.5782C24.8784 32.5782 26.1551 31.7491 27.1808 31.0828C28.0211 30.5371 28.6282 30.1427 29.9989 30.1427C31.3698 30.1427 31.977 30.537 32.8173 31.0828C33.8432 31.7491 35.1198 32.5782 37.4989 32.5782C39.8781 32.5782 41.1548 31.7491 42.1806 31.0828C43.0209 30.537 43.6282 30.1427 44.9991 30.1427C46.37 30.1427 46.9773 30.537 47.8177 31.0828C48.8435 31.7491 50.1203 32.5782 52.4995 32.5782C54.8788 32.5782 56.1554 31.7491 57.1814 31.0828C58.0218 30.537 58.629 30.1427 60 30.1427V26.4895C57.6207 26.4895 56.3441 27.3186 55.3181 27.9849ZM40.3174 27.9849C39.4771 28.5307 38.8698 28.925 37.4989 28.925C36.1281 28.925 35.5209 28.5307 34.6807 27.9849C33.6548 27.3186 32.3782 26.4895 29.9991 26.4895C27.62 26.4895 26.3434 27.3186 25.3177 27.9849C24.4774 28.5305 23.8703 28.925 22.4995 28.925C21.1287 28.925 20.5215 28.5307 19.6813 27.9849C18.8787 27.4636 17.9197 26.8443 16.402 26.5987C16.947 19.2988 22.8374 13.5322 29.9996 13.5322C37.1619 13.5322 43.0523 19.2988 43.5973 26.5986C42.0791 26.8442 41.12 27.4636 40.3174 27.9849Z" fill="#C3B7D2"/>
<path d="M52.4995 37.6347C51.1284 37.6347 50.5213 37.2404 49.6808 36.6946C48.655 36.0284 47.3782 35.1992 44.9989 35.1992C42.6198 35.1992 41.343 36.0284 40.3173 36.6946C39.477 37.2404 38.8697 37.6347 37.4988 37.6347C36.128 37.6347 35.5208 37.2404 34.6806 36.6946C33.6547 36.0284 32.3781 35.1992 29.9989 35.1992C27.6199 35.1992 26.3433 36.0284 25.3175 36.6946C24.4773 37.2403 23.8702 37.6347 22.4994 37.6347C21.1286 37.6347 20.5214 37.2404 19.6812 36.6946C18.6553 36.0284 17.3787 35.1992 14.9995 35.1992C12.6204 35.1992 11.3438 36.0284 10.3179 36.6946C9.47766 37.2403 8.87039 37.6347 7.49965 37.6347C6.12891 37.6347 5.52176 37.2404 4.68152 36.6946C3.65578 36.0284 2.37914 35.1992 0 35.1992V38.8525C1.37074 38.8525 1.97789 39.2468 2.81813 39.7926C3.84387 40.4588 5.12051 41.288 7.49965 41.288C9.87879 41.288 11.1554 40.4588 12.1813 39.7926C13.0215 39.2469 13.6288 38.8525 14.9995 38.8525C16.3703 38.8525 16.9775 39.2468 17.8178 39.7926C18.8436 40.4588 20.1203 41.288 22.4994 41.288C24.8784 41.288 26.1551 40.4588 27.1808 39.7926C28.0211 39.2469 28.6282 38.8525 29.9989 38.8525C31.3698 38.8525 31.977 39.2468 32.8173 39.7926C33.8432 40.4588 35.1198 41.288 37.4989 41.288C39.8781 41.288 41.1548 40.4588 42.1806 39.7926C43.0209 39.2468 43.6282 38.8525 44.9991 38.8525C46.37 38.8525 46.9773 39.2468 47.8177 39.7926C48.8435 40.4588 50.1203 41.288 52.4995 41.288C54.8788 41.288 56.1554 40.4588 57.1814 39.7926C58.0218 39.2468 58.629 38.8525 60 38.8525V35.1992C57.6207 35.1992 56.3441 36.0284 55.3181 36.6946C54.4778 37.2404 53.8705 37.6347 52.4995 37.6347Z" fill="#C3B7D2"/>
<path d="M37.4993 46.3457C36.1284 46.3457 35.5213 45.9513 34.6811 45.4056C33.6552 44.7393 32.3786 43.9102 29.9994 43.9102C27.6204 43.9102 26.3438 44.7393 25.318 45.4056C24.4778 45.9512 23.8706 46.3457 22.4999 46.3457C21.129 46.3457 20.5219 45.9513 19.6816 45.4056C18.6558 44.7393 17.3791 43.9102 15 43.9102V47.5634C16.3709 47.5634 16.978 47.9577 17.8182 48.5035C18.8441 49.1697 20.1207 49.9989 22.4999 49.9989C24.8789 49.9989 26.1555 49.1697 27.1813 48.5035C28.0215 47.9578 28.6287 47.5634 29.9994 47.5634C31.3703 47.5634 31.9774 47.9577 32.8178 48.5035C33.8436 49.1697 35.1203 49.9989 37.4994 49.9989C39.8786 49.9989 41.1553 49.1697 42.1811 48.5035C43.0214 47.9577 43.6287 47.5634 44.9995 47.5634V43.9102C42.6204 43.9102 41.3436 44.7393 40.3179 45.4056C39.4773 45.9513 38.8702 46.3457 37.4993 46.3457Z" fill="#C3B7D2"/>
<path d="M28.2617 0H31.7773V6.55014H28.2617V0Z" fill="#C3B7D2"/>
<path d="M16.8672 3.52734L20.0348 1.94184L22.7704 7.84352L19.6029 9.42902L16.8672 3.52734Z" fill="#C3B7D2"/>
<path d="M8.07812 11.8516L10.2719 8.99473L15.2011 13.082L13.0074 15.9389L8.07812 11.8516Z" fill="#C3B7D2"/>
<path d="M3.625 23.3125L4.40898 19.7506L10.5547 21.2112L9.7707 24.7732L3.625 23.3125Z" fill="#C3B7D2"/>
<path d="M49.4766 21.2109L55.6224 19.7503L56.4064 23.3122L50.2605 24.7729L49.4766 21.2109Z" fill="#C3B7D2"/>
<path d="M44.8477 13.082L49.7769 8.99474L51.9707 11.8516L47.0414 15.9389L44.8477 13.082Z" fill="#C3B7D2"/>
<path d="M37.2695 7.85938L40.0052 1.95769L43.1728 3.5432L40.4371 9.44488L37.2695 7.85938Z" fill="#C3B7D2"/>
</svg>
