<svg width="60" height="61" viewBox="0 0 60 61" fill="none" xmlns="http://www.w3.org/2000/svg">
<path d="M28.9219 21.9862C29.5691 21.9862 30.0937 21.4515 30.0937 20.7919C30.0937 20.1324 29.5691 19.5977 28.9219 19.5977C28.2747 19.5977 27.75 20.1324 27.75 20.7919C27.75 21.4515 28.2747 21.9862 28.9219 21.9862Z" fill="#C3B7D2"/>
<path d="M60 28.724C60 28.0632 59.4743 27.5273 58.8258 27.5273C57.0001 27.5273 56.029 28.2529 55.2488 28.8359C54.5918 29.3266 54.1172 29.6812 53.0601 29.6812C52.0028 29.6812 51.5283 29.3265 50.8713 28.8359C50.091 28.2529 49.12 27.5273 47.2943 27.5273C45.4688 27.5273 44.4978 28.2529 43.7175 28.8359C43.0607 29.3268 42.5862 29.6812 41.5293 29.6812C40.4723 29.6812 39.9979 29.3266 39.3411 28.8359C38.5608 28.2529 37.5898 27.5273 35.7643 27.5273C33.9387 27.5273 32.9677 28.2529 32.1875 28.8359C31.5306 29.3268 31.0562 29.6812 29.9994 29.6812C28.9424 29.6812 28.468 29.3266 27.8112 28.8359C27.031 28.2529 26.0601 27.5273 24.2344 27.5273C22.4088 27.5273 21.4378 28.2529 20.6575 28.8359C20.0007 29.3268 19.5262 29.6812 18.4693 29.6812C17.4124 29.6812 16.9379 29.3266 16.2812 28.8359C15.5009 28.2529 14.5301 27.5273 12.7044 27.5273C10.8787 27.5273 9.90772 28.2529 9.12748 28.8359C8.47065 29.3268 7.99616 29.6812 6.93924 29.6812C5.88233 29.6812 5.40784 29.3266 4.75101 28.8359C3.97077 28.2529 2.99988 27.5273 1.17422 27.5273C0.525819 27.5273 0 28.0631 0 28.724C0 28.7288 0.000585936 28.7333 0.000703124 28.7381C0.000703124 28.7429 0 28.7474 0 28.7522V58.8046C0 59.4654 0.525702 60.0013 1.17422 60.0013H58.8258C59.4742 60.0013 60 59.4655 60 58.8046V28.872C60 28.847 59.9978 28.8227 59.9964 28.7981C59.9978 28.7735 60 28.749 60 28.724ZM2.34843 57.6081V30.13C2.71195 30.2812 3.01148 30.5038 3.36245 30.766C4.14269 31.349 5.1137 32.0746 6.93936 32.0746C8.76502 32.0746 9.73592 31.349 10.5163 30.766C11.1731 30.2751 11.6476 29.9207 12.7045 29.9207C13.7614 29.9207 14.2359 30.2753 14.8926 30.766C15.6729 31.349 16.6438 32.0746 18.4694 32.0746C20.2951 32.0746 21.2661 31.349 22.0463 30.766C22.7032 30.2751 23.1777 29.9207 24.2346 29.9207C25.2915 29.9207 25.766 30.2753 26.4227 30.766C27.2029 31.349 28.1738 32.0746 29.9995 32.0746C31.8251 32.0746 32.796 31.349 33.5763 30.766C34.2331 30.2751 34.7076 29.9207 35.7644 29.9207C36.8214 29.9207 37.2958 30.2753 37.9526 30.766C38.7329 31.349 39.7039 32.0746 41.5294 32.0746C43.355 32.0746 44.3261 31.349 45.1063 30.766C45.7632 30.2751 46.2376 29.9207 47.2944 29.9207C48.3517 29.9207 48.8262 30.2754 49.4832 30.766C50.2635 31.349 51.2345 32.0746 53.0602 32.0746C54.8858 32.0746 55.857 31.349 56.6372 30.766C56.9883 30.5037 57.2881 30.2811 57.6518 30.1299V57.608H2.34843V57.6081Z" fill="#C3B7D2"/>
<path d="M1.22109 9.45115H2.58503C2.72484 10.1467 2.99156 10.8133 3.37781 11.4221L2.41921 12.399C1.993 12.8333 1.96336 13.5506 2.35382 14.0191C2.79199 14.5447 3.60081 14.5791 4.07976 14.0914L5.03108 13.1219C5.62733 13.5201 6.28721 13.7943 6.97229 13.9416V15.3124C6.97229 15.9732 7.49799 16.5091 8.14651 16.5091C8.79502 16.5091 9.32072 15.9733 9.32072 15.3124V13.9453C9.99643 13.8008 10.6551 13.5281 11.2617 13.1215L12.2134 14.0914C12.6922 14.5791 13.5011 14.5449 13.9393 14.0191C14.3299 13.5506 14.3002 12.8335 13.8739 12.399L12.9171 11.4239C13.2948 10.8278 13.5637 10.162 13.7061 9.45115H15.072C15.7204 9.45115 16.2463 8.9154 16.2463 8.25448C16.2463 7.59369 15.7206 7.05782 15.072 7.05782H13.6938C13.5474 6.37087 13.2781 5.71259 12.8902 5.11222L13.8738 4.10987C14.3324 3.64255 14.3324 2.8849 13.8738 2.41758C13.4151 1.95037 12.6719 1.95037 12.2133 2.41758L11.2222 3.42757C10.6363 3.0435 9.9908 2.77634 9.32061 2.63219V1.19667C9.32061 0.535872 8.79491 0 8.14639 0C7.49788 0 6.97217 0.535753 6.97217 1.19667V2.63063C6.31112 2.77204 5.66636 3.03573 5.07081 3.42769L4.07964 2.41769C3.62097 1.95049 2.87777 1.95049 2.4191 2.41769C1.96054 2.88502 1.96054 3.64266 2.4191 4.10999L3.40124 5.11091C3.02203 5.69861 2.75062 6.35606 2.60167 7.05794H1.22109C0.572694 7.05794 0.046875 7.59369 0.046875 8.2546C0.046875 8.9154 0.572694 9.45115 1.22109 9.45115ZM8.13948 4.89594C8.30787 4.89594 8.47768 4.90908 8.64737 4.93535C9.52592 5.07162 10.2999 5.54849 10.8266 6.27796C11.3532 7.00766 11.5697 7.90253 11.436 8.79788C11.3021 9.69335 10.8343 10.4822 10.1184 11.0189C8.64069 12.1267 6.55382 11.8033 5.46655 10.2971C4.93991 9.56759 4.72347 8.67272 4.85718 7.77725C4.99101 6.8819 5.45882 6.09308 6.17483 5.55637C6.75245 5.12321 7.43553 4.89594 8.13948 4.89594Z" fill="#C3B7D2"/>
<path d="M39.8858 11.1942H58.3505C58.776 11.1942 59.1682 10.9595 59.3758 10.5808C59.7701 9.86103 59.9786 9.04271 59.9786 8.21472C59.9786 5.53572 57.8399 3.35604 55.2112 3.35604C54.8535 3.35604 54.5027 3.39557 54.1606 3.47392C52.9906 1.85436 51.137 0.882812 49.1183 0.882812C47.0995 0.882812 45.2459 1.85436 44.0759 3.47392C43.7339 3.39545 43.383 3.35604 43.0253 3.35604C40.3966 3.35604 38.2578 5.5356 38.2578 8.21472C38.2578 9.04259 38.4663 9.86091 38.8607 10.5808C39.068 10.9596 39.4603 11.1942 39.8858 11.1942ZM43.0252 5.74925C43.3919 5.74925 43.7442 5.83058 44.0723 5.99085C44.6466 6.27127 45.3357 6.03421 45.6255 5.45618C46.2996 4.11154 47.6378 3.27614 49.118 3.27614C50.5982 3.27614 51.9365 4.11154 52.6106 5.45618C52.9002 6.03433 53.5892 6.27163 54.1638 5.99085C54.4919 5.83058 54.8442 5.74925 55.2108 5.74925C56.5448 5.74925 57.6299 6.85527 57.6299 8.21472C57.6299 8.41297 57.6065 8.61002 57.5608 8.80099H40.6752C40.6295 8.6099 40.606 8.41297 40.606 8.21472C40.606 6.85539 41.6913 5.74925 43.0252 5.74925Z" fill="#C3B7D2"/>
<path d="M19.6907 21.9911H23.6589C24.3073 21.9911 24.8331 21.4553 24.8331 20.7944C24.8331 20.1336 24.3074 19.5977 23.6589 19.5977H20.4801C20.4344 19.4067 20.4109 19.2097 20.4109 19.0115C20.4109 17.652 21.4962 16.546 22.8301 16.546C23.1968 16.546 23.5491 16.6273 23.8772 16.7876C24.4513 17.0679 25.1407 16.831 25.4304 16.2529C26.1045 14.9082 27.4428 14.0728 28.9229 14.0728C30.4031 14.0728 31.7414 14.9082 32.4155 16.2529C32.7052 16.8308 33.3941 17.0681 33.9687 16.7876C34.2968 16.6273 34.6491 16.546 35.0157 16.546C36.3497 16.546 37.4348 17.652 37.4348 19.0115C37.4348 19.2097 37.4114 19.4068 37.3657 19.5977H34.198C33.5496 19.5977 33.0238 20.1335 33.0238 20.7944C33.0238 21.4552 33.5495 21.9911 34.198 21.9911H38.1552C38.5807 21.9911 38.9729 21.7564 39.1805 21.3777C39.5748 20.6579 39.7833 19.8396 39.7833 19.0116C39.7833 16.3326 37.6446 14.1529 35.0159 14.1529C34.6582 14.1529 34.3072 14.1924 33.9653 14.2708C32.7953 12.6512 30.9417 11.6797 28.9229 11.6797C26.9042 11.6797 25.0506 12.6512 23.8806 14.2708C23.5387 14.1923 23.1877 14.1529 22.83 14.1529C20.2013 14.1529 18.0625 16.3325 18.0625 19.0116C18.0625 19.8395 18.271 20.6578 18.6654 21.3777C18.873 21.7564 19.2652 21.9911 19.6907 21.9911Z" fill="#C3B7D2"/>
<path d="M18.8375 40.1956C16.7281 40.1958 14.7246 40.8914 13.0754 42.1729L10.9524 39.512C10.5433 38.9993 9.80363 38.9216 9.30066 39.3385C8.79746 39.7554 8.72129 40.509 9.13039 41.0218L11.3969 43.8625L9.15359 46.504C8.76406 46.9627 8.77894 47.6688 9.18851 48.1092C9.65972 48.6159 10.4809 48.5982 10.9293 48.0701L13.0474 45.576C14.7494 46.9052 16.7929 47.5726 18.8376 47.5726C21.2779 47.5726 23.7183 46.6259 25.5761 44.7326C26.0347 44.2653 26.0347 43.5075 25.5761 43.0402C23.7761 41.2059 21.3829 40.1956 18.8375 40.1956ZM18.8375 45.1839C17.3561 45.1839 15.9432 44.7298 14.7519 43.8863C15.9432 43.0428 17.3561 42.5889 18.8375 42.5889C20.3188 42.5889 21.7318 43.0429 22.9231 43.8864C21.7317 44.7299 20.3188 45.1839 18.8375 45.1839Z" fill="#C3B7D2"/>
<path d="M45.3648 44.8559C43.2554 44.8559 41.2519 45.5516 39.6027 46.833L37.4798 44.1722C37.0707 43.6595 36.331 43.5817 35.828 43.9987C35.3248 44.4156 35.2486 45.1692 35.6577 45.682L37.9241 48.5227L35.6808 51.1642C35.2913 51.6228 35.3062 52.329 35.7157 52.7693C36.1869 53.276 37.0081 53.2584 37.4566 52.7303L39.5746 50.2361C41.2767 51.5655 43.3198 52.2326 45.3648 52.2326C47.8049 52.2326 50.2458 51.2857 52.1034 49.3926C52.3236 49.1682 52.4473 48.8638 52.4473 48.5465C52.4473 48.2291 52.3235 47.9247 52.1034 47.7003C50.3033 45.8662 47.9102 44.8559 45.3648 44.8559ZM41.2801 48.5458C42.4714 47.7027 43.8838 47.2491 45.3647 47.2491C46.8456 47.2491 48.2582 47.7028 49.4494 48.5459C47.0017 50.2722 43.7279 50.2723 41.2801 48.5458Z" fill="#C3B7D2"/>
</svg>
