<svg width="60" height="61" viewBox="0 0 60 61" fill="none" xmlns="http://www.w3.org/2000/svg">
<path d="M17.3078 41.9953C28.4688 41.9953 34.6155 36.3117 34.6155 25.9911C34.6155 16.3285 18.838 0.965584 18.1664 0.317465C17.9416 0.114776 17.6317 0 17.3078 0C16.9838 0 16.6734 0.114776 16.4491 0.317465C15.7776 0.965584 0 16.3285 0 25.9911C0 36.3117 6.14673 41.9953 17.3078 41.9953ZM17.3078 2.51091C20.611 5.87165 32.3078 18.3099 32.3078 25.9911C32.3078 32.3795 29.7049 39.9948 17.3078 39.9948C4.91063 39.9948 2.3077 32.3795 2.3077 25.9911C2.3077 18.3099 14.004 5.87165 17.3078 2.51091Z" fill="#C3B7D2"/>
<path d="M49.6151 43.997C56.2148 43.997 59.9998 40.1791 59.9998 33.5202C59.9998 27.2675 50.8484 18.6725 50.4597 18.3092C50.2366 18.1138 49.9323 18.0039 49.6151 18.0039C49.2979 18.0039 48.9937 18.1138 48.7706 18.3092C48.3818 18.6725 39.2305 27.2675 39.2305 33.5202C39.2305 40.1791 43.0149 43.997 49.6151 43.997ZM49.6151 20.5007C51.8406 22.7454 57.6921 29.0712 57.6921 33.5202C57.6921 39.1447 54.9748 41.9965 49.6151 41.9965C44.2555 41.9965 41.5382 39.1447 41.5382 33.5202C41.5382 29.0712 47.3891 22.7454 49.6151 20.5007Z" fill="#C3B7D2"/>
<path d="M32.5983 40.3346C32.3042 40.6237 25.3867 47.4726 25.3867 51.9997C25.3867 57.085 28.3311 60.0018 33.4637 60.0018C38.5957 60.0018 41.5406 57.085 41.5406 51.9997C41.5406 47.4726 34.6232 40.6237 34.3291 40.3346C34.1037 40.1284 33.791 40.0117 33.4637 40.0117C33.1363 40.0117 32.8231 40.1284 32.5983 40.3346ZM33.4637 58.0013C29.6365 58.0013 27.6944 55.9817 27.6944 51.9997C27.6944 49.2807 31.3047 44.8548 33.4637 42.549C35.6238 44.8499 39.2329 49.2768 39.2329 51.9997C39.2329 55.9817 37.2909 58.0013 33.4637 58.0013Z" fill="#C3B7D2"/>
<path d="M14.8866 37.9902C14.9249 37.9936 14.9632 37.995 15.0021 37.995C15.6168 37.995 16.1238 37.577 16.1548 37.0446C16.1853 36.5122 15.7295 36.0526 15.1176 35.9994C12.7074 35.8944 10.4639 34.9015 8.95229 33.2707C5.88343 29.802 6.89981 24.2102 6.90882 24.1545C6.99277 23.6187 6.57022 23.122 5.95498 23.0331C5.33975 22.9447 4.75437 23.2959 4.6338 23.8263C4.58253 24.0905 3.43826 30.3138 7.11334 34.479C9.00412 36.5611 11.8347 37.8397 14.8866 37.9902Z" fill="#C3B7D2"/>
<path d="M48.4624 39.9944C50.5915 39.968 52.6215 39.21 54.1061 37.8869C55.3912 36.4539 55.856 34.5926 55.3692 32.8275C55.2509 32.2941 54.6638 31.94 54.0458 32.0294C53.4277 32.1193 53.0052 32.6199 53.0942 33.1576C53.4474 34.3386 53.1759 35.5953 52.3533 36.5853C51.3093 37.4654 49.9183 37.969 48.4624 37.9939C47.8252 37.9939 47.3086 38.4417 47.3086 38.9941C47.3086 39.5465 47.8252 39.9944 48.4624 39.9944Z" fill="#C3B7D2"/>
<path d="M32.8273 54.1027C32.4673 53.9766 32.1896 53.7202 32.0667 53.4008C31.9445 53.0819 31.9896 52.7317 32.1907 52.444C32.4752 51.9497 32.2442 51.3485 31.6735 51.1019C31.1033 50.8547 30.4103 51.0555 30.1253 51.5497C29.6509 52.3136 29.5613 53.2137 29.8774 54.0367C30.194 54.8597 30.8881 55.5332 31.7957 55.898C32.3665 56.1452 33.0595 55.9444 33.3445 55.4497C33.6291 54.9554 33.3981 54.3547 32.8273 54.1075V54.1027Z" fill="#C3B7D2"/>
</svg>
