<svg width="60" height="60" viewBox="0 0 60 60" fill="none" xmlns="http://www.w3.org/2000/svg">
<path d="M31.7578 17.6347V15.8203C31.7578 14.8495 30.9708 14.0625 30 14.0625C29.0292 14.0625 28.2422 14.8495 28.2422 15.8203V17.6347C17.0705 18.349 7.14844 26.1932 7.14844 36.9141C7.14844 37.8849 7.93547 38.6719 8.90625 38.6719C9.54996 38.6719 10.1112 38.3248 10.4175 37.8087L10.419 37.8095L10.4095 37.8253C10.4773 37.7163 12.1131 35.1563 15.9375 35.1563C19.69 35.1563 21.3354 37.6206 21.4601 37.8165C21.7724 38.3653 22.3368 38.7046 22.9688 38.7046C23.6006 38.7046 24.165 38.3654 24.4773 37.8168C24.58 37.6556 25.7252 35.9415 28.2422 35.3538V54.7266C28.2422 55.6959 27.4536 56.4844 26.4844 56.4844C25.5151 56.4844 24.7266 55.6959 24.7266 54.7266C24.7266 53.7558 23.9395 52.9688 22.9688 52.9688C21.998 52.9688 21.2109 53.7558 21.2109 54.7266C21.2109 57.6344 23.5766 60 26.4844 60C29.3921 60 31.7578 57.6344 31.7578 54.7266V35.3537C34.2741 35.9413 35.4193 37.6545 35.5226 37.8165C35.8317 38.3592 36.3967 38.6814 37.0219 38.6881C37.0279 38.6881 37.0338 38.6882 37.0398 38.6882C37.6607 38.6882 38.2271 38.3446 38.5439 37.8095C38.5596 37.783 40.222 35.1563 44.0625 35.1563C47.887 35.1563 49.5229 37.7163 49.5906 37.8252L49.5811 37.8094L49.5825 37.8086C49.8888 38.3248 50.45 38.6719 51.0938 38.6719C52.0645 38.6719 52.8516 37.8849 52.8516 36.9141C52.8516 26.1463 42.881 18.3459 31.7578 17.6347ZM37.0312 34.2579C35.6845 33.0403 33.3975 31.6406 30 31.6406C26.6026 31.6406 24.3155 33.0403 22.9688 34.2579C21.622 33.0403 19.335 31.6406 15.9375 31.6406C14.1093 31.6406 12.603 32.0462 11.3914 32.6104C13.6881 25.9718 21.1608 21.0938 30 21.0938C38.8392 21.0938 46.3119 25.9718 48.6086 32.6104C47.397 32.0462 45.8907 31.6406 44.0625 31.6406C40.6651 31.6406 38.378 33.0403 37.0312 34.2579Z" fill="#C3B7D2"/>
<path d="M31.2429 6.51639L34.7586 3.00076C35.4451 2.31428 35.4451 1.20135 34.7586 0.514864C34.0722 -0.171621 32.9592 -0.171621 32.2727 0.514864L28.7571 4.03049C28.0706 4.71698 28.0706 5.82991 28.7571 6.51639C29.4433 7.20276 30.5565 7.20288 31.2429 6.51639Z" fill="#C3B7D2"/>
<path d="M20.6961 6.51639L24.2117 3.00076C24.8982 2.31428 24.8982 1.20135 24.2117 0.514864C23.5253 -0.171621 22.4123 -0.171621 21.7258 0.514864L18.2102 4.03049C17.5237 4.71698 17.5237 5.82991 18.2102 6.51639C18.8964 7.20276 20.0096 7.20288 20.6961 6.51639Z" fill="#C3B7D2"/>
<path d="M10.1492 6.51639L13.6648 3.00076C14.3513 2.31428 14.3513 1.20135 13.6648 0.514864C12.9785 -0.171621 11.8654 -0.171621 11.1789 0.514864L7.6633 4.03049C6.97682 4.71698 6.97682 5.82991 7.6633 6.51639C8.34955 7.20276 9.46272 7.20288 10.1492 6.51639Z" fill="#C3B7D2"/>
<path d="M41.7898 6.51639L45.3055 3.00076C45.9919 2.31428 45.9919 1.20135 45.3055 0.514864C44.6191 -0.171621 43.506 -0.171621 42.8196 0.514864L39.3039 4.03049C38.6174 4.71698 38.6174 5.82991 39.3039 6.51639C39.9902 7.20276 41.1033 7.20288 41.7898 6.51639Z" fill="#C3B7D2"/>
<path d="M52.3367 6.51639L55.8523 3.00076C56.5388 2.31428 56.5388 1.20135 55.8523 0.514864C55.166 -0.171621 54.0529 -0.171621 53.3664 0.514864L49.8508 4.03049C49.1643 4.71698 49.1643 5.82991 49.8508 6.51639C50.5371 7.20276 51.6502 7.20288 52.3367 6.51639Z" fill="#C3B7D2"/>
<path d="M42.8196 17.0633C43.506 17.7498 44.6191 17.7499 45.3055 17.0633L48.8212 13.5476C49.5076 12.8612 49.5076 11.7482 48.8212 11.0617C48.1348 10.3753 47.0217 10.3753 46.3353 11.0617L42.8196 14.5774C42.133 15.2639 42.133 16.3768 42.8196 17.0633Z" fill="#C3B7D2"/>
<path d="M11.179 17.0633C11.8654 17.7498 12.9784 17.7499 13.6649 17.0633L17.1805 13.5476C17.867 12.8612 17.867 11.7482 17.1805 11.0617C16.4942 10.3753 15.3811 10.3753 14.6946 11.0617L11.179 14.5774C10.4924 15.2639 10.4924 16.3768 11.179 17.0633Z" fill="#C3B7D2"/>
<path d="M6.63357 11.0617C5.94721 10.3753 4.83416 10.3753 4.14768 11.0617L0.514863 14.6946C-0.171621 15.381 -0.171621 16.494 0.514863 17.1805C1.20123 17.8669 2.31428 17.8671 3.00076 17.1805L6.63357 13.5476C7.32006 12.8612 7.32006 11.7482 6.63357 11.0617Z" fill="#C3B7D2"/>
<path d="M59.4851 10.9446C58.7988 10.2581 57.6857 10.2581 56.9992 10.9446L53.3664 14.5774C52.6799 15.2639 52.6799 16.3768 53.3664 17.0633C54.0528 17.7498 55.1658 17.7499 55.8523 17.0633L59.4851 13.4305C60.1716 12.744 60.1716 11.631 59.4851 10.9446Z" fill="#C3B7D2"/>
</svg>
