<svg width="17" height="15" viewBox="0 0 17 15" fill="none" xmlns="http://www.w3.org/2000/svg">
<path d="M1.02178 8.72765C1.09134 8.73927 1.16174 8.74462 1.23217 8.74369L13.2253 8.74369L12.9638 8.86883C12.7082 8.99331 12.4757 9.16272 12.2766 9.36941L8.91341 12.8296C8.47047 13.2647 8.39604 13.9645 8.73704 14.4878C9.13391 15.0454 9.895 15.1665 10.437 14.7582C10.4808 14.7252 10.5224 14.6892 10.5616 14.6505L16.6433 8.39328C17.1185 7.90483 17.119 7.11248 16.6442 6.62348C16.6439 6.62316 16.6436 6.62281 16.6433 6.6225L10.5616 0.365302C10.0859 -0.122721 9.31575 -0.121627 8.84138 0.367765C8.80405 0.406286 8.7692 0.44727 8.73704 0.490444C8.39605 1.01374 8.47047 1.71357 8.91341 2.1486L12.2705 5.61509C12.449 5.79889 12.6542 5.95302 12.8787 6.07186L13.2436 6.24081L1.29911 6.24081C0.677748 6.21707 0.132598 6.66364 0.0158679 7.29202C-0.0916647 7.97425 0.358687 8.61698 1.02178 8.72765Z" fill="#040826"/>
</svg>
