<svg width="60" height="29" viewBox="0 0 60 29" fill="none" xmlns="http://www.w3.org/2000/svg">
<path d="M59.8844 20.2628L57.2987 6.06538C56.6587 2.55088 53.5158 0 49.8258 0H10.1747C6.48471 0 3.34186 2.55088 2.70178 6.06538L0.116154 20.2628C-0.274784 22.4088 0.331427 24.5966 1.77893 26.2652C3.22455 27.9319 5.34494 28.8878 7.596 28.8878H52.4049C54.6522 28.8878 56.7707 27.9314 58.2173 26.2639C59.6669 24.5925 60.2746 22.4053 59.8844 20.2628ZM55.1986 23.8087C54.503 24.6108 53.4846 25.0707 52.4048 25.0707H33.4106L45.5699 18.6967L52.0398 17.7115C53.1153 17.5477 53.8499 16.571 53.6808 15.5296C53.5118 14.4883 52.5028 13.777 51.4275 13.9407L32.8474 16.7698C31.772 16.9335 31.0374 17.9103 31.2065 18.9516C31.3756 19.9929 32.3842 20.7042 33.4598 20.5406L33.9001 20.4735L25.1305 25.0707H7.59576C6.51225 25.0707 5.49213 24.6112 4.79733 23.8101C4.1017 23.0083 3.81037 21.9569 3.99811 20.9257L6.58373 6.72829C6.891 5.04139 8.40119 3.81713 10.1746 3.81713H28.0288V5.47123H25.7611C24.6726 5.47123 23.7901 6.3258 23.7901 7.37974C23.7901 8.43379 24.6727 9.28825 25.7611 9.28825H34.4337C35.5223 9.28825 36.4047 8.43368 36.4047 7.37974C36.4047 6.32569 35.5221 5.47123 34.4337 5.47123H31.971V3.81713H49.8259C51.5993 3.81713 53.1095 5.04151 53.4168 6.72829L56.0024 20.9256C56.1893 21.9533 55.8965 23.0042 55.1986 23.8087Z" fill="#9A8CAE"/>
</svg>
