<svg width="60" height="60" viewBox="0 0 60 60" fill="none" xmlns="http://www.w3.org/2000/svg">
<path d="M30 0C13.4577 0 0 13.4577 0 30C0 46.5424 13.4577 60 30 60C46.5424 60 60 46.5423 60 30C60 13.4577 46.5424 0 30 0ZM30 53.4426C17.0734 53.4426 6.55738 42.9266 6.55738 30C6.55738 17.074 17.0734 6.55738 30 6.55738C42.9266 6.55738 53.4426 17.074 53.4426 30C53.4426 42.9266 42.9266 53.4426 30 53.4426Z" fill="#9A8CAE"/>
<path d="M32.5983 30.0372V17.4635C32.5983 16.0596 31.4607 14.9219 30.0573 14.9219C28.6534 14.9219 27.5156 16.0596 27.5156 17.4635V30.8491C27.5156 30.8891 27.5255 30.9266 27.5274 30.9666C27.494 31.6577 27.7321 32.3594 28.2599 32.8873L37.7255 42.3522C38.7183 43.345 40.3275 43.345 41.3195 42.3522C42.3117 41.3594 42.3124 39.7502 41.3195 38.758L32.5983 30.0372Z" fill="#9A8CAE"/>
</svg>
