<svg width="44" height="59" viewBox="0 0 44 59" fill="none" xmlns="http://www.w3.org/2000/svg">
<path d="M14.9606 40.2049L14.5563 42.2911H13.0646C11.0852 42.3028 9.2784 43.351 8.3822 45.0074L4.30629 52.6658C4.30105 52.6776 4.29895 52.6904 4.29372 52.7022C4.28848 52.714 4.278 52.7465 4.26858 52.7681C4.23127 52.8627 4.20972 52.9622 4.20468 53.063C4.20468 53.0758 4.1963 53.0876 4.1963 53.1014V56.0507C4.1963 57.6795 5.60327 59 7.33887 59H36.6653C38.4009 59 39.8079 57.6795 39.8079 56.0507V53.1053C39.8079 53.0915 39.8006 53.0797 39.7995 53.0669C39.7945 52.9661 39.7729 52.8667 39.7356 52.772C39.7262 52.7504 39.721 52.7278 39.7105 52.7061C39.7 52.6845 39.7031 52.6816 39.6979 52.6698L35.6178 45.0045C34.7207 43.3492 32.9141 42.3023 30.9354 42.2911H29.4437L29.0394 40.2049C39.2454 36.9697 45.4536 27.274 43.7069 17.2977C41.9602 7.32146 32.7725 0 22 0C11.2275 0 2.03983 7.32146 0.293116 17.2977C-1.4536 27.274 4.75461 36.9697 14.9606 40.2049ZM37.7129 56.0546C37.7129 56.5976 37.2439 57.0377 36.6653 57.0377H7.33468C6.75614 57.0377 6.28715 56.5976 6.28715 56.0546V54.0884H37.7129V56.0546ZM30.9354 44.2573C32.1238 44.2637 33.209 44.8922 33.748 45.8863L37.0665 52.1222H6.93347L10.2499 45.8893C10.7887 44.8937 11.8749 44.264 13.0646 44.2573H14.1761L14.0881 44.7105C13.9205 45.5716 14.1691 46.4579 14.7666 47.13C15.3641 47.802 16.2488 48.1903 17.1814 48.1897H26.8186C27.7506 48.1896 28.6345 47.8013 29.2315 47.1295C29.8285 46.4578 30.077 45.572 29.9098 44.7115L29.824 44.2573H30.9354ZM27.8504 45.0644C27.9061 45.3515 27.823 45.6469 27.6237 45.8707C27.4244 46.0946 27.1295 46.2239 26.8186 46.2235H17.1814C16.8707 46.2233 16.5761 46.0937 16.3773 45.8697C16.1784 45.6456 16.0958 45.3503 16.1517 45.0635L16.9897 40.7457C20.285 41.4954 23.7234 41.4954 27.0187 40.7457L27.8504 45.0644ZM22 1.98368C32.9921 1.98368 41.9029 10.3466 41.9029 20.6627C41.9029 30.9789 32.9921 39.3418 22 39.3418C11.0079 39.3418 2.09706 30.9789 2.09706 20.6627C2.10918 10.3513 11.0129 1.99506 22 1.98368Z" fill="#9A8CAE"/>
<path d="M7.48242 30.6157C8.69294 32.2433 10.2852 33.5886 12.1366 34.5481C13.0722 35.0289 14.1043 35.3215 15.1671 35.4074H15.364C18.0247 35.4074 20.1983 32.4237 21.8335 26.5476C21.888 26.5476 21.9382 26.5555 21.9948 26.5555C23.522 26.5554 24.9964 26.0309 26.1399 25.0808C27.1867 25.7989 27.8541 26.9047 27.972 28.1167C26.9253 28.8784 25.7219 29.4287 24.4376 29.7329C24.1443 29.8037 23.8521 29.8568 23.5504 29.901C23.01 29.9803 22.6255 30.4364 22.6678 30.9482C22.71 31.46 23.1647 31.8552 23.7117 31.8554C23.7664 31.8554 23.821 31.8514 23.8751 31.8436C24.2438 31.7895 24.601 31.7237 24.9499 31.6401C26.0655 31.3726 27.1332 30.9526 28.1186 30.3935C28.1165 30.9368 28.1585 31.4794 28.2443 32.0166C26.3267 32.992 24.1758 33.4925 21.9948 33.4707H21.8691C21.2906 33.4707 20.8216 33.9108 20.8216 34.4538C20.8216 34.9967 21.2906 35.4369 21.8691 35.4369H21.9948C24.5692 35.4593 27.1061 34.8565 29.3589 33.6869C29.7045 33.8811 30.1 33.9831 30.5028 33.9819C30.8704 33.9767 31.2357 33.9258 31.5891 33.8305C34.3346 33.1423 36.8958 30.8104 38.4409 27.5995C39.9546 24.4536 40.1777 21.1395 39.0254 18.96C37.803 16.6163 34.0466 16.2869 27.5708 17.9494C26.8251 16.606 25.5597 15.5816 24.0343 15.0865C24.2089 13.876 24.9248 12.7926 26.0026 12.1077C27.2027 12.5917 28.2892 13.2933 29.1997 14.1723C29.4221 14.391 29.6319 14.6207 29.8282 14.8604C30.1834 15.2894 30.8419 15.3668 31.2989 15.0335C31.7559 14.7001 31.8385 14.0821 31.4833 13.6532C31.2405 13.3591 30.9817 13.0769 30.7081 12.8077C29.9163 12.0429 29.0131 11.3872 28.0254 10.8602C28.5229 10.594 28.9953 10.2884 29.4375 9.94686C30.0995 10.3456 30.7234 10.7975 31.302 11.2977C32.3552 12.2203 33.2493 13.2909 33.9523 14.4711C34.1376 14.7823 34.488 14.9749 34.8678 14.9745C35.0462 14.9749 35.2216 14.9319 35.3769 14.8496C35.8818 14.5851 36.0628 13.9866 35.7813 13.5126C34.9734 12.1552 33.9453 10.924 32.734 9.8633C32.0021 9.23074 31.2072 8.66549 30.3603 8.1753C30.2896 7.48131 29.9375 6.83935 29.3767 6.38212C27.3665 4.49553 23.938 3.57534 20.2109 3.92435C16.5445 4.2645 13.3706 5.73916 11.926 7.77223C10.3883 9.93507 11.9459 13.141 16.6682 17.5483C15.7935 18.8494 15.5021 20.4222 15.8574 21.9241C14.6414 22.3861 13.2732 22.34 12.0957 21.7972C12.0356 21.4195 12.0076 21.0378 12.0119 20.6559C12.0099 19.7919 12.1346 18.9318 12.3827 18.0998C12.4664 17.8068 12.5689 17.5189 12.6897 17.2376C12.9075 16.7345 12.6495 16.161 12.1135 15.9566C11.5775 15.7522 10.9664 15.9943 10.7486 16.4973C10.5979 16.8484 10.4695 17.2075 10.3642 17.5728C10.0653 18.5751 9.91483 19.6112 9.91687 20.6519V20.7443C9.4232 20.4723 8.90473 20.242 8.36758 20.0562C8.3946 19.3213 8.49384 18.5904 8.66403 17.8727C8.98525 16.5306 9.5319 15.245 10.2835 14.0641C10.4822 13.7617 10.4916 13.3822 10.3081 13.0715C10.1245 12.7607 9.77663 12.5671 9.39807 12.565C9.01951 12.5629 8.66919 12.7527 8.48176 13.0613C7.61864 14.4184 6.99135 15.8959 6.62346 17.4381C6.40317 18.358 6.28278 19.2964 6.26415 20.239C5.68399 20.6474 5.28516 21.2426 5.14435 21.9103C4.41213 24.4949 5.28682 27.7509 7.48242 30.6157ZM37.1462 19.83C38.0156 21.4738 37.7747 24.2059 36.5302 26.7904C35.2418 29.4694 33.1918 31.3924 31.0433 31.9321C30.8566 31.9852 30.6632 32.0147 30.4682 32.0196H30.4169C30.2376 31.4188 30.1668 30.7941 30.2074 30.1714C30.1718 28.2051 30.1121 25.3541 27.4702 23.5423C28.1568 22.4157 28.4153 21.1037 28.2035 19.8212C33.9984 18.3554 36.6277 18.8371 37.1462 19.83ZM26.1849 20.6608C26.1849 22.8326 24.3089 24.5932 21.9948 24.5932C19.6807 24.5932 17.8047 22.8326 17.8047 20.6608C17.8047 18.4889 19.6807 16.7283 21.9948 16.7283C24.3089 16.7283 26.1849 18.4889 26.1849 20.6608ZM13.6691 8.86348C14.7575 7.3318 17.4067 6.16092 20.4172 5.88073C23.5263 5.59366 26.3242 6.30052 27.8955 7.7742C28.0511 7.90952 28.1832 8.06673 28.2873 8.24019C27.8221 8.68635 27.2803 9.05591 26.6846 9.3334C24.9153 10.3283 22.3426 11.7833 21.9508 14.769C20.5327 14.7772 19.1597 15.2376 18.0572 16.0746C14.4704 12.6976 12.8363 10.0314 13.6691 8.85856V8.86348ZM16.6462 23.7477C17.375 24.8589 18.4746 25.7129 19.7741 26.177C18.2405 31.6037 16.4429 33.4933 15.2907 33.4412C13.3402 33.3242 10.9413 31.764 9.17941 29.4655C7.3452 27.0736 6.59203 24.4379 7.16398 22.4176C7.21083 22.2235 7.28964 22.0374 7.39757 21.8661C8.04785 22.0133 8.66385 22.2712 9.21503 22.627C11.0304 23.5727 13.6775 24.9452 16.6462 23.7428V23.7477Z" fill="#9A8CAE"/>
<path d="M17.8092 51.1381C18.3878 51.1381 18.8568 50.6979 18.8568 50.155C18.8568 49.612 18.3878 49.1719 17.8092 49.1719C17.2307 49.1719 16.7617 49.612 16.7617 50.155C16.7617 50.6979 17.2307 51.1381 17.8092 51.1381Z" fill="#9A8CAE"/>
<path d="M21.9967 51.1381C22.5753 51.1381 23.0443 50.6979 23.0443 50.155C23.0443 49.612 22.5753 49.1719 21.9967 49.1719C21.4182 49.1719 20.9492 49.612 20.9492 50.155C20.9492 50.6979 21.4182 51.1381 21.9967 51.1381Z" fill="#9A8CAE"/>
<path d="M26.192 51.1381C26.7706 51.1381 27.2396 50.6979 27.2396 50.155C27.2396 49.612 26.7706 49.1719 26.192 49.1719C25.6135 49.1719 25.1445 49.612 25.1445 50.155C25.1445 50.6979 25.6135 51.1381 26.192 51.1381Z" fill="#9A8CAE"/>
</svg>
