<svg width="60" height="53" viewBox="0 0 60 53" fill="none" xmlns="http://www.w3.org/2000/svg">
<path d="M55.6223 5.2064C52.663 1.84897 48.5576 0 44.0625 0C37.7405 0 33.7379 3.77527 31.4936 6.94242C30.9112 7.76426 30.4159 8.58833 30 9.36377C29.5841 8.58833 29.0889 7.76426 28.5064 6.94242C26.2621 3.77527 22.2595 0 15.9375 0C11.4424 0 7.33699 1.84909 4.37754 5.20652C1.55473 8.40929 0 12.6987 0 17.2846C0 22.2764 1.94918 26.9194 6.13418 31.8959C9.87445 36.3437 15.2554 40.9284 21.4863 46.2373C23.8082 48.2156 26.2092 50.2615 28.7654 52.4977L28.8422 52.5649C29.1736 52.8551 29.5868 53 30 53C30.4132 53 30.8264 52.8549 31.1578 52.5649L31.2346 52.4977C33.7908 50.2615 36.1918 48.2158 38.514 46.2371C44.7447 40.9285 50.1255 36.3438 53.8658 31.8959C58.0508 26.9192 60 22.2764 60 17.2846C60 12.6987 58.4453 8.40929 55.6223 5.2064ZM36.2336 43.5618C34.232 45.2671 32.1721 47.0223 30 48.9102C27.828 47.0225 25.768 45.2673 23.7661 43.5616C11.5717 33.1716 3.51562 26.3076 3.51562 17.2846C3.51562 13.555 4.7584 10.0909 7.01508 7.53062C9.29766 4.94124 12.4663 3.51515 15.9375 3.51515C20.7573 3.51515 23.873 6.48404 25.6378 8.97464C27.2209 11.2084 28.047 13.4602 28.3287 14.3246C28.5643 15.0481 29.239 15.5378 30 15.5378C30.761 15.5378 31.4357 15.0481 31.6713 14.3246C31.953 13.4602 32.7791 11.2084 34.3622 8.97453C36.127 6.48404 39.2427 3.51515 44.0625 3.51515C47.5337 3.51515 50.7023 4.94124 52.9848 7.53062C55.2416 10.0909 56.4844 13.555 56.4844 17.2846C56.4844 26.3076 48.4283 33.1716 36.2336 43.5618Z" fill="#9A8CAE"/>
</svg>
