<svg width="60" height="45" viewBox="0 0 60 45" fill="none" xmlns="http://www.w3.org/2000/svg">
<path d="M10.052 43.2495H3.45794C2.52044 43.2495 1.75781 42.4902 1.75781 41.5566V21.4203C1.75781 20.4868 2.52044 19.7269 3.45794 19.7269H48.7114C49.1967 19.7269 49.5903 19.3349 49.5903 18.8517C49.5903 18.3686 49.1967 17.9766 48.7114 17.9766H3.45794C1.55136 17.9766 0 19.5213 0 21.4203V41.5566C0 43.4551 1.55136 44.9999 3.45794 44.9999H10.052C10.5377 44.9999 10.9309 44.6084 10.9309 44.1247C10.9309 43.6416 10.5377 43.2495 10.052 43.2495Z" fill="#9A8CAE"/>
<path d="M56.5401 17.9766H52.1735C51.6883 17.9766 51.2946 18.3686 51.2946 18.8517C51.2946 19.3349 51.6883 19.7269 52.1735 19.7269H56.5401C57.4781 19.7269 58.2407 20.4863 58.2407 21.4203V41.5566C58.2407 42.4902 57.4781 43.2495 56.5401 43.2495H13.5937C13.1085 43.2495 12.7148 43.6416 12.7148 44.1247C12.7148 44.6084 13.1085 44.9999 13.5937 44.9999H56.5401C58.4472 44.9999 59.9985 43.4551 59.9985 41.5566V21.4203C59.9985 19.5213 58.4472 17.9766 56.5401 17.9766Z" fill="#9A8CAE"/>
<path d="M5.01953 22.1016C4.5343 22.1016 4.14062 22.4936 4.14062 22.9767V40.003C4.14062 40.4862 4.5343 40.8782 5.01953 40.8782H41.2867C41.7724 40.8782 42.1656 40.4862 42.1656 40.003V22.9767C42.1656 22.4936 41.7724 22.1016 41.2867 22.1016H5.01953ZM40.4078 27.777H36.6976V23.8519H40.4078V27.777ZM5.89843 33.4524V29.5273H7.69012V33.4524H5.89843ZM9.44793 29.5273H13.501V33.4524H9.44793V29.5273ZM30.4862 27.777V23.8519H34.9398V27.777H30.4862ZM27.6811 33.4524V29.5273H32.1346V33.4524H27.6811ZM15.2588 33.4524V29.5273H19.7123V33.4524H15.2588ZM21.4701 29.5273H25.9233V33.4524H21.4701V29.5273ZM28.7284 27.777H24.2749V23.8519H28.7284V27.777ZM22.5171 27.777H18.0635V23.8519H22.5171V27.777ZM16.3057 27.777H11.8526V23.8519H16.3057V27.777ZM16.3057 35.2028V39.1278H11.8526V35.2028H16.3057ZM18.0635 35.2028H28.7284V39.1278H18.0635V35.2028ZM30.4862 35.2028H34.9398V39.1278H30.4862V35.2028ZM33.8925 33.4524V29.5273H40.4078V33.4524H33.8925ZM10.0947 23.8519V27.777H5.89843V23.8519H10.0947ZM5.89843 35.2028H10.0947V39.1278H5.89843V35.2028ZM36.6976 39.1278V35.2028H40.4078V39.1278H36.6976Z" fill="#9A8CAE"/>
<path d="M45.1602 22.9767V40.003C45.1602 40.4862 45.5534 40.8782 46.0391 40.8782H54.9815C55.4667 40.8782 55.8604 40.4862 55.8604 40.003V22.9767C55.8604 22.4936 55.4667 22.1016 54.9815 22.1016H46.0391C45.5534 22.1016 45.1602 22.4936 45.1602 22.9767ZM54.1026 29.5273V33.4524H51.3258V29.5273H54.1026ZM49.568 33.4524H46.918V29.5273H49.568V33.4524ZM46.918 35.2028H49.568V39.1278H46.918V35.2028ZM51.3258 39.1278V35.2028H54.1026V39.1278H51.3258ZM54.1026 27.777H51.3258V23.8519H54.1026V27.777ZM49.568 23.8519V27.777H46.918V23.8519H49.568Z" fill="#9A8CAE"/>
<path d="M10.7743 7.53654H47.6415C48.8139 7.53654 49.7679 8.48647 49.7679 9.65383C49.7679 10.8216 48.8139 11.7716 47.6415 11.7716H11.3753C9.23342 11.7716 7.49118 13.5064 7.49118 15.6392V15.8726C7.49118 16.3562 7.8844 16.7478 8.37008 16.7478C8.85531 16.7478 9.24899 16.3562 9.24899 15.8726V15.6392C9.24899 14.4719 10.203 13.5219 11.3753 13.5219H47.6415C49.7834 13.5219 51.5257 11.7866 51.5257 9.65383C51.5257 7.52104 49.7834 5.78619 47.6415 5.78619H10.7743C9.60192 5.78619 8.64795 4.83626 8.64795 3.66845V0.875176C8.64795 0.392006 8.25427 0 7.76904 0C7.28336 0 6.89014 0.392006 6.89014 0.875176V3.66845C6.88968 5.80123 8.63238 7.53654 10.7743 7.53654Z" fill="#9A8CAE"/>
</svg>
