<svg width="60" height="55" viewBox="0 0 60 55" fill="none" xmlns="http://www.w3.org/2000/svg">
<path d="M47.4996 26.25V22.5C47.4996 14.5884 42.2185 7.89491 34.9997 5.73714V5.00003C34.9997 2.2425 32.7561 0 29.9997 0C27.2434 0 24.9998 2.2425 24.9998 5.00003V5.73714C17.7812 7.89491 12.4999 14.5884 12.4999 22.5V26.25C12.4999 34.5714 10.5419 37.495 9.1112 39.6301C8.28374 40.8667 7.5 42.0349 7.5 43.75C7.5 47.8252 15.9954 49.2552 22.8832 49.7478C23.8489 52.8395 26.6838 55 29.9998 55C33.3159 55 36.1507 52.8395 37.1164 49.7478C44.0042 49.2552 52.4996 47.8251 52.4996 43.75C52.4996 42.035 51.7159 40.8667 50.8883 39.6302C49.4577 37.4951 47.4996 34.5716 47.4996 26.25ZM27.4999 5.00003C27.4999 3.62191 28.6205 2.50007 29.9998 2.50007C31.3791 2.50007 32.4998 3.62191 32.4998 5.00003V5.19972C31.681 5.08183 30.8508 5.00003 29.9998 5.00003C29.1488 5.00003 28.3187 5.08183 27.4999 5.19972V5.00003ZM29.9998 52.4999C28.1314 52.4999 26.4904 51.4688 25.638 49.9046C27.4092 49.9793 28.9473 50 29.9998 50C31.0525 50 32.5905 49.9793 34.3619 49.9046C33.5093 51.4688 31.8682 52.4999 29.9998 52.4999ZM29.9998 47.5C18.5521 47.5 9.99994 45.52 9.99994 43.75C9.99994 42.8357 10.3857 42.2192 11.1889 41.0218C12.7051 38.7561 14.9999 35.332 14.9999 26.25V22.5C14.9999 14.2285 21.7284 7.49999 29.9998 7.49999C38.2712 7.49999 44.9997 14.2285 44.9997 22.5V26.25C44.9997 35.332 47.2946 38.7561 48.8107 41.0217C49.6139 42.2192 49.9997 42.8356 49.9997 43.7499C49.9997 45.52 41.4475 47.5 29.9998 47.5Z" fill="#9A8CAE"/>
<path d="M58.5112 18.4132C58.2915 17.7565 57.5884 17.4049 56.9292 17.6234C56.2749 17.8419 55.9209 18.5499 56.1382 19.2042C57.0415 21.9106 57.5005 24.701 57.5005 27.5002C57.5005 30.2993 57.0415 33.0898 56.1382 35.7961C55.9209 36.4503 56.2749 37.1584 56.9292 37.3769C57.061 37.4209 57.1929 37.4416 57.3247 37.4416C57.8471 37.4416 58.3354 37.1108 58.5112 36.5871C59.4999 33.6268 60.0004 30.5691 60.0004 27.5002C60.0004 24.4313 59.4999 21.3735 58.5112 18.4132Z" fill="#9A8CAE"/>
<path d="M52.1909 19.2019C51.5367 19.4205 51.1826 20.1284 51.3999 20.7828C52.1299 22.9775 52.501 25.2371 52.501 27.5002C52.501 29.7633 52.1299 32.0229 51.3999 34.2177C51.1826 34.872 51.5367 35.58 52.1909 35.7986C52.3228 35.8413 52.4546 35.8621 52.5864 35.8621C53.1113 35.8621 53.5972 35.5313 53.7729 35.0064C54.5883 32.5576 55.0009 30.032 55.0009 27.5003C55.0009 24.9686 54.5883 22.443 53.7729 19.9942C53.5532 19.3374 52.8501 18.9919 52.1909 19.2019Z" fill="#9A8CAE"/>
<path d="M2.49994 27.5016C2.49994 24.705 2.9565 21.9132 3.85978 19.2057C4.07704 18.5502 3.72302 17.8422 3.06877 17.6237C2.41451 17.4137 1.70647 17.7605 1.48675 18.4147C0.500504 21.3786 0 24.4365 0 27.5016C0 30.5705 0.500504 33.6283 1.48921 36.5886C1.66499 37.1123 2.1533 37.4431 2.67572 37.4431C2.80756 37.4431 2.93939 37.4224 3.07123 37.3784C3.72548 37.1599 4.0795 36.4519 3.86224 35.7976C2.95896 33.0912 2.49994 30.3007 2.49994 27.5016Z" fill="#9A8CAE"/>
<path d="M8.60103 34.2183C7.87107 32.0235 7.49994 29.764 7.49994 27.5008C7.49994 25.2375 7.87107 22.978 8.60103 20.7832C8.81829 20.129 8.46427 19.4209 7.81002 19.2024C7.14838 18.9912 6.44772 19.3378 6.228 19.9946C5.41261 22.4434 5 24.9691 5 27.5008C5 30.0325 5.41261 32.5581 6.228 35.0069C6.40378 35.5317 6.88963 35.8626 7.41451 35.8626C7.54635 35.8626 7.67818 35.8418 7.81002 35.799C8.46427 35.5806 8.81829 34.8726 8.60103 34.2183Z" fill="#9A8CAE"/>
</svg>
