<svg width="60" height="61" viewBox="0 0 60 61" fill="none" xmlns="http://www.w3.org/2000/svg">
<path d="M57.2618 37.3469L58.9784 35.6306C60.0587 34.5498 60.0587 32.7914 58.9784 31.7105C58.4547 31.1873 57.7589 30.8988 57.0183 30.8988C56.4626 30.8988 55.9316 31.0614 55.4802 31.364L55.1186 30.1499L56.9766 28.2913C58.0574 27.2104 58.0574 25.452 56.9766 24.3716C55.9819 23.3764 54.4137 23.2999 53.3274 24.1372L51.1256 16.7448C52.005 15.8979 52.8472 15.0738 53.641 14.28C55.9284 11.992 57.7882 9.57071 58.8782 7.46119C60.7197 3.8959 59.9488 1.99011 58.9779 1.01912C58.0075 0.0481451 56.1019 -0.722321 52.5364 1.11938C50.4275 2.20893 48.006 4.06894 45.7186 6.357C44.9249 7.15081 44.1005 7.99269 43.2541 8.87211L35.8618 6.67013C36.699 5.58424 36.6226 4.01584 35.6279 3.0206C34.5471 1.94021 32.7889 1.93975 31.7086 3.0206L29.8501 4.87924L28.6357 4.51758C28.9383 4.06574 29.1008 3.5347 29.1008 2.97894C29.1008 2.23869 28.8124 1.54238 28.2892 1.01912C27.2089 -0.0617253 25.4502 -0.0617253 24.3699 1.01912L22.6538 2.73539L13.9065 0.129632C13.5948 0.0371582 13.2579 0.122308 13.0286 0.35212L10.7769 2.60401C10.3988 2.98169 10.4487 3.62763 10.8799 3.94305L32.95 20.099C27.9738 25.7102 23.1802 31.3283 19.796 35.3422L13.3041 32.8449C12.9778 32.7195 12.6083 32.7978 12.3612 33.045L9.69245 35.7139C9.34731 36.0596 9.34731 36.6194 9.69245 36.9646L23.0355 50.3088C23.3761 50.6499 23.9455 50.6499 24.2866 50.3088L26.9548 47.6404C27.202 47.3931 27.2807 47.0232 27.1549 46.6968L24.6583 40.2049C28.6719 36.8204 34.289 32.0264 39.9001 27.0493L41.6533 29.4454C41.9646 29.8706 42.5958 29.9256 42.9776 29.563C43.2957 29.2609 43.3397 28.7541 43.0811 28.4007L41.2276 25.8682C44.1618 23.2491 47.0594 20.6067 49.6883 18.1168L58.0217 46.0948L56.8723 47.2439L45.4188 31.5947C45.1304 31.2005 44.577 31.1149 44.1829 31.4033C43.7883 31.6922 43.7027 32.2457 43.9915 32.6398L56.0547 49.1218C56.3701 49.553 57.016 49.6029 57.3937 49.2248L59.6453 46.9729C59.8751 46.7435 59.9603 46.4061 59.8678 46.0948L57.2618 37.3469ZM32.9596 4.27175C33.346 3.88537 33.991 3.88537 34.3773 4.27175C34.7682 4.6627 34.7682 5.29858 34.3773 5.68953L33.9626 6.10429L31.7777 5.45331L32.9596 4.27175ZM25.6209 2.27027C26.0114 1.87932 26.6477 1.87932 27.0386 2.27027C27.4295 2.66123 27.4295 3.29711 27.0386 3.68806L26.7658 3.96045L24.5814 3.30992L25.6209 2.27027ZM12.7571 3.12497L13.9065 1.97591L41.8822 10.3096C39.3925 12.9392 36.7503 15.837 34.131 18.7714L12.7571 3.12497ZM13.2057 34.7027L18.5912 36.7742C17.2404 38.3829 16.2045 39.6276 15.5934 40.3642L11.5688 36.3393L13.2057 34.7027ZM16.8499 41.6208C19.9333 37.9003 36.2317 18.3466 46.9697 7.60769C49.1001 5.47666 51.4255 3.68486 53.3485 2.69144C54.7922 1.94524 56.724 1.26679 57.7274 2.27027C58.7308 3.27376 58.0519 5.20565 57.3062 6.64953C56.3129 8.57272 54.5208 10.8979 52.3899 13.0289C41.6529 23.7669 22.1003 40.0671 18.3802 43.1512L16.8499 41.6208ZM25.2978 46.7957L23.6613 48.4323L19.6367 44.4074C20.3728 43.7967 21.6179 42.7607 23.2264 41.4098L25.2978 46.7957ZM56.3097 32.9617C56.7006 32.5707 57.3364 32.5707 57.7274 32.9617C58.1183 33.3526 58.1183 33.9885 57.7274 34.3795L56.6878 35.4191L56.0369 33.2345L56.3097 32.9617ZM54.3084 25.6223C54.6989 25.2314 55.3351 25.2318 55.7261 25.6223C56.1124 26.0087 56.1124 26.6537 55.7261 27.0401L54.5441 28.2221L53.8932 26.0371L54.3084 25.6223Z" fill="#C3B7D2"/>
<path d="M53.093 50.9464L45.5451 58.4949C45.2233 58.8172 45.2018 59.3492 45.4979 59.6953C45.8289 60.0816 46.4363 60.1059 46.7961 59.7461L54.344 52.1975C54.6896 51.8519 54.6896 51.292 54.344 50.9464C53.9989 50.6012 53.4386 50.6012 53.093 50.9464Z" fill="#C3B7D2"/>
<path d="M50.5719 48.4201C50.9175 48.0749 50.9175 47.5146 50.5719 47.1694C50.2267 46.8237 49.6665 46.8237 49.3213 47.1694L44.6037 51.8869C44.2819 52.2092 44.2604 52.7412 44.5565 53.0873C44.8875 53.4737 45.4949 53.4979 45.8547 53.1381L50.5719 48.4201Z" fill="#C3B7D2"/>
<path d="M47.7428 43.7057C48.0884 43.3601 48.0884 42.7997 47.7428 42.4545C47.3972 42.1089 46.8374 42.1089 46.4918 42.4545L43.1896 45.7571C42.8678 46.0789 42.8462 46.6113 43.1429 46.9574C43.4734 47.3438 44.0808 47.368 44.4406 47.0082L47.7428 43.7057Z" fill="#C3B7D2"/>
<path d="M9.05816 6.12607C8.71255 5.78089 8.15226 5.78089 7.80711 6.12607L0.259203 13.6751C-0.0864011 14.0203 -0.0864011 14.5806 0.259203 14.9258C0.599773 15.2664 1.16922 15.2664 1.51025 14.9258L9.05816 7.37722C9.4033 7.03158 9.4033 6.4717 9.05816 6.12607Z" fill="#C3B7D2"/>
<path d="M12.8299 9.89985C12.4843 9.55422 11.9244 9.55422 11.5793 9.89985L6.86166 14.6179C6.5394 14.9397 6.51834 15.4717 6.81451 15.8177C7.14547 16.2041 7.75245 16.2284 8.11224 15.8686L12.8299 11.151C13.1755 10.8054 13.1755 10.245 12.8299 9.89985Z" fill="#C3B7D2"/>
<path d="M12.9971 17.2852C13.3382 17.6258 13.9072 17.6258 14.2482 17.2852L17.5504 13.9827C17.8956 13.6371 17.8956 13.0772 17.5504 12.7315C17.2048 12.3864 16.645 12.3864 16.2994 12.7315L12.9971 16.0341C12.652 16.3797 12.652 16.9396 12.9971 17.2852Z" fill="#C3B7D2"/>
</svg>
