<svg width="60" height="60" viewBox="0 0 60 60" fill="none" xmlns="http://www.w3.org/2000/svg">
<path d="M59.1211 40.1349C59.6065 40.1349 60 39.7293 60 39.2289V29.7477C60 26.1753 57.512 23.1921 54.2286 22.5389V20.55C57.1915 20.0284 59.4545 17.3638 59.4545 14.1632C59.4545 10.5895 56.6341 7.6821 53.1674 7.6821C49.7006 7.6821 46.8803 10.5895 46.8803 14.1632C46.8803 17.4941 49.3308 20.245 52.4708 20.6035V22.4046H39.3364V20.55C42.2993 20.0284 44.5623 17.3638 44.5623 14.1632C44.5623 10.5895 41.742 7.6821 38.2753 7.6821C34.8086 7.6821 31.9882 10.5895 31.9882 14.1632C31.9882 17.4941 34.4387 20.2449 37.5786 20.6035V22.4046H36.7061C35.9575 22.4046 35.2341 22.5164 34.5486 22.721C31.9452 18.0732 27.9143 14.5882 23.202 12.7239V4.52697C23.202 4.26833 23.0947 4.02213 22.9073 3.85011L18.9604 0.229163C18.795 0.0774346 18.5875 0.001208 18.3796 0.000362382C18.3783 0.000362382 18.3773 0 18.3761 0H11.7867C11.5959 0 11.4104 0.0639047 11.2581 0.182171L6.5918 3.80312C6.58898 3.80529 6.5877 3.80734 6.58512 3.80952C6.37641 3.97514 6.24141 4.2345 6.24141 4.52709V6.53036C6.24141 7.03073 6.63492 7.43638 7.12031 7.43638C7.6057 7.43638 7.99922 7.03073 7.99922 6.53036V5.43311H13.3158V11.3117C11.4131 11.5533 9.6184 12.1589 7.99922 13.0592V10.1543C7.99922 9.65396 7.6057 9.2483 7.12031 9.2483C6.63492 9.2483 6.24141 9.65396 6.24141 10.1543V14.2035C2.46082 17.0529 0 21.6575 0 26.8442V57.0723C0 58.6866 1.27406 60 2.83992 60H57.16C58.7259 60 59.9999 58.6866 59.9999 57.0723V42.853C59.9999 42.3526 59.6064 41.947 59.121 41.947C58.6356 41.947 58.2421 42.3526 58.2421 42.853V57.0722C58.2421 57.6874 57.7566 58.1878 57.16 58.1878H54.353V41.9229C54.353 41.6016 54.1903 41.3201 53.9456 41.1592C53.9422 41.1568 53.9395 41.1545 53.9358 41.1521L48.0764 37.4218C47.9377 37.3335 47.7777 37.2866 47.6146 37.2866H39.1276C39.1274 37.2866 39.1273 37.2866 39.1272 37.2866C38.9527 37.2868 38.778 37.3403 38.6278 37.4473L33.3932 41.1776C33.1557 41.3468 33.0141 41.6254 33.0141 41.9228V48.0741C33.0141 48.5745 33.4076 48.9801 33.893 48.9801C34.3784 48.9801 34.7719 48.5745 34.7719 48.0741V42.3979L39.1276 39.294L43.4835 42.3979V58.1309C43.4835 58.1502 43.4851 58.1689 43.4863 58.1877H41.7061V55.2057C41.7061 53.7401 40.5495 52.5478 39.1277 52.5478C37.706 52.5478 36.5494 53.7401 36.5494 55.2057V58.1877H34.7719V51.6982C34.7719 51.1978 34.3784 50.7922 33.893 50.7922C33.4076 50.7922 33.0141 51.1978 33.0141 51.6982V58.1877H23.5417V56.0861C25.7098 55.6606 27.3543 53.6931 27.3543 51.3361C27.3543 50.1767 26.9215 47.5583 26.197 45.1835C25.194 41.8949 24.038 40.2963 22.6627 40.2963C21.5963 40.2963 20.6736 41.2435 19.8421 43.1922C19.6316 43.6856 19.4432 44.2039 19.2752 44.7181C18.3066 41.7449 17.1966 40.2963 15.888 40.2963C14.6755 40.2963 13.6332 41.54 12.7161 44.0883C11.8113 41.5701 10.7466 40.2963 9.53777 40.2963C8.16258 40.2963 7.00641 41.8949 6.0034 45.1835C5.27906 47.5584 4.84617 50.1768 4.84617 51.3361C4.84617 53.6931 6.49066 55.6606 8.65887 56.0861V58.1878H2.83992C2.2432 58.1878 1.75781 57.6874 1.75781 57.0722V44.6357C1.75781 41.2158 4.45688 38.4334 7.77457 38.4334H22.915C27.2018 38.4334 30.6894 34.8382 30.6894 30.419C30.6894 26.9991 33.3885 24.2167 36.7062 24.2167H52.8765C55.8352 24.2167 58.2422 26.698 58.2422 29.7479V39.2292C58.2422 39.7293 58.6357 40.1349 59.1211 40.1349ZM33.7461 14.1632C33.7461 11.5886 35.7779 9.49414 38.2754 9.49414C40.7729 9.49414 42.8046 11.5886 42.8046 14.1632C42.8046 16.3609 41.3236 18.2076 39.3366 18.7015V15.6001C39.3461 15.5912 39.356 15.5828 39.3653 15.5734L40.7336 14.1629C41.0768 13.8091 41.0768 13.2355 40.7336 12.8817C40.3903 12.5279 39.8338 12.5279 39.4905 12.8817L39.3366 13.0404V12.4106C39.3366 11.9102 38.943 11.5045 38.4577 11.5045C37.9723 11.5045 37.5788 11.9102 37.5788 12.4106V15.4477L37.5074 15.3741C37.1641 15.0203 36.6076 15.0203 36.2645 15.3741C35.9212 15.7279 35.9212 16.3016 36.2645 16.6555L37.5503 17.9808C37.5594 17.9902 37.5694 17.9984 37.5789 18.0075V18.7769C35.4109 18.4303 33.7461 16.4935 33.7461 14.1632ZM38.3071 55.2058C38.3071 54.7394 38.6752 54.36 39.1276 54.36C39.5801 54.36 39.9482 54.7394 39.9482 55.2058V58.049H38.3071V55.2058ZM50.3782 41.0169H44.6366L44.2301 40.7272L41.9448 39.0988H47.3652L50.3782 41.0169ZM45.2413 58.1311V42.829H52.5952V58.1878H45.2385C45.2397 58.169 45.2413 58.1502 45.2413 58.1311ZM16.7671 58.1878V56.0861C17.7431 55.8945 18.6125 55.3904 19.2739 54.6788C19.9494 55.4066 20.8261 55.8989 21.7838 56.0867V58.188H16.7671V58.1878ZM21.4213 43.9925C22.1596 42.233 22.6591 42.1087 22.6617 42.1083C22.8291 42.1244 23.6393 42.8007 24.5459 45.8116C25.1948 47.9668 25.5964 50.3573 25.5964 51.336C25.5964 52.688 24.7313 53.8356 23.5417 54.2215V52.5143C23.5417 52.014 23.1482 51.6083 22.6628 51.6083C22.1774 51.6083 21.7839 52.014 21.7839 52.5143V54.2214C21.1765 54.0249 20.6409 53.6264 20.2644 53.0762C20.4674 52.5358 20.5798 51.9495 20.5798 51.336C20.5798 50.6665 20.4352 49.5102 20.1737 48.1956C20.509 46.614 20.9598 45.0926 21.4213 43.9925ZM15.8871 42.1083C16.0545 42.1244 16.8648 42.8007 17.7714 45.8116C18.0149 46.6204 18.2236 47.4622 18.3893 48.2502C18.3916 48.3652 18.4148 48.4767 18.4566 48.5797C18.6904 49.7547 18.822 50.7763 18.822 51.3361C18.822 52.6882 17.9568 53.8357 16.7671 54.2216V52.5145C16.7671 52.0141 16.3736 51.6084 15.8882 51.6084C15.4028 51.6084 15.0093 52.0141 15.0093 52.5145V54.2216C13.8197 53.8358 12.9544 52.6883 12.9544 51.3361C12.9544 50.3574 13.3561 47.9669 14.005 45.8117C14.9115 42.8007 15.7219 42.1244 15.8871 42.1083ZM6.60422 51.3361C6.60422 50.3574 7.00594 47.9669 7.6548 45.8117C8.56137 42.8007 9.3716 42.1246 9.53695 42.1084C9.86543 42.1403 10.8888 43.479 11.8082 47.2373C11.4178 48.9343 11.1967 50.5078 11.1967 51.3363C11.1967 52.0842 11.3624 52.793 11.6577 53.4258C11.3139 53.7964 10.887 54.0695 10.4169 54.2216V52.5146C10.4169 52.0142 10.0234 51.6086 9.53801 51.6086C9.05262 51.6086 8.6591 52.0142 8.6591 52.5146V54.2218C7.46941 53.8357 6.60422 52.6882 6.60422 51.3361ZM10.4169 56.0866C11.2771 55.9178 12.0718 55.5036 12.7144 54.8938C13.345 55.4921 14.1345 55.9143 15.0094 56.086V58.1877H10.4169V56.0866ZM9.74953 3.62094L12.0807 1.81204H15.9635L15.5278 2.18931L13.8746 3.62094H9.74953ZM15.0736 4.94917L18.3595 2.10366L21.4443 4.93347V12.1145C19.4395 11.5129 17.3355 11.1932 15.1825 11.1932C15.146 11.1932 15.1099 11.1944 15.0736 11.1947V4.94917ZM15.5855 24.0667H9.84387L12.8569 22.1485H18.2773L15.5855 24.0667ZM7.6268 36.6251V25.8787H14.9808V36.6213H7.77457C7.725 36.6213 7.67613 36.6242 7.6268 36.6251ZM16.7386 36.6213V25.4478L20.5001 22.7675L21.0945 22.3439L25.4502 25.4478V36.0419C24.6792 36.4128 23.8205 36.6214 22.915 36.6214H16.7386V36.6213ZM28.9316 30.419C28.9316 32.1072 28.2731 33.6392 27.2079 34.7587V24.9727C27.2079 24.6752 27.0662 24.3966 26.8288 24.2274L21.5941 20.4971C21.4438 20.39 21.2692 20.3364 21.0946 20.3364C21.0945 20.3364 21.0945 20.3364 21.0943 20.3364H12.6074C12.4443 20.3364 12.2844 20.3833 12.1455 20.4716L6.28617 24.2019C6.28336 24.2037 6.28195 24.2054 6.27926 24.2072C6.03293 24.3677 5.86898 24.6502 5.86898 24.9727V36.8657C4.23047 37.2929 2.79762 38.2575 1.75781 39.5666V26.8442C1.75781 19.2135 7.78008 13.0054 15.1826 13.0054C22.4966 13.0054 29.2064 16.9763 32.9113 23.4281C30.5389 24.8019 28.9316 27.42 28.9316 30.419ZM48.6382 14.1632C48.6382 11.5886 50.67 9.49414 53.1675 9.49414C55.6649 9.49414 57.6968 11.5886 57.6968 14.1632C57.6968 16.3609 56.2157 18.2076 54.2288 18.7015V15.6001C54.2382 15.5912 54.2482 15.5828 54.2575 15.5734L55.6257 14.1629C55.969 13.8091 55.969 13.2354 55.6257 12.8816C55.2825 12.5277 54.726 12.5279 54.3829 12.8816L54.2289 13.0403V12.4106C54.2289 11.9102 53.8354 11.5045 53.35 11.5045C52.8646 11.5045 52.4711 11.9102 52.4711 12.4106V15.4478L52.3996 15.3741C52.0563 15.0203 51.4998 15.0203 51.1567 15.3741C50.8134 15.7279 50.8134 16.3016 51.1567 16.6555L52.4425 17.9808C52.4517 17.9903 52.4617 17.9985 52.4712 18.0075V18.7769C50.303 18.4304 48.6382 16.4935 48.6382 14.1632Z" fill="#C3B7D2"/>
<path d="M40.8286 49.4836C41.314 49.4836 41.7075 49.0779 41.7075 48.5776V44.742C41.7075 44.2416 41.314 43.8359 40.8286 43.8359H37.4297C36.9443 43.8359 36.5508 44.2416 36.5508 44.742V48.5776C36.5508 49.0779 36.9443 49.4836 37.4297 49.4836H40.8286ZM38.3085 45.6479H39.9496V47.6714H38.3085V45.6479Z" fill="#C3B7D2"/>
<path d="M22.8559 26.457H19.457C18.9716 26.457 18.5781 26.8627 18.5781 27.3631V31.1987C18.5781 31.699 18.9716 32.1047 19.457 32.1047H22.8559C23.3413 32.1047 23.7348 31.699 23.7348 31.1987V27.3631C23.7348 26.8627 23.3413 26.457 22.8559 26.457ZM21.977 30.2926H20.3359V28.2691H21.977V30.2926Z" fill="#C3B7D2"/>
</svg>
