<svg width="60" height="60" viewBox="0 0 60 60" fill="none" xmlns="http://www.w3.org/2000/svg">
<path d="M57.6468 28.089C55.9904 27.6894 54.3112 28.6581 53.8885 30.257L52.7578 34.355V15C55.0431 15 56.8958 13.2091 56.8958 11V8C56.8906 7.05691 56.4318 6.16983 55.6544 5.6L50.4115 1.8C48.7984 0.632933 46.8381 0.00150951 44.8232 0H15.1743C13.1601 0.00165415 11.2005 0.633085 9.58804 1.8L4.34312 5.6C3.56532 6.16953 3.10638 7.0568 3.10172 8V11C3.10172 13.2091 4.95436 15 7.23972 15V34.355L6.11315 30.272C5.69293 28.6657 4.00517 27.6928 2.34343 28.099C0.681686 28.5052 -0.324765 30.1367 0.0954546 31.743L4.23346 46.727C4.38227 47.2938 4.69988 47.806 5.14693 48.2L4.13622 58.91C4.11038 59.1754 4.19528 59.4399 4.37204 59.6445C4.54881 59.8492 4.80281 59.9772 5.07761 60H5.17175C5.70862 60.0021 6.15794 59.6069 6.20625 59.09L7.14972 49H18.6192C20.3333 49 21.7227 50.3431 21.7227 52V56.031C21.0546 56.8864 20.6916 57.9282 20.6882 59C20.6882 59.5523 21.1514 60 21.7227 60H38.2748C38.8461 60 39.3093 59.5523 39.3093 59C39.3059 57.9282 38.9429 56.8864 38.2748 56.031V52C38.2748 50.3431 39.6643 49 41.3783 49H52.8478L53.7923 59.09C53.8406 59.6069 54.2899 60.0021 54.8268 60H54.9209C55.1955 59.9769 55.4493 59.8489 55.6258 59.6442C55.8024 59.4396 55.8871 59.1753 55.8613 58.91L54.8547 48.21C55.3015 47.8198 55.6192 47.3109 55.7682 46.747L59.9062 31.732C60.1073 30.9592 59.9822 30.1409 59.5583 29.4574C59.1344 28.774 58.4467 28.2817 57.6468 28.089ZM38.2748 47C38.2748 45.8954 39.2011 45 40.3438 45H49.8208L49.7464 45.272C49.5984 45.8438 49.6293 46.4452 49.8353 47H38.2748ZM52.7578 13H48.6198C47.4771 13 46.5508 12.1046 46.5508 11V9H54.8268V11C54.8268 12.1046 53.9005 13 52.7578 13ZM15.5157 9H23.7917V11C23.7917 12.1046 22.8654 13 21.7227 13H17.5847C16.4421 13 15.5157 12.1046 15.5157 11V9ZM25.8607 9H34.1368V11C34.1368 12.1046 33.2104 13 32.0678 13H27.9298C26.7871 13 25.8607 12.1046 25.8607 11V9ZM36.2058 9H44.4818V11C44.4818 12.1046 43.5555 13 42.4128 13H38.2748C37.1321 13 36.2058 12.1046 36.2058 11V9ZM10.8315 3.4C12.0851 2.49288 13.6084 2.0018 15.1743 2H44.8232C46.3898 2.00129 47.914 2.49241 49.1681 3.4L54.1337 7H5.86073L10.8315 3.4ZM5.17072 11V9H13.4467V11C13.4467 12.1046 12.5204 13 11.3777 13H7.23972C6.09704 13 5.17072 12.1046 5.17072 11ZM9.30872 15H11.3777C12.5661 15.0006 13.697 14.5061 14.4812 13.643C15.2654 14.5061 16.3964 15.0006 17.5847 15H21.7227C22.9111 15.0006 24.0421 14.5061 24.8262 13.643C25.6104 14.5061 26.7414 15.0006 27.9298 15H32.0678C33.2561 15.0006 34.3871 14.5061 35.1713 13.643C35.9555 14.5061 37.0864 15.0006 38.2748 15H42.4128C43.6011 15.0006 44.7321 14.5061 45.5163 13.643C46.3005 14.5061 47.4314 15.0006 48.6198 15H50.6888V41.856L50.3784 43H40.3438C38.0584 43 36.2058 44.7909 36.2058 47C36.2075 47.7841 36.6832 48.4949 37.4223 48.818C36.6418 49.7071 36.211 50.8339 36.2058 52V54.424C35.6892 54.2119 35.1402 54.0832 34.5806 54.043C34.2288 53.628 33.1023 51.844 33.1023 46V39H44.4818V40C44.4818 40.5523 44.9449 41 45.5163 41C46.0876 41 46.5508 40.5523 46.5508 40V36C46.5508 34.3431 45.1613 33 43.4473 33H33.2605L33.9578 28.283C34.0427 27.709 33.8657 27.1276 33.4727 26.6896C33.0796 26.2516 32.5093 26 31.9095 26H31.6136C32.0932 25.0822 32.6983 24.2309 33.4126 23.469C34.6976 24.3603 36.4612 24.2217 37.5803 23.1414C38.6995 22.0611 38.8454 20.3566 37.9251 19.1131C37.0049 17.8697 35.2889 17.4528 33.8698 18.1279C32.4507 18.8029 31.7455 20.3716 32.2033 21.835C31.633 22.378 31.1185 22.9731 30.667 23.612C30.4903 22.7047 30.2039 21.8206 29.8136 20.978C29.9318 20.6644 29.9944 20.3337 29.9988 20C29.9988 18.3431 28.6093 17 26.8953 17C25.1812 17 23.7917 18.3431 23.7917 20C23.7917 21.6569 25.1812 23 26.8953 23C27.3806 22.9971 27.8582 22.8826 28.2887 22.666C28.6273 23.7508 28.8372 24.8693 28.9146 26H28.087C27.4872 26 26.9168 26.2516 26.5238 26.6896C26.1308 27.1276 25.9538 27.709 26.0387 28.283L26.737 33H16.5502C14.8362 33 13.4467 34.3431 13.4467 36V40C13.4467 40.5523 13.9099 41 14.4812 41C15.0526 41 15.5157 40.5523 15.5157 40V39H26.8953V46C26.8953 51.969 25.718 53.707 25.4469 54.04C24.8769 54.0779 24.3175 54.2077 23.7917 54.424V52C23.7865 50.8339 23.3557 49.7071 22.5752 48.818C23.3143 48.4949 23.79 47.7841 23.7917 47C23.7917 44.7909 21.9391 43 19.6537 43H9.62425L9.30872 41.855V15ZM28.088 28H31.9095L31.1708 33H28.8267L28.088 28ZM26.8953 21C26.3239 21 25.8607 20.5523 25.8607 20C25.8607 19.4477 26.3239 19 26.8953 19C27.4666 19 27.9298 19.4477 27.9298 20C27.9298 20.5523 27.4666 21 26.8953 21ZM27.9298 35H43.4473C44.0186 35 44.4818 35.4477 44.4818 36V37H15.5157V36C15.5157 35.4477 15.9789 35 16.5502 35H27.9298ZM28.9643 39H31.0333V46C31.0333 50.166 31.5826 52.586 32.196 54H27.8015C28.4149 52.586 28.9643 50.166 28.9643 46V39ZM34.1368 21C34.1368 20.4477 34.5999 20 35.1713 20C35.7426 20 36.2058 20.4477 36.2058 21C36.2058 21.5523 35.7426 22 35.1713 22C34.5999 22 34.1368 21.5523 34.1368 21ZM10.1601 47C10.3665 46.44 10.3967 45.8335 10.247 45.257L10.1767 45H19.6537C20.7964 45 21.7227 45.8954 21.7227 47H10.1601ZM2.09825 31.243C2.0114 30.8956 2.12289 30.5297 2.39074 30.2833C2.65859 30.0369 3.04209 29.9473 3.39679 30.0483C3.75149 30.1493 4.0235 30.4256 4.11035 30.773L8.24836 45.757C8.38262 46.2941 8.04104 46.8347 7.48542 46.9645C6.92979 47.0943 6.37052 46.7641 6.23626 46.227L2.09825 31.243ZM22.9341 58C23.3742 56.8023 24.5459 56.0015 25.8607 56H34.1171C34.1337 56 34.1502 56.005 34.1668 56.005H34.1823C35.481 56.0232 36.6306 56.8212 37.0634 58.005L22.9341 58ZM57.9003 31.227L53.7623 46.242C53.619 46.7746 53.061 47.0983 52.5074 46.97C51.9577 46.8379 51.6202 46.3029 51.7502 45.77L55.8882 30.756C56.0222 30.2189 56.5812 29.8885 57.1368 30.018C57.6925 30.1475 58.0343 30.6879 57.9003 31.225V31.227Z" fill="#C3B7D2"/>
</svg>
