<svg width="60" height="60" viewBox="0 0 60 60" fill="none" xmlns="http://www.w3.org/2000/svg">
<path d="M59.8678 58.2875L50.0656 39.4189L51.8454 37.9298C52.1119 37.7069 52.2657 37.3778 52.2657 37.0308V8.73047C52.2657 3.91663 48.349 0 43.5352 0H16.4648C11.651 0 7.73433 3.91663 7.73433 8.73047V12.7734C7.73433 13.4203 8.25939 13.9453 8.90621 13.9453C9.55349 13.9453 10.0781 13.4203 10.0781 12.7734V8.73047C10.0781 5.20889 12.9432 2.34375 16.4648 2.34375H43.5352C47.0568 2.34375 49.9219 5.20889 49.9219 8.73047V36.4833L40.7245 44.1792H37.3828V42.48C37.3828 41.8332 36.8582 41.3081 36.2109 41.3081C35.5637 41.3081 35.0391 41.8332 35.0391 42.48V44.1792H31.4795V42.48C31.4795 41.8332 30.9549 41.3081 30.3081 41.3081C29.6608 41.3081 29.1362 41.8332 29.1362 42.48V44.1792H25.5766V42.48C25.5766 41.8332 25.052 41.3081 24.4047 41.3081C23.7579 41.3081 23.2329 41.8332 23.2329 42.48V44.1792H19.2755L10.0781 36.4833V23.7891C10.0781 23.1418 9.55349 22.6172 8.90621 22.6172C8.25939 22.6172 7.73433 23.1418 7.73433 23.7891V37.0312C7.73433 37.3782 7.88814 37.7074 8.15456 37.9298L9.93435 39.4189L0.13224 58.2875C-0.166222 58.8615 0.0576249 59.5692 0.631662 59.8677C0.804697 59.9574 0.989176 59.9995 1.17091 59.9995C1.59434 59.9995 2.00358 59.7697 2.21186 59.3678L11.775 40.9593L13.3946 42.3143L7.22622 58.4084C6.99459 59.0126 7.29671 59.6901 7.90096 59.9222C8.03921 59.9748 8.18066 60 8.32027 60C8.79131 60 9.2358 59.7134 9.41479 59.247L10.6535 56.0152H40.4297C41.0765 56.0152 41.6016 55.4906 41.6016 54.8433C41.6016 54.196 41.0765 53.6714 40.4297 53.6714H11.5516L12.4543 51.3167C12.5042 51.3231 12.5541 51.3277 12.6059 51.3277H47.3534C47.4184 51.3277 47.4816 51.3213 47.5434 51.3112L50.5852 59.247C50.7642 59.7134 51.2082 60 51.6797 60C51.8193 60 51.9608 59.9748 52.099 59.9222C52.7033 59.6901 53.0054 59.0126 52.7738 58.4084L46.6054 42.3143L48.225 40.9593L57.7881 59.3678C57.9969 59.7697 58.4057 59.9995 58.8291 59.9995C59.0108 59.9995 59.1958 59.9574 59.3683 59.8677C59.9424 59.5692 60.1662 58.862 59.8678 58.2875ZM46.6516 48.9839H13.3484L15.2952 43.9046L18.0981 46.2502C18.3087 46.4264 18.5751 46.523 18.8502 46.523H41.1502C41.4253 46.523 41.6913 46.4264 41.9019 46.2502L44.7048 43.9046L46.6516 48.9839Z" fill="#C3B7D2"/>
<path d="M45.2344 53.6719C44.9258 53.6719 44.6237 53.7973 44.4058 54.0152C44.1879 54.2336 44.0625 54.5357 44.0625 54.8438C44.0625 55.1523 44.1875 55.4544 44.4058 55.6723C44.6237 55.8902 44.9258 56.0156 45.2344 56.0156C45.5425 56.0156 45.8446 55.8902 46.0625 55.6723C46.2808 55.4544 46.4063 55.1523 46.4063 54.8438C46.4063 54.5357 46.2808 54.2336 46.0625 54.0152C45.8446 53.7973 45.5425 53.6719 45.2344 53.6719Z" fill="#C3B7D2"/>
<path d="M46.6407 11.9531C46.6407 10.0145 45.0637 8.4375 43.1251 8.4375H16.875C14.9368 8.4375 13.3594 10.0145 13.3594 11.9531V22.2656C13.3594 24.2043 14.9368 25.7812 16.875 25.7812H43.1251C45.0637 25.7812 46.6407 24.2043 46.6407 22.2656V11.9531ZM15.7031 22.2656V11.9531C15.7031 11.3068 16.2291 10.7812 16.875 10.7812H28.8282V23.4375H16.875C16.2291 23.4375 15.7031 22.9115 15.7031 22.2656ZM44.2969 22.2656C44.2969 22.9115 43.771 23.4375 43.1251 23.4375H31.1719V10.7812H43.1251C43.771 10.7812 44.2969 11.3068 44.2969 11.9531V22.2656Z" fill="#C3B7D2"/>
<path d="M17.3047 36.7969C19.5015 36.7969 21.2891 35.0093 21.2891 32.8125C21.2891 30.6152 19.5015 28.8281 17.3047 28.8281C15.1079 28.8281 13.3203 30.6152 13.3203 32.8125C13.3203 35.0093 15.1079 36.7969 17.3047 36.7969ZM17.3047 31.1719C18.2092 31.1719 18.9453 31.9075 18.9453 32.8125C18.9453 33.717 18.2092 34.4531 17.3047 34.4531C16.4002 34.4531 15.6641 33.717 15.6641 32.8125C15.6641 31.9075 16.4002 31.1719 17.3047 31.1719Z" fill="#C3B7D2"/>
<path d="M42.6563 28.8281C40.459 28.8281 38.6719 30.6152 38.6719 32.8125C38.6719 35.0093 40.459 36.7969 42.6563 36.7969C44.8531 36.7969 46.6406 35.0093 46.6406 32.8125C46.6406 30.6152 44.8531 28.8281 42.6563 28.8281ZM42.6563 34.4531C41.7513 34.4531 41.0156 33.717 41.0156 32.8125C41.0156 31.9075 41.7513 31.1719 42.6563 31.1719C43.5608 31.1719 44.2969 31.9075 44.2969 32.8125C44.2969 33.717 43.5608 34.4531 42.6563 34.4531Z" fill="#C3B7D2"/>
<path d="M36.2125 28.8438H24.4063C23.7594 28.8438 23.2344 29.3683 23.2344 30.0156C23.2344 30.6629 23.7594 31.1875 24.4063 31.1875H36.2125C36.8597 31.1875 37.3843 30.6629 37.3843 30.0156C37.3843 29.3683 36.8597 28.8438 36.2125 28.8438Z" fill="#C3B7D2"/>
<path d="M36.2125 34.4531H24.4063C23.7594 34.4531 23.2344 34.9777 23.2344 35.625C23.2344 36.2718 23.7594 36.7969 24.4063 36.7969H36.2125C36.8597 36.7969 37.3843 36.2718 37.3843 35.625C37.3843 34.9777 36.8597 34.4531 36.2125 34.4531Z" fill="#C3B7D2"/>
<path d="M8.90625 19.2578C9.21479 19.2578 9.51691 19.1338 9.73481 18.9145C9.9527 18.6966 10.0781 18.3954 10.0781 18.0859C10.0781 17.7779 9.9527 17.4757 9.73481 17.2578C9.51691 17.0395 9.21479 16.9141 8.90625 16.9141C8.59818 16.9141 8.29605 17.0395 8.0777 17.2578C7.8598 17.4757 7.73438 17.7779 7.73438 18.0859C7.73438 18.3954 7.8598 18.6966 8.0777 18.9145C8.29605 19.1338 8.59818 19.2578 8.90625 19.2578Z" fill="#C3B7D2"/>
</svg>
