<svg width="60" height="30" viewBox="0 0 60 30" fill="none" xmlns="http://www.w3.org/2000/svg">
<path d="M57.2286 11.9972C55.5455 11.0993 53.779 10.3707 51.9784 9.83157C51.5126 9.69246 51.0243 9.96482 50.8878 10.4407C50.7513 10.9166 51.0182 11.4155 51.484 11.555C53.1746 12.0611 54.8336 12.7455 56.4151 13.5892C56.5901 13.6824 56.7535 13.7911 56.9069 13.9106C55.9472 13.9204 55.0035 13.9616 54.2718 14.1062C52.6361 14.4296 52.2927 15.2794 52.2927 15.9352C52.2927 17.7805 54.7252 19.3992 57.4982 19.3992C57.7491 19.3992 57.9969 19.3887 58.2422 19.3719V20.2136H53.6938C52.6334 18.6387 50.8579 17.6034 48.8495 17.6034C46.8412 17.6034 45.0657 18.6387 44.0054 20.2136H18.7717C17.7113 18.6387 15.9358 17.6034 13.9274 17.6034C11.9191 17.6034 10.1436 18.6387 9.08329 20.2136H1.75792V18.0742H2.94151C3.4269 18.0742 3.82041 17.6723 3.82041 17.1763V16.4986H5.83744C7.02958 16.4986 7.99954 15.5078 7.99954 14.2899V13.517C7.99954 13.0609 7.86407 12.6226 7.6079 12.2492L5.81845 9.6411H7.94423C8.24458 9.6411 8.5243 9.48426 8.68567 9.22542C9.78231 7.46587 11.4254 5.85406 13.5691 4.43476C14.9101 3.54691 16.3599 2.8797 17.8795 2.43685C17.6119 2.5938 17.3483 2.75675 17.09 2.92783C15.4117 4.0392 13.9944 5.27952 12.8773 6.61417C12.4134 7.1686 12.3035 7.92644 12.5903 8.5921C12.8752 9.25296 13.4916 9.67857 14.1992 9.70299C14.1992 9.70299 42.4726 10.6788 42.481 10.679C42.4894 10.679 42.4979 10.6782 42.5064 10.678C42.5305 10.6774 42.5544 10.6764 42.5778 10.6739L42.5807 10.6738C44.2279 10.4896 45.9272 10.5079 47.6319 10.7283C48.114 10.7911 48.5532 10.4422 48.6141 9.95022C48.675 9.45828 48.334 9.00897 47.8524 8.94671C46.1503 8.72654 44.4506 8.69326 42.7939 8.84734C41.4072 7.52526 40.0509 6.24998 38.758 5.05253C35.6598 2.18472 31.6571 0.479639 27.4876 0.25145L23.3964 0.0275713C19.5272 -0.183378 15.7981 0.81929 12.613 2.92795C10.4223 4.37825 8.69505 6.03077 7.4722 7.84539C4.54908 7.85832 4.28905 7.81774 3.98026 7.87556C2.89593 8.04736 2.06249 9.00514 2.06249 10.1608V15.5904C2.06249 15.5939 2.06202 15.5974 2.06202 15.6008C2.06202 15.6043 2.06249 15.6078 2.06249 15.6113V16.2785H1.23281C0.553006 16.2785 0 16.843 0 17.5367V23.0309C0 23.6292 0.416834 24.1481 0.988473 24.2643L8.46102 25.8065C9.32188 28.0318 11.4468 29.6109 13.9273 29.6109C16.2571 29.6109 18.2745 28.2187 19.2244 26.2059H22.466C22.9514 26.2059 23.345 25.804 23.345 25.308C23.345 24.812 22.9514 24.4101 22.466 24.4101H19.7499C19.7845 24.1473 19.8039 23.8797 19.8039 23.6073C19.8039 23.0541 19.7288 22.5187 19.591 22.0097H43.1859C43.0481 22.5187 42.973 23.0541 42.973 23.6073C42.973 23.8797 42.9925 24.1473 43.027 24.4101H26.5676C26.0822 24.4101 25.6887 24.812 25.6887 25.308C25.6887 25.804 26.0822 26.2059 26.5676 26.2059H43.5525C44.5024 28.2188 46.5197 29.6109 48.8494 29.6109C51.1792 29.6109 53.1966 28.2187 54.1465 26.2059H56.8242C58.5754 26.2059 60 24.7504 60 22.9614V16.6629C59.9999 14.6965 58.9379 12.9089 57.2286 11.9972ZM14.1991 7.86802C14.1792 7.82193 14.2015 7.79535 14.2134 7.78098C16.6818 4.83164 20.5379 2.43481 24.974 1.91199L26.8072 2.01232C27.0994 3.11795 27.4943 5.77995 26.8023 8.34092L14.2586 7.90789C14.2385 7.90717 14.2156 7.90645 14.1991 7.86802ZM40.1638 8.80221L28.5977 8.40294C29.1275 6.08896 28.9549 3.70135 28.645 2.1634C31.956 2.60745 35.0897 4.07979 37.5777 6.38287C38.4157 7.15903 39.2809 7.96858 40.1638 8.80221ZM6.24173 13.5168V14.2898C6.24173 14.5175 6.06045 14.7027 5.83744 14.7027H3.82041V10.1606C3.82041 10.0792 3.84045 10.0031 3.87315 9.93441L6.16849 13.2799C6.2163 13.3496 6.24173 13.4316 6.24173 13.5168ZM1.75792 22.5907V22.0094H8.26391C8.09704 22.6261 8.02872 23.2512 8.05802 23.891L1.75792 22.5907ZM13.9274 27.8147C11.6565 27.8147 9.80879 25.9271 9.80879 23.607C9.80879 21.2869 11.6565 19.3992 13.9274 19.3992C16.1985 19.3992 18.0462 21.2869 18.0462 23.607C18.0462 25.9271 16.1985 27.8147 13.9274 27.8147ZM57.4981 17.6033C55.5115 17.6033 54.2092 16.5632 54.064 16.0285C54.4279 15.8127 55.5814 15.7036 57.4981 15.7036C57.7058 15.7036 57.9122 15.7111 58.1161 15.7248C58.1986 16.0254 58.2421 16.3402 58.2421 16.6625V17.5733C57.9986 17.5931 57.75 17.6033 57.4981 17.6033ZM48.8494 27.8147C46.5785 27.8147 44.7308 25.9271 44.7308 23.607C44.7308 21.2869 46.5785 19.3992 48.8494 19.3992C51.1205 19.3992 52.9682 21.2869 52.9682 23.607C52.9682 25.9271 51.1205 27.8147 48.8494 27.8147ZM56.8241 24.4097H54.6719C54.7064 24.1469 54.7259 23.8794 54.7259 23.607C54.7259 23.0537 54.6508 22.5184 54.513 22.0093H58.2421V22.9611C58.2421 23.7599 57.606 24.4097 56.8241 24.4097Z" fill="#C3B7D2"/>
<path d="M13.9285 20.6719C12.3439 20.6719 11.0547 21.9889 11.0547 23.6077C11.0547 25.2266 12.3439 26.5436 13.9285 26.5436C15.5131 26.5436 16.8022 25.2266 16.8022 23.6077C16.8022 21.9889 15.5131 20.6719 13.9285 20.6719ZM13.9285 24.7479C13.3131 24.7479 12.8125 24.2365 12.8125 23.6078C12.8125 22.9792 13.3131 22.4678 13.9285 22.4678C14.5438 22.4678 15.0444 22.9792 15.0444 23.6078C15.0444 24.2365 14.5438 24.7479 13.9285 24.7479Z" fill="#C3B7D2"/>
<path d="M48.8503 20.6719C47.2657 20.6719 45.9766 21.9889 45.9766 23.6077C45.9766 25.2266 47.2657 26.5436 48.8503 26.5436C50.4349 26.5436 51.7241 25.2266 51.7241 23.6077C51.7241 21.9889 50.4349 20.6719 48.8503 20.6719ZM48.8503 24.7479C48.235 24.7479 47.7344 24.2365 47.7344 23.6078C47.7344 22.9792 48.235 22.4678 48.8503 22.4678C49.4657 22.4678 49.9663 22.9792 49.9663 23.6078C49.9663 24.2365 49.4657 24.7479 48.8503 24.7479Z" fill="#C3B7D2"/>
<path d="M30 11.5352C29.5146 11.5352 29.1211 11.9371 29.1211 12.4331C29.1211 12.9291 29.5146 13.331 30 13.331H30.6094C31.0948 13.331 31.4883 12.9291 31.4883 12.4331C31.4883 11.9371 31.0948 11.5352 30.6094 11.5352H30Z" fill="#C3B7D2"/>
<path d="M16.8633 11.5352C16.3779 11.5352 15.9844 11.9371 15.9844 12.4331C15.9844 12.9291 16.3779 13.331 16.8633 13.331H17.4726C17.958 13.331 18.3516 12.9291 18.3516 12.4331C18.3516 11.9371 17.958 11.5352 17.4726 11.5352H16.8633Z" fill="#C3B7D2"/>
</svg>
