<svg width="60" height="60" viewBox="0 0 60 60" fill="none" xmlns="http://www.w3.org/2000/svg">
<path d="M20.4153 32.2408C20.9044 32.2408 21.3008 31.8474 21.3008 31.3619C21.3008 30.8764 20.9044 30.483 20.4153 30.483H16.4184V27.8472C16.4184 27.3617 16.022 26.9683 15.5329 26.9683C15.0438 26.9683 14.6475 27.3617 14.6475 27.8472V30.483H11.5358V20.3329C11.5358 19.6862 11.0297 19.1797 10.3836 19.1797H1.30419C0.572936 19.1797 0 19.8082 0 20.6104V58.5702C0 59.3724 0.572936 60.0009 1.30419 60.0009H19.9966C20.7157 60.0009 21.3008 59.3591 21.3008 58.5702V49.4573C21.3008 48.9718 20.9044 48.5784 20.4153 48.5784C19.9262 48.5784 19.5299 48.9718 19.5299 49.4573V58.2431H1.77099V20.9375H9.76507V23.1493H6.77418C6.28506 23.1493 5.88874 23.5427 5.88874 24.0282C5.88874 24.5137 6.28506 24.9071 6.77418 24.9071H9.76495V28.0986H7.08149C6.59237 28.0986 6.19605 28.492 6.19605 28.9775C6.19605 29.463 6.59237 29.8564 7.08149 29.8564H9.76495V37.6223C9.76495 38.1078 10.1613 38.5012 10.6504 38.5012H19.5299V45.3707C19.5299 45.8563 19.9262 46.2497 20.4153 46.2497C20.9044 46.2497 21.3008 45.8563 21.3008 45.3707V37.8965C21.3008 37.1843 20.6834 36.7434 20.1114 36.7434H16.4184V32.2408H20.4153ZM14.6475 36.7434H11.5358V32.2408H14.6474V36.7434H14.6475Z" fill="#C3B7D2"/>
<path d="M50.6109 40.6506V36.3105V28.3587C50.6109 28.3583 50.6109 28.3579 50.6109 28.3575V25.8232V16.0656C50.6109 16.0652 50.6109 16.0648 50.6109 16.0644V15.336V10.7972H52.3355C53.1402 10.7972 53.7948 10.1479 53.7948 9.34969V9.26883H58.3828C58.775 9.26883 59.1348 9.14273 59.4151 8.93344C59.4659 8.89969 59.5139 8.86031 59.5583 8.81496C59.5684 8.80477 59.577 8.79375 59.5864 8.7832C59.8432 8.52574 60.0009 8.18684 60.0009 7.81477V2.98242C60.0009 2.18051 59.2751 1.52824 58.3828 1.52824H53.795V1.4475C53.795 0.649336 53.1403 0 52.3356 0H41.0749C40.2702 0 39.6155 0.649336 39.6155 1.4475V1.52824H37.9414H28.0901C28.0891 1.52824 28.0881 1.52824 28.0871 1.52824H27.3525H14.6771C13.783 1.52824 13.0557 2.18051 13.0557 2.98242V7.81465C13.0557 8.61644 13.783 9.26871 14.6771 9.26871H18.8902V12.2986L15.6147 15.7543H14.8055C14.0306 15.7543 13.4002 16.3796 13.4002 17.1483V21.2583C13.4002 22.0287 14.0306 22.6555 14.8055 22.6555H24.7427C25.5195 22.6555 26.1515 22.0287 26.1515 21.2583V17.1483C26.1515 16.3796 25.5195 15.7543 24.7427 15.7543H23.9369L20.6612 12.2986V9.26883H27.3527H37.9415H39.6156V9.34969C39.6156 10.1479 40.2703 10.7972 41.075 10.7972H42.7995V15.3357V25.8231V36.3104V45.9188H40.0246C38.7973 45.9188 37.7988 46.9086 37.7988 48.1254V53.8579H36.8273C35.1177 53.8579 33.7267 55.2363 33.7267 56.9306V58.5325C33.7267 59.3416 34.3921 59.9999 35.2099 59.9999H58.4809C59.2968 59.9999 59.9605 59.3416 59.9605 58.5325V56.9306C59.9605 55.2363 58.5711 53.8579 56.8635 53.8579H55.892V48.1254C55.892 46.9086 54.8918 45.9188 53.6626 45.9188H50.6109V40.6518C50.6109 40.6514 50.6109 40.6511 50.6109 40.6506ZM58.2302 3.28641V6.30984L55.0928 3.28629L58.2302 3.28641ZM53.795 4.48547L56.9344 7.51102H53.795V4.48547ZM14.8265 7.51055V3.28605H15.3174L19.6997 7.51066L14.8265 7.51055ZM24.3805 17.5123V20.8978H15.1709V17.5123H24.3805ZM21.5052 15.7545H18.0461L19.7757 13.9297L21.5052 15.7545ZM17.8592 3.28605H25.9061L21.8826 7.16473L17.8592 3.28605ZM27.3526 7.51102L24.0654 7.5109L28.0887 3.63234L32.1121 7.51102H27.3526ZM30.2713 3.28605H37.9414H38.3182L34.2947 7.16473L30.2713 3.28605ZM37.9414 7.51102H36.4773L39.6155 4.48594V7.51102H37.9414ZM53.6625 47.6767C53.9154 47.6767 54.121 47.878 54.121 48.1255V53.858H48.9658C48.4767 53.858 48.0803 54.2514 48.0803 54.7369C48.0803 55.2224 48.4767 55.6158 48.9658 55.6158H56.8634C57.5947 55.6158 58.1895 56.2056 58.1895 56.9307V58.2422H35.4976V56.9307C35.4976 56.2056 36.0941 55.6158 36.8273 55.6158H44.6777C45.1668 55.6158 45.5631 55.2224 45.5631 54.7369C45.5631 54.2514 45.1668 53.858 44.6777 53.858H39.5696V48.1255C39.5696 47.8822 39.7781 47.6767 40.0246 47.6767H43.6848H49.7255H53.6625ZM48.4886 16.0649L44.5704 20.0518V15.3357V12.0778L48.4886 16.0649ZM45.7855 10.7972H48.84V13.9054L45.7855 10.7972ZM48.84 18.2244V25.8231V26.1983L44.9217 22.2113L48.84 18.2244ZM48.4886 28.358L44.5704 32.345V25.8231V24.3709L48.4886 28.358ZM48.84 30.5176V36.3105V38.4916L44.9218 34.5046L48.84 30.5176ZM48.4886 40.6513L44.5704 44.6382V36.6642L48.4886 40.6513ZM48.84 42.8108V45.9189H45.7855L48.84 42.8108ZM49.7255 9.03938H43.6965C43.6959 9.03938 43.6952 9.03938 43.6945 9.03938H43.6848H41.3862V1.75781H52.024V9.03938H49.7255Z" fill="#C3B7D2"/>
<path d="M17.4045 42.4387C17.4045 41.7142 16.8118 41.125 16.0835 41.125H5.2111C4.48079 41.125 3.88672 41.7142 3.88672 42.4387V46.0237C3.88672 46.7481 4.48079 47.3373 5.2111 47.3373H16.0835C16.812 47.3373 17.4045 46.7481 17.4045 46.0237V42.4387ZM9.76177 45.5795H5.65759V42.8828H9.76189V45.5795H9.76177ZM15.6336 45.5795H11.5326V42.8828H15.6335V45.5795H15.6336Z" fill="#C3B7D2"/>
<path d="M16.0834 49.9648H5.2111C4.48079 49.9648 3.88672 50.5541 3.88672 51.2785V54.8635C3.88672 55.5879 4.48079 56.1771 5.2111 56.1771H16.0835C16.812 56.1771 17.4045 55.5879 17.4045 54.8635V51.2785C17.4045 50.5541 16.8118 49.9648 16.0834 49.9648ZM9.76177 54.4193H5.65759V51.7227H9.76189V54.4193H9.76177ZM15.6336 54.4193H11.5326V51.7227H15.6335V54.4193H15.6336Z" fill="#C3B7D2"/>
</svg>
