<svg width="60" height="42" viewBox="0 0 60 42" fill="none" xmlns="http://www.w3.org/2000/svg">
<path d="M54.9153 23H52.8814V21H55.1695C55.9109 20.9992 56.6218 20.7092 57.1461 20.1936C57.6703 19.6781 57.9653 18.9791 57.9661 18.25V12C57.9661 9.87827 57.109 7.84344 55.5832 6.34315C54.0575 4.84285 51.9882 4 49.8305 4C47.6728 4 45.6035 4.84285 44.0778 6.34315C42.5521 7.84344 41.6949 9.87827 41.6949 12V18.25C41.6958 18.9791 41.9907 19.6781 42.515 20.1936C43.0392 20.7092 43.7501 20.9992 44.4915 21H46.7797V23H44.7458C43.7172 23.0002 42.7129 23.3069 41.8652 23.8796C41.0174 24.4523 40.366 25.2641 39.9969 26.2081L38.9198 26.0314L34.5763 24.323V21.7396C35.5176 21.0956 36.2866 20.2373 36.8178 19.2379C37.349 18.2385 37.6267 17.1277 37.6271 16C38.2449 16.0004 38.8482 15.8162 39.3571 15.4719C39.8661 15.1276 40.2567 14.6395 40.4772 14.072C40.6977 13.5046 40.7377 12.8847 40.592 12.2944C40.4462 11.7041 40.1216 11.1712 39.661 10.7664V9C39.661 6.61305 38.6967 4.32387 36.9803 2.63604C35.2639 0.948211 32.9359 0 30.5085 0C28.0811 0 25.7531 0.948211 24.0367 2.63604C22.3202 4.32387 21.3559 6.61305 21.3559 9V10.7664C20.8954 11.1712 20.5707 11.7041 20.425 12.2944C20.2792 12.8847 20.3192 13.5046 20.5398 14.072C20.7603 14.6395 21.1509 15.1276 21.6598 15.4719C22.1688 15.8162 22.7721 16.0004 23.3898 16C23.3903 17.1277 23.6679 18.2385 24.1991 19.2379C24.7303 20.2373 25.4994 21.0956 26.4407 21.7396V24.323L22.0973 26.0314L21.6866 26.0988C21.1829 25.1641 20.4301 24.3819 19.5088 23.836C18.5875 23.2901 17.5324 23.0011 16.4568 23H14.2373V19.9972C15.2317 19.2635 15.9189 18.1975 16.1695 17H16.2712C16.8538 17.0005 17.4242 16.8368 17.9151 16.5283C18.406 16.2198 18.7968 15.7795 19.0411 15.2595C19.2854 14.7394 19.373 14.1614 19.2936 13.5939C19.2142 13.0264 18.9712 12.4931 18.5931 12.0572L19.1038 10.1596C19.1089 10.1409 19.1133 10.1221 19.1174 10.1029C19.1852 9.77275 19.2192 9.43679 19.2191 9.1C19.2191 8.43026 19.0849 7.76708 18.8243 7.14832C18.5636 6.52955 18.1816 5.96733 17.7 5.49376C17.2184 5.02018 16.6466 4.64451 16.0174 4.38821C15.3881 4.13192 14.7137 4 14.0326 4H10.7034C9.84144 3.99902 8.99147 3.80152 8.22025 3.423L5.53932 2.1055C5.38428 2.02932 5.21201 1.99336 5.03886 2.00105C4.86572 2.00874 4.69744 2.05982 4.55002 2.14944C4.40259 2.23905 4.2809 2.36424 4.1965 2.5131C4.11211 2.66196 4.0678 2.82957 4.0678 3V8C4.06861 8.62014 4.26453 9.22485 4.62867 9.73117C4.99282 10.2375 5.50735 10.6206 6.1017 10.828V11C5.29256 11 4.51656 11.3161 3.94442 11.8787C3.37228 12.4413 3.05085 13.2044 3.05085 14C3.05085 14.7956 3.37228 15.5587 3.94442 16.1213C4.51656 16.6839 5.29256 17 6.1017 17H6.20403C6.45441 18.1974 7.1414 19.2634 8.13559 19.9972V23H5.9161C4.3476 23.0018 2.84385 23.6152 1.73476 24.7058C0.625658 25.7965 0.00178317 27.2751 0 28.8175V41C0 41.2652 0.107143 41.5196 0.297857 41.7071C0.488572 41.8946 0.747238 42 1.01695 42H58.9831C59.2528 42 59.5114 41.8946 59.7021 41.7071C59.8929 41.5196 60 41.2652 60 41V28C59.9985 26.6744 59.4623 25.4035 58.509 24.4661C57.5558 23.5288 56.2633 23.0015 54.9153 23ZM44.7458 13V15C44.4761 15 44.2174 14.8946 44.0267 14.7071C43.836 14.5196 43.7288 14.2652 43.7288 14C43.7288 13.7348 43.836 13.4804 44.0267 13.2929C44.2174 13.1054 44.4761 13 44.7458 13ZM55.9322 14C55.9319 14.2651 55.8247 14.5193 55.634 14.7068C55.4434 14.8942 55.1849 14.9997 54.9153 15V13C55.1849 13.0003 55.4434 13.1058 55.634 13.2932C55.8247 13.4807 55.9319 13.7349 55.9322 14ZM52.8814 16C52.8814 16.7956 52.5599 17.5587 51.9878 18.1213C51.4156 18.6839 50.6396 19 49.8305 19C49.0214 19 48.2454 18.6839 47.6732 18.1213C47.1011 17.5587 46.7797 16.7956 46.7797 16V13H52.8814V16ZM48.8136 20.9C49.4847 21.0342 50.1764 21.0342 50.8475 20.9V23.6979L49.8305 25.1979L48.8136 23.6979V20.9ZM55.1695 19H53.8955C54.3487 18.4087 54.6621 17.7254 54.8129 17H54.9153C55.2617 17.0001 55.6057 16.942 55.9322 16.828V18.25C55.932 18.4489 55.8516 18.6395 55.7086 18.7801C55.5656 18.9207 55.3717 18.9998 55.1695 19ZM49.8305 6C51.2994 5.99993 52.7189 6.5209 53.8286 7.46724C54.9382 8.41358 55.6635 9.72177 55.8712 11.1516C55.5628 11.0512 55.2401 11 54.9153 11H44.7458C44.4213 11 44.099 11.051 43.791 11.1513C44.0004 9.72238 44.726 8.41543 45.8351 7.46951C46.9441 6.52358 48.3624 6.00193 49.8305 6ZM43.7288 18.25V16.828C44.0553 16.942 44.3993 17.0001 44.7458 17H44.8481C44.9989 17.7254 45.3123 18.4087 45.7655 19H44.4915C44.2893 18.9998 44.0954 18.9207 43.9524 18.7801C43.8094 18.6395 43.729 18.4489 43.7288 18.25ZM38.4768 27.9864L40.755 28.3602C41.587 28.4943 42.3433 28.9153 42.8883 29.548C43.4333 30.1806 43.7312 30.9834 43.7288 31.8125V33H38.6441C38.3744 33 38.1157 33.1054 37.925 33.2929C37.7343 33.4804 37.6271 33.7348 37.6271 34V40H34.4879L33.5813 30.1929L33.8378 29.6883L33.8572 29.7071C33.9844 29.8323 34.1431 29.9219 34.3172 29.967C34.4912 30.0121 34.6743 30.011 34.8477 29.9638C35.0211 29.9165 35.1787 29.8249 35.3043 29.6982C35.43 29.5715 35.5192 29.4143 35.5628 29.2426L36.1128 27.0814L38.2664 27.9285C38.3342 27.9552 38.4047 27.9746 38.4768 27.9864ZM39.661 35H43.7288V40H39.661V35ZM33.3634 26L34.2069 26.3317L34.0256 27.0443L32.9635 26H33.3634ZM26.8101 26.3317L27.6535 26H28.0534L26.9914 27.0443L26.8101 26.3317ZM28.695 28.1975L30.5085 26.4142L32.3219 28.1975L31.9139 29H29.1031L28.695 28.1975ZM37.6271 14V12C37.8968 12 38.1555 12.1054 38.3462 12.2929C38.5369 12.4804 38.6441 12.7348 38.6441 13C38.6441 13.2652 38.5369 13.5196 38.3462 13.7071C38.1555 13.8946 37.8968 14 37.6271 14ZM23.3898 9C23.3898 7.14348 24.1398 5.36301 25.4748 4.05025C26.8098 2.7375 28.6205 2 30.5085 2C32.3965 2 34.2071 2.7375 35.5421 4.05025C36.8771 5.36301 37.6271 7.14348 37.6271 9V10H36.8263L27.8709 6.08612C27.6605 5.99412 27.4245 5.97507 27.2017 6.03209C26.9788 6.08911 26.7822 6.21882 26.6441 6.4L23.8983 10H23.3898V9ZM22.3729 13C22.3732 12.7349 22.4804 12.4807 22.6711 12.2932C22.8617 12.1058 23.1202 12.0003 23.3898 12V14C23.1202 13.9997 22.8617 13.8942 22.6711 13.7068C22.4804 13.5193 22.3732 13.2651 22.3729 13ZM25.4237 16V11.3334L27.785 8.2375L35.5932 11.65V16C35.5932 17.3261 35.0575 18.5979 34.1039 19.5355C33.1504 20.4732 31.857 21 30.5085 21C29.1599 21 27.8666 20.4732 26.913 19.5355C25.9594 18.5979 25.4237 17.3261 25.4237 16ZM30.5085 23C31.1973 23 31.8824 22.9015 32.5424 22.7074V24H28.4746V22.7074C29.1345 22.9015 29.8197 23 30.5085 23ZM19.5174 26.4711C18.2996 26.7606 17.2166 27.4451 16.4431 28.4142C15.6696 29.3834 15.2508 30.5805 15.2542 31.8125V40H12.2034V29.2771L14.8131 25H16.4568C17.047 25.0007 17.6294 25.1335 18.1597 25.3884C18.69 25.6433 19.1543 26.0135 19.5174 26.4711ZM11.1864 19C10.3776 18.9991 9.60215 18.6827 9.03021 18.1203C8.45827 17.5579 8.13654 16.7954 8.13559 16V11H14.2373V16C14.2363 16.7954 13.9146 17.5579 13.3427 18.1203C12.7707 18.6827 11.9953 18.9991 11.1864 19ZM16.2712 15V13C16.5409 13 16.7996 13.1054 16.9903 13.2929C17.181 13.4804 17.2881 13.7348 17.2881 14C17.2881 14.2652 17.181 14.5196 16.9903 14.7071C16.7996 14.8946 16.5409 15 16.2712 15ZM6.1017 4.61763L7.31034 5.21162C8.36416 5.72884 9.5256 5.9987 10.7034 6H14.0326C14.8687 6 15.6706 6.32661 16.2618 6.90797C16.853 7.48933 17.1852 8.27783 17.1852 9.1C17.1854 9.29405 17.1667 9.48768 17.1295 9.67825L16.7631 11.0395C16.6005 11.0133 16.436 11.0001 16.2712 11V10C16.2712 9.73478 16.164 9.48043 15.9733 9.29289C15.7826 9.10536 15.5239 9 15.2542 9H7.11864C6.84903 8.9997 6.59054 8.89425 6.39989 8.70678C6.20924 8.51931 6.102 8.26513 6.1017 8V4.61763ZM5.08475 14C5.08505 13.7349 5.19229 13.4807 5.38294 13.2932C5.57359 13.1058 5.83208 13.0003 6.1017 13V15C5.83208 14.9997 5.57359 14.8942 5.38294 14.7068C5.19229 14.5193 5.08505 14.2651 5.08475 14ZM11.1864 21C11.528 21.0001 11.8687 20.9664 12.2034 20.8994V24C12.2033 24.1485 12.2369 24.2951 12.3017 24.4291C12.3665 24.5632 12.461 24.6814 12.5781 24.775L11.1864 27.0563L9.79462 24.775C9.91181 24.6814 10.0063 24.5632 10.0711 24.4292C10.136 24.2951 10.1696 24.1485 10.1695 24V20.9C10.5042 20.9668 10.8449 21.0003 11.1864 21ZM5.9161 25H7.55975L10.1695 29.2771V40H6.1017V31C6.1017 30.7348 5.99455 30.4804 5.80384 30.2929C5.61312 30.1054 5.35446 30 5.08475 30H2.0339V28.8175C2.03504 27.8054 2.44443 26.835 3.17223 26.1194C3.90004 25.4037 4.88683 25.0011 5.9161 25ZM2.0339 32H4.0678V33H2.0339V32ZM2.0339 40V35H4.0678V40H2.0339ZM17.2881 35H21.3559V40H17.2881V35ZM23.3898 34C23.3898 33.7348 23.2827 33.4804 23.092 33.2929C22.9013 33.1054 22.6426 33 22.3729 33H17.2881V31.8125C17.2858 30.9833 17.5839 30.1804 18.129 29.5477C18.6741 28.9151 19.4305 28.494 20.2627 28.3601L22.5403 27.9865C22.6124 27.9747 22.683 27.9552 22.7508 27.9285L24.9044 27.0814L25.4544 29.2426C25.498 29.4143 25.5872 29.5715 25.7129 29.6982C25.8385 29.8249 25.9961 29.9165 26.1695 29.9638C26.3429 30.011 26.526 30.0121 26.7 29.967C26.8741 29.9219 27.0328 29.8323 27.16 29.7071L27.1794 29.6883L27.4359 30.1929L26.5297 40H23.3898V34ZM28.5713 40L29.4033 31H31.6136L32.4456 40H28.5713ZM45.7627 33V31.8125C45.7661 30.6738 45.4086 29.5625 44.74 28.6328C44.0714 27.7031 43.1249 27.0013 42.032 26.625C42.2896 26.1357 42.6789 25.7253 43.1574 25.4388C43.636 25.1522 44.1854 25.0004 44.7458 25H47.2524L48.9844 27.5547C49.0773 27.6917 49.2031 27.804 49.3507 27.8817C49.4983 27.9593 49.6631 28 49.8305 28C49.9979 28 50.1627 27.9593 50.3103 27.8817C50.4579 27.804 50.5837 27.6917 50.6766 27.5547L52.4086 25H54.9153C55.7241 25.0009 56.4995 25.3173 57.0715 25.8797C57.6434 26.4421 57.9652 27.2046 57.9661 28H55.622C55.4515 28 55.2838 28.0421 55.1342 28.1225C54.9846 28.2029 54.8579 28.319 54.7659 28.4601C54.6738 28.6012 54.6194 28.7628 54.6074 28.93C54.5955 29.0973 54.6265 29.2648 54.6976 29.4171C54.8768 29.7966 54.9535 30.2152 54.9204 30.6323C54.8873 31.0495 54.7454 31.4512 54.5085 31.7988L54.0699 32.445C53.9582 32.6093 53.8985 32.8024 53.8983 33V40H45.7627V33ZM55.9322 40V33.303L56.1999 32.9085C56.7836 32.0534 57.0455 31.0247 56.9404 30H57.9661V40H55.9322Z" fill="#C3B7D2"/>
</svg>
