<svg width="24" height="23" viewBox="0 0 24 23" fill="none" xmlns="http://www.w3.org/2000/svg">
<path d="M13.9472 0.0793344C13.6688 -0.0534655 13.3408 -0.0182656 13.1008 0.175334L5.3184 6.40093H1.6C0.7184 6.40093 0 7.11933 0 8.00093V14.4009C0 15.2841 0.7184 16.0009 1.6 16.0009H5.3184L13.0992 22.2265C13.2448 22.3417 13.4224 22.4009 13.6 22.4009C13.7184 22.4009 13.8368 22.3737 13.9472 22.3209C14.224 22.1881 14.4 21.9081 14.4 21.6009V0.800934C14.4 0.493734 14.224 0.213734 13.9472 0.0793344Z" fill="#040826"/>
<path d="M18.4519 5.54272C18.1367 5.23232 17.6311 5.23712 17.3207 5.54912C17.0103 5.86432 17.0135 6.36992 17.3271 6.68192C18.5367 7.87552 19.2023 9.48032 19.2023 11.2003C19.2023 12.9203 18.5367 14.5251 17.3271 15.7187C17.0135 16.0275 17.0103 16.5347 17.3207 16.8499C17.4775 17.0083 17.6839 17.0867 17.8887 17.0867C18.0919 17.0867 18.2951 17.0099 18.4519 16.8547C19.9687 15.3619 20.8023 13.3523 20.8023 11.2003C20.8023 9.04832 19.9687 7.03872 18.4519 5.54272Z" fill="#040826"/>
<path d="M20.7076 3.2908C20.3924 2.9788 19.8868 2.982 19.5748 3.2956C19.2644 3.6092 19.2676 4.1164 19.5796 4.4268C21.3988 6.23 22.4004 8.6364 22.4004 11.2028C22.4004 13.7692 21.3988 16.174 19.5796 17.9772C19.2676 18.2892 19.2644 18.7964 19.5748 19.11C19.7332 19.2668 19.938 19.3452 20.1428 19.3452C20.346 19.3452 20.5508 19.2684 20.7076 19.1132C22.8324 17.0092 24.0004 14.1996 24.0004 11.2028C24.0004 8.206 22.8324 5.3964 20.7076 3.2908Z" fill="#040826"/>
</svg>
