<svg width="24" height="20" viewBox="0 0 24 20" fill="none" xmlns="http://www.w3.org/2000/svg">
<path d="M9.99992 0C15.5123 0 19.995 4.48741 19.995 9.99983V10.0329L21.9742 7.05231C22.1679 6.75945 22.5647 6.67915 22.8575 6.87282C23.1504 7.06649 23.2307 7.46327 23.037 7.75613L20.1651 12.0782C20.0612 12.2341 19.8958 12.3333 19.7116 12.3569C19.6833 12.3616 19.6597 12.3616 19.6313 12.3616C19.4754 12.3616 19.3243 12.3049 19.2062 12.1963L15.2148 8.60165C14.955 8.36547 14.9313 7.96397 15.1675 7.69945C15.4037 7.43965 15.8052 7.41603 16.0697 7.65221L18.7197 10.0471V9.99983C18.7197 5.1865 14.8085 1.27537 9.99992 1.27537C5.1913 1.27537 1.27545 5.1865 1.27545 9.99983C1.27545 14.8132 5.18658 18.7243 9.99519 18.7243C12.3239 18.7243 14.5157 17.8174 16.1595 16.1688C16.4098 15.9185 16.8113 15.9185 17.0617 16.1688C17.312 16.4192 17.312 16.8207 17.0617 17.071C15.1722 18.9605 12.664 19.9997 9.99519 19.9997C4.48749 19.9997 8.2016e-05 15.517 8.2016e-05 9.99983C8.2016e-05 4.48268 4.48749 0 9.99992 0Z" fill="#040826"/>
<path d="M9.31981 5.0625C6.59643 5.0625 4.38086 7.27807 4.38086 10.0014C4.38086 12.7248 6.59643 14.9404 9.31981 14.9404C12.0432 14.9404 14.2588 12.7248 14.2588 10.0014C14.2588 7.27807 12.0432 5.0625 9.31981 5.0625ZM9.31981 13.8608C7.19168 13.8608 5.46041 12.1296 5.46041 10.0014C5.46041 7.87343 7.19168 6.14205 9.31981 6.14205C11.4479 6.14205 13.1792 7.87343 13.1792 10.0014C13.1792 12.1296 11.4479 13.8608 9.31981 13.8608Z" fill="#040826"/>
<path d="M9.74498 10.008V7.93796C9.74498 7.70683 9.55768 7.51953 9.32664 7.51953C9.09552 7.51953 8.9082 7.70683 8.9082 7.93796V10.1417C8.9082 10.1482 8.90983 10.1544 8.91014 10.161C8.90464 10.2748 8.94384 10.3903 9.03073 10.4772L10.5891 12.0354C10.7525 12.1989 11.0174 12.1989 11.1808 12.0354C11.3441 11.872 11.3442 11.6071 11.1808 11.4437L9.74498 10.008Z" fill="#040826"/>
</svg>
