<svg width="88" height="88" viewBox="0 0 88 88" fill="none" xmlns="http://www.w3.org/2000/svg">
<path opacity="0.7" d="M4.95006 25.0544C4.95006 25.0544 -0.718791 39.6941 7.24769 54.4356C15.2142 69.177 31.6229 76.9646 44.756 83.6237C57.8891 90.2827 71.5265 87.0396 78.0066 76.133C84.4868 65.2263 75.5992 57.4408 75.587 41.8881C75.5748 26.3354 77.9151 22.2179 69.4871 9.0787C61.0591 -4.0605 40.3987 -6.97016 24.7748 2.77547C9.15086 12.5211 4.95006 25.0544 4.95006 25.0544Z" fill="white"/>
<path d="M3.59261 28.5854C11.2826 20.8975 17.7952 27.3471 20.5402 17.024C26.7377 -6.29593 52.4427 -6.0743 55.8221 10.5195C61.9118 40.409 88.4362 21.4282 88.239 42.8348C88.0357 65.6911 71.2203 83.5008 41.0664 85.2718C14.0499 86.868 -9.1501 41.324 3.59261 28.5854Z" fill="#B994DA"/>
<path opacity="0.7" d="M3.59261 28.5854C11.2826 20.8975 17.7952 27.3471 20.5402 17.024C26.7377 -6.29593 52.4427 -6.0743 55.8221 10.5195C61.9118 40.409 88.4362 21.4282 88.239 42.8348C88.0357 65.6911 71.2203 83.5008 41.0664 85.2718C14.0499 86.868 -9.1501 41.324 3.59261 28.5854Z" fill="white"/>
<path d="M22.6717 15.4795C22.6229 15.0729 22.808 14.8106 23.2045 14.7638C23.6009 14.717 23.8409 14.9224 23.8897 15.3372L24.0462 16.6609C24.093 17.0675 23.908 17.3298 23.5115 17.3766C23.115 17.4234 22.8751 17.218 22.8263 16.8032L22.6717 15.4795ZM23.2309 16.7849C23.2533 16.9638 23.3366 17.0289 23.4688 17.0147C23.6009 17.0004 23.6721 16.915 23.6457 16.7361L23.485 15.3555C23.4627 15.1766 23.3732 15.1115 23.2471 15.1278C23.1211 15.144 23.0438 15.2254 23.0703 15.4043L23.2309 16.7849ZM24.7965 14.6072L25.1707 14.5625L24.0544 18.7755L23.6802 18.8202L24.7965 14.6072ZM24.8392 16.7198C24.7904 16.3132 24.9775 16.0488 25.374 16.0041C25.7705 15.9594 26.0104 16.1627 26.0592 16.5755L26.2137 17.8991C26.2625 18.3058 26.0775 18.5681 25.679 18.6149C25.2805 18.6616 25.0426 18.4563 24.9938 18.0415L24.8392 16.7198ZM25.4004 18.0232C25.4208 18.2021 25.5041 18.2692 25.6363 18.2529C25.7684 18.2367 25.8396 18.1533 25.8152 17.9744L25.6525 16.5938C25.6322 16.4169 25.5428 16.3518 25.4167 16.366C25.2906 16.3803 25.2134 16.4657 25.2398 16.6426L25.4004 18.0232Z" fill="#263238"/>
<path d="M27.1601 19.5304L22.451 20.0814C22.344 20.094 22.2363 20.0637 22.1517 19.9969C22.067 19.9302 22.0123 19.8326 21.9996 19.7256L21.4343 14.8701C21.4244 14.7797 21.4347 14.6883 21.4646 14.6025C21.4945 14.5166 21.5432 14.4385 21.6072 14.374L23.5714 12.4403C23.666 12.3465 23.7893 12.2871 23.9216 12.2716C24.0539 12.2561 24.1876 12.2855 24.3013 12.3549L26.6579 13.7782C26.7355 13.8253 26.8013 13.8896 26.8503 13.9661C26.8993 14.0425 26.9302 14.1292 26.9405 14.2194L27.5099 19.0749C27.5237 19.1817 27.4947 19.2896 27.4291 19.375C27.3636 19.4603 27.2668 19.5162 27.1601 19.5304V19.5304Z" stroke="#263238" stroke-linecap="round" stroke-linejoin="round"/>
<path d="M24.3117 12.9792C24.319 13.0389 24.3084 13.0993 24.2812 13.1529C24.2541 13.2066 24.2116 13.2509 24.1592 13.2803C24.1068 13.3097 24.0468 13.3228 23.9869 13.3181C23.927 13.3133 23.8699 13.2908 23.8228 13.2535C23.7757 13.2162 23.7407 13.1657 23.7224 13.1084C23.7041 13.0512 23.7032 12.9898 23.7199 12.9321C23.7366 12.8743 23.77 12.8228 23.816 12.7842C23.862 12.7455 23.9185 12.7214 23.9782 12.7149C24.0575 12.7057 24.1372 12.7284 24.1997 12.778C24.2622 12.8276 24.3025 12.8999 24.3117 12.9792V12.9792Z" stroke="#263238" stroke-linecap="round" stroke-linejoin="round"/>
<path d="M24.0151 9.58398C24.0151 9.58398 24.9342 13.1219 24.0151 13.0203" stroke="#263238" stroke-linecap="round" stroke-linejoin="round"/>
<path d="M23.7778 12.3074C23.9568 11.3232 24.8575 9.66406 24.8575 9.66406" stroke="#263238" stroke-linecap="round" stroke-linejoin="round"/>
<path d="M24.0117 13.0133C23.9579 13.0099 23.9066 12.9898 23.8647 12.956C23.8228 12.9221 23.7924 12.8761 23.7778 12.8242" stroke="#263238" stroke-linecap="round" stroke-linejoin="round"/>
<path d="M28.1147 10.8906C28.939 11.5567 29.5706 12.4306 29.9447 13.4221" stroke="#263238" stroke-linecap="round" stroke-linejoin="round"/>
<path d="M18.5952 14.0298C18.8315 13.1209 19.2791 12.2805 19.9016 11.5773C20.5241 10.8741 21.3039 10.3278 22.1774 9.98294C23.051 9.63811 23.9937 9.50447 24.9287 9.59291C25.8637 9.68135 26.7646 9.98937 27.558 10.4919" stroke="#263238" stroke-linecap="round" stroke-linejoin="round"/>
<path d="M20.4522 20.0241C19.3771 19.0906 18.6734 17.8017 18.4697 16.3926" stroke="#263238" stroke-linecap="round" stroke-linejoin="round"/>
<path d="M24.1344 21.4881C23.0467 21.4446 21.9918 21.1035 21.0845 20.502" stroke="#263238" stroke-linecap="round" stroke-linejoin="round"/>
<path d="M30.2688 14.666C30.498 16.2307 30.0964 17.8223 29.1523 19.0909C28.2082 20.3594 26.7989 21.2011 25.2344 21.4308" stroke="#263238" stroke-linecap="round" stroke-linejoin="round"/>
<path d="M9.27592 34.5062L16.7623 35.9577L15.8903 40.4551C15.8733 40.5428 15.8221 40.6202 15.7481 40.6702C15.674 40.7202 15.5831 40.7387 15.4954 40.7217L8.66863 39.3981C8.58091 39.3811 8.50353 39.33 8.45352 39.2559C8.40351 39.1819 8.38498 39.091 8.40198 39.0032L9.27393 34.5059L9.27592 34.5062Z" stroke="#263238" stroke-width="0.998248" stroke-linecap="round" stroke-linejoin="round"/>
<path d="M17.0239 36.0605L9.14353 34.5416L9.37443 33.3437C9.39138 33.2558 9.44254 33.1782 9.51668 33.128C9.59082 33.0778 9.68185 33.0592 9.76975 33.0761L16.9953 34.4688C17.0804 34.4874 17.155 34.5381 17.2036 34.6103C17.2522 34.6826 17.2709 34.7708 17.256 34.8566L17.0251 36.0546L17.0239 36.0605Z" stroke="#263238" stroke-linecap="round" stroke-linejoin="round"/>
<path d="M13.9237 33.8707L12.8516 33.6641L11.6232 40.0371L12.6953 40.2437L13.9237 33.8707Z" stroke="#263238" stroke-linecap="round" stroke-linejoin="round"/>
<path d="M13.3877 33.7671C13.3877 33.7671 15.2482 32.4088 16.1083 32.8196C16.9683 33.2303 16.5434 34.375 16.1083 34.2917" stroke="#263238" stroke-linecap="round" stroke-linejoin="round"/>
<path d="M14.1245 33.9076C14.1245 33.9076 15.6373 33.1553 15.8569 33.501C16.0765 33.8466 15.4238 34.1659 14.9216 34.0683" stroke="#263238" stroke-linecap="round" stroke-linejoin="round"/>
<path d="M13.438 33.6739C13.438 33.6739 14.2228 32.2505 14.1212 31.791H14.6437C14.6437 31.791 14.8145 32.3319 14.2045 33.257" stroke="#263238" stroke-linecap="round" stroke-linejoin="round"/>
<path d="M13.3883 33.7674C13.3883 33.7674 12.1683 31.8154 11.2147 31.8784C10.2611 31.9415 10.2347 33.1594 10.6677 33.2428" stroke="#263238" stroke-linecap="round" stroke-linejoin="round"/>
<path d="M12.6522 33.6245C12.6522 33.6245 11.5278 32.3619 11.1963 32.5977C10.8649 32.8336 11.3529 33.3744 11.8551 33.47" stroke="#263238" stroke-linecap="round" stroke-linejoin="round"/>
<path d="M13.3742 33.6611C13.3742 33.6611 13.1709 32.0447 13.4413 31.6604L12.9533 31.457C12.9533 31.457 12.5955 31.8962 12.8191 32.982" stroke="#263238" stroke-linecap="round" stroke-linejoin="round"/>
<path d="M18.9248 31.4824C19.763 32.5416 20.3041 33.8048 20.4925 35.1424" stroke="#263238" stroke-linecap="round" stroke-linejoin="round"/>
<path d="M6.18164 32.7022C6.73265 31.637 7.5275 30.7169 8.50144 30.017C9.47537 29.3171 10.6009 28.8572 11.7862 28.6746C12.9716 28.4921 14.1833 28.5922 15.3227 28.9666C16.4621 29.3411 17.4969 29.9794 18.3428 30.8295" stroke="#263238" stroke-linecap="round" stroke-linejoin="round"/>
<path d="M6.79481 40.6926C5.72044 39.2257 5.20817 37.422 5.35116 35.6094" stroke="#263238" stroke-linecap="round" stroke-linejoin="round"/>
<path d="M10.9765 43.5531C9.63088 43.1937 8.41029 42.4705 7.44873 41.4629" stroke="#263238" stroke-linecap="round" stroke-linejoin="round"/>
<path d="M20.5403 36.7891C20.3841 38.8024 19.4345 40.6711 17.9005 41.9844C16.3665 43.2976 14.3737 43.9477 12.3604 43.7918" stroke="#263238" stroke-linecap="round" stroke-linejoin="round"/>
<path d="M50.6555 16.514L50.0171 16.1887C50.1119 15.9083 50.1438 15.6105 50.1106 15.3164C50.314 15.414 50.5295 15.5197 50.7206 15.6072C50.7104 15.8695 50.6942 16.1785 50.6555 16.514Z" stroke="#263238" stroke-linecap="round" stroke-linejoin="round"/>
<path d="M51.5871 16.0263C51.7894 16.1294 52.0059 16.2021 52.2296 16.2418C52.4638 17.492 52.2802 18.7846 51.707 19.9201C51.5423 20.2413 49.812 19.3548 49.9746 19.0335C50.3454 18.2393 50.5765 17.387 50.6578 16.5143C50.6965 16.1788 50.7188 15.8697 50.729 15.6074C51.0909 15.7782 51.4081 15.9348 51.5871 16.0263Z" stroke="#263238" stroke-linecap="round" stroke-linejoin="round"/>
<path d="M53.6519 11.9955C54.1347 12.2424 54.5129 12.6544 54.7177 13.1565C54.9226 13.6586 54.9405 14.2176 54.7682 14.7318C54.5958 15.246 54.2448 15.6813 53.7788 15.9586C53.3127 16.2359 52.7627 16.3369 52.2286 16.243C52.0049 16.2033 51.7884 16.1307 51.5861 16.0275C51.4071 15.936 51.0899 15.7794 50.728 15.6086C50.5247 15.5131 50.3213 15.4155 50.118 15.3179C49.6178 15.0881 49.1339 14.8767 48.8838 14.7953L51.0716 10.5254C51.5271 10.8589 53.1395 11.7332 53.6519 11.9955Z" stroke="#263238" stroke-linecap="round" stroke-linejoin="round"/>
<path d="M48.9474 8.50254C49.5603 9.26723 50.2737 9.9457 51.0681 10.5196L48.8803 14.7895C47.9493 14.4846 46.9816 14.3061 46.0032 14.2588L45.1553 14.2141L48.4086 7.84375L48.9474 8.50254Z" stroke="#263238" stroke-linecap="round" stroke-linejoin="round"/>
<path d="M44.1675 14.3922L47.9819 6.94018C48.0114 6.88392 48.0619 6.84151 48.1223 6.82211C48.1828 6.80271 48.2485 6.80787 48.3052 6.83648L48.5858 6.98085C48.6425 7.00998 48.6853 7.06026 48.7051 7.12078C48.7249 7.1813 48.72 7.24718 48.6916 7.30414L48.413 7.84703L45.1597 14.2174L44.8832 14.7603C44.8688 14.7883 44.849 14.8133 44.8249 14.8336C44.8009 14.854 44.7731 14.8695 44.743 14.8791C44.713 14.8888 44.6814 14.8924 44.65 14.8898C44.6185 14.8872 44.5879 14.8784 44.5599 14.864L44.2773 14.7196C44.248 14.706 44.2217 14.6865 44.2002 14.6625C44.1787 14.6384 44.1623 14.6102 44.152 14.5795C44.1417 14.5489 44.1378 14.5165 44.1405 14.4843C44.1431 14.4521 44.1523 14.4208 44.1675 14.3922V14.3922Z" stroke="#263238" stroke-linecap="round" stroke-linejoin="round"/>
<path d="M44.284 9.74646L42.814 8.99414" stroke="#263238" stroke-linecap="round" stroke-linejoin="round"/>
<path d="M46.0043 7.3882L45.0771 5.76562" stroke="#263238" stroke-linecap="round" stroke-linejoin="round"/>
<path d="M43.3784 12.5215L41.522 12.7187" stroke="#263238" stroke-linecap="round" stroke-linejoin="round"/>
<path d="M55.6627 5.50225C54.3793 4.31345 52.801 3.48992 51.0918 3.11719" stroke="#263238" stroke-linecap="round" stroke-linejoin="round"/>
<path d="M52.8164 21.7819C54.2423 21.1783 55.5057 20.2467 56.5036 19.0628C57.5016 17.8789 58.2059 16.4761 58.5594 14.9686C58.9129 13.4611 58.9056 11.8914 58.538 10.3873C58.1703 8.88312 57.4528 7.48701 56.4438 6.3125" stroke="#263238" stroke-linecap="round" stroke-linejoin="round"/>
<path d="M42.5908 20.1953C44.3717 21.7261 46.6433 22.566 48.9917 22.5621" stroke="#263238" stroke-linecap="round" stroke-linejoin="round"/>
<path d="M39.3257 14.5312C39.6543 16.3008 40.464 17.9456 41.666 19.2851" stroke="#263238" stroke-linecap="round" stroke-linejoin="round"/>
<path d="M48.9924 2.88867C46.3834 2.88867 43.8813 3.92508 42.0365 5.7699C40.1917 7.61472 39.1553 10.1168 39.1553 12.7258" stroke="#263238" stroke-linecap="round" stroke-linejoin="round"/>
<path d="M31.5686 28.5645C30.7431 27.8264 29.8871 28.1579 29.4499 28.408C29.3625 27.9078 29.0433 27.0457 27.9534 26.8993C26.7619 26.7407 25.7859 27.9017 26.1051 29.5202C26.3369 30.6853 27.0811 31.7568 27.4797 32.255C27.5264 32.316 27.5712 32.3688 27.6078 32.4115H27.8111C28.4536 32.3851 29.7468 32.257 30.7797 31.6755C32.2091 30.8622 32.4633 29.3657 31.5686 28.5645Z" stroke="#263238" stroke-linecap="round" stroke-linejoin="round"/>
<path d="M26.9358 33.1699C26.9358 33.1699 26.8809 33.2696 26.8057 33.4444" stroke="#263238" stroke-linecap="round" stroke-linejoin="round"/>
<path d="M26.5985 34.0117C26.2732 35.0751 26.0495 36.897 27.7819 38.0011C32.064 40.7318 33.5056 34.2903 30.2218 34.8698C27.9669 35.2764 30.352 41.236 33.8818 40.0344" stroke="#263238" stroke-linecap="round" stroke-linejoin="round" stroke-dasharray="2.98 2.98"/>
<path d="M34.1738 39.9213C34.2633 39.8806 34.3548 39.8359 34.4463 39.7871" stroke="#263238" stroke-linecap="round" stroke-linejoin="round"/>
<path d="M28.8922 79.2756C28.8922 79.2756 26.4746 80.9205 25.5007 80.8107C25.3937 80.8052 25.2921 80.762 25.214 80.6887C24.5796 80.034 24.0692 78.8832 24.0692 78.8832C24.0692 78.8832 24.3722 78.4643 25.3055 79.5765L25.8972 79.0336L24.6772 77.8014C24.6772 77.8014 25.3665 77.2545 26.5377 77.9519C26.497 77.8665 25.7426 76.2236 26.312 73.987L23.4653 71.24L25.9907 69.0399L26.194 68.8691C26.194 68.8691 26.3526 69.0257 26.6007 69.2758C26.8487 69.5259 27.1924 69.8268 27.5645 70.1542C28.4551 70.937 29.5327 71.7808 30.0044 71.7808C30.8544 71.7524 28.8922 79.2756 28.8922 79.2756Z" fill="white"/>
<path opacity="0.4" d="M27.0192 78.199C27.0192 78.199 25.6406 79.6223 25.4963 80.8118C25.3893 80.8063 25.2877 80.7631 25.2096 80.6898C24.5752 80.0351 24.0648 78.8842 24.0648 78.8842C24.0648 78.8842 24.3678 78.4654 25.3011 79.5776L25.8928 79.0347L24.6728 77.8025C24.6728 77.8025 25.3621 77.2556 26.5333 77.953C26.4926 77.8676 25.7382 76.2247 26.3076 73.988L23.4609 71.241L25.9863 69.041L26.5963 69.2708C26.8464 69.5066 27.188 69.8218 27.5601 70.1492C27.0253 70.932 25.8806 72.5525 25.8806 72.5525L26.8708 73.8945C26.8708 73.8945 26.2608 77.2779 27.0192 78.199Z" fill="#B994DA"/>
<path d="M28.8922 79.2756C28.8922 79.2756 26.4746 80.9205 25.5007 80.8107C25.3937 80.8052 25.2921 80.762 25.214 80.6887C24.5796 80.034 24.0692 78.8832 24.0692 78.8832C24.0692 78.8832 24.3722 78.4643 25.3055 79.5765L25.8972 79.0336L24.6772 77.8014C24.6772 77.8014 25.3665 77.2545 26.5377 77.9519C26.497 77.8665 25.7426 76.2236 26.312 73.987L23.4653 71.24L25.9907 69.0399L26.194 68.8691C26.194 68.8691 26.3526 69.0257 26.6007 69.2758C26.8487 69.5259 27.1924 69.8268 27.5645 70.1542C28.4551 70.937 29.5327 71.7808 30.0044 71.7808C30.8544 71.7524 28.8922 79.2756 28.8922 79.2756Z" stroke="#263238" stroke-linecap="round" stroke-linejoin="round"/>
<path d="M25.9072 79.0348C26.0412 78.6342 26.2581 78.2663 26.5437 77.9551" stroke="#263238" stroke-linecap="round" stroke-linejoin="round"/>
<path d="M71.0024 60.1272C70.621 60.6836 70.1599 61.1809 69.634 61.6034C65.1892 65.2836 54.9413 67.0933 54.9413 67.0933C54.9413 67.0933 54.5977 67.6077 54.0691 68.3397C53.1215 69.6552 51.5701 71.6763 50.3054 72.6889C49.7707 73.118 49.2888 73.366 48.9207 73.2989L50.8442 80.4013L51.7043 83.4837C51.7043 83.4837 42.8676 87.347 27.7541 82.9307C27.7541 82.9307 27.5812 80.9584 27.7093 80.5375C27.7093 80.5172 27.7215 80.4968 27.7297 80.4744C27.8835 80.1942 28.0844 79.9425 28.3234 79.7303C28.3234 79.7303 28.238 78.4615 28.1953 77.1703C28.1465 76.3472 28.1567 75.5216 28.2258 74.6999C28.3336 74.0492 28.8093 72.4754 29.0493 71.7028L29.1896 71.2534L28.4372 64.2101L28.2217 62.1768L28.2095 62.071C28.2095 62.0568 28.2095 62.0405 28.2095 62.0202L28.0916 60.9324L24.2039 62.1198C24.2039 62.1198 24.4072 62.5753 24.6878 63.2137C25.1982 64.3829 25.9485 66.162 26.1112 66.8737C26.1234 66.9317 26.1397 66.9888 26.16 67.0445C26.5198 68.0713 27.8903 69.0046 27.8903 69.0046L24.208 73.3071L23.1202 72.5466C22.9809 72.6497 22.8341 72.7421 22.681 72.8231C21.9652 73.2115 20.4647 73.7829 18.8177 72.9106C18.104 72.5094 17.4842 71.9603 16.9999 71.3002C14.1126 67.5508 12.856 64.4825 13.2647 60.8897C13.6734 57.2968 29.8423 46.2092 33.0508 46.3251L37.823 47.3784C37.9267 47.293 38.2052 47.0734 38.4208 47.0835C39.289 47.1283 39.3114 48.1368 39.3114 48.1368L50.0065 49.8732C50.0065 49.8732 51.1147 49.3181 51.3078 49.3263C51.4475 49.3357 51.5826 49.3799 51.7009 49.4548C51.8191 49.5297 51.9168 49.633 51.9849 49.7553C51.9849 49.7553 54.7543 48.0961 55.6449 48.4825C58.5769 49.7472 73.1679 56.8373 71.0024 60.1272Z" fill="#B994DA"/>
<path opacity="0.2" d="M33.8473 77.6984C32.6319 79.0344 31.0001 79.9195 29.2175 80.2095C28.6542 80.299 28.1601 80.3885 27.7271 80.4779C27.8809 80.1977 28.0817 79.946 28.3208 79.7338C28.3208 79.7338 28.2354 78.465 28.1927 77.1738C29.4472 78.0014 31.6351 78.957 33.8473 77.6984Z" fill="black"/>
<path opacity="0.2" d="M29.0451 71.7115L29.1854 71.2621L28.4331 64.2188C29.5575 65.8312 33.5672 71.3231 36.3305 71.9168C39.2198 72.535 31.4953 73.6309 29.0451 71.7115Z" fill="black"/>
<path opacity="0.2" d="M50.841 80.4115C47.8216 80.0679 43.5537 79.3075 43.1267 77.7276C42.4618 75.2591 45.6968 73.7789 50.3063 72.6992C49.7715 73.1282 49.2896 73.3763 48.9216 73.3092L50.841 80.4115Z" fill="black"/>
<path opacity="0.2" d="M69.6326 61.6056C65.1878 65.2859 54.9399 67.0955 54.9399 67.0955C54.9399 67.0955 54.5963 67.6099 54.0676 68.3419C52.5599 64.7421 52.3296 60.7348 53.4149 56.9859C53.4149 56.9859 54.2039 61.2559 57.4815 62.2725C57.4815 62.2725 54.9724 60.4039 55.8549 55.9062C55.8549 55.9062 56.7109 61.1928 62.2801 62.6609C64.9824 63.3868 67.6277 62.5979 69.6326 61.6056Z" fill="black"/>
<path opacity="0.2" d="M28.2018 62.0852L28.0798 60.9466L24.1921 62.134C24.1921 62.134 24.3954 62.5895 24.676 63.2279C23.1897 63.0754 20.3695 64.4479 19.8774 62.9514C19.2837 61.1377 22.9274 61.7619 22.9274 61.7619L26.3718 59.7591C25.7211 56.9735 27.3783 54.8792 27.3783 54.8792L27.6934 56.823C27.8439 53.1285 29.2896 51.1074 29.2896 51.1074C28.094 54.0293 28.1265 61.2292 28.2018 62.0852Z" fill="black"/>
<path opacity="0.2" d="M27.891 69.0107L24.2086 73.3131L23.1208 72.5527C22.9816 72.6557 22.8348 72.7482 22.6816 72.8292C21.9659 73.2176 20.4653 73.7889 18.8184 72.9166C20.0119 71.2656 22.4783 68.8358 25.4083 67.8984C24.689 68.9689 24.041 70.0856 23.4685 71.2412L24.2249 71.9854C24.2249 71.9854 26.1118 69.8341 27.891 69.0107Z" fill="black"/>
<path opacity="0.2" d="M36.8312 50.0605C36.8312 50.4408 36.5913 54.7371 39.7225 55.8819C42.8538 57.0266 45.6313 55.0909 45.6313 55.0909C45.6313 55.0909 40.8307 59.7228 37.9048 57.2462C34.9788 54.7697 36.8312 50.0605 36.8312 50.0605Z" fill="black"/>
<path d="M27.7488 82.9375C27.7488 82.9375 27.5801 80.9652 27.7061 80.5463C27.8119 80.1925 28.3161 79.733 28.3161 79.733C28.3161 79.733 28.0498 75.7355 28.2206 74.7046C28.367 73.8201 29.1843 71.248 29.1843 71.248L28.0823 60.931L24.1946 62.1205C24.1946 62.1205 25.8497 65.7805 26.1059 66.8662C26.3621 67.952 27.8871 68.9951 27.8871 68.9951L24.2048 73.2955L23.117 72.5371C23.117 72.5371 19.9044 75.0503 17.0028 71.2927C14.1013 67.5352 12.8549 64.4751 13.2615 60.8721C13.6682 57.2691 29.8431 46.1936 33.0517 46.3075L37.8239 47.3628C37.9255 47.2774 38.2061 47.0578 38.4196 47.068C39.2878 47.1127 39.3102 48.1212 39.3102 48.1212L50.0054 49.8577C50.0054 49.8577 51.1156 49.3026 51.3087 49.3107C51.448 49.3204 51.5827 49.3648 51.7006 49.4397C51.8185 49.5146 51.9158 49.6177 51.9838 49.7397C51.9838 49.7397 54.7531 48.0826 55.6437 48.4669C58.5717 49.7316 73.1606 56.8217 70.9972 60.1116C67.9249 64.7882 54.9341 67.0879 54.9341 67.0879C54.9341 67.0879 50.6133 73.5944 48.9115 73.2935L51.695 83.4783" stroke="#263238" stroke-linecap="round" stroke-linejoin="round"/>
<path d="M59.6986 60.8405C64.607 64.0816 68.5638 63.4838 71.6605 59.3115C71.6605 59.3115 74.2388 55.987 74.0558 52.3982C73.8728 48.8094 73.0167 37.1179 61.8437 40.1069C60.0036 40.599 55.7113 46.3471 55.3514 47.927C55.1847 48.6488 53.4625 52.323 51.7891 56.1273" fill="#B994DA"/>
<path d="M59.6986 60.8405C64.607 64.0816 68.5638 63.4838 71.6605 59.3115C71.6605 59.3115 74.2388 55.987 74.0558 52.3982C73.8728 48.8094 73.0167 37.1179 61.8437 40.1069C60.0036 40.599 55.7113 46.3471 55.3514 47.927C55.1847 48.6488 53.4625 52.323 51.7891 56.1273" stroke="#263238" stroke-linecap="round" stroke-linejoin="round"/>
<path d="M46.4226 26.4915C46.4226 26.4915 49.5498 26.0178 51.7214 27.9616C54.4684 30.4199 57.5529 37.0484 53.1609 48.0323C53.1609 48.0323 46.6727 43.7258 35.5993 46.609C35.5993 46.609 36.5529 44.0328 34.8795 35.922C34.1231 32.2519 36.0263 23.7974 46.4226 26.4915Z" fill="#263238"/>
<path d="M41.6798 54.0541C46.3076 54.8044 51.2242 49.6805 51.2242 49.6805C51.2242 49.6805 48.709 49.3714 48.4833 48.1901C47.7614 44.463 50.665 39.8535 50.665 39.8535C50.665 39.8535 39.429 40.1646 41.3931 42.7001C41.7586 43.1641 42.0577 43.6766 42.2817 44.2231C42.9629 45.8965 42.485 47.1592 42.1292 47.4764C42.1033 47.4975 42.0754 47.5159 42.0458 47.5313C41.3667 47.8403 38.575 47.3788 38.575 47.3788C38.575 47.3788 37.4567 53.3689 41.6798 54.0541Z" fill="white" stroke="#263238" stroke-linecap="round" stroke-linejoin="round"/>
<path d="M49.632 51.1016C49.632 51.1016 47.4971 51.9556 44.3719 51.7014L42.9648 52.3907" stroke="#263238" stroke-linecap="round" stroke-linejoin="round"/>
<path d="M41.562 52.283L41.4604 51.3598C41.4604 51.3598 39.1546 50.638 38.4409 49.2676" stroke="#263238" stroke-linecap="round" stroke-linejoin="round"/>
<path d="M42.1304 47.4827C45.5707 48.3814 47.1872 43.9692 47.1872 43.9692C47.1872 43.9692 44.4341 43.1558 42.2829 44.2376C42.964 45.911 42.4923 47.1736 42.1304 47.4827Z" fill="#263238"/>
<path d="M50.8636 37.5395C51.6993 32.8405 50.7701 27.2022 43.6169 27.6699C38.5072 28.0033 38.5499 33.6051 38.8874 35.2785C39.4568 38.0905 38.6414 39.1966 39.5178 41.5593C40.1481 43.2572 41.61 45.1563 43.3322 45.8679C44.3916 46.3051 48.6798 43.2958 48.997 41.9192" fill="white"/>
<path d="M50.8636 37.5395C51.6993 32.8405 50.7701 27.2022 43.6169 27.6699C38.5072 28.0033 38.5499 33.6051 38.8874 35.2785C39.4568 38.0905 38.6414 39.1966 39.5178 41.5593C40.1481 43.2572 41.61 45.1563 43.3322 45.8679C44.3916 46.3051 48.6798 43.2958 48.997 41.9192" stroke="#263238" stroke-linecap="round" stroke-linejoin="round"/>
<path d="M41.8755 36.1543C41.8328 36.683 41.7697 37.9843 40.6555 38.9521C39.9316 39.5763 41.5908 40.2148 41.5908 40.2148" stroke="#263238" stroke-linecap="round" stroke-linejoin="round"/>
<path d="M40.6907 34.2893C40.6907 34.2893 39.1128 33.5207 38.0474 34.7895" stroke="#263238" stroke-linecap="round" stroke-linejoin="round"/>
<path d="M43.3359 34.1857C44.4452 33.864 45.629 33.9111 46.7092 34.3199" stroke="#263238" stroke-linecap="round" stroke-linejoin="round"/>
<path d="M44.9778 36.4084C45.0266 36.8618 45.3316 37.2014 45.659 37.1648C45.9863 37.1282 46.212 36.7337 46.1632 36.2803C46.1144 35.8269 45.8094 35.4894 45.4821 35.5239C45.1547 35.5585 44.929 35.955 44.9778 36.4084Z" fill="#263238"/>
<path d="M41.6724 41.709C42.9268 41.5359 44.1296 41.0964 45.2001 40.4199C45.2001 40.4199 45.3486 42.3922 43.6975 42.8009C42.4308 43.1161 41.9408 41.6704 41.9408 41.6704" stroke="#263238" stroke-linecap="round" stroke-linejoin="round"/>
<path d="M46.3105 29.4579C46.3105 29.4579 45.8591 35.0271 50.7736 37.0502L53.0773 31.6965L49.5923 27.8332L44.3443 26.3164C36.5019 26.8064 33.1266 31.6782 37.4799 44.6609C37.4799 44.667 36.2619 29.2057 46.3105 29.4579Z" fill="#263238"/>
<path d="M49.6956 37.2856C49.6264 36.6593 51.2104 35.0652 51.7451 36.088C52.6581 37.8325 51.9932 39.3412 51.0497 39.9512C50.6268 40.2176 50.09 40.7178 49.7139 40.2461" fill="white"/>
<path d="M49.6956 37.2856C49.6264 36.6593 51.2104 35.0652 51.7451 36.088C52.6581 37.8325 51.9932 39.3412 51.0497 39.9512C50.6268 40.2176 50.09 40.7178 49.7139 40.2461" stroke="#263238" stroke-linecap="round" stroke-linejoin="round"/>
<path d="M40.1922 36.6255C40.243 37.0789 40.548 37.4185 40.8753 37.3819C41.2027 37.3453 41.4284 36.9508 41.3796 36.4974C41.3308 36.0439 41.0238 35.7044 40.6964 35.741C40.3691 35.7776 40.1413 36.1619 40.1922 36.6255Z" fill="#263238"/>
<g opacity="0.2">
<path opacity="0.2" d="M36.7831 35.7031C36.7242 36.0793 36.6835 36.4615 36.6611 36.8418" stroke="white" stroke-linecap="round" stroke-linejoin="round"/>
<path opacity="0.2" d="M45.4969 28.4464C41.5238 28.3427 37.8314 30.8742 36.957 34.8493" stroke="white" stroke-linecap="round" stroke-linejoin="round"/>
<path opacity="0.2" d="M44.7867 27.3123C44.7867 27.3123 39.0568 25.9642 36.9097 29.7644" stroke="white" stroke-linecap="round" stroke-linejoin="round"/>
<path opacity="0.2" d="M49.4375 33.9336C49.783 34.4254 50.1989 34.8639 50.6717 35.2349" stroke="white" stroke-linecap="round" stroke-linejoin="round"/>
<path opacity="0.2" d="M47.1631 28.0547C47.4559 29.8748 48.0715 31.6279 48.9809 33.2315" stroke="white" stroke-linecap="round" stroke-linejoin="round"/>
<path opacity="0.2" d="M52.9164 45.2891C52.8147 45.7445 52.6947 46.1959 52.5605 46.6432" stroke="white" stroke-linecap="round" stroke-linejoin="round"/>
<path opacity="0.2" d="M52.5884 37.7168C53.5176 39.7806 53.4546 42.3487 53.0723 44.5202" stroke="white" stroke-linecap="round" stroke-linejoin="round"/>
<path opacity="0.2" d="M51.905 41.3047C51.9504 42.0863 51.8298 42.8687 51.5512 43.6005C51.2726 44.3322 50.8423 44.9967 50.2886 45.5502" stroke="white" stroke-linecap="round" stroke-linejoin="round"/>
<path opacity="0.2" d="M49.2617 28.7188C50.2357 30.0363 50.9595 31.4495 52.088 32.6532C53.2775 33.9199 54.467 35.3717 54.6906 37.157" stroke="white" stroke-linecap="round" stroke-linejoin="round"/>
<path opacity="0.2" d="M47.8916 27.3496C48.1706 27.5325 48.4272 27.7475 48.6561 27.9901" stroke="white" stroke-linecap="round" stroke-linejoin="round"/>
</g>
<path d="M67.4909 57.9246C67.377 57.949 67.2632 57.9693 67.1452 57.9856C64.0709 58.4248 60.6224 55.875 59.4594 52.8149C58.5403 50.3973 59.3435 47.6544 59.7827 46.4812C59.9209 46.1131 60.0206 45.8996 60.0206 45.8996C61.8749 43.2563 72.6555 48.4311 72.7816 51.2859C72.9076 54.1406 70.6405 57.2333 67.4909 57.9246Z" fill="#263238" stroke="#263238" stroke-linecap="round" stroke-linejoin="round"/>
<path d="M70.8642 51.6714C70.8642 51.6714 70.2542 56.2098 67.1452 57.9848C64.0709 58.424 60.6224 55.8743 59.4594 52.8141C58.5403 50.3966 59.3435 47.6536 59.7827 46.4804C63.4162 44.4044 70.8642 51.6714 70.8642 51.6714Z" fill="white"/>
<path opacity="0.4" d="M70.8612 51.6714C70.8612 51.6714 70.2512 56.2098 67.1423 57.9848C64.068 58.424 60.6195 55.8743 59.4564 52.8141C58.5374 50.3966 59.3405 47.6536 59.7797 46.4804C63.4132 44.4044 70.8612 51.6714 70.8612 51.6714Z" fill="#B994DA"/>
<path d="M70.8642 51.6714C70.8642 51.6714 70.2542 56.2098 67.1452 57.9848C64.0709 58.424 60.6224 55.8743 59.4594 52.8141C58.5403 50.3966 59.3435 47.6536 59.7827 46.4804C63.4162 44.4044 70.8642 51.6714 70.8642 51.6714Z" stroke="#263238" stroke-linecap="round" stroke-linejoin="round"/>
<path d="M58.147 54.0617C58.147 54.0617 61.6483 59.088 65.7373 59.5068C69.8263 59.9257 72.4472 56.4813 72.6078 53.8848" stroke="#263238" stroke-linecap="round" stroke-linejoin="round"/>
<path d="M56.1792 31.3797C56.4862 30.5196 58.6944 30.8083 59.3959 33.4923C60.0974 36.1762 62.8525 42.7011 62.8525 42.7011C62.8525 42.7011 73.8323 26.5546 75.7924 25.9324C77.7525 25.3103 76.9819 28.1081 74.3529 31.9897C74.3529 31.9897 76.8152 31.5566 77.4618 31.9897C78.1084 32.4227 77.7932 35.0396 78.1368 35.9465C78.7143 37.4775 77.4313 37.8008 77.4313 37.8008C78.0607 37.8149 78.666 38.0454 79.1454 38.4535C79.8509 39.1143 79.4971 41.8451 79.6984 42.6177C79.8997 43.3904 78.5537 44.041 78.5537 44.041C78.5537 44.041 81.7887 45.8039 81.0587 46.2472C79.8265 46.9914 79.125 46.2289 79.125 46.2289C79.125 46.2289 74.1536 52.4711 70.4042 53.8619C66.6548 55.2527 59.3572 49.7262 58.5724 46.7169C57.7875 43.7076 58.7249 43.8926 58.1291 38.8846C57.5334 33.8766 56.1792 31.3797 56.1792 31.3797Z" fill="white" stroke="#263238" stroke-linecap="round" stroke-linejoin="round"/>
<path d="M72.188 21.46L57.7304 25.2286C57.2175 25.3623 56.9101 25.8865 57.0438 26.3994L63.8779 52.6171C64.0116 53.13 64.5358 53.4374 65.0487 53.3037L79.5063 49.5351C80.0192 49.4014 80.3266 48.8772 80.1929 48.3643L73.3588 22.1466C73.2251 21.6337 72.7009 21.3263 72.188 21.46Z" fill="white" stroke="#263238" stroke-linecap="round" stroke-linejoin="round"/>
<path d="M63.9057 24.473C63.9134 24.5028 63.9152 24.5338 63.911 24.5643C63.9068 24.5947 63.8966 24.6241 63.881 24.6506C63.8654 24.6771 63.8448 24.7003 63.8202 24.7189C63.7957 24.7374 63.7677 24.751 63.7379 24.7587C63.7082 24.7664 63.6772 24.7682 63.6467 24.764C63.6162 24.7598 63.5869 24.7496 63.5604 24.734C63.5338 24.7184 63.5106 24.6978 63.4921 24.6732C63.4735 24.6487 63.46 24.6207 63.4523 24.5909C63.444 24.5612 63.4418 24.53 63.4457 24.4994C63.4497 24.4687 63.4597 24.4392 63.4753 24.4125C63.4908 24.3858 63.5115 24.3624 63.5362 24.3439C63.5609 24.3253 63.589 24.3118 63.619 24.3043C63.6794 24.2888 63.7434 24.2979 63.7972 24.3295C63.8509 24.3611 63.8899 24.4127 63.9057 24.473Z" fill="#B994DA" stroke="#263238" stroke-linecap="round" stroke-linejoin="round"/>
<path d="M66.8852 23.6973C66.8901 23.716 66.8912 23.7355 66.8885 23.7546C66.8859 23.7737 66.8794 23.7921 66.8696 23.8088C66.8598 23.8254 66.8467 23.8399 66.8313 23.8515C66.8158 23.8631 66.7982 23.8715 66.7795 23.8762C66.7515 23.8833 66.722 23.8819 66.6947 23.8723C66.6675 23.8626 66.6437 23.8451 66.6264 23.822C66.609 23.7989 66.599 23.7711 66.5974 23.7422C66.5958 23.7134 66.6028 23.6847 66.6175 23.6598C66.6322 23.6349 66.654 23.6149 66.68 23.6024C66.7061 23.5899 66.7352 23.5853 66.7639 23.5893C66.7925 23.5933 66.8193 23.6057 66.8409 23.6249C66.8625 23.6441 66.8779 23.6693 66.8852 23.6973Z" fill="#B994DA" stroke="#263238" stroke-linecap="round" stroke-linejoin="round"/>
<path d="M66.1704 24.0632L64.4249 24.513C64.3901 24.522 64.3691 24.5576 64.3781 24.5924L64.3872 24.6279C64.3962 24.6628 64.4318 24.6837 64.4666 24.6748L66.2121 24.2249C66.247 24.2159 66.2679 24.1804 66.2589 24.1455L66.2498 24.11C66.2408 24.0752 66.2053 24.0542 66.1704 24.0632Z" fill="#B994DA" stroke="#263238" stroke-width="1.0017" stroke-linecap="round" stroke-linejoin="round"/>
<path d="M72.9256 22.4173L79.7026 48.4192C79.7403 48.565 79.7187 48.7199 79.6425 48.8499C79.5663 48.9798 79.4417 49.0743 79.2959 49.1125L65.0242 52.8314C64.8783 52.8692 64.7234 52.8476 64.5935 52.7714C64.4635 52.6951 64.3691 52.5705 64.3308 52.4248L57.5538 26.4229C57.5161 26.277 57.5377 26.1222 57.6139 25.9922C57.6901 25.8622 57.8147 25.7678 57.9605 25.7295L60.8905 24.965C60.9845 24.9403 61.0837 24.9451 61.175 24.9785C61.2662 25.0119 61.345 25.0725 61.4008 25.1521L61.6143 25.455C61.6701 25.5346 61.7489 25.5952 61.8402 25.6286C61.9314 25.6621 62.0307 25.6668 62.1247 25.6421L68.556 23.9667C68.6491 23.9424 68.7326 23.8905 68.7957 23.818C68.8588 23.7454 68.8986 23.6555 68.9098 23.56L68.9484 23.192C68.9591 23.0963 68.9987 23.0061 69.0619 22.9334C69.1251 22.8608 69.2089 22.8091 69.3022 22.7853L72.2322 22.0208C72.3767 21.9827 72.5304 22.0029 72.6601 22.0771C72.7898 22.1512 72.8852 22.2734 72.9256 22.4173Z" fill="#B994DA" stroke="#263238" stroke-linecap="round" stroke-linejoin="round"/>
<path d="M73.422 37.0085C74.748 33.9543 73.3472 30.4035 70.293 29.0774C67.2389 27.7514 63.6881 29.1522 62.362 32.2063C61.0359 35.2605 62.4368 38.8113 65.4909 40.1374C68.545 41.4635 72.0959 40.0626 73.422 37.0085Z" fill="white" stroke="#263238" stroke-linecap="round" stroke-linejoin="round"/>
<path d="M65.401 38.0698C65.4525 38.191 65.5471 38.2889 65.6665 38.3444C65.7859 38.4 65.9217 38.4094 66.0476 38.3707L68.0301 37.7994C68.0344 37.842 68.0426 37.8842 68.0545 37.9254C68.0845 38.029 68.1346 38.1257 68.202 38.2099C68.2694 38.2941 68.3528 38.3643 68.4473 38.4163C68.5418 38.4683 68.6456 38.5012 68.7528 38.5131C68.86 38.525 68.9685 38.5156 69.0721 38.4856C69.1757 38.4556 69.2724 38.4054 69.3566 38.338C69.4408 38.2706 69.511 38.1873 69.563 38.0928C69.615 37.9983 69.6479 37.8945 69.6598 37.7873C69.6717 37.68 69.6623 37.5715 69.6323 37.4679C69.6197 37.4268 69.6041 37.3867 69.5855 37.348L71.566 36.7766C71.6953 36.742 71.807 36.6602 71.8789 36.5472C71.9508 36.4343 71.9777 36.2985 71.9543 36.1666C71.9418 36.0949 71.9143 36.0267 71.8736 35.9664C71.8329 35.9061 71.7799 35.855 71.7181 35.8167C71.6562 35.7783 71.587 35.7534 71.5149 35.7436C71.4428 35.7338 71.3694 35.7394 71.2996 35.76L71.1329 35.6583C70.7715 35.4422 70.5055 35.097 70.3887 34.6925L70.0125 33.3891C69.8577 32.8524 69.5137 32.3899 69.0442 32.0871C68.5748 31.7843 68.0115 31.6618 67.4587 31.7422C67.5536 31.642 67.6129 31.5134 67.6275 31.3762C67.642 31.239 67.611 31.1009 67.5393 30.983C67.4675 30.8652 67.3589 30.7743 67.2303 30.7243C67.1017 30.6743 66.9602 30.6681 66.8277 30.7065C66.6952 30.7449 66.579 30.8259 66.4971 30.9369C66.4152 31.048 66.3721 31.1829 66.3745 31.3208C66.3769 31.4588 66.4246 31.5921 66.5103 31.7002C66.596 31.8083 66.7149 31.8852 66.8487 31.9191C66.3331 32.1442 65.9173 32.5497 65.6792 33.0595C65.4411 33.5694 65.3972 34.1485 65.5555 34.6884L65.9358 36.006C66.0034 36.2362 66.0202 36.4783 65.9851 36.7156C65.95 36.9529 65.8638 37.1798 65.7324 37.3805C65.6636 37.4013 65.5998 37.4362 65.5451 37.483C65.4905 37.5297 65.4462 37.5874 65.415 37.6522C65.3838 37.717 65.3665 37.7876 65.3641 37.8595C65.3617 37.9314 65.3742 38.003 65.401 38.0698ZM67.355 31.2257C67.3751 31.2952 67.3741 31.3692 67.3521 31.4381C67.3302 31.5071 67.2883 31.568 67.2317 31.6132C67.1752 31.6583 67.1065 31.6857 67.0344 31.6918C66.9623 31.698 66.89 31.6826 66.8266 31.6476C66.7632 31.6127 66.7116 31.5597 66.6783 31.4955C66.6451 31.4312 66.6316 31.3585 66.6396 31.2866C66.6476 31.2146 66.6768 31.1467 66.7234 31.0914C66.7701 31.036 66.8321 30.9957 66.9016 30.9756C66.9478 30.962 66.9962 30.9576 67.0441 30.9628C67.092 30.968 67.1383 30.9827 67.1805 31.0059C67.2227 31.0292 67.2598 31.0606 67.2898 31.0983C67.3197 31.1361 67.3419 31.1793 67.355 31.2257Z" fill="#B994DA" stroke="#263238" stroke-linecap="round" stroke-linejoin="round"/>
<path d="M69.2244 37.3809L68.3501 37.635" stroke="#263238" stroke-linecap="round" stroke-linejoin="round"/>
<path d="M70.5213 35.9805L66.5137 37.1395" stroke="#263238" stroke-linecap="round" stroke-linejoin="round"/>
<path d="M74.7056 44.0805L66.5724 46.1992C66.3398 46.2605 66.0974 46.2753 65.8591 46.2429C65.6207 46.2105 65.3912 46.1314 65.1834 46.0101C64.9757 45.8889 64.7939 45.7279 64.6484 45.5363C64.503 45.3448 64.3967 45.1264 64.3357 44.8938C64.2744 44.6611 64.2597 44.4186 64.2922 44.1801C64.3248 43.9417 64.4041 43.712 64.5255 43.5043C64.6469 43.2965 64.8082 43.1148 64.9999 42.9694C65.1917 42.824 65.4103 42.7179 65.6431 42.6572L73.7763 40.5385C74.2446 40.4177 74.7417 40.4872 75.1589 40.7318C75.5761 40.9764 75.8795 41.3762 76.0028 41.8438C76.1269 42.3124 76.06 42.8111 75.8168 43.2305C75.5736 43.6498 75.1739 43.9555 74.7056 44.0805Z" fill="#263238"/>
<path d="M65.6742 43.6582C65.7022 43.6105 65.7401 43.5693 65.7853 43.5374C65.8306 43.5054 65.8821 43.4836 65.9365 43.4732C65.989 43.4555 66.0448 43.4494 66.0999 43.4553C66.155 43.4613 66.2082 43.4792 66.2557 43.5078C66.3493 43.5774 66.4132 43.6798 66.4346 43.7945L66.4489 43.8473L66.1988 43.9124L66.1805 43.8433C66.1728 43.7977 66.1499 43.7561 66.1154 43.7253C66.0992 43.7151 66.0809 43.7087 66.0619 43.7066C66.0429 43.7045 66.0236 43.7067 66.0056 43.7131C65.9869 43.7163 65.9693 43.7239 65.9541 43.7352C65.9389 43.7465 65.9266 43.7612 65.9182 43.7782C65.903 43.8216 65.903 43.869 65.9182 43.9124C65.9344 43.9791 65.9714 44.0389 66.0239 44.0832C66.0908 44.136 66.163 44.1817 66.2394 44.2194C66.3054 44.2527 66.3692 44.29 66.4306 44.3313C66.4841 44.3684 66.5314 44.4137 66.5709 44.4655C66.6161 44.5264 66.6493 44.5954 66.6685 44.6688C66.7052 44.7804 66.6979 44.9019 66.6481 45.0084C66.585 45.0997 66.4911 45.1653 66.3837 45.1933C66.2762 45.2213 66.1622 45.2098 66.0625 45.1609C65.9663 45.093 65.9006 44.99 65.8795 44.8742L65.8531 44.7705L66.1032 44.7054L66.1337 44.8254C66.1622 44.9351 66.2211 44.9778 66.3126 44.9534C66.4041 44.929 66.4367 44.864 66.4082 44.7501C66.3915 44.6836 66.3545 44.6239 66.3025 44.5793C66.236 44.5265 66.1637 44.4815 66.0869 44.4451C66.0213 44.4105 65.9575 44.3725 65.8958 44.3313C65.8423 44.2941 65.795 44.2489 65.7555 44.1971C65.7098 44.1364 65.6767 44.0673 65.6579 43.9937C65.6222 43.8837 65.628 43.7643 65.6742 43.6582Z" fill="white"/>
<path d="M67.0735 44.584C67.102 44.6918 67.163 44.7345 67.2545 44.7121C67.346 44.6898 67.3765 44.6206 67.348 44.5088L67.0105 43.2116L67.2606 43.1465L67.5941 44.4254C67.6308 44.5371 67.6235 44.6585 67.5737 44.765C67.5456 44.8133 67.5075 44.8549 67.4619 44.8872C67.4163 44.9195 67.3643 44.9416 67.3094 44.9521C67.2565 44.9689 67.2006 44.9746 67.1454 44.969C67.0901 44.9634 67.0366 44.9466 66.9881 44.9195C66.8936 44.8491 66.8284 44.7463 66.8051 44.6308L66.4717 43.3518L66.736 43.2827L67.0735 44.584Z" fill="white"/>
<path d="M68.1624 43.0172C68.2075 43.0481 68.2458 43.0879 68.2752 43.134C68.3045 43.1801 68.3242 43.2316 68.3332 43.2856L68.3475 43.3445C68.3698 43.4176 68.3747 43.4949 68.3617 43.5702C68.3487 43.6324 68.315 43.6883 68.2661 43.7288C68.4105 43.7451 68.5081 43.8488 68.5569 44.0359L68.5914 44.1741C68.6098 44.2268 68.6171 44.2827 68.6129 44.3383C68.6087 44.3939 68.5931 44.4481 68.567 44.4974C68.5364 44.5444 68.4964 44.5846 68.4495 44.6154C68.4026 44.6462 68.3499 44.6669 68.2946 44.6763L67.8879 44.7861L67.4487 43.1046L67.8554 42.9989C67.9564 42.9664 68.066 42.9729 68.1624 43.0172ZM67.8839 43.7187L67.9876 43.6922C68.0095 43.6885 68.0304 43.6802 68.0489 43.668C68.0675 43.6557 68.0833 43.6397 68.0953 43.6211C68.114 43.5734 68.114 43.5203 68.0953 43.4726L68.0709 43.3791C68.0628 43.3321 68.0392 43.2891 68.0038 43.2571C67.9877 43.2459 67.9691 43.2388 67.9496 43.2363C67.9302 43.2338 67.9104 43.2361 67.892 43.2429L67.7639 43.2754L67.8839 43.7187ZM68.0872 44.4771L68.2377 44.4364C68.2569 44.4335 68.2753 44.4263 68.2915 44.4154C68.3077 44.4045 68.3212 44.3901 68.3312 44.3734C68.3473 44.3287 68.3473 44.2798 68.3312 44.2351L68.2925 44.0887C68.283 44.0315 68.2544 43.9791 68.2112 43.9403C68.1897 43.9282 68.1659 43.9209 68.1414 43.9188C68.1168 43.9167 68.0921 43.9199 68.0689 43.9281L67.951 43.9606L68.0872 44.4771Z" fill="white"/>
<path d="M68.5038 42.9285C68.5313 42.8803 68.569 42.8388 68.6144 42.8068C68.6597 42.7748 68.7115 42.7532 68.7661 42.7435C68.8185 42.7254 68.8742 42.719 68.9293 42.7246C68.9844 42.7302 69.0377 42.7478 69.0853 42.776C69.1797 42.8462 69.2442 42.9492 69.2663 43.0647L69.2805 43.1176L69.0304 43.1827L69.0121 43.1115C69.0048 43.0659 68.9809 43.0246 68.945 42.9956C68.9294 42.9851 68.9115 42.9783 68.8928 42.9758C68.8741 42.9734 68.8551 42.9753 68.8373 42.9814C68.8183 42.9846 68.8004 42.9921 68.7849 43.0034C68.7694 43.0147 68.7567 43.0294 68.7478 43.0464C68.7326 43.0899 68.7326 43.1372 68.7478 43.1806C68.7633 43.2471 68.7997 43.307 68.8515 43.3514C68.9194 43.4038 68.9923 43.4494 69.0691 43.4877C69.1463 43.5283 69.2094 43.567 69.2602 43.5995C69.3128 43.6377 69.36 43.6828 69.4005 43.7337C69.4455 43.7945 69.478 43.8636 69.4961 43.937C69.5345 44.0483 69.5279 44.1701 69.4778 44.2766C69.4495 44.3247 69.4112 44.3662 69.3657 44.3985C69.3201 44.4307 69.2682 44.4529 69.2134 44.4636C69.1602 44.4807 69.104 44.4867 69.0484 44.4811C68.9928 44.4755 68.9389 44.4585 68.8901 44.4311C68.7957 44.3611 68.731 44.258 68.7092 44.1424L68.6807 44.0407L68.9308 43.9736L68.9633 44.0956C68.9918 44.2034 69.0508 44.2461 69.1423 44.2217C69.2338 44.1973 69.2643 44.1322 69.2358 44.0184C69.2197 43.9526 69.1835 43.8936 69.1321 43.8496C69.065 43.7961 68.992 43.7504 68.9145 43.7134C68.8495 43.6788 68.7864 43.6408 68.7254 43.5995C68.671 43.5636 68.6235 43.5181 68.5851 43.4653C68.5379 43.4056 68.5046 43.3362 68.4875 43.262C68.4518 43.1526 68.4575 43.0339 68.5038 42.9285Z" fill="white"/>
<path d="M70.4175 43.6936C70.4542 43.8052 70.447 43.9267 70.3972 44.0331C70.3688 44.0809 70.3305 44.1222 70.2849 44.1541C70.2394 44.186 70.1875 44.2078 70.1329 44.2182C70.0801 44.2361 70.0241 44.2425 69.9687 44.2369C69.9133 44.2313 69.8597 44.2138 69.8116 44.1856C69.7154 44.1177 69.6497 44.0148 69.6286 43.8989L69.4009 43.0246C69.3635 42.9132 69.3701 42.7918 69.4192 42.685C69.4475 42.6369 69.4857 42.5954 69.5313 42.5631C69.5768 42.5309 69.6287 42.5087 69.6835 42.498C69.7367 42.4809 69.7929 42.475 69.8486 42.4806C69.9042 42.4862 69.9581 42.5032 70.0068 42.5305C70.1013 42.6006 70.1659 42.7037 70.1878 42.8192L70.2305 42.9819L69.9804 43.047L69.9336 42.866C69.9051 42.7562 69.8462 42.7135 69.7547 42.7379C69.6632 42.7623 69.6327 42.8274 69.6611 42.9412L69.897 43.8481C69.9255 43.9579 69.9844 44.0006 70.0759 43.9762C70.1674 43.9518 70.2 43.8867 70.1715 43.7729L70.1085 43.5329L70.3586 43.4679L70.4175 43.6936Z" fill="white"/>
<path d="M71.1938 43.8371C71.1779 43.7953 71.165 43.7525 71.1551 43.709L71.086 43.4446C71.0761 43.3859 71.0467 43.3322 71.0026 43.2921C70.9809 43.2789 70.9565 43.2706 70.9312 43.2678C70.906 43.265 70.8804 43.2678 70.8562 43.2759L70.7668 43.3003L70.9437 43.9855L70.6794 44.0546L70.2422 42.3731L70.6488 42.2673C70.6995 42.2445 70.7548 42.234 70.8103 42.2368C70.8658 42.2395 70.9199 42.2555 70.968 42.2833C71.0161 42.3112 71.0568 42.35 71.0869 42.3968C71.117 42.4435 71.1355 42.4967 71.1409 42.552L71.1755 42.6862C71.2017 42.7512 71.2078 42.8227 71.1929 42.8912C71.1781 42.9597 71.1429 43.0222 71.0921 43.0705C71.1578 43.0786 71.2177 43.1122 71.2588 43.164C71.3078 43.2293 71.3424 43.3041 71.3605 43.3836L71.4276 43.6439C71.4398 43.6907 71.452 43.7293 71.4622 43.7578C71.4737 43.787 71.4895 43.8144 71.5089 43.8391L71.2405 43.9103C71.2217 43.8881 71.206 43.8635 71.1938 43.8371ZM70.7038 43.0603L70.8054 43.0339C70.8277 43.0296 70.8488 43.0209 70.8677 43.0083C70.8865 42.9958 70.9027 42.9796 70.9152 42.9607C70.9334 42.9136 70.9334 42.8614 70.9152 42.8143L70.8705 42.6476C70.8637 42.6006 70.8407 42.5574 70.8054 42.5256C70.7889 42.5144 70.77 42.5072 70.7502 42.5048C70.7304 42.5023 70.7103 42.5045 70.6916 42.5113L70.5655 42.5439L70.7038 43.0603Z" fill="white"/>
<path d="M71.4723 42.0527L71.9095 43.7343L71.6452 43.8034L71.208 42.1158L71.4723 42.0527Z" fill="white"/>
<path d="M72.3872 41.9126C72.4316 41.9435 72.4695 41.983 72.4984 42.0287C72.5274 42.0745 72.547 42.1255 72.5559 42.1789L72.5722 42.2399C72.5935 42.3125 72.5984 42.3889 72.5864 42.4636C72.5726 42.5254 72.5391 42.581 72.4909 42.6222C72.6352 42.6405 72.7308 42.7421 72.7816 42.9312L72.8162 43.0695C72.8342 43.1219 72.8414 43.1774 72.8372 43.2327C72.833 43.2879 72.8175 43.3417 72.7918 43.3908C72.7614 43.4381 72.7215 43.4787 72.6746 43.5098C72.6277 43.541 72.5748 43.5621 72.5193 43.5717L72.1127 43.6795L71.6572 42.002L72.0639 41.8983C72.1693 41.8602 72.2855 41.8654 72.3872 41.9126ZM72.1086 42.614L72.2123 42.5876C72.2561 42.5787 72.2947 42.5532 72.3201 42.5164C72.3388 42.4687 72.3388 42.4157 72.3201 42.368L72.2957 42.2745C72.287 42.2271 72.2635 42.1837 72.2286 42.1504C72.2119 42.1397 72.193 42.1328 72.1733 42.1303C72.1536 42.1279 72.1335 42.1299 72.1147 42.1362L71.9887 42.1708L72.1086 42.614ZM72.312 43.3704L72.4624 43.3318C72.4817 43.3282 72.5001 43.3206 72.5162 43.3094C72.5323 43.2981 72.5459 43.2836 72.5559 43.2667C72.5727 43.2229 72.5727 43.1744 72.5559 43.1305L72.5193 42.9841C72.5098 42.9263 72.4812 42.8733 72.438 42.8336C72.4163 42.822 72.3925 42.8151 72.3679 42.8134C72.3434 42.8116 72.3188 42.8151 72.2957 42.8235L72.1778 42.854L72.312 43.3704Z" fill="white"/>
<path d="M73.4509 42.2925L73.514 42.5345L73.15 42.628L73.2781 43.1201L73.7356 43.0022L73.7986 43.2421L73.0768 43.4291L72.6396 41.7476L73.3594 41.5605L73.4225 41.8005L72.967 41.9204L73.089 42.3881L73.4509 42.2925Z" fill="white"/>
<path d="M73.9403 41.4089C73.9934 41.3915 74.0495 41.3852 74.1052 41.3905C74.1608 41.3957 74.2147 41.4124 74.2636 41.4394C74.3576 41.5069 74.4217 41.6082 74.4426 41.722L74.6642 42.574C74.7026 42.6838 74.696 42.8044 74.6459 42.9095C74.617 42.9569 74.5783 42.9976 74.5324 43.0289C74.4864 43.0601 74.4343 43.0811 74.3795 43.0904L73.9607 43.2002L73.5215 41.5187L73.9403 41.4089ZM74.162 42.8912L74.3104 42.8525C74.3294 42.8488 74.3474 42.8411 74.3632 42.8299C74.3789 42.8186 74.3922 42.8042 74.4019 42.7875C74.4171 42.744 74.4171 42.6967 74.4019 42.6533L74.1742 41.7789C74.165 41.7336 74.1406 41.6927 74.105 41.6631C74.0889 41.6537 74.071 41.6479 74.0524 41.6458C74.0339 41.6437 74.0151 41.6454 73.9973 41.6509L73.8468 41.6895L74.162 42.8912Z" fill="white"/>
<path d="M54.9412 67.1028C54.9412 67.1028 52.4728 61.3587 53.7212 54.3926" stroke="#263238" stroke-linecap="round" stroke-linejoin="round"/>
<path d="M48.9177 73.3086C48.9177 73.3086 43.928 74.8336 43.4278 75.9824C42.9276 77.1312 45.6644 76.1634 45.6644 76.1634" stroke="#263238" stroke-linecap="round" stroke-linejoin="round"/>
<path d="M51.985 49.7559C51.985 49.7559 47.3898 54.3105 44.3154 55.5243" stroke="#263238" stroke-linecap="round" stroke-linejoin="round"/>
<path d="M36.9267 48.5312C36.9267 48.5312 36.089 54.68 39.2142 55.841" stroke="#263238" stroke-linecap="round" stroke-linejoin="round"/>
<path d="M28.084 60.9454C28.084 60.9454 28.0596 52.8854 29.6598 50.3926" stroke="#263238" stroke-linecap="round" stroke-linejoin="round"/>
<path d="M27.4858 52.7344C27.4858 52.7344 27.0364 57.7404 28.047 59.3731" stroke="#263238" stroke-linecap="round" stroke-linejoin="round"/>
<path d="M24.1977 62.1364C24.1977 62.1364 20.7025 60.9327 19.9786 62.4252C19.2548 63.9176 22.0628 62.5939 22.0628 62.5939" stroke="#263238" stroke-linecap="round" stroke-linejoin="round"/>
<path d="M26.2986 67.3613C26.2986 67.3613 22.8664 69.295 22.6895 70.4011" stroke="#263238" stroke-linecap="round" stroke-linejoin="round"/>
<path d="M31.9048 62.0137C31.9048 62.0137 38.4744 71.9423 42.0998 71.0314" stroke="#263238" stroke-linecap="round" stroke-linejoin="round"/>
<path d="M36.3917 75.9395C36.3917 75.9395 31.2413 79.7153 30.4951 79.3961" stroke="#263238" stroke-linecap="round" stroke-linejoin="round"/>
<path opacity="0.2" d="M72.4663 59.8276C72.814 59.543 73.0438 59.3539 73.119 59.2949C73.0417 59.362 72.8181 59.5572 72.4663 59.8276Z" fill="black"/>
</svg>
