<svg width="71" height="71" viewBox="0 0 71 71" fill="none" xmlns="http://www.w3.org/2000/svg">
<path d="M35.5 71C55.1061 71 71 55.1061 71 35.5C71 15.8939 55.1061 0 35.5 0C15.8939 0 0 15.8939 0 35.5C0 55.1061 15.8939 71 35.5 71Z" fill="#B994DA"/>
<path d="M43.2652 63.2348C23.6592 63.2348 7.76551 47.3411 7.76551 27.7351C7.76551 19.915 10.3244 12.7097 14.6084 6.84375C5.76737 13.3005 0 23.7146 0 35.5006C0 55.1066 15.8937 71.0003 35.4997 71.0003C47.2857 71.0003 57.7001 65.233 64.1566 56.392C58.2909 60.676 51.0853 63.2348 43.2652 63.2348Z" fill="#9C71BC"/>
<path d="M35.4993 51.7152C33.8462 51.7152 32.5049 50.4651 32.5049 48.8119C32.5049 45.0851 34.8819 42.0018 38.4201 40.9596C43.6267 39.4255 46.7058 34.2017 45.5811 28.8086C44.7729 24.9345 41.6267 21.7884 37.7527 20.9802C34.5654 20.3214 31.4539 21.0495 28.9969 23.0517C26.5723 25.0213 25.1811 27.9421 25.1811 31.0622C25.1811 32.7154 23.8399 34.0566 22.1868 34.0566C20.5336 34.0566 19.1924 32.7154 19.1924 31.0622C19.1924 26.1307 21.3872 21.5157 25.218 18.402C29.0466 15.2883 34.0668 14.0903 38.9746 15.1172C45.1477 16.402 50.1593 21.4136 51.4441 27.5866C53.2122 36.0628 48.3393 44.2834 40.1144 46.7058C39.1307 46.9962 38.4937 47.7501 38.4937 48.6298C38.4937 50.2829 37.1525 51.7152 35.4993 51.7152Z" fill="white"/>
<path d="M35.5247 60.6821C33.8715 60.6821 32.5195 59.3409 32.5195 57.6877C32.5195 56.0346 33.85 54.6934 35.5032 54.6934H35.5249C37.1781 54.6934 38.5193 56.0346 38.5193 57.6877C38.5191 59.3409 37.1778 60.6821 35.5247 60.6821Z" fill="white"/>
</svg>
