<svg width="146" height="154" viewBox="0 0 146 154" fill="none" xmlns="http://www.w3.org/2000/svg">
<path d="M112.401 135.278C112.401 135.278 131.093 134.114 143.957 111.127C156.821 88.1412 154.501 53.077 138.503 33.599C122.505 14.121 97.5964 7.49255 73.8336 13.728C62.2542 16.7666 54.533 24.6412 47.8614 34.1358C42.0477 42.4082 35.5104 50.3834 26.7108 55.6171C18.0022 60.803 9.04446 64.9344 4.66383 74.7884C-6.0433 98.7524 1.78815 126.656 27.099 136.06C54.3796 146.187 99.9353 140.733 112.401 135.278Z" fill="#592F72"/>
<path opacity="0.7" d="M112.401 135.278C112.401 135.278 131.093 134.114 143.957 111.127C156.821 88.1412 154.501 53.077 138.503 33.599C122.505 14.121 97.5964 7.49255 73.8336 13.728C62.2542 16.7666 54.533 24.6412 47.8614 34.1358C42.0477 42.4082 35.5104 50.3834 26.7108 55.6171C18.0022 60.803 9.04446 64.9344 4.66383 74.7884C-6.0433 98.7524 1.78815 126.656 27.099 136.06C54.3796 146.187 99.9353 140.733 112.401 135.278Z" fill="white"/>
<path d="M91.0542 109.733C101.164 109.733 109.359 99.301 109.359 86.4321C109.359 73.5632 101.164 63.1309 91.0542 63.1309C80.9448 63.1309 72.7495 73.5632 72.7495 86.4321C72.7495 99.301 80.9448 109.733 91.0542 109.733Z" fill="#263238"/>
<path d="M91.0551 110.069C80.76 110.069 72.4004 99.4651 72.4004 86.4315C72.4004 73.3979 80.7669 62.7871 91.0551 62.7871C101.343 62.7871 109.703 73.3911 109.703 86.4315C109.703 99.472 101.336 110.069 91.0551 110.069ZM91.0551 63.4734C81.1444 63.4734 73.0867 73.7685 73.0867 86.4315C73.0867 99.0945 81.1444 109.383 91.0551 109.383C100.966 109.383 109.017 99.0876 109.017 86.4315C109.017 73.7754 100.959 63.4734 91.0551 63.4734Z" fill="#263238"/>
<path d="M49.7952 145.774C48.1136 145.774 46.2056 144.284 45.1898 143.365C43.7622 142.068 42.2866 140.249 42.2866 139.439C42.2866 138.279 56.0134 96.8858 57.5989 92.1844C57.6166 92.1295 57.648 92.08 57.6899 92.0404C57.7319 92.0008 57.7832 91.9724 57.8391 91.9579C57.8939 91.9441 57.9512 91.9437 58.0062 91.9569C58.0612 91.97 58.1122 91.9963 58.1548 92.0334L63.3504 96.776C63.3909 96.8129 63.422 96.8589 63.4412 96.9103C63.4603 96.9616 63.4668 97.0168 63.4602 97.0712L58.3401 142.04C58.3339 142.092 58.3158 142.142 58.2873 142.186C58.2587 142.23 58.2204 142.267 58.1754 142.294C57.9626 142.424 52.9523 145.472 50.0629 145.76L49.7952 145.774ZM58.0862 92.9257C53.7622 105.966 43.0896 138.224 42.9867 139.48C42.9867 139.871 44.0299 141.402 45.6634 142.877C47.2969 144.353 48.9235 145.204 50.0079 145.101C52.4856 144.854 56.8713 142.322 57.6881 141.821L62.7739 97.2084L58.0862 92.9257Z" fill="#263238"/>
<path d="M88.2592 86.2121L57.8955 92.2862L62.7548 152.108H121.972L129.865 89.8566L93.7225 85.9102L88.2592 86.2121Z" fill="#592F72"/>
<path d="M121.972 152.45H62.7543C62.6686 152.45 62.586 152.418 62.5235 152.359C62.461 152.3 62.4233 152.22 62.418 152.134L57.5519 92.3131C57.5452 92.2294 57.5694 92.1461 57.62 92.0791C57.6706 92.0121 57.7441 91.9659 57.8264 91.9494L88.2244 85.8753L93.7151 85.5664L129.906 89.5197C129.997 89.5296 130.08 89.5738 130.139 89.6433C130.167 89.68 130.188 89.722 130.2 89.7668C130.211 89.8116 130.214 89.8582 130.208 89.9041L122.315 152.162C122.302 152.243 122.26 152.317 122.197 152.37C122.134 152.423 122.054 152.451 121.972 152.45ZM63.0769 151.764H121.67L129.48 90.1649L93.7151 86.2733L88.3273 86.5753L58.2863 92.5877L63.0769 151.764Z" fill="#263238"/>
<path opacity="0.3" d="M62.7589 152.108H121.976L123.466 140.393L123.356 139.823L109.066 142.939L115.298 116.707L81.0087 131.772L72.6971 140.084H77.8927L62.6011 150.146L62.7589 152.108Z" fill="black"/>
<path d="M85.0426 82.8431C85.0426 82.8431 80.1147 85.5404 78.8655 87.9632C77.6164 90.3859 72.4482 108.382 72.4482 108.382L80.952 110.207L72.7571 114.154L85.1592 149.679L104.898 148.464L117.747 111.113L109.847 107.778L116.834 104.737C116.834 104.737 110.156 91.9851 106.539 86.5219C102.922 81.0586 85.0426 82.8431 85.0426 82.8431Z" fill="#592F72"/>
<path d="M85.1789 150.022C85.1084 150.022 85.0396 150 84.9819 149.959C84.9242 149.919 84.8803 149.861 84.8563 149.795L72.4405 114.263C72.4139 114.184 72.4174 114.097 72.4503 114.02C72.4832 113.943 72.5431 113.881 72.6189 113.845L79.9147 110.331L72.365 108.718C72.3186 108.708 72.2747 108.689 72.2358 108.662C72.1969 108.634 72.1638 108.6 72.1385 108.56C72.1144 108.519 72.0989 108.473 72.093 108.426C72.0871 108.379 72.0909 108.331 72.1041 108.285C72.3169 107.551 77.3341 90.2414 78.5489 87.8118C79.7637 85.3821 84.6299 82.6573 84.8358 82.5407C84.8758 82.5188 84.9206 82.507 84.9662 82.5063C85.7005 82.4308 103.017 80.7562 106.73 86.3293C110.347 91.7445 117.025 104.456 117.073 104.579C117.093 104.622 117.104 104.669 117.104 104.716C117.104 104.764 117.093 104.811 117.073 104.854C117.059 104.898 117.035 104.94 117.003 104.974C116.971 105.009 116.932 105.035 116.888 105.053L110.635 107.798L117.794 110.825C117.874 110.86 117.938 110.923 117.974 111.004C118.01 111.084 118.014 111.174 117.986 111.257L105.186 148.608C105.163 148.671 105.122 148.726 105.069 148.766C105.015 148.806 104.951 148.83 104.884 148.834L85.1446 150.049L85.1789 150.022ZM73.1954 114.332L85.4191 149.335L104.637 148.155L117.258 111.319L109.661 108.107C109.598 108.081 109.544 108.037 109.507 107.981C109.469 107.925 109.448 107.859 109.448 107.791C109.449 107.724 109.468 107.659 109.505 107.603C109.541 107.547 109.593 107.503 109.654 107.475L116.304 104.586C115.234 102.527 109.441 91.6278 106.167 86.7411C102.79 81.6759 86.3251 83.1035 85.1103 83.2133C84.5475 83.529 80.251 85.9586 79.1666 88.1549C78.0822 90.3512 73.6141 105.629 72.8729 108.162L81.0197 109.905C81.0895 109.92 81.1528 109.957 81.2008 110.01C81.2487 110.063 81.279 110.129 81.2874 110.2C81.2939 110.271 81.2791 110.342 81.2448 110.405C81.2106 110.467 81.1585 110.518 81.0952 110.55L73.1954 114.332Z" fill="#263238"/>
<path d="M84.2652 152.719L84.0112 90.1663L100.408 88.6426L105.219 152.108L84.2652 152.719Z" fill="white"/>
<path d="M84.2637 153.062C84.1745 153.061 84.0887 153.027 84.0235 152.966C83.959 152.9 83.9222 152.811 83.9206 152.719L83.6666 90.1659C83.6646 90.0801 83.6954 89.9967 83.7529 89.9329C83.8103 89.8691 83.8899 89.8297 83.9755 89.8227L100.372 88.3333C100.417 88.3268 100.464 88.3301 100.507 88.3432C100.551 88.3562 100.592 88.3786 100.626 88.4088C100.697 88.4696 100.741 88.5559 100.75 88.6491L105.554 152.115C105.557 152.161 105.55 152.207 105.535 152.251C105.519 152.294 105.496 152.334 105.465 152.369C105.434 152.404 105.396 152.431 105.353 152.45C105.31 152.469 105.264 152.479 105.218 152.479L84.2706 153.09L84.2637 153.062ZM84.3529 90.4747L84.6069 152.362L104.847 151.779L100.091 89.0197L84.3529 90.4747Z" fill="#263238"/>
<path d="M81.5845 73.7617C81.5845 73.7617 83.7052 85.6079 84.0141 88.6416C84.323 91.6752 92.161 113.247 94.5082 109.726C97.0683 105.889 100.109 93.8097 100.685 91.0712C101.262 88.3327 101.296 76.5002 101.296 76.5002C101.296 76.5002 93.4238 81.9635 81.5845 73.7617Z" fill="white"/>
<path d="M93.8899 110.461C93.802 110.459 93.7145 110.448 93.6291 110.427C90.4033 109.623 83.9654 91.6071 83.6703 88.6764C83.3752 85.7457 81.2681 73.9476 81.2407 73.824C81.2282 73.7569 81.236 73.6876 81.2631 73.6249C81.2902 73.5622 81.3354 73.5091 81.3928 73.4722C81.4503 73.4354 81.5175 73.4165 81.5857 73.4181C81.654 73.4196 81.7202 73.4414 81.776 73.4808C93.2928 81.4561 101.048 76.2674 101.124 76.2262C101.178 76.1942 101.24 76.1773 101.302 76.1773C101.365 76.1773 101.427 76.1942 101.481 76.2262C101.536 76.2566 101.583 76.3013 101.615 76.3555C101.648 76.4098 101.665 76.4718 101.666 76.535C101.666 77.0155 101.666 88.443 101.048 91.1815C100.362 94.1603 97.3902 106.061 94.7959 109.953C94.6999 110.107 94.5665 110.234 94.4081 110.323C94.2497 110.412 94.0715 110.459 93.8899 110.461ZM82.0505 74.5035C82.531 77.2488 84.1096 86.0203 84.3361 88.6078C84.6312 91.5659 91.1377 109.102 93.7801 109.761C93.9036 109.761 94.0478 109.761 94.2125 109.541C96.7176 105.773 99.7513 93.7553 100.39 91.01C100.904 88.697 100.98 79.5344 100.987 77.1047C99.01 78.1136 91.8721 80.9482 82.0505 74.5035Z" fill="#263238"/>
<path d="M101.2 84.3735C101.324 80.4889 101.324 76.5012 101.324 76.5012C101.324 76.5012 93.4238 81.9919 81.5845 73.7559C81.5845 73.7559 82.4561 78.6357 83.163 82.9322C84.7828 84.9913 87.8645 88.2651 91.6668 88.8759C95.5721 89.5074 98.7292 87.4346 101.2 84.3735Z" fill="#592F72"/>
<path opacity="0.5" d="M101.2 84.3735C101.324 80.4889 101.324 76.5012 101.324 76.5012C101.324 76.5012 93.4238 81.9919 81.5845 73.7559C81.5845 73.7559 82.4561 78.6357 83.163 82.9322C84.7828 84.9913 87.8645 88.2651 91.6668 88.8759C95.5721 89.5074 98.7292 87.4346 101.2 84.3735Z" fill="white"/>
<path d="M107.7 61.9235C107.7 61.9235 111.035 57.6681 111.035 62.5274C111.035 67.3867 107.7 68.0181 107.7 68.0181V61.9235Z" fill="white"/>
<path d="M107.703 68.3401C107.622 68.3412 107.543 68.3118 107.483 68.2578C107.443 68.2273 107.411 68.1877 107.39 68.1423C107.368 68.097 107.358 68.0471 107.36 67.997V61.9229C107.358 61.8463 107.382 61.7714 107.428 61.7101C107.723 61.3395 109.233 59.5138 110.386 59.9119C111.073 60.1453 111.382 61.0032 111.382 62.5269C111.382 67.6126 107.799 68.3264 107.764 68.3333L107.703 68.3401ZM108.046 62.0396V67.5303C108.876 67.2008 110.695 66.0684 110.695 62.5269C110.695 60.9208 110.325 60.6188 110.167 60.5639C109.659 60.3923 108.636 61.3189 108.046 62.0396Z" fill="#263238"/>
<path d="M74.5957 51.9028C74.5957 51.9028 78.5422 69.7957 78.5422 72.246C78.5422 77.4004 88.2607 83.1793 92.5092 84.3942C96.7576 85.609 107.087 76.1924 107.698 73.7628C108.309 71.3331 108.604 50.0772 107.389 45.8287C106.174 41.5803 99.2078 38.8418 94.6368 38.8418C90.0658 38.8418 76.7234 41.2714 74.5957 51.9028Z" fill="white"/>
<path d="M93.3432 84.8466C93.0301 84.8497 92.7181 84.8081 92.4167 84.723C88.2986 83.5425 78.1957 77.7086 78.1957 72.2454C78.1957 69.8638 74.2973 52.1562 74.2561 51.9778C74.2493 51.93 74.2493 51.8814 74.2561 51.8336C76.4318 40.9483 90.0419 38.498 94.6335 38.498C99.2252 38.498 106.439 41.2434 107.715 45.7321C108.992 50.2207 108.621 71.4629 108.024 73.872C107.578 75.6633 102.575 80.6119 98.0721 83.2131C96.1641 84.2906 94.5786 84.8466 93.3432 84.8466ZM74.9425 51.9023C75.2513 53.3093 78.882 69.8501 78.882 72.2522C78.882 77.1664 88.4153 82.8699 92.6089 84.071C93.7413 84.3936 95.5121 83.8857 97.7358 82.6022C102.197 80.0285 106.995 75.1623 107.345 73.6798C107.914 71.3943 108.257 50.1658 107.043 45.9242C105.869 41.8062 98.9026 39.1844 94.6198 39.1844C90.1929 39.1844 77.077 41.5248 74.9425 51.8954V51.9023Z" fill="#263238"/>
<path d="M94.6315 38.8418C90.081 38.8418 76.718 41.2714 74.5903 51.8823C74.5903 51.8823 76.9513 62.5892 78.022 68.574C78.022 65.8287 78.5025 60.5713 81.4537 58.2789C85.5306 55.1081 92.3322 54.6482 96.1826 52.8363C100.033 51.0243 100.939 46.268 100.939 46.268C100.939 46.268 101.165 54.6482 102.998 56.6935C104.83 58.7388 106.629 60.1252 106.855 63.7148C107.082 67.3043 107.761 70.9625 105.949 73.9138C104.137 76.865 96.6562 82.5205 93.2588 83.6529C92.7372 83.8314 92.2293 83.9824 91.7488 84.1265C92.0165 84.2226 92.2773 84.3118 92.5175 84.3804C96.7728 85.5953 107.095 76.1787 107.706 73.749C108.317 71.3194 108.612 50.0635 107.397 45.815C106.183 41.5666 99.2025 38.8418 94.6315 38.8418Z" fill="#592F72"/>
<path d="M88.325 82.5952C86.6709 80.9274 82.1479 76.3083 80.0889 73.9267C79.494 73.2482 78.9611 72.5178 78.4966 71.7441C78.4966 71.9432 78.4966 72.1216 78.4966 72.2452C78.5378 76.0544 83.8363 80.1998 88.325 82.5952Z" fill="#592F72"/>
<g opacity="0.5">
<path opacity="0.5" d="M94.63 38.8418C90.0796 38.8418 76.7165 41.2714 74.5889 51.8823C74.5889 51.8823 76.9499 62.5892 78.0206 68.574C78.0206 65.8287 78.501 60.5713 81.4523 58.2789C85.5291 55.1081 92.3308 54.6482 96.1811 52.8363C100.031 51.0243 100.937 46.268 100.937 46.268C100.937 46.268 101.164 54.6482 102.996 56.6935C104.829 58.7388 106.627 60.1252 106.854 63.7148C107.08 67.3043 107.76 70.9625 105.948 73.9138C104.136 76.865 96.6547 82.5205 93.2573 83.6529C92.7357 83.8314 92.2278 83.9824 91.7474 84.1265C92.015 84.2226 92.2759 84.3118 92.5161 84.3804C96.7714 85.5953 107.094 76.1787 107.705 73.749C108.316 71.3194 108.611 50.0635 107.396 45.815C106.181 41.5666 99.201 38.8418 94.63 38.8418Z" fill="white"/>
<path opacity="0.5" d="M88.324 82.5952C86.6699 80.9274 82.1469 76.3083 80.0879 73.9267C79.493 73.2482 78.9601 72.5178 78.4956 71.7441C78.4956 71.9432 78.4956 72.1216 78.4956 72.2452C78.5368 76.0544 83.8353 80.1998 88.324 82.5952Z" fill="white"/>
</g>
<path d="M90.3208 62.8909C90.3208 63.742 89.9433 64.4283 89.4697 64.4283C88.9962 64.4283 88.6118 63.742 88.6118 62.8909C88.6118 62.0398 88.9962 61.3535 89.4697 61.3535C89.9433 61.3535 90.3208 62.0398 90.3208 62.8909Z" fill="#263238"/>
<path d="M100.323 62.8909C100.323 63.742 99.9389 64.4283 99.4653 64.4283C98.9918 64.4283 98.6074 63.742 98.6074 62.8909C98.6074 62.0398 98.9918 61.3535 99.4653 61.3535C99.9389 61.3535 100.323 62.0398 100.323 62.8909Z" fill="#263238"/>
<path d="M95.6707 69.3901C95.6017 69.3912 95.5341 69.3706 95.4775 69.3312C95.4208 69.2917 95.378 69.2356 95.355 69.1705C95.3208 69.0867 95.3211 68.9929 95.3558 68.9093C95.3905 68.8258 95.4568 68.7593 95.5403 68.7244C96.913 68.189 98.8484 67.1321 98.972 66.4732C99.0269 66.2192 98.9239 66.13 98.0523 65.9378C97.419 65.8515 96.8223 65.59 96.3296 65.1829C95.3069 64.1602 96.1443 61.2913 96.2472 60.9687C96.2736 60.8777 96.3351 60.8009 96.4181 60.7552C96.4592 60.7326 96.5044 60.7183 96.551 60.7131C96.5976 60.7079 96.6448 60.712 96.6899 60.7251C96.735 60.7381 96.777 60.76 96.8136 60.7893C96.8503 60.8186 96.8808 60.8549 96.9034 60.896C96.926 60.9371 96.9403 60.9822 96.9455 61.0289C96.9507 61.0755 96.9466 61.1227 96.9336 61.1678C96.6041 62.2385 96.2884 64.1465 96.8443 64.7024C97.2459 65.0049 97.7187 65.1988 98.217 65.2652C98.9033 65.4231 99.8574 65.6358 99.6583 66.6379C99.4112 67.9008 96.4051 69.1568 95.8079 69.3833C95.7633 69.3956 95.7164 69.3979 95.6707 69.3901Z" fill="#263238"/>
<path d="M92.635 73.9617C91.9305 74.0029 91.2271 73.8623 90.5926 73.5534C89.958 73.2445 89.4134 72.7777 89.0112 72.1978C88.9857 72.1607 88.9679 72.1188 88.9589 72.0746C88.9499 72.0304 88.9499 71.9849 88.9589 71.9407C88.9678 71.8965 88.9856 71.8546 89.0111 71.8174C89.0366 71.7802 89.0693 71.7486 89.1072 71.7243C89.1829 71.6746 89.2751 71.6568 89.3638 71.6748C89.4525 71.6928 89.5305 71.7451 89.5808 71.8204C91.228 74.298 95.0715 72.843 95.0715 72.8293C95.1562 72.7956 95.2507 72.7969 95.3344 72.833C95.4181 72.869 95.484 72.9368 95.5176 73.0214C95.5513 73.1061 95.55 73.2006 95.514 73.2843C95.4779 73.368 95.4101 73.4339 95.3255 73.4676C94.462 73.7794 93.5529 73.9464 92.635 73.9617Z" fill="#263238"/>
<path d="M86.3344 60.502C86.2935 60.5086 86.2518 60.5086 86.2108 60.502C86.1683 60.486 86.1293 60.4618 86.0962 60.4306C86.0632 60.3995 86.0366 60.3621 86.0181 60.3206C85.9995 60.2791 85.9895 60.2343 85.9884 60.1889C85.9873 60.1434 85.9953 60.0982 86.0118 60.0559C86.3674 59.2157 87.0232 58.5379 87.8512 58.1547C88.3586 57.958 88.9006 57.8664 89.4445 57.8852C89.9883 57.9041 90.5227 58.0332 91.0152 58.2646C91.0999 58.2982 91.1677 58.3642 91.2037 58.4478C91.2397 58.5315 91.2411 58.626 91.2074 58.7107C91.1737 58.7953 91.1078 58.8631 91.0241 58.8992C90.9405 58.9352 90.8459 58.9365 90.7613 58.9028C90.353 58.7057 89.909 58.5931 89.4561 58.5718C89.0032 58.5506 88.5507 58.6212 88.1257 58.7793C87.4673 59.0941 86.9437 59.6348 86.6501 60.303C86.6238 60.3642 86.5795 60.416 86.5231 60.4515C86.4668 60.4871 86.401 60.5047 86.3344 60.502Z" fill="#263238"/>
<path d="M101.004 59.3776C100.951 59.3769 100.899 59.3649 100.852 59.3424C100.805 59.3199 100.763 59.2874 100.729 59.2471C100.043 58.3892 99.4182 57.9706 98.8005 57.998C98.502 58.0487 98.2176 58.1616 97.9657 58.3296C97.7138 58.4975 97.5001 58.7166 97.3386 58.9726C97.2892 59.0487 97.2123 59.1027 97.124 59.1231C97.0356 59.1436 96.9428 59.129 96.865 59.0824C96.8259 59.0593 96.7919 59.0284 96.7651 58.9917C96.7383 58.9551 96.7192 58.9134 96.7089 58.8691C96.6986 58.8249 96.6974 58.779 96.7054 58.7342C96.7133 58.6895 96.7303 58.6469 96.7552 58.6089C96.9734 58.2586 97.2661 57.9608 97.6125 57.7366C97.9589 57.5124 98.3504 57.3673 98.7593 57.3117C99.6378 57.2636 100.468 57.7784 101.271 58.8285C101.327 58.9004 101.351 58.9914 101.34 59.0815C101.328 59.1715 101.281 59.2533 101.21 59.3089C101.15 59.3539 101.078 59.3781 101.004 59.3776Z" fill="#263238"/>
<path d="M108.914 41.2698C105.908 37.8381 102.737 38.044 100.842 38.7852C98.2756 34.4613 89.7924 31.0296 78.8796 35.1957C66.1274 40.055 67.6442 53.116 68.2551 55.5457C68.8659 57.9753 73.1144 64.3514 75.846 64.6534C75.846 64.6534 78.2756 62.5257 78.2756 60.4049C78.2756 58.2842 84.0478 54.0289 89.813 52.2032C93.4437 51.057 97.4314 48.9499 99.7375 46.2595C99.6948 48.0261 100.149 49.7692 101.048 51.2904C102.874 54.0357 105.606 55.5457 105.606 56.4585C105.606 57.3713 107.123 60.7069 108.351 60.7069C109.58 60.7069 109.566 55.8477 109.868 53.72C110.17 51.5924 113.162 46.1291 108.914 41.2698Z" fill="#263238"/>
<path d="M75.8116 64.9979H75.7704C72.7848 64.6616 68.5021 58.0727 67.8843 55.6293C67.85 55.4784 64.4938 40.3034 78.7285 34.8813C89.2364 30.8731 97.946 33.6665 100.987 38.3679C102.538 37.8463 105.928 37.3384 109.168 41.0446C112.716 45.1009 111.371 49.5552 110.54 52.2251C110.373 52.7307 110.237 53.2465 110.135 53.7694C110.06 54.2841 110.005 54.9773 109.943 55.7048C109.682 58.9375 109.422 61.0514 108.275 61.0514C106.765 61.0514 105.201 57.4276 105.201 56.4598C105.201 56.1716 104.514 55.5264 103.828 54.9087C102.652 53.8971 101.606 52.7445 100.712 51.477C99.8868 50.1591 99.4141 48.6513 99.3393 47.0981C97.1567 49.315 93.677 51.3123 89.8266 52.5271C84.0065 54.3665 78.5295 58.5188 78.5295 60.3994C78.5295 62.6506 76.0861 64.8126 75.9832 64.9087C75.9357 64.9542 75.8761 64.9852 75.8116 64.9979ZM88.399 33.6665C85.1691 33.7056 81.9733 34.3336 78.9687 35.5196C65.29 40.7358 68.5158 55.3136 68.5501 55.4646C69.1541 57.8805 73.1898 63.7968 75.7018 64.291C76.1685 63.8517 77.898 62.0947 77.898 60.4063C77.898 58.0247 83.8417 53.7213 89.6756 51.8751C93.7594 50.5916 97.4107 48.4022 99.4423 46.0343C99.4891 45.9813 99.5509 45.9438 99.6195 45.9267C99.6881 45.9095 99.7603 45.9135 99.8266 45.9382C99.8916 45.9633 99.9475 46.0076 99.9867 46.0653C100.026 46.1229 100.047 46.1911 100.046 46.2608C100.003 47.9617 100.438 49.6406 101.302 51.1064C102.167 52.3246 103.179 53.4312 104.315 54.4008C105.276 55.2862 105.914 55.8696 105.914 56.4598C105.914 57.3452 107.397 60.3651 108.303 60.3651C108.907 60.3651 109.175 57.0638 109.291 55.6499C109.346 54.9087 109.408 54.2086 109.483 53.6733C109.589 53.1154 109.731 52.5651 109.909 52.0261C110.719 49.3356 111.968 45.2656 108.653 41.4976C105.606 38.0179 102.531 38.5052 100.966 39.1091C100.89 39.1378 100.806 39.1384 100.729 39.1107C100.652 39.0831 100.588 39.029 100.547 38.9581C98.9344 36.254 94.5487 33.6665 88.399 33.6665Z" fill="#263238"/>
<path d="M73.2573 57.0714H73.1955C73.1065 57.0547 73.0276 57.0035 72.9762 56.929C72.9248 56.8544 72.9049 56.7625 72.921 56.6733C73.12 55.6095 73.8681 54.7036 75.2133 53.8868C75.2915 53.8423 75.3841 53.8302 75.471 53.8532C75.558 53.8763 75.6325 53.9325 75.6784 54.0099C75.7243 54.0873 75.738 54.1797 75.7164 54.267C75.6949 54.3544 75.64 54.4298 75.5634 54.4771C74.4035 55.1634 73.7583 55.939 73.5936 56.8038C73.5776 56.8806 73.5352 56.9494 73.4738 56.9983C73.4123 57.0472 73.3357 57.0731 73.2573 57.0714Z" fill="white"/>
<path d="M77.6026 53.4676C77.5331 53.4672 77.4653 53.4461 77.4079 53.407C77.3504 53.3678 77.3059 53.3125 77.28 53.248C77.2488 53.1633 77.2521 53.0697 77.2894 52.9875C77.3266 52.9053 77.3948 52.8411 77.4791 52.8088C79.8612 51.9641 82.296 51.2762 84.768 50.7497C86.6074 50.3242 88.3507 49.9124 89.7989 49.4526C95.2347 47.723 98.282 42.9872 98.3164 42.9461C98.3395 42.907 98.3704 42.873 98.407 42.8462C98.4437 42.8193 98.4854 42.8002 98.5297 42.7899C98.5739 42.7797 98.6198 42.7785 98.6645 42.7864C98.7093 42.7944 98.7519 42.8113 98.7899 42.8362C98.8663 42.8855 98.92 42.963 98.9393 43.0518C98.9586 43.1405 98.9419 43.2333 98.8929 43.3098C96.7273 46.4773 93.5985 48.8624 89.9705 50.1114C88.5017 50.5782 86.7447 50.99 84.8915 51.4224C82.4513 51.93 80.0463 52.5949 77.6918 53.4127C77.6647 53.435 77.6347 53.4534 77.6026 53.4676Z" fill="white"/>
<path d="M72.2386 47.3449C72.1696 47.3454 72.1022 47.3238 72.0464 47.2832C71.9712 47.2329 71.9189 47.1549 71.9009 47.0662C71.8829 46.9775 71.9007 46.8852 71.9503 46.8096C72.6367 45.7458 74.4898 45.8213 77.2557 45.9311C79.4988 46.0567 81.7474 46.043 83.9887 45.8899C90.2276 45.3889 95.8006 41.6346 95.8555 41.5934C95.9312 41.5437 96.0234 41.526 96.1121 41.544C96.2008 41.562 96.2788 41.6143 96.3291 41.6895C96.3549 41.7262 96.3732 41.7678 96.3827 41.8117C96.3922 41.8556 96.3928 41.901 96.3845 41.9451C96.3761 41.9893 96.3591 42.0313 96.3342 42.0687C96.3094 42.1062 96.2773 42.1382 96.2399 42.1631C96.0066 42.3209 90.4609 46.0615 84.0436 46.5762C81.775 46.7328 79.4987 46.7465 77.2283 46.6174C74.7849 46.5213 73.021 46.4458 72.52 47.1939C72.4893 47.2405 72.4475 47.2786 72.3984 47.305C72.3493 47.3313 72.2943 47.3451 72.2386 47.3449Z" fill="white"/>
<path d="M109.105 50.9281C109.059 50.9263 109.015 50.9157 108.974 50.8968C108.933 50.8779 108.896 50.8511 108.866 50.8179C108.835 50.7848 108.811 50.7459 108.796 50.7036C108.78 50.6612 108.773 50.6162 108.775 50.5712C108.806 49.7227 108.744 48.8735 108.59 48.0386C108.58 47.9943 108.579 47.9486 108.587 47.904C108.595 47.8594 108.612 47.8169 108.637 47.779C108.662 47.7412 108.695 47.7088 108.733 47.6838C108.77 47.6589 108.813 47.6418 108.857 47.6336C108.902 47.6247 108.948 47.6247 108.993 47.6337C109.037 47.6427 109.08 47.6605 109.117 47.6861C109.155 47.7116 109.187 47.7444 109.212 47.7826C109.237 47.8207 109.254 47.8634 109.262 47.9082C109.425 48.7953 109.491 49.6973 109.461 50.5986C109.46 50.6437 109.449 50.688 109.43 50.729C109.411 50.7699 109.384 50.8067 109.351 50.8373C109.318 50.8679 109.279 50.8917 109.237 50.9073C109.195 50.9228 109.15 50.9299 109.105 50.9281Z" fill="white"/>
<path d="M108.543 46.9417C108.471 46.9422 108.401 46.9198 108.343 46.8779C108.285 46.8359 108.242 46.7765 108.22 46.7083C107.777 45.4872 107.066 44.3806 106.14 43.4697C105.213 42.5589 104.095 41.8668 102.867 41.4441C102.779 41.4185 102.705 41.3597 102.66 41.2802C102.615 41.2007 102.603 41.1068 102.626 41.0186C102.639 40.9753 102.66 40.9349 102.688 40.8998C102.716 40.8647 102.751 40.8354 102.791 40.8138C102.83 40.7921 102.874 40.7784 102.919 40.7735C102.963 40.7686 103.009 40.7726 103.052 40.7852C104.391 41.2283 105.612 41.972 106.619 42.9594C107.627 43.9468 108.395 45.1517 108.865 46.4818C108.88 46.5246 108.887 46.57 108.884 46.6153C108.882 46.6607 108.87 46.705 108.851 46.7459C108.831 46.7867 108.803 46.8233 108.769 46.8533C108.735 46.8834 108.695 46.9064 108.652 46.9211C108.617 46.9346 108.58 46.9416 108.543 46.9417Z" fill="white"/>
<path d="M86.4692 78.0943C85.5759 78.1291 84.6877 77.9454 83.8817 77.559C81.2667 76.1863 76.6202 70.0092 76.428 69.721C76.3734 69.6481 76.35 69.5566 76.3628 69.4665C76.3757 69.3764 76.4238 69.2951 76.4966 69.2405C76.5695 69.1859 76.661 69.1625 76.7511 69.1753C76.8412 69.1882 76.9225 69.2363 76.9771 69.3091C77.0251 69.3709 81.7197 75.6441 84.2043 76.955C86.6888 78.2659 91.349 76.4402 91.3971 76.4196C91.4394 76.4034 91.4846 76.3957 91.5299 76.3969C91.5753 76.3981 91.6199 76.4083 91.6614 76.4267C91.7028 76.4452 91.7402 76.4717 91.7714 76.5046C91.8026 76.5376 91.827 76.5763 91.8432 76.6187C91.8594 76.661 91.8671 76.7062 91.8659 76.7515C91.8647 76.7969 91.8546 76.8415 91.8361 76.883C91.8176 76.9244 91.7911 76.9618 91.7582 76.993C91.7253 77.0242 91.6865 77.0486 91.6442 77.0648C89.9841 77.6781 88.2376 78.0256 86.4692 78.0943Z" fill="#263238"/>
<path d="M93.2256 76.7956C93.2256 77.4201 92.4569 77.9349 91.5166 77.9349C90.5763 77.9349 89.8076 77.4201 89.8076 76.7956C89.8076 76.171 90.5695 75.6562 91.5166 75.6562C92.4638 75.6562 93.2256 76.1641 93.2256 76.7956Z" fill="#263238"/>
<path d="M74.0223 60.8256C74.0223 60.8256 68.3875 46.234 74.0223 37.5312C74.0223 37.5312 65.3127 46.488 72.9997 62.8778L74.0223 60.8256Z" fill="white"/>
<path d="M77.9357 65.553C78.4504 68.9847 77.517 71.9497 75.8424 72.2036C74.1677 72.4575 72.4107 69.8838 71.889 66.4589C71.3674 63.0341 72.3146 60.0622 73.9824 59.8083C75.6502 59.5544 77.4484 62.1281 77.9357 65.553Z" fill="white"/>
<path d="M75.6356 72.5465C73.8442 72.5465 72.094 69.9865 71.5724 66.4999C71.3048 64.9434 71.3868 63.3468 71.8126 61.8259C72.245 60.4532 73.0069 59.5953 73.954 59.458C75.8346 59.1766 77.7495 61.819 78.2986 65.4841C78.5628 67.0408 78.4808 68.6366 78.0583 70.1581C77.6191 71.5308 76.8641 72.3887 75.917 72.5259C75.8238 72.5396 75.7297 72.5465 75.6356 72.5465ZM74.2629 60.1238C74.2013 60.117 74.1392 60.117 74.0776 60.1238C73.3912 60.2199 72.8422 60.9131 72.4921 62.0181C72.0996 63.4395 72.0269 64.9303 72.2794 66.3832C72.7529 69.5541 74.3796 72.0592 75.8415 71.8327C76.5278 71.7367 77.0837 71.0434 77.4338 69.9384C77.823 68.5165 77.8956 67.0264 77.6465 65.5733C77.1592 62.5534 75.6424 60.1375 74.2354 60.1375L74.2629 60.1238Z" fill="#263238"/>
<path d="M74.904 72.1025C76.3884 71.8793 77.1746 68.9241 76.6601 65.5018C76.1455 62.0795 74.5251 59.486 73.0407 59.7092C71.5564 59.9324 70.7701 62.8876 71.2847 66.3099C71.7992 69.7322 73.4196 72.3257 74.904 72.1025Z" fill="white"/>
<path d="M74.7146 72.4646C73.9322 72.4646 73.1292 71.8675 72.436 70.7625C71.6492 69.4127 71.1405 67.9192 70.9398 66.3699C70.3838 62.698 71.2898 59.63 72.9988 59.3761C74.7078 59.1221 76.4305 61.792 77.0139 65.457C77.2742 66.9975 77.2275 68.5743 76.8766 70.0967C76.506 71.4694 75.8265 72.3204 74.9617 72.4509L74.7146 72.4646ZM73.2047 60.0418H73.088C71.9762 60.2066 71.0976 62.7872 71.6193 66.2189C71.8022 67.6683 72.2686 69.0676 72.9919 70.3369C73.5959 71.2909 74.2548 71.792 74.8245 71.7096C75.3941 71.6272 75.8883 70.9478 76.1971 69.8565C76.5261 68.4262 76.5681 66.9449 76.3207 65.4982C75.8196 62.2518 74.3097 60.0418 73.2047 60.0418Z" fill="#263238"/>
<path d="M129.866 89.8574L137.78 152.417L121.973 152.108L129.866 89.8574Z" fill="#592F72"/>
<path d="M137.782 152.76L121.996 152.451C121.948 152.451 121.901 152.44 121.857 152.42C121.813 152.4 121.774 152.371 121.743 152.334C121.712 152.297 121.689 152.255 121.676 152.209C121.663 152.162 121.66 152.114 121.667 152.067L129.553 89.8157C129.563 89.732 129.604 89.6549 129.667 89.5992C129.73 89.5435 129.812 89.5131 129.896 89.5137C129.979 89.5147 130.059 89.5459 130.121 89.6015C130.183 89.657 130.223 89.7331 130.233 89.8157L138.146 152.369C138.154 152.418 138.151 152.468 138.136 152.515C138.122 152.563 138.097 152.607 138.064 152.643C138.029 152.683 137.985 152.714 137.937 152.734C137.888 152.755 137.835 152.763 137.782 152.76ZM122.367 151.772L137.391 152.067L129.841 92.5885L122.367 151.772Z" fill="#263238"/>
<path opacity="0.3" d="M134.173 123.975L125.944 128.917L126.081 119.672L121.97 152.108L137.777 152.417L136.479 142.198L129.582 142.424L135.704 136.062L135.656 135.643L127.241 138.526L134.853 129.308L134.173 123.975Z" fill="black"/>
<path d="M73.3206 71.4081C73.3206 71.4081 75.6542 70.5914 76.1621 71.4905C76.67 72.3896 77.2602 76.2949 77.2465 76.8508C77.2328 77.4067 77.0406 77.9146 75.9836 77.5371C74.9267 77.1597 73.2383 73.7211 73.2383 73.7211L73.3206 71.4081Z" fill="white"/>
<path d="M76.6098 78.0392C76.3559 78.0323 76.105 77.9812 75.8686 77.8882C74.743 77.4696 73.233 74.4977 72.9448 73.9006C72.9344 73.8485 72.9344 73.7949 72.9448 73.7428L73.0134 71.4367C73.0148 71.3673 73.0372 71.3 73.0777 71.2437C73.1181 71.1873 73.1747 71.1445 73.2399 71.1209C73.6792 70.9699 75.8754 70.263 76.4932 71.3612C77.0354 72.3152 77.6462 76.3234 77.6256 76.8999C77.6353 77.0853 77.602 77.2703 77.5282 77.4406C77.4543 77.6109 77.342 77.7618 77.2001 77.8814C77.0248 77.9946 76.8183 78.0498 76.6098 78.0392ZM73.5968 73.6741C74.2351 74.9576 75.4431 76.996 76.1019 77.2431C76.5755 77.4147 76.7402 77.3392 76.7883 77.3117C76.8363 77.2843 76.9118 77.1127 76.9187 76.8793C76.9187 76.4057 76.349 72.5417 75.8755 71.6975C75.649 71.2857 74.5028 71.4435 73.6723 71.6975L73.5968 73.6741Z" fill="#263238"/>
<path d="M63.1096 83.79C63.1096 83.79 65.2716 69.8916 65.3196 68.3817C65.3676 66.8717 67.3786 65.6363 68.3395 65.2657C69.3004 64.8951 74.7911 65.0735 75.3745 65.0941C75.9579 65.1147 78.3051 64.9912 78.2846 65.7805C78.264 66.5698 78.0581 66.9061 76.0951 67.2218C74.1322 67.5375 69.4376 67.7846 69.4376 67.7846L68.2091 69.6377L74.0361 70.7496C74.0361 70.7496 75.4088 71.3535 75.1617 72.2938C74.9146 73.2341 74.2352 77.359 74.2214 77.9218C74.2077 78.4846 73.6037 78.8484 72.2105 79.7543C71.3787 80.2923 70.4435 80.65 69.4651 80.8044C69.4651 80.8044 69.5749 83.639 68.7788 83.9891L66.7952 84.8744L66.5207 101.093L57.564 100.077L63.1096 83.79Z" fill="white"/>
<path d="M66.5136 101.374H66.4724L57.55 100.358C57.4986 100.353 57.4492 100.335 57.4053 100.308C57.3614 100.281 57.3241 100.244 57.296 100.201C57.2741 100.155 57.2627 100.104 57.2627 100.053C57.2627 100.002 57.2741 99.9516 57.296 99.9055L62.8417 83.6804C62.9515 82.9941 64.9968 69.782 65.038 68.3476C65.086 66.618 67.2892 65.2659 68.2843 64.9159C69.2795 64.5659 73.6103 64.6688 75.4429 64.7237H75.7517C76.8911 64.7237 78.0372 64.758 78.4971 65.2247C78.5624 65.2905 78.6136 65.3688 78.6479 65.4549C78.6821 65.541 78.6985 65.6331 78.6961 65.7258C78.6961 66.8102 78.1333 67.1877 76.2184 67.5034C74.4477 67.7916 70.5767 68.0113 69.6982 68.0593L68.854 69.3359L74.1731 70.3517H74.2486C74.3104 70.3517 75.8547 71.0861 75.5664 72.2872C75.3262 73.2961 74.6467 77.3524 74.633 77.8534C74.633 78.5397 73.9947 78.9721 72.6495 79.8438L72.471 79.9605C71.6761 80.4679 70.7942 80.8239 69.8698 81.0106C69.8698 81.944 69.8012 83.852 68.9775 84.2226L67.1999 85.0188L66.9254 101.017C66.924 101.065 66.913 101.113 66.8929 101.156C66.8729 101.2 66.8442 101.239 66.8087 101.271C66.7712 101.311 66.7249 101.34 66.6736 101.358C66.6222 101.376 66.5674 101.382 66.5136 101.374ZM58.0304 99.7545L66.1773 100.688L66.445 84.8472C66.4473 84.7826 66.4679 84.7199 66.5044 84.6665C66.5408 84.6131 66.5916 84.571 66.6509 84.5452L68.6275 83.6598C68.9707 83.502 69.156 82.0263 69.108 80.7978C69.1039 80.7112 69.1327 80.6262 69.1888 80.56C69.2448 80.4937 69.3238 80.4512 69.4099 80.4409C70.3419 80.2967 71.2329 79.9576 72.0249 79.4457L72.2102 79.329C73.3839 78.5603 73.8643 78.2377 73.878 77.8946C73.878 77.2631 74.6261 73.0902 74.832 72.1911C74.9693 71.6146 74.1457 71.1479 73.9329 71.0586L68.1471 69.9536C68.0912 69.9426 68.0388 69.918 67.9946 69.8821C67.9503 69.8463 67.9155 69.8001 67.8931 69.7477C67.8678 69.6977 67.8546 69.6425 67.8546 69.5864C67.8546 69.5304 67.8678 69.4751 67.8931 69.4251L69.1148 67.572C69.1464 67.528 69.1875 67.4916 69.235 67.4655C69.2825 67.4393 69.3352 67.4241 69.3894 67.421C69.4305 67.421 74.0839 67.1808 76.0057 66.8651C77.9274 66.5494 77.8931 66.2542 77.9068 65.7464C77.8451 65.6434 77.4744 65.4512 75.6968 65.4512H75.3262C72.5808 65.3689 69.1011 65.362 68.4216 65.6022C67.4951 65.9317 65.6763 67.1259 65.6282 68.4094C65.5802 69.9193 63.5074 83.2892 63.4182 83.8589C63.4182 83.8589 63.4182 83.9 63.4182 83.9138L58.0304 99.7545Z" fill="#263238"/>
<path d="M74.6895 73.3913H74.6277L67.5584 72.1215C67.4674 72.1052 67.3866 72.0533 67.3338 71.9773C67.2811 71.9014 67.2606 71.8076 67.277 71.7166C67.2934 71.6256 67.3452 71.5448 67.4212 71.492C67.4971 71.4393 67.5909 71.4188 67.6819 71.4352L74.7512 72.7118C74.8423 72.72 74.9263 72.764 74.9849 72.8341C75.0434 72.9043 75.0717 72.9948 75.0635 73.0859C75.0553 73.1769 75.0113 73.2609 74.9412 73.3195C74.871 73.378 74.7805 73.4063 74.6895 73.3981V73.3913Z" fill="#263238"/>
<path d="M73.8901 76.5623H73.8146L67.9944 75.1484C67.9034 75.1275 67.8244 75.0713 67.7749 74.9921C67.7253 74.9129 67.7092 74.8173 67.7302 74.7263C67.7511 74.6353 67.8073 74.5563 67.8865 74.5068C67.9656 74.4572 68.0612 74.4412 68.1523 74.4621L73.9793 75.876C74.0233 75.8855 74.0648 75.9039 74.1014 75.9302C74.1379 75.9564 74.1687 75.9898 74.1919 76.0284C74.2151 76.067 74.2301 76.1099 74.236 76.1545C74.2419 76.1991 74.2386 76.2445 74.2264 76.2878C74.2118 76.3659 74.17 76.4363 74.1084 76.4866C74.0469 76.5368 73.9695 76.5636 73.8901 76.5623Z" fill="#263238"/>
<path d="M69.4455 81.1129C69.3879 81.1141 69.3309 81.1002 69.2803 81.0725C69.2297 81.0448 69.1873 81.0043 69.1573 80.955C68.9102 80.5707 68.3543 79.6304 68.5396 79.1156C68.5687 79.0337 68.6169 78.9599 68.6801 78.9002C68.7433 78.8406 68.8199 78.7968 68.9033 78.7725C69.4455 78.6077 70.7084 78.2852 70.7084 78.2852L70.88 78.9715C70.88 78.9715 69.7544 79.2598 69.1847 79.4245C69.2986 79.8466 69.4844 80.2459 69.7338 80.605C69.7828 80.6815 69.7995 80.7743 69.7802 80.863C69.7609 80.9518 69.7072 81.0293 69.6309 81.0786C69.5729 81.1052 69.5092 81.117 69.4455 81.1129Z" fill="#263238"/>
<path d="M58.3636 91.6758L68.0409 95.3271C68.0409 95.3271 61.3011 137.633 59.6813 140.955C58.0616 144.277 54.273 148.134 49.3862 148.601C44.4995 149.068 40.9648 143.796 40.8207 138.258C40.6766 132.719 58.3636 91.6758 58.3636 91.6758Z" fill="#592F72"/>
<path d="M48.7632 148.971C47.0751 148.955 45.4534 148.311 44.2128 147.166C41.9891 145.19 40.5477 141.786 40.4585 138.244C40.3075 132.719 57.3288 93.1926 58.0494 91.5111C58.0856 91.4306 58.1515 91.3671 58.2333 91.3338C58.3151 91.3006 58.4066 91.3002 58.4887 91.3327L68.1661 94.9771C68.2403 95.0034 68.3029 95.0549 68.343 95.1226C68.3831 95.1904 68.3982 95.27 68.3857 95.3477C68.1111 97.0773 61.6184 137.75 59.9849 141.072C58.2416 144.641 54.2883 148.45 49.3947 148.917C49.1888 148.965 48.976 148.971 48.7632 148.971ZM58.5504 92.1151C56.9444 95.8625 41.0076 133.124 41.1449 138.251C41.2272 141.58 42.5793 144.799 44.6726 146.652C45.2921 147.233 46.0276 147.677 46.8308 147.954C47.634 148.23 48.4868 148.334 49.3329 148.258C53.9588 147.818 57.7062 144.195 59.3741 140.804C60.8909 137.709 67.0748 99.2118 67.665 95.5468L58.5504 92.1151Z" fill="#263238"/>
<path opacity="0.3" d="M50.353 127.098C47.9922 128.302 45.5274 129.29 42.9886 130.049C42.1169 132.582 41.4512 134.73 41.0943 136.267L45.6722 135.691C48.9338 135.315 52.1516 134.625 55.2809 133.632C55.2809 133.632 47.7312 138.306 40.9982 139.088H40.8403C41.2865 144.291 44.6907 149.068 49.3578 148.621C54.2651 148.155 58.0469 144.291 59.6529 140.976C60.4491 139.342 62.4806 128.32 64.3406 117.523C60.0289 121.199 55.3403 124.409 50.353 127.098Z" fill="black"/>
<path d="M125.912 53.3282V52.2124C125.912 52.0547 125.849 51.9035 125.738 51.792C125.626 51.6805 125.475 51.6178 125.317 51.6178H124.458C124.327 51.0556 124.104 50.5189 123.798 50.0297L124.405 49.4188C124.516 49.3067 124.578 49.1552 124.578 48.9974C124.578 48.8395 124.516 48.688 124.405 48.5759L123.619 47.7899C123.507 47.6788 123.355 47.6164 123.198 47.6164C123.04 47.6164 122.888 47.6788 122.776 47.7899L122.165 48.3967C121.676 48.0905 121.139 47.8676 120.577 47.737V46.8778C120.577 46.7201 120.514 46.5688 120.403 46.4573C120.291 46.3458 120.14 46.2832 119.982 46.2832H118.867C118.709 46.2832 118.558 46.3458 118.446 46.4573C118.335 46.5688 118.272 46.7201 118.272 46.8778V47.737C117.71 47.8676 117.173 48.0905 116.684 48.3967L116.073 47.7899C115.961 47.6788 115.81 47.6164 115.652 47.6164C115.494 47.6164 115.342 47.6788 115.23 47.7899L114.444 48.5759C114.333 48.688 114.271 48.8395 114.271 48.9974C114.271 49.1552 114.333 49.3067 114.444 49.4188L115.051 50.0297C114.744 50.5183 114.523 51.0553 114.395 51.6178H113.532C113.374 51.6178 113.223 51.6805 113.112 51.792C113 51.9035 112.938 52.0547 112.938 52.2124V53.3282C112.937 53.4859 113 53.6371 113.112 53.7486C113.223 53.8601 113.374 53.9227 113.532 53.9227H114.395C114.523 54.4853 114.744 55.0223 115.051 55.5109L114.444 56.1217C114.333 56.2338 114.271 56.3853 114.271 56.5432C114.271 56.7011 114.333 56.8526 114.444 56.9647L115.23 57.7506C115.342 57.8618 115.494 57.9242 115.652 57.9242C115.81 57.9242 115.961 57.8618 116.073 57.7506L116.684 57.1439C117.176 57.4545 117.717 57.679 118.284 57.8076V58.671C118.284 58.8286 118.347 58.9799 118.458 59.0914C118.57 59.2029 118.721 59.2655 118.879 59.2655H119.995C120.152 59.2655 120.304 59.2029 120.415 59.0914C120.527 58.9799 120.589 58.8286 120.589 58.671V57.8076C121.152 57.6802 121.689 57.4585 122.177 57.152L122.788 57.7588C122.9 57.8699 123.052 57.9323 123.21 57.9323C123.368 57.9323 123.519 57.8699 123.631 57.7588L124.393 56.9932C124.504 56.8811 124.566 56.7296 124.566 56.5717C124.566 56.4138 124.504 56.2623 124.393 56.1502L123.786 55.5394C124.092 55.0501 124.315 54.5134 124.446 53.9512H125.305C125.386 53.953 125.467 53.938 125.543 53.9071C125.618 53.8762 125.687 53.8301 125.744 53.7716C125.801 53.7132 125.845 53.6437 125.874 53.5674C125.903 53.4911 125.916 53.4097 125.912 53.3282ZM119.685 55.3073C119.161 55.3633 118.632 55.2553 118.172 54.9982C117.711 54.7411 117.342 54.3476 117.115 53.8718C116.887 53.3961 116.813 52.8615 116.902 52.3418C116.991 51.8221 117.239 51.3428 117.612 50.9699C117.985 50.597 118.464 50.349 118.984 50.2599C119.504 50.1708 120.038 50.2451 120.514 50.4725C120.99 50.6999 121.383 51.0692 121.64 51.5296C121.897 51.99 122.005 52.5188 121.949 53.0431C121.889 53.6244 121.632 54.1674 121.22 54.5817C120.808 54.996 120.266 55.2564 119.685 55.3195V55.3073Z" fill="#263238"/>
<path d="M21.6614 101.976V101.137C21.6614 101.017 21.6138 100.902 21.529 100.818C21.4442 100.733 21.3293 100.685 21.2094 100.685H20.5497C20.4516 100.261 20.2837 99.8568 20.0529 99.4881L20.513 99.032C20.5549 98.9904 20.5881 98.9409 20.6108 98.8864C20.6335 98.8318 20.6451 98.7734 20.6451 98.7144C20.6451 98.6553 20.6335 98.5969 20.6108 98.5423C20.5881 98.4878 20.5549 98.4383 20.513 98.3967L19.9185 97.8022C19.8769 97.7603 19.8274 97.7271 19.7728 97.7044C19.7183 97.6817 19.6599 97.6701 19.6008 97.6701C19.5418 97.6701 19.4834 97.6817 19.4288 97.7044C19.3743 97.7271 19.3248 97.7603 19.2832 97.8022L18.8231 98.2583C18.4548 98.0273 18.0499 97.8607 17.6258 97.7655V97.114C17.6258 96.9952 17.5786 96.8812 17.4946 96.7972C17.4106 96.7132 17.2967 96.666 17.1779 96.666H16.3512C16.232 96.666 16.1177 96.7131 16.033 96.797C15.9484 96.8809 15.9003 96.9948 15.8992 97.114V97.7655C15.475 97.8607 15.0702 98.0273 14.7019 98.2583L14.2418 97.8022C14.2002 97.7603 14.1507 97.7271 14.0962 97.7044C14.0416 97.6817 13.9832 97.6701 13.9241 97.6701C13.8651 97.6701 13.8067 97.6817 13.7521 97.7044C13.6976 97.7271 13.6481 97.7603 13.6065 97.8022L13.016 98.3967C12.9737 98.4381 12.94 98.4875 12.917 98.542C12.8941 98.5966 12.8822 98.6552 12.8822 98.7144C12.8822 98.7735 12.8941 98.8321 12.917 98.8867C12.94 98.9412 12.9737 98.9906 13.016 99.032L13.4721 99.4881C13.2413 99.8568 13.0734 100.261 12.9753 100.685H12.3278C12.2087 100.686 12.0947 100.734 12.0108 100.819C11.9269 100.904 11.8799 101.018 11.8799 101.137V101.976C11.8799 102.095 11.9271 102.209 12.0111 102.293C12.0951 102.377 12.209 102.424 12.3278 102.424H12.9753C13.0719 102.849 13.2399 103.253 13.4721 103.621L13.016 104.082C12.9737 104.123 12.94 104.172 12.917 104.227C12.8941 104.281 12.8822 104.34 12.8822 104.399C12.8822 104.458 12.8941 104.517 12.917 104.572C12.94 104.626 12.9737 104.675 13.016 104.717L13.6269 105.311C13.6685 105.353 13.718 105.386 13.7725 105.409C13.827 105.432 13.8855 105.443 13.9445 105.443C14.0035 105.443 14.062 105.432 14.1165 105.409C14.171 105.386 14.2205 105.353 14.2621 105.311L14.7223 104.851C15.0904 105.083 15.4952 105.251 15.9195 105.348V105.996C15.9195 106.115 15.9672 106.23 16.0519 106.315C16.1367 106.4 16.2517 106.448 16.3716 106.448H17.2104C17.3296 106.446 17.4435 106.398 17.5274 106.314C17.6113 106.229 17.6584 106.115 17.6584 105.996V105.348C18.0827 105.251 18.4876 105.083 18.8556 104.851L19.3158 105.311C19.3574 105.353 19.4069 105.386 19.4614 105.409C19.5159 105.432 19.5744 105.443 19.6334 105.443C19.6925 105.443 19.7509 105.432 19.8054 105.409C19.8599 105.386 19.9094 105.353 19.9511 105.311L20.5456 104.717C20.5875 104.675 20.6207 104.626 20.6434 104.571C20.666 104.517 20.6777 104.458 20.6777 104.399C20.6777 104.34 20.666 104.282 20.6434 104.227C20.6207 104.173 20.5875 104.123 20.5456 104.082L20.0854 103.621C20.3177 103.253 20.4857 102.849 20.5823 102.424H21.2297C21.3454 102.419 21.4546 102.37 21.5349 102.286C21.6152 102.203 21.6605 102.092 21.6614 101.976ZM16.9661 103.467C16.5712 103.507 16.1733 103.425 15.8272 103.23C15.481 103.036 15.2036 102.739 15.033 102.381C14.8624 102.022 14.807 101.62 14.8744 101.228C14.9418 100.837 15.1287 100.476 15.4095 100.196C15.6902 99.9149 16.051 99.728 16.4422 99.6605C16.8335 99.5931 17.236 99.6485 17.5945 99.8191C17.953 99.9897 18.2499 100.267 18.4444 100.613C18.6388 100.959 18.7213 101.357 18.6805 101.752C18.6352 102.191 18.4399 102.602 18.1277 102.914C17.8155 103.226 17.4053 103.421 16.9661 103.467Z" fill="#263238"/>
<path d="M146.508 90.7936V89.9547C146.508 89.8349 146.46 89.7199 146.376 89.6351C146.291 89.5503 146.176 89.5027 146.056 89.5027H145.409C145.312 89.0784 145.144 88.6735 144.912 88.3055L145.372 87.8494C145.414 87.8078 145.447 87.7583 145.47 87.7038C145.492 87.6492 145.504 87.5908 145.504 87.5318C145.504 87.4727 145.492 87.4143 145.47 87.3598C145.447 87.3052 145.414 87.2558 145.372 87.2141L144.777 86.6196C144.736 86.5777 144.686 86.5445 144.632 86.5218C144.577 86.4992 144.519 86.4875 144.46 86.4875C144.401 86.4875 144.342 86.4992 144.288 86.5218C144.233 86.5445 144.184 86.5777 144.142 86.6196L143.682 87.0757C143.313 86.8451 142.908 86.6772 142.485 86.5788V85.9069C142.485 85.8481 142.473 85.7899 142.451 85.7355C142.428 85.6812 142.395 85.6318 142.354 85.5902C142.312 85.5486 142.263 85.5156 142.208 85.4931C142.154 85.4706 142.096 85.459 142.037 85.459H141.194C141.075 85.459 140.961 85.5062 140.877 85.5902C140.793 85.6742 140.746 85.7881 140.746 85.9069V86.5544C140.322 86.6528 139.918 86.8206 139.549 87.0512L139.088 86.5951C139.047 86.5533 138.997 86.5201 138.943 86.4974C138.888 86.4747 138.83 86.4631 138.771 86.4631C138.712 86.4631 138.653 86.4747 138.599 86.4974C138.544 86.5201 138.495 86.5533 138.453 86.5951L137.863 87.1897C137.82 87.231 137.787 87.2804 137.764 87.335C137.741 87.3895 137.729 87.4481 137.729 87.5073C137.729 87.5665 137.741 87.6251 137.764 87.6797C137.787 87.7342 137.82 87.7836 137.863 87.825L138.319 88.281C138.087 88.6491 137.919 89.0539 137.822 89.4783H137.175C137.055 89.4794 136.941 89.5275 136.858 89.6121C136.774 89.6968 136.727 89.8111 136.727 89.9303V90.7936C136.727 90.9124 136.774 91.0264 136.858 91.1104C136.942 91.1944 137.056 91.2416 137.175 91.2416H137.826C137.923 91.6659 138.091 92.0708 138.323 92.4388L137.867 92.899C137.824 92.9403 137.791 92.9897 137.768 93.0443C137.745 93.0988 137.733 93.1574 137.733 93.2166C137.733 93.2758 137.745 93.3344 137.768 93.3889C137.791 93.4435 137.824 93.4929 137.867 93.5342L138.457 94.1288C138.499 94.1706 138.548 94.2039 138.603 94.2265C138.657 94.2492 138.716 94.2609 138.775 94.2609C138.834 94.2609 138.892 94.2492 138.947 94.2265C139.001 94.2039 139.051 94.1706 139.093 94.1288L139.553 93.6686C139.921 93.9009 140.326 94.0689 140.75 94.1654V94.8129C140.75 94.9321 140.797 95.0465 140.881 95.1311C140.965 95.2158 141.079 95.2639 141.198 95.2649H142.041C142.16 95.2639 142.274 95.2158 142.358 95.1311C142.442 95.0465 142.489 94.9321 142.489 94.8129V94.1654C142.913 94.0689 143.318 93.9009 143.686 93.6686L144.146 94.1288C144.188 94.1706 144.237 94.2039 144.292 94.2265C144.346 94.2492 144.405 94.2609 144.464 94.2609C144.523 94.2609 144.581 94.2492 144.636 94.2265C144.69 94.2039 144.74 94.1706 144.781 94.1288L145.376 93.5342C145.418 93.4926 145.451 93.4431 145.474 93.3886C145.496 93.3341 145.508 93.2756 145.508 93.2166C145.508 93.1576 145.496 93.0991 145.474 93.0446C145.451 92.9901 145.418 92.9406 145.376 92.899L144.912 92.4225C145.144 92.0545 145.312 91.6496 145.409 91.2253H146.056C146.172 91.2254 146.284 91.1806 146.369 91.1002C146.453 91.0197 146.503 90.9099 146.508 90.7936ZM141.813 92.2841C141.418 92.3249 141.02 92.2424 140.674 92.0479C140.328 91.8534 140.05 91.5566 139.88 91.1981C139.709 90.8396 139.654 90.437 139.721 90.0458C139.788 89.6545 139.975 89.2937 140.256 89.013C140.537 88.7323 140.898 88.5454 141.289 88.4779C141.68 88.4105 142.083 88.4659 142.441 88.6365C142.8 88.8071 143.097 89.0846 143.291 89.4307C143.486 89.7769 143.568 90.1747 143.527 90.5696C143.48 91.0074 143.284 91.4157 142.972 91.7263C142.66 92.0368 142.251 92.2309 141.813 92.2759V92.2841Z" fill="#263238"/>
<path d="M77.8804 36.1441V35.7124C77.8804 35.6821 77.8744 35.6521 77.8627 35.6242C77.851 35.5963 77.8338 35.5709 77.8122 35.5497C77.7906 35.5285 77.765 35.5118 77.7368 35.5006C77.7087 35.4893 77.6786 35.4838 77.6483 35.4844H77.3185C77.2673 35.2667 77.1806 35.059 77.0619 34.8695L77.2981 34.6374C77.3409 34.5939 77.3649 34.5354 77.3649 34.4745C77.3649 34.4135 77.3409 34.355 77.2981 34.3116L76.9927 34.0062C76.95 33.9636 76.8921 33.9398 76.8318 33.9398C76.7715 33.9398 76.7137 33.9636 76.671 34.0062L76.4348 34.2423C76.2453 34.1236 76.0375 34.037 75.8199 33.9858V33.6559C75.8199 33.5951 75.796 33.5367 75.7533 33.4932C75.7107 33.4498 75.6527 33.4249 75.5918 33.4238H75.1602C75.0993 33.4249 75.0413 33.4498 74.9987 33.4932C74.956 33.5367 74.9321 33.5951 74.9321 33.6559V33.9858C74.7143 34.0365 74.5065 34.1232 74.3172 34.2423L74.081 34.0062C74.0376 33.9634 73.9791 33.9394 73.9181 33.9394C73.8572 33.9394 73.7987 33.9634 73.7553 34.0062L73.4539 34.3116C73.4111 34.355 73.3872 34.4135 73.3872 34.4745C73.3872 34.5354 73.4111 34.5939 73.4539 34.6374L73.686 34.8695C73.5688 35.0592 73.4835 35.267 73.4335 35.4844H73.0996C73.0391 35.4844 72.9811 35.5084 72.9384 35.5512C72.8956 35.5939 72.8716 35.6519 72.8716 35.7124V36.1441C72.8716 36.2049 72.8955 36.2634 72.9381 36.3068C72.9808 36.3502 73.0388 36.3751 73.0996 36.3762H73.4335C73.4828 36.5925 73.5682 36.7991 73.686 36.987L73.4539 37.2232C73.4111 37.2667 73.3872 37.3252 73.3872 37.3861C73.3872 37.4471 73.4111 37.5056 73.4539 37.549L73.7553 37.8544C73.7987 37.8972 73.8572 37.9212 73.9181 37.9212C73.9791 37.9212 74.0376 37.8972 74.081 37.8544L74.3172 37.6182C74.5058 37.7378 74.7139 37.8233 74.9321 37.8707V38.2046C74.9321 38.2651 74.9562 38.3231 74.9989 38.3659C75.0417 38.4087 75.0997 38.4327 75.1602 38.4327H75.5918C75.6523 38.4327 75.7103 38.4087 75.7531 38.3659C75.7959 38.3231 75.8199 38.2651 75.8199 38.2046V37.8544C76.0378 37.8062 76.2459 37.7208 76.4348 37.6019L76.671 37.8381C76.7137 37.8807 76.7715 37.9045 76.8318 37.9045C76.8921 37.9045 76.95 37.8807 76.9927 37.8381L77.2981 37.5327C77.3409 37.4893 77.3649 37.4308 77.3649 37.3698C77.3649 37.3089 77.3409 37.2504 77.2981 37.2069L77.0619 36.9707C77.1811 36.783 77.2678 36.5765 77.3185 36.3599H77.6483C77.7072 36.3601 77.7639 36.3379 77.8069 36.2978C77.85 36.2577 77.8763 36.2028 77.8804 36.1441ZM75.4778 36.9097C75.2751 36.9348 75.0695 36.8963 74.8896 36.7995C74.7097 36.7028 74.5643 36.5524 74.4736 36.3694C74.3828 36.1864 74.3512 35.9797 74.3831 35.7779C74.415 35.5761 74.5088 35.3892 74.6515 35.243C74.7943 35.0969 74.9789 34.9987 75.1799 34.9621C75.3809 34.9255 75.5883 34.9523 75.7734 35.0387C75.9585 35.1252 76.1122 35.267 76.2132 35.4446C76.3142 35.6222 76.3575 35.8268 76.3371 36.0301C76.314 36.2521 76.2166 36.4598 76.0606 36.6195C75.9046 36.7792 75.6993 36.8815 75.4778 36.9097Z" fill="#263238"/>
<path d="M25.5001 64.6582H22.731V67.4273H25.5001V64.6582ZM23.2929 65.2202H24.9218V66.8694H23.2929V65.2202Z" fill="#263238"/>
<path d="M137.352 118.773H134.57V121.543H137.339L137.352 118.773ZM135.14 119.335H136.79V120.985H135.14V119.335Z" fill="#263238"/>
<path d="M95.8064 39.4512H93.0332V42.2203H95.8023L95.8064 39.4512ZM93.5952 40.0091H95.2444V41.638H93.5952V40.0091Z" fill="#263238"/>
<path d="M23.8722 108.879H21.103V111.652H23.8722V108.879ZM21.6609 109.441H23.2898V111.07H21.6609V109.441Z" fill="#263238"/>
<path opacity="0.9" d="M104.72 58.6231C104.391 58.6222 104.068 58.7192 103.794 58.9018C103.52 59.0843 103.305 59.3441 103.179 59.6484C103.052 59.9527 103.018 60.2877 103.082 60.611C103.146 60.9344 103.304 61.2315 103.537 61.4649C103.77 61.6982 104.067 61.8572 104.39 61.9218C104.713 61.9864 105.048 61.9537 105.353 61.8277C105.657 61.7018 105.918 61.4883 106.101 61.2143C106.284 60.9404 106.382 60.6182 106.382 60.2886C106.382 59.8476 106.207 59.4245 105.895 59.1123C105.584 58.8001 105.161 58.6241 104.72 58.6231ZM104.72 61.2863C104.523 61.2863 104.33 61.2278 104.166 61.1182C104.002 61.0085 103.874 60.8527 103.799 60.6704C103.723 60.4881 103.703 60.2875 103.742 60.094C103.78 59.9004 103.875 59.7226 104.015 59.5831C104.154 59.4436 104.332 59.3486 104.526 59.3101C104.719 59.2716 104.92 59.2913 105.102 59.3668C105.285 59.4424 105.44 59.5702 105.55 59.7343C105.66 59.8984 105.718 60.0913 105.718 60.2886C105.714 60.5504 105.607 60.8 105.42 60.9836C105.234 61.1672 104.982 61.27 104.72 61.27V61.2863Z" fill="#263238"/>
<path d="M68.3178 41.098L62.0309 32.3952C63.1839 32.3916 64.2886 31.932 65.1038 31.1168C65.9191 30.3015 66.3787 29.1968 66.3823 28.0438V4.35139C66.3769 3.199 65.9167 2.09535 65.1018 1.28047C64.287 0.465599 63.1833 0.00541462 62.0309 0H7.39828C6.24533 0.00361996 5.14063 0.463232 4.32537 1.27849C3.51011 2.09375 3.05049 3.19844 3.04688 4.35139V28.0438C3.04869 29.1974 3.50772 30.3031 4.32337 31.1187C5.13902 31.9344 6.24477 32.3934 7.39828 32.3952H54.639L68.3178 41.098Z" fill="#B994DA"/>
<path d="M21.2059 15.2294C21.2059 14.7027 21.0497 14.1879 20.7571 13.7499C20.4645 13.312 20.0486 12.9707 19.562 12.7691C19.0754 12.5676 18.5399 12.5148 18.0234 12.6176C17.5068 12.7203 17.0323 12.974 16.6599 13.3464C16.2874 13.7188 16.0338 14.1933 15.9311 14.7099C15.8283 15.2264 15.881 15.7619 16.0826 16.2485C16.2841 16.7351 16.6255 17.151 17.0634 17.4436C17.5013 17.7362 18.0162 17.8924 18.5429 17.8924C18.8926 17.8924 19.2389 17.8235 19.562 17.6897C19.8851 17.5559 20.1786 17.3597 20.4259 17.1124C20.6732 16.8652 20.8693 16.5716 21.0032 16.2485C21.137 15.9254 21.2059 15.5791 21.2059 15.2294Z" fill="#592F72"/>
<path d="M36.9066 15.2294C36.9066 14.7024 36.7502 14.1873 36.4573 13.7492C36.1644 13.3111 35.7481 12.9698 35.2611 12.7685C34.7741 12.5671 34.2383 12.5148 33.7215 12.6181C33.2048 12.7214 32.7303 12.9757 32.3581 13.3488C31.986 13.7219 31.7329 14.1971 31.6309 14.7141C31.5289 15.2311 31.5826 15.7668 31.7852 16.2532C31.9879 16.7397 32.3302 17.1551 32.7691 17.4469C33.2079 17.7387 33.7234 17.8937 34.2504 17.8924C34.5998 17.8924 34.9458 17.8235 35.2685 17.6896C35.5912 17.5556 35.8843 17.3594 36.131 17.112C36.3778 16.8646 36.5733 16.571 36.7063 16.248C36.8394 15.9249 36.9075 15.5788 36.9066 15.2294Z" fill="#592F72"/>
<path d="M52.6292 15.2294C52.6292 14.7027 52.473 14.1879 52.1804 13.7499C51.8878 13.312 51.4719 12.9707 50.9853 12.7691C50.4987 12.5676 49.9633 12.5148 49.4467 12.6176C48.9301 12.7203 48.4556 12.974 48.0832 13.3464C47.7108 13.7188 47.4571 14.1933 47.3544 14.7099C47.2516 15.2264 47.3044 15.7619 47.5059 16.2485C47.7075 16.7351 48.0488 17.151 48.4867 17.4436C48.9247 17.7362 49.4395 17.8924 49.9662 17.8924C50.3159 17.8924 50.6622 17.8235 50.9853 17.6897C51.3084 17.5559 51.602 17.3597 51.8492 17.1124C52.0965 16.8652 52.2927 16.5716 52.4265 16.2485C52.5603 15.9254 52.6292 15.5791 52.6292 15.2294Z" fill="#592F72"/>
</svg>
