<svg width="375" height="667" viewBox="0 0 375 667" fill="none" xmlns="http://www.w3.org/2000/svg">
<defs>
<filter id="filter0_f_1284_6" x="-361" y="-237" width="1326.9" height="1326.1" filterUnits="userSpaceOnUse" color-interpolation-filters="sRGB">
<feFlood flood-opacity="0" result="BackgroundImageFix"/>
<feBlend mode="normal" in="SourceGraphic" in2="BackgroundImageFix" result="shape"/>
<feGaussianBlur stdDeviation="4.5" result="effect1_foregroundBlur_1284_6"/>
</filter>
<linearGradient id="paint0_linear_1284_6" x1="85.5" y1="-49.5" x2="375" y2="926.5" gradientUnits="userSpaceOnUse">
<stop stop-color="#F8D199"/>
<stop offset="0.417444" stop-color="#DA90AA"/>
<stop offset="0.977749" stop-color="#B994DA"/>
</linearGradient>
<linearGradient id="paint1_linear_1284_6" x1="352.5" y1="366.921" x2="319.81" y2="525.923" gradientUnits="userSpaceOnUse">
<stop stop-color="#FFFAF2"/>
<stop offset="0.3727" stop-color="#FFF0D9" stop-opacity="0.6264"/>
<stop offset="0.7332" stop-color="#FFE9C7" stop-opacity="0.265"/>
<stop offset="0.9975" stop-color="#FFE6C1" stop-opacity="0"/>
</linearGradient>
<linearGradient id="paint2_linear_1284_6" x1="380.052" y1="334.988" x2="328.787" y2="489.008" gradientUnits="userSpaceOnUse">
<stop stop-color="#FFFAF2"/>
<stop offset="0.3727" stop-color="#FFF0D9" stop-opacity="0.6264"/>
<stop offset="0.7332" stop-color="#FFE9C7" stop-opacity="0.265"/>
<stop offset="0.9975" stop-color="#FFE6C1" stop-opacity="0"/>
</linearGradient>
<linearGradient id="paint3_linear_1284_6" x1="273.7" y1="440.368" x2="235.205" y2="609.801" gradientUnits="userSpaceOnUse">
<stop stop-color="#FFFAF2"/>
<stop offset="0.3727" stop-color="#FFF0D9" stop-opacity="0.6264"/>
</linearGradient>
<linearGradient id="paint4_linear_1284_6" x1="166" y1="459" x2="150" y2="600" gradientUnits="userSpaceOnUse">
<stop stop-color="#FFF0D9"/>
<stop offset="1" stop-color="#9C71BC"/>
</linearGradient>
<linearGradient id="paint5_linear_1284_6" x1="146.727" y1="518.339" x2="119.622" y2="685.504" gradientUnits="userSpaceOnUse">
<stop stop-color="#FFF0D9"/>
<stop offset="0.789731" stop-color="#A67ABD"/>
</linearGradient>
</defs>
<path d="M0 0H375V667H0V0Z" fill="url(#paint0_linear_1284_6)"/>
<g filter="url(#filter0_f_1284_6)">
<path d="M-92.2546 290L-105.633 500.425C-84.0395 502.289 -62.2523 504.193 -40.3568 506.105C95.8643 517.969 237.076 530.035 370.661 534.777C505.635 539.564 643.47 547.26 768.421 517.733C750.332 500.091 710.704 494.095 685.05 505.103C681.266 496.176 660.792 490.734 649.991 496.02C644.392 476.648 619.657 457.458 591.36 451.171C563.063 444.899 530.654 449.923 510.874 463.671C498.309 454.273 475.122 450.433 458.487 455.089C447.411 441.096 423.023 433.904 404.395 442.531C399.441 421.222 376.793 401.371 346.613 392.888C316.433 384.404 280.433 387.396 255.977 400.428C246.246 395.394 228.397 396.222 218.905 400.769C198.126 378.224 145.596 366.761 110.69 376.834C106.934 359.599 83.1291 343.238 59.7749 334.842C36.4 326.431 7.44635 326.032 -15.129 333.788C-19.7593 319.7 -41.4297 307.746 -59.4324 299.358C-69.3201 294.733 -80.6058 291.563 -92.2546 290Z" fill="url(#paint1_linear_1284_6)"/>
<path d="M-52.4852 206.01L-90.655 413.377C-69.4329 417.781 -48.0238 422.249 -26.5081 426.736C107.354 454.627 246.148 483.307 378.235 503.814C511.696 524.529 647.653 548.471 775.219 533.929C759.343 514.271 720.703 503.63 693.927 511.528C691.225 502.216 671.538 494.39 660.188 498.363C656.919 478.464 634.627 456.483 607.273 446.895C579.916 437.32 547.139 438.476 525.872 449.789C514.507 438.97 491.937 432.415 474.868 435.071C465.525 419.866 442.159 409.841 422.641 416.204C420.242 394.459 400.1 372.07 371.135 360.076C342.171 348.083 306.069 346.797 280.244 356.845C271.176 350.696 253.355 349.407 243.391 352.8C225.424 327.955 174.619 310.361 138.766 316.236C137.075 298.677 115.372 279.616 93.1744 268.517C70.9583 257.4 42.2549 253.581 18.9208 258.612C15.989 244.075 -4.11559 229.643 -21.0001 219.185C-30.2714 213.423 -41.1029 208.94 -52.4852 206.01Z" fill="url(#paint2_linear_1284_6)" fill-opacity="0.7"/>
<path d="M-47.519 382.999L-50.9073 611.428C-35.3665 612.189 -19.6859 612.984 -3.9275 613.779C94.1118 618.697 195.736 623.544 291.675 620.91C388.611 618.244 487.685 618.559 576.421 579.353C562.928 561.318 534.333 557.134 516.26 570.534C513.283 561.097 498.44 556.399 490.85 562.746C486.263 542.113 467.959 522.789 447.481 517.633C427.003 512.492 403.909 519.811 390.129 535.834C380.842 526.397 364.1 523.589 352.308 529.593C343.952 515.099 326.25 508.735 313.146 519.151C308.965 496.386 292.138 476.227 270.244 468.803C248.351 461.379 222.622 466.708 205.468 482.228C198.341 477.348 185.565 479.28 178.892 484.752C163.326 461.569 125.317 452.22 100.581 465.147C97.3795 446.719 79.8255 430.403 62.8297 422.677C45.8185 414.935 25.043 416.187 9.08207 425.89C5.34602 410.917 -10.5472 399.244 -23.705 391.216C-30.9323 386.787 -39.1191 384.013 -47.519 382.999Z" fill="url(#paint3_linear_1284_6)"/>
</g>
<path d="M-717 715.524H1492.44C1476.44 656.109 1337.55 573.103 1123.6 605.975C1030.88 620.227 934.636 535.804 831.805 545.473C686.608 559.142 701.52 599.762 540.614 599.432C357.516 599.063 249.909 512.756 80.8483 521.474C-66.5627 529.066 -101.28 587.51 -282.825 590.947C-403.363 593.238 -490.059 484 -614.267 484C-649.663 484 -687.273 490.427 -717 498.329L-717 715.524Z" fill="url(#paint4_linear_1284_6)"/>
<path d="M-678.73 730.107L939.63 644.413C895.719 594.698 735.662 537.877 596.462 565.376C484.586 587.478 466.399 605.718 321.618 613.384C177.147 621.034 89.845 534.013 -78.9327 557.048C-194.411 572.818 -245.384 628.422 -388.534 637.872C-483.573 644.167 -579.345 597.689 -652.715 601.574C-663.709 602.156 -674.587 603.083 -685.393 604.263L-678.73 730.107H-678.73Z" fill="url(#paint5_linear_1284_6)"/>

</svg>
