<svg width="238" height="158" viewBox="0 0 238 158" fill="none" xmlns="http://www.w3.org/2000/svg">
<defs>
<linearGradient id="paint0_linear_1067_3675" x1="34.8104" y1="0" x2="34.8104" y2="37.4068" gradientUnits="userSpaceOnUse">
<stop stop-color="#FFF0D9"/>
<stop offset="1" stop-color="#B994DA"/>
</linearGradient>
<linearGradient id="paint1_linear_1067_3675" x1="210.796" y1="45.5137" x2="234.06" y2="50.6386" gradientUnits="userSpaceOnUse">
<stop stop-color="#FFF0D9"/>
<stop offset="1" stop-color="#B994DA"/>
</linearGradient>
<linearGradient id="paint2_linear_1067_3675" x1="11.8215" y1="109.476" x2="33.5591" y2="114.657" gradientUnits="userSpaceOnUse">
<stop stop-color="#FFF0D9"/>
<stop offset="1" stop-color="#B994DA"/>
</linearGradient>
<linearGradient id="paint3_linear_1067_3675" x1="121.051" y1="20.1357" x2="121.051" y2="135.197" gradientUnits="userSpaceOnUse">
<stop stop-color="#FFF0D9"/>
<stop offset="1" stop-color="#B994DA"/>
</linearGradient>
</defs>
<path d="M52.0166 147.2L47.0575 146.946H43.036L41.6089 147.609H52.0091L52.0166 147.2Z" fill="#9C71BC"/>
<path d="M24.7317 155.433L23.8506 155.842H33.6144L36.2314 153.832H28.1846L27.3035 154.241H35.0453L33.494 155.433H24.7317Z" fill="#9C71BC"/>
<path d="M33.75 151.252L32.8652 151.662H40.5467L42.3428 151.109L37.3875 153.557L30.6473 152.689L29.9507 153.013L37.4477 153.979L45.5849 149.959L37.9071 149.324L37.154 149.672L44.0938 150.245L43.3143 150.63H35.0905L34.2057 151.039H41.2019L40.5204 151.252H33.75Z" fill="#9C71BC"/>
<path d="M58.2597 143.172H58.5308L58.6852 142.672L59.2575 142.722V140.806L59.3291 140.568H56.7912L55.9063 140.978H58.8019L58.4141 142.239L54.0235 141.85L53.278 142.193L58.2898 142.636L58.2522 142.758H52.0542L50.307 143.569H56.0456L55.718 143.692H50.0397L49.1548 144.101H55.7481L58.2597 143.172ZM58.8848 142.03V142.275L58.8094 142.267L58.8848 142.03Z" fill="#9C71BC"/>
<path d="M32.4093 151.936L32.3721 152.344L37.6179 152.911L37.6551 152.503L32.4093 151.936Z" fill="#9C71BC"/>
<path d="M197.194 144.714L190.458 145.786L190.488 146.192H199.653L198.975 145.782H193.067L197.736 145.037L197.194 144.714Z" fill="#9C71BC"/>
<path d="M205.67 149.818L200.756 150.629L201.08 151.304L200.059 150.538L205.06 149.45L204.552 149.143L199.114 150.326L201.453 152.078L203.279 153.445L203.787 153.396L204.277 153.662H212.045L211.378 153.261L205.384 153.252L210.584 152.782L209.993 152.426L203.863 152.978L203.162 152.602L209.597 152.184L208.98 151.816L202.337 152.245L202.002 151.992L207.797 151.103L207.251 150.772L201.663 151.631L201.336 150.948L206.212 150.146L205.67 149.818Z" fill="#9C71BC"/>
<path d="M193.296 142.364L188.556 143.167L189.505 144.878L195.849 143.899L195.303 143.572L189.697 144.431L189.166 143.478L193.835 142.688L193.296 142.364Z" fill="#9C71BC"/>
<path d="M215.731 155.881H209.296L208.234 155.304L214.093 154.895L213.483 154.526L206.826 154.989L209.205 156.291H216.409L215.731 155.881Z" fill="#9C71BC"/>
<path d="M193.42 146.941L193.462 147.346L200.289 146.576L199.713 146.229L193.42 146.941Z" fill="#9C71BC"/>
<path d="M201.84 147.51H192.95L197.465 149.352L204.243 148.959L203.622 148.586L197.525 148.938L195.029 147.919H202.518L201.84 147.51Z" fill="#9C71BC"/>
<path d="M60.0505 140.774L26.4399 157.37H213.26L185.885 141.679L60.0505 140.774Z" fill="#9C71BC"/>
<path d="M64.9724 155.236C70.4002 155.236 74.8003 154.389 74.8003 153.344C74.8003 152.3 70.4002 151.453 64.9724 151.453C59.5446 151.453 55.1445 152.3 55.1445 153.344C55.1445 154.389 59.5446 155.236 64.9724 155.236Z" fill="#F6ABA8"/>
<path d="M70.3118 151.761C70.1462 151.74 69.9767 151.72 69.8073 151.704L72.4958 153.247H65.846L62.9202 151.503C62.7997 151.507 62.6755 151.515 62.555 151.519L65.4544 153.247H60.8153L58.6954 151.896C58.5937 151.912 58.4958 151.929 58.4017 151.945L60.4425 153.247H55.1596C55.1483 153.28 55.1445 153.316 55.1445 153.349C55.1445 153.382 55.1483 153.419 55.1596 153.451H60.548L59.1472 154.872C59.2263 154.884 59.3091 154.892 59.392 154.905L60.8266 153.451H65.6012L64.0762 155.232C64.1591 155.232 64.2457 155.236 64.3323 155.236L65.8611 153.451H68.7944L67.5781 155.171C67.6609 155.167 67.7438 155.163 67.8266 155.158L69.0353 153.451H72.6803L71.7465 154.72C71.8406 154.704 71.9348 154.684 72.0251 154.667L72.9213 153.451H74.7928C74.8003 153.419 74.8078 153.382 74.8078 153.349C74.8078 153.316 74.804 153.28 74.7928 153.247H72.8987L70.3118 151.761Z" fill="#FFFAF2"/>
<path d="M47.9519 149.194C53.3797 149.194 57.7798 148.347 57.7798 147.302C57.7798 146.258 53.3797 145.411 47.9519 145.411C42.5241 145.411 38.124 146.258 38.124 147.302C38.124 148.347 42.5241 149.194 47.9519 149.194Z" fill="#F6ABA8"/>
<path d="M53.2879 145.714C53.1222 145.693 52.9528 145.673 52.7833 145.657L55.4719 147.2H48.8221L45.8963 145.456C45.7758 145.46 45.6515 145.468 45.5311 145.472L48.4305 147.2H43.7914L41.6714 145.849C41.5698 145.865 41.4719 145.882 41.3777 145.898L43.4186 147.2H38.1357C38.1244 147.233 38.1206 147.269 38.1206 147.302C38.1206 147.335 38.1244 147.372 38.1357 147.405H43.5241L42.1233 148.825C42.2024 148.837 42.2852 148.846 42.3681 148.858L43.8027 147.405H48.5773L47.0523 149.185C47.1351 149.185 47.2218 149.189 47.3084 149.189L48.8371 147.405H51.7704L50.5504 149.124C50.6333 149.12 50.7161 149.116 50.7989 149.112L52.0077 147.405H55.6526L54.715 148.674C54.8092 148.657 54.9033 148.637 54.9937 148.62L55.8899 147.405H57.7613C57.7688 147.372 57.7764 147.335 57.7764 147.302C57.7764 147.269 57.7726 147.233 57.7613 147.2H55.8673L53.2879 145.714Z" fill="#FFFAF2"/>
<path d="M74.9739 148.356C80.4017 148.356 84.8017 147.509 84.8017 146.464C84.8017 145.42 80.4017 144.573 74.9739 144.573C69.5461 144.573 65.146 145.42 65.146 146.464C65.146 147.509 69.5461 148.356 74.9739 148.356Z" fill="#F6ABA8"/>
<path d="M80.3094 144.881C80.1437 144.86 79.9743 144.84 79.8048 144.824L82.4934 146.367H75.8436L72.9178 144.623C72.7973 144.627 72.673 144.635 72.5525 144.639L75.4519 146.367H70.8129L68.6929 145.016C68.5913 145.032 68.4934 145.049 68.3992 145.065L70.4401 146.367H65.1571C65.1459 146.4 65.1421 146.436 65.1421 146.469C65.1421 146.502 65.1459 146.539 65.1571 146.572H70.5455L69.1448 147.992C69.2239 148.004 69.3067 148.012 69.3895 148.025L70.8242 146.572H75.5988L74.0738 148.352C74.1566 148.352 74.2432 148.356 74.3298 148.356L75.8586 146.572H78.7919L77.5757 148.291C77.6585 148.287 77.7414 148.283 77.8242 148.279L79.0329 146.572H82.6779L81.744 147.841C81.8382 147.824 81.9323 147.804 82.0227 147.787L82.9189 146.572H84.7903C84.7978 146.539 84.8054 146.502 84.8054 146.469C84.8054 146.436 84.8016 146.4 84.7903 146.367H82.8963L80.3094 144.881Z" fill="#FFFAF2"/>
<path d="M62.6943 140.5C62.6943 141.543 58.2925 142.391 52.8665 142.391C47.4366 142.391 43.0386 141.543 43.0386 140.5C43.0386 139.456 47.4404 138.608 52.8665 138.608C58.2925 138.608 62.6943 139.456 62.6943 140.5Z" fill="#F6ABA8"/>
<path d="M58.202 138.911C58.0363 138.891 57.8669 138.87 57.6974 138.854L60.3859 140.397H53.7361L50.8104 138.653C50.6899 138.657 50.5656 138.666 50.4451 138.67L53.3445 140.397H48.7055L46.5855 139.046C46.4838 139.063 46.3859 139.079 46.2918 139.095L48.3327 140.397H43.0497C43.0384 140.43 43.0347 140.467 43.0347 140.5C43.0347 140.532 43.0384 140.569 43.0497 140.602H48.4381L47.0374 142.022C47.1164 142.035 47.1993 142.043 47.2821 142.055L48.7168 140.602H53.4914L51.9664 142.383C52.0492 142.383 52.1358 142.387 52.2224 142.387L53.7512 140.602H56.6845L55.4682 142.321C55.5511 142.317 55.6339 142.313 55.7168 142.309L56.9255 140.602H60.5705L59.6329 141.871C59.727 141.854 59.8211 141.834 59.9115 141.818L60.8077 140.602H62.6791C62.6867 140.569 62.6942 140.532 62.6942 140.5C62.6942 140.467 62.6904 140.43 62.6791 140.397H60.7851L58.202 138.911Z" fill="#FFFAF2"/>
<path d="M181.104 156.227C186.532 156.227 190.932 155.38 190.932 154.336C190.932 153.291 186.532 152.444 181.104 152.444C175.676 152.444 171.276 153.291 171.276 154.336C171.276 155.38 175.676 156.227 181.104 156.227Z" fill="#F6ABA8"/>
<path d="M186.439 152.747C186.274 152.727 186.104 152.706 185.935 152.69L188.623 154.233H181.973L179.048 152.489C178.927 152.493 178.803 152.497 178.682 152.506L181.582 154.233H176.943L174.823 152.882C174.721 152.899 174.623 152.915 174.529 152.931L176.57 154.233H171.287C171.276 154.266 171.272 154.303 171.272 154.335C171.272 154.368 171.276 154.405 171.287 154.438H176.675L175.275 155.858C175.354 155.871 175.437 155.879 175.519 155.891L176.954 154.438H181.729L180.204 156.218C180.287 156.218 180.373 156.223 180.46 156.223L181.988 154.438H184.922L183.706 156.157C183.788 156.153 183.871 156.149 183.954 156.145L185.163 154.438H188.808L187.874 155.707C187.968 155.69 188.062 155.67 188.153 155.654L189.049 154.438H190.92C190.928 154.405 190.935 154.368 190.935 154.335C190.935 154.303 190.931 154.266 190.92 154.233H189.026L186.439 152.747Z" fill="#FFFAF2"/>
<path d="M170.432 147.131C175.86 147.131 180.26 146.284 180.26 145.24C180.26 144.195 175.86 143.349 170.432 143.349C165.004 143.349 160.604 144.195 160.604 145.24C160.604 146.284 165.004 147.131 170.432 147.131Z" fill="#F6ABA8"/>
<path d="M175.767 143.651C175.602 143.631 175.432 143.611 175.263 143.594L177.951 145.137H171.302L168.376 143.394C168.255 143.398 168.131 143.406 168.011 143.41L170.91 145.137H166.271L164.151 143.787C164.049 143.803 163.951 143.819 163.857 143.836L165.898 145.137H160.615C160.608 145.17 160.6 145.207 160.6 145.24C160.6 145.272 160.604 145.309 160.615 145.342H166.004L164.603 146.763C164.682 146.775 164.765 146.783 164.848 146.795L166.282 145.342H171.057L169.532 147.123C169.615 147.123 169.701 147.127 169.788 147.127L171.317 145.342H174.25L173.034 147.061C173.117 147.057 173.199 147.053 173.282 147.049L174.491 145.342H178.136L177.198 146.611C177.292 146.595 177.387 146.574 177.477 146.558L178.373 145.342H180.245C180.252 145.309 180.26 145.272 180.26 145.24C180.26 145.207 180.256 145.17 180.245 145.137H178.351L175.767 143.651Z" fill="#FFFAF2"/>
<path d="M206.121 148.122C206.121 149.166 201.719 150.013 196.293 150.013C190.867 150.013 186.465 149.166 186.465 148.122C186.465 147.078 190.867 146.23 196.293 146.23C201.719 146.23 206.121 147.078 206.121 148.122Z" fill="#F6ABA8"/>
<path d="M201.629 146.533C201.463 146.513 201.294 146.492 201.124 146.476L203.813 148.019H197.163L194.237 146.275C194.117 146.279 193.992 146.288 193.872 146.292L196.771 148.019H192.132L190.012 146.668C189.911 146.685 189.813 146.701 189.719 146.718L191.759 148.019H186.476C186.465 148.052 186.461 148.089 186.461 148.122C186.461 148.154 186.465 148.191 186.476 148.224H191.865L190.464 149.644C190.543 149.657 190.626 149.665 190.709 149.677L192.144 148.224H196.918L195.393 150.005C195.476 150.005 195.563 150.009 195.649 150.009L197.178 148.224H200.107L198.891 149.943C198.974 149.939 199.057 149.935 199.14 149.931L200.348 148.224H203.993L203.056 149.493C203.15 149.477 203.244 149.456 203.334 149.44L204.231 148.224H206.102C206.11 148.191 206.117 148.154 206.117 148.122C206.117 148.089 206.113 148.052 206.102 148.019H204.208L201.629 146.533Z" fill="#FFFAF2"/>
<path d="M112.108 150.963C112.108 152.006 107.707 152.854 102.281 152.854C96.8545 152.854 92.4526 152.006 92.4526 150.963C92.4526 149.919 96.8545 149.071 102.281 149.071C107.707 149.071 112.108 149.919 112.108 150.963Z" fill="#F6ABA8"/>
<path d="M107.616 149.374C107.451 149.354 107.281 149.333 107.112 149.317L109.8 150.86H103.147L100.221 149.116C100.101 149.12 99.9763 149.128 99.8558 149.133L102.755 150.86H98.1161L95.9962 149.509C95.8945 149.526 95.7966 149.542 95.7025 149.558L97.7433 150.86H92.4604C92.4491 150.893 92.4453 150.93 92.4453 150.962C92.4453 150.995 92.4491 151.032 92.4604 151.065H97.8488L96.448 152.485C96.5271 152.497 96.6099 152.506 96.6928 152.518L98.1274 151.065H102.902L101.377 152.845C101.46 152.845 101.546 152.85 101.633 152.85L103.162 151.065H106.095L104.875 152.784C104.958 152.78 105.041 152.776 105.124 152.772L106.332 151.065H109.977L109.04 152.334C109.134 152.317 109.228 152.297 109.318 152.281L110.215 151.065H112.086C112.094 151.032 112.101 150.995 112.101 150.962C112.101 150.93 112.097 150.893 112.086 150.86H110.192L107.616 149.374Z" fill="#FFFAF2"/>
<path d="M126.953 156.227C132.381 156.227 136.781 155.38 136.781 154.336C136.781 153.291 132.381 152.444 126.953 152.444C121.526 152.444 117.125 153.291 117.125 154.336C117.125 155.38 121.526 156.227 126.953 156.227Z" fill="#F6ABA8"/>
<path d="M132.288 152.747C132.122 152.727 131.953 152.706 131.783 152.69L134.472 154.233H127.822L124.896 152.489C124.776 152.493 124.652 152.497 124.531 152.506L127.43 154.233H122.791L120.671 152.882C120.57 152.899 120.472 152.915 120.378 152.931L122.419 154.233H117.136C117.128 154.266 117.121 154.303 117.121 154.335C117.121 154.368 117.124 154.405 117.136 154.438H122.524L121.123 155.858C121.202 155.871 121.285 155.879 121.368 155.891L122.803 154.438H127.577L126.052 156.218C126.135 156.218 126.222 156.223 126.308 156.223L127.837 154.438H130.77L129.554 156.157C129.637 156.153 129.72 156.149 129.803 156.145L131.011 154.438H134.656L133.723 155.707C133.817 155.69 133.911 155.67 134.001 155.654L134.897 154.438H136.769C136.776 154.405 136.784 154.368 136.784 154.335C136.784 154.303 136.78 154.266 136.769 154.233H134.875L132.288 152.747Z" fill="#FFFAF2"/>
<path d="M156.27 153.351C161.698 153.351 166.098 152.504 166.098 151.46C166.098 150.415 161.698 149.568 156.27 149.568C150.842 149.568 146.442 150.415 146.442 151.46C146.442 152.504 150.842 153.351 156.27 153.351Z" fill="#F6ABA8"/>
<path d="M161.61 149.871C161.444 149.851 161.275 149.83 161.105 149.814L163.794 151.357H157.144L154.218 149.613C154.098 149.617 153.973 149.626 153.853 149.63L156.752 151.357H152.113L149.993 150.006C149.892 150.023 149.794 150.039 149.7 150.055L151.74 151.357H146.457C146.45 151.39 146.442 151.427 146.442 151.459C146.442 151.492 146.446 151.529 146.457 151.562H151.846L150.445 152.982C150.524 152.995 150.607 153.003 150.69 153.015L152.124 151.562H156.899L155.374 153.342C155.457 153.342 155.544 153.347 155.63 153.347L157.159 151.562H160.092L158.876 153.281C158.959 153.277 159.042 153.273 159.124 153.269L160.333 151.562H163.978L163.044 152.831C163.138 152.814 163.233 152.794 163.323 152.778L164.219 151.562H166.091C166.098 151.529 166.106 151.492 166.106 151.459C166.106 151.427 166.102 151.39 166.091 151.357H164.197L161.61 149.871Z" fill="#FFFAF2"/>
<path opacity="0.75" d="M34.8104 37.4068C44.3121 37.4068 52.0148 29.033 52.0148 18.7034C52.0148 8.37379 44.3121 0 34.8104 0C25.3086 0 17.606 8.37379 17.606 18.7034C17.606 29.033 25.3086 37.4068 34.8104 37.4068Z" fill="url(#paint0_linear_1067_3675)"/>
<path opacity="0.75" d="M233.866 51.52C235.391 44.5943 231.464 37.6354 225.093 35.9768C218.723 34.3182 212.321 38.588 210.796 45.5137C209.27 52.4393 213.198 59.3983 219.568 61.0569C225.939 62.7155 232.34 58.4457 233.866 51.52Z" fill="url(#paint1_linear_1067_3675)"/>
<path opacity="0.75" d="M33.3487 115.54C34.8889 109.077 31.3184 102.481 25.3738 100.807C19.4293 99.1323 13.3617 103.014 11.8215 109.476C10.2813 115.939 13.8517 122.535 19.7963 124.209C25.7409 125.884 31.8085 122.002 33.3487 115.54Z" fill="url(#paint2_linear_1067_3675)"/>
<path opacity="0.75" d="M206.399 135.197C209.381 126.506 211 117.206 211 107.541C211 59.27 170.728 20.1357 121.051 20.1357C71.3728 20.1357 31.1011 59.27 31.1011 107.541C31.1011 117.206 32.7202 126.506 35.7025 135.197H206.399Z" fill="url(#paint3_linear_1067_3675)"/>
<path d="M209.476 69.1088C210.974 68.4735 211.714 66.6388 211.13 65.0107C210.545 63.3826 208.858 62.5778 207.36 63.2131C205.862 63.8483 205.122 65.6831 205.706 67.3111C206.291 68.9392 207.979 69.7441 209.476 69.1088Z" fill="#D0B4E8"/>
<path d="M216.118 63.2552C215.945 64.3646 214.973 65.1137 213.949 64.9213C212.929 64.733 212.239 63.6768 212.416 62.5634C212.59 61.454 213.561 60.7049 214.585 60.8973C215.606 61.0856 216.291 62.1418 216.118 63.2552Z" fill="#D0B4E8"/>
<path d="M175.703 110.289C176.147 109.188 176.633 108.103 177.122 107.026C178.399 104.222 179.765 101.467 181.208 98.7574C183.188 95.0404 185.316 91.4136 187.616 87.9218C190.196 84.0043 192.997 80.2423 196.1 76.7996C199.176 73.3856 202.569 70.25 206.365 67.8184C206.813 67.5318 207.268 67.2535 207.728 66.9874C207.927 66.8728 207.845 66.7786 207.671 66.7541C207.427 66.7172 207.11 66.8564 206.899 66.9792C203.036 69.2266 199.564 72.2067 196.42 75.5061C193.212 78.875 190.32 82.592 187.658 86.4808C185.218 90.0504 182.97 93.7714 180.884 97.5948C179.314 100.473 177.83 103.404 176.444 106.392C176.019 107.309 175.605 108.23 175.202 109.159C175.077 109.442 174.957 109.724 174.84 110.011C174.788 110.137 174.671 110.318 174.656 110.457C174.652 110.477 174.641 110.498 174.633 110.514C174.565 110.661 175.586 110.584 175.703 110.289Z" fill="#D0B4E8"/>
<path d="M175.281 113.642C175.281 113.642 187.436 72.7801 179.502 56.2299C172.51 41.6487 155.094 48.489 154.044 64.3106C153.283 75.6988 160.004 96.0396 175.281 113.642Z" fill="#C8A7E4"/>
<path d="M165.374 48.6195C165.814 49.5119 166.191 50.4453 166.563 51.3745C167.606 53.9903 168.503 56.6756 169.305 59.3897C170.551 63.6224 171.556 67.937 172.355 72.2925C173.409 78.0398 174.102 83.8649 174.475 89.7146C174.934 96.9438 174.896 104.21 174.411 111.439C174.343 112.434 174.268 113.428 174.185 114.423C174.17 114.624 174.712 114.505 174.727 114.333C175.341 107.006 175.51 99.6333 175.171 92.2854C174.893 86.2228 174.271 80.1767 173.266 74.2083C172.498 69.6276 171.508 65.0879 170.257 60.6341C169.433 57.6908 168.495 54.7803 167.399 51.9394C167.091 51.1371 166.767 50.3388 166.424 49.5529C166.289 49.2418 166.161 48.7628 165.946 48.5049C165.938 48.4927 165.931 48.4722 165.923 48.4599C165.833 48.2839 165.31 48.4886 165.374 48.6195Z" fill="#D0B4E8"/>
<path d="M175.445 111.764C176.534 110.179 177.675 108.64 178.823 107.109C181.564 103.458 184.415 99.9006 187.386 96.4702C190.944 92.3644 194.683 88.41 198.739 84.8814C202.278 81.8031 206.175 78.8148 210.532 77.3002C213.849 76.1458 217.513 76.1294 220.202 78.7738C221.531 80.0797 222.627 81.8399 222.92 83.7884C223.203 85.6469 222.698 87.5217 221.855 89.1305C220.785 91.1773 219.249 92.9088 217.619 94.4357C215.612 96.3147 213.405 97.9398 211.135 99.4176C206.055 102.729 200.606 105.378 195.071 107.641C190.488 109.516 185.774 111.219 180.966 112.263C180.209 112.427 179.444 112.57 178.676 112.664C177.004 112.869 175.246 113.119 173.559 112.979C173.401 112.967 173.246 112.943 173.092 112.91C173.058 112.902 172.874 112.861 172.994 112.885C172.979 112.881 172.926 112.844 172.915 112.848C172.874 112.865 172.956 112.902 172.941 112.865C172.934 112.848 173.115 113.188 173.062 113.139C173.084 113.16 172.998 113.196 173.073 113.127C173.092 113.11 173.197 112.979 173.115 113.07C173.487 112.681 173.992 112.464 174.414 112.263C174.7 112.128 174.99 111.997 175.28 111.878C175.803 111.67 175.284 110.855 174.843 111.031C174.041 111.35 173.002 111.719 172.403 112.41C171.917 112.975 172.388 113.561 172.956 113.733C174.128 114.093 175.536 113.872 176.722 113.774C181.44 113.377 185.989 112.013 190.473 110.417C196.174 108.387 201.766 105.926 207.109 102.958C211.91 100.294 216.824 97.1784 220.503 92.8147C221.862 91.2018 223.082 89.3188 223.61 87.182C224.092 85.2375 223.884 83.2235 223.045 81.4305C222.152 79.527 220.688 77.8692 218.97 76.8335C217.408 75.892 215.604 75.5399 213.831 75.6505C209.527 75.9165 205.468 78.4218 201.984 81.0007C197.601 84.2428 193.64 88.1439 189.89 92.2047C186.437 95.9462 183.161 99.8801 180.017 103.933C178.266 106.188 176.549 108.481 174.907 110.83C174.832 110.941 174.753 111.047 174.677 111.158C174.391 111.588 175.152 112.193 175.445 111.764Z" fill="#D0B4E8"/>
<path d="M173.706 114.811C174.67 113.829 175.657 112.871 176.644 111.917C179.178 109.473 181.761 107.091 184.389 104.766C187.97 101.597 191.63 98.5312 195.392 95.6207C199.443 92.4851 203.612 89.5173 207.957 86.8769C211.922 84.4658 216.072 82.2758 220.436 80.8594C220.925 80.6998 221.419 80.5524 221.912 80.4173C222.07 80.3723 222.447 80.2086 222.386 79.967C222.326 79.7214 221.916 79.7951 221.769 79.836C217.356 81.06 213.157 83.1191 209.143 85.4319C204.723 87.9781 200.49 90.905 196.382 94.0079C192.47 96.9593 188.667 100.083 184.95 103.321C182.111 105.793 179.321 108.339 176.587 110.947C175.348 112.126 174.03 113.28 172.886 114.57C172.871 114.586 172.852 114.602 172.837 114.619C172.667 114.791 172.72 114.971 172.938 115.032C173.172 115.106 173.529 114.995 173.706 114.811Z" fill="#C8A7E4"/>
<path d="M174.528 112.087C174.528 112.087 169.538 93.0442 157.73 83.6945C145.921 74.3449 136.041 79.3718 134.09 88.5331C132.14 97.6904 138.006 105.382 147.145 106.426C157.534 107.609 170.276 115.272 172.321 119.292C174.362 123.316 179.57 121.351 174.528 112.087Z" fill="#D0B4E8"/>
<path d="M135.16 84.9395C136.44 85.578 137.701 86.2658 138.959 86.9576C142.058 88.6646 145.112 90.4698 148.117 92.3692C152.052 94.8581 155.904 97.5148 159.594 100.417C163.288 103.324 166.857 106.48 169.979 110.107C172.581 113.132 175.029 116.615 176.139 120.635C176.26 121.069 176.362 121.503 176.444 121.945C176.505 122.256 177.326 122.035 177.261 121.708C176.497 117.7 174.283 114.155 171.858 111.105C168.887 107.368 165.385 104.146 161.759 101.187C158.088 98.1943 154.236 95.4639 150.293 92.9055C147.104 90.8382 143.854 88.8815 140.552 87.0353C139.498 86.4459 138.436 85.8646 137.366 85.3038C136.877 85.0459 136.384 84.7512 135.879 84.5301C135.856 84.5219 135.838 84.5096 135.815 84.4974C135.563 84.3827 134.817 84.7716 135.16 84.9395Z" fill="#C8A7E4"/>
<path d="M190.863 140.118H156.545C155.34 140.118 154.365 139.058 154.365 137.748V112.945C154.365 111.635 155.34 110.575 156.545 110.575H190.863C192.068 110.575 193.044 111.635 193.044 112.945V137.748C193.044 139.058 192.068 140.118 190.863 140.118Z" fill="#8A59A6" fill-opacity="0.96"/>
<path d="M190.648 119.017H190.257V140.119H190.648V119.017Z" fill="#F393A6"/>
<path d="M186.898 140.119V118.783H182.7V140.119H183.088V119.246H186.51V140.119H186.898Z" fill="#F393A6"/>
<path d="M179.243 140.119V118.783H173.934V140.119H174.322V119.246H178.856V140.119H179.243Z" fill="#F393A6"/>
<path d="M156.349 140.098V119.017H155.958V140.004C156.086 140.049 156.217 140.078 156.349 140.098Z" fill="#F393A6"/>
<path d="M163.782 140.119V118.783H159.644V140.119H160.032V119.246H163.391V140.119H163.782Z" fill="#F393A6"/>
<path d="M170.96 140.119V118.783H167.074V140.119H167.465V119.246H170.568V140.119H170.96Z" fill="#F393A6"/>
<path d="M153.284 119.269C154.632 119.269 155.98 119.269 157.332 119.269C160.555 119.269 163.778 119.269 166.998 119.269C170.91 119.269 174.823 119.269 178.739 119.269C182.109 119.269 185.479 119.269 188.849 119.269C189.96 119.269 191.074 119.269 192.185 119.269C192.712 119.269 193.258 119.318 193.782 119.269C193.804 119.265 193.827 119.269 193.849 119.269C194.151 119.269 194.154 118.757 193.849 118.757C192.501 118.757 191.153 118.757 189.802 118.757C186.578 118.757 183.355 118.757 180.136 118.757C176.223 118.757 172.311 118.757 168.395 118.757C165.025 118.757 161.655 118.757 158.285 118.757C157.174 118.757 156.059 118.757 154.948 118.757C154.421 118.757 153.875 118.708 153.352 118.757C153.329 118.761 153.307 118.757 153.284 118.757C152.983 118.757 152.983 119.269 153.284 119.269Z" fill="#FFB5C3"/>
<path d="M77.0325 47.379C75.8802 50.138 74.7468 52.9503 73.8883 55.8362C73.7 56.4707 73.5042 57.1257 73.4402 57.7929C73.4101 58.1081 73.331 59.4222 73.9561 59.1029C74.2347 58.9637 74.4418 58.4847 74.5548 58.3169C74.8862 57.838 75.2702 57.3918 75.6393 56.9456C77.1153 55.1403 78.7495 53.1386 80.7452 52.0047C80.9071 51.9146 80.7641 51.6485 80.6021 51.7386C78.9566 52.6719 77.5822 54.2234 76.3246 55.6766C75.6242 56.483 74.8485 57.3099 74.2724 58.2269C74.1707 58.3906 74.0766 58.6485 73.9184 58.7549C73.7415 58.8695 73.749 58.7877 73.7189 58.5543C73.6887 58.3128 73.6963 58.059 73.7189 57.8175C73.7791 57.1707 73.9787 56.5321 74.1594 55.914C74.6678 54.2029 75.2966 52.5327 75.933 50.8749C76.366 49.7532 76.8103 48.6357 77.2735 47.5304C77.3488 47.3544 77.1078 47.1989 77.0325 47.379Z" fill="#B994DA"/>
<path d="M76.4986 47.5449C76.6643 48.065 77.1879 48.3434 77.6663 48.1633C78.1446 47.9831 78.4008 47.4139 78.235 46.8939C78.0693 46.3738 77.5457 46.0954 77.0674 46.2756C76.5852 46.4557 76.3329 47.0249 76.4986 47.5449Z" fill="#B994DA"/>
<path d="M80.2459 51.999C80.4342 52.5887 81.0218 52.8999 81.5642 52.6952C82.1066 52.4904 82.3929 51.8516 82.2045 51.262C82.0162 50.6723 81.4286 50.3611 80.8862 50.5659C80.3438 50.7706 80.0575 51.4094 80.2459 51.999Z" fill="#B994DA"/>
<path d="M68.7936 70.2587C68.7936 70.2587 76.2606 72.1417 76.4187 66.0792C76.5769 60.0125 75.6393 58.7681 75.6393 58.7681C75.6393 58.7681 80.6021 60.0044 79.3671 56.8482C78.132 53.688 74.9125 57.0079 74.9125 57.0079C74.9125 57.0079 77.1567 53.8968 75.1083 53.1804C73.0599 52.4641 73.0674 56.3611 73.0674 56.3611C73.0674 56.3611 72.706 52.3126 70.3073 52.5173C67.9087 52.7219 70.0513 56.8401 70.0513 56.8401C70.0513 56.8401 58.9658 63.8973 68.7936 70.2587Z" fill="#FFB5C3"/>
<path d="M69.6907 52.8815C70.1086 52.7054 70.6132 52.7054 71.0349 52.8487C72.334 53.2867 72.7407 54.9774 72.9101 56.2627C72.9327 56.4347 73.1888 56.3937 73.1888 56.2218C73.17 55.1698 73.3921 53.1435 74.6837 53.1557C75.1318 53.1598 75.7041 53.385 75.9037 53.8557C76.0807 54.2692 75.9639 54.7686 75.8209 55.1739C75.6175 55.7469 75.2975 56.3037 74.936 56.7744C74.823 56.9259 75.0038 57.1347 75.1355 56.9914C75.5159 56.5738 75.979 56.2177 76.4648 55.9598C77.5567 55.3867 78.5584 55.6774 79.1985 56.8235C79.2926 56.9914 79.5374 56.8399 79.4432 56.668C78.8257 55.5586 77.8354 55.0674 76.6907 55.5259C76.043 55.7838 75.4255 56.2423 74.9397 56.7744C75.0075 56.8481 75.0715 56.9177 75.1393 56.9914C75.7719 56.1645 76.7735 54.5312 76.0242 53.4873C75.6138 52.9101 74.7063 52.6727 74.0963 52.9756C73.5089 53.2663 73.2264 53.9744 73.0758 54.6171C72.9553 55.1329 72.8951 55.6855 72.9064 56.2177C73.0005 56.2054 73.0909 56.189 73.185 56.1768C73.0005 54.8054 72.5524 53.1189 71.2232 52.5908C70.7299 52.3943 70.1124 52.3739 69.6154 52.5826C69.4497 52.6563 69.5212 52.9511 69.6907 52.8815Z" fill="#B994DA"/>
<path d="M66.015 69.4393C66.1844 71.0317 67.5099 72.1738 68.9784 71.9896C70.4432 71.8054 71.4938 70.3604 71.3243 68.768C71.1549 67.1756 69.8294 66.0335 68.3609 66.2177C66.8961 66.406 65.8456 67.847 66.015 69.4393Z" fill="#B994DA"/>
<path d="M67.5437 70.2258C66.7492 73.6357 66.1091 77.0947 65.4991 80.5497C64.0682 88.6631 62.9687 96.8502 62.2758 105.074C61.8052 110.645 61.534 116.233 61.5303 121.829C61.5303 122.488 62.4716 122.488 62.4716 121.829C62.4792 112.258 63.2549 102.696 64.5012 93.2274C65.3522 86.7596 66.4103 80.3163 67.7132 73.9386C67.9466 72.7883 68.1876 71.6421 68.4512 70.5C68.5981 69.8573 67.6906 69.5872 67.5437 70.2258Z" fill="#B994DA"/>
<path d="M49.677 122.472C49.677 122.472 27.5134 110.973 31.7496 101.013C35.9857 91.0538 50.0724 111.886 50.0724 111.886C50.0724 111.886 38.7421 89.5883 46.2542 85.6708C53.7663 81.7533 60.996 109.544 60.996 109.544C60.996 109.544 55.4269 93.3421 62.7168 90.9596C72.428 87.7912 67.6307 110.097 67.6307 110.097C67.6307 110.097 73.2978 80.1568 82.3048 79.817C91.3118 79.4772 76.3064 113.188 76.3064 113.188C76.3064 113.188 85.3172 97.4315 89.8997 100.195C94.4823 102.958 80.4785 121.829 80.4785 121.829L49.677 122.472Z" fill="#D5B0F5"/>
<path d="M49.7409 122.222C48.9615 121.874 48.0728 121.449 47.2406 121.039C45.1282 120.008 43.0421 118.923 40.9787 117.781C38.2562 116.279 35.579 114.682 32.9733 112.955C30.2621 111.158 27.615 109.221 25.1675 107.019C23.0776 105.136 21.0443 103.032 19.6059 100.506C18.48 98.5331 17.7344 96.1834 18.2691 93.8582C18.8528 91.3162 20.8033 88.9133 23.1906 88.332C26.0749 87.632 29.1099 89.1957 31.5198 90.7635C34.3703 92.6179 36.9383 94.9676 39.3445 97.4483C40.8582 99.0079 42.3154 100.637 43.6898 102.344C43.7576 102.43 43.8254 102.516 43.8931 102.602C44.0701 102.827 44.3902 102.541 44.2622 102.291C43.0534 99.9494 42.033 97.4606 41.1707 94.943C40.459 92.8676 39.8566 90.7267 39.5553 88.5325C39.303 86.6823 39.2202 84.5905 39.9846 82.8589C40.4289 81.8519 41.2987 80.6689 42.4547 80.9104C43.5392 81.1355 44.3977 82.2326 45.0378 83.125C47.1201 86.0191 48.4945 89.5682 49.7484 92.9495C50.607 95.2623 51.3111 97.6243 52.0906 99.9658C52.1019 100.003 52.1132 100.044 52.1245 100.08C52.2148 100.4 52.6328 100.265 52.5801 99.9453C52.0717 96.912 51.763 93.8173 51.586 90.7431C51.4429 88.2255 51.3977 85.6834 51.6161 83.17C51.7931 81.1028 52.1094 78.8472 53.1411 77.0543C53.8867 75.7607 55.2385 74.8028 56.6844 75.2449C58.1341 75.687 59.0868 77.2835 59.7571 78.6426C60.7511 80.6525 61.395 82.8589 61.9373 85.053C62.5435 87.5133 63.0029 90.0144 63.387 92.5238C63.884 95.7904 64.2417 99.0775 64.5016 102.377C64.5053 102.43 64.5091 102.483 64.5128 102.537C64.5354 102.864 64.9685 102.868 64.9835 102.537C65.104 99.4705 65.3864 96.4044 65.7705 93.367C66.0831 90.8741 66.4784 88.3852 67.0696 85.9536C67.5478 83.9764 68.1277 81.8642 69.2573 80.194C69.9351 79.1911 71.1401 78.225 72.2998 78.9578C73.4671 79.6946 73.7797 81.5776 73.9642 82.8876C74.2842 85.139 74.2428 87.46 74.1374 89.732C74.0169 92.3395 73.7608 94.943 73.4408 97.5302C73.0228 100.936 72.4731 104.317 71.8593 107.686C71.848 107.739 71.8405 107.793 71.8292 107.85C71.7764 108.124 72.1191 108.308 72.2584 108.046C73.8136 105.111 75.5193 102.258 77.2966 99.4787C78.784 97.1535 80.3429 94.8775 82.0524 92.7407C83.4795 90.96 85.0384 89.1343 86.9212 87.9103C87.8814 87.284 89.6474 86.453 90.5586 87.632C91.3795 88.6922 90.9653 90.5793 90.7017 91.7705C90.1971 94.0384 89.3499 96.2202 88.4575 98.3366C87.4295 100.776 86.2848 103.155 85.0874 105.5C83.5021 108.615 81.7813 111.628 80.0718 114.662C80.0454 114.711 80.0153 114.76 79.9852 114.809C79.8421 115.051 80.181 115.345 80.3542 115.12C81.2165 113.998 82.1541 112.934 83.1143 111.911C84.8727 110.032 86.7894 108.173 89.0035 106.953C90.5586 106.094 93.1831 105.365 94.1358 107.592C94.5387 108.529 94.2036 109.602 93.7743 110.449C93.1379 111.702 92.2041 112.77 91.2402 113.732C88.9056 116.053 86.1041 117.957 83.1821 119.271C81.2202 120.155 79.1982 120.552 77.1008 120.827C71.7275 121.526 66.2977 121.739 60.8942 121.936C57.2191 122.071 53.5478 122.116 49.8727 122.206C49.8125 122.206 49.7484 122.206 49.6882 122.206C49.387 122.21 49.3832 122.722 49.6882 122.718C52.983 122.685 56.2815 122.603 59.5726 122.493C65.2057 122.304 70.8652 122.091 76.4682 121.416C78.5656 121.162 80.6554 120.859 82.6398 120.049C85.6296 118.833 88.4537 116.974 90.8937 114.739C91.9707 113.753 92.9986 112.656 93.7969 111.387C94.358 110.49 94.8663 109.393 94.7797 108.28C94.7006 107.281 94.1019 106.442 93.2961 105.979C92.4526 105.496 91.4736 105.508 90.5661 105.754C88.1901 106.397 86.1003 108.268 84.3079 109.999C82.8582 111.399 81.4914 112.914 80.2224 114.506C80.1546 114.592 80.0868 114.674 80.0228 114.76C80.1471 114.862 80.2676 114.965 80.3918 115.071C81.9583 112.439 83.4306 109.737 84.8502 107.007C86.089 104.628 87.2789 102.213 88.3633 99.7448C89.3574 97.4892 90.2988 95.1764 90.9389 92.7735C91.3305 91.3039 91.8012 89.4208 91.2515 87.9267C90.7393 86.5308 89.2896 86.3384 88.1035 86.7478C86.2095 87.4027 84.6129 89.0565 83.2536 90.5629C81.4311 92.5852 79.812 94.8243 78.2756 97.1044C76.0051 100.478 73.8889 103.99 71.9497 107.6C71.9158 107.662 71.8819 107.723 71.8518 107.784C71.9948 107.85 72.1379 107.915 72.281 107.981C72.8609 105.005 73.3241 101.992 73.7232 98.9793C74.0696 96.3512 74.3596 93.715 74.529 91.0665C74.6871 88.6062 74.77 86.1133 74.5215 83.6571C74.3633 82.0852 74.111 80.1613 73.0567 78.9659C72.1643 77.9507 70.7861 78.004 69.7958 78.8309C68.4365 79.9648 67.7399 81.9419 67.2052 83.6408C66.4521 86.0437 65.9852 88.553 65.6086 91.0542C65.2509 93.4325 64.9911 95.8272 64.7877 98.222C64.7162 99.0939 64.6522 99.9658 64.5957 100.842C64.5656 101.329 64.4978 101.837 64.5128 102.324C64.5166 102.389 64.5053 102.459 64.5053 102.524C64.6635 102.524 64.8179 102.524 64.976 102.524C64.784 99.6056 64.4451 96.6951 64.0422 93.805C63.6844 91.2466 63.2514 88.6963 62.6866 86.1829C62.1519 83.8086 61.5118 81.4384 60.5516 79.2197C59.8776 77.6601 58.9701 75.9285 57.5317 75.0689C56.2476 74.2993 54.6963 74.5777 53.6118 75.6215C52.26 76.9274 51.7253 79.056 51.4165 80.9145C50.9986 83.4197 50.9496 85.9905 51.0174 88.5285C51.0814 90.9518 51.2735 93.367 51.5446 95.774C51.6425 96.6459 51.7517 97.5179 51.8722 98.3857C51.94 98.8728 51.9738 99.3886 52.0906 99.8635C52.1056 99.929 52.1132 99.9986 52.1245 100.064C52.2751 100.019 52.4257 99.974 52.5801 99.929C51.9625 97.7921 51.2509 95.6799 50.4978 93.5963C49.2175 90.0513 47.8168 86.3957 45.7533 83.2928C45.0416 82.2244 44.1718 81.0455 43.0083 80.542C41.9765 80.0958 41.005 80.5256 40.2971 81.4016C39.1675 82.8016 38.8813 84.7419 38.9227 86.5472C38.9754 88.7741 39.4725 90.9846 40.0938 93.1009C40.6887 95.1313 41.4305 97.1126 42.2514 99.0489C42.5564 99.7734 42.8765 100.49 43.2116 101.198C43.3923 101.583 43.5542 102.017 43.7802 102.373C43.8103 102.422 43.8329 102.479 43.8593 102.528C43.9835 102.426 44.104 102.324 44.2283 102.217C43.2229 100.928 42.1384 99.7038 41.0389 98.5085C38.7232 95.9869 36.253 93.5963 33.5569 91.5659C31.0454 89.6706 28.0895 87.8162 24.9604 87.6524C23.6349 87.5829 22.2982 87.894 21.1723 88.6717C20.0728 89.429 19.154 90.5834 18.5214 91.8156C17.4332 93.9278 17.4031 96.3553 18.2051 98.5863C19.1502 101.21 20.9162 103.429 22.7651 105.357C25.0507 107.735 27.6226 109.786 30.2621 111.673C32.9545 113.597 35.7484 115.349 38.5914 116.991C40.9184 118.334 43.2794 119.603 45.6704 120.802C46.9168 121.428 48.1707 122.083 49.4547 122.624C49.5112 122.648 49.5677 122.677 49.6242 122.701C49.8953 122.841 50.0158 122.345 49.7409 122.222Z" fill="#B994DA"/>
<path d="M40.406 60.9773C39.9805 59.4422 39.619 57.8785 39.299 56.3106C38.7718 53.7276 38.2371 50.9808 38.4518 48.3241C38.4668 48.1276 38.1844 48.1276 38.1693 48.3241C38.0074 50.3545 38.3162 52.434 38.6551 54.4276C38.9714 56.2779 39.3743 58.1159 39.8337 59.9334C39.9278 60.31 40.0257 60.6866 40.1311 61.0632C40.1876 61.2474 40.4587 61.1656 40.406 60.9773Z" fill="#B994DA"/>
<path d="M32.4315 51.9498C34.2164 54.2463 35.9711 56.596 37.5375 59.0767C37.9253 59.6907 38.3132 60.313 38.6182 60.9802C38.7763 61.3282 38.927 61.7293 38.9496 62.1182C38.9759 62.5276 38.701 62.2656 38.5203 62.11C37.786 61.4755 37.0066 60.9229 36.2083 60.3784C34.3557 59.1217 32.3223 57.7545 30.1572 57.2633C29.9802 57.2223 29.9049 57.5171 30.0819 57.558C32.1905 58.0369 34.1674 59.3633 35.9786 60.5831C36.6074 61.0089 37.2287 61.4469 37.8425 61.9053C38.1023 62.0977 38.219 62.2697 38.5203 62.4866C39.0173 62.8428 39.3073 62.5398 39.2131 61.934C39.0964 61.2053 38.7575 60.5545 38.4036 59.9364C37.4283 58.2253 36.2723 56.6288 35.1238 55.0528C34.3105 53.9311 33.4821 52.8218 32.6349 51.7288C32.5144 51.5814 32.3148 51.7984 32.4315 51.9498Z" fill="#B994DA"/>
<path d="M38.8749 48.3556C39.2851 47.9585 39.3214 47.2752 38.9562 46.8293C38.5909 46.3834 37.9623 46.3439 37.5522 46.741C37.142 47.1381 37.1057 47.8214 37.4709 48.2673C37.8362 48.7131 38.4648 48.7527 38.8749 48.3556Z" fill="#B994DA"/>
<path d="M33.2185 51.7237C33.1884 52.3052 32.7289 52.7474 32.1978 52.7147C31.6629 52.6819 31.2561 52.1823 31.2862 51.605C31.3164 51.0235 31.7759 50.5813 32.307 50.614C32.8419 50.6468 33.2524 51.1422 33.2185 51.7237Z" fill="#B994DA"/>
<path d="M30.5899 57.4073C30.556 58.0624 30.0399 58.562 29.4373 58.5251C28.8346 58.4883 28.3751 57.9273 28.409 57.2721C28.4429 56.617 28.9589 56.1174 29.5616 56.1543C30.168 56.1911 30.6275 56.7521 30.5899 57.4073Z" fill="#B994DA"/>
<path d="M45.5164 73.7407C45.5164 73.7407 37.929 76.7495 37.0517 70.4291C36.1705 64.1086 37.0102 62.6759 37.0102 62.6759C37.0102 62.6759 31.9645 64.6613 32.8833 61.1858C33.8021 57.7104 37.5638 60.7356 37.5638 60.7356C37.5638 60.7356 34.8489 57.7923 36.9086 56.7607C38.9683 55.7251 39.4164 59.8063 39.4164 59.8063C39.4164 59.8063 39.3185 55.5204 41.8526 55.4017C44.3868 55.283 42.6283 59.8882 42.6283 59.8882C42.6283 59.8882 55.0468 65.7174 45.5164 73.7407Z" fill="#FFB5C3"/>
<path d="M48.3252 72.4966C48.3327 74.1872 47.0826 75.5668 45.5275 75.575C43.9723 75.5872 42.7034 74.2241 42.6958 72.5335C42.6883 70.8428 43.9384 69.4633 45.4936 69.4551C47.0487 69.4469 48.3177 70.806 48.3252 72.4966Z" fill="#B994DA"/>
<path d="M45.9567 73.9926C47.2934 77.0259 48.4607 80.1534 49.5866 83.2808C52.2714 90.7229 54.5796 98.3369 56.4058 106.078C57.6409 111.309 58.6538 116.61 59.3505 121.961C59.4371 122.612 60.3408 122.333 60.2579 121.691C59.0492 112.435 56.9255 103.331 54.2633 94.448C52.4521 88.406 50.3962 82.4417 48.0653 76.6125C47.6436 75.5604 47.2219 74.5125 46.7663 73.4768C46.5064 72.8832 45.6931 73.399 45.9567 73.9926Z" fill="#B994DA"/>
<path d="M33.0186 62.4879C32.8566 61.9599 33.0976 60.9119 33.3763 60.4084C34.2913 58.7669 36.4489 60.1464 37.4844 60.8628C37.62 60.957 37.7706 60.74 37.6539 60.6213C37.2284 60.1833 36.848 59.647 36.5958 59.0698C36.3887 58.5909 36.2606 58.0219 36.4715 57.5184C36.656 57.0763 37.153 56.5973 37.6275 56.626C38.3542 56.6669 38.727 57.764 38.9228 58.378C39.0734 58.8529 39.1939 59.3441 39.2692 59.8394C39.2956 60.0114 39.5554 59.9704 39.5479 59.7985C39.5102 59.0739 39.5931 58.3166 39.7851 57.6248C40.1805 56.1921 41.1595 55.3652 42.564 55.5862C42.741 55.6149 42.8201 55.3202 42.6393 55.2915C41.2499 55.0705 40.1428 55.7377 39.6307 57.1663C39.337 57.9851 39.2203 58.9266 39.2655 59.8026C39.3596 59.7903 39.45 59.7739 39.5441 59.7616C39.3822 58.7055 39.0659 57.2523 38.2413 56.5728C37.6877 56.1184 37.0363 56.364 36.5732 56.8511C35.9782 57.4815 35.9895 58.3535 36.3133 59.1353C36.5732 59.7698 36.9874 60.3634 37.4543 60.8383C37.5108 60.7564 37.5673 60.6786 37.6237 60.5967C36.479 59.8026 34.2913 58.4763 33.2144 60.1137C32.9244 60.5517 32.7964 61.0961 32.7437 61.6283C32.7173 61.9026 32.6571 62.2956 32.7399 62.5698C32.8039 62.7581 33.0788 62.6763 33.0186 62.4879Z" fill="#B994DA"/>
<path d="M79.021 142.026H50.3281C47.6659 142.026 45.5083 139.68 45.5083 136.786V124.018C45.5083 121.124 47.6659 118.778 50.3281 118.778H79.021C81.6832 118.778 83.8408 121.124 83.8408 124.018V136.786C83.8408 139.68 81.6832 142.026 79.021 142.026Z" fill="#FFB5C3"/>
<path d="M47.5192 140.496C48.2384 138.208 48.9576 135.919 49.6768 133.631C50.8215 129.988 51.9662 126.344 53.1147 122.701C53.3745 121.87 53.6381 121.039 53.8979 120.208C53.7435 120.184 53.5892 120.163 53.4348 120.139C53.6871 122.48 53.9393 124.822 54.1879 127.163C54.5908 130.901 54.9899 134.638 55.3928 138.375C55.487 139.243 55.5773 140.107 55.6715 140.975C55.7016 141.253 56.0442 141.331 56.1346 141.044C56.8501 138.703 57.5617 136.361 58.2772 134.016C59.4143 130.278 60.5553 126.541 61.6925 122.804C61.956 121.94 62.2196 121.076 62.4832 120.212C62.3326 120.212 62.182 120.212 62.0276 120.212C62.4418 122.562 62.8597 124.916 63.2739 127.266C63.9329 130.995 64.5919 134.728 65.2508 138.457C65.4014 139.321 65.5558 140.181 65.7064 141.044C65.7516 141.306 66.0943 141.27 66.1621 141.044C66.8511 138.707 67.5402 136.365 68.2293 134.028C69.3326 130.282 70.4359 126.533 71.5392 122.787C71.7914 121.928 72.0437 121.072 72.296 120.212C72.1454 120.212 71.9948 120.212 71.8404 120.212C72.2132 122.562 72.586 124.908 72.9587 127.257C73.5537 130.999 74.1486 134.736 74.7436 138.478C74.8791 139.333 75.0147 140.189 75.1502 141.044C75.1917 141.306 75.5418 141.27 75.6059 141.044C76.2347 138.723 76.8598 136.398 77.4886 134.077C78.4864 130.377 79.4881 126.68 80.4859 122.98C80.7156 122.136 80.9415 121.293 81.1712 120.446C81.2578 120.13 80.8022 119.995 80.7156 120.311C80.0868 122.632 79.4617 124.957 78.8329 127.278C77.835 130.978 76.8334 134.675 75.8356 138.375C75.6059 139.219 75.3799 140.062 75.1502 140.909C75.3009 140.909 75.4515 140.909 75.6059 140.909C75.2331 138.56 74.8603 136.214 74.4875 133.864C73.8926 130.123 73.2976 126.385 72.7027 122.644C72.5671 121.788 72.4316 120.933 72.296 120.077C72.2546 119.811 71.9082 119.856 71.8404 120.077C71.1513 122.415 70.4622 124.756 69.7731 127.094C68.6699 130.839 67.5666 134.589 66.4633 138.334C66.211 139.194 65.9587 140.05 65.7064 140.909C65.8571 140.909 66.0077 140.909 66.1621 140.909C65.7479 138.56 65.3299 136.206 64.9157 133.856C64.2567 130.127 63.5978 126.394 62.9388 122.664C62.7882 121.801 62.6338 120.941 62.4832 120.077C62.438 119.811 62.0954 119.856 62.0276 120.077C61.3121 122.419 60.6005 124.76 59.885 127.106C58.7479 130.843 57.6069 134.581 56.4697 138.318C56.2062 139.182 55.9426 140.046 55.679 140.909C55.8334 140.934 55.9878 140.954 56.1421 140.979C55.8899 138.637 55.6376 136.296 55.3891 133.954C54.9862 130.217 54.587 126.48 54.1841 122.742C54.09 121.874 53.9996 121.011 53.9055 120.143C53.8753 119.864 53.5327 119.787 53.4423 120.073C52.7231 122.361 52.0039 124.65 51.2847 126.938C50.14 130.581 48.9953 134.225 47.8468 137.868C47.587 138.699 47.3234 139.53 47.0636 140.361C46.9695 140.672 47.4213 140.807 47.5192 140.496Z" fill="#FFD3DB"/>
<path d="M171.248 147.141C177.653 142.175 176.072 134.942 170.706 131.004C162.117 124.696 135.311 121.229 135.311 121.229L99.7871 121.896C99.7871 121.896 71.9527 122.289 64.2222 134.43C56.4955 146.572 85.3239 158.746 117.586 146.121L171.248 147.141Z" fill="#592F72"/>
<path d="M140.11 137.569L163.351 127.483C163.351 127.483 168.284 131.716 169.3 127.819C170.321 123.922 164.571 122.46 160.101 121.494C155.632 120.528 152.533 124.425 146.195 123.463C139.858 122.501 140.314 127.495 140.521 128.944C140.728 130.393 133.174 131.638 133.174 131.638L140.11 137.569Z" fill="#FFD3DB"/>
<path d="M163.249 127.593C163.927 128.174 164.683 128.678 165.47 129.062C166.461 129.549 167.854 130.012 168.773 129.111C169.752 128.154 169.774 126.356 169.04 125.243C168.118 123.843 166.427 123.147 164.977 122.631C164.017 122.287 163.034 122.021 162.051 121.78C161.151 121.559 160.233 121.305 159.31 121.215C157.661 121.055 156.064 121.551 154.509 122.083C152.672 122.717 150.842 123.331 148.902 123.442C146.918 123.552 144.873 122.816 142.927 123.43C141.714 123.81 140.807 124.748 140.464 126.07C140.215 127.016 140.246 128.023 140.381 128.985C140.407 129.181 140.682 129.095 140.652 128.903C140.392 127.081 140.637 124.952 142.309 124.019C143.924 123.118 145.739 123.651 147.449 123.749C149.279 123.855 151.075 123.532 152.826 122.975C154.279 122.517 155.707 121.907 157.201 121.628C158.922 121.309 160.557 121.718 162.232 122.14C163.953 122.57 165.734 123.065 167.278 124.027C168.513 124.797 169.567 126.013 169.187 127.671C168.453 130.843 164.879 128.6 163.445 127.376C163.309 127.257 163.106 127.47 163.249 127.593Z" fill="#AE75D8"/>
<path d="M119.759 147.712C133.066 143.512 142.28 138.62 142.28 138.62L136.933 130.397C136.933 130.397 109.581 129.615 91.1787 135.129L119.759 147.712Z" fill="#592F72"/>
<path d="M91.221 135.275C96.3157 133.752 101.553 132.81 106.791 132.123C111.882 131.455 116.999 131.038 122.12 130.788C125.867 130.604 129.614 130.51 133.364 130.51C134.343 130.51 135.318 130.518 136.297 130.534C136.422 130.538 136.776 130.616 136.889 130.547C136.979 130.489 136.851 130.571 136.828 130.489C136.859 130.6 136.987 130.731 137.047 130.825C138.704 133.375 140.36 135.921 142.017 138.472C142.066 138.545 142.115 138.619 142.16 138.693C142.175 138.623 142.194 138.554 142.209 138.484C137.378 140.764 132.34 142.594 127.324 144.317C124.41 145.32 121.477 146.262 118.528 147.142C118.355 147.195 118.427 147.49 118.603 147.437C126.202 145.165 133.756 142.549 141.065 139.327C141.498 139.139 141.927 138.947 142.356 138.746C142.424 138.713 142.446 138.599 142.405 138.537C140.831 136.118 139.257 133.695 137.683 131.275C137.499 130.989 137.31 130.551 137.066 130.321C136.956 130.219 136.866 130.235 136.723 130.231C135.959 130.215 135.194 130.207 134.426 130.203C130.917 130.182 127.403 130.252 123.894 130.395C118.833 130.604 113.772 130.968 108.734 131.566C103.44 132.192 98.1457 133.056 92.972 134.452C92.3582 134.616 91.7482 134.792 91.1419 134.972C90.9687 135.033 91.044 135.328 91.221 135.275Z" fill="#AE75D8"/>
<path d="M79.615 136.252C82.006 135.094 84.672 134.222 87.2852 134.021C87.5865 133.997 87.5865 133.485 87.2852 133.51C84.5816 133.718 81.8479 134.611 79.3777 135.81C79.0991 135.941 79.3401 136.383 79.615 136.252Z" fill="#AE75D8"/>
<path d="M97.325 138.901L73.7042 129.924C73.7042 129.924 68.9447 134.386 67.7736 130.542C66.5988 126.699 72.2846 124.963 76.7091 123.788C81.1335 122.613 84.3869 126.359 90.6827 125.098C96.9748 123.837 96.7225 128.848 96.5719 130.309C96.4213 131.766 104.016 132.655 104.016 132.655L97.325 138.901Z" fill="#FFD3DB"/>
<path d="M73.6029 129.815C73.0193 130.359 72.3641 130.838 71.6863 131.231C70.7525 131.775 69.2802 132.434 68.399 131.44C67.3447 130.253 67.7024 128.464 68.7078 127.424C69.9391 126.151 71.6976 125.496 73.2866 124.956C74.179 124.649 75.0828 124.387 75.9902 124.137C76.8036 123.916 77.6019 123.715 78.4416 123.707C80.0042 123.695 81.5142 124.198 83.0091 124.636C84.7148 125.136 86.4394 125.529 88.2167 125.512C90.0656 125.492 91.937 124.743 93.7783 125.185C94.9983 125.48 95.9133 126.347 96.2748 127.653C96.512 128.513 96.5158 129.426 96.4254 130.306C96.4066 130.502 96.689 130.502 96.7078 130.306C96.9037 128.386 96.5459 126.171 94.7912 125.238C93.1194 124.35 91.3082 124.919 89.5648 125.119C87.5201 125.357 85.5206 125.033 83.5438 124.473C81.9246 124.014 80.2979 123.425 78.611 123.4C77.7299 123.388 76.8977 123.572 76.0467 123.805C75.0526 124.075 74.0623 124.362 73.0871 124.702C70.7261 125.525 66.0569 127.51 67.8531 131.129C69.1333 133.703 72.4469 131.301 73.8063 130.032C73.9418 129.905 73.7385 129.688 73.6029 129.815Z" fill="#AE75D8"/>
<path d="M175.153 141.596C173.726 147.077 166.549 152.202 150.184 152.436C122.18 152.837 95.1934 140.053 95.1934 140.053L100.205 131.587C100.205 131.587 143.406 128.304 158.16 139.238L175.153 141.596Z" fill="#592F72"/>
<path d="M158.231 139.103C154.029 136.004 148.848 134.546 143.926 133.49C137.943 132.205 131.843 131.595 125.758 131.263C120.294 130.965 114.823 130.911 109.355 131.034C106.418 131.1 103.481 131.21 100.552 131.411C100.394 131.423 100.205 131.399 100.085 131.513C99.9643 131.628 99.8702 131.873 99.7873 132.017C99.5463 132.426 99.3054 132.831 99.0644 133.241C97.8255 135.332 96.5867 137.424 95.3516 139.516C95.2612 139.672 95.1671 139.823 95.0767 139.979C95.0391 140.044 95.0579 140.155 95.1257 140.187C100.345 142.656 105.831 144.567 111.291 146.274C114.277 147.208 117.285 148.055 120.317 148.808C120.494 148.853 120.569 148.555 120.392 148.514C112.356 146.512 104.404 143.921 96.7486 140.584C96.2516 140.367 95.7583 140.151 95.2688 139.921C95.2838 139.991 95.3027 140.06 95.3177 140.13C96.3118 138.448 97.3097 136.765 98.3037 135.087C98.8723 134.129 99.4371 133.171 100.006 132.213C100.104 132.045 100.266 131.857 100.33 131.669C100.284 131.812 100.145 131.706 100.307 131.734C100.559 131.775 100.876 131.693 101.128 131.681C101.666 131.648 102.201 131.616 102.739 131.587C104.449 131.497 106.162 131.427 107.876 131.378C113.079 131.227 118.291 131.239 123.495 131.46C129.576 131.718 135.668 132.238 141.671 133.351C146.814 134.305 152.165 135.623 156.74 138.456C157.203 138.742 157.655 139.045 158.092 139.373C158.239 139.479 158.382 139.213 158.231 139.103Z" fill="#AE75D8"/>
<path d="M109.898 53.4207C109.898 53.4207 111.991 48.664 108.889 45.5611C105.782 42.4623 106.769 32.3962 116.759 29.8623C126.748 27.3284 133.27 36.633 132.803 43.7681C132.336 50.9031 128.221 55.8973 135.055 58.8364C141.889 61.7756 141.81 69.5083 136.84 75.0796C131.869 80.6509 114.729 74.396 110.207 67.044C106.403 60.8627 109.898 53.4207 109.898 53.4207Z" fill="#592F72"/>
<path d="M155.614 89.1637C150.041 78.1275 138.259 67.9264 125.803 66.6328L121.612 66.5469H115.96C103.157 67.4065 90.923 77.8491 85.207 89.1637L103.673 94.735L125.392 97.7233L155.614 89.1637Z" fill="#DBBBF8"/>
<path d="M145.628 98.3786L158.879 95.2348L157.358 88.7793L137.212 93.1307L136.738 94.8869" fill="#BA91DD"/>
<path d="M157.32 88.6318C155.129 89.123 152.933 89.6101 150.742 90.1014C147.244 90.8832 143.746 91.6651 140.251 92.4429C139.445 92.623 138.64 92.8031 137.834 92.9832C137.657 93.0241 137.732 93.3189 137.909 93.2779C140.101 92.7867 142.296 92.2996 144.487 91.8084C147.986 91.0265 151.484 90.2446 154.978 89.4669C155.784 89.2867 156.59 89.1066 157.395 88.9265C157.572 88.8897 157.497 88.5908 157.32 88.6318Z" fill="#AE75D8"/>
<path d="M95.1932 98.3786L81.9463 95.2348L83.4675 88.7793L102.088 93.3763L101.146 95.8202" fill="#BA91DD"/>
<path d="M83.4295 88.9273C85.4215 89.4185 87.4134 89.9097 89.4091 90.405C92.5646 91.1828 95.7238 91.9647 98.8793 92.7425C99.606 92.9226 100.333 93.1027 101.059 93.2787C101.236 93.3237 101.312 93.0249 101.135 92.984C99.1428 92.4927 97.1509 92.0015 95.1552 91.5062C91.9997 90.7284 88.8405 89.9466 85.685 89.1688C84.9583 88.9887 84.2316 88.8086 83.5048 88.6325C83.3279 88.5875 83.2526 88.8863 83.4295 88.9273Z" fill="#AE75D8"/>
<path d="M101.761 84.0146L98.9409 122.789H140.395L137.093 84.0146" fill="#DBBBF8"/>
<path d="M101.622 84.0155C101.528 85.3009 101.434 86.5863 101.34 87.8758C101.114 90.9623 100.891 94.0529 100.666 97.1394C100.394 100.877 100.123 104.61 99.8485 108.348C99.615 111.565 99.3815 114.783 99.1481 117.996C99.069 119.069 98.9937 120.137 98.9146 121.209C98.8807 121.688 98.7602 122.245 98.8054 122.724C98.8092 122.745 98.8017 122.769 98.8017 122.794C98.7941 122.876 98.8694 122.949 98.9447 122.949C100.319 122.949 101.694 122.949 103.064 122.949C106.363 122.949 109.661 122.949 112.96 122.949C116.951 122.949 120.943 122.949 124.934 122.949C128.387 122.949 131.836 122.949 135.289 122.949C136.426 122.949 137.567 122.949 138.704 122.949C139.228 122.949 139.808 123.031 140.327 122.949C140.35 122.945 140.376 122.949 140.399 122.949C140.47 122.949 140.546 122.88 140.542 122.794C140.433 121.508 140.323 120.223 140.214 118.933C139.951 115.847 139.687 112.756 139.424 109.67C139.103 105.932 138.787 102.199 138.467 98.4616C138.192 95.2441 137.917 92.0266 137.646 88.8132C137.556 87.7407 137.466 86.6723 137.371 85.5997C137.33 85.1126 137.345 84.5641 137.243 84.0851C137.24 84.0647 137.24 84.0401 137.236 84.0155C137.221 83.819 136.938 83.819 136.953 84.0155C137.063 85.3009 137.172 86.5863 137.281 87.8758C137.545 90.9623 137.808 94.0529 138.072 97.1394C138.392 100.877 138.708 104.61 139.028 108.348C139.303 111.565 139.578 114.783 139.849 117.996C139.939 119.069 140.03 120.137 140.124 121.209C140.15 121.537 140.18 121.864 140.207 122.196C140.218 122.319 140.192 122.618 140.252 122.724C140.259 122.736 140.256 122.773 140.259 122.794C140.308 122.74 140.354 122.691 140.403 122.638C139.028 122.638 137.654 122.638 136.283 122.638C132.985 122.638 129.686 122.638 126.387 122.638C122.396 122.638 118.405 122.638 114.413 122.638C110.96 122.638 107.511 122.638 104.058 122.638C102.921 122.638 101.78 122.638 100.643 122.638C100.285 122.638 99.9275 122.638 99.5736 122.638C99.4305 122.638 99.1556 122.577 99.0201 122.638C99.0012 122.646 98.9673 122.638 98.9485 122.638C98.9975 122.691 99.0426 122.74 99.0916 122.794C99.1857 121.508 99.2799 120.223 99.374 118.933C99.5999 115.847 99.8221 112.756 100.048 109.67C100.319 105.932 100.59 102.199 100.865 98.4616C101.099 95.2441 101.332 92.0266 101.566 88.8132C101.645 87.7407 101.72 86.6723 101.799 85.5997C101.833 85.1249 101.957 84.56 101.908 84.0851C101.904 84.0647 101.912 84.0401 101.912 84.0155C101.916 83.819 101.633 83.819 101.622 84.0155Z" fill="#AE75D8"/>
<path d="M120.22 68.1208H118.725C117.005 68.1208 115.611 66.6062 115.611 64.7354V60.0729C115.611 58.2021 117.005 56.6875 118.725 56.6875H120.22C121.941 56.6875 123.334 58.2021 123.334 60.0729V64.7354C123.334 66.6062 121.941 68.1208 120.22 68.1208Z" fill="#FFD3DB"/>
<path d="M123.063 68.4815H115.946C114.963 68.4815 114.169 67.6137 114.169 66.5493C114.169 65.4809 114.963 64.6172 115.946 64.6172H123.063C124.046 64.6172 124.84 65.485 124.84 66.5493C124.844 67.6178 124.046 68.4815 123.063 68.4815Z" fill="#BA91DD"/>
<path d="M120.015 60.6287H118.991C114.955 60.6287 111.679 57.0714 111.679 52.6791V43.5668C111.679 39.1786 114.951 35.6172 118.991 35.6172H120.015C124.052 35.6172 127.328 39.1745 127.328 43.5668V52.6791C127.328 57.0714 124.056 60.6287 120.015 60.6287Z" fill="#FFD3DB"/>
<path d="M122.772 59.9649C121.744 60.4234 120.637 60.4766 119.537 60.4766C118.321 60.4766 117.143 60.3374 116.002 59.8544C115.832 59.7807 115.761 60.0795 115.926 60.1491C117.094 60.6444 118.299 60.7836 119.537 60.7836C120.66 60.7836 121.797 60.7304 122.847 60.2596C123.013 60.1859 122.938 59.8871 122.772 59.9649Z" fill="#AE75D8"/>
<path d="M131.143 49.1024C131.143 50.6211 130.01 51.8533 128.613 51.8533C127.216 51.8533 126.083 50.6211 126.083 49.1024C126.083 47.5837 127.216 46.3516 128.613 46.3516C130.014 46.3516 131.143 47.5837 131.143 49.1024Z" fill="#FFD3DB"/>
<path d="M128.615 47.7954C129.271 47.8036 129.821 48.3851 129.821 49.1058C129.821 49.8265 129.275 50.4038 128.615 50.4161C128.435 50.4202 128.435 50.7273 128.615 50.7232C129.233 50.715 129.787 50.3015 130.009 49.6709C130.228 49.0443 130.051 48.3032 129.576 47.8732C129.305 47.6275 128.97 47.4965 128.615 47.4883C128.431 47.4842 128.431 47.7913 128.615 47.7954Z" fill="#AE75D8"/>
<path d="M108.038 48.745C108.038 50.2637 109.171 51.4959 110.568 51.4959C111.965 51.4959 113.098 50.2637 113.098 48.745C113.098 47.2263 111.965 45.9941 110.568 45.9941C109.171 45.9941 108.038 47.2263 108.038 48.745Z" fill="#FFD3DB"/>
<path d="M110.569 47.1279C109.952 47.1361 109.398 47.5497 109.176 48.1803C108.957 48.8068 109.134 49.548 109.609 49.9779C109.88 50.2236 110.215 50.3546 110.569 50.3628C110.75 50.3669 110.75 50.0598 110.569 50.0557C109.914 50.0475 109.364 49.4661 109.364 48.7454C109.364 48.0247 109.91 47.4473 110.569 47.435C110.754 47.435 110.754 47.1279 110.569 47.1279Z" fill="#AE75D8"/>
<path d="M125.111 44.036C124.441 43.9909 123.766 43.9459 123.096 43.9008C122.998 43.8926 122.904 43.8886 122.806 43.8804C122.565 43.864 122.565 44.2735 122.806 44.2898C123.476 44.3349 124.15 44.3799 124.821 44.425C124.919 44.4332 125.013 44.4373 125.111 44.4454C125.352 44.4618 125.352 44.0523 125.111 44.036Z" fill="#AE75D8"/>
<path d="M115.942 43.569C115.313 43.6836 114.687 43.7983 114.058 43.917C113.968 43.9334 113.878 43.9498 113.787 43.9662C113.686 43.9867 113.629 44.1177 113.655 44.2201C113.686 44.3347 113.787 44.3798 113.889 44.3634C114.518 44.2487 115.143 44.1341 115.772 44.0153C115.863 43.9989 115.953 43.9826 116.043 43.9662C116.145 43.9457 116.202 43.8147 116.175 43.7123C116.141 43.5976 116.04 43.5485 115.942 43.569Z" fill="#AE75D8"/>
<path d="M119.334 47.4879C119.409 47.9382 119.477 48.3884 119.537 48.8387C119.586 49.1949 119.631 49.551 119.665 49.9071C119.688 50.165 119.726 50.4393 119.695 50.6972C119.699 50.6726 119.662 50.7709 119.695 50.7218C119.65 50.7832 119.56 50.8487 119.492 50.8978C119.364 50.9878 119.176 51.0861 119.063 51.1352C118.841 51.2294 118.939 51.6264 119.164 51.5282C119.447 51.4054 119.865 51.2294 120.023 50.9305C120.125 50.734 120.083 50.4311 120.068 50.2183C120.019 49.465 119.902 48.7118 119.79 47.9668C119.759 47.7703 119.729 47.5779 119.695 47.3814C119.654 47.1194 119.292 47.23 119.334 47.4879Z" fill="#AE75D8"/>
<path d="M120.988 52.8334C121.018 53.386 120.811 54.0082 120.348 54.2784C119.918 54.5281 119.305 54.4913 118.868 54.2825C118.533 54.1228 118.277 53.824 118.141 53.4556C118.066 53.2468 118.021 53.0462 118.021 52.8457C118.021 52.6492 117.738 52.6492 117.738 52.8457C117.742 53.5006 118.081 54.1679 118.608 54.4872C119.094 54.7778 119.772 54.8515 120.291 54.6427C120.709 54.4749 121.003 54.1228 121.154 53.6726C121.24 53.4147 121.285 53.1158 121.27 52.8375C121.259 52.6369 120.977 52.6369 120.988 52.8334Z" fill="#AE75D8"/>
<path d="M116.229 46.5109C116.221 47.2029 115.754 47.8622 115.084 47.8622C114.413 47.8622 113.946 47.1988 113.939 46.5109C113.935 46.1833 113.464 46.1792 113.468 46.5109C113.475 47.2684 113.871 47.9727 114.526 48.2594C115.17 48.5419 115.909 48.284 116.327 47.6984C116.572 47.3585 116.696 46.9409 116.7 46.5109C116.703 46.1833 116.232 46.1833 116.229 46.5109Z" fill="#AE75D8"/>
<path d="M124.612 46.6286C124.604 47.3207 124.137 47.9799 123.466 47.9799C122.796 47.9799 122.329 47.3166 122.321 46.6286C122.318 46.3011 121.847 46.297 121.851 46.6286C121.858 47.3862 122.254 48.0905 122.909 48.3771C123.553 48.6597 124.291 48.4017 124.709 47.8161C124.954 47.4763 125.079 47.0586 125.082 46.6286C125.086 46.297 124.615 46.297 124.612 46.6286Z" fill="#AE75D8"/>
<path d="M126.075 51.5483C126.075 52.7436 125.182 53.7138 124.083 53.7138C122.983 53.7138 122.091 52.7436 122.091 51.5483C122.091 50.353 122.983 49.3828 124.083 49.3828C125.182 49.3828 126.075 50.3489 126.075 51.5483Z" fill="#F6ABA8"/>
<path d="M116.755 51.2544C116.755 52.4497 115.862 53.4198 114.763 53.4198C113.663 53.4198 112.771 52.4497 112.771 51.2544C112.771 50.059 113.663 49.0889 114.763 49.0889C115.862 49.0889 116.755 50.0549 116.755 51.2544Z" fill="#F6ABA8"/>
<path d="M129.802 44.1689C129.802 44.1689 118.573 44.6478 115.346 37.5332C115.346 37.5332 112.82 48.7455 109.043 45.0326C105.27 41.3198 111.686 30.6193 118.717 31.3847C123.502 31.9087 130.31 33.6608 129.802 44.1689Z" fill="#592F72"/>
<path d="M124.543 26.3463C124.957 23.5588 123.215 20.9336 120.65 20.483C118.086 20.0323 115.672 21.9267 115.257 24.7143C114.842 27.5019 116.585 30.1271 119.149 30.5777C121.713 31.0284 124.128 29.1339 124.543 26.3463Z" fill="#592F72"/>
<path d="M85.5083 96.0791C85.5083 96.0791 84.2958 98.261 83.7611 100.422C83.2264 102.584 82.5336 105.65 82.6879 107.668C82.8423 109.686 83.1247 112.244 85.1242 113.489C87.1237 114.733 90.3469 113.98 92.7154 113.096C95.0876 112.212 99.7869 109.907 99.7869 109.907L96.8536 98.7358L85.5083 96.0791Z" fill="#FFD3DB"/>
<path d="M95.1924 98.3799L116.012 89.4355C116.012 89.4355 117.043 83.0209 117.921 80.9905C118.798 78.9601 119.001 78.7227 119.498 78.8005C119.996 78.8783 120.184 79.6683 120.184 79.9958C120.184 80.3233 120.282 80.7858 120.387 80.9823C120.493 81.1788 120.342 91.4741 120.327 92.0349C120.312 92.5957 120.252 96.7138 119.325 97.6512C118.403 98.5887 104.945 106.649 104.945 106.649L98.7771 110.681L95.1924 98.3799Z" fill="#FFD3DB"/>
<path d="M117.865 86.1661C118.053 84.9217 118.309 83.665 118.768 82.5024C118.991 81.9334 119.288 81.213 119.77 80.8405C120.421 80.341 120.316 81.7943 120.32 82.1463C120.38 85.2001 120.267 88.2702 120.12 91.3199C120.052 92.7527 119.977 94.1895 119.823 95.6181C119.766 96.1339 119.774 96.9281 119.409 97.2596C118.9 97.7222 118.298 98.0824 117.737 98.4591C116.754 99.1181 115.764 99.7526 114.766 100.383C110.183 103.294 105.537 106.077 100.943 108.967C100.54 109.221 100.118 109.462 99.734 109.757C99.6587 109.815 99.572 109.86 99.7038 109.786C99.6511 109.815 99.5946 109.847 99.5419 109.88C99.2633 110.04 98.9771 110.195 98.6947 110.343C96.1304 111.706 93.4268 112.893 90.6253 113.527C88.0083 114.121 84.3972 114.342 83.2977 111.039C82.7027 109.246 82.7479 107.211 82.9362 105.34C83.1584 103.134 83.6592 100.948 84.4085 98.8848C84.7474 97.9433 85.1503 97.0304 85.6285 96.1626C85.7227 95.9947 85.4779 95.8392 85.3838 96.007C84.3445 97.8901 83.6479 99.9982 83.1772 102.127C82.7103 104.223 82.4354 106.421 82.5785 108.578C82.6802 110.122 83.0002 111.927 84.1336 112.991C85.1315 113.924 86.4946 114.191 87.7711 114.191C90.9303 114.191 94.1008 112.897 96.9588 111.55C97.855 111.129 98.7436 110.674 99.6135 110.187C99.685 110.146 99.7566 110.109 99.8281 110.064C99.9034 110.019 99.9524 109.966 99.8996 110.003C99.9561 109.958 100.19 109.802 100.306 109.729C104.791 106.806 109.407 104.116 113.93 101.263C115.76 100.109 117.673 99.0117 119.386 97.6526C119.827 97.3047 119.913 96.9854 120.003 96.3959C120.196 95.0983 120.267 93.7719 120.339 92.462C120.523 89.1626 120.64 85.8428 120.606 82.5393C120.602 82.0399 120.753 80.8241 120.282 80.4843C119.473 79.9071 118.652 82.0071 118.467 82.4902C118.03 83.6404 117.774 84.8603 117.59 86.0843C117.563 86.2767 117.835 86.3626 117.865 86.1661Z" fill="#AE75D8"/>
<path d="M117.259 84.0573C117.451 83.1035 117.696 82.1538 117.997 81.2328C118.197 80.6146 118.422 79.972 118.769 79.4316C119.01 79.0591 119.503 78.6784 119.831 79.1942C120.072 79.5749 120.079 80.1562 120.038 80.5983C120.019 80.7948 120.301 80.7948 120.32 80.5983C120.362 80.1398 120.332 79.6199 120.155 79.1983C119.921 78.6497 119.319 78.4615 118.874 78.8462C118.43 79.2351 118.181 79.8901 117.971 80.4427C117.699 81.1591 117.485 81.9 117.293 82.6451C117.18 83.0831 117.074 83.5293 116.984 83.9755C116.946 84.1678 117.218 84.2497 117.259 84.0573Z" fill="#AE75D8"/>
<path d="M90.6736 100.567C94.3148 98.9912 97.956 97.4111 101.597 95.835C102.109 95.614 102.625 95.3888 103.137 95.1678C103.303 95.0941 103.231 94.7994 103.062 94.8731C99.4208 96.4491 95.7796 98.0292 92.1383 99.6052C91.6262 99.8262 91.1104 100.051 90.5983 100.272C90.4326 100.346 90.5041 100.641 90.6736 100.567Z" fill="#AE75D8"/>
<path d="M81.9078 95.3814C85.7712 96.2983 89.6346 97.2153 93.5017 98.1322C94.0552 98.2632 94.6088 98.3942 95.1585 98.5252C95.3355 98.5661 95.4108 98.2714 95.2338 98.2305C91.3704 97.3135 87.5071 96.3966 83.6399 95.4796C83.0864 95.3486 82.5329 95.2176 81.9831 95.0866C81.8024 95.0416 81.7271 95.3404 81.9078 95.3814Z" fill="#AE75D8"/>
<path d="M155.315 96.0801C155.315 96.0801 156.528 98.2619 157.062 100.423C157.597 102.585 158.29 105.651 158.136 107.669C157.981 109.687 157.699 112.245 155.699 113.49C153.7 114.734 150.477 113.981 148.108 113.097C145.736 112.213 141.037 109.908 141.037 109.908L143.97 98.7368L155.315 96.0801Z" fill="#FFD3DB"/>
<path d="M145.627 98.3838L124.808 89.4394C124.808 89.4394 123.776 83.0248 122.899 80.9944C122.021 78.964 121.818 78.7266 121.321 78.8044C120.824 78.8822 120.636 79.6722 120.636 79.9997C120.636 80.3272 120.538 80.7898 120.432 80.9862C120.327 81.1827 120.477 91.478 120.492 92.0388C120.508 92.5996 120.568 96.7177 121.494 97.6551C122.417 98.5926 135.874 106.653 135.874 106.653L142.042 110.685L145.627 98.3838Z" fill="#FFD3DB"/>
<path d="M123.23 86.0867C123.041 84.8504 122.785 83.6142 122.341 82.4557C122.1 81.8294 121.799 81.1294 121.317 80.6791C120.741 80.1388 120.315 80.5563 120.259 81.2604C120.165 82.4025 120.21 83.5691 120.225 84.7112C120.247 86.4428 120.296 88.1785 120.364 89.91C120.428 91.5638 120.507 93.2176 120.65 94.8632C120.695 95.3954 120.748 95.9276 120.827 96.4515C120.869 96.7176 120.899 97.0533 121.042 97.2825C121.305 97.7082 121.9 98.003 122.285 98.269C123.222 98.9158 124.179 99.534 125.135 100.144C129.94 103.222 134.824 106.141 139.651 109.174C140.058 109.428 140.6 109.751 140.927 110.005C140.845 109.94 140.939 110.026 140.995 110.063C141.074 110.112 141.157 110.153 141.236 110.198C141.571 110.386 141.91 110.57 142.253 110.746C144.964 112.163 147.841 113.415 150.819 113.964C152.254 114.23 153.805 114.357 155.21 113.87C156.479 113.427 157.352 112.474 157.8 111.119C158.403 109.301 158.365 107.234 158.173 105.339C157.944 103.063 157.431 100.803 156.648 98.6743C156.309 97.7533 155.918 96.8568 155.447 96.0053C155.353 95.8375 155.108 95.9889 155.202 96.1609C156.219 98.003 156.897 100.058 157.367 102.137C157.838 104.229 158.117 106.423 157.974 108.577C157.868 110.136 157.529 111.974 156.287 112.953C155.183 113.82 153.726 113.947 152.408 113.861C149.351 113.661 146.335 112.412 143.563 111.07C142.787 110.693 142.042 110.23 141.266 109.866C141.217 109.841 141.172 109.813 141.127 109.784C141.262 109.862 141.168 109.809 141.093 109.751C140.965 109.653 140.829 109.563 140.694 109.477C136.462 106.71 132.101 104.172 127.824 101.487C125.881 100.267 123.915 99.0714 122.044 97.7246C121.675 97.4585 121.298 97.2661 121.193 96.8158C120.944 95.7638 120.914 94.6217 120.842 93.541C120.628 90.303 120.526 87.0446 120.507 83.7984C120.503 82.9224 120.413 81.9358 120.571 81.068C120.635 80.7078 120.82 80.6382 121.091 80.8592C121.603 81.2768 121.908 82.0668 122.138 82.6849C122.552 83.7984 122.793 84.9814 122.974 86.1645C122.989 86.3609 123.26 86.2791 123.23 86.0867Z" fill="#AE75D8"/>
<path d="M123.836 83.9811C123.61 82.8677 123.324 81.7583 122.943 80.6981C122.729 80.0963 122.484 79.425 122.058 78.9624C121.693 78.5613 121.091 78.5203 120.767 79.0116C120.484 79.4455 120.454 80.0882 120.5 80.604C120.518 80.8004 120.801 80.8004 120.782 80.604C120.748 80.2069 120.759 79.7525 120.902 79.38C121.008 79.1098 121.2 78.9215 121.482 78.9583C121.682 78.9829 121.821 79.1262 121.945 79.2858C122.318 79.7689 122.54 80.4034 122.74 80.9846C122.962 81.6314 123.147 82.2946 123.312 82.9618C123.403 83.3302 123.489 83.6987 123.565 84.0671C123.602 84.2554 123.873 84.1735 123.836 83.9811Z" fill="#AE75D8"/>
<path d="M150.22 100.277C148.364 99.4703 146.508 98.668 144.648 97.8615C141.699 96.5843 138.755 95.3072 135.806 94.03C135.121 93.7311 134.436 93.4364 133.75 93.1376C133.581 93.0639 133.509 93.3627 133.675 93.4323C135.531 94.2387 137.388 95.0411 139.248 95.8475C142.196 97.1247 145.141 98.4019 148.089 99.6791C148.774 99.9779 149.46 100.273 150.145 100.571C150.315 100.645 150.39 100.35 150.22 100.277Z" fill="#AE75D8"/>
<path d="M158.839 95.0905C154.976 96.0075 151.113 96.9245 147.246 97.8414C146.692 97.9724 146.138 98.1034 145.589 98.2344C145.412 98.2753 145.487 98.5741 145.664 98.5291C149.527 97.6122 153.391 96.6952 157.258 95.7783C157.811 95.6473 158.365 95.5163 158.915 95.3853C159.092 95.3443 159.016 95.0455 158.839 95.0905Z" fill="#AE75D8"/>
<path d="M236.458 81.3624C236.717 79.633 235.637 78.003 234.047 77.7216C232.456 77.4402 230.957 78.614 230.698 80.3434C230.439 82.0727 231.519 83.7027 233.109 83.9841C234.7 84.2655 236.199 83.0917 236.458 81.3624Z" stroke="white" stroke-width="1.5" stroke-miterlimit="10"/>
<path d="M4.92739 86.2061C7.09642 86.2061 8.85477 84.2946 8.85477 81.9366C8.85477 79.5785 7.09642 77.667 4.92739 77.667C2.75835 77.667 1 79.5785 1 81.9366C1 84.2946 2.75835 86.2061 4.92739 86.2061Z" stroke="white" stroke-width="1.5" stroke-miterlimit="10"/>
<path d="M164.12 118.511C164.12 119.412 163.446 120.145 162.618 120.145C161.789 120.145 161.115 119.412 161.115 118.511C161.115 117.611 161.789 116.878 162.618 116.878C163.446 116.878 164.12 117.607 164.12 118.511Z" stroke="white" stroke-width="1.5" stroke-miterlimit="10"/>
</svg>
