<svg width="310" height="167" viewBox="0 0 310 167" fill="none" xmlns="http://www.w3.org/2000/svg">
<path d="M253.173 129.841C238.977 129.841 227.47 128.513 227.47 126.874C227.47 125.236 238.977 123.908 253.173 123.908C267.368 123.908 278.876 125.236 278.876 126.874C278.876 128.513 267.368 129.841 253.173 129.841Z" fill="#B994DA"/>
<path d="M267.588 74.5546C267.588 74.5625 267.588 74.5625 267.588 74.5546C268.433 79.6586 269.261 84.3682 269.58 88.3047C269.715 87.997 269.842 87.6972 269.978 87.3896V87.3817C277.043 71.2255 282.579 62.1613 287.589 54.738L283.909 47.2437L291.014 49.776C296.828 41.4139 302.228 33.6119 308.991 16.8799C297.202 16.517 288.433 18.1184 281.973 21.1003L285.366 26.8039L279.162 22.5598C270.049 27.9083 266.417 36.4834 265.438 46.013C264.49 55.3376 266.083 65.5456 267.588 74.5546Z" fill="#9C71BC"/>
<path d="M269.183 104.052C269.183 33.6286 309 16.8887 309 16.8887" stroke="#B994DA" stroke-miterlimit="10"/>
<path d="M260.182 85.5908L261.233 99.8143" stroke="#B994DA" stroke-miterlimit="10"/>
<path d="M204.801 58.8641C210.249 61.4831 215.737 61.2622 220.978 60.6627V52.5609L224.81 60.1973C229.812 59.5898 234.495 59.219 238.589 61.4121C241.839 63.1555 244.34 65.8219 246.522 68.8276L251.397 67.2656L248.227 71.3283C252.042 77.1975 255.148 83.7136 260.286 87.09C260.421 87.1926 260.573 87.2873 260.716 87.374C260.429 83.4139 260.015 79.6588 259.481 76.1168C256.176 54.1387 248.227 40.428 236.526 38.4795C234.272 38.1008 231.882 38.1639 229.366 38.6846C211.627 42.3608 204.801 58.8641 204.801 58.8641Z" fill="#9C71BC"/>
<path d="M204.801 58.8725C230.982 30.6544 253.555 44.4518 256.208 55.6065" stroke="#B994DA" stroke-miterlimit="10"/>
<path d="M231.548 22.6625L239.314 21.0375L232.424 27.2538C233.372 31.1982 234.789 34.898 236.534 38.4874C238.637 42.842 241.217 47.0388 244.013 51.3066L250.369 50.4941L246.275 54.7225C250.632 61.2543 255.331 68.1097 259.489 76.1247C261.759 80.495 263.878 85.2046 265.678 90.4033V90.4112L265.686 90.4191C266.371 85.8988 267.175 80.5187 267.59 74.5627C267.59 74.5627 267.59 74.5627 267.59 74.5548C268.195 65.956 267.988 56.1661 265.439 46.0212C263.774 39.3946 261.106 32.626 257.004 25.9443L251.397 26.812L254.973 22.8045C249.796 15.255 242.691 7.87112 233.021 1.0079C233.013 1.00001 233.013 1 233.013 1C230.966 9.24375 230.648 16.3042 231.548 22.6625Z" fill="#B994DA"/>
<path d="M266.029 99.9961C266.029 46.3683 233.021 1 233.021 1" stroke="#9C71BC" stroke-miterlimit="10"/>
<path d="M254.463 92.6914H275.698V126.534H254.463V92.6914Z" fill="white"/>
<path d="M252.177 92.6914H277.968V97.6455H252.177V92.6914Z" fill="white"/>
<path d="M275.698 98.0078H254.455" stroke="white" stroke-miterlimit="10"/>
<path d="M48.5669 152.133C75.3896 152.133 97.1337 149.223 97.1337 145.633C97.1337 142.044 75.3896 139.134 48.5669 139.134C21.7441 139.134 0 142.044 0 145.633C0 149.223 21.7441 152.133 48.5669 152.133Z" fill="#B994DA"/>
<path d="M252.279 132.425H71.5561L36.5757 161.801H287.26L252.279 132.425Z" fill="#B994DA"/>
<path d="M253.748 129.199H73.0322L38.0518 158.576H288.729L253.748 129.199Z" fill="white"/>
<path d="M68.8837 132.501H119.745L116.1 137.196L229.108 131.935L233.628 136.363L219.908 143.464C219.908 143.464 254.861 146.43 255.721 146.563C256.582 146.696 271.889 152.776 271.889 152.776L50.386 148.249L68.8837 132.501Z" fill="white"/>
<path d="M217.078 124.327L226.1 134.212H210.667C209.327 134.212 208.389 132.886 208.845 131.622C212.883 120.485 210 106.364 212.516 95.7923C213.074 93.4263 213.91 91.2371 215.154 89.2995L215.161 89.2927C217.982 84.8939 222.911 81.7937 231.573 80.8486L217.078 124.327Z" fill="#FF9FB1"/>
<path d="M231.58 80.8471L215.168 89.2843C201.421 86.2317 191.767 83.4238 178.026 77.6924L190.196 59.8525L231.58 80.8471Z" fill="#9C71BC"/>
<path d="M106.952 70.9766C96.8017 74.2128 96.2374 83.4998 103.553 86.736C110.868 89.9723 98.6034 90.6725 98.617 98.9738C98.6306 107.275 113.547 108.907 117.205 92.1682C120.869 75.4297 106.952 70.9766 106.952 70.9766Z" fill="#592F72"/>
<path d="M109.135 49.7168C103.533 49.7168 98.991 54.2584 98.991 59.8605C98.991 65.4627 103.533 70.0043 109.135 70.0043C114.737 70.0043 119.278 65.4627 119.278 59.8605C119.278 54.2584 114.737 49.7168 109.135 49.7168Z" fill="#FF9FB1"/>
<path d="M129.912 52.6875L112.82 53.7413V62.702L129.912 63.851V52.6875Z" fill="#FF9FB1"/>
<path d="M101.268 70.6302L102.057 73.4041C102.057 73.4041 106.809 74.859 110.202 72.833L110.712 69.6172L101.268 70.6302Z" fill="#9C71BC"/>
<path d="M116.097 52.4905C113.146 47.1467 104.851 47.1467 96.5502 53.3404C96.5502 53.3404 91.5939 63.0762 97.7876 69.2698C100.867 72.3497 105.525 73.1859 109.624 71.7378C112.507 70.718 115.845 68.7531 117.898 64.9526C117.905 64.9526 119.836 58.4938 116.097 52.4905Z" fill="#592F72"/>
<path d="M161.743 62.1309L155.699 77.0473C155.699 77.0473 151.858 75.9051 143.169 74.9941C139.62 74.6269 135.262 74.2938 130.02 74.0899C125.982 73.9335 123.018 70.2418 123.745 66.2713L124.214 63.7286L125.221 58.2692L123.895 53.0749V53.0613L123.439 51.2733L121.95 45.4603C120.618 40.2321 125.744 35.7177 130.782 37.6554C135.364 39.4163 141 42.3329 147.092 47.16C151.79 50.8925 156.767 55.7672 161.743 62.1309Z" fill="#FF9FB1"/>
<path d="M124.445 62.4912C121.977 66.5297 120.754 71.2004 120.924 75.9323L121.739 98.3342L128.62 99.2044L136.608 69.6095L124.445 62.4912Z" fill="#FF9FB1"/>
<path d="M138.818 41.5172C138.818 41.5172 128.511 32.0057 104.729 28.7695L103.92 38.1518L116.369 41.8503L124.949 49.7165L138.818 41.5172Z" fill="#FF9FB1"/>
<path d="M104.729 28.7695C104.729 28.7695 89.1327 29.8165 68.5325 37.1932L72.7613 41.6464C84.9514 38.0226 92.4369 43.3936 103.92 38.1518L104.729 28.7695Z" fill="#FF9FB1"/>
<path d="M161.743 62.1318C161.743 62.1318 168.902 49.7173 190.189 59.8543L174.532 104.168C174.532 104.168 157.521 98.0632 155.699 77.0415L161.743 62.1318Z" fill="#9C71BC"/>
<path d="M68.5324 37.2002L58.783 40.7627L65.3845 46.0114L72.7612 41.6534L68.5324 37.2002Z" fill="#FF9FB1"/>
<path d="M60.9519 40.001C55.2274 41.6803 53.283 44.5629 53.283 44.5629L54.398 45.406C54.398 45.406 59.8913 41.0548 65.5479 41.6735L60.9519 40.001Z" fill="#FF9FB1"/>
<path d="M61.9039 41.7891C56.1726 43.4344 54.2078 46.3102 54.2078 46.3102L55.316 47.1601C55.316 47.1601 60.8297 42.8429 66.4863 43.4887L61.9039 41.7891Z" fill="#FF9FB1"/>
<path d="M63.4472 43.0947C57.8314 45.114 56.0637 48.1054 56.0637 48.1054L57.2263 48.8805C57.2263 48.8805 62.6313 44.774 68.1315 44.4885L63.4472 43.0947Z" fill="#FF9FB1"/>
<path d="M72.7612 41.6523C72.7612 41.6523 68.5324 47.2001 63.2362 49.9332L62.8555 48.4783C62.8555 48.4783 65.3302 45.6364 65.7653 43.7804L72.7612 41.6523Z" fill="#FF9FB1"/>
<path d="M128.62 99.2046L120.91 130.764H114.451C120.135 115.352 110.168 107.39 123.147 93.3984L128.62 99.2046Z" fill="#FF9FB1"/>
<path d="M114.451 130.765L109.176 133.328L117.361 135.877C117.361 135.877 119.904 134.878 120.903 130.765H114.451Z" fill="#FF9FB1"/>
<path d="M117.361 135.877C117.361 135.877 114.587 137.488 112.011 137.76L111.331 136.87C111.331 136.87 113.935 135.469 114.785 133.729L117.361 135.877Z" fill="#FF9FB1"/>
<path d="M114.451 130.765C110.427 133.09 109.645 130.622 105.98 132.988L105.715 135.068C107.782 134.484 112.092 135.551 115.227 133.45L114.451 130.765Z" fill="#FF9FB1"/>
<path d="M114.812 132.919C112.249 133.98 106.891 134.897 105.722 135.747L106.15 136.685C108.904 135.747 112.881 136.332 115.73 133.884L114.812 132.919Z" fill="#FF9FB1"/>
<path d="M174.532 104.175C191.773 110.776 209.498 121.151 209.498 121.151L218.241 112.081C218.241 112.081 198.13 87.3136 178.019 77.7002L174.532 104.175Z" fill="#9C71BC"/>
<path d="M218.241 112.081C236.611 126.42 249.719 138.834 249.719 138.834L246.272 144.124C233.395 134.925 223.544 139.793 209.498 121.151L218.241 112.081Z" fill="#FF9FB1"/>
<path d="M249.719 138.835C259.176 146.28 268.307 149.047 268.762 151.012C269.218 152.976 263.67 152.453 256.593 149.618C253.384 148.333 248.332 152.684 246.272 144.118L249.719 138.835Z" fill="#FF9FB1"/>
<path d="M123.358 64.4775C123.358 64.4775 126.791 69.7534 135.276 74.5737L140.667 74.7505L123.358 64.4775Z" fill="#592F72"/>
<path d="M161.743 62.131L155.699 77.0475C155.699 77.0475 149.349 75.6673 140.66 74.7563C140.66 74.7563 131.36 70.7518 123.358 64.4834L123.895 63.45L125.221 58.2693L123.895 53.0751V53.0615L123.439 51.2734C123.439 51.2734 138.818 51.4502 147.078 47.1602H147.092C151.79 50.8927 156.767 55.7674 161.743 62.131Z" fill="#9C71BC"/>
<path d="M123.895 53.0615C123.895 53.0615 125.03 57.4059 123.895 63.45C123.895 63.45 131.271 58.7521 123.895 53.0615Z" fill="white"/>
<path d="M156.386 75.3623C159.153 100.837 195.105 105.848 212.564 120.166" stroke="#B994DA" stroke-miterlimit="10"/>
<path d="M157.413 72.834C169.181 94.8415 193.881 100.967 216.052 117.726" stroke="#B994DA" stroke-miterlimit="10"/>
<path d="M158.562 69.998C158.562 69.998 191.243 94.8407 218.241 115.278" stroke="#B994DA" stroke-miterlimit="10"/>
<path d="M159.84 66.8359C179.101 76.3202 206.099 81.1133 221.117 89.2922" stroke="#B994DA" stroke-miterlimit="10"/>
<path d="M161.05 63.8516C179.617 63.8516 212.394 76.7692 224.788 87.2053" stroke="#B994DA" stroke-miterlimit="10"/>
<path d="M161.743 59.8612C181.113 52.6885 229.609 83.8539 229.609 83.8539" stroke="#B994DA" stroke-miterlimit="10"/>
<path d="M176.34 90.4551L186.436 74.5732" stroke="#592F72" stroke-miterlimit="10"/>
<path d="M155.699 67.6583C139.491 61.1179 130.72 60.71 130.72 60.71" stroke="#592F72" stroke-miterlimit="10"/>
<path d="M122.821 47.1603L121.366 41.6533" stroke="#592F72" stroke-miterlimit="10"/>
<path d="M114.451 130.765L115.729 131.859" stroke="#592F72" stroke-miterlimit="10"/>
<path d="M103.92 38.1519V35.208" stroke="#592F72" stroke-miterlimit="10"/>
<path d="M72.7615 41.6531L71.1978 40.001" stroke="#592F72" stroke-miterlimit="10"/>
<path d="M121.624 95.1533L123.895 97.5941" stroke="#592F72" stroke-miterlimit="10"/>
<path d="M210.103 121.396C210.103 121.396 216.623 131.172 223.959 134.218" stroke="#592F72" stroke-miterlimit="10"/>
<path d="M220.553 113.904L218.241 112.082L211.503 104.338" stroke="#592F72" stroke-miterlimit="10"/>
<path d="M231.573 80.8486C231.573 80.8486 217.153 92.2841 212.517 95.7923C213.074 93.4263 213.91 91.2371 215.155 89.2995L215.161 89.2927L231.573 80.8486Z" fill="#592F72"/>
<path d="M209.498 121.152L218.241 112.082L212.516 124.884L209.498 121.152Z" fill="#592F72"/>
<path d="M86.5752 153.122C47.9593 167.929 20.4406 153.595 20.4406 153.595C20.4406 153.595 19.0697 147.791 29.4586 141.111C30.2584 140.601 31.0581 140.182 31.8579 139.862C41.4471 135.939 50.6784 144.561 50.6784 144.561C58.3711 140.646 64.5329 139.496 69.4227 139.885C82.5765 140.913 86.5752 153.122 86.5752 153.122Z" fill="#945FB4"/>
<path d="M69.4303 139.878C41.9498 172.164 33.9143 149.49 31.8655 139.855C41.4547 135.933 50.686 144.554 50.686 144.554C58.3787 140.647 64.5405 139.489 69.4303 139.878Z" fill="#945FB4"/>
<path d="M34.4021 149.14C40.7772 139.002 50.4045 139.588 50.4045 139.588C50.4045 139.588 46.2915 146.161 46.3296 154.045" stroke="#592F72" stroke-miterlimit="10"/>
<path d="M50.4043 139.589C50.4043 139.589 63.9161 143.108 66.003 151.425" stroke="#592F72" stroke-miterlimit="10"/>
<path d="M3.47119 153.359L5.10875 157.03L11.9789 154.448L5.57336 158.058L6.236 159.544L13.6774 156.649L6.87579 160.983L7.64506 162.697C7.64506 162.697 17.9807 159.871 20.4409 153.595C20.4409 153.595 13.4641 147.418 3.47119 153.359Z" fill="#945FB4"/>
<path d="M23.815 153.519C23.8607 155.385 22.3831 156.931 20.517 156.969C18.6509 157.007 17.1048 155.537 17.0667 153.671C17.021 151.805 18.4986 150.259 20.3647 150.221C22.2231 150.175 23.7693 151.653 23.815 153.519Z" fill="white"/>
<path d="M96.6217 166.795L98.5563 163.276L92.3488 159.361L99.0971 162.293L99.8816 160.861L93.08 156.672L100.643 159.483L101.55 157.838C101.55 157.838 93.0572 151.303 86.5679 153.123C86.5755 153.115 85.8519 162.408 96.6217 166.795Z" fill="#945FB4"/>
<path d="M84.4735 150.473C85.9359 149.315 88.0533 149.559 89.2186 151.021C90.3763 152.484 90.1326 154.601 88.6702 155.766C87.2079 156.932 85.0905 156.68 83.9251 155.218C82.7674 153.756 83.0187 151.631 84.4735 150.473Z" fill="white"/>
<path d="M64.6242 140.342C57.6094 151.896 48.9722 145.079 48.9722 145.079C38.0881 149.436 36.085 138.102 36.085 138.102C37.9891 128.924 42.4067 124.568 42.4067 124.568L41.7898 119.861C43.7244 116.41 47.7078 113.326 47.7078 113.326C46.6034 111.361 46.4054 108.68 46.4054 108.68L48.2181 106.821C48.142 105.839 48.2486 104.727 48.4085 103.736C48.637 102.206 49.0103 100.972 49.0103 100.972C49.9547 101.444 50.6021 102.084 51.0363 102.67C51.6684 103.5 51.8665 104.224 51.8665 104.224L56.8325 106.89C57.518 106.699 58.1577 106.608 58.7137 106.585C60.2599 106.509 61.1967 106.913 61.1967 106.913C60.9606 107.514 60.595 108.04 60.2142 108.489C59.3992 109.449 58.4929 110.02 58.4929 110.02L59.6201 112.914C58.5919 114.263 56.246 115.771 56.246 115.771C58.4396 118.452 59.3535 121.521 59.3535 121.521C58.6224 124.187 57.6627 125.406 57.6627 125.406C64.0225 131.484 64.6242 140.342 64.6242 140.342Z" fill="#592F72"/>
<path d="M54.0826 136.716C54.0826 136.716 54.1588 139.847 54.8595 140.715C55.5679 141.583 60.8614 142.954 63.5195 136.023C64.205 134.233 70.6106 135.848 66.3453 142.017C62.08 148.187 52.3156 150.403 48.9719 145.079L54.0826 136.716Z" fill="#592F72"/>
<path d="M57.1218 139.839C62.1335 140.776 63.0475 146.001 59.5744 147.867" stroke="#383A5C" stroke-miterlimit="10"/>
<path d="M61.1968 136.99C66.277 136.541 68.5696 141.324 65.721 144.059" stroke="#383A5C" stroke-miterlimit="10"/>
<path d="M59.6274 138.658C64.7153 139.001 66.2386 144.081 63.0092 146.343" stroke="#383A5C" stroke-miterlimit="10"/>
<path d="M54.0827 136.716C54.0827 136.716 53.2297 139.374 54.8596 140.715C55.7203 141.423 61.2042 142.291 63.8624 135.36" stroke="#383A5C" stroke-miterlimit="10"/>
<path d="M51.0359 102.67C49.9315 102.206 49.0404 102.891 48.4082 103.736C48.6367 102.206 49.0099 100.972 49.0099 100.972C49.962 101.444 50.6094 102.084 51.0359 102.67Z" fill="white"/>
<path d="M61.2039 106.913C60.9678 107.515 60.6022 108.041 60.2214 108.49C60.0919 107.667 59.5283 107.073 58.7209 106.578C60.2595 106.51 61.2039 106.913 61.2039 106.913Z" fill="white"/>
<path d="M54.022 105.374C50.1984 109.891 51.3028 113.965 51.3028 113.965C51.3028 113.965 42.4829 127.317 47.2813 142.002" stroke="#383A5C" stroke-miterlimit="10"/>
<path d="M41.2719 131.515L40.8987 132.65" stroke="#383A5C" stroke-miterlimit="10"/>
<path d="M42.3457 132.048L41.8506 133.754" stroke="#383A5C" stroke-miterlimit="10"/>
<path d="M52.3384 120.395L52.2241 121.392" stroke="#383A5C" stroke-miterlimit="10"/>
<path d="M53.4963 120.317L53.1611 122.183" stroke="#383A5C" stroke-miterlimit="10"/>
<path d="M54.5854 129.771L54.6159 131.103" stroke="#383A5C" stroke-miterlimit="10"/>
<path d="M55.9185 130.41L56.0403 131.309" stroke="#383A5C" stroke-miterlimit="10"/>
<path d="M54.1057 109.16L53.8696 110.714" stroke="#383A5C" stroke-miterlimit="10"/>
<path d="M55.0423 109.913L54.8748 110.69" stroke="#383A5C" stroke-miterlimit="10"/>
</svg>
