<svg width="299" height="182" viewBox="0 0 299 182" fill="none" xmlns="http://www.w3.org/2000/svg">
<path d="M192.21 60.5606V163.829C192.21 169.043 187.981 173.271 182.768 173.271H18.9584C13.7451 173.271 9.51013 169.043 9.51013 163.829V60.5606C9.51013 55.3411 13.739 51.1123 18.9584 51.1123H182.762C187.981 51.1185 192.21 55.3473 192.21 60.5606Z" fill="#321145"/>
<path d="M183.889 161.632H17.8315C15.7821 161.632 14.1228 159.972 14.1228 157.923V60.0779C14.1228 58.0285 15.7821 56.3691 17.8315 56.3691H183.889C185.938 56.3691 187.598 58.0285 187.598 60.0779V157.917C187.598 159.972 185.938 161.632 183.889 161.632Z" fill="#512869"/>
<path d="M201.714 165.242C201.714 168.852 200.526 172.195 198.513 174.87C198.055 175.489 197.554 176.059 197.015 176.604C194.105 179.514 190.087 181.315 185.647 181.315H16.0794C10.8104 181.315 6.13582 178.783 3.21341 174.87C1.19497 172.195 0 168.852 0 165.242H201.714Z" fill="#512869"/>
<path d="M188.848 165.447H118.438C118.444 165.378 118.457 165.316 118.457 165.242H83.2514C83.2514 165.31 83.27 165.378 83.27 165.447H12.866C12.866 165.447 50.0895 166.555 83.691 166.889C84.2793 167.973 85.4123 168.722 86.7373 168.722H114.989C116.308 168.722 117.447 167.979 118.036 166.889C151.631 166.555 188.848 165.447 188.848 165.447Z" fill="#321145"/>
<path d="M198.507 174.869C198.049 175.488 197.547 176.058 197.009 176.603C194.099 179.513 190.08 181.315 185.641 181.315H16.0794C10.8104 181.315 6.13579 178.782 3.21338 174.869H198.507Z" fill="#321145"/>
<path d="M25.5586 164.103H17.0948L15.8379 165.446H26.8155L25.5586 164.103Z" fill="#512869"/>
<path d="M36.1646 164.103H27.6945L26.4438 165.446H37.4215L36.1646 164.103Z" fill="#512869"/>
<path d="M46.7708 164.103H38.3007L37.05 165.446H48.0215L46.7708 164.103Z" fill="#512869"/>
<path d="M57.3706 164.103H48.9068L47.6499 165.446H58.6275L57.3706 164.103Z" fill="#512869"/>
<path d="M67.9768 164.103H59.5068L58.2561 165.446H69.2337L67.9768 164.103Z" fill="#512869"/>
<path d="M78.583 164.103H70.113L68.8623 165.446H79.8337L78.583 164.103Z" fill="#512869"/>
<path d="M89.1829 164.103H80.719L79.4622 165.446H90.4398L89.1829 164.103Z" fill="#512869"/>
<path d="M99.7891 164.103H91.319L90.0684 165.446H101.046L99.7891 164.103Z" fill="#512869"/>
<path d="M110.395 164.103H101.925L100.675 165.446H111.646L110.395 164.103Z" fill="#512869"/>
<path d="M120.995 164.103H112.531L111.275 165.446H122.252L120.995 164.103Z" fill="#512869"/>
<path d="M131.601 164.103H123.131L121.881 165.446H132.858L131.601 164.103Z" fill="#512869"/>
<path d="M142.207 164.103H133.737L132.487 165.446H143.458L142.207 164.103Z" fill="#512869"/>
<path d="M152.807 164.103H144.344L143.087 165.446H154.064L152.807 164.103Z" fill="#512869"/>
<path d="M163.413 164.103H154.943L153.693 165.446H164.67L163.413 164.103Z" fill="#512869"/>
<path d="M174.019 164.103H165.549L164.299 165.446H175.27L174.019 164.103Z" fill="#512869"/>
<path d="M184.619 164.103H176.155L174.899 165.446H185.876L184.619 164.103Z" fill="#512869"/>
<path d="M79.1899 63.5898H25.7197V96.3122H79.1899V63.5898Z" fill="#DEC6F3"/>
<path d="M77.407 61.5527H23.9368V94.2751H77.407V61.5527Z" fill="#B994DA"/>
<path d="M75.3637 63.7197H25.98V92.108H75.3637V63.7197Z" fill="#EBD5FF"/>
<path d="M27.5031 90.8626H74.5031L61.0303 70.5791L45.4957 86.1137L38.1711 80.498L27.5031 90.8626Z" fill="#B994DA"/>
<path d="M48.1023 74.2443C48.1023 75.6746 46.9445 76.8324 45.5142 76.8324C44.084 76.8324 42.9261 75.6746 42.9261 74.2443C42.9261 72.8141 44.084 71.6562 45.5142 71.6562C46.9445 71.6562 48.1023 72.8141 48.1023 74.2443Z" fill="#B994DA"/>
<path d="M79.1899 102.372H25.7197V135.094H79.1899V102.372Z" fill="#DEC6F3"/>
<path d="M77.407 100.336H23.9368V133.058H77.407V100.336Z" fill="#B994DA"/>
<path d="M75.3637 102.503H25.98V130.891H75.3637V102.503Z" fill="#EBD5FF"/>
<path d="M73.5247 128.26H27.8187V129.449H73.5247V128.26Z" fill="#B994DA"/>
<path d="M48.8204 128.26H27.8187V129.449H48.8204V128.26Z" fill="#9C71BC"/>
<path d="M50.6717 124.656C55.7189 124.656 59.8104 120.565 59.8104 115.518C59.8104 110.47 55.7189 106.379 50.6717 106.379C45.6245 106.379 41.533 110.47 41.533 115.518C41.533 120.565 45.6245 124.656 50.6717 124.656Z" fill="#B994DA"/>
<path d="M57.21 115.518L51.9782 118.539L46.7463 121.56V115.518V109.475L51.9782 112.496L57.21 115.518Z" fill="#9C71BC"/>
<path d="M169.378 156.604H88.892C87.9788 156.604 87.2358 155.861 87.2358 154.948V154.225C87.2358 153.312 87.9788 152.569 88.892 152.569H169.378C170.291 152.569 171.034 153.312 171.034 154.225V154.948C171.034 155.866 170.291 156.604 169.378 156.604Z" fill="#321145"/>
<path d="M168.831 20H89.4442V154.587H168.831V20Z" fill="#EBD5FF"/>
<path d="M106.776 43.6376H96.861V36.3971H125.777V43.6376H115.908V68.6797H106.776V43.6376Z" fill="#9C71BC"/>
<path d="M137.302 27.6543H117.96V28.7584H137.302V27.6543Z" fill="#B994DA"/>
<path d="M137.302 31.415H117.96V32.5191H137.302V31.415Z" fill="#B994DA"/>
<path d="M137.302 35.1768H117.96V36.2809H137.302V35.1768Z" fill="#B994DA"/>
<path d="M137.302 38.9326H117.96V40.0367H137.302V38.9326Z" fill="#B994DA"/>
<path d="M137.302 42.6934H117.96V43.7975H137.302V42.6934Z" fill="#B994DA"/>
<path d="M161.051 27.6543H141.708V28.7584H161.051V27.6543Z" fill="#B994DA"/>
<path d="M161.051 31.415H141.708V32.5191H161.051V31.415Z" fill="#B994DA"/>
<path d="M161.051 35.1768H141.708V36.2809H161.051V35.1768Z" fill="#B994DA"/>
<path d="M161.051 38.9326H141.708V40.0367H161.051V38.9326Z" fill="#B994DA"/>
<path d="M161.051 42.6934H141.708V43.7975H161.051V42.6934Z" fill="#B994DA"/>
<path d="M137.302 50.3818H117.96V51.4859H137.302V50.3818Z" fill="#B994DA"/>
<path d="M137.302 54.1387H117.96V55.2428H137.302V54.1387Z" fill="#B994DA"/>
<path d="M137.302 57.8994H117.96V59.0035H137.302V57.8994Z" fill="#B994DA"/>
<path d="M137.302 61.6602H117.96V62.7643H137.302V61.6602Z" fill="#B994DA"/>
<path d="M137.302 65.4209H117.96V66.525H137.302V65.4209Z" fill="#B994DA"/>
<path d="M161.051 50.3818H141.709V51.4859H161.051V50.3818Z" fill="#B994DA"/>
<path d="M161.051 54.1387H141.709V55.2428H161.051V54.1387Z" fill="#B994DA"/>
<path d="M161.051 57.8994H141.709V59.0035H161.051V57.8994Z" fill="#B994DA"/>
<path d="M161.051 61.6602H141.709V62.7643H161.051V61.6602Z" fill="#B994DA"/>
<path d="M161.051 65.4209H141.709V66.525H161.051V65.4209Z" fill="#B994DA"/>
<path d="M161.051 74.9268H96.6775V77.6922H161.051V74.9268Z" fill="#9C71BC"/>
<path d="M125.425 84.3154H96.4144V85.4195H125.425V84.3154Z" fill="#B994DA"/>
<path d="M125.425 88.0723H96.4141V89.1764H125.425V88.0723Z" fill="#B994DA"/>
<path d="M125.425 91.833H96.4141V92.9371H125.425V91.833Z" fill="#B994DA"/>
<path d="M125.425 95.5938H96.4141V96.6978H125.425V95.5938Z" fill="#B994DA"/>
<path d="M125.425 99.3545H96.4141V100.459H125.425V99.3545Z" fill="#B994DA"/>
<path d="M161.05 84.3154H132.039V85.4195H161.05V84.3154Z" fill="#B994DA"/>
<path d="M161.05 88.0723H132.039V89.1764H161.05V88.0723Z" fill="#B994DA"/>
<path d="M161.05 91.833H132.039V92.9371H161.05V91.833Z" fill="#B994DA"/>
<path d="M161.05 95.5938H132.039V96.6978H161.05V95.5938Z" fill="#B994DA"/>
<path d="M161.05 99.3545H132.039V100.459H161.05V99.3545Z" fill="#B994DA"/>
<path d="M125.425 107.497H96.4143V108.601H125.425V107.497Z" fill="#B994DA"/>
<path d="M125.425 111.258H96.4141V112.362H125.425V111.258Z" fill="#B994DA"/>
<path d="M125.425 115.02H96.4141V116.124H125.425V115.02Z" fill="#B994DA"/>
<path d="M125.425 118.775H96.4141V119.879H125.425V118.775Z" fill="#B994DA"/>
<path d="M125.425 122.536H96.4141V123.64H125.425V122.536Z" fill="#B994DA"/>
<path d="M161.05 107.497H132.039V108.601H161.05V107.497Z" fill="#B994DA"/>
<path d="M161.05 111.258H132.039V112.362H161.05V111.258Z" fill="#B994DA"/>
<path d="M161.05 115.02H132.039V116.124H161.05V115.02Z" fill="#B994DA"/>
<path d="M161.05 118.775H132.039V119.879H161.05V118.775Z" fill="#B994DA"/>
<path d="M161.05 122.536H132.039V123.64H161.05V122.536Z" fill="#B994DA"/>
<path d="M125.425 130.684H96.4143V131.788H125.425V130.684Z" fill="#B994DA"/>
<path d="M125.425 134.44H96.4141V135.545H125.425V134.44Z" fill="#B994DA"/>
<path d="M125.425 138.201H96.4141V139.305H125.425V138.201Z" fill="#B994DA"/>
<path d="M125.425 141.962H96.4141V143.066H125.425V141.962Z" fill="#B994DA"/>
<path d="M125.425 145.723H96.4141V146.827H125.425V145.723Z" fill="#B994DA"/>
<path d="M112.269 54.2832H96.4147V55.5318H112.269V54.2832Z" fill="#9C71BC"/>
<path d="M112.269 58.0234H96.4144V59.272H112.269V58.0234Z" fill="#9C71BC"/>
<path d="M112.269 61.7695H96.4144V63.0181H112.269V61.7695Z" fill="#9C71BC"/>
<path d="M125.054 151.558C125.499 151.558 125.859 151.198 125.859 150.753C125.859 150.309 125.499 149.948 125.054 149.948C124.609 149.948 124.249 150.309 124.249 150.753C124.249 151.198 124.609 151.558 125.054 151.558Z" fill="#B994DA"/>
<path d="M128.862 151.558C129.306 151.558 129.666 151.198 129.666 150.753C129.666 150.309 129.306 149.948 128.862 149.948C128.417 149.948 128.057 150.309 128.057 150.753C128.057 151.198 128.417 151.558 128.862 151.558Z" fill="#B994DA"/>
<path d="M132.674 151.558C133.119 151.558 133.479 151.198 133.479 150.753C133.479 150.309 133.119 149.948 132.674 149.948C132.23 149.948 131.87 150.309 131.87 150.753C131.87 151.198 132.23 151.558 132.674 151.558Z" fill="#B994DA"/>
<path d="M162.072 147.946H133.03V130.172H162.072" fill="white"/>
<path d="M161.108 129.062H132.06V146.836H161.108V129.062Z" fill="#9C71BC"/>
<path d="M159.993 130.244H133.17V145.665H159.993V130.244Z" fill="#EBD5FF"/>
<path d="M133.995 144.989H159.529L152.208 133.969L143.772 142.404L139.794 139.36L133.995 144.989Z" fill="#9C71BC"/>
<path d="M145.186 135.96C145.186 136.739 144.556 137.369 143.777 137.369C142.998 137.369 142.369 136.739 142.369 135.96C142.369 135.181 142.998 134.552 143.777 134.552C144.556 134.552 145.186 135.181 145.186 135.96Z" fill="#9C71BC"/>
<path d="M168.831 29.4668V156.882H89.4442V149.37C128.578 120.091 157.171 76.9276 168.831 29.4668Z" fill="#B994DA" fill-opacity="0.17"/>
<path d="M254.594 163.005C250.281 166.171 242.18 165.306 242.245 169.232C251.75 170.241 256.528 167.954 256.528 167.954L256.548 169.212L259.864 168.793C259.864 168.793 260.362 165.594 259.471 163.005H254.594Z" fill="#3C1751"/>
<path d="M264.525 92.803C261.713 102.635 258.461 113.798 255.807 124.338L258.835 156.148L259.484 162.998C259.484 162.998 256.862 165.311 254.417 163.122C254.417 163.122 253.69 160.651 252.654 156.862C250.091 147.397 245.654 129.706 246.08 121.873C246.67 110.907 251.815 76.9668 251.815 76.9668L266.747 79.4576L264.525 92.803Z" fill="#FFD3DB"/>
<path d="M259.484 163.005C259.484 163.005 256.862 165.319 254.417 163.129C254.417 163.129 253.689 160.658 252.654 156.869L258.835 156.148L259.484 163.005Z" fill="#B994DA"/>
<path d="M291.477 165.13C289.432 166.71 288.685 166.71 286.43 165.602C285.631 163.118 284.818 160.535 283.998 157.887C275.038 129.06 265.029 92.7398 264.531 92.8053L263.312 79.2436L278.814 77.9785C283.854 118.932 288.01 145.073 290.075 157.192C290.979 162.508 291.477 165.13 291.477 165.13Z" fill="#FFD3DB"/>
<path d="M291.477 165.13C289.432 166.71 288.685 166.71 286.43 165.602C285.631 163.118 284.818 160.535 283.999 157.887L290.075 157.192C290.979 162.508 291.477 165.13 291.477 165.13Z" fill="#B994DA"/>
<path d="M290.068 164.415C289.032 164.284 287.977 164.402 287.013 164.821C286.542 165.025 286.122 165.287 285.984 165.588C285.624 166.408 284.857 167.24 284.995 168.374C285.132 169.508 287.735 170 289.268 170C290.796 170 293.857 169.161 293.942 167.981C294.034 166.801 292.775 165.097 291.674 164.723C291.136 164.546 290.664 164.494 290.068 164.415Z" fill="#3C1751"/>
<path d="M264.583 93.2308L256.941 122.917L245.227 120.525C245.227 120.525 247.79 90.5106 250.071 78.6924L279.332 79.4331L284.975 118.932L272.914 121.855L264.583 93.2308Z" fill="#512869"/>
<path d="M245.057 117.155L244.762 120.59C244.736 120.859 244.893 121.114 245.142 121.213C246.571 121.783 251.434 123.553 256.731 123.428C257.006 123.422 257.242 123.232 257.314 122.969L258.343 119.194C258.435 118.866 258.251 118.532 257.924 118.44C256.416 118.007 252.044 116.9 245.712 116.585C245.378 116.579 245.083 116.828 245.057 117.155Z" fill="#321145"/>
<path d="M271.774 118.754L272.744 122.065C272.823 122.327 273.052 122.504 273.327 122.51C274.861 122.523 280.039 122.412 284.929 120.38C285.178 120.275 285.336 120.013 285.303 119.744L284.896 115.857C284.864 115.523 284.569 115.274 284.234 115.307C282.674 115.451 278.197 116.001 272.18 118.001C271.866 118.099 271.682 118.433 271.774 118.754Z" fill="#321145"/>
<path d="M264.747 80.9083C264.799 80.4036 264.013 80.4101 263.96 80.9083C263.567 84.461 263.567 88.0464 263.954 91.6056C264.006 92.1038 264.793 92.1103 264.74 91.6056C264.354 88.0464 264.354 84.461 264.747 80.9083Z" fill="#321145"/>
<path d="M263.167 90.478C261.699 87.5087 261.358 84.0675 262.197 80.8688C262.328 80.3772 261.568 80.1674 261.437 80.659C260.545 84.0741 260.926 87.7119 262.486 90.8779C262.708 91.3301 263.39 90.9303 263.167 90.478Z" fill="#321145"/>
<path d="M271.4 31.119C271.4 31.119 259.345 45.5853 217.854 53.392L217.008 48.5022C217.008 48.5022 243.188 42.0786 258.795 29.9785L271.4 31.119Z" fill="#FFD3DB"/>
<path d="M212.99 47.3476C212.636 47.3672 212.105 47.3476 211.909 47.7146C211.712 48.0883 212.001 48.4619 212.355 48.5864C212.84 48.7503 213.39 48.8027 213.888 48.9011C214.059 48.9338 214.223 48.9666 214.393 48.9994C213.377 49.2812 212.315 49.4058 211.253 49.3533C210.572 49.3206 209.89 49.2222 209.221 49.0518C208.717 48.9207 208.094 48.7372 207.701 49.2091C207.498 49.4517 207.504 49.727 207.616 49.9695C207.471 50.2317 207.478 50.5791 207.668 50.8609C207.72 50.9396 207.786 51.0117 207.851 51.0772C207.747 51.1493 207.681 51.2739 207.76 51.4181C207.983 51.8507 208.337 52.1522 208.749 52.3816C208.73 52.4734 208.756 52.5783 208.854 52.6504C210.696 54.0531 213.121 54.5906 215.396 54.1776C216.458 53.9875 217.716 53.5877 218.516 52.8274C219.506 51.89 219.25 50.5004 218.929 49.3271C218.922 49.2943 218.903 49.2681 218.89 49.2419C218.981 49.1239 218.995 48.9469 218.837 48.8486C217.107 47.7671 215.049 47.223 212.99 47.3476Z" fill="#FFD3DB"/>
<path d="M258.867 29.9189C258.867 29.9189 245.869 38.2697 239.288 40.4983L243.719 46.9875C243.719 46.9875 255.046 43.0481 258.454 40.6621L258.867 29.9189Z" fill="#9C71BC"/>
<path d="M239.878 40.0206L237.446 40.8792C237.152 40.9841 236.988 41.2987 237.079 41.5937C237.466 42.8784 238.639 46.1689 240.953 48.1025C241.117 48.2402 241.347 48.2664 241.543 48.1943L244.296 47.1128C244.604 46.9948 244.748 46.6474 244.624 46.3459C244.119 45.1201 242.723 42.1246 240.462 40.132C240.304 39.9878 240.075 39.9485 239.878 40.0206Z" fill="#B994DA"/>
<path d="M266.641 28.6807L259.903 30.103C259.903 30.103 254.843 46.3326 251.284 79.5257C271.315 86.0739 278.886 82.1083 278.886 82.1083C277.922 73.2135 281.383 34.77 279.279 32.194C277.372 31.178 273.039 29.3755 273.039 29.3755L266.641 28.6807Z" fill="white"/>
<path d="M268.522 84.6583C270.2 73.1023 273.045 29.3691 273.045 29.3691C273.045 29.3691 278.25 31.0799 279.973 32.5547C281.704 34.0296 279.626 69.3006 280.504 83.5374C276.926 84.927 272.245 85.1106 268.522 84.6583Z" fill="#9C71BC"/>
<path d="M278.938 80.5546C275.994 81.138 272.999 81.3805 270.003 81.2757C269.584 81.2626 269.584 81.9115 270.003 81.9311C273.058 82.0295 276.112 81.7804 279.115 81.1839C279.521 81.1052 279.351 80.476 278.938 80.5546Z" fill="#B994DA"/>
<path d="M266.641 28.6816C266.641 28.6816 260.493 29.3109 258.894 29.9008C257.294 30.4907 248.832 75.9544 248.242 80.5296C248.242 80.5296 253.073 83.8987 260.198 84.3575C260.205 84.3575 264.858 41.8501 266.641 28.6816Z" fill="#9C71BC"/>
<path d="M258.92 80.497C255.774 80.0119 252.726 79.0221 249.9 77.5604C249.527 77.3703 249.199 77.9275 249.573 78.1241C252.45 79.6121 255.551 80.6346 258.749 81.1262C259.156 81.1852 259.333 80.556 258.92 80.497Z" fill="#B994DA"/>
<path d="M259.582 73.0303C258.743 73.0303 258.743 74.3347 259.582 74.3347C260.421 74.3347 260.421 73.0303 259.582 73.0303Z" fill="#B994DA"/>
<path d="M260.185 69.5234C259.346 69.5234 259.346 70.8278 260.185 70.8278C261.024 70.8278 261.024 69.5234 260.185 69.5234Z" fill="#B994DA"/>
<path d="M260.683 66.2656C259.844 66.2656 259.844 67.57 260.683 67.57C261.522 67.57 261.522 66.2656 260.683 66.2656Z" fill="#B994DA"/>
<path d="M261.083 63.3555C260.244 63.3555 260.244 64.6599 261.083 64.6599C261.922 64.6599 261.922 63.3555 261.083 63.3555Z" fill="#B994DA"/>
<path d="M279.672 14.9282C278.506 17.4321 277.011 19.7918 275.196 21.8828C274.56 22.6235 273.767 23.5084 272.685 23.4166C271.512 23.3117 270.935 22.2433 270.489 21.2994C268.438 16.9667 263.377 15.138 261.267 10.8184C260.952 10.1695 260.742 9.50746 260.637 8.85199C259.989 8.43904 259.772 7.46893 259.825 6.69547C259.923 5.142 260.546 3.63442 261.568 2.46112C262.591 1.28783 264 0.468482 265.527 0.153855C265.442 0.435708 265.495 0.652016 265.58 0.933869C266.93 0.271841 268.51 -0.0624523 270.011 0.0096498C269.853 0.25873 269.886 0.534029 269.991 0.809328C271.236 0.291504 272.646 0.0817498 273.976 0.304611C273.78 0.409486 273.675 0.619246 273.642 0.835552C274.573 0.874881 275.622 1.15673 276.395 1.68766C277.162 2.21859 277.706 3.14281 277.588 4.06703C278.584 4.53897 279.397 5.50251 279.784 6.53161C280.171 7.5607 280.262 8.68156 280.262 9.78276C280.275 11.4739 280.387 13.3944 279.672 14.9282Z" fill="#592F72"/>
<path d="M276.238 7.43682C273.924 1.83252 263.561 2.54044 262.322 6.66337C259.766 15.1452 260.611 18.8355 262.8 21.1428C265.331 23.8105 267.179 23.7057 266.641 28.6807C266.641 32.7578 271.413 32.2399 273.039 29.369C273.668 22.7683 276.467 18.0227 276.467 18.0227C276.467 18.0227 277.195 9.75064 276.238 7.43682Z" fill="#FFD3DB"/>
<path d="M269.152 14.93C269.112 15.2905 268.791 15.5527 268.431 15.5134C268.07 15.4741 267.808 15.1529 267.847 14.7924C267.887 14.4318 268.208 14.1697 268.568 14.209C268.929 14.2483 269.191 14.5695 269.152 14.93Z" fill="#3C1751"/>
<path d="M268.522 14.6807C268.509 14.8118 268.391 14.9101 268.26 14.8905C268.129 14.8774 268.031 14.7594 268.05 14.6283C268.064 14.4972 268.182 14.3989 268.313 14.4185C268.437 14.4316 268.536 14.5496 268.522 14.6807Z" fill="white"/>
<path d="M264.111 14.3851C264.072 14.7456 263.751 15.0078 263.39 14.9685C263.03 14.9291 262.768 14.6079 262.807 14.2474C262.846 13.8869 263.168 13.6247 263.528 13.6641C263.889 13.7034 264.151 14.0246 264.111 14.3851Z" fill="#3C1751"/>
<path d="M263.482 14.1358C263.469 14.2669 263.351 14.3652 263.22 14.3455C263.089 14.3324 262.99 14.2144 263.01 14.0833C263.023 13.9523 263.141 13.8539 263.272 13.8736C263.397 13.8867 263.495 14.0047 263.482 14.1358Z" fill="white"/>
<path d="M264.826 11.8816C264.072 11.2262 263.004 11.141 262.158 11.7243C262.001 11.8358 261.948 12.0849 262.04 12.2553C262.132 12.4323 262.342 12.4847 262.505 12.3733C262.853 12.1307 263.266 12.0521 263.659 12.1242C263.856 12.1635 264.046 12.2356 264.223 12.347C264.374 12.4454 264.518 12.6027 264.714 12.5175C264.76 12.4978 264.8 12.465 264.839 12.4257C264.944 12.288 264.97 12.0062 264.826 11.8816Z" fill="#592F72"/>
<path d="M267.363 12.1563C268.366 11.6909 269.578 11.8548 270.391 12.6151C270.542 12.7593 270.542 13.015 270.404 13.1592C270.26 13.3099 270.011 13.3099 269.86 13.1723C269.526 12.8577 269.08 12.6938 268.621 12.6741C268.392 12.6676 268.162 12.6938 267.939 12.7593C267.743 12.8183 267.546 12.9363 267.35 12.8118C267.304 12.779 267.264 12.7397 267.232 12.6938C267.133 12.5234 267.173 12.2481 267.363 12.1563Z" fill="#592F72"/>
<path d="M264.734 16.2404C264.694 16.2339 264.668 16.2076 264.662 16.1683C264.563 15.5981 264.767 15.4276 264.963 15.3883C265.16 15.349 265.383 15.4211 265.625 15.6112C265.665 15.6374 265.671 15.6964 265.638 15.7291C265.606 15.7685 265.553 15.775 265.52 15.7423C265.324 15.5849 265.147 15.526 265.003 15.5522C264.832 15.5849 264.773 15.7816 264.832 16.1355C264.839 16.1814 264.812 16.2273 264.76 16.2339C264.747 16.2404 264.74 16.2404 264.734 16.2404Z" fill="#B994DA"/>
<path d="M266.943 18.2927C266.831 19.0989 266.228 19.6757 265.592 19.5905C264.957 19.5053 264.537 18.7777 264.649 17.9781C264.76 17.1718 265.363 16.595 265.999 16.6802C266.635 16.7654 267.054 17.4864 266.943 18.2927Z" fill="#592F72"/>
<path d="M266.844 18.6789C266.68 18.6068 266.497 18.5543 266.3 18.5281C265.586 18.4298 264.957 18.6985 264.898 19.1246C264.898 19.1311 264.898 19.1377 264.898 19.1442C265.068 19.3868 265.311 19.5506 265.592 19.59C266.123 19.6621 266.628 19.2688 266.844 18.6789Z" fill="#9C71BC"/>
<path d="M265.999 16.6735C265.73 16.6342 265.468 16.7194 265.245 16.8898C265.35 17.0799 265.606 17.2373 265.92 17.2831C266.235 17.329 266.517 17.2504 266.668 17.0996C266.504 16.8702 266.268 16.7129 265.999 16.6735Z" fill="white"/>
<path d="M261.378 9.17352C261.378 9.17352 260.821 7.19399 263.489 4.27058C265.193 2.40249 269.578 2.36971 273.196 3.45124C276.814 4.53277 278.243 6.3091 278.08 8.97033C277.916 11.6315 277.824 14.9679 277.824 14.9679L276.27 15.9052C275.241 14.863 275.038 13.1719 274.861 11.7233C274.684 10.2682 274.415 8.68847 273.308 7.73148C272.259 6.82037 270.699 6.73516 269.349 7.07601C267.998 7.41685 266.773 8.11166 265.488 8.64259C264.21 9.16697 262.768 9.17352 261.378 9.17352Z" fill="#592F72"/>
<path d="M278.683 18.4548C277.7 19.3987 276.297 19.5297 275.543 18.7497C274.796 17.9697 274.979 16.5736 275.963 15.6231C276.946 14.6792 278.349 14.5481 279.102 15.3282C279.85 16.1082 279.666 17.5109 278.683 18.4548Z" fill="#FFD3DB"/>
<path d="M278.479 15.7806C278.132 15.5447 277.634 15.4988 277.155 15.6627C276.919 15.7413 276.736 15.8527 276.611 16.0035C276.441 16.2001 276.369 16.4558 276.428 16.6786C276.48 16.8818 276.618 17.0195 276.742 17.144C276.834 17.2358 276.919 17.321 276.959 17.4128C277.024 17.557 276.985 17.7536 276.86 17.8585C276.742 17.9634 276.546 17.983 276.408 17.8978C276.33 17.8519 276.225 17.8782 276.172 17.9568C276.126 18.0355 276.153 18.1403 276.231 18.1928C276.323 18.2452 276.421 18.278 276.52 18.2911C276.723 18.3108 276.933 18.2518 277.09 18.1141C277.319 17.9109 277.398 17.557 277.273 17.2751C277.208 17.1244 277.09 17.0064 276.985 16.9015C276.88 16.7966 276.788 16.6983 276.756 16.5869C276.723 16.4754 276.769 16.3312 276.86 16.2264C276.9 16.1805 276.946 16.1477 277.005 16.1084C277.175 16.128 277.378 16.2001 277.477 16.3312C277.581 16.4754 277.621 16.6721 277.568 16.8491C277.542 16.9408 277.595 17.0326 277.686 17.0588C277.693 17.0588 277.706 17.0654 277.713 17.0654C277.791 17.0719 277.87 17.026 277.896 16.9408C277.975 16.6655 277.916 16.364 277.745 16.1346C277.68 16.0494 277.601 15.9838 277.509 15.9314C277.798 15.8855 278.073 15.9314 278.276 16.069C278.525 16.2395 278.689 16.6262 278.519 16.9015C278.473 16.9802 278.499 17.085 278.578 17.1375C278.656 17.1834 278.761 17.1571 278.814 17.0785C279.069 16.6655 278.912 16.069 278.479 15.7806Z" fill="#B994DA"/>
<path d="M288.547 71.9409L191.734 41.0681L195.713 28.5879L292.526 59.4607C294.466 60.0768 295.541 62.1547 294.918 64.0949L293.181 69.5419C292.565 71.4886 290.487 72.557 288.547 71.9409Z" fill="#9C71BC"/>
<path d="M283.653 56.6269L195.702 28.5811L191.724 41.0579L279.674 69.1038L283.653 56.6269Z" fill="#B994DA"/>
<path d="M282.354 60.6982L194.404 32.6523L193.02 36.9924L280.97 65.0382L282.354 60.6982Z" fill="#B994DA"/>
<path d="M284.52 56.912L282.778 56.3564L278.799 68.8333L280.541 69.3889L284.52 56.912Z" fill="#B994DA"/>
<path d="M195.713 28.5879L191.734 41.0681L178.336 31.295L175 28.8632L179.058 28.8042L195.713 28.5879Z" fill="#B994DA"/>
<path d="M178.336 31.2955L175 28.8637L179.057 28.8047C178.926 29.6634 178.684 30.5024 178.336 31.2955Z" fill="#512869"/>
<path d="M279.974 32.5547C278.237 35.2552 277.418 38.5457 277.968 42.9308C281.75 45.0677 286.824 48.1549 290.101 52.3631C290.101 52.3631 278.348 53.1365 270.647 51.4127L269.146 55.4569C269.146 55.4569 294.132 62.0313 297.37 55.47C300.602 48.9087 279.974 32.5547 279.974 32.5547Z" fill="#FFD3DB"/>
<path d="M262.977 58.7143C263.246 58.8651 263.561 58.7143 263.712 58.4783C264.197 57.7049 264.642 56.9052 265.049 56.0924C266.019 56.5512 267.107 56.7872 268.182 56.7544C269.25 56.7151 270.384 56.2825 270.968 55.3583C271.033 55.3124 271.092 55.2468 271.125 55.1682C271.525 54.2243 271.472 53.169 271.099 52.2251C270.758 51.3599 270.207 50.6323 269.637 49.9113C269.519 49.7605 269.401 49.6098 269.296 49.4525C269.244 49.3738 269.191 49.2952 269.145 49.2099C269.126 49.1772 269.106 49.1444 269.086 49.1051C269.08 49.0985 269.073 49.0788 269.067 49.0657C269.028 48.974 269.001 48.8822 268.969 48.7839C268.962 48.7708 268.962 48.7642 268.962 48.7577C268.962 48.7511 268.962 48.7446 268.962 48.7446C268.955 48.6987 268.949 48.6528 268.949 48.6069C268.949 48.5676 268.949 48.5282 268.949 48.4955C268.949 48.4758 268.949 48.4693 268.949 48.4693C268.949 48.4365 268.955 48.4103 268.955 48.3775C268.962 48.2595 268.955 48.1415 268.916 48.0301C268.811 47.7155 268.503 47.4992 268.169 47.5188C267.913 47.5319 267.664 47.6827 267.5 47.8793C267.192 48.2398 267.087 48.7642 267.1 49.2231C267.114 49.8589 267.369 50.4226 267.703 50.9404C267.54 50.9273 267.382 50.9142 267.218 50.8945C264.846 50.6848 262.46 50.534 260.074 50.6913C259.798 50.711 259.589 50.9273 259.569 51.196C259.549 51.4517 259.733 51.7335 260.002 51.7663L262.742 52.1399C263.036 52.1792 263.331 52.2186 263.633 52.2644C262.355 52.8019 261.083 53.3394 259.805 53.8769C259.549 53.9818 259.379 54.1129 259.431 54.3947C259.484 54.6635 259.805 54.7618 260.074 54.7487C261.227 54.7028 262.407 54.362 263.502 54.0146C262.774 54.7356 261.903 55.6991 261.136 56.3808C260.932 56.5643 260.965 56.9052 261.129 57.0953C261.319 57.3181 261.614 57.187 261.863 57.0691C262.565 56.7217 263.305 55.8892 263.948 55.4501C263.6 56.1121 263.135 57.3313 262.742 57.9671C262.578 58.2424 262.742 58.5832 262.977 58.7143Z" fill="#FFD3DB"/>
<path d="M279.548 32.2393C279.548 32.2393 297.98 45.5388 297.888 54.781L290.095 52.3688C290.095 52.3688 286.201 47.5904 277.595 42.9431C277.601 42.9366 276.428 35.1102 279.548 32.2393Z" fill="#9C71BC"/>
<path d="M289.315 52.4085L289.583 51.7793L297.22 52.4675C297.652 52.5069 298.026 52.8149 298.124 53.241C298.341 54.1587 298.432 55.7842 296.892 56.9379C296.545 57.2001 296.053 57.1869 295.699 56.9379L289.315 52.4085Z" fill="#B994DA"/>
</svg>
