<svg width="375" height="667" viewBox="0 0 375 667" fill="none" xmlns="http://www.w3.org/2000/svg">
<defs>
<filter id="filter0_f_1284_8" x="-727" y="-655" width="2035.4" height="2037.68" filterUnits="userSpaceOnUse" color-interpolation-filters="sRGB">
<feFlood flood-opacity="0" result="BackgroundImageFix"/>
<feBlend mode="normal" in="SourceGraphic" in2="BackgroundImageFix" result="shape"/>
<feGaussianBlur stdDeviation="7.5" result="effect1_foregroundBlur_1284_8"/>
</filter>
<linearGradient id="paint0_linear_1284_8" x1="85.5" y1="-49.5" x2="375" y2="926.5" gradientUnits="userSpaceOnUse">
<stop offset="0.0462183" stop-color="#AE80D6"/>
<stop offset="0.61505" stop-color="#FFE3BA"/>
<stop offset="1" stop-color="#D68FA8"/>
</linearGradient>
<linearGradient id="paint1_linear_1284_8" x1="248.037" y1="274.974" x2="248.126" y2="525.451" gradientUnits="userSpaceOnUse">
<stop stop-color="#FFFAF2"/>
<stop offset="0.3727" stop-color="#FFF0D9" stop-opacity="0.6264"/>
<stop offset="0.7332" stop-color="#FFE9C7" stop-opacity="0.265"/>
<stop offset="0.9975" stop-color="#FFE6C1" stop-opacity="0"/>
</linearGradient>
<linearGradient id="paint2_linear_1284_8" x1="201.649" y1="202.12" x2="231.358" y2="450.829" gradientUnits="userSpaceOnUse">
<stop stop-color="#FFFAF2"/>
<stop offset="0.3727" stop-color="#FFF0D9" stop-opacity="0.6264"/>
<stop offset="0.7332" stop-color="#FFE9C7" stop-opacity="0.265"/>
<stop offset="0.9975" stop-color="#FFE6C1" stop-opacity="0"/>
</linearGradient>
<linearGradient id="paint3_linear_1284_8" x1="322.574" y1="338.329" x2="328.2" y2="606.374" gradientUnits="userSpaceOnUse">
<stop stop-color="#FFFAF2"/>
<stop offset="0.3727" stop-color="#FFF0D9" stop-opacity="0.6264"/>
</linearGradient>
<linearGradient id="paint4_linear_1284_8" x1="166" y1="459" x2="150" y2="600" gradientUnits="userSpaceOnUse">
<stop stop-color="#FFF0D9"/>
<stop offset="1" stop-color="#9C71BC"/>
</linearGradient>
</defs>
<path d="M0 0H375V667H0V0Z" fill="url(#paint0_linear_1284_8)"/>
<g filter="url(#filter0_f_1284_8)">
<path d="M944.158 296.676L899.103 618.89C865.885 615.008 832.363 611.128 798.674 607.225C589.092 582.9 371.903 557.332 168.516 523.059C-36.9859 488.424 -247.714 457.298 -427.421 373.906C-394.606 352.852 -332.847 356.081 -297.486 380.678C-288.998 368.359 -256.362 366.484 -241.676 377.825C-227.202 350.28 -183.862 328.947 -139.141 328.223C-94.4235 327.521 -46.9943 345.169 -21.3611 372.085C0.546368 361.778 36.7854 363.165 60.4849 375.364C81.5675 357.649 120.662 354.343 146.142 373.162C160.241 342.491 200.631 319.512 248.881 316.05C297.13 312.589 350.618 328.279 383.54 355.565C399.811 350.975 426.533 357.762 439.47 367.581C477.872 339.949 560.828 338.917 610.465 364.973C621.488 340.086 662.546 322.741 700.451 317.295C738.392 311.832 782.28 320.212 813.997 338.938C825.366 319.08 861.83 307.734 891.643 300.64C908.024 296.716 926.066 295.425 944.158 296.676Z" fill="url(#paint1_linear_1284_8)"/>
<path d="M895.452 141.347L888.818 466.628C855.374 466.701 821.628 466.813 787.714 466.922C576.726 467.552 358.038 467.848 152.024 457.869C-56.1314 447.779 -269.062 441.792 -457.369 380.237C-427.275 355.45 -365.568 351.352 -327.545 371.596C-320.573 358.359 -288.388 352.638 -272.465 362.163C-261.35 333.099 -220.837 306.791 -176.515 300.783C-132.194 294.798 -83.0109 306.712 -54.3745 330.409C-33.8397 317.582 2.30918 314.675 27.2849 323.985C46.1246 303.901 84.5536 295.996 112.08 311.669C122.453 279.546 159.843 251.951 207.344 242.808C254.846 233.665 309.814 242.92 345.732 266.12C361.345 259.639 388.683 263.218 402.69 271.438C437.555 239.458 519.807 228.624 572.177 248.626C580.18 222.611 618.898 200.532 655.893 190.642C692.922 180.73 737.492 183.861 771.202 198.705C780.143 177.642 815.009 162.063 843.774 151.494C859.575 145.66 877.338 142.244 895.452 141.347Z" fill="url(#paint2_linear_1284_8)" fill-opacity="0.7"/>
<path d="M825.903 351.262L760.162 697.59C736.435 693.919 712.487 690.255 688.421 686.569C538.707 663.59 383.595 639.39 239.399 605.647C93.7043 571.546 -56.1458 541.288 -178.11 454.5C-152.121 431.426 -107.6 433.972 -84.44 459.833C-77.0131 446.492 -53.1193 443.995 -43.6162 455.943C-30.282 426.179 3.37963 402.65 35.932 401.208C68.4799 399.79 101.116 418.017 116.974 446.511C133.94 435.127 160.117 436.077 176.078 448.811C193.204 429.494 221.935 425.367 238.511 445.176C251.894 412.063 283.582 386.812 318.977 382.381C354.373 377.951 391.61 393.988 412.723 422.769C425.01 417.603 443.722 424.488 452.11 434.828C482.832 404.614 543.184 402.275 576.562 429.488C587.118 402.627 618.713 383.41 646.799 377.004C674.913 370.579 705.928 378.917 727.043 398.534C737.335 377.062 764.979 364.348 787.358 356.295C799.656 351.842 812.891 350.189 825.903 351.262Z" fill="url(#paint3_linear_1284_8)"/>
</g>
<path d="M-717 715.524H1492.44C1476.44 656.109 1337.55 573.103 1123.6 605.975C1030.88 620.227 934.636 535.804 831.805 545.473C686.608 559.142 701.52 599.762 540.614 599.432C357.516 599.063 249.909 512.756 80.8483 521.474C-66.5627 529.066 -101.28 587.51 -282.825 590.947C-403.363 593.238 -490.059 484 -614.267 484C-649.663 484 -687.273 490.427 -717 498.329L-717 715.524Z" fill="url(#paint4_linear_1284_8)"/>

</svg>
