<svg width="185" height="164" viewBox="0 0 185 164" fill="none" xmlns="http://www.w3.org/2000/svg">
<defs>
<linearGradient id="paint0_linear_1067_2487" x1="157.181" y1="108.435" x2="157.181" y2="155.258" gradientUnits="userSpaceOnUse">
<stop stop-color="#B994DA"/>
<stop offset="1" stop-color="#FFB5C3"/>
</linearGradient>
<linearGradient id="paint1_linear_1067_2487" x1="40.5137" y1="69.4756" x2="40.5137" y2="133.604" gradientUnits="userSpaceOnUse">
<stop stop-color="#B994DA"/>
<stop offset="1" stop-color="#FFB5C3"/>
</linearGradient>
</defs>
<path d="M66.9 90.0484C64.2627 88.6135 61.7533 86.952 59.4007 85.0929C57.0713 83.2513 54.893 81.218 52.8947 79.022C50.8732 76.8028 49.026 74.4209 47.3879 71.9054C45.7614 69.4073 44.3324 66.7814 43.1299 64.0567C41.9275 61.3321 40.9516 58.5028 40.2197 55.6155C40.1267 55.2553 40.0396 54.8951 39.9583 54.535C39.9176 54.3723 39.6736 54.4536 39.7085 54.6163C40.3823 57.5501 41.3117 60.4258 42.4793 63.2085C43.6353 65.9681 45.0178 68.6346 46.6036 71.1676C48.1895 73.7063 49.9844 76.1114 51.9537 78.3655C53.9403 80.6312 56.107 82.7401 58.4306 84.6514C60.7425 86.5511 63.2113 88.2591 65.8079 89.7463C66.1274 89.9322 66.4527 90.1123 66.7838 90.2866C66.929 90.3621 67.0452 90.1298 66.9 90.0484Z" fill="#FFC5D0" fill-opacity="0.63"/>
<path d="M40.4805 56.6542C38.639 55.8118 36.7337 53.3311 36.3387 50.9028C36.2284 50.2347 36.1935 49.5201 36.3503 48.8288C36.5072 48.1316 36.8731 47.4519 37.3959 47.1034C37.9362 46.7432 38.5635 46.778 39.0921 47.0162C40.4224 47.6088 41.1775 49.3516 41.2937 51.1642C41.3983 52.9709 40.9742 54.8474 40.4805 56.6542Z" fill="#FFC5D0" fill-opacity="0.63"/>
<path d="M42.7864 63.0387C41.0088 64.0031 37.8778 64.0321 35.6995 62.8819C35.1012 62.5681 34.5087 62.1673 34.0498 61.6212C33.585 61.0809 33.2656 60.378 33.3062 59.7505C33.3469 59.0999 33.7535 58.6235 34.2589 58.3446C35.5368 57.6417 37.3783 58.089 38.8944 59.0882C40.3989 60.0875 41.642 61.5573 42.7864 63.0387Z" fill="#FFC5D0" fill-opacity="0.63"/>
<path d="M42.6063 63.3235C41.9732 61.4005 42.496 58.3157 44.0121 56.3753C44.4303 55.8408 44.9241 55.3296 45.5398 54.9694C46.1556 54.6092 46.9049 54.4175 47.5148 54.5686C48.148 54.7196 48.5488 55.2076 48.7289 55.7537C49.1994 57.1364 48.4268 58.8734 47.1779 60.1864C45.929 61.4935 44.2619 62.4579 42.6063 63.3235Z" fill="#FFC5D0" fill-opacity="0.63"/>
<path d="M47.4513 71.7945C45.8422 73.0145 42.7518 73.5258 40.4283 72.7182C39.7893 72.4975 39.1445 72.1896 38.6043 71.7248C38.0641 71.26 37.64 70.6152 37.5819 69.9878C37.5238 69.3429 37.8491 68.8026 38.308 68.4541C39.464 67.5594 41.3519 67.7279 43.0016 68.4831C44.6456 69.2383 46.092 70.5048 47.4513 71.7945Z" fill="#FFC5D0" fill-opacity="0.63"/>
<path d="M47.3121 72.1029C46.3943 70.302 46.4408 67.1706 47.6432 65.0211C47.9743 64.4286 48.3868 63.8476 48.9386 63.4003C49.4905 62.953 50.205 62.6509 50.8323 62.7031C51.4771 62.7554 51.9476 63.1795 52.2149 63.6849C52.8887 64.9805 52.3949 66.8105 51.3609 68.2977C50.3211 69.7907 48.8224 70.9933 47.3121 72.1029Z" fill="#FFC5D0" fill-opacity="0.63"/>
<path d="M53.7597 79.9264C52.3365 81.3613 49.3507 82.2967 46.9342 81.8319C46.272 81.7041 45.5865 81.4891 44.9882 81.1057C44.3899 80.7223 43.8787 80.1413 43.7335 79.5313C43.5825 78.8981 43.8322 78.3229 44.2331 77.9105C45.2496 76.8648 47.1491 76.7602 48.886 77.2772C50.6229 77.7943 52.2377 78.84 53.7597 79.9264Z" fill="#FFC5D0" fill-opacity="0.63"/>
<path d="M53.6667 80.2522C52.505 78.5965 52.11 75.4943 52.9987 73.1995C53.2427 72.5663 53.5738 71.933 54.0559 71.4102C54.5439 70.8873 55.2003 70.4865 55.8277 70.4516C56.4783 70.4168 57.0011 70.7653 57.3322 71.2301C58.1803 72.4152 57.9479 74.3033 57.1347 75.9183C56.3214 77.5392 55.0086 78.9451 53.6667 80.2522Z" fill="#FFC5D0" fill-opacity="0.63"/>
<path d="M60.8121 86.1553C59.935 87.5147 57.7508 88.7347 55.7874 88.7638C55.2472 88.7696 54.6779 88.7173 54.1493 88.514C53.6149 88.3106 53.1211 87.9388 52.9062 87.4857C52.6855 87.0151 52.7842 86.5213 53.034 86.1379C53.6613 85.1503 55.1252 84.761 56.5658 84.883C58.0064 85.005 59.4412 85.5569 60.8121 86.1553Z" fill="#FFC5D0" fill-opacity="0.63"/>
<path d="M60.7947 86.4282C59.6155 85.3243 58.7965 82.9599 59.1159 81.0195C59.2031 80.485 59.3541 79.9389 59.6504 79.4509C59.9466 78.9629 60.3939 78.5388 60.8819 78.411C61.3814 78.2774 61.8519 78.4633 62.1889 78.777C63.0486 79.5671 63.1764 81.0776 62.7988 82.4777C62.427 83.872 61.6254 85.1849 60.7947 86.4282Z" fill="#FFC5D0" fill-opacity="0.63"/>
<path d="M62.1074 143.709C60.0395 145.905 57.2105 147.305 54.2654 147.956C51.3203 148.607 48.2532 148.543 45.2674 148.113C36.1765 146.8 27.6432 141.99 21.811 134.891C22.8218 133.769 24.2682 133.142 25.6972 132.654C31.1111 130.789 37.0246 130.394 42.6418 131.509C48.259 132.625 53.5683 135.262 57.8553 139.056C59.0694 140.125 61.3523 142.292 62.1074 143.709Z" fill="#FFB5C3"/>
<path d="M24.5237 135.147C29.2928 135.955 33.9748 137.204 38.6277 138.517C43.2807 139.836 47.922 141.224 52.633 142.322C55.2644 142.938 57.9191 143.461 60.6028 143.827C60.841 143.862 60.9165 143.49 60.6783 143.455C55.8918 142.799 51.1866 141.643 46.5278 140.359C41.8575 139.075 37.2278 137.657 32.5342 136.472C29.9086 135.81 27.2655 135.223 24.5992 134.77C24.3611 134.735 24.2855 135.107 24.5237 135.147Z" fill="white" fill-opacity="0.23"/>
<path d="M54.4625 142.456C53.0625 143.188 51.6103 143.821 50.1232 144.35C48.6361 144.879 47.1084 145.309 45.5632 145.628C44.6861 145.808 43.8031 145.954 42.9144 146.064C42.6762 146.093 42.6994 146.471 42.9434 146.442C44.5351 146.244 46.1151 145.936 47.6661 145.518C49.2112 145.1 50.7332 144.577 52.2086 143.943C53.0451 143.583 53.87 143.194 54.6774 142.77C54.7703 142.723 54.782 142.584 54.7297 142.508C54.66 142.416 54.5496 142.41 54.4625 142.456Z" fill="white" fill-opacity="0.23"/>
<path d="M49.4554 141.085C48.6712 139.778 47.6488 138.634 46.5103 137.629C45.3543 136.612 44.0822 135.729 42.781 134.904C42.0432 134.439 41.2939 133.986 40.5445 133.539C40.3354 133.417 40.167 133.754 40.3761 133.876C41.6831 134.654 42.9843 135.439 44.2274 136.316C45.4589 137.181 46.6265 138.146 47.6372 139.267C48.2007 139.895 48.7119 140.574 49.1417 141.295C49.2695 141.504 49.5832 141.295 49.4554 141.085Z" fill="white" fill-opacity="0.23"/>
<path d="M41.1259 138.896C39.1392 139.645 37.0655 140.127 34.951 140.325C34.3585 140.383 33.766 140.412 33.1735 140.424C32.9295 140.43 32.9586 140.807 33.2025 140.801C35.3402 140.761 37.4721 140.435 39.5226 139.831C40.1035 139.663 40.6844 139.465 41.2537 139.25C41.4744 139.169 41.3524 138.814 41.1259 138.896Z" fill="white" fill-opacity="0.23"/>
<path d="M35.3922 137.164C34.0039 135.584 32.296 134.306 30.3965 133.405C29.8621 133.155 29.3103 132.935 28.7526 132.743C28.5202 132.667 28.4041 133.022 28.6364 133.103C30.5708 133.754 32.3657 134.799 33.8819 136.165C34.3175 136.554 34.7242 136.972 35.1134 137.414C35.276 137.6 35.5548 137.344 35.3922 137.164Z" fill="white" fill-opacity="0.23"/>
<path d="M129.654 155.131C128.805 149.914 129.863 144.488 132.093 139.696C134.324 134.903 137.676 130.697 141.457 127.002C152.959 115.749 168.753 108.986 184.838 108.435C185.32 111.037 184.652 113.715 183.816 116.225C180.638 125.747 174.899 134.403 167.359 141.032C159.819 147.66 150.502 152.244 140.656 154.179C137.885 154.719 132.436 155.585 129.654 155.131Z" fill="url(#paint0_linear_1067_2487)"/>
<path d="M181.603 111.942C175.393 117.722 168.678 122.91 161.888 127.988C155.097 133.065 148.225 138.044 141.673 143.429C138.013 146.439 134.458 149.582 131.089 152.916C130.787 153.213 131.222 153.712 131.525 153.41C137.543 147.444 144.153 142.128 150.897 137.01C157.659 131.88 164.56 126.942 171.211 121.667C174.929 118.722 178.565 115.666 182.039 112.436C182.352 112.145 181.917 111.651 181.603 111.942Z" fill="#FFCDD7" fill-opacity="0.27"/>
<path d="M139.546 145.824C140.017 143.094 140.685 140.398 141.533 137.76C142.381 135.123 143.409 132.544 144.618 130.051C145.303 128.64 146.041 127.257 146.831 125.903C147.046 125.537 146.494 125.171 146.279 125.543C144.856 127.971 143.607 130.499 142.538 133.107C141.469 135.704 140.58 138.382 139.889 141.101C139.494 142.646 139.163 144.209 138.89 145.783C138.861 145.958 139.035 146.126 139.198 146.132C139.389 146.144 139.511 145.998 139.546 145.824Z" fill="#FFCDD7" fill-opacity="0.27"/>
<path d="M146.784 140.321C149.433 140.618 152.122 140.414 154.73 139.897C157.379 139.374 159.964 138.538 162.497 137.608C163.932 137.08 165.355 136.516 166.778 135.947C167.173 135.79 166.883 135.197 166.488 135.354C164.013 136.342 161.533 137.324 158.988 138.114C156.473 138.898 153.882 139.508 151.251 139.723C149.775 139.845 148.294 139.828 146.825 139.659C146.406 139.613 146.366 140.269 146.784 140.321Z" fill="#FFCDD7" fill-opacity="0.27"/>
<path d="M158.704 131.05C159.779 127.494 161.318 124.084 163.293 120.935C163.845 120.052 164.432 119.193 165.047 118.356C165.297 118.013 164.745 117.653 164.496 117.996C162.277 121.017 160.464 124.328 159.111 127.826C158.727 128.819 158.385 129.83 158.077 130.846C157.955 131.247 158.582 131.456 158.704 131.05Z" fill="#FFCDD7" fill-opacity="0.27"/>
<path d="M167.22 124.92C170.897 124.671 174.493 123.654 177.769 121.969C178.693 121.493 179.581 120.964 180.441 120.383C180.795 120.145 180.418 119.599 180.064 119.837C177.101 121.836 173.726 123.224 170.217 123.875C169.212 124.061 168.196 124.188 167.174 124.258C166.744 124.287 166.796 124.95 167.22 124.92Z" fill="#FFCDD7" fill-opacity="0.27"/>
<path d="M64.0879 82.2523C63.2747 79.365 62.717 76.408 62.4033 73.4219C62.0955 70.4707 62.0316 67.4904 62.2058 64.5217C62.3801 61.524 62.8041 58.5438 63.4606 55.61C64.1111 52.6994 64.9941 49.8469 66.1094 47.0816C67.2247 44.3163 68.5666 41.6439 70.1234 39.1052C70.3151 38.7915 70.5184 38.4719 70.7159 38.164C70.8088 38.0246 70.5765 37.9026 70.4835 38.042C68.8512 40.575 67.4397 43.2474 66.2663 46.0185C65.0987 48.7722 64.1518 51.6188 63.4431 54.5294C62.7344 57.44 62.2581 60.4028 62.0258 63.3889C61.7876 66.3924 61.7934 69.4133 62.049 72.4169C62.2988 75.3971 62.7983 78.36 63.5477 81.2531C63.6406 81.6133 63.7394 81.9735 63.8381 82.3279C63.8846 82.4963 64.1344 82.415 64.0879 82.2523Z" fill="#B994DA"/>
<path d="M69.5663 40.0288C68.8809 38.1232 69.3282 35.0268 70.792 33.0515C71.1928 32.5055 71.6808 31.9826 72.2849 31.6108C72.889 31.2332 73.6326 31.024 74.2483 31.1577C74.8815 31.2913 75.2939 31.7677 75.4972 32.3079C76.0026 33.679 75.2765 35.4334 74.0624 36.7754C72.8484 38.1174 71.2044 39.1225 69.5663 40.0288Z" fill="#B994DA"/>
<path d="M66.604 46.1347C64.6755 45.5305 62.4681 43.3113 61.771 40.9526C61.5793 40.302 61.4515 39.599 61.5212 38.8903C61.5851 38.1815 61.8698 37.4611 62.3403 37.0487C62.834 36.6246 63.4614 36.5839 64.0074 36.7466C65.4016 37.1707 66.3717 38.8031 66.7086 40.5866C67.0571 42.3644 66.8712 44.2815 66.604 46.1347Z" fill="#B994DA"/>
<path d="M66.2725 46.1976C67.2077 44.4025 69.781 42.6248 72.2266 42.3576C72.9004 42.282 73.6149 42.282 74.3004 42.4738C74.9858 42.6655 75.6481 43.0663 75.9676 43.6066C76.2987 44.1643 76.229 44.7917 75.9676 45.303C75.3053 46.6043 73.5278 47.2666 71.7154 47.284C69.903 47.3072 68.05 46.7844 66.2725 46.1976Z" fill="#B994DA"/>
<path d="M63.589 55.5792C61.5908 55.2771 59.0697 53.4181 58.0241 51.1931C57.7337 50.5831 57.5071 49.9034 57.4606 49.1946C57.42 48.4858 57.5826 47.7306 57.9893 47.2484C58.4075 46.7546 59.0232 46.6152 59.5925 46.6965C61.0389 46.8998 62.2414 48.3696 62.8455 50.0776C63.4612 51.7856 63.5716 53.7086 63.589 55.5792Z" fill="#B994DA"/>
<path d="M63.2749 55.697C63.9255 53.7799 66.1968 51.6304 68.5726 50.9913C69.229 50.817 69.9319 50.7067 70.6406 50.788C71.3493 50.8693 72.0638 51.1714 72.4588 51.6536C72.8712 52.1532 72.9003 52.7865 72.7202 53.3326C72.2613 54.721 70.6057 55.6447 68.8166 55.941C67.0333 56.2431 65.1221 56.0107 63.2749 55.697Z" fill="#B994DA"/>
<path d="M62.1657 65.7809C60.1442 65.7635 57.3908 64.2763 56.0373 62.2197C55.6655 61.6562 55.3402 61.0171 55.2008 60.32C55.0556 59.6228 55.1195 58.8502 55.4506 58.3215C55.7991 57.7754 56.3858 57.5488 56.9609 57.5488C58.4189 57.5488 59.8189 58.8327 60.6612 60.4362C61.5035 62.0396 61.881 63.9277 62.1657 65.7809Z" fill="#B994DA"/>
<path d="M61.8691 65.9388C62.2409 63.9519 64.1927 61.5003 66.4582 60.5359C67.0797 60.2687 67.7652 60.0654 68.4739 60.0479C69.1884 60.0305 69.9319 60.228 70.3966 60.6521C70.873 61.0878 70.9891 61.7095 70.8904 62.2788C70.6348 63.7138 69.1187 64.864 67.3934 65.4101C65.6682 65.9504 63.7396 65.9853 61.8691 65.9388Z" fill="#B994DA"/>
<path d="M62.6302 75.176C61.0443 75.4955 58.6452 74.7809 57.2569 73.3983C56.8735 73.0148 56.5192 72.5733 56.2926 72.0505C56.0661 71.5276 55.9848 70.9176 56.1648 70.447C56.3449 69.959 56.769 69.6918 57.2221 69.593C58.3606 69.3549 59.6676 70.1275 60.5854 71.2488C61.4974 72.3642 62.1015 73.7759 62.6302 75.176Z" fill="#B994DA"/>
<path d="M62.4212 75.3503C62.3863 73.7352 63.5133 71.4986 65.1223 70.3715C65.5638 70.0636 66.0634 69.7906 66.621 69.6569C67.1729 69.5291 67.7944 69.5582 68.2243 69.8138C68.6716 70.081 68.8633 70.5458 68.8749 71.0048C68.9098 72.1725 67.9164 73.3169 66.6501 74.0257C65.3896 74.7344 63.8909 75.083 62.4212 75.3503Z" fill="#B994DA"/>
<path d="M137.972 123.324C138.873 120.46 140.023 117.683 141.4 115.011C142.759 112.373 144.339 109.846 146.111 107.459C147.9 105.048 149.886 102.782 152.036 100.69C154.173 98.6165 156.474 96.7052 158.919 95.003C161.365 93.3008 163.95 91.7962 166.645 90.5297C166.982 90.3728 167.319 90.216 167.656 90.0649C167.813 89.9952 167.679 89.7686 167.528 89.8384C164.775 91.0642 162.132 92.5282 159.628 94.2013C157.142 95.8628 154.795 97.7335 152.611 99.7784C150.427 101.823 148.405 104.043 146.575 106.413C144.734 108.795 143.078 111.328 141.649 113.977C140.226 116.609 139.024 119.362 138.065 122.191C137.943 122.546 137.833 122.894 137.717 123.249C137.67 123.411 137.92 123.481 137.972 123.324Z" fill="#FFB5C3"/>
<path d="M165.681 90.9896C166.151 89.0202 168.219 86.6731 170.525 85.8191C171.158 85.5868 171.85 85.4125 172.564 85.4299C173.279 85.4473 174.016 85.6797 174.458 86.127C174.917 86.586 174.998 87.2134 174.87 87.7711C174.545 89.1945 172.977 90.2634 171.222 90.7224C169.468 91.1871 167.545 91.129 165.681 90.9896Z" fill="#FFB5C3"/>
<path d="M159.854 94.4754C158.57 92.9126 157.937 89.8452 158.652 87.4923C158.849 86.8417 159.128 86.1852 159.569 85.6275C160.011 85.0698 160.644 84.6224 161.266 84.5353C161.91 84.4482 162.457 84.7561 162.828 85.1976C163.764 86.3188 163.676 88.2127 162.985 89.8859C162.294 91.5706 161.091 93.0695 159.854 94.4754Z" fill="#FFB5C3"/>
<path d="M159.541 94.3533C161.306 93.3657 164.432 93.2844 166.627 94.3998C167.232 94.7077 167.83 95.097 168.3 95.6314C168.771 96.1659 169.102 96.863 169.073 97.4905C169.044 98.1411 168.643 98.6233 168.144 98.9138C166.877 99.64 165.024 99.2159 163.496 98.2399C161.974 97.2697 160.708 95.8173 159.541 94.3533Z" fill="#FFB5C3"/>
<path d="M152.157 100.731C150.647 99.3833 149.561 96.4495 149.903 94.0153C149.996 93.3472 150.171 92.6558 150.525 92.0342C150.879 91.4126 151.431 90.8723 152.035 90.698C152.657 90.5121 153.249 90.7387 153.679 91.1163C154.777 92.0807 154.98 93.9688 154.551 95.7291C154.126 97.4894 153.168 99.1509 152.157 100.731Z" fill="#FFB5C3"/>
<path d="M151.832 100.656C153.424 99.4071 156.502 98.8552 158.843 99.6221C159.488 99.8312 160.133 100.127 160.685 100.586C161.231 101.045 161.667 101.684 161.736 102.306C161.806 102.951 161.486 103.491 161.033 103.851C159.895 104.763 158.001 104.624 156.34 103.898C154.678 103.166 153.209 101.928 151.832 100.656Z" fill="#FFB5C3"/>
<path d="M145.384 108.487C143.699 107.366 142.212 104.612 142.207 102.154C142.207 101.481 142.282 100.766 142.543 100.104C142.805 99.4414 143.275 98.8314 143.85 98.5699C144.443 98.3027 145.059 98.4363 145.535 98.75C146.755 99.5517 147.22 101.388 147.045 103.194C146.877 104.995 146.157 106.779 145.384 108.487Z" fill="#FFB5C3"/>
<path d="M145.047 108.459C146.447 107 149.421 106.019 151.843 106.448C152.511 106.565 153.191 106.768 153.801 107.146C154.405 107.523 154.928 108.093 155.079 108.703C155.241 109.33 154.998 109.911 154.603 110.329C153.603 111.392 151.704 111.526 149.961 111.032C148.219 110.544 146.586 109.522 145.047 108.459Z" fill="#FFB5C3"/>
<path d="M140.621 116.603C139.122 115.999 137.502 114.094 137.101 112.171C136.99 111.642 136.932 111.073 137.031 110.515C137.13 109.957 137.397 109.399 137.804 109.097C138.222 108.789 138.727 108.795 139.151 108.964C140.238 109.388 140.906 110.753 141.062 112.194C141.219 113.629 140.952 115.139 140.621 116.603Z" fill="#FFB5C3"/>
<path d="M140.354 116.633C141.213 115.262 143.374 114.007 145.338 113.949C145.878 113.931 146.447 113.978 146.981 114.169C147.516 114.367 148.015 114.727 148.236 115.18C148.463 115.645 148.37 116.139 148.132 116.534C147.522 117.527 146.064 117.94 144.617 117.847C143.177 117.748 141.736 117.214 140.354 116.633Z" fill="#FFB5C3"/>
<path d="M50.3855 123.539C47.4462 124.154 44.4604 124.52 41.463 124.631C38.4946 124.741 35.5205 124.608 32.5754 124.236C29.5954 123.864 26.6503 123.242 23.769 122.394C20.9111 121.552 18.117 120.483 15.4333 119.187C12.7496 117.892 10.1704 116.376 7.74227 114.65C7.44021 114.435 7.13814 114.214 6.84189 113.994C6.70829 113.895 6.56887 114.116 6.70828 114.214C9.12479 116.01 11.6981 117.595 14.3877 118.955C17.0598 120.303 19.8364 121.436 22.6886 122.336C25.5408 123.237 28.4685 123.905 31.431 124.34C34.411 124.776 37.4258 124.974 40.4406 124.915C43.4322 124.863 46.418 124.561 49.3573 124.003C49.7233 123.934 50.0892 123.864 50.4494 123.783C50.612 123.759 50.5539 123.504 50.3855 123.539Z" fill="#FFB5C3"/>
<path d="M8.61891 115.267C6.67293 115.824 3.61163 115.174 1.73535 113.582C1.21836 113.146 0.730413 112.623 0.393496 111.996C0.0565793 111.368 -0.100262 110.607 0.0681968 110.003C0.248273 109.376 0.747839 108.998 1.29969 108.835C2.69963 108.423 4.40164 109.26 5.66218 110.567C6.92852 111.868 7.82309 113.576 8.61891 115.267Z" fill="#FFB5C3"/>
<path d="M14.5151 118.63C13.7831 120.518 11.4247 122.569 9.02564 123.109C8.36342 123.254 7.65473 123.336 6.95185 123.225C6.24898 123.115 5.5461 122.784 5.16852 122.284C4.77932 121.767 4.77932 121.134 4.97683 120.599C5.49382 119.234 7.18421 118.38 8.98497 118.159C10.7857 117.933 12.6852 118.246 14.5151 118.63Z" fill="#FFB5C3"/>
<path d="M14.5618 118.967C12.8307 117.916 11.2275 115.226 11.1229 112.768C11.0939 112.095 11.1404 111.38 11.3785 110.706C11.6167 110.032 12.0582 109.399 12.6216 109.12C13.2025 108.824 13.8241 108.94 14.312 109.23C15.5667 109.98 16.107 111.798 16.0082 113.605C15.9095 115.418 15.2647 117.23 14.5618 118.967Z" fill="#FFB5C3"/>
<path d="M23.7454 122.267C23.3098 124.242 21.2883 126.63 18.9996 127.53C18.3722 127.774 17.6809 127.966 16.9664 127.96C16.2519 127.954 15.5142 127.739 15.0611 127.304C14.5964 126.851 14.4976 126.229 14.6196 125.665C14.9217 124.236 16.4669 123.132 18.2095 122.639C19.9522 122.145 21.875 122.162 23.7454 122.267Z" fill="#FFB5C3"/>
<path d="M23.8387 122.586C21.9682 121.813 19.9757 119.397 19.4994 116.986C19.3658 116.323 19.3077 115.609 19.4355 114.912C19.5633 114.209 19.9118 113.517 20.423 113.151C20.9516 112.774 21.579 112.785 22.1134 113.006C23.4669 113.552 24.2801 115.272 24.4544 117.073C24.6287 118.874 24.2685 120.768 23.8387 122.586Z" fill="#FFB5C3"/>
<path d="M33.8241 124.363C33.6731 126.379 32.0059 129.028 29.8683 130.243C29.2816 130.574 28.6251 130.858 27.9165 130.951C27.2078 131.05 26.4468 130.94 25.9356 130.568C25.4128 130.184 25.2269 129.58 25.2676 129.011C25.3664 127.553 26.7373 126.246 28.3986 125.514C30.0483 124.776 31.9595 124.526 33.8241 124.363Z" fill="#FFB5C3"/>
<path d="M33.9635 124.671C32.0059 124.166 29.6939 122.057 28.8807 119.733C28.6599 119.094 28.4973 118.397 28.5263 117.688C28.5554 116.974 28.7993 116.242 29.2524 115.806C29.7229 115.359 30.3503 115.283 30.908 115.423C32.3253 115.777 33.3709 117.357 33.8008 119.123C34.2249 120.884 34.1319 122.807 33.9635 124.671Z" fill="#FFB5C3"/>
<path d="M43.2339 124.527C43.4488 126.131 42.5775 128.478 41.102 129.773C40.6954 130.128 40.2307 130.459 39.6904 130.651C39.156 130.842 38.5345 130.883 38.0814 130.674C37.6108 130.459 37.3669 130.017 37.303 129.564C37.1403 128.408 38 127.159 39.1793 126.317C40.3468 125.468 41.7991 124.957 43.2339 124.527Z" fill="#FFB5C3"/>
<path d="M43.3907 124.741C41.7759 124.666 39.6208 123.399 38.6042 121.715C38.3254 121.25 38.0872 120.733 37.9943 120.175C37.9013 119.612 37.971 119.002 38.2557 118.583C38.5519 118.153 39.0282 117.997 39.4871 118.014C40.6547 118.055 41.7294 119.124 42.3509 120.431C42.9725 121.738 43.2165 123.26 43.3907 124.741Z" fill="#FFB5C3"/>
<path d="M64.9133 133.443C59.0638 134.111 53.0864 132.647 47.87 129.917C42.6536 127.187 38.1517 123.23 34.2365 118.827C22.3166 105.43 15.6247 87.5018 15.8513 69.5737C18.7732 69.1728 21.7183 70.0617 24.4659 71.1248C34.8929 75.1566 44.222 82.0002 51.2043 90.7377C58.1866 99.4752 62.7989 110.083 64.4312 121.15C64.8843 124.259 65.5639 130.37 64.9133 133.443Z" fill="url(#paint1_linear_1067_2487)"/>
<path d="M19.5802 73.356C25.6853 80.5714 31.1108 88.3212 36.3969 96.1408C41.6889 103.966 46.8704 111.879 52.5225 119.449C55.6825 123.678 58.9878 127.803 62.5254 131.724C62.8391 132.073 63.42 131.614 63.1005 131.265C56.7804 124.253 51.2097 116.613 45.8713 108.84C40.5213 101.05 35.3804 93.1083 29.8619 85.4281C26.7774 81.1349 23.5709 76.9288 20.1552 72.897C19.8474 72.531 19.2723 72.99 19.5802 73.356Z" fill="#FFCDD7" fill-opacity="0.27"/>
<path d="M55.0727 121.94C52.0578 121.272 49.0953 120.389 46.2083 119.303C43.3212 118.222 40.5039 116.944 37.7912 115.468C36.2576 114.632 34.7531 113.737 33.2893 112.784C32.8942 112.529 32.4586 113.121 32.8594 113.383C35.4908 115.091 38.2384 116.619 41.079 117.943C43.9138 119.268 46.8414 120.395 49.8388 121.313C51.5409 121.836 53.2603 122.283 54.9972 122.672C55.1889 122.713 55.3805 122.527 55.4038 122.347C55.4212 122.132 55.2702 121.987 55.0727 121.94Z" fill="#FFCDD7" fill-opacity="0.27"/>
<path d="M49.3336 113.592C49.8041 110.658 49.717 107.661 49.2813 104.727C48.834 101.746 48.044 98.8301 47.1378 95.966C46.6267 94.3393 46.0748 92.7243 45.5172 91.1151C45.3603 90.6677 44.6865 90.9582 44.8433 91.4055C45.8134 94.2115 46.7719 97.0233 47.5212 99.8932C48.2648 102.734 48.805 105.645 48.9037 108.59C48.9618 110.234 48.8631 111.89 48.6017 113.511C48.5262 113.981 49.2581 114.063 49.3336 113.592Z" fill="#FFCDD7" fill-opacity="0.27"/>
<path d="M39.6442 99.8405C35.7406 98.4579 32.0287 96.5639 28.6305 94.1995C27.6778 93.5372 26.7484 92.8401 25.848 92.1081C25.4821 91.8118 25.0464 92.4043 25.4182 92.7064C28.6596 95.3323 32.2553 97.5283 36.0717 99.2131C37.158 99.6953 38.2617 100.131 39.3828 100.526C39.8243 100.689 40.0915 99.9974 39.6442 99.8405Z" fill="#FFCDD7" fill-opacity="0.27"/>
<path d="M33.2665 90.0409C33.1852 85.9394 32.2383 81.8785 30.5363 78.1488C30.0542 77.0973 29.5139 76.0806 28.9156 75.093C28.6716 74.6864 28.0443 75.0756 28.2882 75.4823C30.3562 78.8808 31.7213 82.7093 32.2673 86.6539C32.4242 87.7868 32.5113 88.9196 32.5346 90.0641C32.5404 90.5405 33.2781 90.5172 33.2665 90.0409Z" fill="#FFCDD7" fill-opacity="0.27"/>
<path d="M54.5383 162.043C50.9193 162.043 47.9916 159.109 47.9916 155.496C47.9916 151.876 50.9251 148.948 54.5383 148.948H135.201C135.671 148.948 136.049 148.571 136.049 148.1V148.071C136.049 147.624 135.683 147.258 135.236 147.258H53.3707C48.7526 147.258 45.0059 151.005 45.0059 155.623C45.0059 160.242 48.7526 163.989 53.3707 163.989H135.067C135.607 163.989 136.049 163.548 136.049 163.007V162.961C136.049 162.455 135.642 162.049 135.137 162.049H54.5383V162.043Z" fill="#FFD6DE"/>
<path d="M47.9917 155.49C47.9917 159.109 50.8962 162.037 54.4744 162.037H135.183L135.067 161.584C134.039 157.581 134.039 153.387 135.067 149.39L135.183 148.937H54.4744C50.8903 148.942 47.9917 151.876 47.9917 155.49Z" fill="white"/>
<path d="M49.8912 156.791C49.8912 153.172 52.7957 150.244 56.374 150.244H134.881C134.945 149.959 134.998 149.68 135.073 149.396L135.189 148.942H54.4744C50.8903 148.942 47.9917 151.876 47.9917 155.49C47.9917 158.168 49.5833 160.463 51.8604 161.479C50.6464 160.294 49.8912 158.633 49.8912 156.791Z" fill="#BF9BD7" fill-opacity="0.32"/>
<path d="M107.69 153.934H72.418V154.416H107.69V153.934Z" fill="#BF9BD7" fill-opacity="0.32"/>
<path d="M129.863 158.533H94.5908V159.015H129.863V158.533Z" fill="#BF9BD7" fill-opacity="0.32"/>
<path d="M85.2852 154.235V161.753L88.7066 158.964L92.07 161.654L91.675 154.206L85.2852 154.235Z" fill="#B994DA"/>
<path d="M140.581 147.259H62.1606C59.1457 147.259 56.7002 144.813 56.7002 141.798V140.369C56.7002 137.354 59.1457 134.908 62.1606 134.908H140.587C143.601 134.908 146.047 137.354 146.047 140.369V141.798C146.047 144.813 143.601 147.259 140.581 147.259Z" fill="#654774"/>
<path opacity="0.43" d="M133.726 134.901H132.256V147.258H133.726V134.901Z" fill="white"/>
<path opacity="0.43" d="M127.219 134.901H125.75V147.258H127.219V134.901Z" fill="white"/>
<path d="M56.6934 138.352V140.107L126.656 134.901H60.9281C58.5871 134.901 56.6934 137.074 56.6934 138.352Z" fill="#24245A"/>
<path opacity="0.43" d="M68.8862 134.901H67.4165V147.258H68.8862V134.901Z" fill="white"/>
<path opacity="0.43" d="M75.1073 134.901H73.6377V147.258H75.1073V134.901Z" fill="white"/>
<path d="M61.4971 126.409C61.4971 130.028 64.204 132.956 67.5383 132.956H142.764L142.653 132.503C141.695 128.5 141.695 124.306 142.653 120.309L142.764 119.855H67.5383C64.204 119.855 61.4971 122.789 61.4971 126.409Z" fill="white"/>
<path d="M67.602 132.956C64.2329 132.956 61.4969 130.022 61.4969 126.409C61.4969 122.789 64.2271 119.861 67.602 119.861H142.787C143.222 119.861 143.577 119.484 143.577 119.013V118.984C143.577 118.537 143.24 118.171 142.822 118.171H66.5158C62.2114 118.171 58.7202 121.918 58.7202 126.537C58.7202 131.155 62.2114 134.902 66.5158 134.902H142.659C143.164 134.902 143.577 134.461 143.577 133.92V133.874C143.577 133.369 143.193 132.962 142.723 132.962H67.602V132.956Z" fill="#FFD6DE"/>
<path d="M63.2746 127.704C63.2746 124.085 65.9816 121.157 69.3159 121.157H142.485C142.543 120.872 142.595 120.593 142.659 120.309L142.77 119.855H67.5442C64.2041 119.855 61.5029 122.789 61.5029 126.403C61.5029 129.081 62.9842 131.376 65.1103 132.392C63.9775 131.207 63.2746 129.546 63.2746 127.704Z" fill="#BF9BD7" fill-opacity="0.32"/>
<path d="M108.166 124.862H72.8945V125.344H108.166V124.862Z" fill="#BF9BD7" fill-opacity="0.32"/>
<path d="M130.333 129.464H95.061V129.946H130.333V129.464Z" fill="#BF9BD7" fill-opacity="0.32"/>
<path d="M125.192 83.2138C128.341 83.2138 130.891 80.6634 130.891 77.5147C130.891 74.3659 128.341 71.8156 125.192 71.8156H55.0263C54.6197 71.8156 54.2886 71.4844 54.2886 71.0778V71.0545C54.2886 70.6653 54.6023 70.3516 54.9915 70.3516H126.203C130.223 70.3516 133.476 73.6107 133.476 77.6251C133.476 81.6452 130.217 84.8986 126.203 84.8986H55.1483C54.6778 84.8986 54.2944 84.5151 54.2944 84.0446V84.0039C54.2944 83.5624 54.6487 83.208 55.0902 83.208H125.192V83.2138Z" fill="#B994DA"/>
<path d="M130.891 77.5145C130.891 80.6633 128.364 83.2137 125.25 83.2137H55.0439L55.1427 82.8186C56.0373 79.3387 56.0373 75.6904 55.1427 72.2105L55.0439 71.8154H125.25C128.364 71.8154 130.891 74.3658 130.891 77.5145Z" fill="white"/>
<path d="M129.235 78.6416C129.235 75.4928 126.709 72.9424 123.595 72.9424H55.3112C55.2589 72.6984 55.2066 72.4486 55.1486 72.2046L55.0498 71.8096H125.25C128.364 71.8096 130.891 74.3599 130.891 77.5087C130.891 79.8383 129.508 81.8368 127.528 82.7198C128.579 81.6916 129.235 80.245 129.235 78.6416Z" fill="#BF9BD7" fill-opacity="0.32"/>
<path d="M109.641 76.1611H78.9585V76.5794H109.641V76.1611Z" fill="#BF9BD7" fill-opacity="0.32"/>
<path d="M118.222 79.9482H87.5391V80.3665H118.222V79.9482Z" fill="#BF9BD7" fill-opacity="0.32"/>
<path d="M136.026 118.143H57.5995C54.5847 118.143 52.1392 115.697 52.1392 112.682V107.145C52.1392 104.13 54.5847 101.685 57.5995 101.685H136.026C139.04 101.685 141.486 104.13 141.486 107.145V112.682C141.486 115.697 139.04 118.143 136.026 118.143Z" fill="#B994DA"/>
<path opacity="0.43" d="M129.165 101.678H127.696V118.142H129.165V101.678Z" fill="white"/>
<path opacity="0.43" d="M122.66 101.678H121.19V118.142H122.66V101.678Z" fill="white"/>
<path d="M52.1392 105.907V108.614L122.102 101.678H56.3681C54.0329 101.678 52.1392 103.572 52.1392 105.907Z" fill="#8A57AF"/>
<path opacity="0.43" d="M64.3266 101.678H62.8569V118.142H64.3266V101.678Z" fill="white"/>
<path opacity="0.43" d="M70.5532 101.678H69.0835V118.142H70.5532V101.678Z" fill="white"/>
<path d="M55.4735 99.6905C52.5226 99.6905 50.1351 96.7567 50.1351 93.1431C50.1351 89.5238 52.5226 86.5958 55.4735 86.5958H121.236C121.62 86.5958 121.927 86.2182 121.927 85.7477V85.7186C121.927 85.2713 121.631 84.9053 121.265 84.9053H54.5208C50.7567 84.9053 47.7012 88.6524 47.7012 93.271C47.7012 97.8895 50.7567 101.637 54.5208 101.637H121.126C121.567 101.637 121.927 101.195 121.927 100.655V100.608C121.927 100.103 121.596 99.6963 121.184 99.6963H55.4735V99.6905Z" fill="#FFD6DE"/>
<path d="M50.1353 93.1381C50.1353 96.7574 52.4995 99.6854 55.4214 99.6854H121.225L121.132 99.2322C120.289 95.2295 120.289 91.035 121.132 87.0381L121.225 86.585H55.4214C52.4995 86.5908 50.1353 89.5246 50.1353 93.1381Z" fill="white"/>
<path d="M51.6862 94.4385C51.6862 90.8192 54.0505 87.8912 56.9723 87.8912H120.975C121.027 87.6065 121.068 87.3276 121.132 87.043L121.225 86.5898H55.4214C52.4995 86.5898 50.1353 89.5236 50.1353 93.1371C50.1353 95.8153 51.4306 98.1101 53.2895 99.1267C52.302 97.9416 51.6862 96.2801 51.6862 94.4385Z" fill="#BF9BD7" fill-opacity="0.32"/>
<path d="M98.8078 91.5801H70.0537V92.0623H98.8078V91.5801Z" fill="#BF9BD7" fill-opacity="0.32"/>
<path d="M116.88 96.1816H88.1255V96.6639H116.88V96.1816Z" fill="#BF9BD7" fill-opacity="0.32"/>
<path d="M96.043 96.449V103.966L98.8313 101.178L101.573 103.874L101.254 96.4258L96.043 96.449Z" fill="#654774"/>
<path d="M116.17 17.707C115.712 20.1462 114.391 22.4155 112.5 24.0148C112.433 24.0715 112.363 24.1328 112.349 24.2224C112.334 24.3074 112.386 24.3876 112.443 24.4536C112.669 24.7178 113.014 24.8405 113.349 24.9443C114.599 25.3311 115.91 25.5293 117.222 25.534C117.467 25.534 117.731 25.5199 117.92 25.3594C118.057 25.2415 118.123 25.0669 118.184 24.9018C118.67 23.5572 119.071 22.1843 119.382 20.7878C119.396 20.7265 119.411 20.6604 119.396 20.5944C119.373 20.467 119.25 20.3868 119.142 20.3207C118.33 19.8065 117.604 19.1554 117.005 18.4053" fill="#FFD5DD"/>
<path d="M119.387 20.5991C119.363 20.4717 119.24 20.3915 119.132 20.3255C118.32 19.8112 117.594 19.1601 116.995 18.41L116.165 17.707C116.122 17.9241 116.07 18.1411 116.014 18.3534C116.094 18.5657 116.146 18.7969 116.155 19.0611C116.198 20.0377 117.198 21.0614 117.57 21.9626C118.07 23.1703 118.075 24.3309 117.684 25.4774C117.764 25.4538 117.844 25.4161 117.91 25.3594C118.047 25.2415 118.113 25.0669 118.174 24.9018C118.66 23.5572 119.061 22.1843 119.372 20.7878C119.387 20.7265 119.401 20.6604 119.387 20.5991Z" fill="#EBA1AF"/>
<path d="M126.052 24.2425C125.576 23.2046 125.519 21.978 125.906 20.9023C126.109 20.3361 126.43 19.8077 126.524 19.2133C126.661 18.3452 126.293 17.4771 125.869 16.7081C125.444 15.9391 124.944 15.1842 124.774 14.3208C124.552 13.1791 124.986 11.9336 125.869 11.1787L126.878 11.7071C126.458 12.9385 126.562 14.3444 127.156 15.5003C127.482 16.1278 127.949 16.6986 128.123 17.3874C128.416 18.5528 127.807 19.737 127.194 20.7655C126.581 21.7987 125.916 22.931 126.095 24.1152" fill="#654774"/>
<path d="M121.746 5.49316C123.199 5.62998 124.576 6.399 125.454 7.5596C126.331 8.7202 126.695 10.2629 126.43 11.6925C126.298 12.4143 126.011 13.1031 125.902 13.8297C125.794 14.5562 125.893 15.3724 126.411 15.8914C126.61 16.0848 126.77 16.2264 126.949 16.4387C127.129 16.651 127.237 16.8208 127.081 17.0473C126.874 17.3445 126.473 17.4436 126.176 17.6559C126.011 17.7738 125.921 17.9625 125.831 18.1418C125.076 19.6893 124.119 21.1424 122.991 22.4445C122.93 22.5153 122.864 22.5861 122.779 22.6191C122.647 22.6663 122.501 22.6144 122.369 22.5578C120.92 21.9444 119.458 21.3311 118.151 20.4536C116.845 19.5761 115.684 18.4155 115.066 16.9671C114.481 15.6036 114.415 14.0325 114.877 12.6219" fill="#FFD5DD"/>
<path d="M125.478 14.4015C125.478 14.628 125.345 14.8167 125.185 14.8167C125.025 14.8167 124.893 14.6327 124.893 14.4015C124.893 14.1703 125.025 13.9863 125.185 13.9863C125.345 13.9863 125.478 14.1703 125.478 14.4015Z" fill="#654774"/>
<path opacity="0.51" d="M124.718 16.9498C124.718 17.6197 124.175 18.1623 123.505 18.1623C122.835 18.1623 122.293 17.6197 122.293 16.9498C122.293 16.2799 122.835 15.7373 123.505 15.7373C124.175 15.7373 124.718 16.2799 124.718 16.9498Z" fill="#FF7791"/>
<path d="M125.345 18.9877L123.911 18.6904C123.911 18.6904 124.552 19.3698 124.897 19.4689C125.246 19.568 125.345 18.9877 125.345 18.9877Z" fill="#FF7791"/>
<path d="M113.604 8.16339C111.566 8.61631 109.806 8.10678 109.094 7.80483C108.382 7.49817 107.731 6.99336 107.382 6.29983C107.037 5.61102 107.018 4.79482 107.179 4.03996C107.627 1.95937 109.5 0.260934 111.618 0.0297581C112.835 -0.107061 114.123 0.227909 115.043 1.03467C115.963 1.84143 116.463 3.14356 116.208 4.33719" fill="#654774"/>
<path d="M127.199 6.57456C126.407 5.57437 123.874 3.30035 120.364 3.21071C118.279 3.08333 116.618 3.29563 115.184 4.16844C113.75 5.04125 112.962 6.30092 112.108 7.7446C111.085 9.47134 110.438 10.6036 110.509 12.6135C110.58 14.6233 111.49 16.4585 113.066 17.7088C113.486 18.0437 114.585 18.926 115.123 18.9873C115.788 19.0628 115.779 19.2138 116.274 18.7609C116.769 18.3127 117.109 17.7088 117.359 17.086C117.632 16.4019 117.882 15.5999 118.552 15.2885C119.1 15.0337 119.699 15.2083 120.307 15.3687C120.303 15.515 120.303 15.6612 120.317 15.8075C120.411 16.869 120.92 17.8409 121.336 18.8222C121.751 19.8035 122.086 20.8933 121.812 21.9218C121.623 22.6248 121.175 23.224 120.859 23.8798C120.26 25.13 120.17 26.6114 120.619 27.923L120.689 27.7767C120.623 26.3236 121.562 25.0451 122.435 23.875C123.303 22.7097 124.185 21.3557 123.977 19.9167C123.855 19.0675 123.359 18.3221 123.048 17.5248C122.756 16.7793 122.628 15.9726 122.656 15.1705C122.751 15.1234 122.85 15.0762 122.944 15.029C124.558 14.1987 126.157 13.189 127.143 11.6652C128.11 10.146 128.322 7.99936 127.199 6.57456Z" fill="#654774"/>
<path d="M111.674 9.17781C111.674 9.17781 111.052 9.17781 112.103 7.74829C113.155 6.31877 116.014 3.45973 116.014 3.45973C116.014 3.45973 116.481 3.17666 115.656 4.96474C114.83 6.75281 112.901 8.40407 111.674 9.17781Z" fill="#B994DA"/>
<path d="M116.146 3.51708C116.146 3.51708 116.543 3.33308 117.147 4.17287C117.746 5.00793 118.529 6.94227 118.529 6.94227C118.529 6.94227 118.6 7.24893 117.765 6.4752C116.93 5.70146 116.354 4.33328 116.146 3.51708Z" fill="#B994DA"/>
<path d="M116.146 3.62525C116.146 3.62525 116.156 3.24782 116.967 2.93172C117.779 2.61563 119.444 2.40332 119.444 2.40332C119.444 2.40332 119.699 2.40804 118.854 2.93172C118.01 3.45541 116.821 3.62997 116.146 3.62525Z" fill="#B994DA"/>
<path d="M116.727 3.59121C116.727 3.9073 116.467 4.16679 116.151 4.16679C115.835 4.16679 115.576 3.9073 115.576 3.59121C115.576 3.27511 115.835 3.01562 116.151 3.01562C116.467 3.01562 116.727 3.27511 116.727 3.59121Z" fill="#B994DA"/>
<path d="M119.426 15.2253C119.667 15.7962 119.676 17.2304 119.077 17.372C118.681 17.4616 118.261 17.3201 117.945 17.0606C117.634 16.8058 117.417 16.4473 117.252 16.0745C117.039 15.6028 116.903 15.0696 117.025 14.5648C117.153 14.06 117.606 13.6165 118.124 13.6448C118.488 13.6684 118.808 13.909 119.011 14.211C119.214 14.5224 119.323 14.8762 119.426 15.2253Z" fill="#FFD5DD"/>
<path d="M119.255 16.6048C117.717 16.6048 117.057 15.2413 117.279 14.0713C117.161 14.2175 117.071 14.3921 117.024 14.5714C116.897 15.0762 117.038 15.6046 117.25 16.0811C117.415 16.4491 117.632 16.8077 117.944 17.0671C118.255 17.3219 118.68 17.4682 119.076 17.3785C119.35 17.3172 119.496 16.9822 119.552 16.5906C119.453 16.5954 119.359 16.6048 119.255 16.6048Z" fill="#EBA1AF"/>
<path d="M140.516 90.1602C140.757 92.2832 141.238 94.5667 139.351 97.8833C139.139 98.2513 138.827 98.5863 138.79 99.0109C138.714 99.7705 139.436 100.379 140.153 100.624C140.875 100.865 141.667 100.893 142.347 101.242C143.163 101.662 143.682 102.479 144.333 103.125C145.196 103.984 146.328 104.569 147.526 104.776C147.663 104.8 147.852 104.795 147.894 104.658C147.918 104.597 147.894 104.526 147.871 104.465C147.564 103.7 146.776 103.257 146.257 102.62C145.748 101.993 145.507 101.195 145.111 100.488C144.79 99.912 144.262 98.8269 144.012 98.2183C143.606 97.2323 143.776 96.1802 144.002 95.1375C144.229 94.0949 144.743 91.585 145.149 90.4951" fill="#FFD5DD"/>
<path d="M114.67 56.6493C120.534 54.7197 126.746 53.8421 132.917 54.0733C137.497 54.2479 142.47 55.2575 145.385 58.7912C147.484 61.3389 147.715 62.5561 147.909 65.8492C148.088 68.8403 147.692 73.8413 147.428 76.8277C146.984 81.9041 146.871 87.1693 145.734 92.1372C145.696 92.3024 145.654 92.4769 145.541 92.5996C145.423 92.727 145.243 92.7836 145.074 92.826C143.663 93.1988 142.168 93.2412 140.738 92.9487C140.531 92.9062 140.314 92.8496 140.172 92.6987C140.021 92.5383 139.979 92.3024 139.951 92.0806C139.484 88.5658 139.087 83.0883 138.79 79.5546C138.549 76.705 138.592 75.785 137.658 73.0864C137.408 72.3646 137.12 71.6286 136.592 71.0719C135.516 69.9396 133.766 69.8499 132.205 69.9349C126.93 70.2085 121.6 71.5578 116.43 70.468" fill="#8A57AF"/>
<path d="M133.714 69.8398C133.365 71.9487 132.224 73.9161 130.568 75.2701C130.238 75.539 129.874 75.8033 129.719 76.1996C129.44 76.9072 129.964 77.6904 130.591 78.1245C131.219 78.5538 131.974 78.7991 132.53 79.3181C133.2 79.9456 133.478 80.8703 133.927 81.6723C134.521 82.7338 135.45 83.6066 136.549 84.1303C136.677 84.1917 136.856 84.2341 136.936 84.1209C136.974 84.0643 136.974 83.9935 136.965 83.9275C136.88 83.1065 136.243 82.4649 135.917 81.71C135.597 80.9693 135.587 80.1343 135.398 79.3464C135.247 78.7048 135.035 77.5158 134.96 76.8601C134.837 75.8032 135.177 75.322 135.681 74.3784C136.182 73.4396 137.521 71.793 138.21 70.8542" fill="#FFD5DD"/>
<path d="M103.537 60.0556C103.282 62.5372 103.211 65.4104 104.693 67.4674C106.867 70.4868 111.24 71.0388 114.958 71.2228C118.675 71.4068 122.402 71.0813 125.619 69.2083C128.836 67.34 131.634 64.8207 134.271 62.1975C138.115 58.3807 141.686 54.2951 145.163 50.1386C139.512 55.7057 134.19 62.0796 132.299 69.7839C132.261 69.9443 132.223 70.1141 132.275 70.2698C132.346 70.4868 132.563 70.6142 132.766 70.7275C134.337 71.5767 135.908 72.4259 137.483 73.2798C137.7 73.3978 137.931 73.5157 138.177 73.4874C138.469 73.4497 138.691 73.2091 138.884 72.9826C141.427 69.9584 143.701 66.7125 145.894 63.4289C149.079 58.6685 152.202 53.5355 152.584 47.8221C152.683 46.369 152.546 44.7696 151.555 43.6987C150.461 42.5145 148.673 42.3352 147.06 42.3494C140.469 42.4013 133.384 46.5624 127.492 49.5158C121.604 52.474 114.755 60.3575 110.556 51.4879" fill="#A073C0"/>
<path d="M151.616 31.9045L159.767 21.3553C159.98 21.0769 160.423 21.209 160.451 21.5581L161.117 29.4559L156.121 37.2876L151.616 31.9045Z" fill="#B994DA"/>
<path d="M147.771 34.0033L159.041 20.9961L160.848 29.2713L147.771 34.0033Z" fill="#ECEBF2"/>
<path d="M146.517 34.0029L152.366 23.3594L161.117 29.4596L146.517 34.0029Z" fill="white"/>
<path d="M141.299 38.6831C142.775 36.2911 147.851 28.2518 149.248 26.0439C149.46 25.7089 149.87 25.5674 150.243 25.6947L161.121 29.4596L152.984 42.2121C152.861 42.4008 152.635 42.4904 152.418 42.4338L141.648 39.5559C141.266 39.4521 141.091 39.0181 141.299 38.6831Z" fill="#B994DA"/>
<path d="M160.876 29.375C160.758 29.8326 160.461 30.262 159.932 30.5733C158.513 31.4084 157.512 32.9512 156.21 33.9844C154.875 35.0412 153.432 36.0414 151.927 36.8481C148.889 38.4805 145.044 39.3581 141.615 39.542C141.624 39.5468 141.634 39.5515 141.648 39.5562L152.418 42.4341C152.635 42.4907 152.861 42.4011 152.984 42.2124L161.121 29.4599L160.876 29.375Z" fill="#A882CA"/>
<path d="M113.872 22.501C109.834 25.0156 107.06 29.2334 105.532 33.739C104.003 38.2446 103.616 43.0568 103.513 47.8124C103.409 52.5681 103.579 57.3426 103.112 62.0746C103.079 62.4001 103.112 62.8342 103.432 62.9144C103.645 62.9663 103.848 62.82 104.013 62.6785C108.773 58.7721 114.934 57.0972 120.382 54.2288C120.703 54.0589 121.038 53.8749 121.231 53.5683C121.354 53.3748 121.411 53.1484 121.467 52.9219C121.679 52.0585 121.892 51.1952 122.104 50.3318C123.033 46.548 123.967 42.736 124.109 38.8437C124.255 34.9515 123.378 31.9037 121.264 28.6295C120.863 28.0115 119.396 25.3883 118.868 24.8741C117.523 23.5578 115.868 24.4023 113.872 22.501Z" fill="#C8A7E4"/>
<path d="M122.137 28.8564C121.821 29.5594 121.17 30.0972 120.288 30.0454C117.033 29.8472 113.537 29.8425 110.273 29.3518C109.933 33.1309 110.636 37.1033 112.773 40.2879C115.165 43.8499 118.901 46.1003 122.675 47.945C123.382 44.9444 123.991 41.9156 124.104 38.8395C124.227 35.4143 123.703 31.8853 122.137 28.8564Z" fill="#BB99D9"/>
<path d="M147.328 39.4431C147.941 39.7875 148.738 39.4714 149.224 38.9619C149.715 38.4571 150.045 37.9145 150.479 37.3625C151.003 36.6926 152.097 36.1925 153.14 35.4801C153.262 35.3951 153.428 35.5037 153.39 35.6499C153.22 36.2727 152.281 37.2823 152.126 37.8626C152.107 37.9287 152.093 38.0089 152.135 38.0608C152.177 38.1126 152.253 38.1127 152.319 38.1032C153.484 37.9853 154.362 36.9992 155.451 36.5793C155.612 36.518 155.786 36.4708 155.951 36.518C156.305 36.6265 156.041 37.3436 155.951 37.7022C155.772 38.4476 155.178 39.2685 154.607 39.7733C152.527 41.5945 150.031 42.0002 147.295 41.618" fill="#FFD5DD"/>
<path d="M110.466 27.0216C111.966 25.9412 113.905 25.8752 115.679 26.1865C119.085 26.7857 122.217 28.6068 125.076 30.7157C127.737 32.6784 130.242 34.9194 133.129 36.4527C136.997 38.505 141.389 39.1796 145.686 39.0475C146.503 39.0239 147.366 38.9815 148.092 39.3919C148.819 39.8024 149.319 40.8497 148.899 41.614C148.644 42.0811 148.139 42.3028 147.672 42.4963C144.266 43.8975 140.842 45.3081 137.28 46.1243C133.718 46.9405 129.977 47.1528 126.454 46.1574C121.599 44.7892 117.505 41.2602 113.868 37.4906C112.792 36.3772 111.726 35.2071 111.018 33.7823C110.311 32.3623 108.829 29.0597 110.466 27.0216Z" fill="#C8A7E4"/>
<g opacity="0.46">
<path opacity="0.46" d="M115.693 30.188C116.311 30.188 116.311 29.2256 115.693 29.2256C115.075 29.2303 115.075 30.188 115.693 30.188Z" fill="white"/>
</g>
<g opacity="0.46">
<path opacity="0.46" d="M123.44 40.4908C124.058 40.4908 124.058 39.5283 123.44 39.5283C122.822 39.533 122.822 40.4908 123.44 40.4908Z" fill="white"/>
</g>
<g opacity="0.46">
<path opacity="0.46" d="M124.491 32.896C125.109 32.896 125.109 31.9336 124.491 31.9336C123.873 31.9383 123.873 32.896 124.491 32.896Z" fill="white"/>
</g>
<g opacity="0.46">
<path opacity="0.46" d="M117.651 37.1841C118.269 37.1841 118.269 36.2217 117.651 36.2217C117.033 36.2217 117.028 37.1841 117.651 37.1841Z" fill="white"/>
</g>
<g opacity="0.46">
<path opacity="0.46" d="M132.464 39.8921C133.082 39.8921 133.082 38.9297 132.464 38.9297C131.846 38.9297 131.846 39.8921 132.464 39.8921Z" fill="white"/>
</g>
<g opacity="0.46">
<path opacity="0.46" d="M130.822 45.4546C131.44 45.4546 131.44 44.4922 130.822 44.4922C130.204 44.4969 130.204 45.4546 130.822 45.4546Z" fill="white"/>
</g>
<g opacity="0.46">
<path opacity="0.46" d="M141.861 41.9966C142.479 41.9966 142.479 41.0342 141.861 41.0342C141.243 41.0342 141.243 41.9966 141.861 41.9966Z" fill="white"/>
</g>
<g opacity="0.46">
<path opacity="0.46" d="M119.302 51.7701C119.92 51.7701 119.92 50.8076 119.302 50.8076C118.684 50.8123 118.684 51.7701 119.302 51.7701Z" fill="white"/>
</g>
<g opacity="0.46">
<path opacity="0.46" d="M113.288 44.3267C113.906 44.3267 113.906 43.3643 113.288 43.3643C112.67 43.369 112.67 44.3267 113.288 44.3267Z" fill="white"/>
</g>
<g opacity="0.46">
<path opacity="0.46" d="M111.632 54.0249C112.25 54.0249 112.25 53.0625 111.632 53.0625C111.014 53.0672 111.014 54.0249 111.632 54.0249Z" fill="white"/>
</g>
<g opacity="0.46">
<path opacity="0.46" d="M105.843 59.3667C106.461 59.3667 106.461 58.4043 105.843 58.4043C105.225 58.409 105.225 59.3667 105.843 59.3667Z" fill="white"/>
</g>
<g opacity="0.46">
<path opacity="0.46" d="M106.07 47.4117C106.688 47.4117 106.688 46.4492 106.07 46.4492C105.452 46.4492 105.452 47.4117 106.07 47.4117Z" fill="white"/>
</g>
<g opacity="0.46">
<path opacity="0.46" d="M109.377 38.0835C109.995 38.0835 109.995 37.1211 109.377 37.1211C108.759 37.1211 108.759 38.0835 109.377 38.0835Z" fill="white"/>
</g>
<g opacity="0.46">
<path opacity="0.46" d="M109.377 30.8658C109.995 30.8658 109.995 29.9033 109.377 29.9033C108.759 29.9033 108.759 30.8658 109.377 30.8658Z" fill="white"/>
</g>
<g opacity="0.46">
<path opacity="0.46" d="M121.109 46.1333C121.727 46.1333 121.727 45.1709 121.109 45.1709C120.491 45.1709 120.491 46.1333 121.109 46.1333Z" fill="white"/>
</g>
<g opacity="0.46">
<path opacity="0.46" d="M104.943 39.8902C105.561 39.8902 105.561 38.9277 104.943 38.9277C104.325 38.9277 104.32 39.8902 104.943 39.8902Z" fill="white"/>
</g>

</svg>
