<svg width="201" height="151" viewBox="0 0 201 151" fill="none" xmlns="http://www.w3.org/2000/svg">
<path d="M22.2634 130.844C19.7268 127.903 15.9839 126.366 12.5257 124.606C9.06241 122.846 5.53697 120.506 4.20134 116.861C3.73024 115.577 3.71989 113.843 4.90539 113.165C6.09607 112.481 7.55077 113.351 8.6172 114.211C10.31 115.572 11.9511 116.996 13.5352 118.476C14.0943 118.999 14.6845 119.553 15.43 119.734C16.1754 119.915 17.1124 119.569 17.2833 118.823C17.4541 118.078 16.8381 117.405 16.2479 116.918C13.2816 114.485 9.70952 112.932 6.54128 110.768C3.37304 108.604 0.484348 105.519 0.0391371 101.714C-0.131699 100.259 0.235858 98.5247 1.55596 97.8827C2.4205 97.4634 3.48175 97.6446 4.31523 98.1261C5.1487 98.6023 5.79581 99.3426 6.41186 100.078C8.67415 102.785 10.7294 105.669 12.5516 108.692C13.0797 109.572 13.9597 110.602 14.9123 110.224C15.4921 109.991 15.7665 109.282 15.6836 108.661C15.6008 108.04 15.2488 107.491 14.8916 106.978C12.5102 103.526 9.59045 100.471 7.18839 97.0337C4.78632 93.5963 2.87606 89.6101 2.92265 85.4169C2.94854 83.0096 4.0978 80.183 6.47916 79.831C7.69054 79.6498 8.92781 80.2089 9.80788 81.0579C10.6879 81.9069 11.2626 83.0251 11.7285 84.1589C14.4878 90.894 13.8924 98.7059 17.0555 105.26C17.2885 105.736 17.625 106.269 18.153 106.3C18.6396 106.331 19.0486 105.881 19.1573 105.405C19.266 104.928 19.1418 104.431 19.0279 103.96C18.329 101.123 17.744 98.2555 17.2781 95.3668C17.1124 94.3314 16.9571 93.2702 17.1642 92.2451C17.3713 91.2201 18.0029 90.2158 18.9813 89.8482C20.0633 89.4445 21.3264 89.9155 22.1236 90.7542C22.9209 91.5929 23.3247 92.7266 23.5887 93.85C25.0434 100.114 22.6672 106.714 23.6664 113.066C23.8113 113.998 24.4325 115.184 25.3385 114.909C26.0529 114.697 26.1875 113.755 26.1823 113.004C26.1668 110.556 26.1512 108.107 26.1409 105.658C26.1357 104.711 26.1357 103.738 26.4826 102.863C26.8294 101.983 27.6215 101.211 28.5637 101.175C29.8941 101.123 30.8467 102.449 31.3126 103.696C32.6845 107.362 32.1564 111.462 31.1159 115.236C30.0753 119.01 28.543 122.654 27.9217 126.516C27.549 128.835 27.9787 130.911 30.2047 133.391C30.9657 134.24 33.5904 137.325 33.0882 138.024C31.0434 140.851 23.1124 131.822 22.2634 130.844Z" fill="#9C71BC"/>
<path d="M29.3092 103.64C29.273 103.288 28.7346 103.391 28.7708 103.743C29.3713 109.971 28.3826 116.323 25.9701 122.09C25.3334 123.607 24.5931 125.077 23.7648 126.496C22.5172 123.54 21.5853 120.413 20.6328 117.467C20.55 117.219 20.4619 116.975 20.3739 116.727C20.3791 116.717 20.3843 116.706 20.3895 116.691C21.5957 110.473 21.8286 104.08 21.078 97.7951C20.8657 96.0039 20.5707 94.2283 20.1979 92.463C20.1255 92.1161 19.5871 92.2197 19.6595 92.5665C20.9538 98.7373 21.2851 105.095 20.6276 111.369C20.4775 112.808 20.26 114.242 20.0064 115.671C18.8882 112.487 17.5733 109.391 16.103 106.342C14.3998 102.817 12.5776 99.343 10.9831 95.7658C9.19709 91.7589 7.70615 87.6019 7.05387 83.2482C7.0021 82.8961 6.46371 82.9997 6.51548 83.3517C7.6958 91.2619 11.5784 98.3594 15.0521 105.447C16.3515 108.092 17.5784 110.763 18.6449 113.502C13.5922 111.711 9.03143 108.62 5.49563 104.598C4.48614 103.448 3.55949 102.221 2.72601 100.938C2.53447 100.642 2.03749 100.881 2.23421 101.181C5.24197 105.85 9.46111 109.702 14.3895 112.264C15.7924 112.994 17.2419 113.621 18.7381 114.133C18.7898 114.154 18.8416 114.149 18.883 114.139C19.1781 114.92 19.4628 115.702 19.7268 116.499C20.5965 119.098 21.3627 121.738 22.2946 124.311C17.7752 123.648 13.4577 121.774 9.88044 118.932C8.83989 118.109 7.87181 117.198 6.97104 116.225C6.7329 115.966 6.31358 116.323 6.55689 116.587C9.80796 120.123 14.0323 122.737 18.6449 124.088C19.9132 124.461 21.2074 124.73 22.5172 124.906C22.9365 126.03 23.3921 127.138 23.9097 128.22C25.6077 131.771 27.9736 135.105 31.3178 137.269C31.6129 137.46 31.9235 137.005 31.6284 136.813C27.9995 134.468 25.7216 130.968 24.0288 127.127C27.2954 121.655 29.1694 115.376 29.449 109.008C29.5318 107.217 29.48 105.426 29.3092 103.64Z" fill="#B994DA"/>
<path d="M169.607 40.1665C171.58 37.8783 174.494 36.6825 177.186 35.3106C179.878 33.9388 182.627 32.1217 183.663 29.2796C184.03 28.2804 184.04 26.9293 183.114 26.4012C182.187 25.868 181.053 26.5462 180.22 27.214C178.905 28.2701 177.626 29.3779 176.389 30.5324C175.954 30.9413 175.493 31.371 174.914 31.5108C174.334 31.6558 173.604 31.3814 173.469 30.8016C173.335 30.2218 173.816 29.6937 174.277 29.321C176.586 27.4263 179.371 26.2149 181.83 24.5324C184.294 22.8447 186.546 20.4478 186.893 17.4815C187.028 16.3478 186.738 14.9966 185.713 14.4996C185.04 14.1735 184.211 14.3133 183.564 14.686C182.917 15.0587 182.41 15.6334 181.933 16.208C180.173 18.315 178.574 20.5617 177.155 22.912C176.741 23.5954 176.058 24.3978 175.317 24.1027C174.862 23.9215 174.655 23.3676 174.717 22.8861C174.779 22.4047 175.053 21.975 175.333 21.5764C177.186 18.8896 179.459 16.5082 181.328 13.8318C183.197 11.1554 184.688 8.04925 184.651 4.78782C184.631 2.9138 183.74 0.713631 181.882 0.439257C180.94 0.299482 179.977 0.734337 179.293 1.3918C178.61 2.05444 178.16 2.92415 177.797 3.80422C175.649 9.04838 176.11 15.1312 173.65 20.2304C173.469 20.6031 173.205 21.0121 172.796 21.038C172.418 21.0587 172.097 20.7119 172.015 20.3391C171.932 19.9664 172.025 19.5833 172.118 19.2157C172.662 17.0052 173.117 14.774 173.485 12.5272C173.614 11.7248 173.733 10.8965 173.573 10.0993C173.412 9.30205 172.921 8.52034 172.16 8.23562C171.316 7.91983 170.332 8.28738 169.711 8.93967C169.09 9.59195 168.774 10.472 168.572 11.3521C167.438 16.2287 169.286 21.3693 168.51 26.3132C168.396 27.038 167.915 27.9595 167.205 27.7472C166.646 27.5816 166.548 26.8464 166.548 26.2666C166.558 24.3616 166.569 22.4565 166.579 20.5514C166.584 19.8163 166.584 19.0604 166.31 18.3719C166.035 17.6886 165.424 17.0881 164.689 17.057C163.654 17.0156 162.914 18.051 162.546 19.019C161.475 21.8715 161.889 25.0656 162.701 28.0009C163.509 30.9362 164.705 33.7783 165.191 36.786C165.481 38.5928 165.15 40.2079 163.411 42.1389C162.82 42.7964 160.776 45.2036 161.164 45.7472C162.769 47.9629 168.95 40.9327 169.607 40.1665Z" fill="#9C71BC"/>
<path d="M164.125 18.9934C164.15 18.719 164.57 18.8019 164.544 19.0711C164.078 23.9166 164.844 28.8657 166.723 33.354C167.215 34.5344 167.795 35.6784 168.437 36.7863C169.405 34.4878 170.135 32.0495 170.875 29.7561C170.937 29.5594 171.01 29.373 171.077 29.1763C171.072 29.166 171.067 29.1608 171.067 29.1504C170.125 24.3101 169.949 19.3351 170.528 14.4378C170.694 13.0452 170.922 11.663 171.212 10.2859C171.269 10.0167 171.688 10.0944 171.631 10.3636C170.622 15.1677 170.363 20.1168 170.875 24.9986C170.994 26.122 171.16 27.235 171.357 28.348C172.232 25.8683 173.251 23.4559 174.395 21.0849C175.721 18.3411 177.139 15.6388 178.382 12.8537C179.774 9.73718 180.934 6.49647 181.441 3.1108C181.483 2.83642 181.902 2.91925 181.86 3.18845C180.939 9.34374 177.921 14.8726 175.213 20.3912C174.204 22.4516 173.246 24.5327 172.413 26.6655C176.347 25.273 179.898 22.8657 182.653 19.7337C183.439 18.8381 184.159 17.8856 184.806 16.8813C184.951 16.6535 185.339 16.8398 185.189 17.0676C182.849 20.7018 179.562 23.6992 175.726 25.6975C174.634 26.2669 173.505 26.7535 172.34 27.1522C172.299 27.1677 172.263 27.1625 172.226 27.1573C171.999 27.763 171.776 28.3739 171.569 28.9951C170.896 31.0141 170.295 33.0745 169.571 35.0779C173.091 34.5603 176.451 33.1055 179.236 30.8899C180.043 30.2479 180.799 29.5387 181.503 28.7829C181.69 28.581 182.016 28.8605 181.824 29.0624C179.293 31.8165 176.005 33.851 172.413 34.9019C171.424 35.1918 170.414 35.4041 169.4 35.5387C169.074 36.4136 168.722 37.2781 168.318 38.1219C166.998 40.8864 165.155 43.4852 162.551 45.1676C162.318 45.3178 162.08 44.9658 162.307 44.8156C165.134 42.9882 166.905 40.2652 168.225 37.2781C165.683 33.0175 164.223 28.1306 164.005 23.1712C163.949 21.7786 163.99 20.3808 164.125 18.9934Z" fill="#B994DA"/>
<path d="M187.095 94.6224C186.831 99.0072 186.355 103.382 185.667 107.72C184.44 115.459 182.54 123.09 179.998 130.498C177.901 136.622 175.36 142.591 172.409 148.358C172.564 148.482 172.699 148.633 172.797 148.809C172.818 148.798 172.844 148.793 172.864 148.783C174.303 145.982 175.655 143.13 176.892 140.231C179.972 133.045 182.426 125.59 184.238 117.986C186.06 110.339 187.215 102.533 187.691 94.6845C187.712 94.3014 187.116 94.2393 187.095 94.6224Z" fill="#9C71BC"/>
<path d="M187.059 99.5045C187.059 99.5045 193.142 89.6115 188.27 79.2578C188.27 79.2578 182.012 89.5132 187.059 99.5045Z" fill="#9C71BC"/>
<path d="M187.732 83.4251C187.727 83.042 188.322 83.1042 188.328 83.4872C188.364 88.5399 188.038 93.5873 187.354 98.5933C187.303 98.9764 186.707 98.9143 186.759 98.5312C187.442 93.5252 187.769 88.4777 187.732 83.4251Z" fill="#B994DA"/>
<path d="M186.666 102.434C186.666 102.434 197.149 100.239 201 90.4131C201 90.4131 190.16 92.722 186.666 102.434Z" fill="#9C71BC"/>
<path d="M197.868 92.6961C198.122 92.4528 198.459 92.8928 198.205 93.1361C194.84 96.3613 191.252 99.3432 187.468 102.056C187.178 102.263 186.842 101.823 187.132 101.616C190.916 98.9031 194.503 95.9213 197.868 92.6961Z" fill="#B994DA"/>
<path d="M185.796 107.104C185.796 107.104 195.083 107.073 200.069 99.3955C200.069 99.3955 190.46 99.468 185.796 107.104Z" fill="#9C71BC"/>
<path d="M197.004 100.788C197.263 100.622 197.47 101.057 197.211 101.218C193.794 103.371 190.222 105.276 186.536 106.917C186.257 107.042 186.045 106.612 186.329 106.488C190.02 104.847 193.587 102.942 197.004 100.788Z" fill="#B994DA"/>
<path d="M185.138 111.478C185.138 111.478 194.332 112.777 200.369 105.897C200.369 105.902 190.848 104.592 185.138 111.478Z" fill="#9C71BC"/>
<path d="M197.138 106.839C197.418 106.714 197.563 107.17 197.283 107.294C193.592 108.935 189.787 110.307 185.899 111.405C185.604 111.487 185.459 111.032 185.754 110.949C189.642 109.852 193.447 108.475 197.138 106.839Z" fill="#B994DA"/>
<path d="M184.419 115.925C184.419 115.925 192.738 117.84 198.811 112.011C198.811 112.016 190.191 110.065 184.419 115.925Z" fill="#9C71BC"/>
<path d="M195.777 112.617C196.046 112.523 196.139 112.953 195.875 113.046C192.365 114.258 188.773 115.215 185.123 115.914C184.843 115.966 184.75 115.536 185.025 115.485C188.674 114.791 192.267 113.828 195.777 112.617Z" fill="#B994DA"/>
<path d="M183.56 119.487C183.56 119.487 190.528 122.08 196.429 117.737C196.424 117.737 189.208 115.076 183.56 119.487Z" fill="#9C71BC"/>
<path d="M193.742 117.918C193.986 117.866 194.017 118.249 193.779 118.301C190.61 118.948 187.401 119.373 184.17 119.559C183.927 119.574 183.891 119.191 184.134 119.176C187.359 118.984 190.574 118.565 193.742 117.918Z" fill="#B994DA"/>
<path d="M182.654 122.474C182.654 122.474 188.385 126.005 194.39 123.188C194.395 123.183 188.452 119.554 182.654 122.474Z" fill="#9C71BC"/>
<path d="M191.977 122.873C192.2 122.873 192.164 123.215 191.941 123.22C189.011 123.235 186.086 123.044 183.187 122.645C182.964 122.614 183.001 122.272 183.223 122.298C186.122 122.697 189.047 122.888 191.977 122.873Z" fill="#B994DA"/>
<path d="M182.043 124.43C182.043 124.43 185.879 129.001 191.719 128.302C191.719 128.302 187.732 123.591 182.043 124.43Z" fill="#9C71BC"/>
<path d="M189.772 127.365C189.958 127.427 189.834 127.706 189.648 127.644C187.178 126.842 184.771 125.863 182.442 124.719C182.266 124.631 182.39 124.352 182.566 124.44C184.895 125.584 187.303 126.562 189.772 127.365Z" fill="#B994DA"/>
<path d="M181.53 126.642C181.53 126.642 183.596 130.928 188.25 131.539C188.25 131.539 186.091 127.113 181.53 126.642Z" fill="#9C71BC"/>
<path d="M186.93 130.431C187.064 130.514 186.909 130.705 186.774 130.622C185.025 129.52 183.353 128.288 181.779 126.947C181.66 126.843 181.81 126.652 181.934 126.755C183.508 128.096 185.18 129.323 186.93 130.431Z" fill="#B994DA"/>
<path d="M186.515 103.588C186.515 103.588 177.357 98.0329 176.995 87.4824C177 87.4824 186.453 93.265 186.515 103.588Z" fill="#9C71BC"/>
<path d="M179.195 90.6761C179.035 90.3603 178.574 90.6657 178.735 90.9764C180.831 95.1386 183.223 99.1403 185.894 102.961C186.096 103.251 186.562 102.95 186.355 102.661C183.684 98.84 181.292 94.8331 179.195 90.6761Z" fill="#B994DA"/>
<path d="M185.811 108.496C185.811 108.496 177.067 105.374 174.919 96.4805C174.919 96.4805 183.958 99.7419 185.811 108.496Z" fill="#9C71BC"/>
<path d="M177.342 98.8102C177.15 98.5669 176.814 98.9085 177 99.1467C179.506 102.315 182.239 105.297 185.169 108.077C185.392 108.289 185.734 107.953 185.511 107.74C182.581 104.96 179.848 101.973 177.342 98.8102Z" fill="#B994DA"/>
<path d="M185.055 112.994C185.055 112.994 175.954 111.162 172.553 102.661C172.548 102.661 181.96 104.592 185.055 112.994Z" fill="#9C71BC"/>
<path d="M175.281 104.624C175.059 104.411 174.774 104.794 174.991 105.007C177.927 107.781 181.059 110.344 184.356 112.674C184.605 112.85 184.895 112.472 184.646 112.291C181.349 109.956 178.216 107.398 175.281 104.624Z" fill="#B994DA"/>
<path d="M184.429 116.469C184.429 116.469 175.908 115.962 171.725 108.657C171.725 108.657 180.541 109.216 184.429 116.469Z" fill="#9C71BC"/>
<path d="M174.464 110.091C174.236 109.925 174.024 110.314 174.251 110.474C177.28 112.628 180.453 114.559 183.756 116.257C184.005 116.386 184.222 116.003 183.968 115.874C180.666 114.176 177.487 112.245 174.464 110.091Z" fill="#B994DA"/>
<path d="M183.368 120.195C183.368 120.195 175.934 120.325 171.813 114.263C171.813 114.263 179.506 114.159 183.368 120.195Z" fill="#9C71BC"/>
<path d="M174.288 115.324C174.076 115.2 173.92 115.547 174.127 115.671C176.897 117.338 179.786 118.803 182.768 120.056C182.995 120.149 183.156 119.802 182.928 119.709C179.946 118.456 177.063 116.991 174.288 115.324Z" fill="#B994DA"/>
<path d="M182.54 122.77C182.54 122.77 175.96 124.193 171.233 119.534C171.233 119.539 178.046 118.09 182.54 122.77Z" fill="#9C71BC"/>
<path d="M173.62 120.047C173.413 119.969 173.33 120.311 173.537 120.383C176.291 121.372 179.118 122.169 181.986 122.759C182.203 122.806 182.286 122.469 182.068 122.423C179.195 121.833 176.374 121.035 173.62 120.047Z" fill="#B994DA"/>
<path d="M181.96 125.099C181.96 125.099 176.819 128.133 171.544 125.529C171.544 125.529 176.871 122.412 181.96 125.099Z" fill="#9C71BC"/>
<path d="M173.692 125.295C173.496 125.29 173.522 125.596 173.718 125.601C176.312 125.668 178.911 125.549 181.489 125.243C181.685 125.223 181.66 124.912 181.463 124.938C178.885 125.238 176.286 125.357 173.692 125.295Z" fill="#B994DA"/>
<path d="M181.168 127.921C181.168 127.921 177.793 131.275 173.201 130.302C173.206 130.307 176.711 126.849 181.168 127.921Z" fill="#9C71BC"/>
<path d="M174.821 129.701C174.665 129.738 174.748 129.965 174.904 129.934C176.923 129.474 178.905 128.873 180.836 128.128C180.981 128.071 180.904 127.838 180.753 127.895C178.822 128.635 176.835 129.241 174.821 129.701Z" fill="#B994DA"/>
<path d="M167.733 41.4551H85.8662V121.029H167.733V41.4551Z" fill="#DEC6F3"/>
<path d="M176.964 49.3511V135.696C176.964 140.055 173.428 143.591 169.069 143.591H32.105C27.7461 143.591 24.2051 140.055 24.2051 135.696V49.3511C24.2051 44.987 27.7409 41.4512 32.105 41.4512H169.064C173.428 41.4563 176.964 44.9921 176.964 49.3511Z" fill="#321145"/>
<path d="M170.006 133.859H31.163C29.4494 133.859 28.062 132.471 28.062 130.758V48.9476C28.062 47.2341 29.4494 45.8467 31.163 45.8467H170.006C171.72 45.8467 173.107 47.2341 173.107 48.9476V130.752C173.107 132.471 171.72 133.859 170.006 133.859Z" fill="#512869"/>
<path d="M184.911 136.876C184.911 139.894 183.917 142.69 182.234 144.926C181.851 145.444 181.432 145.92 180.981 146.376C178.548 148.809 175.188 150.315 171.477 150.315H29.6977C25.2922 150.315 21.3837 148.198 18.9402 144.926C17.2526 142.69 16.2534 139.894 16.2534 136.876H184.911Z" fill="#512869"/>
<path d="M174.153 137.047H115.281C115.287 136.99 115.297 136.938 115.297 136.876H85.8613C85.8613 136.933 85.8769 136.99 85.8769 137.047H27.0107C27.0107 137.047 58.1341 137.973 86.2289 138.253C86.7207 139.159 87.6681 139.785 88.7759 139.785H112.398C113.501 139.785 114.453 139.164 114.945 138.253C143.035 137.973 174.153 137.047 174.153 137.047Z" fill="#321145"/>
<path d="M182.229 144.926C181.846 145.443 181.427 145.92 180.976 146.375C178.543 148.808 175.183 150.315 171.472 150.315H29.698C25.2924 150.315 21.3839 148.198 18.9404 144.926H182.229Z" fill="#321145"/>
<path d="M37.6238 135.923H30.547L29.4961 137.046H38.6747L37.6238 135.923Z" fill="#512869"/>
<path d="M46.4914 135.923H39.4095L38.3638 137.046H47.5423L46.4914 135.923Z" fill="#512869"/>
<path d="M55.3596 135.923H48.2777L47.2319 137.046H56.4053L55.3596 135.923Z" fill="#512869"/>
<path d="M64.2224 135.923H57.1456L56.0947 137.046H65.2733L64.2224 135.923Z" fill="#512869"/>
<path d="M73.0906 135.923H66.0086L64.9629 137.046H74.1415L73.0906 135.923Z" fill="#512869"/>
<path d="M81.9582 135.923H74.8763L73.8306 137.046H83.004L81.9582 135.923Z" fill="#512869"/>
<path d="M90.821 135.923H83.7443L82.6934 137.046H91.8719L90.821 135.923Z" fill="#512869"/>
<path d="M99.6892 135.923H92.6072L91.5615 137.046H100.74L99.6892 135.923Z" fill="#512869"/>
<path d="M108.557 135.923H101.475L100.43 137.046H109.603L108.557 135.923Z" fill="#512869"/>
<path d="M117.42 135.923H110.343L109.292 137.046H118.471L117.42 135.923Z" fill="#512869"/>
<path d="M126.288 135.923H119.206L118.16 137.046H127.339L126.288 135.923Z" fill="#512869"/>
<path d="M135.156 135.923H128.074L127.028 137.046H136.202L135.156 135.923Z" fill="#512869"/>
<path d="M144.019 135.923H136.942L135.891 137.046H145.07L144.019 135.923Z" fill="#512869"/>
<path d="M152.887 135.923H145.805L144.759 137.046H153.938L152.887 135.923Z" fill="#512869"/>
<path d="M161.755 135.923H154.673L153.627 137.046H162.8L161.755 135.923Z" fill="#512869"/>
<path d="M170.617 135.923H163.541L162.49 137.046H171.668L170.617 135.923Z" fill="#512869"/>
<path d="M31.8665 129.555H31.7837C31.4472 129.555 31.1729 129.281 31.1729 128.944V50.7837C31.1729 50.4472 31.4472 50.1729 31.7837 50.1729H31.8665C32.203 50.1729 32.4774 50.4472 32.4774 50.7837V128.939C32.4774 129.281 32.203 129.555 31.8665 129.555Z" fill="#321145"/>
<path d="M31.8249 88.7974C32.4539 88.7974 32.9639 88.2875 32.9639 87.6584C32.9639 87.0294 32.4539 86.5195 31.8249 86.5195C31.1959 86.5195 30.686 87.0294 30.686 87.6584C30.686 88.2875 31.1959 88.7974 31.8249 88.7974Z" fill="#B994DA"/>
<path d="M148.142 128H57.8578C56.8334 128 56 127.4 56 126.662V126.078C56 125.34 56.8334 124.739 57.8578 124.739H148.142C149.167 124.739 150 125.34 150 126.078V126.662C150 127.404 149.167 128 148.142 128Z" fill="#321145"/>
<path d="M147.913 53H57.3335V123.802H147.913V53Z" fill="#EBD5FF"/>
<path d="M75.6858 74.8935H65.7704V67.6529H94.6864V74.8935H84.8171V99.9355H75.6858V74.8935Z" fill="#9C71BC"/>
<path d="M111.938 57.0254H89.8687V57.6062H111.938V57.0254Z" fill="#B994DA"/>
<path d="M111.938 59.0039H89.8687V59.5847H111.938V59.0039Z" fill="#B994DA"/>
<path d="M111.938 60.9824H89.8687V61.5633H111.938V60.9824Z" fill="#B994DA"/>
<path d="M111.938 62.959H89.8687V63.5398H111.938V62.959Z" fill="#B994DA"/>
<path d="M111.938 64.9375H89.8687V65.5183H111.938V64.9375Z" fill="#B994DA"/>
<path d="M139.034 57.0254H116.965V57.6062H139.034V57.0254Z" fill="#B994DA"/>
<path d="M139.034 59.0039H116.965V59.5847H139.034V59.0039Z" fill="#B994DA"/>
<path d="M139.034 60.9824H116.965V61.5633H139.034V60.9824Z" fill="#B994DA"/>
<path d="M139.034 62.959H116.965V63.5398H139.034V62.959Z" fill="#B994DA"/>
<path d="M139.034 64.9375H116.965V65.5183H139.034V64.9375Z" fill="#B994DA"/>
<path d="M111.938 68.9824H89.8687V69.5633H111.938V68.9824Z" fill="#B994DA"/>
<path d="M111.938 70.958H89.8687V71.5388H111.938V70.958Z" fill="#B994DA"/>
<path d="M111.938 72.9365H89.8687V73.5174H111.938V72.9365Z" fill="#B994DA"/>
<path d="M111.938 74.916H89.8687V75.4968H111.938V74.916Z" fill="#B994DA"/>
<path d="M111.938 76.8945H89.8687V77.4754H111.938V76.8945Z" fill="#B994DA"/>
<path d="M139.034 68.9824H116.965V69.5633H139.034V68.9824Z" fill="#B994DA"/>
<path d="M139.034 70.958H116.965V71.5388H139.034V70.958Z" fill="#B994DA"/>
<path d="M139.034 72.9365H116.965V73.5174H139.034V72.9365Z" fill="#B994DA"/>
<path d="M139.034 74.916H116.965V75.4968H139.034V74.916Z" fill="#B994DA"/>
<path d="M139.034 76.8945H116.965V77.4754H139.034V76.8945Z" fill="#B994DA"/>
<path d="M139.037 81.8955H65.5879V83.3503H139.037V81.8955Z" fill="#9C71BC"/>
<path d="M98.3884 86.834H65.2871V87.4148H98.3884V86.834Z" fill="#B994DA"/>
<path d="M98.3879 88.8096H65.2866V89.3904H98.3879V88.8096Z" fill="#B994DA"/>
<path d="M98.3879 90.7881H65.2866V91.3689H98.3879V90.7881Z" fill="#B994DA"/>
<path d="M98.3879 92.7676H65.2866V93.3484H98.3879V92.7676Z" fill="#B994DA"/>
<path d="M98.3879 94.7461H65.2866V95.3269H98.3879V94.7461Z" fill="#B994DA"/>
<path d="M139.036 86.834H105.935V87.4148H139.036V86.834Z" fill="#B994DA"/>
<path d="M139.036 88.8096H105.935V89.3904H139.036V88.8096Z" fill="#B994DA"/>
<path d="M139.036 90.7881H105.935V91.3689H139.036V90.7881Z" fill="#B994DA"/>
<path d="M139.036 92.7676H105.935V93.3484H139.036V92.7676Z" fill="#B994DA"/>
<path d="M139.036 94.7461H105.935V95.3269H139.036V94.7461Z" fill="#B994DA"/>
<path d="M98.3884 99.0293H65.2871V99.6101H98.3884V99.0293Z" fill="#B994DA"/>
<path d="M98.3879 101.008H65.2866V101.589H98.3879V101.008Z" fill="#B994DA"/>
<path d="M98.3879 102.986H65.2866V103.567H98.3879V102.986Z" fill="#B994DA"/>
<path d="M98.3879 104.963H65.2866V105.544H98.3879V104.963Z" fill="#B994DA"/>
<path d="M98.3879 106.941H65.2866V107.522H98.3879V106.941Z" fill="#B994DA"/>
<path d="M139.036 99.0293H105.935V99.6101H139.036V99.0293Z" fill="#B994DA"/>
<path d="M139.036 101.008H105.935V101.589H139.036V101.008Z" fill="#B994DA"/>
<path d="M139.036 102.986H105.935V103.567H139.036V102.986Z" fill="#B994DA"/>
<path d="M139.036 104.963H105.935V105.544H139.036V104.963Z" fill="#B994DA"/>
<path d="M139.036 106.941H105.935V107.522H139.036V106.941Z" fill="#B994DA"/>
<path d="M98.3884 111.228H65.2871V111.808H98.3884V111.228Z" fill="#B994DA"/>
<path d="M98.3879 113.203H65.2866V113.784H98.3879V113.203Z" fill="#B994DA"/>
<path d="M98.3879 115.182H65.2866V115.762H98.3879V115.182Z" fill="#B994DA"/>
<path d="M98.3879 117.161H65.2866V117.742H98.3879V117.161Z" fill="#B994DA"/>
<path d="M98.3879 119.14H65.2866V119.72H98.3879V119.14Z" fill="#B994DA"/>
<path d="M83.3771 71.0352H65.2871V71.692H83.3771V71.0352Z" fill="#9C71BC"/>
<path d="M83.3766 73.002H65.2866V73.6588H83.3766V73.002Z" fill="#9C71BC"/>
<path d="M83.3766 74.9736H65.2866V75.6305H83.3766V74.9736Z" fill="#9C71BC"/>
<path d="M97.9642 122.208C98.4714 122.208 98.8826 122.019 98.8826 121.785C98.8826 121.551 98.4714 121.361 97.9642 121.361C97.457 121.361 97.0459 121.551 97.0459 121.785C97.0459 122.019 97.457 122.208 97.9642 122.208Z" fill="#B994DA"/>
<path d="M102.309 122.208C102.816 122.208 103.227 122.019 103.227 121.785C103.227 121.551 102.816 121.361 102.309 121.361C101.802 121.361 101.391 121.551 101.391 121.785C101.391 122.019 101.802 122.208 102.309 122.208Z" fill="#B994DA"/>
<path d="M106.66 122.208C107.167 122.208 107.578 122.019 107.578 121.785C107.578 121.551 107.167 121.361 106.66 121.361C106.152 121.361 105.741 121.551 105.741 121.785C105.741 122.019 106.152 122.208 106.66 122.208Z" fill="#B994DA"/>
<path d="M122 120.001H106.479V110.939H122" fill="white"/>
<path d="M121.484 110.374H105.96V119.435H121.484V110.374Z" fill="#9C71BC"/>
<path d="M120.889 110.977H106.553V118.838H120.889V110.977Z" fill="#EBD5FF"/>
<path d="M106.994 118.493H120.64L116.728 112.875L112.219 117.175L110.093 115.624L106.994 118.493Z" fill="#9C71BC"/>
<path d="M112.975 113.891C112.975 114.288 112.638 114.609 112.222 114.609C111.806 114.609 111.469 114.288 111.469 113.891C111.469 113.494 111.806 113.173 112.222 113.173C112.638 113.173 112.975 113.494 112.975 113.891Z" fill="#9C71BC"/>
<path d="M147.913 57.9814V125.011H57.3335V121.059C101.985 105.656 134.609 82.9492 147.913 57.9814Z" fill="#B994DA" fill-opacity="0.17"/>
</svg>
