<svg width="119" height="186" viewBox="0 0 119 186" fill="none" xmlns="http://www.w3.org/2000/svg">
<path d="M22.6705 59.0206C16.644 57.095 21.4283 37.1276 32.3802 29.5768C43.3376 22.026 60.0774 27.3148 67.2919 41.1688C74.5118 55.0228 83.9014 58.9447 83.9014 58.9447C83.9014 58.9447 40.2565 64.6403 22.6705 59.0206Z" fill="#592F72"/>
<path d="M41.6505 63.1591C41.6505 63.1591 32.5646 49.5546 43.4568 42.9422C54.3491 36.3299 48.9951 32.1856 60.739 26.7991C72.4883 21.4181 87.3187 34.9032 81.8509 56.3406C81.8563 56.3406 62.4423 64.8027 41.6505 63.1591Z" fill="#FFB5C3"/>
<path d="M47.0254 8.16113C47.0254 8.16113 51.9562 18.9829 53.1062 32.7284" stroke="#592F72" stroke-miterlimit="10" stroke-linecap="round" stroke-linejoin="round"/>
<path d="M41.3896 12.2617C41.3896 12.2617 45.74 14.9522 49.9602 16.3517" stroke="#592F72" stroke-miterlimit="10" stroke-linecap="round" stroke-linejoin="round"/>
<path d="M42.3716 19.1768C42.3716 19.1768 46.9769 21.8022 51.5714 22.6104" stroke="#592F72" stroke-miterlimit="10" stroke-linecap="round" stroke-linejoin="round"/>
<path d="M43.9116 24.1747C43.9116 24.1747 46.5913 22.9814 48.3651 21.7988" stroke="#592F72" stroke-miterlimit="10" stroke-linecap="round" stroke-linejoin="round"/>
<path d="M49.3472 26.832L52.7971 29.7504" stroke="#592F72" stroke-miterlimit="10" stroke-linecap="round" stroke-linejoin="round"/>
<path d="M55.6176 22.167C55.6176 22.167 53.7896 25.1504 52.3467 26.6476" stroke="#592F72" stroke-miterlimit="10" stroke-linecap="round" stroke-linejoin="round"/>
<path d="M53.0739 17.8057C53.0739 17.8057 52.027 19.7639 51.2188 21.0712" stroke="#592F72" stroke-miterlimit="10" stroke-linecap="round" stroke-linejoin="round"/>
<path d="M54.9185 10.8359C54.9185 10.8359 52.9874 14.6385 50.248 17.329" stroke="#592F72" stroke-miterlimit="10" stroke-linecap="round" stroke-linejoin="round"/>
<path d="M51.121 12.2461C51.121 12.2461 50.7304 14.3237 49.7432 15.6418" stroke="#592F72" stroke-miterlimit="10" stroke-linecap="round" stroke-linejoin="round"/>
<path d="M51.9727 15.3867C51.9727 15.3867 54.2238 15.6959 56.9577 15.6254" stroke="#592F72" stroke-miterlimit="10" stroke-linecap="round" stroke-linejoin="round"/>
<path d="M42.8054 11.1383C42.187 10.3572 41.0478 10.227 40.2667 10.8454C39.4856 11.4638 39.3554 12.6029 39.9738 13.384C40.5922 14.1651 41.7313 14.2953 42.5124 13.6769C43.2935 13.0531 43.4237 11.9194 42.8054 11.1383Z" fill="#605575" stroke="#605575" stroke-miterlimit="10" stroke-linecap="round" stroke-linejoin="round"/>
<path d="M43.8161 19.2558C43.9308 18.2648 43.2204 17.3684 42.2294 17.2537C41.2384 17.1389 40.342 17.8493 40.2273 18.8403C40.1125 19.8314 40.8229 20.7278 41.8139 20.8425C42.805 20.9572 43.7014 20.2468 43.8161 19.2558Z" fill="#FFF9EF" stroke="#FFF9EF" stroke-miterlimit="10" stroke-linecap="round" stroke-linejoin="round"/>
<path d="M56.3337 9.71154C55.7153 8.93043 54.5762 8.80024 53.795 9.41862C53.0139 10.037 52.8837 11.1761 53.5021 11.9573C54.1205 12.7384 55.2596 12.8686 56.0407 12.2502C56.8219 11.6318 56.9521 10.4981 56.3337 9.71154Z" fill="#605575" stroke="#605575" stroke-miterlimit="10" stroke-linecap="round" stroke-linejoin="round"/>
<path d="M52.5368 11.1227C51.9184 10.3416 50.7793 10.2114 49.9982 10.8298C49.217 11.4481 49.0869 12.5873 49.7052 13.3684C50.3236 14.1495 51.4628 14.2797 52.2439 13.6613C53.025 13.0429 53.1552 11.9038 52.5368 11.1227Z" fill="#FFF9EF" stroke="#FFF9EF" stroke-miterlimit="10" stroke-linecap="round" stroke-linejoin="round"/>
<path d="M58.3732 14.4967C57.7548 13.7156 56.6157 13.5854 55.8346 14.2038C55.0535 14.8222 54.9233 15.9613 55.5417 16.7424C56.1601 17.5235 57.2992 17.6537 58.0803 17.0353C58.8614 16.4169 58.9916 15.2832 58.3732 14.4967Z" fill="#FFF9EF" stroke="#FFF9EF" stroke-miterlimit="10" stroke-linecap="round" stroke-linejoin="round"/>
<path d="M45.3273 23.0504C44.7089 22.2693 43.5698 22.1391 42.7887 22.7575C42.0076 23.3759 41.8774 24.515 42.4958 25.2961C43.1142 26.0772 44.2533 26.2074 45.0344 25.589C45.8155 24.9652 45.9457 23.8315 45.3273 23.0504Z" fill="#605575" stroke="#605575" stroke-miterlimit="10" stroke-linecap="round" stroke-linejoin="round"/>
<path d="M48.7614 6.63635C48.143 5.85523 47.0039 5.72504 46.2228 6.34343C45.4417 6.96181 45.3115 8.10094 45.9299 8.88206C46.5482 9.66318 47.6874 9.79337 48.4685 9.17498C49.2496 8.5566 49.3798 7.42289 48.7614 6.63635Z" fill="#605575" stroke="#605575" stroke-miterlimit="10" stroke-linecap="round" stroke-linejoin="round"/>
<path d="M54.4894 16.6822C53.871 15.9011 52.7319 15.7709 51.9508 16.3893C51.1697 17.0077 51.0395 18.1468 51.6579 18.928C52.2763 19.7091 53.4154 19.8393 54.1965 19.2209C54.9776 18.5971 55.1078 17.4634 54.4894 16.6822Z" fill="#605575" stroke="#605575" stroke-miterlimit="10" stroke-linecap="round" stroke-linejoin="round"/>
<path d="M49.195 12.3974C48.4247 11.4264 47.0144 11.2637 46.0434 12.034C45.0724 12.8042 44.9097 14.2146 45.68 15.1855C46.4502 16.1565 47.8606 16.3192 48.8315 15.549C49.7971 14.7787 49.9598 13.3684 49.195 12.3974Z" fill="#605575" stroke="#605575" stroke-miterlimit="10" stroke-linecap="round" stroke-linejoin="round"/>
<path d="M50.1173 18.6353C49.3037 17.6101 47.8065 17.4365 46.7813 18.2502C45.7561 19.0638 45.5825 20.5556 46.3962 21.5862C47.2098 22.6114 48.707 22.785 49.7322 21.9713C50.7628 21.1577 50.9364 19.6605 50.1173 18.6353Z" fill="#FFF9EF" stroke="#FFF9EF" stroke-miterlimit="10" stroke-linecap="round" stroke-linejoin="round"/>
<path d="M51.2077 25.3619C50.394 24.3367 48.8969 24.1631 47.8716 24.9767C46.8464 25.7904 46.6728 27.2821 47.4865 28.3128C48.3002 29.338 49.7973 29.5116 50.8225 28.6979C51.8532 27.8788 52.0213 26.3871 51.2077 25.3619Z" fill="#FFF9EF" stroke="#FFF9EF" stroke-miterlimit="10" stroke-linecap="round" stroke-linejoin="round"/>
<path d="M57.4787 20.691C56.665 19.6658 55.1733 19.4922 54.1426 20.3058C53.1174 21.1195 52.9438 22.6112 53.7575 23.6419C54.5712 24.6671 56.0683 24.8407 57.0935 24.027C58.1187 23.2079 58.2923 21.7162 57.4787 20.691Z" fill="#605575" stroke="#605575" stroke-miterlimit="10" stroke-linecap="round" stroke-linejoin="round"/>
<path d="M65.952 7.46094C65.952 7.46094 60.2834 17.5287 64.3463 26.403" stroke="#592F72" stroke-miterlimit="10" stroke-linecap="round" stroke-linejoin="round"/>
<path d="M65.453 3.63085L66.9827 1L66.9989 3.3976L68.8107 2.06319L68.5449 4.29805L70.6387 3.12638L69.109 5.75723C69.6786 6.89093 69.6895 8.28501 69.0006 9.46211C67.9211 11.3173 65.5398 11.9465 63.69 10.867C61.8349 9.78758 61.2057 7.40625 62.2851 5.55652C62.9686 4.37399 64.1837 3.69594 65.453 3.63085Z" fill="#605575" stroke="#605575" stroke-miterlimit="10" stroke-linecap="round" stroke-linejoin="round"/>
<path d="M62.8765 37.5059C69.5422 37.5059 74.9458 32.1023 74.9458 25.4365C74.9458 18.7708 69.5422 13.3672 62.8765 13.3672C56.2108 13.3672 50.8071 18.7708 50.8071 25.4365C50.8071 32.1023 56.2108 37.5059 62.8765 37.5059Z" fill="#B994DA"/>
<path d="M62.8765 37.5059C69.5422 37.5059 74.9458 32.1023 74.9458 25.4365C74.9458 18.7708 69.5422 13.3672 62.8765 13.3672C56.2108 13.3672 50.8071 18.7708 50.8071 25.4365C50.8071 32.1023 56.2108 37.5059 62.8765 37.5059Z" stroke="#592F72" stroke-miterlimit="10" stroke-linecap="round" stroke-linejoin="round"/>
<path d="M61.564 13.4434C63.5222 22.4099 63.8043 29.5593 62.8821 37.5061C61.564 48.7944 64.7481 60.7661 64.7481 60.7661" stroke="#592F72" stroke-miterlimit="10" stroke-linecap="round" stroke-linejoin="round"/>
<path d="M63.099 23.0502L51.7891 20.6797" stroke="#592F72" stroke-miterlimit="10" stroke-linecap="round" stroke-linejoin="round"/>
<path d="M70.4652 16.0527L62.8765 21.0432" stroke="#592F72" stroke-miterlimit="10" stroke-linecap="round" stroke-linejoin="round"/>
<path d="M63.3429 26.7773L50.8125 25.4375" stroke="#592F72" stroke-miterlimit="10" stroke-linecap="round" stroke-linejoin="round"/>
<path d="M63.3864 29.5748L51.1978 28.4736" stroke="#592F72" stroke-miterlimit="10" stroke-linecap="round" stroke-linejoin="round"/>
<path d="M74.9134 26.3428L63.3647 30.7583" stroke="#592F72" stroke-miterlimit="10" stroke-linecap="round" stroke-linejoin="round"/>
<path d="M55.2064 36.0046C52.7708 34.4423 49.6789 40.1543 48.1817 43.3547C46.9883 45.9096 44.6233 48.2801 43.6903 49.1642C43.5764 48.6001 43.457 48.0305 43.3431 47.461C42.8766 45.1827 42.3884 42.8014 41.9491 40.2302C43.6089 39.5684 49.4239 37.019 50.677 33.3683C51.7239 30.3252 48.1275 29.8967 45.4261 34.6593C44.5745 36.1619 42.5186 37.6102 41.6236 38.1961C41.4229 36.8833 41.2385 35.5164 41.0811 34.0843C41.4175 33.0971 42.1009 31.7301 43.495 30.5747C46.0174 28.4863 49.9609 24.1848 46.9667 23.2029C44.3467 22.3404 42.0196 27.9168 40.734 30.3523C40.658 29.3054 40.5984 28.2205 40.5495 27.1085C40.5821 26.7885 40.8262 24.2444 41.3469 21.7763C41.9002 19.1346 42.8224 13.8349 39.5677 14.5727C36.5355 15.2616 39.4864 24.4017 39.6057 26.8861H39.6111C39.6274 27.2767 39.6437 27.6672 39.6599 28.0524C38.5859 25.9857 36.0798 21.6787 34.4037 22.8341C32.6841 24.0166 34.7129 26.8265 36.4324 28.329C37.642 29.3868 39.1284 30.9544 40.0017 32.6957C40.2621 35.3591 40.6038 37.8055 40.9889 40.0946C39.3236 37.1491 35.0438 30.0811 33.0964 31.3992C31.4202 32.5329 33.1832 35.9124 35.239 38.6463C36.8826 40.8323 40.2892 42.7526 41.7538 44.2497C41.9816 45.4105 42.2148 46.5388 42.4372 47.6454C42.6 48.4536 42.7627 49.251 42.9254 50.043C39.9095 48.0956 37.0345 42.6549 34.5339 42.0854C31.8867 41.4887 31.4474 44.0653 34.9949 46.9674C37.8699 49.3216 41.7863 50.7862 43.2889 51.9144C43.853 54.8925 44.325 57.865 44.5419 61.0655C44.5582 61.3096 44.7643 61.4994 45.0084 61.4994C45.0193 61.4994 45.0301 61.4994 45.041 61.4994C45.2959 61.4831 45.4912 61.2607 45.4749 61.0058C45.2525 57.7403 44.7752 54.7189 44.2002 51.692C45.7407 50.1569 48.2197 48.3506 50.5468 46.4195C53.1125 44.2768 57.5768 37.5234 55.2064 36.0046Z" fill="#FFF0D9"/>
<path d="M65.4206 23.7603C67.7368 22.2794 70.666 27.6984 72.0927 30.7361C73.2264 33.1608 75.4667 35.4119 76.3563 36.2473C76.4648 35.7103 76.5732 35.1733 76.6871 34.6308C77.132 32.4665 77.593 30.2099 78.0107 27.7689C76.4376 27.1397 70.9156 24.7204 69.7222 21.2596C68.7295 18.3738 72.1415 17.967 74.7072 22.4855C75.5155 23.9122 77.4683 25.2845 78.3199 25.8378C78.5098 24.5902 78.6834 23.2938 78.8352 21.9377C78.5152 20.9992 77.8643 19.7028 76.5407 18.6071C74.1431 16.6271 70.4057 12.5426 73.2481 11.6096C75.7379 10.7905 77.9456 16.0847 79.1661 18.3955C79.2366 17.4028 79.2963 16.3722 79.3397 15.3144C79.3126 15.0107 79.0739 12.5968 78.5857 10.2534C78.0595 7.74736 77.1862 2.71891 80.2727 3.41867C83.1476 4.0696 80.3541 12.7487 80.2347 15.1083H80.2293C80.213 15.4772 80.2022 15.8515 80.1805 16.2149C81.2003 14.2567 83.5762 10.1612 85.1655 11.2624C86.7983 12.3852 84.8726 15.0541 83.2399 16.4807C82.0899 17.4896 80.6795 18.9705 79.855 20.625C79.6109 23.1527 79.2854 25.4744 78.922 27.6496C80.5005 24.856 84.5634 18.146 86.4131 19.3936C88.0025 20.4731 86.3318 23.6789 84.379 26.2718C82.8167 28.3439 79.5892 30.1665 78.1952 31.5932C77.9782 32.6943 77.7612 33.7683 77.5442 34.8153C77.3869 35.5801 77.235 36.3395 77.0832 37.0935C79.9418 35.2438 82.6757 30.0797 85.0462 29.5427C87.5577 28.9732 87.9754 31.425 84.6122 34.1752C81.8837 36.41 78.168 37.7987 76.7414 38.8727C76.2044 41.6989 75.7596 44.5196 75.5534 47.5573C75.5372 47.7905 75.3419 47.9695 75.1141 47.9695C75.1032 47.9695 75.0924 47.9695 75.0815 47.9695C74.8374 47.9532 74.653 47.7417 74.6693 47.4976C74.8808 44.3948 75.331 41.5307 75.8789 38.6558C74.4197 37.1966 72.0601 35.4825 69.8524 33.649C67.4114 31.604 63.1695 25.2032 65.4206 23.7603Z" fill="#6ECBD2"/>
<path d="M95.1248 33.6328C90.0041 35.7917 84.7913 37.4245 81.7373 39.3013C81.7373 39.3013 81.9217 28.7074 90.4218 21.6068C98.9219 14.5063 109.955 14.2676 109.955 14.2676C109.955 14.2676 109.147 27.7202 95.1248 33.6328Z" fill="#592F72"/>
<path d="M82.2146 62.5341C82.2146 62.5341 70.2212 39.3935 97.1264 22.5615" stroke="#592F72" stroke-miterlimit="10" stroke-linecap="round" stroke-linejoin="round"/>
<path d="M95.1248 33.6328C90.0041 35.7917 84.7913 37.4245 81.7373 39.3013C81.7373 39.3013 81.9217 28.7074 90.4218 21.6068C98.9219 14.5063 109.955 14.2676 109.955 14.2676" stroke="#592F72" stroke-miterlimit="10" stroke-linecap="round" stroke-linejoin="round"/>
<path d="M80.0446 57.459C84.7579 52.7457 84.7579 45.1039 80.0446 40.3906C75.3313 35.6772 67.6895 35.6772 62.9761 40.3906C58.2628 45.1039 58.2628 52.7457 62.9761 57.459C67.6895 62.1724 75.3313 62.1724 80.0446 57.459Z" fill="#FFF0D9"/>
<path d="M80.0446 57.459C84.7579 52.7457 84.7579 45.1039 80.0446 40.3906C75.3313 35.6772 67.6895 35.6772 62.9761 40.3906C58.2628 45.1039 58.2628 52.7457 62.9761 57.459C67.6895 62.1724 75.3313 62.1724 80.0446 57.459Z" stroke="#592F72" stroke-miterlimit="10" stroke-linecap="round" stroke-linejoin="round"/>
<path d="M72.8253 36.9268C70.867 45.8933 70.585 53.0427 71.5071 60.9895C72.8253 72.2778 69.6411 84.2495 69.6411 84.2495" stroke="#592F72" stroke-miterlimit="10" stroke-linecap="round" stroke-linejoin="round"/>
<path d="M71.2954 46.5326L82.5999 44.1621" stroke="#592F72" stroke-miterlimit="10" stroke-linecap="round" stroke-linejoin="round"/>
<path d="M63.9233 39.541L71.5121 44.5315" stroke="#592F72" stroke-miterlimit="10" stroke-linecap="round" stroke-linejoin="round"/>
<path d="M71.0459 50.2646L83.5818 48.9248" stroke="#592F72" stroke-miterlimit="10" stroke-linecap="round" stroke-linejoin="round"/>
<path d="M71.002 53.064L83.1906 51.9629" stroke="#592F72" stroke-miterlimit="10" stroke-linecap="round" stroke-linejoin="round"/>
<path d="M59.4756 49.8311L71.0242 54.2411" stroke="#592F72" stroke-miterlimit="10" stroke-linecap="round" stroke-linejoin="round"/>
<path d="M33.693 14.7773C33.693 14.7773 34.4362 26.3043 26.9233 32.5424" stroke="#592F72" stroke-miterlimit="10" stroke-linecap="round" stroke-linejoin="round"/>
<path d="M35.8031 11.544L35.5644 8.51172L34.5121 10.6652L33.4597 8.67445L32.7275 10.8008L31.3497 8.83719L31.5883 11.8694C30.5794 12.6451 29.9719 13.8928 30.0803 15.2543C30.2485 17.3915 32.1199 18.9917 34.2571 18.8236C36.3944 18.6554 37.9946 16.784 37.8264 14.6468C37.7179 13.2906 36.9205 12.1515 35.8031 11.544Z" fill="#FFF9EF" stroke="#FFF9EF" stroke-miterlimit="10" stroke-linecap="round" stroke-linejoin="round"/>
<path d="M53.2043 51.2459C53.2043 51.2459 62.0353 47.042 65.0079 37.2075C66.7654 31.3925 65.4147 24.4004 64.0315 19.334C64.0315 19.334 55.347 25.7945 52.2442 34.2349C49.136 42.6699 53.2043 51.2459 53.2043 51.2459Z" fill="#6ECBD2"/>
<path d="M59.6325 31.7832C58.233 40.9668 49.1362 56.2691 49.1362 71.4846" stroke="#592F72" stroke-miterlimit="10" stroke-linecap="round" stroke-linejoin="round"/>
<path d="M53.2043 51.2459C53.2043 51.2459 62.0353 47.042 65.0079 37.2075C66.7654 31.3925 65.4147 24.4004 64.0315 19.334C64.0315 19.334 55.347 25.7945 52.2442 34.2349C49.136 42.6699 53.2043 51.2459 53.2043 51.2459Z" stroke="#592F72" stroke-miterlimit="10" stroke-linecap="round" stroke-linejoin="round"/>
<path d="M32.2774 43.6033C32.2774 43.6033 23.4464 39.3994 20.4738 29.5649C18.7163 23.7499 20.067 16.7578 21.4502 11.6914C21.4502 11.6914 30.1347 18.1519 33.2429 26.5923C36.3511 35.0327 32.2774 43.6033 32.2774 43.6033Z" fill="#592F72"/>
<path d="M25.8496 24.1455C27.2491 33.3291 36.3459 48.6314 36.3459 63.8469" stroke="#592F72" stroke-miterlimit="10" stroke-linecap="round" stroke-linejoin="round"/>
<path d="M33.2376 26.5923C36.3403 35.0327 32.272 43.6033 32.272 43.6033C32.272 43.6033 23.441 39.3994 20.4684 29.5649C18.7109 23.7499 20.0616 16.7578 21.4448 11.6914" stroke="#592F72" stroke-miterlimit="10" stroke-linecap="round" stroke-linejoin="round"/>
<path d="M88.5449 49.7433C88.5449 49.7433 89.543 42.7024 98.7266 39.464C104.889 37.2943 111.083 39.0192 114.501 40.3916C114.501 40.3916 110.27 41.2161 107.08 46.288C104.395 50.557 95.3743 55.5637 88.5449 49.7433Z" fill="#6ECBD2"/>
<path d="M103.234 44.541C103.234 44.541 83.077 48.17 81.1514 58.3136" stroke="#592F72" stroke-miterlimit="10" stroke-linecap="round" stroke-linejoin="round"/>
<path d="M88.5449 49.7433C88.5449 49.7433 89.543 42.7024 98.7266 39.464C104.889 37.2943 111.083 39.0192 114.501 40.3916C114.501 40.3916 110.27 41.2161 107.08 46.288" stroke="#592F72" stroke-miterlimit="10" stroke-linecap="round" stroke-linejoin="round"/>
<path d="M5.17682 29.5764C2.67073 31.1549 1 33.9485 1 37.1326C1 42.058 4.99238 46.0504 9.91776 46.0504C14.8431 46.0504 18.8355 42.058 18.8355 37.1326C18.8355 32.2073 14.8431 28.2149 9.91776 28.2149C8.17652 28.2095 6.5492 28.7085 5.17682 29.5764Z" fill="#FFB5C3"/>
<path d="M5.17682 29.5764C2.67073 31.1549 1 33.9485 1 37.1326C1 42.058 4.99238 46.0504 9.91776 46.0504C14.8431 46.0504 18.8355 42.058 18.8355 37.1326C18.8355 32.2073 14.8431 28.2149 9.91776 28.2149C8.17652 28.2095 6.5492 28.7085 5.17682 29.5764Z" stroke="#592F72" stroke-miterlimit="10" stroke-linecap="round" stroke-linejoin="round"/>
<path d="M2.93115 31.5938C2.93115 31.5938 8.38813 40.1264 19.6275 45.4098C30.867 50.6932 30.3842 65.2849 30.3842 65.2849" stroke="#592F72" stroke-miterlimit="10" stroke-linecap="round" stroke-linejoin="round"/>
<path d="M1.41211 39.817L7.17828 36.6328" stroke="#592F72" stroke-miterlimit="10" stroke-linecap="round" stroke-linejoin="round"/>
<path d="M12.809 28.6924L9.19092 38.5214" stroke="#592F72" stroke-miterlimit="10" stroke-linecap="round" stroke-linejoin="round"/>
<path d="M16.6602 31.29L12.4834 41.1734" stroke="#592F72" stroke-miterlimit="10" stroke-linecap="round" stroke-linejoin="round"/>
<path d="M5.43164 44.8354L11.3605 40.3223" stroke="#592F72" stroke-miterlimit="10" stroke-linecap="round" stroke-linejoin="round"/>
<path d="M16.6115 37.3798C16.6115 37.3798 15.1144 29.8996 16.9749 26.6341C18.8355 23.3685 21.2494 26.1784 20.3706 29.8507C19.4973 33.5285 16.6115 37.3798 16.6115 37.3798Z" fill="#6ECBD2"/>
<path d="M16.6115 37.3798C16.6115 37.3798 12.6028 34.6025 9.0227 33.9136C5.83314 33.3007 3.3379 36.6096 8.02461 38.2966C11.3281 39.4899 16.6115 37.3798 16.6115 37.3798Z" fill="#6ECBD2"/>
<path d="M22.7899 42.6524C22.7899 42.6524 19.4593 41.3722 15.3204 42.5168C11.1816 43.6613 11.3606 45.408 13.3568 46.2596C15.3475 47.1113 19.8878 45.7009 22.7899 42.6524Z" fill="#6ECBD2"/>
<path d="M22.79 42.6525C22.79 42.6525 22.4483 39.4793 22.9202 36.0076C23.5386 31.462 27.3791 31.1473 27.4821 35.0692C27.5852 39.2514 22.79 42.6525 22.79 42.6525Z" fill="#6ECBD2"/>
<path d="M29.7225 49.7416C29.7225 49.7416 29.2234 45.76 31.1545 42.3535C33.0856 38.9415 36.4054 40.6285 34.5665 44.5233C32.95 47.9515 29.7225 49.7416 29.7225 49.7416Z" fill="#6ECBD2"/>
<path d="M29.7225 49.7413C29.7225 49.7413 27.4714 52.7736 22.5785 52.8224C17.7237 52.8766 18.5265 49.7142 21.8354 49.0578C25.1497 48.4069 29.7225 49.7413 29.7225 49.7413Z" fill="#6ECBD2"/>
<path d="M10.8508 28.1802C10.8508 28.1802 7.64498 24.2638 6.45703 20.586C4.8297 15.5684 9.08246 13.6102 10.9268 17.391C12.7711 21.1719 10.8508 28.1802 10.8508 28.1802Z" fill="#6ECBD2"/>
<path d="M16.6115 37.3798C16.6115 37.3798 15.1144 29.8996 16.9749 26.6341C18.8355 23.3685 21.2494 26.1784 20.3706 29.8507C19.4973 33.5285 16.6115 37.3798 16.6115 37.3798Z" stroke="#592F72" stroke-miterlimit="10" stroke-linecap="round" stroke-linejoin="round"/>
<path d="M16.6115 37.3798C16.6115 37.3798 12.6028 34.6025 9.0227 33.9136C5.83314 33.3007 3.3379 36.6096 8.02461 38.2966C11.3281 39.4899 16.6115 37.3798 16.6115 37.3798Z" stroke="#592F72" stroke-miterlimit="10" stroke-linecap="round" stroke-linejoin="round"/>
<path d="M22.7899 42.6524C22.7899 42.6524 19.4593 41.3722 15.3204 42.5168C11.1816 43.6613 11.3606 45.408 13.3568 46.2596C15.3475 47.1113 19.8878 45.7009 22.7899 42.6524Z" stroke="#592F72" stroke-miterlimit="10" stroke-linecap="round" stroke-linejoin="round"/>
<path d="M22.79 42.6526C22.79 42.6526 22.4483 39.4793 22.9202 36.0076C23.5386 31.462 27.3791 31.1473 27.4821 35.0692C27.5852 39.2514 22.79 42.6526 22.79 42.6526Z" stroke="#592F72" stroke-miterlimit="10" stroke-linecap="round" stroke-linejoin="round"/>
<path d="M29.7225 49.7416C29.7225 49.7416 29.2234 45.76 31.1545 42.3535C33.0856 38.9415 36.4054 40.6285 34.5665 44.5233C32.95 47.9515 29.7225 49.7416 29.7225 49.7416Z" stroke="#592F72" stroke-miterlimit="10" stroke-linecap="round" stroke-linejoin="round"/>
<path d="M29.7225 49.7413C29.7225 49.7413 27.4714 52.7736 22.5785 52.8224C17.7237 52.8766 18.5265 49.7142 21.8354 49.0578C25.1497 48.4069 29.7225 49.7413 29.7225 49.7413Z" stroke="#592F72" stroke-miterlimit="10" stroke-linecap="round" stroke-linejoin="round"/>
<path d="M10.8508 28.1802C10.8508 28.1802 7.64498 24.2638 6.45703 20.586C4.8297 15.5684 9.08246 13.6102 10.9268 17.391C12.7711 21.1719 10.8508 28.1802 10.8508 28.1802Z" stroke="#592F72" stroke-miterlimit="10" stroke-linecap="round" stroke-linejoin="round"/>
<path d="M34.1486 60.5532C32.7003 50.198 25.9143 45.2889 17.8102 38.4704C14.1541 35.3947 12.158 31.4783 10.8561 28.1802C9.48913 24.714 8.75684 19.832 8.75684 19.832" stroke="#592F72" stroke-miterlimit="10" stroke-linecap="round" stroke-linejoin="round"/>
<path d="M16.6111 37.3793C11.8376 37.0321 8.94092 36.251 8.94092 36.251" stroke="#592F72" stroke-miterlimit="10" stroke-linecap="round" stroke-linejoin="round"/>
<path d="M18.0868 29.3086C18.0868 29.3086 17.6799 33.9194 16.6113 37.3856" stroke="#592F72" stroke-miterlimit="10" stroke-linecap="round" stroke-linejoin="round"/>
<path d="M15.4233 44.1766C15.4233 44.1766 19.3127 44.0844 22.7897 42.6523" stroke="#592F72" stroke-miterlimit="10" stroke-linecap="round" stroke-linejoin="round"/>
<path d="M25.0954 35.7305C25.0954 35.7305 24.732 40.1731 22.79 42.652" stroke="#592F72" stroke-miterlimit="10" stroke-linecap="round" stroke-linejoin="round"/>
<path d="M22.7842 50.9573C22.7842 50.9573 27.1671 50.8271 29.722 49.7422" stroke="#592F72" stroke-miterlimit="10" stroke-linecap="round" stroke-linejoin="round"/>
<path d="M32.3801 44.2041C32.3801 44.2041 31.5502 47.833 29.7222 49.7424" stroke="#592F72" stroke-miterlimit="10" stroke-linecap="round" stroke-linejoin="round"/>
<path d="M67.3413 48.9316C67.3413 48.9316 70.0806 60.1548 63.7666 67.6025" stroke="#592F72" stroke-miterlimit="10" stroke-linecap="round" stroke-linejoin="round"/>
<path d="M68.8542 45.383L68.0894 42.4375L67.4276 44.7429L66.0444 42.9691L65.6972 45.1931L63.9994 43.5007L64.7642 46.4462C63.9072 47.3846 63.522 48.7244 63.8638 50.0425C64.4008 52.1201 66.5218 53.3677 68.5993 52.8307C70.6769 52.2937 71.9245 50.1727 71.3875 48.0952C71.0457 46.7662 70.0585 45.7844 68.8542 45.383Z" fill="#FFF9EF" stroke="#FFF9EF" stroke-miterlimit="10" stroke-linecap="round" stroke-linejoin="round"/>
<path d="M37.5493 53.0742V62.5127" stroke="#592F72" stroke-miterlimit="10" stroke-linecap="round" stroke-linejoin="round"/>
<path d="M39.665 48.7775V45.7344L38.4445 47.8011L37.5495 45.7344L36.6544 47.8011L35.4339 45.7344V48.7775C34.3708 49.4718 33.6602 50.6706 33.6602 52.0376C33.6602 54.1856 35.4014 55.9215 37.544 55.9215C39.6921 55.9215 41.4279 54.1802 41.4279 52.0376C41.4334 50.6706 40.7282 49.4718 39.665 48.7775Z" fill="#FFF9EF" stroke="#FFF9EF" stroke-miterlimit="10" stroke-linecap="round" stroke-linejoin="round"/>
<path d="M84.319 49.0127C84.319 49.0127 80.9667 50.499 79.3882 56.8401" stroke="#592F72" stroke-miterlimit="10" stroke-linecap="round" stroke-linejoin="round"/>
<path d="M88.5175 47.6399L90.6656 45.4918L88.3439 46.0885L89.1738 43.9946L87.08 44.8246L87.6767 42.5029L85.5286 44.651C84.2864 44.3852 82.9357 44.7378 81.9702 45.7033C80.4513 47.2222 80.4513 49.6794 81.9702 51.1983C83.489 52.7171 85.9463 52.7171 87.4651 51.1983C88.4307 50.2273 88.7833 48.8821 88.5175 47.6399Z" fill="#605575" stroke="#605575" stroke-miterlimit="10" stroke-linecap="round" stroke-linejoin="round"/>
<path d="M118.189 143.456C114.11 117.337 89.5049 117.917 91.8374 90.6325C93.2531 74.0934 87.5955 61.9264 82.9196 54.9072C55.7486 61.5305 32.2663 59.3553 20.4736 56.5888C19.4592 61.2809 18.3038 71.2348 18.7269 76.8762C20.7069 103.461 41.7428 98.3298 31.7076 130.611C26.7388 146.58 25.0247 175.758 65.019 183.569C105.013 191.38 122.274 169.574 118.189 143.456Z" fill="#592F72"/>
<path d="M79.5346 97.9556C81.3355 98.2431 83.5215 98.037 85.4255 96.1113C90.7794 90.676 88.371 80.093 80.8798 79.7892C74.5821 79.5342 78.1405 89.1029 73.3616 89.1734C70.5572 89.2168 68.7834 78.5633 68.7834 78.5633C51.8157 78.0371 37.8261 64.4814 37.8261 64.4814C33.8012 73.5782 24.0535 76.3121 24.0535 76.3121C22.6377 83.7382 22.2526 93.5347 26.1962 103.396C34.2406 123.51 55.9275 120.364 55.9275 120.364V150.887C55.9275 157.407 61.2109 162.691 67.731 162.691C74.2512 162.691 79.5346 157.407 79.5346 150.887V113.692C79.5346 105.414 79.5346 97.9556 79.5346 97.9556Z" fill="#FFD3DB"/>
<path d="M55.9272 130.605C69.0869 126.368 69.0435 116.518 69.0435 116.518C69.0435 116.518 62.7458 119.843 55.9272 120.363V130.605Z" fill="#FFB5C3"/>
<path d="M80.2778 85.7451L85.1761 88.4465" stroke="#592F72" stroke-width="2" stroke-miterlimit="10" stroke-linecap="round" stroke-linejoin="round"/>
<path d="M80.6738 90.6324L82.7297 87.0957" stroke="#592F72" stroke-width="2" stroke-miterlimit="10" stroke-linecap="round" stroke-linejoin="round"/>
<path d="M35.7645 84.1421C34.7013 82.4985 32.857 81.4082 30.7577 81.4082C28.6531 81.4082 26.8142 82.4985 25.751 84.1421" stroke="#592F72" stroke-width="2" stroke-miterlimit="10" stroke-linecap="round" stroke-linejoin="round"/>
<path d="M62.7078 84.1411C61.6446 82.4975 59.8003 81.4072 57.7011 81.4072C55.5964 81.4072 53.7575 82.4975 52.6943 84.1411" stroke="#592F72" stroke-width="2" stroke-miterlimit="10" stroke-linecap="round" stroke-linejoin="round"/>
<path d="M44.5149 81.4053C44.5149 83.4177 44.6885 85.6906 42.8984 86.8731C41.1083 88.0556 41.2439 90.2851 44.5203 90.3285" stroke="#592F72" stroke-width="2" stroke-miterlimit="10" stroke-linecap="round" stroke-linejoin="round"/>
<path d="M37.4736 102.486C37.4736 102.486 45.6048 107.384 53.8717 101.916" stroke="#592F72" stroke-width="2" stroke-miterlimit="10" stroke-linecap="round" stroke-linejoin="round"/>
<path d="M66.1959 110.464C69.8478 110.464 72.8083 107.504 72.8083 103.852C72.8083 100.2 69.8478 97.2393 66.1959 97.2393C62.544 97.2393 59.5835 100.2 59.5835 103.852C59.5835 107.504 62.544 110.464 66.1959 110.464Z" fill="#FFB5C3"/>
<path d="M25.095 97.2344C24.8129 97.2344 24.5417 97.2561 24.2705 97.2886C24.7479 99.3065 25.3771 101.352 26.1907 103.397C27.0424 105.534 28.0567 107.405 29.1742 109.043C30.7147 107.834 31.7074 105.957 31.7074 103.841C31.7074 100.196 28.7457 97.2344 25.095 97.2344Z" fill="#FFB5C3"/>
<path d="M28.0181 53.2915C28.3265 49.229 24.7989 45.6489 20.1389 45.2951C15.479 44.9413 11.4514 47.9479 11.1429 52.0104C10.8345 56.0729 14.3621 59.653 19.022 60.0068C23.682 60.3606 27.7096 57.3541 28.0181 53.2915Z" fill="#FFF0D9"/>
<path d="M28.0181 53.2915C28.3265 49.229 24.7989 45.6489 20.1389 45.2951C15.479 44.9413 11.4514 47.9479 11.1429 52.0104C10.8345 56.0729 14.3621 59.653 19.022 60.0068C23.682 60.3606 27.7096 57.3541 28.0181 53.2915Z" stroke="#592F72" stroke-miterlimit="10" stroke-linecap="round" stroke-linejoin="round"/>
<path d="M11.1431 52.0052C11.1431 52.0052 42.0569 49.7812 44.8505 68.8698" stroke="#592F72" stroke-miterlimit="10" stroke-linecap="round" stroke-linejoin="round"/>
<path d="M15.1572 46.2764L19.4208 52.1456" stroke="#592F72" stroke-miterlimit="10" stroke-linecap="round" stroke-linejoin="round"/>
<path d="M23.7227 52.6611L19.5947 45.2676" stroke="#592F72" stroke-miterlimit="10" stroke-linecap="round" stroke-linejoin="round"/>
<path d="M24.8183 52.8467L21.9434 59.7791" stroke="#592F72" stroke-miterlimit="10" stroke-linecap="round" stroke-linejoin="round"/>
<path d="M20.5604 52.2549L17.0508 59.643" stroke="#592F72" stroke-miterlimit="10" stroke-linecap="round" stroke-linejoin="round"/>
<path d="M16.1443 51.9619L11.6963 55.1678" stroke="#592F72" stroke-miterlimit="10" stroke-linecap="round" stroke-linejoin="round"/>
<path d="M53.6605 39.6748C53.6605 39.6748 49.3643 50.7623 49.0117 64.5512" stroke="#592F72" stroke-miterlimit="10" stroke-linecap="round" stroke-linejoin="round"/>
<path d="M59.5301 43.4385C59.5301 43.4385 55.3424 46.3731 51.209 48.0167" stroke="#592F72" stroke-miterlimit="10" stroke-linecap="round" stroke-linejoin="round"/>
<path d="M58.9492 50.4043C58.9492 50.4043 54.5066 53.2955 49.9609 54.3641" stroke="#592F72" stroke-miterlimit="10" stroke-linecap="round" stroke-linejoin="round"/>
<path d="M57.7018 55.4769C57.7018 55.4769 54.957 54.4408 53.1182 53.3613" stroke="#592F72" stroke-miterlimit="10" stroke-linecap="round" stroke-linejoin="round"/>
<path d="M52.4238 58.4492L49.1528 61.5574" stroke="#592F72" stroke-miterlimit="10" stroke-linecap="round" stroke-linejoin="round"/>
<path d="M45.8984 54.1475C45.8984 54.1475 47.8946 57.017 49.4243 58.4328" stroke="#592F72" stroke-miterlimit="10" stroke-linecap="round" stroke-linejoin="round"/>
<path d="M48.1875 49.6445C48.1875 49.6445 49.3429 51.5431 50.2271 52.7961" stroke="#592F72" stroke-miterlimit="10" stroke-linecap="round" stroke-linejoin="round"/>
<path d="M45.9414 42.7988C45.9414 42.7988 48.0895 46.482 50.9807 49.0152" stroke="#592F72" stroke-miterlimit="10" stroke-linecap="round" stroke-linejoin="round"/>
<path d="M49.8096 43.9873C49.8096 43.9873 50.3195 46.0377 51.3827 47.3016" stroke="#592F72" stroke-miterlimit="10" stroke-linecap="round" stroke-linejoin="round"/>
<path d="M49.1421 47.1709C49.1421 47.1709 46.9126 47.6103 44.1787 47.6971" stroke="#592F72" stroke-miterlimit="10" stroke-linecap="round" stroke-linejoin="round"/>
<path d="M58.0488 42.3973C58.6238 41.5782 59.752 41.3829 60.5657 41.9579C61.3848 42.5329 61.5801 43.6612 61.0051 44.4748C60.4301 45.2939 59.3018 45.4892 58.4881 44.9142C57.6745 44.3446 57.4792 43.2164 58.0488 42.3973Z" fill="#605575" stroke="#605575" stroke-miterlimit="10" stroke-linecap="round" stroke-linejoin="round"/>
<path d="M57.8212 49.2166C58.3962 48.3975 59.5245 48.2022 60.3381 48.7772C61.1572 49.3522 61.3525 50.4805 60.7775 51.2942C60.2025 52.1133 59.0742 52.3085 58.2606 51.7335C57.4415 51.164 57.2462 50.0357 57.8212 49.2166Z" fill="#FFF9EF" stroke="#FFF9EF" stroke-miterlimit="10" stroke-linecap="round" stroke-linejoin="round"/>
<path d="M44.4604 41.7576C45.0354 40.9385 46.1636 40.7433 46.9773 41.3182C47.7964 41.8932 47.9917 43.0215 47.4167 43.8352C46.8417 44.6543 45.7134 44.8495 44.8998 44.2746C44.0861 43.705 43.8908 42.5767 44.4604 41.7576Z" fill="#FFF9EF" stroke="#FFF9EF" stroke-miterlimit="10" stroke-linecap="round" stroke-linejoin="round"/>
<path d="M48.6317 43.7593C49.3043 42.8046 50.6224 42.5713 51.5771 43.244C52.5318 43.9166 52.7651 45.2347 52.0925 46.1894C51.4198 47.1441 50.1017 47.3774 49.147 46.7048C48.1923 46.0321 47.959 44.714 48.6317 43.7593Z" fill="#605575" stroke="#605575" stroke-miterlimit="10" stroke-linecap="round" stroke-linejoin="round"/>
<path d="M42.703 46.6561C43.278 45.837 44.4063 45.6417 45.22 46.2167C46.039 46.7917 46.2343 47.92 45.6593 48.7336C45.0843 49.5527 43.9561 49.748 43.1424 49.173C42.3233 48.598 42.128 47.4697 42.703 46.6561Z" fill="#FFF9EF" stroke="#FFF9EF" stroke-miterlimit="10" stroke-linecap="round" stroke-linejoin="round"/>
<path d="M56.2211 54.4344C56.796 53.6153 57.9243 53.42 58.738 53.995C59.5571 54.57 59.7523 55.6983 59.1774 56.5119C58.6024 57.331 57.4741 57.5263 56.6604 56.9513C55.8468 56.3818 55.6461 55.2535 56.2211 54.4344Z" fill="#FFF9EF" stroke="#FFF9EF" stroke-miterlimit="10" stroke-linecap="round" stroke-linejoin="round"/>
<path d="M51.8431 38.2537C52.4181 37.4346 53.5464 37.2394 54.3601 37.8143C55.1792 38.3893 55.3744 39.5176 54.7994 40.3313C54.2245 41.1504 53.0962 41.3456 52.2825 40.7707C51.4688 40.1957 51.2681 39.0674 51.8431 38.2537Z" fill="#FFF9EF" stroke="#FFF9EF" stroke-miterlimit="10" stroke-linecap="round" stroke-linejoin="round"/>
<path d="M46.7064 48.6082C47.2814 47.7891 48.4097 47.5938 49.2233 48.1688C50.0424 48.7438 50.2377 49.8721 49.6627 50.6858C49.0877 51.5049 47.9594 51.7001 47.1458 51.1251C46.3321 50.5502 46.1314 49.4219 46.7064 48.6082Z" fill="#FFF9EF" stroke="#FFF9EF" stroke-miterlimit="10" stroke-linecap="round" stroke-linejoin="round"/>
<path d="M51.7461 44.0249C52.4567 43.0106 53.8562 42.7665 54.8706 43.4771C55.8849 44.1877 56.129 45.5872 55.4184 46.6015C54.7078 47.6159 53.3083 47.86 52.294 47.1494C51.2796 46.4388 51.0355 45.0393 51.7461 44.0249Z" fill="#FFF9EF" stroke="#FFF9EF" stroke-miterlimit="10" stroke-linecap="round" stroke-linejoin="round"/>
<path d="M51.1813 50.3066C51.9353 49.2326 53.4161 48.9722 54.4902 49.7262C55.5642 50.4802 55.8246 51.961 55.0706 53.0351C54.3166 54.1091 52.8357 54.3695 51.7617 53.6155C50.6876 52.8615 50.4273 51.3806 51.1813 50.3066Z" fill="#605575" stroke="#605575" stroke-miterlimit="10" stroke-linecap="round" stroke-linejoin="round"/>
<path d="M50.4816 57.082C51.2355 56.008 52.7164 55.7476 53.7905 56.5016C54.8645 57.2556 55.1249 58.7364 54.3709 59.8105C53.6169 60.8845 52.136 61.1449 51.062 60.3909C49.9879 59.6369 49.7276 58.156 50.4816 57.082Z" fill="#FFF9EF" stroke="#FFF9EF" stroke-miterlimit="10" stroke-linecap="round" stroke-linejoin="round"/>
<path d="M43.9557 52.7861C44.7097 51.7121 46.1905 51.4517 47.2646 52.2057C48.3386 52.9597 48.599 54.4405 47.845 55.5146C47.091 56.5886 45.6101 56.849 44.5361 56.095C43.4621 55.3356 43.2017 53.8547 43.9557 52.7861Z" fill="#605575" stroke="#605575" stroke-miterlimit="10" stroke-linecap="round" stroke-linejoin="round"/>
</svg>
