<svg width="375" height="667" viewBox="0 0 375 667" fill="none" xmlns="http://www.w3.org/2000/svg">
<defs>
<filter id="filter0_f_1266_3" x="-940" y="-719.999" width="2043.19" height="2044.92" filterUnits="userSpaceOnUse" color-interpolation-filters="sRGB">
<feFlood flood-opacity="0" result="BackgroundImageFix"/>
<feBlend mode="normal" in="SourceGraphic" in2="BackgroundImageFix" result="shape"/>
<feGaussianBlur stdDeviation="7.5" result="effect1_foregroundBlur_1266_3"/>
</filter>
<linearGradient id="paint0_linear_1266_3" x1="85.5" y1="-49.5" x2="375" y2="926.5" gradientUnits="userSpaceOnUse">
<stop stop-color="#AE80D6"/>
<stop offset="0.383333" stop-color="#D892AB"/>
<stop offset="1" stop-color="#E4C596"/>
</linearGradient>
<linearGradient id="paint1_linear_1266_3" x1="36.0987" y1="215.011" x2="44.2374" y2="465.356" gradientUnits="userSpaceOnUse">
<stop stop-color="#FFFAF2"/>
<stop offset="0.3727" stop-color="#FFF0D9" stop-opacity="0.6264"/>
<stop offset="0.7332" stop-color="#FFE9C7" stop-opacity="0.265"/>
<stop offset="0.9975" stop-color="#FFE6C1" stop-opacity="0"/>
</linearGradient>
<linearGradient id="paint2_linear_1266_3" x1="-10.915" y1="190.042" x2="26.7723" y2="437.667" gradientUnits="userSpaceOnUse">
<stop stop-color="#FFFAF2"/>
<stop offset="0.3727" stop-color="#FFF0D9" stop-opacity="0.6264"/>
<stop offset="0.7332" stop-color="#FFE9C7" stop-opacity="0.265"/>
<stop offset="0.9975" stop-color="#FFE6C1" stop-opacity="0"/>
</linearGradient>
<linearGradient id="paint3_linear_1266_3" x1="112.633" y1="275.937" x2="126.871" y2="543.662" gradientUnits="userSpaceOnUse">
<stop stop-color="#FFFAF2"/>
<stop offset="0.3727" stop-color="#FFF0D9" stop-opacity="0.6264"/>
</linearGradient>
<linearGradient id="paint4_linear_1266_3" x1="166" y1="459" x2="150" y2="600" gradientUnits="userSpaceOnUse">
<stop stop-color="#FFF0D9"/>
<stop offset="1" stop-color="#9C71BC"/>
</linearGradient>
<linearGradient id="paint5_linear_1266_3" x1="143.051" y1="527.599" x2="118.445" y2="688.237" gradientUnits="userSpaceOnUse">
<stop stop-color="#FFF0D9"/>
<stop offset="0.789731" stop-color="#A67ABD"/>
</linearGradient>
</defs>
<path d="M0 0H375V667H0V0Z" fill="url(#paint0_linear_1266_3)"/>
<g filter="url(#filter0_f_1266_3)">
<path d="M732.557 214.328L697.882 537.823C664.556 535.011 630.926 532.211 597.13 529.393C386.874 511.816 168.976 493.242 -35.408 465.524C-241.917 437.512 -453.537 413.175 -635.831 335.602C-603.71 313.504 -541.879 314.746 -505.745 338.194C-497.657 325.609 -465.099 322.686 -450.056 333.549C-436.475 305.553 -393.843 282.838 -349.168 280.677C-304.496 278.538 -256.524 294.652 -230.039 320.731C-208.475 309.724 -172.21 309.947 -148.13 321.377C-127.628 302.994 -88.6603 298.434 -62.5886 316.423C-49.4827 285.315 -9.8516 261.049 38.2618 256.039C86.3753 251.029 140.339 264.992 174.122 291.205C190.236 286.094 217.163 292.02 230.409 301.417C267.903 272.565 350.783 268.868 401.231 293.314C411.449 268.086 451.928 249.431 489.639 242.769C527.385 236.089 571.519 243.054 603.822 260.751C614.547 240.538 650.627 228.026 680.197 219.978C696.443 215.529 714.434 213.659 732.557 214.328Z" fill="url(#paint1_linear_1266_3)"/>
<path d="M680.576 188.248L684.4 513.574C650.976 514.722 617.251 515.919 583.358 517.117C372.499 524.529 153.933 531.853 -52.2942 528.501C-260.667 525.106 -473.68 525.966 -663.868 470.496C-634.586 444.754 -573.042 438.675 -534.389 457.686C-527.846 444.232 -495.861 437.479 -479.64 446.488C-469.465 417.082 -429.818 389.485 -385.713 382.056C-341.607 374.649 -292.066 384.977 -262.683 407.74C-242.571 394.261 -206.534 390.193 -181.272 398.695C-163.088 378.017 -124.933 368.88 -96.9166 383.66C-87.5816 351.22 -51.0982 322.438 -3.91486 311.773C43.2685 301.108 98.5053 308.592 135.15 330.625C150.548 323.645 177.986 326.344 192.25 334.109C226.069 301.026 307.931 287.553 360.916 305.862C368.079 279.603 406.067 256.291 442.725 245.217C479.416 234.12 524.065 235.817 558.234 249.57C566.493 228.23 600.84 211.539 629.251 200.05C644.857 193.712 662.501 189.727 680.576 188.248Z" fill="url(#paint2_linear_1266_3)" fill-opacity="0.7"/>
<path d="M616.117 272.686L561.541 620.947C537.709 618.041 513.656 615.149 489.484 612.238C339.108 594.083 183.299 574.881 38.0927 545.79C-108.623 516.39 -259.368 490.963 -384.059 408.141C-358.825 384.243 -314.245 385.356 -290.266 410.46C-283.271 396.887 -259.47 393.623 -249.588 405.26C-237.217 375.082 -204.329 350.483 -171.84 347.997C-139.355 345.533 -106.149 362.701 -89.3839 390.671C-72.7921 378.748 -46.599 378.856 -30.2365 391.07C-13.7397 371.213 14.8434 366.164 32.0477 385.43C44.3589 351.905 75.2191 325.648 110.454 320.082C145.689 314.517 183.422 329.348 205.45 357.436C217.564 351.878 236.487 358.157 245.204 368.222C274.938 337.037 335.184 332.759 369.419 358.885C379.106 331.699 410.067 311.476 437.933 304.171C465.827 296.846 497.093 304.182 518.828 323.11C528.424 301.319 555.646 287.723 577.754 278.955C589.903 274.109 603.078 272.031 616.117 272.686Z" fill="url(#paint3_linear_1266_3)"/>
</g>
<path d="M-717 715.524H1492.44C1476.44 656.109 1337.55 573.103 1123.6 605.975C1030.88 620.227 934.636 535.804 831.805 545.473C686.608 559.142 701.52 599.762 540.614 599.432C357.516 599.063 249.909 512.756 80.8483 521.474C-66.5627 529.066 -101.28 587.51 -282.825 590.947C-403.363 593.238 -490.059 484 -614.267 484C-649.663 484 -687.273 490.427 -717 498.329L-717 715.524Z" fill="url(#paint4_linear_1266_3)"/>
<path d="M-682.78 732.303L935.58 646.609C891.784 599.081 731.873 545.005 592.628 571.658C480.716 593.08 462.491 610.594 317.71 618.26C173.239 625.91 86.1404 542.741 -82.6686 565.183C-198.168 580.547 -249.259 633.928 -392.414 643.299C-487.455 649.541 -583.112 605.23 -656.482 609.115C-667.476 609.697 -678.355 610.609 -689.163 611.763L-682.78 732.303H-682.78Z" fill="url(#paint5_linear_1266_3)"/>
</svg>
