<svg width="375" height="667" viewBox="0 0 375 667" fill="none" xmlns="http://www.w3.org/2000/svg">
<defs>
<filter id="filter0_f_1269_5" x="-249" y="-469" width="1207.07" height="1213.58" filterUnits="userSpaceOnUse" color-interpolation-filters="sRGB">
<feFlood flood-opacity="0" result="BackgroundImageFix"/>
<feBlend mode="normal" in="SourceGraphic" in2="BackgroundImageFix" result="shape"/>
<feGaussianBlur stdDeviation="6.5" result="effect1_foregroundBlur_1269_5"/>
</filter>
<linearGradient id="paint0_linear_1269_5" x1="85.5" y1="-49.5" x2="375" y2="926.5" gradientUnits="userSpaceOnUse">
<stop stop-color="#E2BF8A"/>
<stop offset="0.417444" stop-color="#D790A9"/>
<stop offset="0.977749" stop-color="#A577CD"/>
</linearGradient>
<linearGradient id="paint1_linear_1269_5" x1="354.646" y1="211.826" x2="438.052" y2="58.9181" gradientUnits="userSpaceOnUse">
<stop stop-color="#FFFAF2"/>
<stop offset="0.3727" stop-color="#FFF0D9" stop-opacity="0.6264"/>
<stop offset="0.7332" stop-color="#FFE9C7" stop-opacity="0.265"/>
<stop offset="0.9975" stop-color="#FFE6C1" stop-opacity="0"/>
</linearGradient>
<linearGradient id="paint2_linear_1269_5" x1="332.44" y1="155.831" x2="425.034" y2="-5.98263" gradientUnits="userSpaceOnUse">
<stop stop-color="#FFFAF2"/>
<stop offset="0.3727" stop-color="#FFF0D9" stop-opacity="0.6264"/>
</linearGradient>
<linearGradient id="paint3_linear_1269_5" x1="166" y1="459" x2="150" y2="600" gradientUnits="userSpaceOnUse">
<stop stop-color="#FFF0D9"/>
<stop offset="1" stop-color="#9C71BC"/>
</linearGradient>
<linearGradient id="paint4_linear_1269_5" x1="143.051" y1="527.599" x2="118.445" y2="688.237" gradientUnits="userSpaceOnUse">
<stop stop-color="#FFF0D9"/>
<stop offset="0.789731" stop-color="#A67ABD"/>
</linearGradient>
<linearGradient id="paint5_linear_1269_5" x1="20.2746" y1="372" x2="20.2746" y2="440.691" gradientUnits="userSpaceOnUse">
<stop stop-color="#FFF0D9"/>
<stop offset="1" stop-color="#B994DA"/>
</linearGradient>
<linearGradient id="paint6_linear_1269_5" x1="371.596" y1="455.579" x2="417.651" y2="466.608" gradientUnits="userSpaceOnUse">
<stop stop-color="#FFF0D9"/>
<stop offset="1" stop-color="#B994DA"/>
</linearGradient>
<linearGradient id="paint7_linear_1269_5" x1="-25.6181" y1="573.035" x2="17.357" y2="584.169" gradientUnits="userSpaceOnUse">
<stop stop-color="#FFF0D9"/>
<stop offset="1" stop-color="#B994DA"/>
</linearGradient>
<linearGradient id="paint8_linear_1269_5" x1="192.438" y1="408.977" x2="192.438" y2="620.266" gradientUnits="userSpaceOnUse">
<stop stop-color="#FFF0D9"/>
<stop offset="1" stop-color="#B994DA"/>
</linearGradient>
</defs>
<path d="M0 0H375V667H0V0Z" fill="url(#paint0_linear_1269_5)"/>
<g filter="url(#filter0_f_1269_5)">
<path d="M-62.9999 -33.3711L71.8627 -215.022C90.8437 -201.584 110.012 -188.046 129.273 -174.438C249.086 -89.7578 373.127 -1.78379 485.845 86.9042C599.732 176.518 717.979 265.732 799.876 376.509C772.832 378.426 736.214 355.877 722.827 329.081C713.541 333.771 692.997 324.041 687.813 312.226C669.8 324.215 636.239 322.795 608.703 308.335C581.176 293.864 558.107 267.289 551.431 242.319C534.625 241.311 512.969 228.389 502.569 213.047C483.798 216.834 458.836 205.825 449.554 185.849C430.729 199.872 398.42 200.439 367.818 186.474C337.215 172.51 309.797 145.111 298.795 117.487C287.335 114.867 273.286 101.82 268.662 91.5174C236.016 95.5866 185.04 68.5746 163.426 36.1327C148.406 47.6493 117.567 44.555 92.617 35.2488C67.6391 25.9412 43.6447 6.2027 30.5257 -15.7951C16.9697 -7.46303 -9.06635 -12.6878 -29.6267 -18.2923C-40.9319 -21.3553 -52.3741 -26.579 -62.9999 -33.3711Z" fill="url(#paint1_linear_1269_5)"/>
<path d="M37 -32.0482L200.163 -214.986C212.994 -204.305 225.959 -193.548 238.987 -182.736C320.017 -115.445 403.828 -45.4949 477.715 26.2375C552.367 98.7195 630.872 170.398 672.518 265.797C648.765 270.25 623.134 252.796 618.583 229.087C609.38 234.383 594.241 227.318 592.853 216.793C574.249 229.765 545.759 231.743 525.836 220.95C505.924 210.145 492.992 187.596 493.737 164.933C479.548 165.646 464.282 155.709 459.325 142.405C442.2 147.79 423.594 139.967 420.802 122.223C400.971 137.174 373.041 140.885 350.353 130.856C327.666 120.827 311.207 97.9375 308.922 73.2214C299.747 71.903 291.057 61.1009 289.757 51.9335C260.627 58.9489 223.809 38.7403 213.651 10.5689C197.743 22.8042 172.028 22.9511 152.991 16.7164C133.93 10.483 118.425 -5.58932 112.858 -24.8428C99.0366 -15.7259 78.005 -18.0418 61.7809 -21.2516C52.855 -22.999 44.3728 -26.751 37 -32.0482Z" fill="url(#paint2_linear_1269_5)"/>
</g>
<path d="M-717 715.524H1492.44C1476.44 656.109 1337.55 573.103 1123.6 605.975C1030.88 620.227 934.636 535.804 831.805 545.473C686.608 559.142 701.52 599.762 540.614 599.432C357.516 599.063 249.909 512.756 80.8483 521.474C-66.5627 529.066 -101.28 587.51 -282.825 590.947C-403.363 593.238 -490.059 484 -614.267 484C-649.663 484 -687.273 490.427 -717 498.329L-717 715.524Z" fill="url(#paint3_linear_1269_5)"/>
<path d="M-682.78 732.303L935.58 646.609C891.784 599.081 731.873 545.005 592.628 571.658C480.716 593.08 462.491 610.594 317.71 618.26C173.239 625.91 86.1404 542.741 -82.6686 565.183C-198.168 580.547 -249.259 633.928 -392.414 643.299C-487.455 649.541 -583.112 605.23 -656.482 609.115C-667.476 609.697 -678.355 610.609 -689.163 611.763L-682.78 732.303H-682.78Z" fill="url(#paint4_linear_1269_5)"/>
<path opacity="0.75" d="M20.2746 440.691C39.2431 440.691 54.6201 425.314 54.6201 406.345C54.6201 387.377 39.2431 372 20.2746 372C1.30617 372 -14.0708 387.377 -14.0708 406.345C-14.0708 425.314 1.30617 440.691 20.2746 440.691Z" fill="url(#paint5_linear_1269_5)"/>
<path opacity="0.75" d="M417.651 466.608C420.697 453.891 412.856 441.112 400.138 438.066C387.42 435.02 374.642 442.861 371.596 455.579C368.55 468.297 376.391 481.075 389.109 484.121C401.826 487.167 414.605 479.326 417.651 466.608Z" fill="url(#paint6_linear_1269_5)"/>
<path opacity="0.75" d="M17.357 584.169C20.4317 572.302 13.3039 560.189 1.43668 557.115C-10.4306 554.04 -22.5434 561.168 -25.6181 573.035C-28.6928 584.902 -21.565 597.015 -9.69777 600.09C2.16947 603.164 14.2823 596.037 17.357 584.169Z" fill="url(#paint7_linear_1269_5)"/>
<path opacity="0.75" d="M362.819 620.266C368.773 604.307 372.005 587.229 372.005 569.481C372.005 480.84 291.61 408.977 192.438 408.977C93.2653 408.977 12.8704 480.84 12.8704 569.481C12.8704 587.229 16.1027 604.307 22.0562 620.266H362.819Z" fill="url(#paint8_linear_1269_5)"/>
<path d="M278.418 589.626C278.418 591.28 277.072 592.626 275.418 592.626C273.765 592.626 272.419 591.28 272.419 589.626C272.419 587.973 273.765 586.627 275.418 586.627C277.072 586.627 278.418 587.965 278.418 589.626Z" stroke="white" stroke-width="1.5" stroke-miterlimit="10"/>
</svg>
