<svg width="222" height="213" viewBox="0 0 222 213" fill="none" xmlns="http://www.w3.org/2000/svg">
<path d="M180.726 25.0332L216.203 25.0332C216.203 25.0332 213.068 19.3246 203.933 20.1555C195.213 20.9487 194.765 17.3444 190.336 16.9019C185.9 16.4595 182.204 19.8587 180.726 25.0332Z" fill="#E0E0E0"/>
<path d="M60.8325 125.099C60.8325 125.099 57.2767 127.02 62.4512 134.445C67.6257 141.869 70.9926 145.43 70.9926 145.43C70.9926 145.43 71.9692 147.184 70.4476 147.686C68.926 148.188 65.4134 148.112 64.9818 150.119C64.5339 152.197 66.2282 153.869 69.3739 155.105C72.5142 156.341 79.302 159.303 79.9117 159.573C80.5106 159.837 81.1851 160.625 80.2084 161.132C79.2264 161.639 71.6131 163.511 72.7138 167.073C73.8199 170.634 83.1383 172.641 84.1527 172.878C85.1671 173.116 85.4531 173.493 85.4477 174.033C85.4423 174.573 82.82 174.961 80.6779 175.582C78.5358 176.202 76.1563 177.297 76.9656 179.299C77.775 181.301 83.6347 184.932 96.5682 184.425L102.547 183.799L105.093 178.323C109.831 166.274 108.325 159.546 106.701 158.121C105.077 156.697 103.259 158.585 101.969 160.403C100.68 162.222 99.4495 164.569 98.9369 164.396C98.4243 164.224 98.1653 163.83 98.2733 162.794C98.3812 161.758 99.552 152.294 96.552 150.082C93.552 147.869 89.2786 154.447 88.4747 155.202C87.6707 155.963 87.1527 155.067 87.0988 154.409C87.0448 153.74 86.4782 146.358 86.3434 142.986C86.2085 139.614 85.1887 137.461 83.079 137.202C81.0448 136.948 79.9602 140.288 78.9836 141.562C78.007 142.83 76.6743 141.33 76.6743 141.33C76.6743 141.33 74.4134 136.975 69.1095 129.648C63.8001 122.321 60.7569 125.126 60.7569 125.126" fill="#EBEBEB"/>
<path d="M103.054 185.166C99.1741 179.77 92.4456 170.063 86.6237 161.754C80.8017 153.45 75.5301 145.939 71.6776 140.521C69.7513 137.818 68.1919 135.633 67.1128 134.111C66.5786 133.361 66.1632 132.773 65.8718 132.369C65.7369 132.174 65.629 132.023 65.5534 131.91C65.4833 131.807 65.4509 131.748 65.4509 131.748C65.4509 131.748 65.4941 131.797 65.5696 131.894C65.6506 132.002 65.7585 132.147 65.9042 132.342C66.2009 132.741 66.6272 133.324 67.1722 134.063C68.2729 135.563 69.8484 137.737 71.7855 140.441C75.665 145.836 80.9582 153.336 86.7748 161.64C92.5967 169.944 99.309 179.662 103.156 185.079" fill="#E0E0E0"/>
<path d="M69.8974 150.428C69.9028 150.417 70.0538 150.438 70.329 150.487C70.6042 150.535 70.9981 150.616 71.4891 150.724C72.4657 150.935 73.8038 151.264 75.2769 151.652C76.7283 152.041 78.0395 152.392 79.0431 152.661C79.4963 152.78 79.8794 152.877 80.187 152.958C80.4568 153.028 80.6078 153.071 80.6024 153.082C80.6024 153.093 80.446 153.077 80.1708 153.028C79.8956 152.98 79.5017 152.899 79.0107 152.785C78.0341 152.564 76.7013 152.219 75.2283 151.83C73.7769 151.453 72.4603 151.113 71.4567 150.848C71.0035 150.73 70.6204 150.633 70.3128 150.557C70.043 150.481 69.892 150.438 69.8974 150.428Z" fill="#E0E0E0"/>
<path d="M80.9529 152.646C80.9043 152.635 81.4601 149.84 82.1939 146.409C82.9277 142.972 83.5644 140.198 83.6184 140.209C83.6669 140.22 83.1166 143.015 82.3774 146.446C81.6436 149.884 81.0069 152.657 80.9529 152.646Z" fill="#E0E0E0"/>
<path d="M89.3163 165.799C89.3055 165.793 89.3756 165.648 89.5051 165.399C89.6562 165.113 89.8504 164.757 90.0771 164.336C90.5573 163.441 91.221 162.2 91.8954 160.802C92.5753 159.405 93.1472 158.121 93.5573 157.187C93.7515 156.75 93.9134 156.378 94.0429 156.081C94.1562 155.822 94.2264 155.676 94.2426 155.682C94.2533 155.687 94.2102 155.838 94.1131 156.108C94.0159 156.378 93.8756 156.766 93.6814 157.236C93.3037 158.185 92.7479 159.48 92.0681 160.883C91.3882 162.286 90.7084 163.522 90.1958 164.401C89.9368 164.844 89.7263 165.194 89.5699 165.437C89.4188 165.675 89.3325 165.81 89.3163 165.799Z" fill="#E0E0E0"/>
<path d="M78.8701 165.995C78.8701 165.984 79.0158 165.968 79.2802 165.946C79.5824 165.93 79.9547 165.908 80.3917 165.881C81.3306 165.833 82.6309 165.784 84.0662 165.741C85.5014 165.698 86.8018 165.666 87.7461 165.655C88.1831 165.655 88.5608 165.649 88.863 165.649C89.1274 165.655 89.273 165.66 89.273 165.671C89.273 165.682 89.1274 165.703 88.863 165.72C88.5608 165.736 88.1885 165.757 87.7514 165.784C86.8126 165.833 85.5122 165.881 84.0716 165.925C82.6363 165.968 81.336 166 80.3917 166.011C79.9547 166.011 79.577 166.016 79.2748 166.016C79.0212 166.016 78.8701 166.006 78.8701 165.995Z" fill="#E0E0E0"/>
<path d="M84.7786 178.545C84.7786 178.534 84.962 178.512 85.3019 178.485C85.6743 178.464 86.1545 178.431 86.7264 178.399C87.9297 178.334 89.5969 178.253 91.4369 178.178C93.2768 178.102 94.9441 178.043 96.1527 178.01C96.7301 178 97.2103 177.989 97.5826 177.983C97.9225 177.983 98.106 177.983 98.106 178C98.106 178.01 97.9225 178.032 97.5826 178.059C97.2103 178.081 96.7301 178.113 96.1581 178.145C94.9549 178.21 93.2876 178.291 91.4477 178.366C89.6077 178.442 87.9405 178.501 86.7372 178.534C86.1599 178.545 85.6796 178.555 85.3073 178.561C84.9674 178.561 84.7786 178.561 84.7786 178.545Z" fill="#E0E0E0"/>
<path d="M97.7878 177.924C97.777 177.918 97.858 177.735 98.0144 177.411C98.1871 177.055 98.4191 176.596 98.6889 176.041C99.2608 174.881 100.043 173.278 100.853 171.481C101.667 169.684 102.363 168.044 102.86 166.846C103.097 166.274 103.297 165.8 103.448 165.433C103.588 165.098 103.669 164.915 103.685 164.92C103.696 164.925 103.637 165.114 103.518 165.46C103.399 165.8 103.216 166.291 102.984 166.895C102.52 168.104 101.84 169.76 101.025 171.557C100.21 173.354 99.4119 174.956 98.8076 176.1C98.5054 176.672 98.2573 177.131 98.0792 177.449C97.9011 177.762 97.7986 177.929 97.7878 177.924Z" fill="#E0E0E0"/>
<path d="M147.962 98.2922C141.535 91.0889 142.156 80.6968 144.584 71.7939C144.989 70.3101 145.199 68.6914 146.224 67.5421C147.25 66.3982 149.122 65.891 150.314 66.8406C151.302 67.6284 151.48 69.0367 151.852 70.2561C152.343 71.8748 153.298 73.3479 154.572 74.4432C155.408 75.1662 156.514 75.7436 157.582 75.4522C159.045 75.0475 159.617 73.2939 159.962 71.8047C160.604 69.0259 161.241 66.2417 161.883 63.4629C162.228 61.9737 162.584 60.4467 163.383 59.1464C164.181 57.8406 165.514 56.7723 167.025 56.7075C168.536 56.6482 170.095 57.8784 170.046 59.4054C170.025 60.0421 169.755 60.641 169.647 61.2723C169.545 61.8982 169.669 62.6536 170.214 62.9665C170.769 63.2795 171.465 62.9989 172.01 62.6698C173.904 61.5313 175.404 59.837 176.84 58.1428C178.269 56.4485 179.683 54.7003 181.469 53.3891C183.255 52.078 185.489 51.2363 187.653 51.6194C189.816 52.0025 191.775 53.8586 191.818 56.0816C191.861 58.31 190.129 60.15 188.397 61.5367C185.823 63.5924 182.953 65.2651 179.91 66.4953C179.359 66.7165 178.766 66.9593 178.458 67.4665C177.897 68.3838 178.609 69.5924 179.51 70.1536C180.536 70.7849 181.766 70.9576 182.894 71.3676C184.021 71.7777 185.16 72.5925 185.338 73.7903C185.586 75.4576 183.935 76.7525 182.435 77.5026C179.43 79.0026 176.171 79.9792 172.852 80.3731C171.66 80.5134 170.424 80.5943 169.361 81.1554C168.293 81.7166 167.446 82.9306 167.732 84.1069C168.018 85.2832 169.307 85.9468 170.505 86.0008C171.703 86.0601 172.879 85.6824 174.072 85.526C176.3 85.24 178.912 86.0062 179.807 88.0835C180.395 89.4486 180.088 91.0889 179.322 92.3731C178.555 93.6573 177.39 94.6393 176.192 95.5188C172 98.589 167.063 100.693 161.926 101.217C156.778 101.735 152.273 101.136 147.962 98.2922Z" fill="#F5F5F5"/>
<path d="M149.264 99.1629C150.429 95.6827 149.21 97.4309 151.611 93.2223C154.006 89.0082 157.012 84.6053 160.314 80.1053C161.145 78.983 161.965 77.8769 162.775 76.7816C163.584 75.6916 164.388 74.6125 165.235 73.6089C166.929 71.5855 168.71 69.7725 170.453 68.0999C172.195 66.4272 173.911 64.9056 175.525 63.4919C177.143 62.0837 178.676 60.7995 180.122 59.688C183.008 57.4541 185.55 55.9326 187.336 54.9559C188.226 54.4649 188.933 54.1088 189.413 53.8714C189.645 53.7581 189.823 53.6718 189.963 53.607C190.088 53.5476 190.152 53.5207 190.152 53.5261C190.152 53.5315 190.093 53.5692 189.974 53.634C189.839 53.7041 189.661 53.8012 189.44 53.9254C188.971 54.1789 188.275 54.5513 187.39 55.0531C185.625 56.0567 183.111 57.5998 180.246 59.8444C178.811 60.9613 177.289 62.2509 175.681 63.67C174.073 65.0891 172.368 66.616 170.631 68.2887C168.899 69.9614 167.129 71.7743 165.445 73.7869C164.604 74.7905 163.805 75.8589 162.996 76.9488C162.186 78.0388 161.372 79.1503 160.541 80.2672C157.239 84.7618 154.233 89.1485 151.837 93.3464C149.431 97.5388 150.64 95.7636 149.453 99.2223" fill="#E0E0E0"/>
<path d="M165.315 73.6157C165.294 73.6157 165.299 73.3783 165.321 72.9466C165.342 72.515 165.391 71.8945 165.461 71.1283C165.601 69.5959 165.866 67.4862 166.173 65.1606C166.476 62.8351 166.713 60.7253 166.832 59.193C166.891 58.4268 166.934 57.8063 166.961 57.38C166.988 56.9483 167.01 56.7109 167.031 56.7109C167.053 56.7109 167.064 56.9483 167.069 57.38C167.08 57.8117 167.064 58.4322 167.031 59.2038C166.967 60.7415 166.762 62.862 166.454 65.193C166.152 67.4862 165.871 69.5635 165.661 71.1498C165.569 71.8675 165.494 72.4718 165.434 72.9574C165.375 73.3837 165.337 73.6157 165.315 73.6157Z" fill="#E0E0E0"/>
<path d="M185.317 74.5694C185.311 74.5909 185.031 74.5532 184.529 74.4776C184.027 74.4075 183.304 74.2942 182.403 74.1917C180.606 73.965 178.108 73.7384 175.34 73.6143C172.572 73.4902 170.069 73.4848 168.25 73.5334C167.344 73.5496 166.61 73.5873 166.103 73.6035C165.596 73.6251 165.315 73.6305 165.31 73.6089C165.31 73.5873 165.585 73.5496 166.092 73.4902C166.599 73.4363 167.333 73.3715 168.239 73.3283C170.058 73.2258 172.572 73.1988 175.346 73.3229C178.119 73.4524 180.623 73.7114 182.419 73.9866C183.32 74.1161 184.043 74.2564 184.54 74.3643C185.047 74.483 185.322 74.5532 185.317 74.5694Z" fill="#E0E0E0"/>
<path d="M151.933 92.9199C151.922 92.9199 151.895 92.8335 151.857 92.6555C151.814 92.445 151.76 92.1915 151.695 91.8839C151.555 91.2148 151.382 90.2382 151.177 89.035C150.773 86.6231 150.319 83.2724 149.866 79.5655C149.413 75.8587 148.992 72.5079 148.641 70.0906C148.469 68.9144 148.323 67.9486 148.215 67.2255C148.172 66.9126 148.134 66.659 148.102 66.4432C148.08 66.2651 148.069 66.168 148.08 66.168C148.091 66.168 148.118 66.2597 148.156 66.4324C148.199 66.6428 148.253 66.8964 148.318 67.2039C148.458 67.873 148.631 68.8496 148.836 70.0529C149.24 72.4648 149.693 75.8155 150.147 79.5223C150.6 83.2292 151.021 86.5745 151.372 88.9972C151.55 90.1735 151.69 91.1393 151.798 91.8623C151.841 92.1753 151.879 92.4343 151.911 92.6447C151.933 92.8281 151.938 92.9199 151.933 92.9199Z" fill="#E0E0E0"/>
<path d="M179.328 90.7461C179.328 90.7569 179.23 90.7731 179.052 90.7893C178.837 90.8109 178.572 90.8325 178.254 90.8595C177.52 90.9188 176.527 90.9997 175.319 91.0969C172.842 91.2965 169.421 91.6149 165.644 91.971C161.867 92.3271 158.441 92.6131 155.959 92.7641C154.718 92.8397 153.714 92.8882 153.018 92.9098C152.7 92.9152 152.43 92.926 152.22 92.9314C152.036 92.9314 151.939 92.926 151.939 92.9206C151.939 92.9098 152.036 92.8936 152.214 92.8774C152.43 92.8559 152.694 92.8343 153.013 92.8073C153.747 92.7479 154.739 92.667 155.948 92.5699C158.425 92.3703 161.845 92.0519 165.622 91.6958C169.399 91.3397 172.826 91.0537 175.308 90.9026C176.549 90.8271 177.552 90.7785 178.248 90.7569C178.572 90.7515 178.831 90.7407 179.047 90.7354C179.23 90.7354 179.328 90.7407 179.328 90.7461Z" fill="#E0E0E0"/>
<path d="M200.576 145.663C200.581 145.663 200.549 145.75 200.484 145.917C200.408 146.095 200.311 146.332 200.187 146.635C199.912 147.282 199.524 148.194 199.038 149.349C198.024 151.696 196.594 155.009 194.878 158.969L194.851 159.028L194.786 159.039C190.95 159.671 186.477 160.41 181.718 161.198C180.229 161.44 178.761 161.683 177.336 161.915L177.137 161.948L177.185 161.753C178.248 157.55 179.23 153.681 180.067 150.395L180.126 150.519C176.937 149.095 174.304 147.919 172.448 147.088C171.547 146.678 170.835 146.354 170.327 146.122C170.095 146.014 169.917 145.928 169.777 145.863C169.653 145.804 169.588 145.771 169.594 145.766C169.599 145.76 169.664 145.782 169.793 145.836C169.939 145.895 170.122 145.971 170.36 146.068C170.872 146.284 171.59 146.591 172.502 146.98C174.369 147.789 177.013 148.939 180.218 150.325L180.304 150.363L180.282 150.455C179.462 153.746 178.497 157.62 177.45 161.829L177.299 161.667C178.723 161.435 180.185 161.192 181.68 160.949C186.439 160.178 190.917 159.449 194.754 158.823L194.667 158.894C196.416 154.949 197.878 151.653 198.914 149.311C199.426 148.167 199.837 147.266 200.128 146.624C200.263 146.327 200.376 146.095 200.457 145.917C200.527 145.739 200.57 145.658 200.576 145.663Z" fill="#E0E0E0"/>
<path d="M178.873 160.359L178.517 161.304L179.089 162.129L178.086 162.081L177.476 162.879L177.212 161.908L176.262 161.579L177.104 161.029L177.125 160.02L177.913 160.651L178.873 160.359Z" fill="#E0E0E0"/>
<path d="M169.901 145.12L169.723 145.59L170.009 146L169.513 145.978L169.205 146.372L169.076 145.892L168.606 145.725L169.022 145.45L169.032 144.953L169.426 145.266L169.901 145.12Z" fill="#E0E0E0"/>
<path d="M195.244 158.375L195.066 158.844L195.352 159.254L194.856 159.227L194.548 159.627L194.419 159.146L193.949 158.979L194.365 158.704L194.375 158.202L194.769 158.515L195.244 158.375Z" fill="#E0E0E0"/>
<path d="M180.622 149.958L180.444 150.428L180.73 150.838L180.228 150.816L179.926 151.21L179.797 150.73L179.322 150.563L179.743 150.287L179.754 149.791L180.142 150.104L180.622 149.958Z" fill="#E0E0E0"/>
<path d="M201.186 145.196L201.008 145.666L201.294 146.076L200.792 146.049L200.49 146.448L200.355 145.968L199.885 145.8L200.306 145.525L200.317 145.023L200.706 145.336L201.186 145.196Z" fill="#E0E0E0"/>
<path d="M37.6421 184.456L65.8886 184.456C65.8886 184.456 63.3904 179.913 56.1224 180.572C49.1781 181.203 48.8274 178.338 45.2932 177.982C41.7644 177.631 38.8184 180.34 37.6421 184.456Z" fill="#E0E0E0"/>
<path d="M43.2532 73.2455L71.4997 73.2455C71.4997 73.2455 69.0015 68.7023 61.7335 69.3606C54.7892 69.9919 54.4385 67.1267 50.9043 66.7706C47.3701 66.4145 44.4294 69.1231 43.2532 73.2455Z" fill="#F5F5F5"/>
<path d="M186.714 92.8882L209.921 92.8882C209.921 92.8882 207.871 89.1544 201.892 89.6994C196.189 90.2173 195.898 87.8594 192.995 87.5734C190.097 87.2821 187.68 89.5051 186.714 92.8882Z" fill="#F5F5F5"/>
<path d="M140.371 138.697C141.525 129.999 135.406 122.823 127.766 118.512C120.126 114.201 111.261 112.755 102.822 110.359C94.8632 108.098 86.9477 104.796 81.0502 98.9903C75.1527 93.1846 71.6185 84.4597 73.739 76.4579C74.2732 74.4507 75.2228 72.4327 76.944 71.2726C78.6707 70.1125 81.3038 70.1449 82.5879 71.7744C85.329 75.2492 79.9872 81.4705 83.3325 84.368C84.0987 85.0316 85.1563 85.2798 85.9495 85.9111C88.0646 87.5946 87.3793 90.8752 87.6761 93.5623C88.2642 98.877 93.2499 102.568 98.1438 104.721C104.7 107.602 111.8 108.962 118.755 110.672C125.71 112.382 132.719 114.535 138.514 118.744C144.309 122.953 149.333 129.541 149.295 136.701C149.284 138.703 149.031 141.163 147.773 142.723C146.516 144.282 144.919 144.606 143.106 143.753C141.293 142.901 140.036 141.584 140.371 138.697Z" fill="#9C71BC"/>
<g opacity="0.8">
<path opacity="0.8" d="M140.371 138.697C141.525 129.999 135.406 122.823 127.766 118.512C120.126 114.201 111.261 112.755 102.822 110.359C94.8632 108.098 86.9477 104.796 81.0502 98.9903C75.1527 93.1846 71.6185 84.4597 73.739 76.4579C74.2732 74.4507 75.2228 72.4327 76.944 71.2726C78.6707 70.1125 81.3038 70.1449 82.5879 71.7744C85.329 75.2492 79.9872 81.4705 83.3325 84.368C84.0987 85.0316 85.1563 85.2798 85.9495 85.9111C88.0646 87.5946 87.3793 90.8752 87.6761 93.5623C88.2642 98.877 93.2499 102.568 98.1438 104.721C104.7 107.602 111.8 108.962 118.755 110.672C125.71 112.382 132.719 114.535 138.514 118.744C144.309 122.953 149.333 129.541 149.295 136.701C149.284 138.703 149.031 141.163 147.773 142.723C146.516 144.282 144.919 144.606 143.106 143.753C141.293 142.901 140.036 141.584 140.371 138.697Z" fill="white"/>
</g>
<path d="M103.41 69.5682C103.135 66.347 105.536 63.5412 108.266 62.0358C110.996 60.5304 114.12 59.9207 116.937 58.5879C123.924 55.275 128.365 47.4836 128.694 39.4871C129.023 31.4907 125.559 23.5051 120.136 17.6291C117.935 15.2442 115.221 12.746 115.189 9.48702C115.156 6.08772 118.448 3.41145 121.739 3.45462C125.03 3.49778 128.063 5.69923 130.032 8.47262C132.002 11.246 133.092 14.5482 134.154 17.7856C133.399 16.4313 134.953 14.7532 136.448 14.8935C137.942 15.0392 139.124 16.2856 140.047 17.5266C144.012 22.863 145.971 29.7209 145.426 36.3253C144.881 42.9296 141.827 49.2156 137.063 53.5645C131.737 58.4153 124.696 60.6923 117.87 62.8451C113.117 64.3451 108.368 65.8452 103.615 67.3452" fill="#9C71BC"/>
<g opacity="0.8">
<path opacity="0.8" d="M103.41 69.5682C103.135 66.347 105.536 63.5412 108.266 62.0358C110.996 60.5304 114.12 59.9207 116.937 58.5879C123.924 55.275 128.365 47.4836 128.694 39.4871C129.023 31.4907 125.559 23.5051 120.136 17.6291C117.935 15.2442 115.221 12.746 115.189 9.48702C115.156 6.08772 118.448 3.41145 121.739 3.45462C125.03 3.49778 128.063 5.69923 130.032 8.47262C132.002 11.246 133.092 14.5482 134.154 17.7856C133.399 16.4313 134.953 14.7532 136.448 14.8935C137.942 15.0392 139.124 16.2856 140.047 17.5266C144.012 22.863 145.971 29.7209 145.426 36.3253C144.881 42.9296 141.827 49.2156 137.063 53.5645C131.737 58.4153 124.696 60.6923 117.87 62.8451C113.117 64.3451 108.368 65.8452 103.615 67.3452" fill="white"/>
</g>
<path d="M99.4441 1.87889C98.0304 2.47242 97.2534 4.26919 97.7876 5.70984C98.3218 7.15049 100.081 8.00302 101.543 7.53359C103.005 7.06416 103.933 5.34293 103.529 3.85911C103.124 2.37529 101.446 1.37709 99.9459 1.71702" fill="#9C71BC"/>
<g opacity="0.8">
<path opacity="0.8" d="M99.4441 1.87889C98.0304 2.47242 97.2534 4.26919 97.7876 5.70984C98.3218 7.15049 100.081 8.00302 101.543 7.53359C103.005 7.06416 103.933 5.34293 103.529 3.85911C103.124 2.37529 101.446 1.37709 99.9459 1.71702" fill="white"/>
</g>
<path d="M117.018 209.78C115.269 206.159 116.791 201.643 119.575 198.74C122.359 195.837 126.158 194.181 129.843 192.562C137.964 188.985 146.564 184.722 150.698 176.866C152.09 174.217 152.883 171.303 153.665 168.411C155.181 162.821 156.6 156.47 153.552 151.544C152.672 150.125 151.356 148.868 149.716 148.576C147.849 148.247 145.928 149.272 144.773 150.783C143.624 152.289 143.127 154.204 142.89 156.082C142.437 159.664 142.814 163.307 142.437 166.895C142.059 170.483 140.748 174.238 137.786 176.305C134.192 178.814 129.061 178.247 125.564 180.897C122.742 183.033 121.669 186.746 119.467 189.514C117.611 191.839 115.021 193.431 112.642 195.217C110.268 197.008 107.969 199.188 107.16 202.053C106.323 205.026 107.37 208.447 109.733 210.438C112.097 212.429 115.642 212.888 118.431 211.56" fill="#9C71BC"/>
<g opacity="0.8">
<path opacity="0.8" d="M117.018 209.78C115.269 206.159 116.791 201.643 119.575 198.74C122.359 195.837 126.158 194.181 129.843 192.562C137.964 188.985 146.564 184.722 150.698 176.866C152.09 174.217 152.883 171.303 153.665 168.411C155.181 162.821 156.6 156.47 153.552 151.544C152.672 150.125 151.356 148.868 149.716 148.576C147.849 148.247 145.928 149.272 144.773 150.783C143.624 152.289 143.127 154.204 142.89 156.082C142.437 159.664 142.814 163.307 142.437 166.895C142.059 170.483 140.748 174.238 137.786 176.305C134.192 178.814 129.061 178.247 125.564 180.897C122.742 183.033 121.669 186.746 119.467 189.514C117.611 191.839 115.021 193.431 112.642 195.217C110.268 197.008 107.969 199.188 107.16 202.053C106.323 205.026 107.37 208.447 109.733 210.438C112.097 212.429 115.642 212.888 118.431 211.56" fill="white"/>
</g>
<path d="M25.9359 40.0165C22.3102 37.328 20.0937 32.8266 20.1758 28.3115C20.2579 23.7965 22.6317 19.384 26.3464 16.8186C28.4466 15.3752 30.9435 14.4859 32.8111 12.7482C34.4735 11.2022 35.5544 9.06094 37.4151 7.76114C39.7274 6.14666 43.0795 6.21507 45.3234 7.93217C47.5672 9.64242 48.5181 12.8577 47.5672 15.5189C46.7121 17.92 44.5572 19.6713 43.6541 22.0589C42.6827 24.6242 43.3121 27.5043 42.9495 30.2202C42.5049 33.5654 40.4731 36.6644 37.5862 38.402C34.6993 40.1397 31.012 40.4886 27.8446 39.3119" fill="#9C71BC"/>
<g opacity="0.8">
<path opacity="0.8" d="M25.9359 40.0165C22.3102 37.328 20.0937 32.8266 20.1758 28.3115C20.2579 23.7965 22.6317 19.384 26.3464 16.8186C28.4466 15.3752 30.9435 14.4859 32.8111 12.7482C34.4735 11.2022 35.5544 9.06094 37.4151 7.76114C39.7274 6.14666 43.0795 6.21507 45.3234 7.93217C47.5672 9.64242 48.5181 12.8577 47.5672 15.5189C46.7121 17.92 44.5572 19.6713 43.6541 22.0589C42.6827 24.6242 43.3121 27.5043 42.9495 30.2202C42.5049 33.5654 40.4731 36.6644 37.5862 38.402C34.6993 40.1397 31.012 40.4886 27.8446 39.3119" fill="white"/>
</g>
<path d="M30.9022 46.3877L29.9034 46.3877C27.8579 46.3877 26.2024 44.7322 26.2024 42.6867L26.2024 25.3516L34.61 25.3516L34.61 42.6867C34.61 44.7253 32.9476 46.3877 30.9022 46.3877Z" fill="#9C71BC"/>
<path d="M26.2024 25.3504L30.4028 17.6406L34.61 25.3504L26.2024 25.3504Z" fill="#FFB5C3"/>
<path d="M28.7405 20.6917C28.7405 20.6917 30.0197 22.614 32.0721 20.6917L30.4097 17.6406L28.7405 20.6917Z" fill="#9C71BC"/>
<path d="M34.7266 41.837C34.7266 41.9328 32.8111 42.0081 30.4509 42.0081C28.0908 42.0081 26.1753 41.9328 26.1753 41.837C26.1753 41.7413 28.0908 41.666 30.4509 41.666C32.8111 41.666 34.7266 41.7413 34.7266 41.837Z" fill="#263238"/>
<path d="M34.6376 40.5509C34.6376 40.6467 32.7631 40.7219 30.4509 40.7219C28.1386 40.7219 26.2642 40.6467 26.2642 40.5509C26.2642 40.4551 28.1386 40.3799 30.4509 40.3799C32.7631 40.3799 34.6376 40.4551 34.6376 40.5509Z" fill="#263238"/>
<path d="M28.6722 25.4746C28.768 25.4746 28.8433 28.8335 28.8433 32.9724C28.8433 37.1112 28.768 40.4701 28.6722 40.4701C28.5765 40.4701 28.5012 37.118 28.5012 32.9724C28.5012 28.8335 28.5765 25.4746 28.6722 25.4746Z" fill="#FAFAFA"/>
<path d="M32.0721 25.4746C32.1679 25.4746 32.2432 28.8335 32.2432 32.9724C32.2432 37.1112 32.1679 40.4701 32.0721 40.4701C31.9764 40.4701 31.9011 37.118 31.9011 32.9724C31.9011 28.8335 31.9764 25.4746 32.0721 25.4746Z" fill="#FAFAFA"/>
<path d="M70.0363 8.72949L83.2549 9.29526L83.5744 10.0646L74.9104 24.126L59.2725 23.6691L70.0363 8.72949Z" fill="#263238"/>
<path d="M58.6782 22.298L74.4108 23.1976L82.6275 10.4453L76.8585 10.914L62.2551 16.058L58.6782 22.298Z" fill="#E0E0E0"/>
<path d="M56.4697 21.3524L70.9169 21.5797C70.3156 19.7309 71.7312 17.1293 73.6747 16.2534C74.9625 15.6734 77.3841 14.9207 78.634 14.2791C81.0084 13.06 83.1554 10.7543 82.9684 8.77296L77.0338 8.58358L69.461 8.29004C68.8266 10.1696 67.4726 11.3982 65.4131 12.1392C63.5714 12.802 61.474 12.7996 59.6749 13.5524C56.7821 14.7691 55.3926 18.694 56.4697 21.3524Z" fill="#EBEBEB"/>
<path d="M56.4697 21.3527C56.4697 21.3527 56.4555 21.322 56.4342 21.2604C56.4105 21.1941 56.3773 21.1018 56.3347 20.9811C56.285 20.8603 56.2543 20.6994 56.2116 20.5124C56.1596 20.3253 56.143 20.1052 56.1122 19.8543C56.0767 19.3548 56.0814 18.7298 56.2258 18.0173C56.3726 17.3095 56.6519 16.5094 57.1514 15.7235C57.2816 15.5317 57.4047 15.3258 57.5681 15.1435C57.6462 15.0488 57.7196 14.9494 57.8048 14.8571C57.8924 14.7671 57.9823 14.6771 58.0723 14.5872C58.1599 14.4925 58.2593 14.4096 58.3611 14.3268C58.4629 14.2439 58.5623 14.1564 58.6712 14.0782C58.8984 13.9362 59.1162 13.7705 59.3743 13.6592C60.3756 13.155 61.571 12.942 62.8162 12.7171C63.4412 12.6034 64.0827 12.4851 64.7289 12.3075C65.3728 12.1253 66.0191 11.8814 66.6322 11.5406C66.9399 11.3725 67.2382 11.1784 67.5223 10.9582C67.8063 10.7404 68.0715 10.4919 68.3106 10.2126C68.7958 9.66335 69.1628 8.99579 69.4089 8.27615L69.4232 8.23828L69.4634 8.24064C71.4755 8.3164 73.5847 8.39689 75.7744 8.48211C77.9617 8.56733 80.2272 8.6265 82.5471 8.70462C82.6891 8.70935 82.8311 8.71409 82.9708 8.71883L83.0229 8.72119L83.0276 8.77327C83.0679 9.23015 82.985 9.68702 82.8359 10.1084C82.7696 10.3238 82.6654 10.5227 82.5707 10.7239C82.4595 10.9156 82.3553 11.1121 82.2251 11.292C81.7327 12.0282 81.1007 12.6437 80.4355 13.1834C79.7632 13.7208 79.0341 14.1658 78.2766 14.5185C77.5143 14.8618 76.7426 15.1411 75.9875 15.4205C75.2323 15.6998 74.4843 15.9649 73.7741 16.2727C73.4261 16.4336 73.0924 16.6206 72.8012 16.8621C72.6473 16.971 72.5195 17.1107 72.3798 17.2338C72.2567 17.3734 72.1194 17.4989 72.0082 17.648C71.5418 18.2209 71.1915 18.8695 70.9974 19.5465C70.7938 20.2188 70.7701 20.9314 70.9618 21.5682L70.9808 21.6321L70.9145 21.6321C66.5375 21.5539 62.9275 21.49 60.4087 21.4451C59.1517 21.419 58.1693 21.4001 57.4947 21.3859C57.1609 21.3764 56.9076 21.3717 56.7301 21.3669C56.5573 21.3598 56.4697 21.3527 56.4697 21.3527C56.4697 21.3527 56.5596 21.3504 56.7324 21.3504C56.9076 21.3504 57.1633 21.3527 57.497 21.3551C58.1717 21.3622 59.1541 21.374 60.4111 21.3882C62.9322 21.4237 66.5422 21.4735 70.9192 21.5326L70.8719 21.5966C70.6707 20.9385 70.6944 20.2046 70.9027 19.5181C71.0991 18.8245 71.4542 18.1641 71.9277 17.5817C72.0389 17.4302 72.1786 17.3 72.3041 17.158C72.4461 17.0325 72.5763 16.8905 72.7349 16.7792C73.0308 16.5307 73.3741 16.3389 73.7291 16.1732C74.444 15.8608 75.1921 15.5956 75.9472 15.3139C76.7024 15.0346 77.4717 14.7529 78.2269 14.4144C78.9773 14.0664 79.6969 13.6237 80.3621 13.0935C81.0202 12.5585 81.6428 11.9501 82.1281 11.2257C82.2559 11.0505 82.3577 10.8564 82.4666 10.6694C82.5589 10.4729 82.6583 10.2788 82.7246 10.0705C82.8666 9.66098 82.9471 9.22068 82.9093 8.78511L82.9661 8.83719C82.8288 8.83246 82.6844 8.82771 82.5423 8.82298C80.2225 8.74486 77.957 8.68569 75.7697 8.5981C73.5824 8.51288 71.4708 8.43002 69.4587 8.3519L69.5131 8.31403C69.2622 9.0455 68.8882 9.72727 68.391 10.2859C68.1472 10.5676 67.875 10.8209 67.5862 11.0434C67.2997 11.2683 66.9967 11.4648 66.6819 11.6329C66.0593 11.9761 65.4036 12.22 64.755 12.4046C64.104 12.5821 63.4577 12.7005 62.8328 12.8118C61.5876 13.0343 60.3969 13.2426 59.4098 13.7374C59.1565 13.8462 58.9387 14.0096 58.7162 14.1469C58.6096 14.225 58.5102 14.3102 58.4108 14.3907C58.309 14.4712 58.2096 14.5517 58.1244 14.6464C58.0344 14.7363 57.9468 14.8239 57.8592 14.9115C57.774 15.0014 57.703 15.1009 57.6249 15.1932C57.4639 15.3755 57.3408 15.5767 57.2106 15.7661C56.7111 16.5402 56.4294 17.3308 56.2779 18.0339C56.1288 18.7393 56.117 19.3595 56.1477 19.8566C56.1761 20.1052 56.1903 20.3253 56.2377 20.5124C56.2779 20.6994 56.304 20.858 56.3513 20.9811C56.3892 21.1018 56.42 21.1965 56.4413 21.2628C56.4626 21.3196 56.4697 21.3527 56.4697 21.3527Z" fill="#263238"/>
<path d="M73.5185 8.52774C73.509 8.52537 73.5374 8.43542 73.5516 8.26971C73.5635 8.10638 73.554 7.86019 73.438 7.58796C73.3267 7.32046 73.1042 7.02218 72.7562 6.85648C72.4106 6.69077 71.9561 6.65527 71.5395 6.81387C71.1205 6.96774 70.8175 7.30862 70.6589 7.66134C70.4955 8.01406 70.4719 8.37861 70.5192 8.66741C70.5665 8.95858 70.6778 9.17874 70.7654 9.3184C70.8553 9.45807 70.9216 9.52435 70.9145 9.53145C70.9098 9.53619 70.8317 9.47937 70.7275 9.34444C70.6234 9.20951 70.4979 8.98699 70.4363 8.68162C70.3772 8.38098 70.389 7.99275 70.5594 7.61636C70.7204 7.24234 71.0424 6.87069 71.4969 6.70498C71.9443 6.53691 72.4343 6.57715 72.8036 6.76179C73.18 6.94643 73.4096 7.27311 73.5161 7.55955C73.6274 7.85071 73.625 8.10874 73.599 8.27682C73.5848 8.36204 73.5682 8.42595 73.5516 8.46856C73.5327 8.5088 73.5232 8.53011 73.5185 8.52774Z" fill="#263238"/>
<path d="M75.7839 8.52774C75.7744 8.52537 75.8028 8.43542 75.817 8.26971C75.8288 8.10638 75.8194 7.86019 75.7034 7.58796C75.5921 7.32046 75.3696 7.02218 75.0216 6.85648C74.676 6.69077 74.2215 6.65527 73.8049 6.81387C73.3859 6.96774 73.0829 7.30862 72.9242 7.66134C72.7609 8.01406 72.7372 8.37861 72.7846 8.66741C72.8319 8.95858 72.9432 9.17874 73.0308 9.3184C73.1207 9.45807 73.187 9.52435 73.1799 9.53145C73.1752 9.53619 73.0971 9.47937 72.9929 9.34444C72.8887 9.20951 72.7633 8.98699 72.7017 8.68162C72.6426 8.38098 72.6544 7.99275 72.8248 7.61636C72.9858 7.24234 73.3077 6.87069 73.7622 6.70498C74.2097 6.53691 74.6997 6.57715 75.069 6.76179C75.4454 6.94643 75.675 7.27311 75.7815 7.55955C75.8928 7.85071 75.8904 8.10874 75.8644 8.27682C75.8501 8.36204 75.8336 8.42595 75.817 8.46856C75.7957 8.5088 75.7862 8.53011 75.7839 8.52774Z" fill="#263238"/>
<path d="M77.5026 8.64589C77.4908 8.64353 77.5168 8.55121 77.5216 8.3855C77.5239 8.2198 77.5003 7.97597 77.3701 7.71084C77.2446 7.44808 77.0055 7.16401 76.6457 7.01961C76.293 6.87284 75.8337 6.86337 75.4289 7.04565C75.0194 7.22319 74.7353 7.58064 74.598 7.94046C74.4536 8.30265 74.4536 8.6672 74.5152 8.95364C74.5791 9.24244 74.7022 9.45549 74.7993 9.58805C74.8963 9.72298 74.9673 9.7869 74.9602 9.794C74.9555 9.79873 74.875 9.74666 74.7637 9.61646C74.6525 9.48626 74.5128 9.27321 74.4347 8.97257C74.3566 8.6743 74.3495 8.28844 74.4962 7.90259C74.6359 7.5191 74.9366 7.13087 75.3792 6.93912C75.8172 6.74501 76.3072 6.75684 76.6859 6.92255C77.0718 7.08589 77.3204 7.39837 77.4434 7.68007C77.5713 7.96413 77.5831 8.22216 77.5665 8.3926C77.5571 8.47782 77.5429 8.5441 77.5287 8.58671C77.5145 8.62459 77.5074 8.64589 77.5026 8.64589Z" fill="#263238"/>
<path d="M79.3464 8.75061C79.3345 8.74824 79.3559 8.65593 79.3511 8.49022C79.3464 8.32452 79.3085 8.08306 79.1641 7.82503C79.0244 7.56937 78.7711 7.29714 78.4042 7.17167C78.0444 7.04384 77.5875 7.06042 77.1898 7.26163C76.7898 7.46048 76.527 7.8345 76.4086 8.19905C76.2832 8.56834 76.3021 8.93289 76.3802 9.21459C76.4584 9.49866 76.5933 9.70461 76.6975 9.83481C76.8016 9.965 76.875 10.0242 76.8679 10.0313C76.8655 10.036 76.7803 9.98868 76.6619 9.86558C76.5436 9.74249 76.3944 9.53653 76.2998 9.24063C76.2074 8.94709 76.179 8.56124 76.3045 8.16828C76.4229 7.78005 76.7022 7.37525 77.1354 7.15983C77.5639 6.94205 78.0515 6.93021 78.4397 7.07225C78.8351 7.21428 79.0978 7.51492 79.2351 7.78716C79.3772 8.06412 79.4032 8.32214 79.3961 8.49258C79.3914 8.57781 79.3819 8.64409 79.3701 8.6867C79.3582 8.72931 79.3511 8.75298 79.3464 8.75061Z" fill="#263238"/>
<path d="M81.1927 8.70784C81.1809 8.70547 81.1998 8.61315 81.1904 8.44744C81.1809 8.28411 81.1359 8.04029 80.9844 7.78699C80.8377 7.53607 80.5773 7.27093 80.208 7.15494C79.8434 7.03658 79.3865 7.06498 78.9959 7.27803C78.6006 7.48872 78.3497 7.86748 78.2408 8.23676C78.1272 8.60842 78.1556 8.97297 78.2408 9.25231C78.3284 9.53401 78.4681 9.73759 78.5746 9.86305C78.6835 9.99088 78.7569 10.0477 78.7521 10.0548C78.7498 10.0595 78.6645 10.0146 78.5414 9.89383C78.4207 9.7731 78.2645 9.57188 78.1627 9.27834C78.0609 8.98717 78.023 8.60368 78.1366 8.20599C78.2455 7.81303 78.513 7.40114 78.9391 7.17388C79.3605 6.94426 79.8505 6.91822 80.2411 7.05078C80.6388 7.18335 80.911 7.47451 81.0554 7.74438C81.2046 8.01661 81.2401 8.27464 81.2353 8.44508C81.233 8.5303 81.2259 8.59658 81.214 8.64156C81.2046 8.68654 81.1975 8.70784 81.1927 8.70784Z" fill="#263238"/>
<path d="M82.7506 8.91571C82.7387 8.91334 82.76 8.82102 82.7577 8.65531C82.7553 8.48961 82.7198 8.24578 82.5778 7.98775C82.4405 7.73209 82.1919 7.4575 81.8274 7.3273C81.4675 7.19474 81.0107 7.20657 80.6106 7.40305C80.2082 7.59716 79.9407 7.96645 79.8176 8.331C79.6898 8.69792 79.7016 9.06248 79.7773 9.34655C79.8531 9.63298 79.9833 9.83893 80.0874 9.96913C80.1892 10.0993 80.2626 10.1609 80.2555 10.168C80.2531 10.1727 80.1679 10.1254 80.0519 9.9999C79.9359 9.87443 79.7868 9.66612 79.6969 9.37022C79.6069 9.07668 79.5832 8.69083 79.7134 8.29787C79.8365 7.90964 80.1206 7.50958 80.5562 7.29889C80.987 7.08584 81.4746 7.07874 81.8629 7.22787C82.2558 7.37464 82.5162 7.67765 82.6488 7.95225C82.7885 8.23158 82.8121 8.48961 82.8003 8.66005C82.7956 8.74527 82.7837 8.81155 82.7719 8.85416C82.7624 8.8944 82.7529 8.91571 82.7506 8.91571Z" fill="#263238"/>
<path d="M174.729 74.8078C172.841 74.7575 170.844 74.8222 168.79 75.0735C156.415 76.6105 147.194 87.2399 147.215 99.7079C147.222 103.342 147.61 107.4 148.752 111.451C152.207 123.703 153.27 134.498 152.875 139.755L164.438 145.967C164.438 145.967 169.788 138.275 174.959 134.965C180.13 131.646 197.339 122.784 204.154 113.663C208.55 107.788 209.39 95.7291 198.919 85.1787C192.519 78.7364 183.808 75.0592 174.729 74.8078Z" fill="#9C71BC"/>
<path d="M147.402 153.135L157.845 158.773L151.043 167.413L144.084 164.245L147.402 153.135Z" fill="#455A64"/>
<path d="M147.905 153.48C147.811 153.444 148.845 150.349 150.217 146.557C151.589 142.764 152.774 139.719 152.867 139.755C152.961 139.791 151.926 142.887 150.555 146.679C149.19 150.471 147.998 153.516 147.905 153.48Z" fill="#263238"/>
<path d="M157.184 158.35C157.097 158.3 158.735 155.369 160.839 151.807C162.944 148.245 164.718 145.401 164.804 145.451C164.89 145.501 163.252 148.431 161.148 151.994C159.044 155.556 157.27 158.4 157.184 158.35Z" fill="#263238"/>
<g opacity="0.4">
<path opacity="0.4" d="M178.213 75.1319C177.746 75.1607 172 81.883 169.458 86.4365C160.904 101.756 160.523 116.658 158.146 134.039C157.809 136.524 156.573 141.875 156.595 141.752C157.859 142.744 162.111 144.719 162.111 144.719C162.111 144.719 166.118 139.878 167.713 137.443C174.097 127.69 181.021 120.091 186.486 109.8C191.952 99.5078 197.209 90.3794 192.153 79.8793C192.153 79.8865 183.398 74.8447 178.213 75.1319Z" fill="black"/>
</g>
<path d="M204.197 115.206C204.19 115.206 204.14 115.099 204.046 114.876C203.953 114.661 203.838 114.323 203.644 113.906C203.271 113.073 202.653 111.867 201.626 110.509C200.599 109.166 199.163 107.644 197.187 106.372C195.248 105.065 192.742 104.031 189.912 103.679L189.84 103.672L189.797 103.615C188.468 101.826 186.946 99.9733 185.129 98.2568C183.319 96.5474 181.2 94.9746 178.758 93.8685C176.324 92.784 173.702 92.3029 171.232 92.4321C168.761 92.5542 166.441 93.3442 164.646 94.6298L164.545 94.7017L164.452 94.6155C162.304 92.7266 159.733 91.7498 157.413 91.4913C155.079 91.2255 153.011 91.6493 151.431 92.2526C149.844 92.8559 148.716 93.6315 147.998 94.1845C147.639 94.4646 147.366 94.6945 147.193 94.8597C147.014 95.0177 146.92 95.0967 146.913 95.0895C146.906 95.0823 146.992 94.9889 147.157 94.8166C147.323 94.6442 147.581 94.4 147.933 94.0984C148.644 93.5094 149.757 92.705 151.366 92.0658C152.961 91.4266 155.065 90.967 157.449 91.2184C159.819 91.4626 162.455 92.4393 164.667 94.3713L164.466 94.3641C166.305 93.0354 168.689 92.2167 171.224 92.0802C173.753 91.9366 176.431 92.4249 178.916 93.5382C181.401 94.6586 183.549 96.2602 185.38 97.9982C187.212 99.7363 188.741 101.611 190.063 103.413L189.955 103.349C192.85 103.722 195.385 104.8 197.338 106.143C199.328 107.457 200.764 109.015 201.784 110.387C202.797 111.773 203.393 113.001 203.745 113.856C203.924 114.28 204.018 114.625 204.097 114.847C204.168 115.084 204.204 115.199 204.197 115.206Z" fill="#263238"/>
<path d="M182.702 130.469C182.63 130.49 182.644 129.427 181.703 127.955C181.229 127.244 180.518 126.432 179.484 125.822C178.472 125.197 177.121 124.773 175.656 124.917L175.513 124.931L175.491 124.788C175.261 123.301 174.644 121.721 173.595 120.321C172.554 118.927 171.088 117.685 169.307 116.988C167.842 116.406 166.284 116.198 164.826 116.299C163.361 116.406 161.989 116.823 160.833 117.426L160.725 117.484L160.639 117.39C159.482 116.155 157.988 115.458 156.624 115.214C155.252 114.934 154.002 115.078 153.026 115.329C151.051 115.868 150.21 116.823 150.167 116.744C150.16 116.737 150.21 116.686 150.318 116.586C150.426 116.493 150.577 116.342 150.806 116.176C151.259 115.853 151.97 115.43 152.968 115.135C153.959 114.848 155.245 114.683 156.667 114.948C158.082 115.178 159.647 115.875 160.868 117.168L160.674 117.132C161.867 116.493 163.282 116.054 164.797 115.939C166.305 115.832 167.921 116.04 169.437 116.643C171.29 117.362 172.798 118.654 173.868 120.098C174.945 121.549 175.57 123.186 175.793 124.723L175.627 124.594C177.172 124.457 178.579 124.924 179.614 125.592C180.676 126.246 181.387 127.093 181.854 127.84C182.314 128.594 182.522 129.269 182.623 129.729C182.673 129.959 182.68 130.138 182.695 130.26C182.709 130.404 182.716 130.469 182.702 130.469Z" fill="#263238"/>
<path d="M155.826 161.495C155.798 161.516 155.712 161.351 155.446 161.243C155.18 161.128 154.742 161.114 154.225 161.279C153.959 161.351 153.657 161.444 153.298 161.452C152.939 161.459 152.544 161.286 152.264 160.999C151.711 160.424 151.496 159.584 150.979 159.01C150.72 158.73 150.375 158.579 150.016 158.607C149.657 158.622 149.291 158.744 148.924 158.823C148.565 158.909 148.185 158.967 147.833 158.88C147.481 158.809 147.201 158.636 146.978 158.442C146.533 158.054 146.339 157.595 146.289 157.279C146.238 156.963 146.289 156.783 146.303 156.783C146.332 156.783 146.332 156.956 146.425 157.243C146.511 157.523 146.727 157.918 147.136 158.241C147.344 158.399 147.596 158.536 147.89 158.586C148.178 158.643 148.501 158.593 148.845 158.5C149.19 158.414 149.564 158.277 150.002 158.248C150.44 158.212 150.928 158.414 151.237 158.758C151.848 159.448 152.034 160.274 152.501 160.762C152.731 161.006 153.011 161.143 153.306 161.15C153.6 161.164 153.887 161.085 154.16 161.035C154.706 160.891 155.216 160.942 155.503 161.121C155.798 161.294 155.841 161.495 155.826 161.495Z" fill="#263238"/>
<path d="M157.026 159.822C156.983 159.908 154.699 158.78 151.934 157.308C149.169 155.828 146.957 154.564 147.007 154.478C147.05 154.392 149.334 155.52 152.099 156.992C154.864 158.464 157.069 159.736 157.026 159.822Z" fill="#263238"/>
<path d="M154.95 162.45C154.957 162.478 154.807 162.521 154.555 162.636C154.426 162.694 154.282 162.78 154.081 162.859C153.88 162.945 153.622 162.974 153.363 162.952C152.839 162.916 152.2 162.751 151.639 162.292C151.366 162.069 151.129 161.739 150.986 161.387C150.835 161.049 150.713 160.697 150.483 160.446C150.009 159.936 149.233 159.878 148.594 159.9C147.933 159.921 147.287 159.943 146.777 159.728C146.274 159.519 145.973 159.16 145.858 158.887C145.743 158.607 145.779 158.435 145.8 158.435C145.829 158.428 145.843 158.593 145.98 158.823C146.116 159.052 146.411 159.333 146.863 159.491C147.316 159.649 147.905 159.613 148.58 159.57C149.233 159.534 150.117 159.548 150.749 160.202C151.043 160.532 151.165 160.92 151.309 161.243C151.445 161.573 151.625 161.832 151.862 162.04C152.336 162.457 152.911 162.636 153.392 162.701C153.873 162.787 154.225 162.586 154.512 162.507C154.785 162.428 154.943 162.435 154.95 162.45Z" fill="#263238"/>
<path d="M93.0226 109.226L105.161 107.426L99.3597 99.2061L96.2466 99.3895C94.152 99.5149 92.3083 100.808 91.4781 102.734C91.0389 103.757 90.9134 104.892 91.1258 105.982L93.0226 109.226Z" fill="#9C71BC"/>
<path opacity="0.4" d="M93.0226 109.226L105.161 107.426L99.3597 99.2061L96.2466 99.3895C94.152 99.5149 92.3083 100.808 91.4781 102.734C91.0389 103.757 90.9134 104.892 91.1258 105.982L93.0226 109.226Z" fill="black"/>
<path d="M145.153 122.672C145.279 123.019 145.414 123.43 145.554 123.922C145.674 124.347 145.713 124.786 145.684 125.22C145.65 125.751 145.573 126.456 145.409 126.828C145.211 127.286 145.674 127.749 146.065 127.523C146.456 127.291 147.04 126.036 147.002 124.424C146.968 122.807 148.614 124.742 149.227 125.438C149.84 126.133 151.838 128.193 152.2 128.174C152.731 128.145 152.798 127.571 152.171 126.89C151.534 126.2 149.801 124.038 150.182 123.734C150.559 123.435 153.633 127.011 153.633 127.011C153.633 127.011 154.164 127.885 154.618 127.542C155.438 126.929 151.891 123.367 151.543 123.034C151.302 122.802 151.707 122.455 151.954 122.715C152.205 122.986 154.936 126.359 155.776 125.742C156.418 125.269 152.885 122.783 152.706 121.769C152.528 120.756 155.197 123.927 155.791 123.454C156.013 123.275 156.153 123.116 154.362 121.514C153.493 120.737 150.182 118.42 150.182 118.42L140.22 89.8955L132.527 94.3021L145.153 122.672Z" fill="#FFB5C3"/>
<path d="M85.855 68.7317L74.7252 55.4493C74.5804 54.9908 74.4067 54.5468 74.1798 54.1269C73.6248 53.0892 72.7029 52.1866 71.5542 51.9356C70.8496 51.7812 70.0387 51.8536 69.4885 51.3903C69.2424 51.1827 69.0734 50.8883 68.8176 50.6952C68.557 50.5022 68.1275 50.4636 67.9585 50.7435C67.8427 50.9414 67.9151 51.1924 68.0068 51.4047C68.4219 52.3845 69.0928 53.2533 69.9374 53.9C68.8949 54.2186 67.4035 54.6964 67.4035 54.6964C67.4035 54.6964 65.0482 52.1432 63.8464 52.1528C62.6446 52.1625 64.8213 54.4309 64.8213 54.4309C64.8213 54.4309 62.8908 52.6451 62.2923 53.1519C61.6938 53.6539 63.2286 54.9763 63.2286 54.9763C62.7411 54.7157 62.2102 54.4454 61.6648 54.5371C61.1195 54.6288 60.6513 55.2707 60.9457 55.7389C61.0567 55.9175 61.2498 56.0285 61.438 56.1298C62.4274 56.6801 63.412 57.2303 64.4014 57.7805C64.8986 58.0556 65.4198 58.3404 65.9845 58.3597C67.4855 58.4079 68.6294 57.4764 70.1353 57.515C70.1353 57.515 78.5285 75.1847 79.3779 76.0969C80.2274 77.0091 98.6693 78.2495 98.6693 78.2495L109.341 69.0551L85.855 68.7317Z" fill="#FFB5C3"/>
<path d="M119.288 164.985L130.654 169.937L124.568 184.113C123.25 183.447 123.68 174.947 123.68 174.947L116.266 172.071L119.288 164.985Z" fill="#9C71BC"/>
<g opacity="0.6">
<path opacity="0.6" d="M124.949 170.3C125.142 170.059 125.533 170.001 125.779 170.184C126.03 170.368 126.093 170.763 125.9 171.009C125.712 171.256 125.244 171.338 125.017 171.13C124.79 170.923 124.742 170.45 124.983 170.257" fill="white"/>
</g>
<path opacity="0.6" d="M130.659 169.937L129.496 169.483L124.095 183.244C124.095 183.244 124.1 183.992 124.573 184.112L130.659 169.937Z" fill="white"/>
<path d="M123.511 175.145C123.583 175.174 123.762 174.841 124.128 174.595C124.49 174.339 124.867 174.296 124.867 174.219C124.881 174.151 124.423 174.074 123.984 174.378C123.54 174.677 123.443 175.131 123.511 175.145Z" fill="#263238"/>
<path d="M123.487 176.897C123.545 176.94 123.796 176.694 124.187 176.583C124.578 176.462 124.92 176.54 124.945 176.467C124.983 176.405 124.597 176.182 124.11 176.332C123.627 176.472 123.424 176.863 123.487 176.897Z" fill="#263238"/>
<path d="M124.906 178.504C124.949 178.446 124.645 178.205 124.187 178.219C123.733 178.229 123.443 178.494 123.487 178.548C123.525 178.61 123.82 178.49 124.196 178.48C124.568 178.466 124.867 178.572 124.906 178.504Z" fill="#263238"/>
<path d="M121.894 174.301C121.971 174.301 122.01 173.939 122.203 173.562C122.391 173.176 122.651 172.93 122.608 172.867C122.574 172.804 122.193 172.993 121.966 173.442C121.744 173.895 121.826 174.315 121.894 174.301Z" fill="#263238"/>
<path d="M120.359 173.244C120.388 173.258 120.547 173.003 120.658 172.535C120.716 172.303 120.755 172.013 120.75 171.695C120.75 171.535 120.736 171.367 120.707 171.193C120.692 171.111 120.682 171.014 120.629 170.908C120.591 170.802 120.427 170.676 120.277 170.72C120.137 170.744 120.036 170.855 119.987 170.956C119.939 171.058 119.925 171.154 119.91 171.236C119.881 171.41 119.872 171.579 119.872 171.743C119.876 172.066 119.939 172.356 120.021 172.583C120.185 173.041 120.393 173.263 120.417 173.249C120.456 173.23 120.306 172.974 120.2 172.53C120.147 172.308 120.108 172.042 120.113 171.743C120.118 171.593 120.132 171.439 120.161 171.28C120.185 171.111 120.238 170.985 120.325 170.976C120.359 170.971 120.369 170.976 120.398 171.024C120.427 171.072 120.436 171.149 120.451 171.231C120.48 171.391 120.494 171.55 120.504 171.7C120.518 171.999 120.504 172.274 120.47 172.501C120.417 172.954 120.32 173.23 120.359 173.244Z" fill="#263238"/>
<path d="M120.494 173.195C120.514 173.176 120.325 172.93 119.891 172.713C119.674 172.606 119.394 172.515 119.071 172.476C118.911 172.457 118.738 172.457 118.564 172.471C118.39 172.495 118.158 172.515 118.009 172.771C117.941 172.91 118.004 173.07 118.081 173.152C118.158 173.239 118.236 173.282 118.308 173.335C118.462 173.432 118.627 173.499 118.786 173.543C119.104 173.63 119.408 173.61 119.65 173.552C120.137 173.432 120.345 173.181 120.321 173.166C120.296 173.128 120.06 173.311 119.616 173.374C119.399 173.403 119.128 173.398 118.853 173.311C118.718 173.268 118.578 173.205 118.448 173.123C118.308 173.036 118.211 172.925 118.25 172.877C118.279 172.804 118.443 172.737 118.588 172.727C118.747 172.708 118.902 172.708 119.046 172.717C119.341 172.737 119.601 172.804 119.814 172.886C120.243 173.041 120.47 173.229 120.494 173.195Z" fill="#263238"/>
<path d="M110.533 184.461L115.234 194.312L116.706 203.173C116.812 203.81 117.435 204.225 118.067 204.076C118.419 203.994 118.709 203.748 118.844 203.41C119.708 201.272 122.85 193.38 122.464 192.681C122.02 191.87 118.192 181.961 118.192 181.961L110.533 184.461Z" fill="#9C71BC"/>
<path opacity="0.6" d="M118.072 204.076L122.169 192.01L122.357 192.43C122.522 192.796 122.55 193.207 122.439 193.588C122.14 194.616 121.257 197.435 118.878 203.395C118.738 203.748 118.434 204.004 118.072 204.076Z" fill="white"/>
<g opacity="0.6">
<path opacity="0.6" d="M118.68 189.717C118.506 190.002 118.598 190.417 118.873 190.601C119.148 190.784 119.573 190.697 119.746 190.417C119.925 190.137 119.833 189.635 119.539 189.486C119.244 189.336 118.752 189.462 118.651 189.78" fill="white"/>
</g>
<path d="M118.39 198.704C118.347 198.757 117.888 198.337 117.169 198.323C116.45 198.289 115.963 198.675 115.924 198.617C115.905 198.598 115.996 198.463 116.213 198.323C116.431 198.183 116.778 198.067 117.179 198.081C117.575 198.096 117.917 198.241 118.125 198.39C118.327 198.545 118.41 198.685 118.39 198.704Z" fill="#263238"/>
<path d="M118.279 200.354C118.25 200.417 117.787 200.238 117.203 200.32C116.619 200.393 116.218 200.687 116.175 200.634C116.122 200.595 116.508 200.171 117.174 200.084C117.835 199.997 118.318 200.306 118.279 200.354Z" fill="#263238"/>
<path d="M118.94 196.401C118.916 196.469 118.202 196.189 117.285 196.242C116.368 196.281 115.687 196.628 115.654 196.561C115.615 196.512 116.291 196.044 117.275 196.001C118.255 195.948 118.979 196.353 118.94 196.401Z" fill="#263238"/>
<path d="M117.763 193.289C117.763 193.361 117.111 193.376 116.382 193.675C115.649 193.96 115.166 194.399 115.118 194.346C115.07 194.307 115.509 193.762 116.296 193.453C117.077 193.134 117.772 193.231 117.763 193.289Z" fill="#263238"/>
<path d="M116.455 190.363C116.45 190.435 115.745 190.353 115.007 190.725C114.259 191.082 113.897 191.69 113.834 191.652C113.81 191.637 113.863 191.463 114.032 191.227C114.201 190.99 114.5 190.706 114.901 190.508C115.301 190.31 115.712 190.247 116.001 190.257C116.291 190.266 116.46 190.334 116.455 190.363Z" fill="#263238"/>
<path d="M114.775 190.161C114.761 190.166 114.679 190.045 114.592 189.789C114.505 189.538 114.418 189.152 114.447 188.67C114.471 188.438 114.476 188.148 114.693 187.893C114.799 187.762 115.021 187.7 115.195 187.777C115.369 187.854 115.48 187.999 115.552 188.153C115.827 188.79 115.557 189.645 114.886 190.055C114.206 190.456 113.38 190.335 112.849 189.92C112.724 189.804 112.603 189.654 112.603 189.452C112.603 189.249 112.777 189.09 112.927 189.051C113.24 188.964 113.506 189.051 113.737 189.099C114.206 189.22 114.548 189.413 114.766 189.567C114.983 189.722 115.084 189.833 115.074 189.843C115.05 189.886 114.601 189.466 113.699 189.263C113.477 189.225 113.216 189.167 112.994 189.239C112.888 189.278 112.816 189.355 112.816 189.456C112.816 189.553 112.893 189.669 112.994 189.756C113.433 190.094 114.191 190.2 114.761 189.852C115.33 189.514 115.562 188.761 115.35 188.245C115.296 188.12 115.21 188.013 115.108 187.97C115.012 187.926 114.905 187.951 114.828 188.028C114.669 188.192 114.635 188.462 114.606 188.684C114.529 189.606 114.823 190.151 114.775 190.161Z" fill="#263238"/>
<path d="M126.378 166.188L113.487 157.51L117.753 115.621L105.542 108.492L94.3788 105.905C94.3788 105.905 89.7164 115.606 87.6411 121.818C83.2297 135.028 80.1359 139.758 80.8406 149.334C81.0626 152.365 92.2552 159.942 99.3211 164.156C99.4176 165.121 99.5431 165.966 99.6975 166.665C102.111 177.583 109.481 192.096 109.481 192.096L120.683 186.888L117.068 174.508L120.833 176.705L126.378 166.188ZM98.6695 139.179L100.175 132.465C99.8568 136.737 99.5672 141.187 99.3597 145.458C98.6357 143.484 98.3848 141.288 98.6695 139.179Z" fill="#263238"/>
<path d="M109.481 192.091C109.476 192.091 109.447 192.033 109.394 191.912C109.336 191.782 109.259 191.608 109.162 191.386C108.96 190.908 108.67 190.223 108.299 189.345C107.555 187.568 106.489 184.991 105.21 181.791C103.935 178.591 102.415 174.778 100.89 170.483C100.509 169.407 100.137 168.301 99.7847 167.157C99.6302 166.578 99.4324 166.009 99.331 165.396C99.302 165.246 99.2682 165.092 99.2441 164.942L99.191 164.484C99.1572 164.179 99.1235 163.871 99.0897 163.562C98.9594 162.326 98.8483 161.071 98.7711 159.792C98.7325 159.155 98.6939 158.508 98.6698 157.857C98.6456 157.21 98.6167 156.549 98.6553 155.892C98.8435 150.627 99.2876 145.641 99.6495 141.099C100.031 136.562 100.369 132.474 100.658 129.038C100.938 125.606 101.131 122.826 101.242 120.901C101.3 119.94 101.334 119.192 101.358 118.685C101.373 118.439 101.382 118.251 101.387 118.111C101.397 117.981 101.402 117.913 101.406 117.913C101.411 117.913 101.411 117.981 101.411 118.111C101.411 118.251 101.406 118.444 101.402 118.69C101.397 119.197 101.377 119.945 101.329 120.91C101.247 122.836 101.078 125.621 100.822 129.057C100.547 132.494 100.224 136.582 99.8667 141.124C99.5144 145.665 99.08 150.661 98.8918 155.907C98.8532 156.563 98.8821 157.21 98.9063 157.857C98.9304 158.504 98.9642 159.145 99.0076 159.783C99.0897 161.057 99.1959 162.312 99.3213 163.542C99.3551 163.851 99.3889 164.155 99.4227 164.459L99.4758 164.913C99.4999 165.063 99.5337 165.208 99.5627 165.357C99.6592 165.946 99.8523 166.52 100.007 167.095C100.354 168.234 100.721 169.339 101.102 170.41C102.618 174.701 104.119 178.519 105.374 181.728C106.643 184.919 107.676 187.506 108.395 189.306C108.747 190.189 109.027 190.884 109.22 191.367C109.307 191.594 109.38 191.772 109.433 191.903C109.467 192.028 109.486 192.091 109.481 192.091Z" fill="#455A64"/>
<path d="M100.865 116.505C100.856 116.52 100.754 116.433 100.571 116.269C100.402 116.09 100.199 115.796 100.026 115.395C99.6782 114.589 99.5044 113.383 99.4754 112.07C99.4513 110.752 99.5478 109.565 99.6347 108.715C99.7216 107.861 99.794 107.335 99.8278 107.34C99.8616 107.34 99.8471 107.876 99.8036 108.73C99.7602 109.584 99.6926 110.767 99.7168 112.07C99.7409 113.368 99.8905 114.546 100.185 115.337C100.33 115.733 100.503 116.027 100.643 116.216C100.798 116.385 100.875 116.491 100.865 116.505Z" fill="#455A64"/>
<path d="M96.0442 106.532C96.0684 106.527 96.1842 106.971 96.1408 107.705C96.1022 108.429 95.8512 109.452 95.2189 110.389C94.5818 111.325 93.7227 111.928 93.0615 112.232C92.3954 112.541 91.9418 112.594 91.9369 112.57C91.9273 112.532 92.3617 112.416 92.9843 112.078C93.6069 111.745 94.4129 111.146 95.021 110.253C95.6292 109.361 95.8946 108.39 95.9767 107.691C96.0587 106.981 96.0056 106.537 96.0442 106.532Z" fill="#455A64"/>
<path d="M116.074 130.887C116.078 130.887 116.078 130.93 116.069 131.012C116.059 131.109 116.049 131.234 116.04 131.384C116.006 131.727 115.958 132.209 115.895 132.812C115.76 134.072 115.562 135.863 115.321 138.068C114.819 142.518 114.124 148.638 113.356 155.395C113.062 158.779 113.356 162.037 113.993 164.904C114.307 166.342 114.722 167.679 115.161 168.914C115.596 170.15 116.001 171.303 116.368 172.36C117.097 174.455 117.686 176.159 118.101 177.356C118.294 177.935 118.448 178.389 118.559 178.717C118.607 178.862 118.641 178.977 118.675 179.074C118.699 179.156 118.709 179.195 118.704 179.199C118.699 179.199 118.68 179.161 118.651 179.084C118.617 178.992 118.569 178.876 118.516 178.736C118.395 178.413 118.226 177.959 118.014 177.39C117.579 176.197 116.966 174.503 116.209 172.418C115.832 171.366 115.417 170.217 114.973 168.982C114.524 167.746 114.099 166.4 113.776 164.957C113.125 162.07 112.82 158.788 113.12 155.376C113.873 148.6 114.621 142.485 115.152 138.049C115.422 135.848 115.644 134.058 115.798 132.803C115.88 132.2 115.943 131.722 115.987 131.379C116.011 131.229 116.025 131.104 116.04 131.007C116.064 130.93 116.074 130.887 116.074 130.887Z" fill="#455A64"/>
<path d="M94.3784 105.823L96.3573 100.774L100.865 107.498L94.8514 105.997" fill="#FFB5C3"/>
<path d="M141.591 90.6386L136.238 78.6352C135.597 76.7046 134.4 76.4054 133.391 75.2857L119.978 67.7226C110.205 63.7166 104.881 77.1487 104.881 77.1487L95.9955 97.4149C85.5462 100.88 92.9451 108.902 92.9451 108.902C92.9451 108.902 90.1024 103.96 92.8969 102.179C95.8217 100.311 99.0699 105.229 102.188 109.901C105.87 115.413 117.83 118.994 117.83 118.994C119.23 117.517 118.839 112.358 119.935 109.587C120.282 108.709 128.564 89.5237 128.564 89.5237L131.774 97.3039C131.774 97.3039 135.891 92.4775 137.884 91.7101C139.873 90.9427 141.591 90.6386 141.591 90.6386Z" fill="#9C71BC"/>
<path d="M117.825 99.1666C117.835 99.181 117.69 99.2872 117.42 99.4513C117.145 99.6154 116.735 99.8278 116.199 100.03C115.137 100.441 113.53 100.754 111.792 100.489C110.05 100.219 108.617 99.432 107.728 98.7225C107.28 98.3702 106.951 98.042 106.739 97.8055C106.527 97.5642 106.425 97.4242 106.44 97.4146C106.474 97.3808 106.922 97.931 107.835 98.5922C108.732 99.2534 110.142 99.9967 111.836 100.257C113.53 100.518 115.094 100.238 116.151 99.876C117.208 99.5092 117.801 99.1279 117.825 99.1666Z" fill="#263238"/>
<path d="M95.5948 80.1316L103.872 80.9135L117.116 66.9168L109.326 66.6514L95.4548 68.0221C95.4548 68.0173 96.6856 73.7993 95.5948 80.1316Z" fill="#9C71BC"/>
<path d="M107.092 72.7561C107.101 72.7609 107.063 72.8478 106.99 73.0119C106.903 73.2001 106.792 73.4366 106.657 73.7262C106.353 74.3729 105.938 75.261 105.427 76.3469C104.399 78.5671 103.033 81.656 101.551 85.0828C100.069 88.5096 98.7226 91.613 97.7042 93.838C97.1974 94.9529 96.7775 95.8506 96.4735 96.4636C96.3287 96.7532 96.2128 96.9848 96.1211 97.1683C96.0391 97.3275 95.9908 97.4096 95.986 97.4096C95.9763 97.4047 96.0101 97.3179 96.0777 97.1489C96.1598 96.9607 96.2611 96.7194 96.3866 96.425C96.6714 95.7686 97.0671 94.8709 97.5449 93.7704C98.5247 91.4972 99.8568 88.4082 101.324 84.9911C102.806 81.5643 104.196 78.4802 105.267 76.2794C105.798 75.1789 106.242 74.2909 106.566 73.6876C106.715 73.4028 106.841 73.176 106.937 72.9926C107.034 72.8333 107.082 72.7512 107.092 72.7561Z" fill="#263238"/>
<path d="M132.358 76.8303C132.382 76.8689 131.865 77.1392 131.166 77.7329C130.813 78.0273 130.432 78.423 130.046 78.8912C129.674 79.369 129.307 79.9289 128.994 80.5563C128.694 81.1886 128.482 81.8209 128.337 82.4097C128.207 83.0033 128.135 83.5439 128.12 84.0024C128.086 84.9194 128.192 85.489 128.149 85.4986C128.135 85.5034 128.096 85.3635 128.048 85.1029C128.019 84.9725 127.995 84.8181 127.985 84.6299C127.97 84.4465 127.941 84.2341 127.951 83.9976C127.941 83.5294 127.999 82.9696 128.12 82.3566C128.255 81.7485 128.468 81.0969 128.776 80.4453C129.095 79.7986 129.476 79.2291 129.872 78.7464C130.277 78.2734 130.678 77.8825 131.055 77.5977C131.233 77.4433 131.417 77.3371 131.571 77.2309C131.725 77.1247 131.865 77.0475 131.981 76.9896C132.218 76.8738 132.348 76.8158 132.358 76.8303Z" fill="#263238"/>
<path d="M134.669 57.6067L126.903 72.1247C125.634 74.4945 122.753 75.4791 120.296 74.3835C117.593 73.1769 116.478 69.9335 117.859 67.3176C118.592 65.9324 119.2 64.803 119.2 64.803C119.2 64.803 115.822 62.6166 117.405 58.9678C118.814 55.7148 123.988 46.5252 125.084 44.585L131.628 47.5146C135.306 49.4211 136.682 53.9869 134.669 57.6067Z" fill="#FFB5C3"/>
<path d="M119.22 64.7432C119.22 64.7432 121.431 65.9546 124.554 65.5154C124.554 65.5154 122.266 67.6246 118.791 65.6795L119.22 64.7432Z" fill="#F6ABA8"/>
<path d="M121.716 53.1444C121.586 53.4147 121.701 53.7477 121.981 53.8925C122.261 54.0373 122.594 53.9359 122.725 53.6657C122.855 53.3954 122.739 53.0624 122.459 52.9176C122.179 52.7728 121.846 52.8741 121.716 53.1444Z" fill="#263238"/>
<path d="M121.743 52.6811C121.777 52.7776 122.298 52.6617 122.858 52.9127C123.418 53.154 123.698 53.627 123.79 53.5836C123.833 53.5691 123.823 53.4147 123.703 53.2071C123.587 52.9996 123.341 52.739 122.993 52.5845C122.646 52.4301 122.293 52.4301 122.071 52.4832C121.835 52.5411 121.724 52.6376 121.743 52.6811Z" fill="#263238"/>
<path d="M126.928 55.703C126.798 55.9733 126.914 56.3063 127.194 56.4511C127.474 56.5959 127.807 56.4946 127.937 56.2243C128.067 55.954 127.952 55.621 127.672 55.4762C127.397 55.3314 127.064 55.4376 126.928 55.703Z" fill="#263238"/>
<path d="M127.179 55.2338C127.213 55.3303 127.734 55.2145 128.294 55.4655C128.854 55.7068 129.134 56.1798 129.226 56.1363C129.269 56.117 129.259 55.9674 129.139 55.7599C129.023 55.5523 128.777 55.2917 128.429 55.1373C128.082 54.9828 127.729 54.9828 127.507 55.0359C127.271 55.0938 127.16 55.1855 127.179 55.2338Z" fill="#263238"/>
<path d="M123.304 58.4686C123.319 58.4396 123 58.2224 122.474 57.8991C122.339 57.8218 122.218 57.7301 122.238 57.6239C122.252 57.5081 122.378 57.3778 122.522 57.2427C122.812 56.9579 123.111 56.6587 123.43 56.3449C124.704 55.0611 125.698 53.9848 125.645 53.9317C125.592 53.8786 124.516 54.8777 123.242 56.1615C122.933 56.4801 122.633 56.7841 122.349 57.0737C122.223 57.2137 122.049 57.3537 122.025 57.5998C122.016 57.7253 122.088 57.846 122.165 57.9135C122.242 57.9811 122.325 58.0197 122.392 58.0535C122.937 58.3383 123.29 58.4975 123.304 58.4686Z" fill="#263238"/>
<path d="M124.771 59.5808C124.684 59.5326 124.409 60.1407 123.699 60.3386C122.99 60.5365 122.377 60.1793 122.333 60.2662C122.309 60.3 122.425 60.4496 122.695 60.5751C122.956 60.7054 123.386 60.7923 123.82 60.6716C124.254 60.551 124.549 60.2565 124.679 60.02C124.814 59.7739 124.814 59.5953 124.771 59.5808Z" fill="#263238"/>
<path d="M128.009 52.9857C127.994 53.1643 128.583 53.338 129.206 53.7096C129.833 54.0668 130.272 54.4964 130.422 54.3998C130.489 54.3516 130.46 54.1682 130.316 53.9268C130.171 53.6855 129.896 53.3959 129.524 53.1739C129.152 52.9567 128.761 52.8554 128.482 52.8457C128.192 52.8361 128.018 52.8988 128.009 52.9857Z" fill="#263238"/>
<path d="M122.672 51.1541C122.716 51.323 123.155 51.3664 123.623 51.5643C124.096 51.7477 124.439 52.0325 124.588 51.9408C124.656 51.8925 124.651 51.7381 124.535 51.545C124.419 51.352 124.183 51.1251 123.859 50.9948C123.536 50.8645 123.213 50.8548 122.991 50.9128C122.769 50.9658 122.658 51.072 122.672 51.1541Z" fill="#263238"/>
<path d="M132.228 59.7803C132.3 59.7803 135.052 60.1567 133.859 62.6038C132.672 65.0508 130.462 63.3518 130.491 63.2795C130.524 63.2071 132.228 59.7803 132.228 59.7803Z" fill="#FFB5C3"/>
<path d="M131.693 62.7174C131.707 62.7126 131.722 62.7657 131.775 62.8381C131.828 62.9057 131.939 62.9829 132.088 62.9974C132.392 63.0263 132.808 62.7223 133.034 62.2879C133.15 62.0707 133.203 61.8342 133.213 61.6218C133.227 61.4046 133.17 61.2261 133.054 61.1392C132.938 61.0475 132.808 61.0813 132.745 61.1344C132.677 61.1875 132.672 61.2454 132.658 61.2405C132.648 61.2454 132.624 61.173 132.692 61.0813C132.725 61.0378 132.783 60.9944 132.861 60.9751C132.943 60.9558 133.039 60.9751 133.126 61.0282C133.309 61.1344 133.392 61.3902 133.387 61.6218C133.392 61.8632 133.334 62.1286 133.203 62.3748C132.948 62.8574 132.47 63.2001 132.069 63.1277C131.876 63.0891 131.755 62.9684 131.712 62.8719C131.669 62.7802 131.678 62.7174 131.693 62.7174Z" fill="#F6ABA8"/>
<path d="M133.647 60.3155C133.309 60.0549 132.498 60.1128 132.179 60.3928C131.861 60.6727 131.644 61.0588 131.325 61.3436C131.007 61.6283 130.5 61.7828 130.162 61.527C129.93 61.3484 129.853 61.0202 129.896 60.7306C129.945 60.441 130.094 60.1804 130.249 59.9294C130.915 58.8387 131.673 57.7961 132.237 56.6523C132.807 55.5084 133.183 54.2197 133.014 52.9504C132.845 51.681 132.049 50.4455 130.842 50.0207C130.046 49.736 129.158 49.8228 128.342 49.5863C127.377 49.3064 126.561 48.5583 126.199 47.6171C126.151 47.4965 125.881 47.0669 125.881 47.0669C125.91 47.009 126.195 46.5119 126.484 46.4154C128.632 45.6914 131.547 46.5215 133.328 47.926C135.109 49.3305 136.354 51.5893 136.378 53.8578C136.403 56.1214 134.974 58.6263 133.647 60.3155Z" fill="#263238"/>
<path d="M133.671 60.0691C134.351 58.9156 135.452 58.0758 136.291 57.0333C137.131 55.9907 137.71 54.5187 137.112 53.3217C136.909 52.9115 136.581 52.5688 136.407 52.1441C136.233 51.7193 136.233 51.2463 136.171 50.7878C135.968 49.3785 135.075 48.0898 133.835 47.3948C132.976 46.917 131.986 46.7191 131.113 46.2606C129.732 45.5366 128.723 44.1901 127.276 43.6205C126.793 43.4323 126.233 43.3358 125.775 43.5771C125.316 43.8136 125.07 44.4797 125.403 44.8754C125.345 44.4121 124.742 44.1611 124.317 44.3493C123.892 44.5424 123.675 45.0492 123.704 45.5125C123.733 45.9759 123.965 46.4054 124.23 46.7915C125.108 48.0512 126.455 48.9779 127.946 49.3495L131.277 49.0889L134.008 51.1112L136.031 54.3304L132.363 59.0942L133.671 60.0691Z" fill="#263238"/>
<path d="M110.148 30.4985C109.732 24.0711 104.189 19.2028 97.7617 19.6141C91.3343 20.0302 86.466 25.5728 86.8773 32.0001C87.1786 36.6532 90.1675 40.4886 94.2324 42.0954C94.3232 43.4727 94.4237 45.0317 94.4237 45.0317L104.619 44.3718C104.619 44.3718 104.576 42.7219 104.505 41.249C108.13 39.0778 110.439 35.0034 110.148 30.4985Z" fill="#9C71BC"/>
<path d="M100.933 44.563C100.933 44.563 100.933 44.5151 100.933 44.4195C100.937 44.3191 100.942 44.1804 100.952 43.9987C100.971 43.6257 101.004 43.0805 101.062 42.3727C101.119 41.6697 101.2 40.8041 101.363 39.8142C101.526 38.8243 101.765 37.6957 102.209 36.5097C102.434 35.9167 102.697 35.3045 103.056 34.7068C103.242 34.415 103.477 34.1233 103.807 33.9416C104.137 33.7599 104.557 33.7312 104.911 33.9081C105.088 33.9942 105.241 34.152 105.308 34.3433C105.385 34.5346 105.375 34.7546 105.299 34.9459C105.141 35.3237 104.816 35.6058 104.452 35.778C103.701 36.0984 102.812 36.084 102.023 35.7636C101.229 35.4432 100.574 34.7641 100.253 33.9273C100.1 33.5112 100 33.0521 100.096 32.5882C100.177 32.1291 100.588 31.6987 101.1 31.7131C101.353 31.7131 101.593 31.8709 101.717 32.0861C101.846 32.2965 101.894 32.5548 101.856 32.7986C101.774 33.2912 101.449 33.6786 101.114 34.0086C100.421 34.6637 99.4453 35.0654 98.4553 34.9698C97.4702 34.8789 96.5568 34.2907 96.0977 33.4395C95.8586 33.0234 95.7725 32.5021 95.9303 32.0335C96.0068 31.8039 96.1694 31.584 96.4085 31.4883C96.6381 31.3831 96.9107 31.407 97.1307 31.5074C97.3506 31.6079 97.5372 31.78 97.6567 31.9857C97.7763 32.1913 97.8432 32.4161 97.8767 32.6456C97.9389 33.0999 97.9054 33.559 97.7858 33.9846C97.5563 34.8454 97.0016 35.5963 96.2699 36.041C95.543 36.4905 94.6822 36.6531 93.8835 36.5288C93.4914 36.4666 93.0849 36.3375 92.798 36.041C92.5206 35.7493 92.4154 35.2663 92.6593 34.9267C92.7788 34.7594 92.9749 34.6637 93.1662 34.635C93.3575 34.6111 93.5535 34.635 93.7305 34.7068C94.0892 34.855 94.3187 35.1611 94.4956 35.4576C94.8304 36.0697 95.103 36.6675 95.3804 37.2366C96.4612 39.5225 97.2454 41.4115 97.7763 42.7218C98.0393 43.377 98.2354 43.8887 98.3693 44.2378C98.4314 44.4099 98.4793 44.5391 98.5175 44.6347C98.551 44.7256 98.5653 44.7734 98.5653 44.7734C98.5653 44.7734 98.5414 44.7304 98.508 44.6395C98.4697 44.5438 98.4171 44.4147 98.3454 44.2473C98.2019 43.8982 97.9915 43.3913 97.7284 42.7409C97.1833 41.4402 96.3846 39.556 95.2943 37.2796C95.0169 36.7153 94.7348 36.108 94.4096 35.5102C94.2374 35.2232 94.0126 34.9363 93.697 34.8072C93.391 34.6781 92.9749 34.7068 92.7693 34.9889C92.5684 35.2663 92.6545 35.6967 92.8984 35.9501C93.1518 36.2179 93.5296 36.3423 93.9122 36.3997C94.6774 36.5192 95.5143 36.3614 96.2077 35.9262C96.9059 35.4958 97.4415 34.7737 97.6567 33.9464C97.7715 33.5351 97.8002 33.0904 97.7428 32.66C97.6854 32.2391 97.4798 31.8039 97.0781 31.6318C96.8868 31.5457 96.662 31.5266 96.4707 31.6126C96.2794 31.6939 96.1407 31.8709 96.069 32.0765C95.9303 32.4926 96.0021 32.9756 96.2316 33.3677C96.6668 34.1759 97.5419 34.7355 98.4793 34.8263C99.4214 34.9172 100.363 34.5298 101.028 33.9033C101.353 33.5877 101.659 33.2147 101.731 32.7747C101.765 32.5643 101.722 32.3395 101.612 32.1578C101.502 31.9761 101.315 31.8565 101.109 31.8518C100.904 31.847 100.698 31.9331 100.545 32.0765C100.387 32.2152 100.292 32.4113 100.249 32.6169C100.158 33.033 100.249 33.4777 100.397 33.8747C100.698 34.6781 101.329 35.3285 102.09 35.6345C102.841 35.9454 103.706 35.9549 104.414 35.6584C104.758 35.4958 105.064 35.2328 105.203 34.8981C105.351 34.5633 105.194 34.1616 104.873 34.0133C104.562 33.8555 104.17 33.8794 103.874 34.042C103.568 34.2094 103.343 34.482 103.161 34.7641C102.807 35.3476 102.539 35.9597 102.319 36.5431C101.87 37.7196 101.626 38.8386 101.459 39.8285C101.291 40.8185 101.2 41.6745 101.138 42.3775C101.081 43.0757 101.033 43.6209 101.004 43.9987C100.99 44.1804 100.976 44.3191 100.971 44.4195C100.942 44.5151 100.933 44.563 100.933 44.563Z" fill="#263238"/>
<path d="M103.96 46.3126L95.2033 46.877C94.8399 46.9009 94.529 46.6235 94.5051 46.26C94.4812 45.8966 94.7586 45.5857 95.122 45.5618L103.878 44.9975C104.242 44.9736 104.553 45.251 104.577 45.6144C104.6 45.9731 104.323 46.2887 103.96 46.3126Z" fill="#263238"/>
<path d="M103.998 46.8882L95.2416 47.4525C94.8782 47.4764 94.6056 47.7872 94.6247 48.1507C94.6486 48.5141 94.9595 48.7867 95.3229 48.7676L96.2842 48.7054L97.7141 51.0487C97.8767 51.3165 98.1779 51.4744 98.4888 51.4504L101.616 51.2496C101.932 51.2305 102.209 51.0344 102.338 50.7427L103.419 48.2416L104.074 48.1985C104.438 48.1746 104.71 47.8638 104.691 47.5003C104.672 47.1369 104.361 46.8643 103.998 46.8882Z" fill="#263238"/>
<g opacity="0.2">
<path opacity="0.2" d="M90.5598 24.3202C91.2963 23.5455 92.0806 22.9859 92.7884 22.6225C93.4962 22.2543 94.1131 22.0582 94.5482 21.9865C94.9834 21.9099 95.2369 21.9386 95.2656 22.0295C95.3277 22.2351 94.4669 22.6082 93.3288 23.4785C92.1954 24.3298 90.799 25.7883 90.029 27.7634C89.2639 29.7433 89.3117 31.7614 89.5747 33.153C89.8282 34.5638 90.2155 35.415 90.0242 35.525C89.9429 35.5728 89.7373 35.4246 89.4647 35.0755C89.1921 34.7264 88.8669 34.1668 88.5943 33.4208C88.317 32.6748 88.1161 31.7279 88.0922 30.6615C88.0683 29.595 88.2452 28.409 88.69 27.2469" fill="white"/>
</g>
<g opacity="0.2">
<path opacity="0.2" d="M98.0967 22.35C97.3602 22.393 96.6955 22.2304 96.595 21.8478C96.552 21.6565 96.6715 21.4413 96.9298 21.2644C97.1832 21.0875 97.5706 20.9488 98.0154 20.9249C98.4553 20.9009 98.857 20.987 99.1296 21.1353C99.407 21.2835 99.5505 21.4796 99.5313 21.6757" fill="white"/>
</g>
<path d="M102.195 50.9573C102.185 50.9812 101.961 50.8951 101.583 50.809C101.205 50.7277 100.669 50.6656 100.086 50.7182C99.4977 50.7755 98.986 50.9334 98.6321 51.0864C98.2782 51.2394 98.0678 51.3638 98.0582 51.3446C98.0486 51.3303 98.2399 51.1725 98.5938 50.9955C98.9477 50.8186 99.4737 50.6369 100.076 50.5795C100.679 50.5221 101.234 50.6034 101.611 50.7134C101.989 50.8234 102.204 50.9477 102.195 50.9573Z" fill="#455A64"/>
<path d="M103.448 48.2691C103.453 48.3074 101.87 48.4413 99.9185 48.5704C97.9674 48.6947 96.3796 48.7664 96.3796 48.7282C96.3749 48.6899 97.9578 48.556 99.9089 48.4269C101.86 48.3026 103.448 48.2308 103.448 48.2691Z" fill="#455A64"/>
<path d="M102.97 49.3453C102.97 49.3644 102.644 49.4218 102.114 49.4888C101.583 49.5557 100.846 49.637 100.029 49.6992C99.2108 49.7614 98.4743 49.7996 97.9387 49.8187C97.4031 49.8331 97.0731 49.8283 97.0684 49.8092C97.0684 49.7901 97.3983 49.7566 97.9292 49.7135C98.5078 49.6705 99.2204 49.6131 100.014 49.5557C100.808 49.4936 101.521 49.4314 102.099 49.3883C102.635 49.3453 102.965 49.3262 102.97 49.3453Z" fill="#455A64"/>
<path d="M24.02 155.047L27.2052 160.145C27.2052 160.145 40.7784 147.652 54.2475 151.181C54.2395 151.181 42.1389 140.921 24.02 155.047Z" fill="#9C71BC"/>
<path d="M54.2395 151.181C54.2395 151.181 64.2033 140.361 78.8168 142.826L82.8024 143.426L81.5299 141.122C81.5219 141.13 56.1122 132.43 54.2395 151.181Z" fill="#9C71BC"/>
<path d="M33.2076 114.703C33.2076 114.703 13.2481 111.27 0.163086 118.352L20.947 157.487C20.947 157.487 37.9614 141.089 54.2396 151.189L33.2076 114.703Z" fill="#F5F5F5"/>
<path d="M33.2076 114.703C33.2076 114.703 33.2476 114.751 33.3116 114.864C33.3837 114.984 33.4877 115.152 33.6078 115.36C33.8799 115.816 34.264 116.464 34.7602 117.304C35.7686 119.033 37.2331 121.538 39.0898 124.715C42.8113 131.126 48.0933 140.241 54.3917 151.101C54.4397 151.189 54.4157 151.293 54.3276 151.341C54.2716 151.373 54.1996 151.373 54.1436 151.341C51.8867 149.957 49.2937 148.9 46.4926 148.404C45.0921 148.172 43.6436 148.076 42.179 148.108C40.7145 148.164 39.2339 148.356 37.7613 148.66C31.8631 149.965 26.1409 153.166 21.2511 157.472L21.083 157.632C21.003 157.712 20.8749 157.704 20.8029 157.624C20.7869 157.608 20.7789 157.592 20.7709 157.576C13.048 143.01 5.89324 129.509 0.0190088 118.425C-0.0210064 118.345 0.00300268 118.249 0.0830331 118.209L0.0910361 118.209C4.66877 115.84 9.31054 114.816 13.3921 114.271C17.4896 113.743 21.091 113.727 24.0361 113.807C26.9812 113.903 29.2781 114.143 30.8387 114.335C31.615 114.431 32.2152 114.519 32.6154 114.583C32.8075 114.615 32.9515 114.647 33.0716 114.663C33.1596 114.687 33.2076 114.695 33.2076 114.703C33.2076 114.703 33.1516 114.703 33.0475 114.687C32.9355 114.671 32.7834 114.655 32.5914 114.631C32.1912 114.583 31.591 114.503 30.8147 114.431C29.2541 114.271 26.9572 114.063 24.0201 113.991C21.083 113.935 17.4896 113.975 13.4161 114.527C9.35855 115.096 4.7488 116.136 0.235091 118.489L0.299115 118.265C6.18935 129.341 13.3681 142.826 21.115 157.384L20.8029 157.344L20.979 157.176C23.4439 154.967 26.1329 153.118 28.934 151.589C31.7431 150.077 34.6802 148.916 37.6733 148.276C39.1699 147.964 40.6744 147.78 42.163 147.716C43.6516 147.692 45.1241 147.788 46.5487 148.028C49.3978 148.54 52.0388 149.621 54.3196 151.029L54.0715 151.269C47.8372 140.393 42.6112 131.278 38.9378 124.859C37.1131 121.658 35.6725 119.129 34.6882 117.384C34.208 116.528 33.8318 115.864 33.5677 115.4C33.4477 115.184 33.3517 115.016 33.2876 114.888C33.2396 114.767 33.2076 114.703 33.2076 114.703Z" fill="#263238"/>
<path d="M64.5794 106.669C64.5794 106.669 49.4857 97.0492 33.4636 114.696L54.4956 151.182C54.4956 151.182 58.7852 136.376 83.8988 141.522L64.5794 106.669Z" fill="#F5F5F5"/>
<path d="M64.5793 106.669C64.5793 106.669 64.6193 106.717 64.6833 106.821C64.7554 106.941 64.8434 107.093 64.9634 107.293C65.2115 107.725 65.5637 108.35 66.0198 109.15C66.9482 110.799 68.2927 113.192 69.9973 116.225C73.4066 122.347 78.2645 131.046 84.0507 141.442C84.0987 141.53 84.0667 141.634 83.9867 141.682C83.9546 141.698 83.9146 141.706 83.8746 141.698L83.8666 141.698C82.6422 141.498 81.3937 141.29 80.1292 141.082C79.497 140.954 78.8487 140.922 78.2005 140.866C77.5522 140.818 76.896 140.762 76.2317 140.706C75.5675 140.626 74.9032 140.642 74.231 140.658C73.5587 140.666 72.8784 140.674 72.1982 140.682C71.5179 140.698 70.8377 140.818 70.1494 140.882C69.4611 140.97 68.7649 141.002 68.0846 141.194C67.4044 141.346 66.7161 141.506 66.0198 141.658C65.3476 141.89 64.6753 142.131 64.0031 142.363C63.3228 142.595 62.7066 142.971 62.0423 143.267C61.7062 143.411 61.4021 143.603 61.098 143.803L60.1776 144.395C59.5694 144.804 59.0252 145.3 58.457 145.764C57.9528 146.3 57.3846 146.78 56.9444 147.381C56 148.517 55.1917 149.829 54.7035 151.222L54.7035 151.23C54.6635 151.334 54.5515 151.39 54.4474 151.35C54.3994 151.334 54.3674 151.302 54.3434 151.262C54.0793 150.798 53.7832 150.294 53.4951 149.789C46.0603 136.865 39.1296 124.828 33.3354 114.76C33.2954 114.696 33.3114 114.616 33.3594 114.56C36.9128 110.679 40.8423 107.725 44.7558 105.997C48.6612 104.228 52.4627 103.788 55.5038 103.98C58.561 104.172 60.8739 104.916 62.3785 105.517C63.1307 105.821 63.691 106.109 64.0591 106.309C64.2352 106.413 64.3632 106.485 64.4672 106.549C64.5393 106.637 64.5793 106.669 64.5793 106.669C64.5793 106.669 64.5233 106.645 64.4352 106.597C64.3312 106.541 64.1871 106.469 64.0111 106.381C63.6349 106.197 63.0747 105.925 62.3144 105.637C60.8019 105.06 58.497 104.356 55.4638 104.196C52.4547 104.028 48.6933 104.492 44.8358 106.269C40.9783 107.998 37.0969 110.951 33.5835 114.808L33.6075 114.616C39.4097 124.668 46.3644 136.704 53.8152 149.613C54.1033 150.118 54.3914 150.622 54.6635 151.086L54.3034 151.126C54.8236 149.629 55.6479 148.317 56.6163 147.14C57.0724 146.524 57.6487 146.028 58.1689 145.484C58.7531 145.012 59.3133 144.499 59.9375 144.091L60.8819 143.491C61.194 143.283 61.5061 143.091 61.8422 142.939C62.5145 142.635 63.1467 142.259 63.843 142.019C64.5313 141.778 65.2195 141.538 65.8998 141.306C66.6041 141.146 67.3003 140.994 67.9966 140.834C68.6848 140.642 69.3971 140.61 70.0854 140.522C70.7816 140.458 71.4699 140.338 72.1662 140.322C72.8544 140.314 73.5427 140.306 74.223 140.298C74.9032 140.282 75.5835 140.274 76.2477 140.354C76.912 140.41 77.5762 140.466 78.2325 140.514C78.8887 140.57 79.545 140.602 80.1772 140.738C81.4497 140.954 82.7062 141.162 83.9386 141.37L83.7466 141.626C78.0164 131.222 73.2146 122.507 69.8373 116.377C68.1646 113.32 66.8522 110.911 65.9398 109.246C65.4996 108.43 65.1635 107.798 64.9234 107.357C64.8114 107.149 64.7313 106.989 64.6673 106.869C64.6033 106.733 64.5793 106.677 64.5793 106.669Z" fill="#263238"/>
<path d="M5.78101 99.5361L28.2856 142.873C28.2856 142.873 46.5805 142.072 54.3194 150.988L33.4635 114.702C33.4635 114.702 21.2349 99.5361 5.78101 99.5361Z" fill="#F5F5F5"/>
<path d="M5.78125 99.5361C5.78125 99.5361 5.96532 99.5361 6.34946 99.5521C6.75762 99.5681 7.33384 99.5922 8.08612 99.6242C8.27819 99.6322 8.48627 99.6402 8.69435 99.6562C8.90243 99.6882 9.11851 99.7282 9.3506 99.7682C9.81478 99.8482 10.311 99.9283 10.8552 100.016C11.4074 100.08 11.9676 100.264 12.5758 100.424C13.1761 100.609 13.8483 100.729 14.5046 100.993C19.8826 102.785 27.1013 107.123 33.5838 114.59L33.5918 114.606L33.5918 114.614C39.5301 124.922 46.7168 137.407 54.4797 150.884C54.5358 150.98 54.5037 151.1 54.4077 151.156C54.3277 151.204 54.2316 151.188 54.1676 151.124L54.1596 151.116C53.8795 150.836 53.5754 150.54 53.2793 150.235C51.6067 148.611 49.6219 147.33 47.5171 146.426C45.4203 145.498 43.2595 144.785 41.0827 144.313C36.729 143.337 32.3914 142.969 28.2858 143.049L28.2778 143.049C28.2058 143.049 28.1417 143.009 28.1097 142.945C21.5472 130.22 15.9451 119.352 11.9676 111.645C10.0069 107.827 8.45426 104.794 7.37385 102.697C6.85365 101.673 6.4455 100.881 6.16539 100.328C6.03734 100.072 5.9333 99.8723 5.86128 99.7202C5.80526 99.6002 5.77324 99.5361 5.78125 99.5361C5.78925 99.5361 5.82926 99.6082 5.90129 99.7522C5.98132 99.9043 6.09336 100.112 6.22942 100.376C6.52553 100.937 6.94969 101.737 7.4939 102.769C8.59832 104.866 10.1909 107.899 12.1997 111.725C16.2012 119.376 21.8433 130.164 28.4539 142.793L28.2778 142.697C32.4234 142.608 36.777 142.969 41.1707 143.953C43.3715 144.425 45.5564 145.145 47.6852 146.082C49.822 147.002 51.8467 148.299 53.5594 149.963C53.8715 150.275 54.1756 150.58 54.4637 150.868L54.1436 151.1C46.4047 137.607 39.234 125.114 33.3117 114.79L33.3277 114.814C30.1585 111.093 26.7012 108.171 23.476 105.899C20.2187 103.658 17.1135 102.097 14.4405 101.193C13.7843 100.921 13.128 100.793 12.5278 100.609C11.9196 100.44 11.3594 100.248 10.8152 100.176C10.279 100.08 9.78277 99.9923 9.31859 99.9043C9.0945 99.8643 8.87042 99.8242 8.66234 99.7842C8.45426 99.7602 8.26219 99.7522 8.07812 99.7362C6.7176 99.6082 6.08536 99.5601 5.78125 99.5361Z" fill="#263238"/>
<path d="M69.1845 164.112L69.5083 164.652C69.8752 165.262 70.4039 165.747 71.0406 166.066L71.6072 166.346L71.0676 166.67C70.4579 167.037 69.9723 167.566 69.6539 168.202L69.3734 168.769L69.0496 168.229C68.6827 167.62 68.1539 167.134 67.5172 166.816L66.9507 166.535L67.4903 166.211C68.1 165.844 68.5856 165.316 68.9039 164.679L69.1845 164.112Z" fill="#9C71BC"/>
<path d="M39.2653 52.8203L39.5891 53.3599C39.956 53.9696 40.4847 54.4552 41.1214 54.7736L41.688 55.0541L41.1484 55.3779C40.5387 55.7448 40.0531 56.2736 39.7347 56.9103L39.4542 57.4768L39.1304 56.9372C38.7635 56.3275 38.2347 55.8419 37.598 55.5236L37.0315 55.243L37.5711 54.9192C38.1808 54.5523 38.6664 54.0236 38.9847 53.3869L39.2653 52.8203Z" fill="#9C71BC"/>
<path d="M177.714 72.0146L178.038 72.5542C178.404 73.1639 178.933 73.6496 179.57 73.9679L180.136 74.2485L179.597 74.5722C178.987 74.9391 178.502 75.4679 178.183 76.1046L177.903 76.6711L177.579 76.1316C177.212 75.5219 176.683 75.0362 176.047 74.7179L175.48 74.4373L176.02 74.1136C176.629 73.7467 177.115 73.2179 177.433 72.5812L177.714 72.0146Z" fill="#9C71BC"/>
<path d="M161.365 171.104L161.689 171.643C162.056 172.253 162.585 172.738 163.221 173.057L163.788 173.337L163.248 173.661C162.639 174.028 162.153 174.557 161.835 175.193L161.554 175.76L161.23 175.22C160.863 174.611 160.335 174.125 159.698 173.807L159.131 173.526L159.671 173.202C160.281 172.836 160.766 172.307 161.085 171.67L161.365 171.104Z" fill="#9C71BC"/>
<path d="M164.477 191.924L164.634 191.989C164.807 192.059 165.001 192.08 165.184 192.043L165.352 192.01L165.287 192.167C165.217 192.339 165.195 192.534 165.233 192.717L165.265 192.884L165.109 192.82C164.936 192.749 164.742 192.728 164.558 192.766L164.391 192.798L164.456 192.641C164.526 192.469 164.548 192.275 164.51 192.091L164.477 191.924Z" fill="#9C71BC"/>
<path d="M173.888 51.1328L174.045 51.1976C174.217 51.2677 174.411 51.2893 174.595 51.2515L174.762 51.2191L174.697 51.3756C174.627 51.5483 174.606 51.7425 174.643 51.926L174.676 52.0932L174.519 52.0285C174.347 51.9584 174.152 51.9368 173.969 51.9745L173.802 52.0069L173.867 51.8504C173.937 51.6778 173.958 51.4835 173.92 51.3001L173.888 51.1328Z" fill="#9C71BC"/>
<path d="M45.3522 38.2773L45.5087 38.3421C45.6813 38.4122 45.8756 38.4338 46.059 38.396L46.2263 38.3637L46.1616 38.5201C46.0914 38.6928 46.0698 38.8871 46.1076 39.0705L46.14 39.2378L45.9835 39.173C45.8108 39.1029 45.6166 39.0813 45.4331 39.1191L45.2659 39.1514L45.3306 38.995C45.4008 38.8223 45.4223 38.6281 45.3846 38.4446L45.3522 38.2773Z" fill="#9C71BC"/>
<path d="M61.215 147.901L61.3715 147.966C61.5441 148.036 61.7384 148.058 61.9218 148.02L62.0891 147.988L62.0244 148.144C61.9542 148.317 61.9326 148.511 61.9704 148.695L62.0028 148.862L61.8463 148.797C61.6736 148.727 61.4794 148.705 61.2959 148.743L61.1287 148.775L61.1934 148.619C61.2636 148.446 61.2851 148.252 61.2474 148.069L61.215 147.901Z" fill="#9C71BC"/>
<path d="M165.848 1.80762C165.848 1.80762 165.799 1.86158 165.702 1.9641C165.594 2.07201 165.443 2.21769 165.255 2.41193C164.85 2.80582 164.262 3.37778 163.512 4.11159C161.979 5.59002 159.778 7.71592 157.042 10.349L157.069 10.2843C157.377 17.0559 157.792 26.2556 158.262 36.4912L158.272 36.7232L158.078 36.5937C157.339 36.0973 156.54 35.5686 155.742 35.0344C150.416 31.4678 145.371 28.0901 140.931 25.1225L140.898 25.1009L140.888 25.0685C138.681 18.4696 136.814 12.9066 135.497 8.97851C134.85 7.02527 134.343 5.4821 133.986 4.41375C133.819 3.89037 133.684 3.48569 133.593 3.19972C133.549 3.07022 133.522 2.96769 133.495 2.88676C133.474 2.81661 133.463 2.77885 133.468 2.77885C133.474 2.77885 133.485 2.81123 133.512 2.88137C133.539 2.95691 133.576 3.05942 133.625 3.18892C133.722 3.46949 133.868 3.87418 134.046 4.39216C134.413 5.45512 134.941 6.99289 135.611 8.94074C136.943 12.8634 138.837 18.4156 141.082 25.0038L141.039 24.9498C145.479 27.9174 150.53 31.2844 155.861 34.8455C156.659 35.3797 157.452 35.9085 158.197 36.4049L158.013 36.5074C157.576 26.2717 157.183 17.0721 156.891 10.3005L156.891 10.2627L156.918 10.2357C159.67 7.62418 161.893 5.51447 163.436 4.05223C164.202 3.3346 164.796 2.77345 165.211 2.38496C165.411 2.20151 165.562 2.06121 165.675 1.9587C165.794 1.85618 165.848 1.80762 165.848 1.80762Z" fill="#9C71BC"/>
<path d="M158.959 33.4082L158.91 34.9352L160.14 35.8417L158.673 36.2679L158.193 37.7194L157.335 36.4514L155.808 36.446L156.741 35.2374L156.277 33.7805L157.718 34.2985L158.959 33.4082Z" fill="#9C71BC"/>
<path d="M141.12 23.0381L141.147 24.0255L141.978 24.5651L141.05 24.8996L140.797 25.8546L140.192 25.0723L139.205 25.1262L139.761 24.3115L139.404 23.3888L140.354 23.664L141.12 23.0381Z" fill="#9C71BC"/>
<path d="M133.437 0.958984L134.181 1.91403L135.395 1.84389L134.715 2.84748L135.158 3.98058L133.987 3.64065L133.048 4.41225L133.01 3.19822L131.985 2.54532L133.129 2.12986L133.437 0.958984Z" fill="#9C71BC"/>
<path d="M165.104 1.21293e-08L165.849 0.960435L167.063 0.884904L166.383 1.8939L166.825 3.0216L165.66 2.68707L164.721 3.45865L164.678 2.24462L163.658 1.58634L164.796 1.17628L165.104 1.21293e-08Z" fill="#9C71BC"/>
<path d="M156.789 9.25098L157.269 9.86068L158.04 9.81212L157.603 10.4542L157.889 11.1772L157.145 10.9614L156.546 11.4524L156.519 10.6808L155.866 10.26L156.594 10.001L156.789 9.25098Z" fill="#9C71BC"/>
<path d="M30.6378 87.8396C38.1715 87.8396 44.2788 81.7323 44.2788 74.1986C44.2788 66.6649 38.1715 60.5576 30.6378 60.5576C23.1041 60.5576 16.9968 66.6649 16.9968 74.1986C16.9968 81.7323 23.1041 87.8396 30.6378 87.8396Z" fill="#9C71BC"/>
<g opacity="0.3">
<g opacity="0.3">
<g opacity="0.3">
<g opacity="0.3">
<path opacity="0.3" d="M28.8658 78.4626C28.8658 79.694 27.8671 80.6859 26.6425 80.6859C25.4111 80.6859 24.4192 79.6871 24.4192 78.4626C24.4192 77.2312 25.418 76.2393 26.6425 76.2393C27.8671 76.2393 28.8658 77.2312 28.8658 78.4626Z" fill="white"/>
</g>
</g>
</g>
</g>
<g opacity="0.3">
<g opacity="0.3">
<g opacity="0.3">
<g opacity="0.3">
<path opacity="0.3" d="M25.706 72.0371C25.706 72.7554 25.1245 73.33 24.4131 73.33C23.6948 73.33 23.1201 72.7485 23.1201 72.0371C23.1201 71.3188 23.7016 70.7441 24.4131 70.7441C25.1314 70.7441 25.706 71.3256 25.706 72.0371Z" fill="white"/>
</g>
</g>
</g>
</g>
<path d="M17.4008 77.5171C17.4624 77.7565 5.72319 89.0169 8.74692 91.4181C11.7706 93.8192 24.5018 87.6623 35.3516 78.899C46.2015 70.1356 56.1141 59.491 53.3982 56.6725C50.6823 53.854 37.1234 62.1932 37.1234 62.1932L38.7448 63.2262C38.7448 63.2262 46.9403 57.9655 49.5399 60.011C52.1326 62.0496 44.7375 70.0262 34.3049 77.6402C23.8724 85.2543 13.7887 90.604 12.2222 88.5174C10.6556 86.4309 18.0439 79.4736 18.0439 79.4736L17.4008 77.5171Z" fill="#9C71BC"/>
<g opacity="0.3">
<g opacity="0.3">
<g opacity="0.3">
<g opacity="0.3">
<path opacity="0.3" d="M17.4008 77.5171C17.4624 77.7565 5.72319 89.0169 8.74692 91.4181C11.7706 93.8192 24.5018 87.6623 35.3516 78.899C46.2015 70.1356 56.1141 59.491 53.3982 56.6725C50.6823 53.854 37.1234 62.1932 37.1234 62.1932L38.7448 63.2262C38.7448 63.2262 46.9403 57.9655 49.5399 60.011C52.1326 62.0496 44.7375 70.0262 34.3049 77.6402C23.8724 85.2543 13.7887 90.604 12.2222 88.5174C10.6556 86.4309 18.0439 79.4736 18.0439 79.4736L17.4008 77.5171Z" fill="black"/>
</g>
</g>
</g>
</g>
<g opacity="0.3">
<g opacity="0.3">
<g opacity="0.3">
<g opacity="0.3">
<g opacity="0.3">
<path opacity="0.3" d="M23.1201 64.591C23.2296 64.721 22.3061 65.5077 21.2594 67.0811C20.2127 68.634 19.1181 71.09 19.0566 73.9358C19.0018 76.7885 20.0006 79.2855 20.9857 80.8795C21.9708 82.4939 22.8602 83.3149 22.7439 83.4449C22.6755 83.5406 21.5809 82.9044 20.3632 81.2968C19.7612 80.4964 19.1592 79.4497 18.7077 78.191C18.2562 76.9391 17.9757 75.4682 18.0031 73.9153C18.0441 72.3624 18.3793 70.9053 18.8787 69.6739C19.3781 68.4357 20.0212 67.4095 20.6574 66.6365C21.9298 65.0836 23.0517 64.4952 23.1201 64.591Z" fill="white"/>
</g>
</g>
</g>
</g>
</g>
<path d="M213.875 41.4374C218.362 37.1371 218.514 30.0134 214.214 25.5261C209.914 21.0388 202.79 20.8871 198.302 25.1874C193.815 29.4876 193.664 36.6113 197.964 41.0986C202.264 45.586 209.388 45.7376 213.875 41.4374Z" fill="#9C71BC"/>
<g opacity="0.4">
<g opacity="0.4">
<g opacity="0.4">
<g opacity="0.4">
<path opacity="0.4" d="M209.764 29.0046C209.791 27.9922 210.626 27.1918 211.645 27.2123C212.657 27.2397 213.458 28.0743 213.437 29.0936C213.41 30.106 212.575 30.9064 211.556 30.8859C210.537 30.8586 209.736 30.0171 209.764 29.0046Z" fill="black"/>
</g>
</g>
</g>
</g>
<g opacity="0.4">
<g opacity="0.4">
<g opacity="0.4">
<g opacity="0.4">
<path opacity="0.4" d="M213.431 33.2931C213.445 32.7047 213.937 32.2395 214.526 32.2532C215.114 32.2669 215.579 32.7595 215.565 33.3478C215.552 33.9361 215.059 34.4013 214.471 34.3876C213.882 34.3671 213.417 33.8814 213.431 33.2931Z" fill="black"/>
</g>
</g>
</g>
</g>
<g opacity="0.4">
<g opacity="0.4">
<g opacity="0.4">
<g opacity="0.4">
<path opacity="0.4" d="M212.001 36.5695C212.22 36.5764 212.391 36.7542 212.384 36.9732C212.377 37.1921 212.199 37.3631 211.98 37.3563C211.762 37.3494 211.591 37.1715 211.597 36.9526C211.604 36.7337 211.782 36.5627 212.001 36.5695Z" fill="black"/>
</g>
</g>
</g>
</g>
</svg>
