<svg width="24" height="24" viewBox="0 0 24 24" fill="none" xmlns="http://www.w3.org/2000/svg">
<g clip-path="url(#clip0)">
<path d="M15.5045 20.0261H3.42633C2.62405 20.0261 1.97131 19.3734 1.97131 18.5711V3.42633C1.97131 2.62401 2.62405 1.97131 3.42633 1.97131H18.5711C19.3733 1.97131 20.0261 2.62401 20.0261 3.42633V15.5046C20.0261 16.0489 20.4674 16.4902 21.0117 16.4902C21.5561 16.4902 21.9974 16.0489 21.9974 15.5046V3.42633C21.9974 1.53706 20.4603 0 18.5711 0H3.42633C1.53706 0 0 1.53706 0 3.42633V18.5711C0 20.4603 1.53706 21.9974 3.42633 21.9974H15.5045C16.0489 21.9974 16.4902 21.5561 16.4902 21.0117C16.4902 20.4674 16.0489 20.0261 15.5045 20.0261Z" fill="#592F72"/>
<path d="M11.9403 6.61285C11.2861 6.28585 10.5138 6.76192 10.5138 7.49445V10.514H9.49682C7.84909 10.514 6.50854 11.8545 6.50854 13.5023C6.50854 15.15 7.84909 16.4905 9.49682 16.4905C11.1446 16.4905 12.4851 15.15 12.4851 13.5023C12.4851 13.0124 12.4851 9.53401 12.4851 9.08929L14.0625 9.87805C14.5494 10.1214 15.1414 9.92409 15.385 9.43722C15.6284 8.95031 15.431 8.35831 14.9441 8.1148L11.9403 6.61285ZM10.5138 13.5023C10.5138 14.063 10.0576 14.5192 9.49682 14.5192C8.93608 14.5192 8.47986 14.063 8.47986 13.5023C8.47986 12.9415 8.93612 12.4853 9.49682 12.4853H10.5138V13.5023Z" fill="#592F72"/>
<path d="M23.0143 20.0261H21.9973V19.0091C21.9973 18.4647 21.556 18.0234 21.0117 18.0234C20.4673 18.0234 20.026 18.4647 20.026 19.0091V20.0261H19.0091C18.4647 20.0261 18.0234 20.4674 18.0234 21.0117C18.0234 21.5561 18.4647 21.9974 19.0091 21.9974H20.0261V23.0143C20.0261 23.5587 20.4673 24 21.0117 24C21.5561 24 21.9974 23.5587 21.9974 23.0143V21.9974H23.0143C23.5587 21.9974 24 21.5561 24 21.0117C24 20.4674 23.5587 20.0261 23.0143 20.0261Z" fill="#592F72"/>
</g>
<defs>
<clipPath id="clip0">
<rect width="24" height="24" fill="white"/>
</clipPath>
</defs>
</svg>
