<svg width="28" height="18" viewBox="0 0 28 18" fill="none" xmlns="http://www.w3.org/2000/svg">
<path d="M23.7853 7.26414C23.4176 4.68192 21.3772 2.7 18.9219 2.7C17.9982 2.7 17.1106 2.98038 16.3408 3.50334C15.1696 1.34382 13.0611 0 10.7188 0C7.10024 0 4.15625 3.22998 4.15625 7.2C4.15625 7.2246 4.15625 7.2501 4.15707 7.2747C1.83148 7.70448 0 9.92898 0 12.6C0 15.5777 2.26248 18 4.97656 18H23.0234C25.7375 18 28 15.5777 28 12.6C28 9.90618 26.1389 7.66758 23.7853 7.26414Z" fill="#592F72"/>
<path d="M16.6648 8.35458L16.4105 8.0755C16.3305 7.98773 16.224 7.93945 16.1102 7.93945C15.9964 7.93945 15.8898 7.98773 15.8098 8.0755L12.2356 11.9969L10.0024 9.54676C9.92248 9.45914 9.81585 9.41079 9.70208 9.41079C9.58837 9.41079 9.4818 9.45914 9.40181 9.54676L9.14737 9.82578C9.06738 9.91368 9.02344 10.0307 9.02344 10.1554C9.02344 10.2802 9.06738 10.3972 9.14737 10.4849L11.6687 13.2511C11.6721 13.2563 11.6756 13.2612 11.6797 13.2656L11.9342 13.5401C12.0141 13.6275 12.1207 13.6712 12.2354 13.6712H12.2367C12.3505 13.6712 12.4572 13.6275 12.537 13.5401L12.7915 13.2632C12.7956 13.2587 12.7991 13.2551 12.8011 13.2513L16.6648 9.01277C16.8305 8.83136 16.8305 8.5362 16.6648 8.35458Z" fill="white"/>
</svg>
