<svg width="19" height="24" viewBox="0 0 19 24" fill="none" xmlns="http://www.w3.org/2000/svg">
<path d="M12.3944 0.995094C12.2924 0.887708 12.1526 0.823242 12.0077 0.823242H3.33356C1.73295 0.823242 0.411743 2.13919 0.411743 3.73963V20.1426C0.411743 21.7432 1.73295 23.0591 3.33356 23.0591H15.1067C16.7073 23.0591 18.0285 21.7432 18.0285 20.1426V7.11797C18.0285 6.97835 17.964 6.84416 17.8728 6.74203L12.3944 0.995094ZM12.5501 2.71921L16.2185 6.57018H13.8338C13.1249 6.57018 12.5501 6.00085 12.5501 5.2919V2.71921ZM15.1067 21.9849H3.33356C2.32926 21.9849 1.48594 21.1525 1.48594 20.1426V3.73963C1.48594 2.73533 2.32383 1.89744 3.33356 1.89744H11.4759V5.2919C11.4759 6.59699 12.5287 7.64438 13.8338 7.64438H16.9543V20.1426C16.9543 21.1525 16.1164 21.9849 15.1067 21.9849Z" fill="#592F72"/>
<path d="M13.6403 18.2793H4.79967C4.50432 18.2793 4.26257 18.5209 4.26257 18.8164C4.26257 19.1118 4.50432 19.3535 4.79967 19.3535H13.6457C13.9411 19.3535 14.1828 19.1118 14.1828 18.8164C14.1828 18.5209 13.9411 18.2793 13.6403 18.2793Z" fill="#592F72"/>
<path d="M8.82797 16.3504C8.9301 16.4578 9.06972 16.5223 9.22002 16.5223C9.3705 16.5223 9.51012 16.4578 9.61208 16.3504L12.7595 12.9721C12.9636 12.7571 12.9475 12.4134 12.7327 12.2148C12.5178 12.0107 12.1741 12.0266 11.9754 12.2416L9.75712 14.6209V8.75585C9.75712 8.46033 9.51538 8.21875 9.22002 8.21875C8.92467 8.21875 8.68292 8.46033 8.68292 8.75585V14.6209L6.47006 12.2416C6.26597 12.0268 5.92753 12.0107 5.71276 12.2148C5.49798 12.4189 5.48187 12.7573 5.68595 12.9721L8.82797 16.3504Z" fill="#592F72"/>
</svg>
