<svg width="20" height="20" viewBox="0 0 20 20" fill="none" xmlns="http://www.w3.org/2000/svg">
<path d="M11.6486 14.3408L8.96271 10.5797H10.0001C10.2164 10.5797 10.415 10.4606 10.5169 10.2701C10.6187 10.0795 10.6072 9.84837 10.4877 9.66868L7.96998 5.89212H8.82826C9.05029 5.89212 9.25283 5.76681 9.3524 5.56825C9.45138 5.3697 9.43021 5.13224 9.29689 4.95485L6.3672 0.228291C6.14634 -0.0669824 5.6508 -0.0669824 5.42994 0.228291L2.50025 4.95485C2.36693 5.13224 2.34576 5.3697 2.44474 5.56825C2.54431 5.76681 2.74685 5.89212 2.96888 5.89212H3.8272L1.30951 9.66868C1.1899 9.84837 1.17849 10.0795 1.28033 10.2701C1.38216 10.4606 1.58072 10.5797 1.79705 10.5797H2.83447L0.109468 14.3408C-0.0181886 14.5193 -0.0353371 14.7545 0.0653661 14.9496C0.165483 15.1447 0.366343 15.2672 0.586069 15.2672H11.172C11.3917 15.2672 11.5926 15.1447 11.6927 14.9496C11.7934 14.7545 11.7763 14.5193 11.6486 14.3408Z" fill="#592F72"/>
<path d="M19.4141 18.8213H15.2734V16.4385H12.9297V18.8213H7.07031V16.4385H4.72656V18.8213H0.585938C0.26207 18.8213 0 19.0834 0 19.4072C0 19.7311 0.26207 19.9932 0.585938 19.9932H19.4141C19.7379 19.9932 20 19.7311 20 19.4072C20 19.0834 19.7379 18.8213 19.4141 18.8213Z" fill="#592F72"/>
<path d="M19.8908 14.3407L17.1658 10.5796H18.2032C18.4195 10.5797 18.618 10.4606 18.7199 10.2701C18.8217 10.0795 18.8103 9.84837 18.6907 9.66868L16.173 5.89212H17.0313C17.2533 5.89212 17.4559 5.76681 17.5554 5.56825C17.6544 5.3697 17.6333 5.13224 17.4999 4.95485L14.5702 0.228291C14.3494 -0.0669824 13.8538 -0.0669824 13.633 0.228291L10.7033 4.95485C10.57 5.13224 10.5488 5.3697 10.6478 5.56825C10.7474 5.76681 10.9499 5.89212 11.1719 5.89212H12.0302L10.7042 7.88118L11.4626 9.01864C11.8226 9.55939 11.8563 10.2506 11.5502 10.8222C11.418 11.07 11.232 11.2766 11.0111 11.4322L12.6024 13.6598C12.9408 14.1336 13.0044 14.7292 12.8117 15.2671H19.4141C19.6338 15.2671 19.8347 15.1446 19.9348 14.9495C20.0355 14.7544 20.0184 14.5192 19.8908 14.3407Z" fill="#592F72"/>
</svg>
