<svg width="28" height="22" viewBox="0 0 28 22" fill="none" xmlns="http://www.w3.org/2000/svg">
<path d="M16.6649 8.35458L16.4106 8.0755C16.3306 7.98773 16.2241 7.93945 16.1103 7.93945C15.9965 7.93945 15.8899 7.98773 15.81 8.0755L12.2357 11.9969L10.0025 9.54676C9.92261 9.45914 9.81597 9.41079 9.7022 9.41079C9.58849 9.41079 9.48192 9.45914 9.40193 9.54676L9.14749 9.82578C9.0675 9.91368 9.02356 10.0307 9.02356 10.1554C9.02356 10.2802 9.0675 10.3972 9.14749 10.4849L11.6689 13.2511C11.6722 13.2563 11.6757 13.2612 11.6799 13.2656L11.9343 13.5401C12.0142 13.6275 12.1209 13.6712 12.2355 13.6712H12.2368C12.3507 13.6712 12.4573 13.6275 12.5371 13.5401L12.7916 13.2632C12.7957 13.2587 12.7992 13.2551 12.8013 13.2513L16.6649 9.01277C16.8306 8.83136 16.8306 8.5362 16.6649 8.35458Z" fill="white"/>
<circle cx="13" cy="11" r="11" fill="#592F72"/>
<path d="M8.60105 12.2366C8.64197 12.2436 8.68338 12.2468 8.72481 12.2462L15.7796 12.2462L15.6258 12.3213C15.4754 12.396 15.3386 12.4976 15.2215 12.6216L13.2432 14.6978C12.9826 14.9588 12.9388 15.3787 13.1394 15.6927C13.3729 16.0273 13.8206 16.0999 14.1394 15.8549C14.1652 15.8351 14.1897 15.8135 14.2127 15.7903L17.7902 12.036C18.0697 11.7429 18.07 11.2675 17.7907 10.9741C17.7905 10.9739 17.7903 10.9737 17.7902 10.9735L14.2127 7.21918C13.9329 6.92637 13.4799 6.92702 13.2008 7.22066C13.1789 7.24377 13.1584 7.26836 13.1394 7.29427C12.9389 7.60824 12.9826 8.02814 13.2432 8.28916L15.2179 10.3691C15.3229 10.4793 15.4436 10.5718 15.5757 10.6431L15.7903 10.7445L8.76418 10.7445C8.39868 10.7302 8.078 10.9982 8.00933 11.3752C7.94608 11.7845 8.21099 12.1702 8.60105 12.2366Z" fill="white"/>
</svg>
