<svg width="53" height="53" viewBox="0 0 53 53" fill="none" xmlns="http://www.w3.org/2000/svg">
<path d="M43.46 27.3725C43.46 26.3125 42.6494 25.502 41.5894 25.502C40.5294 25.502 39.7189 26.3125 39.7189 27.3725C39.7189 34.6678 33.7953 40.5914 26.5 40.5914C19.2047 40.5914 13.2812 34.6678 13.2812 27.3725C13.2812 26.3125 12.4706 25.502 11.4106 25.502C10.3506 25.502 9.54004 26.3125 9.54004 27.3725C9.54004 36.0396 16.0247 43.3349 24.6294 44.2702V49.2584H17.833C16.773 49.2584 15.9624 50.069 15.9624 51.129C15.9624 52.189 16.773 52.9996 17.833 52.9996H35.1671C36.2271 52.9996 37.0377 52.189 37.0377 51.129C37.0377 50.069 36.2271 49.2584 35.1671 49.2584H28.3706V44.2702C36.9753 43.3349 43.46 36.0396 43.46 27.3725Z" fill="#592F72"/>
<path d="M26.5001 0C20.7636 0 16.0872 4.67647 16.0872 10.4129V27.3106C16.0872 33.1094 20.7636 37.7235 26.5001 37.7859C32.2366 37.7859 36.913 33.1094 36.913 27.3729V10.4129C36.913 4.67647 32.2366 0 26.5001 0Z" fill="#592F72"/>
</svg>
