<svg width="14" height="20" viewBox="0 0 14 20" fill="none" xmlns="http://www.w3.org/2000/svg">
<path d="M12.8049 12.7194C13.4265 11.6793 13.8388 10.3638 13.9188 9.06211C13.9696 8.22665 13.7834 7.34965 13.3803 6.52496C12.748 5.22946 11.6617 4.50171 10.6124 3.79857C9.82924 3.27391 9.08918 2.77848 8.56606 2.07072L8.4722 1.94456C8.16294 1.52914 7.81368 1.05833 7.75829 0.662906C7.7029 0.26287 7.33979 -0.0217704 6.94284 0.00130852C6.53972 0.0290033 6.22739 0.362879 6.22739 0.76753V14.4764C5.58272 14.0856 4.7888 13.8456 3.91949 13.8456C1.7993 13.8456 0.072998 15.2257 0.072998 16.9228C0.072998 18.6199 1.7993 20 3.91949 20C6.03968 20 7.76598 18.6199 7.76598 16.9228V7.95586C8.92147 8.39744 10.8124 9.52215 11.3325 12.1485C11.2355 12.2916 11.1432 12.4455 11.0355 12.5686C10.7539 12.8871 10.7847 13.3733 11.1047 13.6533C11.4217 13.9364 11.9079 13.9025 12.1895 13.584C12.3956 13.3502 12.5787 13.0763 12.7541 12.7901C12.7726 12.7686 12.7896 12.7455 12.8049 12.7194Z" fill="#592F72"/>
</svg>
