<svg version="1.0" xmlns="http://www.w3.org/2000/svg" width="100" height="100" viewBox="0 0 100.000000 100.000000">
<g transform="translate(0.000000,100.000000) scale(0.100000,-0.100000)" fill="#000000" stroke="none">
<path d="M762 902 c-13 -13 -25 -16 -38 -11 -33 13 -133 10 -170 -6 -20 -8
-66 -43 -102 -78 -82 -79 -87 -82 -214 -112 -122 -28 -138 -42 -138 -117 0
-64 48 -159 126 -245 l55 -63 -20 -22 c-32 -34 -29 -107 5 -142 38 -37 110
-37 148 0 14 15 26 33 26 41 0 11 5 13 18 7 9 -4 42 -10 72 -12 82 -5 96 9
125 136 30 127 33 132 112 214 77 81 95 120 92 203 -2 52 1 65 19 83 29 29 30
94 2 122 -26 26 -93 27 -118 2z m-23 -80 c46 -34 71 -81 71 -134 0 -62 -15
-90 -85 -158 -66 -64 -86 -100 -109 -195 -39 -157 -33 -145 -74 -145 -65 0
-139 46 -243 149 -108 109 -152 183 -147 247 l3 39 75 16 c143 30 175 46 260
125 43 40 91 76 107 80 15 3 33 7 38 8 20 5 79 -13 104 -32z"/>
<path d="M516 731 c-80 -78 -111 -96 -193 -114 -47 -11 -59 -18 -61 -35 -3
-18 1 -22 26 -22 17 0 60 9 97 21 57 17 79 31 141 90 41 39 88 75 104 81 19 6
30 17 30 29 0 15 -7 19 -36 19 -31 0 -46 -10 -108 -69z"/>
</g>
</svg>
