<svg width="21" height="21" viewBox="0 0 21 21" fill="none" xmlns="http://www.w3.org/2000/svg">
<g clip-path="url(#clip0)">
<path d="M6.77439 18.6498C6.77439 19.1821 6.3389 19.6175 5.80664 19.6175H1.80662C1.27435 19.6175 0.838867 19.1821 0.838867 18.6498V14.2627C0.838867 13.7304 1.27435 13.2949 1.80662 13.2949H5.80664C6.3389 13.2949 6.77439 13.7304 6.77439 14.2627V18.6498Z" fill="#592F72"/>
<path d="M13.8872 18.6501C13.8872 19.1824 13.4517 19.6179 12.9194 19.6179H8.91941C8.38715 19.6179 7.95166 19.1824 7.95166 18.6501V11.9404C7.95166 11.4081 8.38715 10.9727 8.91941 10.9727H12.9194C13.4517 10.9727 13.8872 11.4081 13.8872 11.9404V18.6501Z" fill="#592F72"/>
<path d="M21 18.6488C21 19.181 20.5645 19.6165 20.0322 19.6165H16.0322C15.4999 19.6165 15.0645 19.181 15.0645 18.6488V9.35837C15.0645 8.82611 15.4999 8.39062 16.0322 8.39062H20.0322C20.5645 8.39062 21 8.82611 21 9.35837V18.6488Z" fill="#592F72"/>
<path d="M20.1629 1.40282L15.8161 2.46037C15.4712 2.54386 15.3943 2.81747 15.6452 3.06838L16.5728 3.97425C16.6507 4.06303 16.5583 4.18109 16.485 4.23109C15.9009 4.6298 14.974 5.21484 13.6928 5.8833C6.71756 9.52248 0.967651 9.29925 0.881199 9.29532C0.419648 9.2719 0.025 9.62745 0.00112886 10.0898C-0.0226777 10.5524 0.332937 10.9467 0.795521 10.9706C0.829521 10.9723 0.96778 10.9786 1.20023 10.9786C2.69102 10.9786 8.04615 10.7213 14.4687 7.37053C15.9884 6.57769 17.0417 5.89388 17.6567 5.46097C17.7437 5.39974 17.8952 5.2942 18.0351 5.43658L19.0496 6.45104C19.3005 6.70195 19.5728 6.62472 19.6549 6.27949L20.641 1.87876C20.7229 1.53346 20.5077 1.31933 20.1629 1.40282Z" fill="#592F72"/>
</g>
<defs>
<clipPath id="clip0">
<rect width="21" height="21" fill="white"/>
</clipPath>
</defs>
</svg>
