<svg width="22" height="21" viewBox="0 0 22 21" fill="none" xmlns="http://www.w3.org/2000/svg">
<g clip-path="url(#clip0)">
<path d="M11.0264 0C5.23649 0 0.526367 4.71012 0.526367 10.5C0.526367 16.2899 5.23649 21 11.0264 21C16.8162 21 21.5264 16.2899 21.5264 10.5C21.5264 4.71012 16.8162 0 11.0264 0ZM11.0264 16.625C10.5434 16.625 10.1514 16.233 10.1514 15.75C10.1514 15.267 10.5434 14.875 11.0264 14.875C11.5094 14.875 11.9014 15.267 11.9014 15.75C11.9014 16.233 11.5094 16.625 11.0264 16.625ZM12.4115 11.0618C12.1017 11.2044 11.9014 11.5167 11.9014 11.8571V12.25C11.9014 12.733 11.5102 13.125 11.0264 13.125C10.5425 13.125 10.1514 12.733 10.1514 12.25V11.8571C10.1514 10.836 10.7516 9.89975 11.6782 9.47188C12.5699 9.0615 13.2139 7.97213 13.2139 7.4375C13.2139 6.23175 12.233 5.25 11.0264 5.25C9.81974 5.25 8.83887 6.23175 8.83887 7.4375C8.83887 7.9205 8.44774 8.3125 7.96387 8.3125C7.47999 8.3125 7.08887 7.9205 7.08887 7.4375C7.08887 5.26662 8.85549 3.5 11.0264 3.5C13.1972 3.5 14.9639 5.26662 14.9639 7.4375C14.9639 8.61963 13.9384 10.3574 12.4115 11.0618Z" fill="#592F72"/>
</g>
<defs>
<clipPath id="clip0">
<rect width="21" height="21" fill="white" transform="translate(0.526367)"/>
</clipPath>
</defs>
</svg>
