<svg width="22" height="22" viewBox="0 0 22 22" fill="none" xmlns="http://www.w3.org/2000/svg">
<circle cx="11" cy="11" r="11" fill="#592F72"/>
<g clip-path="url(#clip0)">
<path d="M12.7523 15.013H6.71317C6.31203 15.013 5.98566 14.6867 5.98566 14.2855V6.71317C5.98566 6.312 6.31203 5.98566 6.71317 5.98566H14.2855C14.6867 5.98566 15.013 6.312 15.013 6.71317V12.7523C15.013 13.0245 15.2337 13.2451 15.5059 13.2451C15.778 13.2451 15.9987 13.0245 15.9987 12.7523V6.71317C15.9987 5.76853 15.2302 5 14.2855 5H6.71317C5.76853 5 5 5.76853 5 6.71317V14.2855C5 15.2302 5.76853 15.9987 6.71317 15.9987H12.7523C13.0244 15.9987 13.2451 15.778 13.2451 15.5059C13.2451 15.2337 13.0245 15.013 12.7523 15.013Z" fill="white"/>
<path d="M10.9701 8.30642C10.643 8.14292 10.2569 8.38096 10.2569 8.74722V10.257H9.74841C8.92454 10.257 8.25427 10.9273 8.25427 11.7511C8.25427 12.575 8.92454 13.2453 9.74841 13.2453C10.5723 13.2453 11.2426 12.575 11.2426 11.7511C11.2426 11.5062 11.2426 9.767 11.2426 9.54464L12.0313 9.93902C12.2747 10.0607 12.5707 9.96205 12.6925 9.71861C12.8142 9.47516 12.7155 9.17915 12.4721 9.0574L10.9701 8.30642ZM10.2569 11.7511C10.2569 12.0315 10.0288 12.2596 9.74841 12.2596C9.46804 12.2596 9.23993 12.0315 9.23993 11.7511C9.23993 11.4708 9.46806 11.2426 9.74841 11.2426H10.2569V11.7511Z" fill="white"/>
<path d="M16.5071 15.013H15.9987V14.5045C15.9987 14.2324 15.778 14.0117 15.5058 14.0117C15.2337 14.0117 15.013 14.2324 15.013 14.5045V15.013H14.5045C14.2324 15.013 14.0117 15.2337 14.0117 15.5059C14.0117 15.778 14.2324 15.9987 14.5045 15.9987H15.013V16.5072C15.013 16.7794 15.2337 17 15.5059 17C15.778 17 15.9987 16.7794 15.9987 16.5072V15.9987H16.5072C16.7793 15.9987 17 15.778 17 15.5059C17 15.2337 16.7793 15.013 16.5071 15.013Z" fill="white"/>
</g>
<defs>
<clipPath id="clip0">
<rect width="12" height="12" fill="white" transform="translate(5 5)"/>
</clipPath>
</defs>
</svg>
