<svg width="20" height="20" viewBox="0 0 20 20" fill="none" xmlns="http://www.w3.org/2000/svg">
<path d="M18.6945 15.6135C18.8743 15.0415 18.5563 14.4322 17.9844 14.2525C15.4317 13.4503 14.3477 8.87887 14.0936 7.19306C14.0564 6.95434 13.9331 6.72278 13.9331 6.72278C13.4643 5.83079 11.6899 5.41457 11.4902 5.39051C11.1315 5.34736 11.0859 5.07303 11.0708 4.97976C11.6974 4.54393 12.1205 3.49165 12.1205 2.54129C12.1205 1.1378 11.9723 0 10.0602 0C10.0345 0 9.93633 0 9.91066 0C7.99845 0 7.85035 1.1378 7.85035 2.54129C7.85035 3.49165 8.27348 4.54393 8.90005 4.97976C8.88496 5.07303 8.82542 5.352 8.48066 5.39051C8.26574 5.41463 6.22872 5.89536 5.95485 6.93331C5.95485 6.93331 5.92118 7.08173 5.9008 7.19725C5.89809 7.2128 5.68704 8.78057 5.05551 10.4835C4.51679 11.9361 3.55173 13.7691 2.01324 14.2525C1.44131 14.4322 1.12344 15.0416 1.30314 15.6135C1.44763 16.0732 1.86959 16.3683 2.32652 16.3733C1.41164 16.8995 1.27773 17.6331 1.27773 18.0132C1.27773 18.1643 1.35584 18.6555 1.71279 19.1081C2.03323 19.515 2.67212 20 3.895 20C4.07851 20 4.27253 19.989 4.47184 19.9676C5.28526 19.8802 6.10553 19.7488 6.89857 19.6218C7.18644 19.5756 7.47405 19.5297 7.76212 19.4855C8.14571 19.4266 8.83735 19.3876 9.81739 19.3696H10.1534C11.1334 19.3876 11.8251 19.4266 12.2086 19.4855C12.4967 19.5297 12.7843 19.5756 13.0722 19.6218C13.8652 19.7488 14.6855 19.8802 15.4989 19.9676C15.6983 19.989 15.8923 20 16.0758 20C17.2986 20 17.9375 19.5149 18.258 19.1081C18.6149 18.6555 18.693 18.1643 18.693 18.0132C18.693 17.633 18.5591 16.8994 17.644 16.3732C17.6491 16.3733 17.6542 16.3738 17.6593 16.3738C18.1208 16.3738 18.5488 16.077 18.6945 15.6135ZM6.01258 15.4761C5.462 15.6474 5.33557 15.6654 4.86459 15.7323C4.71133 15.7539 4.52292 15.7807 4.27337 15.8192C4.02897 15.8452 3.80489 15.8801 3.59836 15.922C5.01397 15.1399 6.15571 13.6488 7.0019 11.4721C7.04912 11.8962 7.07834 12.3633 7.07834 12.8769C7.07834 14.5525 6.22963 15.4085 6.01258 15.4761ZM15.6974 15.8192C15.4478 15.7807 15.2598 15.7511 15.1062 15.7323C13.6229 15.5496 12.8924 14.5525 12.8924 12.8769C12.8924 12.3414 12.924 11.8559 12.9749 11.4176C13.8262 13.6318 14.9803 15.1445 16.4149 15.9308C16.1968 15.8849 15.9586 15.847 15.6974 15.8192Z" fill="#592F72"/>
</svg>
