<?xml version="1.0" standalone="no"?>
<!DOCTYPE svg PUBLIC "-//W3C//DTD SVG 20010904//EN"
 "http://www.w3.org/TR/2001/REC-SVG-20010904/DTD/svg10.dtd">
<svg version="1.0" xmlns="http://www.w3.org/2000/svg" viewBox="0 0 100.000000 100.000000" preserveAspectRatio="xMidYMid meet">
<g transform="translate(0.000000,100.000000) scale(0.100000,-0.100000)"
fill="#000000" stroke="none">
<path d="M120 750 c0 -123 1 -130 20 -130 19 0 20 7 20 92 l0 93 93 -93 c87
-87 117 -106 132 -82 4 6 -37 56 -91 110 l-98 100 92 0 c85 0 92 1 92 20 0 19
-7 20 -130 20 l-130 0 0 -130z"/>
<path d="M620 860 c0 -19 7 -20 92 -20 l93 0 -93 -93 c-89 -89 -111 -127 -75
-127 10 0 59 42 110 92 l93 93 0 -93 c0 -85 1 -92 20 -92 19 0 20 7 20 130 l0
130 -130 0 c-123 0 -130 -1 -130 -20z"/>
<path d="M120 250 l0 -130 130 0 c123 0 130 1 130 20 0 19 -7 20 -92 20 l-93
0 93 93 c50 51 92 100 92 110 0 36 -38 14 -127 -75 l-93 -93 0 93 c0 85 -1 92
-20 92 -19 0 -20 -7 -20 -130z"/>
<path d="M620 363 c0 -10 42 -59 92 -110 l93 -93 -93 0 c-85 0 -92 -1 -92 -20
0 -19 7 -20 130 -20 l130 0 0 130 c0 123 -1 130 -20 130 -19 0 -20 -7 -20 -92
l0 -93 -93 93 c-89 89 -127 111 -127 75z"/>
</g>
</svg>
