<svg width="249" height="287" viewBox="0 0 249 287" fill="none" xmlns="http://www.w3.org/2000/svg">
<defs>
<linearGradient id="paint0_linear" x1="123" y1="86.1055" x2="120.873" y2="103.396" gradientUnits="userSpaceOnUse">
<stop offset="0.684" stop-color="#2B265D" stop-opacity="0.9148"/>
<stop offset="1" stop-color="#FF8270" stop-opacity="0"/>
</linearGradient>
</defs>
<path d="M62.3189 85.0988C60.7071 96.145 64.9093 107.931 74.9716 115.564C88.5338 125.859 107.806 134.221 115.67 149.742C118.306 154.955 119.768 160.766 123.314 165.46C126.711 169.967 131.742 173.049 136.715 175.899C143.013 179.511 149.564 182.991 156.759 184.394C170.978 187.177 182.997 180.185 194.453 173.237C199.841 169.967 201.948 163.008 200.555 157.032C199.162 151.056 194.867 146.03 189.859 142.23C187.05 140.098 183.953 138.242 181.65 135.613C179.348 132.984 177.932 129.295 179.187 126.08C179.797 124.523 180.971 123.23 182.226 122.082C191.448 113.532 205.758 111.621 215.683 102.972C220.368 98.8845 226.033 94.8305 223.247 88.49C221.197 83.8174 214.29 81.2547 209.5 83.0773C207.163 83.972 204.814 85.6732 202.397 84.9883C200.347 84.4028 199.196 82.1604 199.311 80.1169C199.438 78.0733 200.555 76.2065 201.81 74.5496C207.773 66.6736 215.982 64.6521 224.271 60.101C230.811 56.511 237.419 50.7117 241.875 44.9124C246.549 38.837 249.335 31.3145 248.966 23.7699C248.598 16.2253 244.902 8.74695 238.593 4.24007C228.842 -2.74117 213.99 0.031444 203.64 4.461C192.081 9.40973 182.307 18.4566 177.425 29.7349C175.618 33.9214 174.42 38.373 172.06 42.3055C170.172 45.4426 167.57 48.1821 164.485 50.2699C161.572 52.2361 157.899 53.65 154.491 52.6669C151.302 51.7501 149 48.7897 148.539 45.6415C147.676 39.7538 153.087 35.965 152.431 29.9447C151.901 25.0402 148.965 20.3566 144.763 17.5398C138.511 13.3643 130.038 12.9998 122.877 15.4962C113.782 18.6665 106.54 26.3216 104.111 35.3022C102.96 39.5881 102.798 44.2276 100.565 48.1048C96.3051 55.4837 86.4385 57.461 78.8169 61.6475C69.1921 66.9497 63.6774 75.7536 62.3189 85.0988Z" fill="#592F72"/>
<path d="M126.515 182.363C121.576 181.236 116.476 180.805 111.41 181.104C106.033 181.424 100.369 182.738 96.6503 186.494C95.7177 187.444 94.9118 188.527 93.8066 189.289C90.7326 191.399 86.4843 190.316 82.7542 190.913C79.2197 191.476 76.1688 193.542 72.83 194.779C68.4781 196.381 63.7578 196.546 59.2217 197.408C55.054 198.192 51.2433 200.048 47.421 201.749C40.755 204.72 33.4903 209.006 30.1401 215.568C27.6533 220.428 28.4131 225.73 31.2338 230.304C35.6433 237.473 45.7286 239.229 54.3633 238.423C63.1246 237.605 72.1623 234.369 80.6473 237.44C88.5797 240.312 98.3887 242.609 106.874 243.338C113.574 243.913 120.355 243.338 127.01 242.598C139.087 241.262 151.072 238.102 163.137 238.047C176.723 237.992 195.546 238.5 205.896 228.558C212.171 222.538 212.712 214.706 207.036 208.145C204.388 205.085 200.969 202.655 197.354 200.755C195.535 199.805 193.635 198.932 191.678 198.292C189.537 197.596 187.579 196.491 185.403 195.861C183.089 195.188 180.66 194.867 178.242 194.922C173.626 195.033 168.928 196.502 164.461 195.364C162.435 194.845 160.582 193.829 158.555 193.31C155.585 192.547 152.396 192.912 149.426 192.172C146.501 191.443 143.991 189.686 141.401 188.184C136.784 185.511 131.742 183.545 126.515 182.363Z" fill="#592F72"/>
<path d="M105.446 139.865C104.594 133.038 104.847 125.019 101.992 118.457C97.1681 119.772 91.9758 119.065 87.1403 120.556C81.4069 122.323 76.2836 126.046 73.2212 131.061C70.5387 135.457 69.3759 140.638 66.3134 144.791C64.4138 147.365 61.8694 149.42 59.6359 151.728C53.6837 157.881 49.919 165.956 49.1016 174.318C48.8944 176.45 48.8944 178.692 49.942 180.581C52.9584 186.027 61.1096 182.735 64.7131 179.83C68.7542 176.582 71.7821 171.855 75.3165 168.088C76.3642 166.972 77.4234 165.834 78.7359 164.995C79.8757 164.266 81.1766 163.791 82.374 163.15C86.6222 160.886 89.4314 156.721 91.2965 152.413C91.5268 151.883 91.757 151.331 92.1715 150.922C93.2307 149.862 95.1648 150.116 96.3276 151.066C99.0332 153.253 99.6664 158.632 102.476 160.168C103.281 160.61 104.26 160.599 105.193 160.587C105.803 160.576 106.424 160.565 107.035 160.543C107.104 153.65 106.309 146.724 105.446 139.865Z" fill="#9C71BC"/>
<path d="M133.55 120.138C132.813 119.763 132.053 119.244 131.212 118.515C128.887 116.471 127.402 113.798 126.561 110.915C125.882 108.617 125.64 106.209 125.813 103.834C126.055 100.531 127.091 97.2836 128.898 94.4558C129.485 93.539 130.153 92.6553 130.671 91.6942C131.696 89.8164 131.765 87.9495 132.249 85.9502C133.377 81.2224 133.239 75.9091 132.732 71.115C132.663 70.4081 132.559 69.679 132.156 69.0825C131.005 67.3924 127.471 66.8732 125.732 65.5919C123.257 63.7582 120.425 65.6692 117.616 66.332C114.369 67.0831 111.042 67.5692 107.703 67.7569C107.127 67.7901 106.529 67.8122 105.999 68.0442C104.548 68.6627 104.157 70.4522 104.019 71.9656C103.524 77.2678 103.155 83.0781 104.894 88.1815C105.446 89.8053 106.229 91.3187 106.966 92.8651C108.175 95.4058 109.821 97.3831 110.455 100.2C112.17 107.789 108.451 117.233 99.8857 118.967C103.593 125.01 105.377 131.903 106.678 138.74C107.07 140.795 109.545 160.468 108.647 160.501C114.438 160.292 120.287 159.607 124.949 156.436C127.344 154.802 129.152 152.449 131.558 150.858C132.41 150.295 133.308 149.886 134.229 149.566C133.066 139.79 132.755 129.981 133.55 120.138Z" fill="#FFB5C3"/>
<path d="M182.25 166.013C180.788 162.092 179.314 158.126 176.988 154.613C174.559 150.935 171.266 147.853 168.722 144.263C165.729 140.043 163.806 135.161 160.548 131.118C155.839 125.263 148.091 121.331 140.343 121.143C138.213 121.099 136.636 121.132 135.127 120.734C134.379 130.201 134.69 139.668 135.795 149.079C137.108 148.726 138.466 148.449 139.848 148.096C140.446 147.941 141.091 147.787 141.678 147.974C142.127 148.118 142.484 148.438 142.806 148.759C144.441 150.349 145.788 152.216 146.79 154.238C147.815 156.303 148.482 158.557 149.852 160.435C151.729 162.986 154.699 164.544 157.267 166.466C163.334 171.017 172.326 190.326 182.376 185.896C190.631 182.251 184.23 171.348 182.25 166.013Z" fill="#9C71BC"/>
<path d="M92.8266 176.131C93.195 177.534 93.5634 178.948 93.8397 180.373C94.3233 182.914 95.0486 187.619 92.5273 189.354C99.3775 191.176 107.103 191.508 114.172 191.673C119.537 191.806 124.902 191.607 130.232 191.088C132.523 190.867 134.837 190.79 137.128 190.514C139.016 190.282 140.985 190.536 142.678 189.597C142.954 189.442 143.219 189.265 143.345 188.989C143.449 188.746 143.414 188.47 143.38 188.216C142.781 184.007 142.102 179.732 142.781 175.535C143.345 172.066 144.807 168.808 145.901 165.472C147.052 161.948 147.801 158.303 148.123 154.613C148.25 153.1 148.307 151.531 147.743 150.117C147.225 148.803 146.224 147.72 145.233 146.682C142.977 144.307 139.339 141.258 138.452 138.033C137.497 134.575 138.257 130.146 139.512 126.865C140.248 124.954 141.031 122.977 142.574 121.585C142.436 121.706 141.492 121.353 140.444 120.922C138.66 120.734 136.887 120.513 135.137 120.105C134.365 119.928 133.502 119.707 132.684 119.398C128.678 123.33 121.908 124.943 116.428 124.656C110.948 124.369 105.583 121.96 101.991 118.006C99.884 118.779 97.6966 119.354 95.4746 119.63C96.9482 120.712 97.8693 122.369 98.3298 124.092C99.8725 129.892 99.5041 136.166 97.0403 141.678C95.866 144.296 94.07 147.51 91.6753 149.289C90.5701 150.106 89.5569 150.206 88.8777 151.52C88.1408 152.945 88.1754 154.746 88.5208 156.259C89.0619 158.546 90.2707 160.633 90.8809 162.898C91.6293 165.671 91.445 168.587 91.8135 171.437C92.0437 173.016 92.4352 174.574 92.8266 176.131Z" fill="#9C71BC"/>
<path d="M115.06 159.661C111.917 163.362 107.105 165.184 102.603 164.389C98.1014 163.594 94.0258 160.191 92.0571 155.585" stroke="#592F72" stroke-width="0.5" stroke-miterlimit="10"/>
<path d="M123.004 159.661C126.147 163.362 130.959 165.184 135.461 164.389C139.962 163.594 144.038 160.191 146.007 155.585" stroke="#592F72" stroke-width="0.5" stroke-miterlimit="10"/>
<path d="M54.4224 188.148C58.095 190.965 62.8959 192.887 66.0619 193.074C73.1539 193.494 79.8314 190.015 86.8428 188.921C90.3312 188.38 93.9117 188.435 97.3656 187.728C100.255 187.143 102.984 186.027 105.689 184.9C107.946 183.972 110.548 183.608 112.666 182.415C113.346 182.028 113.956 181.542 114.554 181.056C116.857 179.211 117.076 175.202 117.41 172.473C118.031 167.414 119.701 162.101 119.217 157.008C119.114 155.86 118.469 154.357 117.294 154.6C116.512 154.766 116.189 155.661 115.994 156.412C115.188 159.637 114.393 162.852 113.587 166.077C113.092 168.077 112.574 170.12 111.4 171.844C108.303 176.395 101.084 175.423 96.2373 175.29C90.0318 175.124 83.8379 174.45 77.7476 173.28C72.9467 172.352 68.1343 171.103 63.2413 171.236C59.1542 171.346 52.3846 172.948 50.1626 176.737C47.7334 180.879 50.3813 185.044 54.4224 188.148Z" fill="#FFB5C3"/>
<path d="M181.512 188.47C179.049 190.028 176.101 190.889 173.2 191.585C170.345 192.27 167.397 192.856 164.485 192.436C161.422 192.005 158.648 190.503 155.666 189.729C150.681 188.437 145.327 189.199 140.296 188.05C135.633 186.99 131.42 184.317 126.653 183.831C123.787 183.544 120.563 183.963 118.341 182.196C115.014 179.545 116.948 175.612 117.051 172.243C117.224 166.632 116.372 160.413 118.226 155C120.551 157.077 121.311 160.302 121.588 163.34C121.864 166.378 121.795 169.515 122.946 172.365C124.719 176.75 134.804 175.402 138.5 175.314C144.878 175.148 151.245 174.486 157.508 173.304C162.435 172.376 167.363 171.128 172.383 171.26C181.04 171.492 192.841 178.816 183.182 187.233C182.652 187.686 182.088 188.095 181.512 188.47Z" fill="#FFB5C3"/>
<path d="M122.174 70.3067C125.778 68.7713 129.773 68.2079 133.238 70.384C134.009 70.8701 134.723 71.4776 135.587 71.7759C137.832 72.5491 140.319 70.9032 141.309 68.8265C142.575 66.1865 142.103 63.204 142.402 60.3982C142.679 57.7361 143.715 55.1402 143.911 52.4891C144.198 48.402 142.782 42.9782 138.672 40.9789C135.736 39.5539 132.144 40.4376 129.163 41.7963C125.156 43.6189 121.599 46.2258 118.651 49.4072C113.931 54.4995 101.485 60.3982 102.66 68.6498C102.902 70.3509 103.949 71.8421 104.997 73.234C105.745 74.2281 106.54 75.2333 107.656 75.8298C110.327 77.2438 113.655 75.7525 116.061 73.9409C117.799 72.6375 119.906 71.2788 122.174 70.3067Z" fill="#592F72"/>
<path d="M134.781 80.5589C133.71 79.7083 132.225 79.9072 131.212 80.7688C130.349 81.5089 130.061 82.4036 130.337 83.2652C130.095 83.6076 129.957 83.9943 130.049 84.414C130.072 84.5024 130.095 84.6018 130.118 84.6902C130.268 85.2867 130.809 85.7727 131.408 85.9274C134.505 86.7227 137.544 82.7571 134.781 80.5589Z" fill="#FFB5C3"/>
<path d="M106.886 83.828C106.966 83.0879 106.805 82.5025 106.644 81.7734C106.609 81.5967 106.529 81.4531 106.448 81.3316C106.368 81.0223 106.218 80.7351 105.838 80.5694C103.04 79.288 99.5289 81.4641 100.968 84.5792C101.544 85.8164 102.845 86.5344 104.249 86.4018C105.458 86.2803 106.54 85.485 106.632 84.3693C106.759 84.2147 106.863 84.0379 106.886 83.828Z" fill="#FFB5C3"/>
<path d="M126.987 97.0723C124.132 99.2373 120.977 99.5577 117.489 99.4141C116.971 99.392 116.579 99.3478 116.28 99.3257C115.877 101.48 115.405 103.623 114.841 105.733C115.854 105.998 116.833 106.428 117.788 106.87C120.286 108.052 122.785 109.223 125.283 110.405C125.686 108.174 125.444 105.887 125.444 103.623C125.444 101.347 125.709 98.9833 126.987 97.0723Z" fill="url(#paint0_linear)"/>
<path d="M114.092 225.196C104.801 223.926 95.3262 224.39 85.9892 223.627C81.0041 223.219 76.1917 221.871 71.3563 220.678C67.5455 219.739 61.9387 218.977 58.0588 219.551C56.7694 219.739 55.4915 220.115 54.179 220.104C52.8665 220.093 51.4619 219.595 50.8402 218.491C50.207 217.375 50.5869 215.928 51.4274 214.945C52.2678 213.962 53.4882 213.365 54.7086 212.868C62.4913 209.72 71.5635 209.764 78.7821 205.545C79.5189 205.114 80.2327 204.639 81.0617 204.429C84.1817 203.645 88.3148 207.146 90.3296 209.157C91.6536 210.482 93.7029 210.814 95.6025 211.035C101.048 211.653 106.54 211.819 112.008 211.554C115.105 211.399 113.966 217.221 114 219.253C114 219.629 113.943 225.185 114.092 225.196Z" fill="#FFB5C3"/>
<path d="M194.97 205.172C188.787 205.238 182.916 206.895 176.987 204.907C170.954 202.896 164.737 199.969 158.278 202.057C153.005 203.758 148.158 208.198 142.321 207.823C139.996 207.668 137.831 206.707 135.621 206C130.843 204.487 128.137 206.53 123.751 207.988C121.207 208.839 118.547 209.369 115.865 209.579C112.365 209.855 109.924 208.651 109.152 212.683C108.139 217.963 107.379 223.409 106.309 228.744C106.09 229.827 105.871 230.898 105.653 231.981C105.434 233.417 105.204 234.842 104.927 236.267C107.31 236.709 109.694 237.129 112.077 237.526C127.067 240.056 142.172 242.453 157.426 242.751C170.827 243.005 187.268 242.619 199.575 237.095C204.111 235.063 208.29 231.97 210.662 227.728C211.997 225.331 212.711 223 212.872 220.791C213.54 211.855 205.389 205.061 194.97 205.172Z" fill="#592F72"/>
<path d="M138.419 250.02C148.321 249.136 158.314 250.086 168.238 249.733C178.335 249.368 188.915 245.104 198.874 248.274C200.014 248.639 201.176 249.081 202.362 248.904C203.548 248.727 204.676 247.623 204.331 246.529C204.204 246.142 203.928 245.822 203.663 245.513C200.831 242.298 198.102 240.807 194.223 238.94C190.182 237.571 185.726 237.747 181.858 235.814C177.771 233.76 173.534 230.733 169.032 231.738C167.455 232.092 166.05 232.92 164.565 233.55C159.246 235.825 155.182 234.19 149.921 233.947C149.196 233.914 139.49 233.693 139.479 233.881C139.479 233.892 138.419 250.02 138.419 250.02Z" fill="#FFB5C3"/>
<path d="M148.631 247.104C149.414 242.365 151.463 236.742 151.199 231.97C149.311 231.816 147.422 231.661 145.534 231.495C144.406 231.407 143.255 231.297 142.219 230.844C140.929 230.269 139.962 229.198 138.96 228.226C131.281 220.803 120.505 217.146 109.821 218.593C107.231 218.947 104.629 219.499 102.027 219.223C98.3428 218.836 94.4284 216.903 91.0436 215.522C86.7953 213.788 82.5125 212.142 78.1261 210.75C74.1196 209.48 70.021 208.375 65.8072 208.221C62.7678 208.099 59.7284 208.475 56.689 208.718C53.0509 209.005 49.4013 209.082 45.7632 208.961C42.7238 208.862 39.5347 208.221 36.6335 209.403C34.6302 210.22 33.0645 211.8 31.798 213.501C28.8392 217.533 27.354 222.614 28.0794 227.486C28.8047 232.368 31.8326 236.952 36.3111 239.371C39.0051 240.829 42.0906 241.481 45.1415 242.011C60.0508 244.629 75.432 245.447 90.4794 247.446C109.096 249.932 128.081 252.262 146.847 252.991C147.123 253.003 147.434 252.991 147.607 252.793C147.71 252.682 147.733 252.516 147.756 252.373C148.044 250.628 148.332 248.871 148.631 247.104Z" fill="#592F72"/>
<path d="M116.74 88.9866C117.442 89.5831 118.386 89.9145 119.319 89.9034C120.251 89.8924 121.184 89.5499 121.886 88.9424" stroke="#29273D" stroke-width="0.75" stroke-miterlimit="10"/>
<path d="M108.014 80.9674C109.787 82.1273 112.296 82.1162 114.058 80.9453" stroke="#29273D" stroke-width="0.75" stroke-miterlimit="10"/>
<path d="M122.439 80.6689C122.796 81.155 123.383 81.4311 123.982 81.5747C125.329 81.8951 126.825 81.5968 127.908 80.7684" stroke="#29273D" stroke-width="0.75" stroke-miterlimit="10"/>
<path d="M-0.000488281 270.498H246.307" stroke="#592F72" stroke-width="2" stroke-miterlimit="10"/>
<path d="M34.2856 277.68H142.196" stroke="#592F72" stroke-miterlimit="10"/>
<path d="M161.237 277.68H199.334" stroke="#592F72" stroke-miterlimit="10"/>
<path d="M86.3359 285.533C90.3655 285.533 94.3835 285.533 98.413 285.533" stroke="#592F72" stroke-miterlimit="10"/>
<path d="M95.9834 217.6C97.6182 219.146 100.163 219.257 102.442 219.168C108.532 218.947 114.657 218.064 120.69 218.925C127.218 219.853 133.4 222.902 138.006 227.442C138.858 228.292 139.686 229.198 140.757 229.784C141.586 230.237 142.519 230.457 143.451 230.634C145.719 231.065 149.415 231.639 151.729 231.518C150.923 234.788 150.244 237.66 149.841 240.996C149.53 243.558 149.311 246.231 148.01 248.496" stroke="#592F72" stroke-width="0.5" stroke-miterlimit="10"/>
<path d="M157.854 239.833C158.499 239.402 159.477 239.524 159.984 240.087C160.502 240.662 160.479 241.601 159.938 242.153" stroke="#592F72" stroke-width="0.5" stroke-miterlimit="10"/>
<path d="M173.914 204.442C169.505 203.581 165.349 201.106 160.87 201.504C154.561 202.056 149.679 208.132 143.347 207.988C139.41 207.9 135.795 205.348 131.869 205.613C129.52 205.768 127.39 206.905 125.215 207.778C120.517 209.656 115.302 210.308 110.259 209.645C109.557 212.738 108.855 215.842 108.152 218.935" stroke="#592F72" stroke-width="0.5" stroke-miterlimit="10"/>
<path d="M205.494 219.32C206.461 219.619 207.233 220.469 207.382 221.441C207.532 222.413 207.071 223.441 206.231 224.004" stroke="#592F72" stroke-width="0.5" stroke-miterlimit="10"/>
<path d="M35.0799 221.055C33.9171 221.43 32.9731 222.402 32.6737 223.551C32.3744 224.7 32.7313 225.981 33.5833 226.832" stroke="#592F72" stroke-width="0.5" stroke-miterlimit="10"/>
<path d="M183.459 180.781C183.828 181.786 183.471 183.001 182.607 183.675" stroke="#592F72" stroke-width="0.5" stroke-miterlimit="10"/>
<path d="M53.7525 178.66C53.0503 179.632 53.3151 181.135 54.3282 181.819" stroke="#592F72" stroke-width="0.5" stroke-miterlimit="10"/>
<path d="M132.549 119.795C129.521 122.512 125.468 124.048 121.347 124.534C117.225 125.02 113.034 124.501 109.028 123.484" stroke="#592F72" stroke-width="0.5" stroke-miterlimit="10"/>
<path d="M117.19 126.864C121.473 126.687 125.721 125.781 129.693 124.213" stroke="#592F72" stroke-width="0.5" stroke-miterlimit="10"/>
<path d="M148.573 158.159C148.446 158.159 148.331 158.159 148.205 158.159C147.871 154.701 147.203 151.233 146.869 147.775" stroke="#592F72" stroke-width="0.5" stroke-miterlimit="10"/>
<path d="M89.1323 156.225C89.731 152.525 90.3412 148.825 90.9399 145.124" stroke="#592F72" stroke-width="0.5" stroke-miterlimit="10"/>

</svg>
