<svg width="21" height="15" viewBox="0 0 21 15" fill="none" xmlns="http://www.w3.org/2000/svg">
<path d="M0.838379 11.3203H20.1451L20.0893 11.8802C19.9166 13.2617 18.9344 14.0684 17.9361 14.0684H3.04732C1.91914 14.0684 1.03603 13.0971 0.895391 11.8904C0.893832 11.8779 0.901584 11.9544 0.838379 11.3203Z" fill="#592F72"/>
<path d="M20.9868 2.88356L20.2678 10.09H0.715874L0.0137682 3.03655C-0.174166 1.38252 1.60989 0.618026 2.43353 1.5645C4.41512 3.8494 4.62725 4.30045 5.29294 4.22108C5.54313 4.19065 5.72192 4.07855 5.8704 3.94177C9.90482 0.0711239 9.64097 0.32177 9.68251 0.288917C10.2255 -0.128786 10.9238 -0.05988 11.3329 0.280714C15.4094 3.70609 15.2205 3.55524 15.3115 3.60708C15.6921 3.82582 16.141 3.79797 16.5247 3.42169C18.7901 1.19569 18.6464 1.3344 18.6885 1.30077C19.7248 0.493913 21.1526 1.43153 20.9868 2.88356Z" fill="#592F72"/>
</svg>
