<svg width="22" height="20" viewBox="0 0 22 20" fill="none" xmlns="http://www.w3.org/2000/svg">
<g clip-path="url(#clip0)">
<path d="M3.59082 8.30469H1.08887C0.748807 8.30469 0.473633 8.56538 0.473633 8.88754C0.473633 9.2097 0.748807 9.4704 1.08887 9.4704H3.59082C3.93088 9.4704 4.20605 9.2097 4.20605 8.88754C4.20605 8.56538 3.93088 8.30469 3.59082 8.30469Z" fill="#592F72"/>
<path d="M19.5869 8.30469H17.126C16.7859 8.30469 16.5107 8.56538 16.5107 8.88754C16.5107 9.2097 16.7859 9.4704 17.126 9.4704H19.5869C19.927 9.4704 20.2021 9.2097 20.2021 8.88754C20.2021 8.56538 19.927 8.30469 19.5869 8.30469Z" fill="#592F72"/>
<path d="M17.319 2.29379C17.0787 2.06613 16.6893 2.06613 16.449 2.29379L14.709 3.94218C14.4687 4.16984 14.4687 4.53871 14.709 4.76637C14.9494 4.99404 15.3387 4.99404 15.579 4.76637L17.319 3.11799C17.5593 2.89032 17.5593 2.52146 17.319 2.29379Z" fill="#592F72"/>
<path d="M6.00795 3.94218L4.26799 2.29379C4.02768 2.06613 3.63832 2.06613 3.39801 2.29379C3.1577 2.52146 3.1577 2.89032 3.39801 3.11799L5.13797 4.76637C5.37828 4.99404 5.76764 4.99404 6.00795 4.76637C6.24826 4.53871 6.24826 4.16984 6.00795 3.94218Z" fill="#592F72"/>
<path d="M10.3584 0.105469C10.0183 0.105469 9.74316 0.36616 9.74316 0.688322V3.05859C9.74316 3.38076 10.0183 3.64145 10.3584 3.64145C10.6985 3.64145 10.9736 3.38076 10.9736 3.05859V0.688322C10.9736 0.36616 10.6985 0.105469 10.3584 0.105469Z" fill="#592F72"/>
<path d="M10.2576 12.0567C10.2582 12.0575 10.2589 12.0582 10.2595 12.059C10.2372 12.0272 10.2376 12.0279 10.2576 12.0567Z" fill="#592F72"/>
<path d="M10.2579 12.0559C10.011 11.7203 9.47175 11.7209 9.22623 12.0581L6.5315 15.9049L5.31333 14.3663C5.06724 14.0515 4.57501 14.0515 4.32892 14.3663L0.596496 19.0679C0.461144 19.2428 0.436535 19.4759 0.534972 19.6741C0.645714 19.8723 0.854894 20.0005 1.08868 20.0005H15.8092C15.7319 19.8904 10.5709 12.5058 10.2579 12.0559Z" fill="#592F72"/>
<path d="M10.3584 4.80664C7.64452 4.80664 5.43652 6.89842 5.43652 9.46947C5.43652 10.8478 6.07489 12.0997 7.1146 12.964L8.20147 11.4127C8.55954 10.9209 9.13154 10.638 9.74316 10.638C9.86941 10.638 9.99221 10.6573 10.1134 10.6806L11.8935 8.14725C12.239 7.66515 12.8127 7.38281 13.4346 7.38281C14.0564 7.38281 14.6302 7.66515 14.969 8.1387L15.1234 8.3582C14.5937 6.32466 12.6661 4.80664 10.3584 4.80664Z" fill="#592F72"/>
<path d="M21.3621 19.0906L13.9514 8.7936C13.7177 8.46724 13.1517 8.46724 12.9179 8.7936L11.1685 11.2837C11.4225 11.5748 12.9473 13.8391 17.2865 19.9999H20.8575C21.079 19.9999 21.2882 19.8833 21.3989 19.6968C21.5097 19.4987 21.4974 19.2772 21.3621 19.0906Z" fill="#592F72"/>
</g>
<defs>
<clipPath id="clip0">
<rect width="21" height="19.8947" fill="white" transform="translate(0.473633 0.105469)"/>
</clipPath>
</defs>
</svg>
