<svg width="378" height="121" viewBox="0 0 378 121" fill="none" xmlns="http://www.w3.org/2000/svg">
<mask id="mask0" style="mask-type:alpha" maskUnits="userSpaceOnUse" x="0" y="0" width="378" height="121">
<rect width="378" height="121" rx="10" fill="#11123F"/>
</mask>
<g mask="url(#mask0)">
<path opacity="0.3" d="M10.3372 -97.6057C73.7601 -103.439 138.418 -95.4407 198.507 -74.3301C201.528 -73.2708 204.657 -72.0979 206.838 -69.7578C209.019 -67.4177 209.908 -63.5435 207.958 -61.0004C206.243 -58.7704 203.118 -58.3258 200.316 -58.0572C191.798 -57.2399 183.281 -56.4155 174.763 -55.5982C168.497 -54.9924 160.752 -53.1468 159.443 -46.989C158.587 -42.9377 161.305 -38.8179 164.863 -36.7023C168.421 -34.5867 172.656 -34.0201 176.755 -33.4537C176.755 -33.4537 325.142 -0.879663 369.641 23.202C325.015 -2.79794 278.125 -20.4316 227.824 -32.1496C223.793 -33.0865 217.734 -35.1286 214.382 -37.5613C211.03 -39.994 208.694 -44.3457 209.917 -48.2996C211.775 -54.3147 219.661 -55.4515 225.955 -55.4792C234.514 -55.5204 243.069 -55.5647 251.628 -55.6059C254.442 -55.6191 257.598 -55.7746 259.504 -57.8427C261.677 -60.1915 261.144 -64.1311 259.183 -66.6614C257.221 -69.1916 254.213 -70.6408 251.303 -71.9717C193.38 -98.4594 102.289 -119.116 28.8063 -112.937L10.3372 -97.6057Z" fill="#1F2052"/>
<path opacity="0.3" d="M83.2637 181.371C146.687 175.538 211.345 183.536 271.434 204.646C274.455 205.706 277.584 206.879 279.764 209.219C281.945 211.559 282.834 215.433 280.885 217.976C279.17 220.206 276.044 220.651 273.242 220.919C264.725 221.737 256.207 222.561 247.69 223.378C241.423 223.984 233.678 225.83 232.37 231.988C231.513 236.039 234.231 240.159 237.789 242.274C241.347 244.39 245.582 244.956 249.682 245.523C249.682 245.523 398.068 278.097 442.568 302.179C397.941 276.179 351.051 258.545 300.751 246.827C296.72 245.89 290.661 243.848 287.308 241.415C283.956 238.983 281.621 234.631 282.844 230.677C284.702 224.662 292.588 223.525 298.882 223.497C307.441 223.456 315.996 223.412 324.555 223.371C327.369 223.357 330.524 223.202 332.43 221.134C334.603 218.785 334.071 214.845 332.109 212.315C330.148 209.785 327.14 208.336 324.23 207.005C266.307 180.517 175.215 159.86 101.733 166.039L83.2637 181.371Z" fill="#1F2052"/>
<path opacity="0.3" d="M42.8286 135.916C53.9561 123.022 125.728 200.824 116.319 186.631C90.3483 147.447 122.437 118.476 164.851 114.971C190.468 112.854 249.679 122.556 271.946 121.884C277.229 121.726 282.962 121.036 286.753 117.347C291.526 112.706 291.43 104.683 288.336 98.785C282.99 88.5904 270.84 80.9282 261.408 74.9446C246.937 65.7586 231.143 58.869 215.355 52.3067C191.561 42.4249 166.739 35.0726 141.52 29.8782C141.287 29.8311 141.061 29.7832 140.832 29.7392C109.378 23.3156 77.1412 20.6862 45.0671 22.0776C32.654 22.6174 20.367 24.8225 8.52552 28.5781C76.8667 21.994 155.076 36.2867 227.394 68.5792C232.977 71.0734 238.648 73.7435 243.366 77.5245C248.083 81.3055 251.754 86.4455 251.584 90.9639C251.392 96.0975 246.54 100.281 240.368 99.968C234.407 99.6655 227.764 99.4549 221.254 98.3254C188.587 92.6474 156.205 89.4416 124.661 88.7575C110.406 88.4473 96.1856 88.6681 83.4954 91.5921C70.8092 94.5192 59.6471 100.364 53.8917 109.762L42.8286 135.916Z" fill="#1F2052"/>
<path opacity="0.3" d="M-78.3261 -18.7121C-77.8194 -19.3597 24.4045 -9.79003 113.747 17.0026C72.4512 10.3467 15.0305 4.17278 -70.1049 21.8884C-70.0351 21.8741 -72.1476 9.55252 -72.3356 8.42451C-72.9998 4.41654 -79.4337 -17.2932 -78.3261 -18.7121Z" fill="#1F2052"/>
<path opacity="0.4" d="M93.9121 94.7938C94.2881 95.0993 94.8406 95.0421 95.1461 94.6661C95.4516 94.2901 95.3944 93.7376 95.0184 93.4321C94.6424 93.1266 94.0899 93.1837 93.7844 93.5598C93.4789 93.9358 93.536 94.4883 93.9121 94.7938Z" fill="white"/>
<path opacity="0.4" d="M282.225 41.9852C282.601 42.2907 283.153 42.2335 283.459 41.8575C283.764 41.4815 283.707 40.929 283.331 40.6235C282.955 40.318 282.402 40.3751 282.097 40.7512C281.791 41.1272 281.849 41.6797 282.225 41.9852Z" fill="white"/>
<path opacity="0.4" d="M175.326 87.7899C175.702 88.0954 176.254 88.0382 176.56 87.6622C176.865 87.2862 176.808 86.7337 176.432 86.4282C176.056 86.1227 175.504 86.1798 175.198 86.5559C174.893 86.9319 174.95 87.4844 175.326 87.7899Z" fill="white"/>
<path opacity="0.4" d="M139.347 65.8329C139.723 66.1384 140.276 66.0812 140.581 65.7052C140.887 65.3291 140.83 64.7766 140.454 64.4711C140.078 64.1656 139.525 64.2228 139.22 64.5988C138.914 64.9749 138.971 65.5274 139.347 65.8329Z" fill="white"/>
<path opacity="0.4" d="M26.5852 45.1024C26.9612 45.4079 27.5137 45.3507 27.8192 44.9747C28.1247 44.5987 28.0675 44.0462 27.6915 43.7407C27.3155 43.4352 26.763 43.4923 26.4575 43.8684C26.152 44.2444 26.2091 44.7969 26.5852 45.1024Z" fill="white"/>
<path opacity="0.7" d="M197.277 9.0332L199.969 10.4972L197.985 8.16169L199.289 7.78085L197.934 7.66807L199.398 4.97576L197.066 6.96319L196.679 5.65986L196.569 7.0111L193.88 5.5503L195.861 7.88261L194.558 8.2705L195.916 8.37939L194.448 11.0685L196.783 9.08427L197.168 10.3915L197.277 9.0332Z" fill="#282964"/>
<path opacity="0.7" d="M220.655 118.966L223.343 120.427L221.363 118.095L222.666 117.707L221.308 117.598L222.776 114.909L220.44 116.893L220.056 115.586L219.947 116.944L217.254 115.48L219.239 117.815L217.935 118.196L219.29 118.309L217.826 121.001L220.157 119.014L220.545 120.317L220.655 118.966Z" fill="#282964"/>
<path opacity="0.7" d="M305.447 106.509L308.139 107.973L306.155 105.638L307.455 105.254L306.104 105.144L307.568 102.452L305.233 104.436L304.845 103.133L304.739 104.487L302.047 103.023L304.031 105.358L302.724 105.743L304.082 105.852L302.618 108.544L304.953 106.56L305.334 107.864L305.447 106.509Z" fill="#282964"/>
<path opacity="0.7" d="M291.255 9.79808L293.948 11.2621L291.963 8.92657L293.264 8.54257L291.912 8.43296L293.376 5.74064L291.041 7.72491L290.653 6.42159L290.547 7.77599L287.855 6.31202L289.839 8.6475L288.532 9.03223L289.89 9.14111L288.426 11.8334L290.762 9.84916L291.143 11.1532L291.255 9.79808Z" fill="#282964"/>
<path opacity="0.7" d="M82.623 38.3293L85.3121 39.7972L83.3278 37.4617L84.6312 37.0738L83.2768 36.9681L84.7407 34.2758L82.4052 36.2601L82.0205 34.9528L81.9116 36.3111L79.2193 34.8472L81.2067 37.1788L79.8995 37.5635L81.2547 37.6763L79.7907 40.3686L82.1262 38.3843L82.5102 39.6845L82.623 38.3293Z" fill="#282964"/>
<path opacity="0.7" d="M87.1332 70.72L89.8255 72.1839L87.8381 69.8523L89.1414 69.4645L87.7863 69.3517L89.251 66.6664L86.9187 68.6468L86.5308 67.3435L86.4219 68.7018L83.7327 67.2339L85.717 69.5694L84.4098 69.9541L85.7681 70.063L84.3041 72.7553L86.6357 70.7679L87.0205 72.0751L87.1332 70.72Z" fill="#282964"/>
<path d="M362.426 26.2786C340.557 20.145 343.746 38.5457 348.302 38.5457C350.174 38.5457 354.054 39 358.782 39H373.133C391.357 39 396.596 37.7884 396.824 37.4098C398.419 25.3699 388.775 26.5057 383.612 27.8687C384.447 23.4011 383.566 14.3749 373.36 14.0114C363.155 13.648 361.818 22.0381 362.426 26.2786Z" fill="url(#paint0_linear)"/>
<path d="M207.426 108.279C185.557 102.145 188.746 120.546 193.302 120.546C195.174 120.546 199.054 121 203.782 121H218.133C236.357 121 241.596 119.788 241.824 119.41C243.419 107.37 233.775 108.506 228.612 109.869C229.447 105.401 228.566 96.3749 218.36 96.0114C208.155 95.648 206.818 104.038 207.426 108.279Z" fill="url(#paint1_linear)"/>
<path d="M263.426 64.2786C241.557 58.145 244.746 76.5457 249.302 76.5457C251.174 76.5457 255.054 77 259.782 77H274.133C292.357 77 297.596 75.7884 297.824 75.4098C299.419 63.3699 289.775 64.5057 284.612 65.8687C285.447 61.4011 284.566 52.3749 274.36 52.0114C264.155 51.648 262.818 60.0381 263.426 64.2786Z" fill="url(#paint2_linear)"/>
<path d="M272.582 44.3901L267.115 36.4277C266.687 35.7997 266.848 34.9165 267.482 34.4046L300.622 7.6993C301.266 7.18113 302.169 7.22521 302.677 7.79827L306.43 12.0392C306.938 12.6123 306.872 13.5166 306.275 14.0922L274.848 44.5134C274.164 45.1833 273.084 45.1236 272.582 44.3901Z" fill="#F9FAFB"/>
<path d="M270.165 69.6499L262.887 62.3285C262.283 61.7233 262.342 60.7091 263.02 60.1224L294.595 32.6337C295.237 32.077 296.189 32.1178 296.727 32.7274L301.722 38.3697C302.242 38.9585 302.193 39.8617 301.613 40.4418L272.32 69.604C271.715 70.2134 270.745 70.2291 270.165 69.6499Z" fill="#F9FAFB"/>
<path d="M270.845 53.9965L264.559 46.8954C264.2 46.4944 264.241 45.8733 264.643 45.5206L286.91 25.8136C287.311 25.4554 287.932 25.4964 288.285 25.8977L294.571 32.9988C294.929 33.3997 294.888 34.0208 294.487 34.3736L272.219 54.0805C271.818 54.4388 271.197 54.3978 270.845 53.9965Z" fill="#592F72"/>
<path d="M218.301 15.2455L210.767 9.20562C210.177 8.73191 210.073 7.83909 210.535 7.16204L234.552 -27.9713C235.019 -28.6543 235.893 -28.8732 236.544 -28.4699L241.365 -25.4934C242.016 -25.0901 242.214 -24.209 241.81 -23.4862L220.501 14.7164C220.044 15.5477 218.99 15.8009 218.301 15.2455Z" fill="#F9FAFB"/>
<path d="M223.279 40.1228L214.198 35.2195C213.447 34.8118 213.21 33.8286 213.689 33.0676L235.985 -2.36391C236.438 -3.08455 237.361 -3.31785 238.052 -2.88965L244.464 1.07284C245.132 1.48604 245.346 2.36596 244.958 3.08766L225.332 39.4656C224.919 40.2166 224.001 40.5158 223.279 40.1228Z" fill="#F9FAFB"/>
<path d="M219.408 24.9421L211.343 19.9592C210.882 19.6756 210.743 19.0777 211.026 18.617L226.657 -6.67693C226.941 -7.13769 227.539 -7.27733 227.999 -6.99369L236.064 -2.01084C236.525 -1.72721 236.665 -1.12386 236.381 -0.668596L220.75 24.6253C220.466 25.086 219.863 25.2261 219.408 24.9421Z" fill="#592F72"/>
<path d="M314.172 38.5386L319.342 46.6975C319.75 47.3381 319.587 48.1992 318.975 48.6987L277.104 82.5837C276.454 83.1077 275.534 83.0483 275.008 82.4488L271.352 78.2565C270.826 77.6571 270.896 76.7305 271.503 76.1596L311.86 38.3134C312.566 37.6475 313.677 37.7549 314.172 38.5386Z" fill="#F9FAFB"/>
<path d="M287.272 94.3866L281.651 86.1697C281.21 85.5259 281.365 84.6267 282.004 84.1199L315.337 57.65C315.982 57.1374 316.903 57.2023 317.417 57.797L321.264 62.1972C321.784 62.7915 321.724 63.712 321.128 64.2821L289.57 94.5741C288.885 95.222 287.792 95.141 287.272 94.3866Z" fill="#F9FAFB"/>
<path d="M288.842 82.7753L282.598 75.6383C282.244 75.2315 282.286 74.6159 282.687 74.2631L305.062 54.6814C305.469 54.3283 306.085 54.3696 306.438 54.7709L312.682 61.908C313.035 62.3148 312.994 62.9304 312.592 63.2831L290.217 82.8649C289.816 83.2176 289.2 83.1763 288.842 82.7753Z" fill="#592F72"/>
<path d="M349.124 68.4838L354.416 76.5628C354.834 77.1971 354.688 78.0626 354.076 78.5675L312.728 113.085C312.091 113.62 311.166 113.572 310.629 112.978L306.905 108.84C306.374 108.247 306.427 107.321 307.023 106.74L346.797 68.2817C347.503 67.6103 348.619 67.7063 349.124 68.4838Z" fill="#F9FAFB"/>
<path d="M294.887 110.479L287.417 103.342C286.797 102.749 286.996 101.604 287.851 100.845L327.761 65.3033C328.573 64.5806 329.665 64.4849 330.208 65.0888L335.256 70.6834C335.781 71.2663 335.612 72.2879 334.867 73.0227L297.379 110.107C296.598 110.883 295.483 111.052 294.887 110.479Z" fill="#F9FAFB"/>
<path d="M308.631 104.693L302.277 97.6519C301.919 97.251 301.949 96.6361 302.349 96.2724L324.426 76.3574C324.827 75.9992 325.442 76.0295 325.806 76.4301L332.16 83.4715C332.518 83.8724 332.487 84.4873 332.087 84.851L310.01 104.766C309.609 105.124 308.988 105.089 308.631 104.693Z" fill="#592F72"/>
<path d="M283.114 -12.2399L290.275 -5.76082C290.839 -5.25229 290.914 -4.37959 290.455 -3.73588L259.164 40.1022C258.68 40.7807 257.771 40.969 257.107 40.5334L252.461 37.4677C251.797 37.0267 251.614 36.1171 252.047 35.4089L280.822 -11.8481C281.33 -12.6718 282.426 -12.8616 283.114 -12.2399Z" fill="#F9FAFB"/>
<path d="M241.241 42.0947L232.213 37.0718C231.462 36.6532 231.368 35.5002 231.999 34.5468L261.641 -9.92001C262.243 -10.8218 263.278 -11.1896 263.954 -10.7438L270.251 -6.60243C270.904 -6.17164 271.001 -5.1348 270.465 -4.2375L243.554 41.1108C242.999 42.0535 241.964 42.4987 241.241 42.0947Z" fill="#F9FAFB"/>
<path d="M253.073 33.0286L245.148 27.8211C244.698 27.5257 244.574 26.9213 244.87 26.4708L261.204 1.62081C261.499 1.17031 262.104 1.04678 262.554 1.34215L270.479 6.54969C270.93 6.84506 271.053 7.44952 270.758 7.90003L254.424 32.75C254.133 33.1946 253.524 33.324 253.073 33.0286Z" fill="#592F72"/>
<path d="M390.489 118.498L395.112 126.975C395.478 127.641 395.259 128.489 394.61 128.947L350.6 160C349.92 160.482 349.001 160.362 348.517 159.726L345.144 155.3C344.659 154.664 344.785 153.745 345.434 153.216L388.194 118.106C388.942 117.498 390.042 117.683 390.489 118.498Z" fill="#F9FAFB"/>
<path d="M333.026 155.967L326.163 148.248C325.595 147.607 325.884 146.483 326.792 145.793L369.451 113.599C370.318 112.945 371.416 112.937 371.906 113.583L376.483 119.568C376.961 120.187 376.709 121.198 375.904 121.87L335.537 155.798C334.702 156.505 333.575 156.581 333.026 155.967Z" fill="#F9FAFB"/>
<path d="M323.652 123.017L318.321 114.609C317.901 113.947 318.09 113.057 318.747 112.571L352.982 87.277C353.645 86.7852 354.562 86.8835 355.056 87.4962L358.751 92.0226C359.25 92.6349 359.157 93.552 358.543 94.1013L325.949 123.271C325.236 123.915 324.145 123.79 323.652 123.017Z" fill="#F9FAFB"/>
<path d="M330.126 138.182L323.155 130.575C322.577 129.946 322.68 128.934 323.377 128.38L356.039 102.198C356.705 101.667 357.654 101.747 358.166 102.375L362.926 108.215C363.42 108.822 363.337 109.728 362.734 110.282L332.283 138.236C331.648 138.808 330.681 138.791 330.126 138.182Z" fill="#F9FAFB"/>
<path d="M331.181 127.683L325.187 120.336C324.844 119.917 324.908 119.306 325.326 118.963L348.373 100.175C348.792 99.8321 349.404 99.8958 349.746 100.314L355.74 107.662C356.083 108.08 356.019 108.692 355.601 109.035L332.553 127.822C332.135 128.165 331.523 128.102 331.181 127.683Z" fill="#592F72"/>
<path d="M258.415 103.058C259.511 102.817 259.957 100.967 259.176 100.158C258.396 99.3492 256.934 99.4953 256.168 100.315C255.876 100.627 255.663 101.033 255.659 101.46C255.652 102.365 256.572 103.039 257.47 103.156C258.902 103.344 260.317 102.516 261.219 101.387C262.12 100.259 262.609 98.8636 263.082 97.4981C264.005 94.8256 264.929 92.1531 265.852 89.4806C266.71 89.2871 267.646 89.4614 268.419 89.8771" stroke="#6E5CA0" stroke-width="1.9135" stroke-miterlimit="10"/>
<path d="M265.362 91.1224C266.211 91.1693 267.048 91.4433 267.762 91.9059" stroke="#6E5CA0" stroke-width="1.9135" stroke-miterlimit="10"/>
<path d="M341.905 36.7076C342.661 35.9191 342.068 34.3946 341 34.165C339.931 33.9354 338.828 34.8436 338.653 35.9226C338.587 36.333 338.637 36.7782 338.864 37.1235C339.347 37.8605 340.458 37.9057 341.249 37.515C342.51 36.8915 343.204 35.4542 343.323 34.0525C343.442 32.6507 343.08 31.2584 342.722 29.897C342.019 27.2358 341.319 24.5716 340.616 21.9104C344.082 19.6069 347.69 17.4868 351.415 15.6286C352.765 19.3849 353.655 23.328 354.408 27.2491C354.591 28.2077 354.755 29.213 354.459 30.144C354.164 31.0721 353.255 31.8821 352.294 31.7305C351.933 31.6723 351.597 31.4875 351.325 31.2389C350.623 30.5987 350.381 29.4738 350.839 28.6398C351.297 27.8087 352.464 27.4215 353.287 27.8973C354.111 28.3731 354.663 30.2212 353.978 30.8801" stroke="#6E5CA0" stroke-width="2.0103" stroke-miterlimit="10"/>
<path d="M341.215 24.3383C344.586 21.8537 348.269 19.7911 352.152 18.2147" stroke="#6E5CA0" stroke-width="2.0103" stroke-miterlimit="10"/>
<path d="M212.684 92.6664C213.792 93.37 215.45 92.1062 215.189 90.8287C214.927 89.5513 213.159 88.9462 212.046 89.6538C210.932 90.3614 210.661 92.0066 211.327 93.127C211.993 94.2474 213.401 94.8169 214.715 94.6975C216.03 94.5781 217.237 93.8543 218.145 92.9058C218.71 92.3163 219.185 91.6293 219.442 90.8616C220.435 87.9257 218.175 85.0152 216.233 82.6064C213.011 78.6083 210.281 74.2449 207.56 69.8993C206.141 67.6368 204.726 65.3733 203.308 63.1108C202.349 61.5831 201.387 60.044 200.654 58.3973C199.677 56.2016 199.114 53.826 199.001 51.4262C198.967 50.6496 199.033 49.7545 199.655 49.275C200.601 48.5504 201.968 49.3721 202.663 50.3237C205.359 54.0033 204.228 59.1583 202.542 63.4141C200.859 67.6651 198.685 72.1318 199.668 76.5818C200.406 79.9312 203.037 82.7976 206.338 83.8429C209.639 84.8882 213.482 84.0731 216.079 81.7763C218.13 79.9638 219.385 77.2254 219.157 74.5213C218.929 71.8172 217.115 69.2545 214.538 68.3437C211.961 67.4329 208.759 68.3758 207.277 70.6654C205.795 72.955 206.386 76.3827 208.678 77.8627" stroke="#6E5CA0" stroke-width="2.3947" stroke-miterlimit="10"/>
</g>
<defs>
<linearGradient id="paint0_linear" x1="370.969" y1="-17.3493" x2="371" y2="35.1267" gradientUnits="userSpaceOnUse">
<stop stop-color="#9268B6"/>
<stop offset="1" stop-color="#592F72" stop-opacity="0"/>
</linearGradient>
<linearGradient id="paint1_linear" x1="215.969" y1="64.6507" x2="216" y2="117.127" gradientUnits="userSpaceOnUse">
<stop stop-color="#9268B6"/>
<stop offset="1" stop-color="#592F72" stop-opacity="0"/>
</linearGradient>
<linearGradient id="paint2_linear" x1="271.969" y1="20.6507" x2="272" y2="73.1267" gradientUnits="userSpaceOnUse">
<stop stop-color="#9268B6"/>
<stop offset="1" stop-color="#592F72" stop-opacity="0"/>
</linearGradient>
</defs>
</svg>
