<svg width="121" height="113" viewBox="0 0 121 113" fill="none" xmlns="http://www.w3.org/2000/svg">
<path d="M5.36346 78.0794C6.70555 78.2232 8.02366 78.4988 9.44962 78.7265C9.79713 77.0609 8.59884 76.1742 7.65219 75.1676C1.07359 68.1816 3.75776 57.4569 8.50298 52.7357C9.61738 51.6213 10.1087 50.5907 10.1926 49.0929C10.6839 40.7049 11.1512 32.3169 11.8342 23.9528C12.002 21.9038 12.8887 19.8906 13.6077 17.9135C13.8114 17.3622 14.5903 16.6553 15.1175 16.6433C17.0108 16.6073 17.8856 15.3611 18.8202 14.043C19.2157 13.4918 19.7789 13.0604 20.2701 12.5811C21.049 11.7902 21.792 10.9514 22.6068 10.2085C23.0981 9.7651 23.6493 9.30976 24.2605 9.08208C24.9914 8.80648 25.8062 8.77053 26.7409 8.61475C26.8847 7.30862 27.4958 6.43387 28.8619 6.01447C29.8205 5.71489 30.6234 4.93601 31.4022 4.43273C31.4022 2.93487 31.4022 1.67667 31.4022 0.166825C32.9001 0.106911 34.1104 -0.0608491 35.3206 0.023031C39.3708 0.286654 43.4211 0.765969 47.4713 0.909763C56.2188 1.22132 64.9303 1.82046 73.534 3.51005C75.8707 3.9654 78.2313 4.30092 80.5919 4.63644C85.5768 5.35541 90.5856 5.87067 95.5346 6.78137C98.5423 7.33258 101.514 8.26725 104.366 9.38165C107.529 10.6279 108.871 13.4918 108.536 16.835C108.284 19.2915 108.165 21.7719 108.129 24.2404C108.021 33.1676 108.057 42.0949 107.841 51.0221C107.793 53.0233 108.26 54.0298 110.154 54.7967C112.167 55.6116 114.456 56.5462 115.786 58.128C120.087 63.2806 121.693 69.1282 118.614 75.575C118.23 76.3659 118.098 77.001 118.494 77.7919C118.733 78.2592 118.937 78.7864 118.949 79.2897C119.069 82.5011 119.872 85.7605 118.793 88.912C118.422 90.0024 117.751 91.2965 116.828 91.8597C114.503 93.2617 112.047 94.5439 109.207 94.6757C108.165 94.7236 107.122 94.8794 105.864 95.0112C105.049 99.8523 104.078 104.61 103.527 109.403C103.323 111.212 102.88 112.626 101.55 113.8C100.891 114.388 100.292 115.047 99.6327 115.634C96.4572 118.426 93.6053 118.749 89.6989 116.868C89.1717 116.616 88.5366 116.473 87.9374 116.437C86.1759 116.341 84.4145 116.305 82.653 116.293C79.9448 116.269 77.2247 116.293 74.3728 116.293C74.265 117.827 74.1571 119.229 74.0613 120.619C73.7138 125.544 73.4022 130.469 73.0068 135.394C72.8869 136.867 73.2704 137.994 74.5406 138.785C76.2421 139.839 77.2607 141.685 79.2498 142.499C80.1965 142.883 80.9514 144.045 81.5146 145.016C82.7488 147.137 82.2456 148.994 80.0167 150.108C78.5429 150.851 76.9012 151.63 75.3075 151.678C70.6342 151.798 66.2125 150.636 62.318 147.916C60.1372 146.394 59.7897 145.064 60.2929 142.439C60.9041 139.24 62.4379 136.28 62.4738 132.925C62.4978 129.75 62.9412 126.574 63.061 123.399C63.1688 120.87 63.0849 118.342 63.0849 115.778C57.8484 115.778 52.9714 115.778 48.0345 115.778C47.9026 118.318 47.8308 120.607 47.651 122.883C47.3754 126.586 46.944 130.265 46.7523 133.968C46.6205 136.52 46.6924 139.096 46.8122 141.649C46.8841 143.087 46.261 143.925 45.1466 144.68C43.5409 145.771 41.7554 146.094 39.8861 146.25C36.5429 146.526 33.2117 146.885 29.8684 147.173C28.7301 147.269 27.5318 147.436 26.4413 147.221C25.5905 147.041 24.4402 146.49 24.1286 145.795C22.7027 142.619 24.3204 138.233 27.7834 137.85C29.6887 137.646 31.2105 136.616 32.948 136.041C34.6975 135.465 35.3805 134.243 35.5004 132.458C35.6562 129.989 35.9917 127.533 36.2553 125.076C36.6028 121.841 36.8425 118.606 36.471 115.083C33.0079 115.011 29.6647 115.083 26.3455 114.819C21.5044 114.447 16.6873 113.824 11.8702 113.321C10.8876 113.213 10.3244 112.626 9.9529 111.787C9.61738 111.62 9.09014 111.476 9.07816 111.272C8.99428 110.313 9.05419 109.331 9.07816 108.36C9.24592 103.172 9.42565 97.971 9.61738 92.4469C7.089 93.106 4.992 92.8663 3.42224 91.1767C1.66076 89.2714 0.582298 87.0067 0.0670319 84.3944C-0.496162 81.5425 2.58344 77.7799 5.36346 78.0794ZM17.8616 17.9854C17.0707 18.0213 16.2559 18.0692 15.5369 18.3329C15.1175 18.4886 14.8659 19.1117 14.3746 19.7109C40.641 21.7 66.3323 22.1554 92.1314 19.5192C91.4484 19.3274 90.7654 18.9799 90.0704 18.956C85.0495 18.7523 80.0167 18.6204 74.9959 18.4647C72.7911 18.3928 70.5862 18.3688 68.3814 18.261C55.5238 17.6498 42.6661 16.8829 29.7846 17.542C25.8062 17.7577 21.8279 17.8176 17.8616 17.9854ZM22.3312 14.2707C20.8094 13.9831 20.0425 14.6661 19.3834 16.4875C21.4445 16.4875 23.206 16.5953 24.9555 16.4755C39.6944 15.457 54.3974 16.7511 69.1243 17.0267C69.2441 17.0267 69.364 16.811 69.7954 16.4156C65.4336 15.9962 61.3474 15.5289 57.2493 15.2533C51.7851 14.8818 46.3209 14.5702 40.8447 14.4025C35.4644 14.2467 30.0841 14.3066 24.7038 14.2707C23.9129 14.2467 23.0981 14.4145 22.3312 14.2707ZM24.7877 10.4601C23.5894 10.6159 23.5774 11.7423 23.2779 12.8447C28.6821 12.9885 33.7149 13.0005 38.7358 13.2881C47.8188 13.8033 56.9258 13.8513 65.9608 15.0975C70.059 15.6727 74.241 15.6727 78.3631 16.104C84.1389 16.7032 89.9026 17.4701 95.6664 18.1771C97.0803 18.3448 97.0684 18.3688 98.4584 16.7751C97.4638 16.6073 96.625 16.4396 95.7862 16.3437C85.1694 15.1814 74.5526 14.043 63.9237 12.8926C54.7808 11.8981 45.6499 10.9035 36.5189 9.9089C35.8119 9.837 35.081 9.87295 34.4099 9.66924C31.1027 8.69863 27.9871 10.0647 24.7877 10.4601ZM29.473 7.30862C29.485 7.50034 29.5089 7.68009 29.5209 7.87181C30.0002 7.97966 30.4676 8.14742 30.9589 8.19535C38.3403 8.93829 45.7337 9.59734 53.1032 10.4122C59.8616 11.1671 66.6199 12.0538 73.3543 12.9525C81.6704 14.067 89.9865 15.0735 98.3745 15.3491C99.0336 15.3731 99.6926 15.3491 100.352 15.3491C100.388 15.1694 100.412 14.9777 100.448 14.7859C99.8484 14.5702 99.2612 14.2227 98.6381 14.1389C94.528 13.5876 90.4299 12.9765 86.2958 12.617C77.2127 11.8262 68.2616 10.1845 59.2744 8.79449C53.5226 7.90776 47.6989 7.48836 41.8992 6.94913C39.0833 6.68551 36.2553 6.4818 33.4273 6.4818C32.1092 6.49378 30.7911 7.02103 29.473 7.30862ZM34.338 5.33144C37.7651 5.63101 41.1922 5.90662 44.6193 6.18223C53.247 6.86525 61.7908 8.07552 70.3226 9.63329C76.2901 10.7118 82.4133 10.9394 88.4527 11.6105C91.6162 11.958 94.7557 12.4253 97.9072 12.8327C98.7699 12.9406 99.6327 13.0604 100.495 13.1682C100.579 12.9406 100.663 12.7129 100.747 12.4732C99.6686 11.9819 98.6381 11.2869 97.5117 11.0593C93.6293 10.2804 89.7229 9.53743 85.7925 9.02217C76.35 7.76397 66.8835 6.58964 57.4051 5.4992C52.0487 4.88808 46.6804 4.46868 41.3001 4.01333C38.7477 3.79763 36.1954 3.66582 33.667 3.49806C32.8881 4.56454 33.0559 5.21161 34.338 5.33144ZM103.791 10.508C96.9965 7.52431 89.663 7.1768 82.5212 5.97852C75.9066 4.86411 69.2561 3.8935 62.5936 3.04271C58.3038 2.4915 53.978 2.19193 49.6641 1.94029C44.7272 1.6527 39.7783 1.53287 34.8413 1.34115C34.3261 1.31718 33.8108 1.34115 33.2236 1.83244C34.2062 1.98822 35.1768 2.2159 36.1594 2.28779C40.1258 2.58737 44.1041 2.71918 48.0584 3.15056C54.1098 3.80962 60.1491 4.6604 66.1885 5.45127C72.9109 6.34999 79.6453 7.29663 86.3916 8.12345C89.3514 8.48294 92.3711 8.49492 95.3189 8.9263C96.9366 9.16596 98.5303 9.81304 100.028 10.52C103.287 12.0538 103.635 15.0855 100.915 17.3742C100.651 17.5899 100.412 17.8416 99.8724 18.3448C102.628 18.237 104.126 16.9189 105.361 15.2772C106.858 13.324 106.056 11.5026 103.791 10.508ZM108.871 92.9262C108.68 91.3085 106.499 90.5416 107.685 88.4326C108.452 89.4752 109.123 90.3859 109.89 91.4164C110.705 91.009 111.46 90.6375 112.263 90.2301C112.766 90.6375 113.233 90.997 113.653 91.3325C115.786 91.0809 117.559 88.0851 117.703 84.6101C116.013 84.9337 115.582 88.3008 113.113 86.8629C114.408 85.2212 115.606 83.7713 116.708 82.2495C117.056 81.7702 117.212 81.1111 117.307 80.512C117.583 78.7026 117.224 78.2352 115.115 77.5642C115.474 77.0369 115.726 76.4977 116.133 76.1143C118.566 73.7416 119.129 70.7699 118.673 67.5944C118.302 65.066 117.595 62.6455 115.893 60.5605C113.329 57.433 109.89 56.0429 106.103 55.276C105.528 55.1562 104.642 55.4798 104.234 55.9111C102.892 57.3611 101.694 58.9308 100.495 60.4886C100.304 60.7283 100.364 61.1596 100.256 61.8187C101.514 62.4178 102.808 62.7174 103.671 63.5083C106.571 66.1565 108.416 69.2241 107.805 73.502C107.362 76.6775 105.265 78.415 103.18 80.3083C102.329 81.0752 101.346 81.7222 100.615 82.597C98.2067 85.4609 98.8898 89.3553 102.209 91.5122C102.353 90.6734 102.485 89.8946 102.712 88.5645C103.623 90.1702 104.126 91.4883 104.989 92.4589C105.984 93.5613 107.398 93.07 108.871 92.9262ZM90.6935 113.369C90.8373 115.406 91.9037 116.425 93.9289 116.413C95.0313 116.401 96.2895 116.221 97.1882 115.658C99.9443 113.944 102.113 111.823 102.341 108.18C102.545 104.933 103.299 101.722 103.767 98.4863C103.935 97.276 103.982 96.0418 104.078 94.7596C103.443 94.4001 102.964 93.9927 102.401 93.813C97.6555 92.2552 95.8581 84.5023 100.088 80.7876C101.61 79.4575 103.18 78.1394 104.522 76.6415C107.889 72.9028 106.283 66.3602 101.622 64.4429C99.2492 63.4723 98.3266 62.0104 99.429 59.8415C100.472 57.7565 102.053 55.9111 103.623 54.1616C104.162 53.5505 105.384 53.5385 106.511 53.191C107.35 41.1842 107.182 29.0336 106.954 16.4156C103.252 20.3939 98.3505 20.9691 93.4256 22.1554C93.2219 24.2284 92.8744 26.3254 92.8504 28.4224C92.7905 35.049 92.6347 41.6875 92.9223 48.302C93.3297 57.5887 92.5269 66.8275 92.2033 76.0783C92.0475 80.488 92.0236 84.9097 91.7959 89.3074C91.4843 95.6583 91.041 101.997 90.6935 108.348C90.6216 110.014 90.5737 111.691 90.6935 113.369ZM62.8932 138.341C60.7004 145.052 61.2995 146.741 68.0459 148.862C70.1309 149.521 72.3237 149.833 74.4926 150.192C76.5777 150.54 78.2433 149.545 79.825 148.335C80.6878 147.676 80.7836 146.969 80.3762 146.022C79.3457 143.626 77.021 142.451 74.2889 142.967C73.534 143.11 72.7671 143.194 72.0122 143.29C71.9643 143.29 71.9043 143.17 71.5928 142.811C72.6473 142.26 73.6419 141.732 74.7443 141.145C73.558 139.887 72.3837 138.641 71.3052 137.479C72.7312 130.397 72.7192 123.435 73.0068 116.197C70.2627 116.197 67.5186 116.197 64.439 116.197C64.3791 117.419 64.3192 118.558 64.2713 119.684C64.0556 124.968 63.8638 130.265 63.5882 135.549C63.5163 136.484 63.1808 137.431 62.8932 138.341ZM28.8619 138.928C26.2256 139.552 25.0274 141.157 25.0154 143.841C25.0154 145.1 25.4467 145.902 26.8128 145.879C27.7834 145.867 28.742 145.795 29.7007 145.711C32.948 145.399 36.1834 144.968 39.4308 144.776C41.4439 144.656 43.2533 144.189 44.895 143.015C45.5061 133.896 46.1052 124.777 46.7403 115.358C44.2838 115.286 42.091 115.214 39.8981 115.154C38.6878 115.118 38.1845 115.79 38.0887 116.952C37.6573 121.961 37.2139 126.97 36.6987 131.966C36.5788 133.141 37.3098 133.644 38.3883 134.123C35.5363 136.915 32.3009 138.114 28.8619 138.928ZM20.4259 113.033C23.7692 113.321 27.1244 113.381 30.4796 113.501C37.0102 113.752 43.5529 114.028 50.0835 114.196C60.4128 114.459 70.754 114.651 81.0952 114.843C83.7314 114.891 86.3677 114.855 89.1477 114.855C89.7468 103.172 90.322 91.3685 90.9571 79.5653C91.6881 65.9768 92.0715 52.3882 91.748 38.7756C91.6162 33.3114 91.8079 27.8473 91.8558 22.0835C90.4538 22.0475 88.8002 21.9517 87.1585 21.9637C78.9383 22.0236 70.73 22.2393 62.5337 22.9463C58.2439 23.3177 53.8941 22.9942 49.5803 22.8624C43.3971 22.6707 37.2259 22.3591 31.0427 22.1314C26.0099 21.9397 20.9771 21.8079 15.9443 21.6641C15.1655 21.6401 14.3746 21.736 13.4759 21.7719C13.2841 22.5269 12.9966 23.1739 12.9486 23.845C12.661 28.5063 12.4333 33.1796 12.1697 37.841C12.014 40.5731 11.7383 43.3052 11.6665 46.0492C11.4747 53.9819 11.4028 61.9026 11.2111 69.8352C11.0673 75.3114 10.7198 80.7756 10.588 86.2398C10.4682 91.8597 10.552 97.4917 10.4562 103.112C10.4083 106 10.1686 108.887 10.0128 111.763C13.4759 112.207 16.9389 112.734 20.4259 113.033ZM9.92894 54.0538C4.04535 58.3437 3.80569 70.0749 9.30582 74.3528C10.3723 72.2198 10.7558 60.7882 9.92894 54.0538ZM5.67502 90.9011C7.79598 91.7998 9.05419 91.0928 9.24591 88.7802C9.41367 86.803 9.47359 84.8138 9.58144 82.7528C5.2676 83.4358 4.8482 83.304 4.56061 81.3148C5.63907 80.8115 7.17287 82.5371 8.03564 80.6078C7.31667 79.1699 6.09442 79.5893 4.88415 79.793C3.20655 80.0806 2.21197 81.1231 1.73265 82.6329C0.917816 85.2692 3.13464 89.8227 5.67502 90.9011Z" fill="#592F72"/>
<path d="M17.8605 17.9856C17.0697 18.0215 16.2548 18.0694 15.5359 18.3331C15.1165 18.4888 14.8648 19.1119 14.3735 19.7111C40.64 21.7002 66.3313 22.1556 92.1304 19.5194C91.4473 19.3276 90.7643 18.9801 90.0693 18.9562C85.0485 18.7525 80.0157 18.6206 74.9949 18.4649C72.79 18.393 70.5852 18.369 68.3803 18.2612C55.5227 17.65 42.6651 16.8831 29.7835 17.5422C25.8052 17.7579 21.8269 17.8178 17.8605 17.9856Z" fill="#E4CDF8"/>
<path d="M22.3287 14.2704C20.8069 13.9828 20.04 14.6658 19.3809 16.4872C21.442 16.4872 23.2034 16.5951 24.9529 16.4753C39.6919 15.4567 54.3949 16.7509 69.1218 17.0265C69.2416 17.0265 69.3615 16.8108 69.7928 16.4153C65.4311 15.9959 61.3449 15.5286 57.2468 15.253C51.7826 14.8815 46.3184 14.57 40.8422 14.4022C35.4619 14.2464 30.0816 14.3064 24.7013 14.2704C23.9104 14.2464 23.0956 14.4142 22.3287 14.2704Z" fill="#E4CDF8"/>
<path d="M24.7849 10.4605C23.5866 10.6163 23.5746 11.7427 23.275 12.8451C28.6793 12.9889 33.7121 13.0009 38.7329 13.2885C47.816 13.8038 56.9229 13.8517 65.958 15.0979C70.0562 15.6731 74.2382 15.6731 78.3603 16.1045C84.136 16.7036 89.8998 17.4705 95.6636 18.1775C97.0775 18.3453 97.0656 18.3692 98.4556 16.7755C97.461 16.6078 96.6222 16.44 95.7834 16.3441C85.1666 15.1818 74.5497 14.0434 63.9209 12.8931C54.778 11.8985 45.6471 10.9039 36.5161 9.90933C35.8091 9.83744 35.0782 9.87339 34.4071 9.66968C31.0999 8.69906 27.9843 10.0651 24.7849 10.4605Z" fill="#E4CDF8"/>
<path d="M29.4694 7.30729C29.4814 7.49901 29.5054 7.67876 29.5174 7.87048C29.9967 7.97833 30.464 8.14609 30.9553 8.19402C38.3367 8.93696 45.7302 9.59601 53.0996 10.4108C59.858 11.1658 66.6163 12.0525 73.3507 12.9512C81.6668 14.0656 89.9829 15.0722 98.3709 15.3478C99.03 15.3718 99.689 15.3478 100.348 15.3478C100.384 15.168 100.408 14.9763 100.444 14.7846C99.8448 14.5689 99.2577 14.2214 98.6346 14.1375C94.5244 13.5863 90.4263 12.9752 86.2922 12.6157C77.2092 11.8248 68.258 10.1832 59.2708 8.79316C53.5191 7.90643 47.6954 7.48703 41.8957 6.9478C39.0797 6.68418 36.2517 6.48047 33.4238 6.48047C32.1057 6.49245 30.7875 7.0197 29.4694 7.30729Z" fill="#E4CDF8"/>
<path d="M34.3358 5.32947C37.7629 5.62904 41.19 5.90465 44.6171 6.18026C53.2448 6.86328 61.7886 8.07355 70.3204 9.63132C76.2878 10.7098 82.4111 10.9375 88.4504 11.6085C91.6139 11.956 94.7534 12.4233 97.9049 12.8307C98.7677 12.9386 99.6305 13.0584 100.493 13.1663C100.577 12.9386 100.661 12.7109 100.745 12.4713C99.6664 11.98 98.6359 11.285 97.5095 11.0573C93.627 10.2784 89.7206 9.53546 85.7903 9.0202C76.3477 7.762 66.8813 6.58767 57.4028 5.49723C52.0465 4.88611 46.6782 4.46671 41.2979 4.01136C38.7455 3.79567 36.1931 3.66385 33.6648 3.49609C32.8859 4.56257 33.0536 5.20964 34.3358 5.32947Z" fill="#E4CDF8"/>
<path d="M103.789 10.509C96.9943 7.52523 89.6608 7.17773 82.519 5.97944C75.9044 4.86504 69.2539 3.89442 62.5915 3.04364C58.3016 2.49243 53.9758 2.19286 49.662 1.94121C44.725 1.65363 39.7761 1.5338 34.8391 1.34207C34.3239 1.31811 33.8086 1.34207 33.2215 1.83337C34.2041 1.98915 35.1747 2.21682 36.1573 2.28872C40.1236 2.58829 44.1019 2.7201 48.0563 3.15148C54.1076 3.81054 60.147 4.66133 66.1863 5.4522C72.9087 6.35091 79.6431 7.29756 86.3895 8.12438C89.3492 8.48386 92.3689 8.49584 95.3167 8.92723C96.9344 9.16689 98.5281 9.81396 100.026 10.5209C103.285 12.0548 103.633 15.0864 100.913 17.3752C100.649 17.5908 100.409 17.8425 99.8702 18.3458C102.626 18.2379 104.124 16.9198 105.358 15.2781C106.856 13.3249 106.053 11.5035 103.789 10.509Z" fill="#E4CDF8"/>
<path d="M108.871 92.9254C108.68 91.3077 106.499 90.5408 107.685 88.4318C108.452 89.4743 109.123 90.385 109.89 91.4155C110.705 91.0081 111.46 90.6366 112.263 90.2292C112.766 90.6366 113.233 90.9961 113.653 91.3316C115.786 91.08 117.559 88.0843 117.703 84.6093C116.013 84.9328 115.582 88.3 113.113 86.862C114.408 85.2204 115.606 83.7705 116.708 82.2486C117.056 81.7693 117.212 81.1103 117.307 80.5111C117.583 78.7017 117.224 78.2344 115.115 77.5633C115.474 77.0361 115.726 76.4969 116.133 76.1134C118.566 73.7408 119.129 70.769 118.673 67.5936C118.302 65.0652 117.595 62.6447 115.893 60.5596C113.329 57.4321 109.89 56.0421 106.103 55.2752C105.528 55.1554 104.642 55.4789 104.234 55.9103C102.892 57.3602 101.694 58.93 100.495 60.4877C100.304 60.7274 100.364 61.1588 100.256 61.8178C101.514 62.417 102.808 62.7165 103.671 63.5074C106.571 66.1556 108.416 69.2232 107.805 73.5011C107.362 76.6766 105.265 78.4141 103.18 80.3074C102.329 81.0743 101.346 81.7214 100.615 82.5961C98.2067 85.46 98.8897 89.3545 102.209 91.5114C102.353 90.6726 102.485 89.8937 102.712 88.5636C103.623 90.1693 104.126 91.4874 104.989 92.458C105.984 93.5605 107.398 93.0692 108.871 92.9254Z" fill="#FFB5C3"/>
<path d="M90.6895 113.367C90.8333 115.405 91.8998 116.423 93.9249 116.411C95.0273 116.399 96.2855 116.219 97.1843 115.656C99.9403 113.943 102.109 111.822 102.337 108.179C102.541 104.932 103.296 101.72 103.763 98.4847C103.931 97.2745 103.979 96.0402 104.074 94.7581C103.439 94.3986 102.96 93.9912 102.397 93.8114C97.6516 92.2537 95.8542 84.5007 100.084 80.786C101.606 79.4559 103.176 78.1378 104.518 76.64C107.885 72.9013 106.279 66.3587 101.618 64.4414C99.2453 63.4708 98.3226 62.0089 99.4251 59.84C100.468 57.755 102.049 55.9096 103.619 54.1601C104.158 53.549 105.381 53.537 106.507 53.1895C107.346 41.1827 107.178 29.032 106.95 16.4141C103.248 20.3924 98.3466 20.9676 93.4216 22.1539C93.2179 24.2269 92.8704 26.3239 92.8465 28.4209C92.7865 35.0474 92.6308 41.6859 92.9184 48.3005C93.3258 57.5872 92.5229 66.826 92.1994 76.0768C92.0436 80.4865 92.0196 84.9081 91.792 89.3059C91.4804 95.6568 91.037 101.996 90.6895 108.347C90.6176 110.012 90.5697 111.69 90.6895 113.367Z" fill="#E4CDF8"/>
<path d="M20.4244 113.033C23.7676 113.321 27.1228 113.381 30.478 113.501C37.0087 113.752 43.5513 114.028 50.082 114.196C60.4112 114.459 70.7524 114.651 81.0936 114.843C83.7299 114.891 86.3661 114.855 89.1461 114.855C89.7453 103.171 90.3204 91.3683 90.9555 79.5652C91.6865 65.9766 92.0699 52.388 91.7464 38.7755C91.6146 33.3113 91.8063 27.8471 91.8543 22.0834C90.4523 22.0474 88.7986 21.9515 87.157 21.9635C78.9367 22.0234 70.7285 22.2391 62.5322 22.9461C58.2423 23.3176 53.8925 22.9941 49.5787 22.8622C43.3955 22.6705 37.2243 22.359 31.0412 22.1313C26.0084 21.9396 20.9756 21.8077 15.9428 21.664C15.1639 21.64 14.373 21.7359 13.4743 21.7718C13.2826 22.5267 12.995 23.1738 12.9471 23.8448C12.6595 28.5062 12.4318 33.1795 12.1682 37.8408C12.0124 40.5729 11.7368 43.305 11.6649 46.0491C11.4732 53.9818 11.4013 61.9024 11.2095 69.8351C11.0657 75.3113 10.7182 80.7755 10.5864 86.2396C10.4666 91.8596 10.5505 97.4916 10.4546 103.112C10.4067 105.999 10.167 108.887 10.0113 111.763C13.4743 112.207 16.9374 112.734 20.4244 113.033Z" fill="#E4CDF8"/>
<path d="M9.92672 54.0547C4.04313 58.3446 3.80347 70.0758 9.30361 74.3537C10.3701 72.2207 10.7535 60.7891 9.92672 54.0547Z" fill="#FFB5C3"/>
<path d="M5.67635 90.9C7.79731 91.7987 9.05552 91.0917 9.24724 88.779C9.415 86.8018 9.47492 84.8127 9.58276 82.7516C5.26893 83.4347 4.84953 83.3029 4.56194 81.3137C5.6404 80.8104 7.17421 82.5359 8.03697 80.6067C7.318 79.1688 6.09575 79.5882 4.88548 79.7919C3.20788 80.0795 2.2133 81.122 1.73398 82.6318C0.919146 85.268 3.13598 89.8215 5.67635 90.9Z" fill="#FFB5C3"/>
<path d="M47.6994 72.1281C49.3171 72.1281 50.9468 71.6967 52.2889 70.8339C54.7693 69.2522 55.8598 66.5081 55.2966 63.3087C55.1768 62.6017 54.5057 62.1344 53.7987 62.2662C53.0917 62.386 52.6244 63.0571 52.7562 63.7641C53.2475 66.5321 52.0133 67.9581 50.8989 68.677C49.0056 69.8873 46.2016 69.8514 44.3802 68.5932C42.8464 67.5267 42.2832 65.8012 42.7625 63.5843C42.9063 62.8893 42.4629 62.2063 41.7679 62.0505C41.0729 61.9067 40.3899 62.3501 40.2341 63.0451C39.5511 66.2685 40.5217 69.0605 42.9063 70.7141C44.2843 71.6608 45.9978 72.1281 47.6994 72.1281Z" fill="#290A3C"/>
<path d="M72.2849 66.0315C72.2849 64.6535 70.5953 63.5391 68.4983 63.5391C66.4013 63.5391 64.7117 64.6535 64.7117 66.0315C64.7117 67.4095 66.4133 68.5359 68.4983 68.5359C70.5833 68.5359 72.2849 67.4095 72.2849 66.0315Z" fill="#FFB5C3"/>
<path d="M30.7495 66.0315C30.7495 64.6535 29.0599 63.5391 26.9629 63.5391C24.8659 63.5391 23.1763 64.6535 23.1763 66.0315C23.1763 67.4095 24.8779 68.5359 26.9629 68.5359C29.0479 68.5359 30.7495 67.4095 30.7495 66.0315Z" fill="#FFB5C3"/>
<path d="M68.5075 56.3705C67.8725 56.3595 67.3134 56.8053 67.2184 57.4508C67.0318 58.5382 65.9611 59.4665 64.858 59.4953C63.7551 59.5122 62.6438 58.6301 62.4228 57.5476C62.2791 56.85 61.6039 56.3949 60.9063 56.5387C60.2087 56.6824 59.7536 57.3577 59.8973 58.0552C60.3609 60.3523 62.5474 62.1279 64.9093 62.0729C67.2471 62.0294 69.3763 60.1847 69.7637 57.8783C69.8838 57.1733 69.4037 56.5178 68.6987 56.3978C68.6272 56.3726 68.5674 56.3715 68.5075 56.3705Z" fill="#290A3C"/>
<path d="M34.7555 56.3067C34.1204 56.3067 33.5811 56.762 33.4853 57.4091C33.3295 58.4995 32.263 59.4462 31.1606 59.4941C30.0582 59.5301 28.9318 58.6673 28.6921 57.5888C28.5363 56.8938 27.8533 56.4505 27.1583 56.6063C26.4633 56.762 26.0199 57.445 26.1757 58.1401C26.679 60.4288 28.8958 62.1663 31.2564 62.0704C33.5931 61.9866 35.7021 60.1052 36.0376 57.7925C36.1454 57.0856 35.6542 56.4385 34.9472 56.3306C34.8753 56.3067 34.8154 56.3067 34.7555 56.3067Z" fill="#290A3C"/>
</svg>
