<svg width="378" height="121" viewBox="0 0 378 121" fill="none" xmlns="http://www.w3.org/2000/svg">
<path opacity="0.3" d="M2.66032 149.989C42.2495 100.097 92.6932 58.8655 149.463 29.9949C152.316 28.542 155.325 27.0894 158.524 27.1288C161.722 27.1682 165.138 29.2012 165.63 32.3676C166.058 35.1481 164.221 37.7154 162.48 39.9268C157.187 46.6509 151.901 53.3793 146.608 60.1033C142.718 65.053 138.703 71.9284 142.252 77.1279C144.59 80.5455 149.447 81.4259 153.434 80.3143C157.421 79.2026 160.756 76.5315 163.998 73.9581C163.998 73.9581 290.045 -10.8451 338.196 -26.3903C288.57 -12.078 243.432 9.64938 200.215 37.9295C196.753 40.1973 191.091 43.1684 187.017 43.912C182.942 44.6557 178.182 43.3387 176.168 39.7234C173.101 34.2253 177.726 27.7374 182.053 23.167C187.935 16.9493 193.813 10.7323 199.695 4.51458C201.629 2.47067 203.696 0.0814507 203.517 -2.72554C203.319 -5.91924 200.103 -8.2554 196.918 -8.58455C193.733 -8.91369 190.608 -7.73949 187.635 -6.55435C128.473 17.0359 50.6177 68.6386 4.33042 126.044L2.66032 149.989Z" fill="#1F2052"/>
<path opacity="0.3" d="M254.768 289.95C294.357 240.058 344.801 198.826 401.571 169.956C404.424 168.503 407.433 167.05 410.631 167.09C413.83 167.129 417.246 169.162 417.738 172.329C418.166 175.109 416.329 177.676 414.588 179.888C409.295 186.612 404.008 193.34 398.716 200.064C394.826 205.014 390.811 211.889 394.36 217.089C396.698 220.506 401.554 221.387 405.542 220.275C409.529 219.164 412.864 216.492 416.106 213.919C416.106 213.919 542.153 129.116 590.304 113.571C540.678 127.883 495.54 149.61 452.323 177.89C448.861 180.158 443.199 183.129 439.124 183.873C435.05 184.617 430.29 183.3 428.276 179.684C425.209 174.186 429.834 167.698 434.161 163.128C440.043 156.91 445.92 150.693 451.802 144.476C453.736 142.432 455.803 140.042 455.625 137.235C455.427 134.042 452.21 131.706 449.026 131.376C445.841 131.047 442.716 132.221 439.743 133.407C380.581 156.997 302.725 208.6 256.438 266.005L254.768 289.95Z" fill="#1F2052"/>
<path opacity="0.3" d="M193.967 287.788C192.33 270.836 298.164 272.675 281.403 269.675C235.129 261.391 236.343 218.176 263.104 185.083C279.268 165.097 327.181 128.981 342.075 112.415C345.61 108.486 349.071 103.863 349.022 98.574C348.962 91.9168 343.095 86.4452 336.692 84.6087C325.628 81.4327 311.695 84.9263 300.853 87.6139C284.216 91.7332 268.325 98.3955 252.674 105.28C229.093 115.66 206.632 128.532 185.457 143.18C185.262 143.316 185.071 143.446 184.881 143.582C158.51 161.89 134.342 183.386 113.194 207.54C105.011 216.889 98.1184 227.298 92.6551 238.454C135.098 184.487 199.454 137.804 272.757 107.813C278.416 105.5 284.264 103.243 290.257 102.443C296.249 101.643 302.502 102.539 305.652 105.783C309.231 109.467 308.905 115.865 304.416 120.113C300.08 124.214 295.339 128.873 290.026 132.8C263.356 152.5 238.671 173.703 216.389 196.041C206.319 206.134 196.656 216.57 190.005 227.766C183.359 238.962 179.876 251.07 182.696 261.723L193.967 287.788Z" fill="#1F2052"/>
<path opacity="0.4" d="M151.613 19.8686C152.094 19.8077 152.434 19.3687 152.373 18.888C152.312 18.4074 151.873 18.0671 151.393 18.128C150.912 18.1889 150.572 18.6279 150.632 19.1086C150.693 19.5892 151.132 19.9295 151.613 19.8686Z" fill="white"/>
<path opacity="0.4" d="M81.3229 65.3178C81.8036 65.2569 82.1438 64.8179 82.0829 64.3372C82.022 63.8566 81.583 63.5163 81.1023 63.5772C80.6217 63.6381 80.2814 64.0771 80.3423 64.5578C80.4032 65.0384 80.8423 65.3787 81.3229 65.3178Z" fill="white"/>
<path opacity="0.4" d="M238.957 22.3139C239.437 22.253 239.778 21.814 239.717 21.3333C239.656 20.8527 239.217 20.5124 238.736 20.5733C238.256 20.6342 237.915 21.0732 237.976 21.5539C238.037 22.0345 238.476 22.3748 238.957 22.3139Z" fill="white"/>
<path opacity="0.4" d="M178.128 90.5327C178.608 90.4717 178.949 90.0327 178.888 89.5521C178.827 89.0714 178.388 88.7312 177.907 88.7921C177.427 88.853 177.086 89.292 177.147 89.7726C177.208 90.2533 177.647 90.5936 178.128 90.5327Z" fill="white"/>
<path opacity="0.4" d="M291.397 49.7983C291.878 49.7374 292.218 49.2984 292.157 48.8177C292.096 48.3371 291.657 47.9968 291.177 48.0577C290.696 48.1186 290.356 48.5576 290.417 49.0383C290.478 49.5189 290.917 49.8592 291.397 49.7983Z" fill="white"/>
<path opacity="0.4" d="M146.944 79.1108C147.425 79.0499 147.765 78.6109 147.704 78.1302C147.643 77.6496 147.204 77.3093 146.723 77.3702C146.243 77.4311 145.903 77.8701 145.963 78.3508C146.024 78.8314 146.463 79.1717 146.944 79.1108Z" fill="white"/>
<path opacity="0.4" d="M207.42 53.935C207.9 53.8741 208.241 53.4351 208.18 52.9544C208.119 52.4738 207.68 52.1335 207.199 52.1944C206.719 52.2553 206.378 52.6943 206.439 53.175C206.5 53.6556 206.939 53.9959 207.42 53.935Z" fill="white"/>
<path opacity="0.7" d="M208.897 88.4684L211.815 87.5327L208.755 87.3545L209.381 86.1484L208.363 87.0505L207.428 84.1322L207.254 87.191L206.044 86.5713L206.945 87.5839L204.032 88.5189L207.086 88.6978L206.467 89.9082L207.484 89.0012L208.414 91.9201L208.593 88.8607L209.804 89.4854L208.897 88.4684Z" fill="#282964"/>
<path opacity="0.7" d="M354.099 77.5733L357.017 76.6376L353.957 76.4593L354.578 75.2539L353.565 76.1553L352.629 73.2371L352.451 76.2965L351.241 75.6767L352.147 76.6887L349.229 77.6244L352.288 77.8027L351.664 79.0137L352.681 78.1067L353.616 81.0249L353.795 77.9655L355.001 78.5908L354.099 77.5733Z" fill="#282964"/>
<path opacity="0.7" d="M274.362 21.0381L277.28 20.1024L274.221 19.9242L274.841 18.7187L273.829 19.6202L272.893 16.7019L272.715 19.7613L271.504 19.1416L272.411 20.1535L269.492 21.0892L272.552 21.2675L271.927 22.4785L272.944 21.5715L273.88 24.4898L274.058 21.4304L275.264 22.0557L274.362 21.0381Z" fill="#282964"/>
<path opacity="0.7" d="M111.62 82.1788L114.539 81.243L111.479 81.0648L112.104 79.8538L111.087 80.7608L110.151 77.8425L109.973 80.9019L108.767 80.2766L109.669 81.2942L106.751 82.2299L109.81 82.4081L109.19 83.6136L110.202 82.7121L111.138 85.6304L111.316 82.571L112.527 83.1907L111.62 82.1788Z" fill="#282964"/>
<path opacity="0.7" d="M45.2883 93.0147L48.2066 92.079L45.1472 91.9007L45.7669 90.6903L44.75 91.5974L43.8192 88.6785L43.641 91.7379L42.43 91.1132L43.337 92.1301L40.4187 93.0658L43.4781 93.2441L42.8528 94.4501L43.8703 93.5481L44.8061 96.4663L44.9794 93.4076L46.1897 94.0273L45.2883 93.0147Z" fill="#282964"/>
<path opacity="0.7" d="M72.3137 34.0616L75.232 33.1259L72.1726 32.9476L72.7929 31.7422L71.7803 32.6436L70.8446 29.7253L70.6664 32.7847L69.456 32.165L70.3624 33.177L67.4441 34.1127L70.5035 34.2909L69.8788 35.502L70.8957 34.595L71.8314 37.5132L72.0097 34.4538L73.2158 35.0791L72.3137 34.0616Z" fill="#282964"/>
</svg>
