<svg width="21" height="21" viewBox="0 0 21 21" fill="none" xmlns="http://www.w3.org/2000/svg">
<path d="M20.8321 15.1956C20.6305 14.9646 20.292 14.8792 19.9942 14.9786C19.1593 15.2572 18.2537 15.4 17.2999 15.4C12.7372 15.4 9.02603 11.9448 9.02603 7.7C9.02603 5.145 10.3814 2.7664 12.6515 1.3356C12.9087 1.1732 13.0321 0.8806 12.9629 0.5992C12.8937 0.3178 12.6455 0.105 12.3371 0.063C11.9851 0.0154 11.6346 0 11.2825 0C5.0606 0 0 4.7096 0 10.5C0 16.2904 5.0606 21 11.2825 21C15.2314 21 18.8238 19.1324 20.8893 16.0048C21.0562 15.7514 21.0322 15.428 20.8321 15.1956Z" fill="#E4CDF8"/>
</svg>
