<svg width="120" height="113" viewBox="0 0 120 113" fill="none" xmlns="http://www.w3.org/2000/svg">
<path d="M72.1374 77.2773L78.8811 88.2335L65.9462 103.596H52.9027L40.7423 87.9738L48.2699 77.2773H72.1374Z" fill="#592F72"/>
<path d="M78.8861 88.2344C78.8861 88.2344 107.896 90.4776 115.174 98.076C122.451 105.675 119.027 113.925 111.939 113.925C98.8905 113.925 71.2829 114.723 58.2204 113.925L57.4412 96.1351L78.8861 88.2344Z" fill="#592F72"/>
<path d="M41.4981 87.8555C41.4981 87.8555 11.1184 90.4765 3.841 98.0749C-3.43636 105.673 0.757206 110.708 7.0759 113.924C15.9683 118.452 48.0199 117.702 64.6431 112.2L61.5687 96.134L41.4981 87.8555Z" fill="#592F72"/>
<path d="M40.1591 102.777L42.2134 97.4692L39.6538 96.3311C39.6538 96.3311 40.008 93.1906 36.877 92.5862C33.746 91.9817 30.0152 94.0029 26.3789 92.3736C23.0259 90.8719 18.9221 89.4882 15.0921 91.5661C14.5254 91.8731 14.261 92.5484 14.4546 93.1623L14.4687 93.2095C14.6624 93.8282 15.2668 94.2107 15.9138 94.1446C17.2645 94.0076 19.6729 94.036 22.0531 95.4763C26.1569 97.9698 40.1591 102.777 40.1591 102.777Z" fill="#FFECF0"/>
<path d="M16.259 103.082C16.259 103.082 36.5326 99.4791 79.2381 98.9219L83.3608 104.513C83.3608 104.513 72.7352 110.586 62.7613 112.782C52.7874 114.978 18.3558 121.892 2.97932 111.243L16.259 103.082Z" fill="#592F72"/>
<path d="M62.7647 112.786C72.9889 110.425 83.6853 104.371 83.6853 104.371L83.0478 103.289" stroke="#4B1D66" stroke-width="1.5925" stroke-miterlimit="10" stroke-linecap="round"/>
<path d="M79.2405 98.919C79.2405 98.919 32.3225 97.847 19.8032 105.11" stroke="#4B1D66" stroke-width="1.5925" stroke-miterlimit="10" stroke-linecap="round"/>
<path d="M102.274 101.961C102.274 101.961 93.7072 97.9468 87.8513 100.577" stroke="#4B1D66" stroke-width="1.5925" stroke-miterlimit="10" stroke-linecap="round"/>
<path d="M82.3752 103.586L79.2442 98.8164L82.3752 97.121C82.3752 97.121 83.4709 94.3773 86.5405 93.5272C89.6148 92.6819 91.8013 94.0467 95.3007 92.1388C98.5262 90.3773 102.512 88.6819 106.488 90.4529C107.074 90.7126 107.395 91.3643 107.249 91.9924L107.239 92.0396C107.093 92.6724 106.521 93.0975 105.874 93.0833C104.519 93.0502 102.115 93.2675 99.8579 94.892C95.9619 97.6972 82.3752 103.586 82.3752 103.586Z" fill="#FFECF0"/>
<path d="M55.4186 99.089L42.5923 97.8281" stroke="#4B1D66" stroke-width="1.5925" stroke-miterlimit="10" stroke-linecap="round"/>
<path d="M71.7324 93.5312L64.5778 98.7118" stroke="#4B1D66" stroke-width="1.5925" stroke-miterlimit="10" stroke-linecap="round"/>
<path d="M73.5832 23.0311C73.2809 25.9874 70.7072 28.1409 67.8359 27.8481C64.9646 27.5553 62.882 24.9201 63.1842 21.9686C63.4865 19.0123 66.0602 16.8589 68.9315 17.1516C71.7981 17.4397 73.8807 20.0749 73.5832 23.0311Z" fill="#592F72"/>
<path d="M62.8607 25.1794C62.8607 25.1794 71.9846 23.8005 73.4202 15.1914C74.6858 7.58344 69.5808 1.48671 63.9847 0.433594C63.9799 0.433594 50.535 21.1559 62.8607 25.1794Z" fill="#592F72"/>
<path d="M62.6457 1.24819C63.3163 1.57876 63.9538 2.01323 64.5347 2.57521C69.7341 7.57633 66.4426 17.2858 61.7862 21.6682C59.2077 24.0909 55.4392 25.2196 52.1476 23.9823C47.3354 22.1735 45.8289 16.7238 46.8064 11.8691C47.5337 8.25164 49.5408 4.83728 52.5018 2.71216C55.4628 0.591763 59.4627 -0.30551 62.6457 1.24819Z" fill="#FFECEF"/>
<path d="M63.5142 18.7418C64.4256 19.6438 66.0124 20.0121 67.2308 19.5824C68.4492 19.1526 69.4503 18.0051 69.7667 16.6733C70.0501 15.4785 69.7431 14.1185 68.8648 13.3865C67.9864 12.6545 66.4043 12.7017 65.6535 13.6509L63.5142 18.7418Z" fill="#FFECEF"/>
<path d="M64.8445 15.5664L63.8858 32.7279C63.7583 35.9014 61.1846 38.4233 58.011 38.4847C54.3464 38.5602 51.4704 35.3584 51.9379 31.722L53.8741 15.7884L64.8445 15.5664Z" fill="#FFECEF"/>
<path d="M52.5797 26.5471L52.8205 24.1953C52.8205 24.1953 57.543 25.6451 61.798 21.6641C61.798 21.6688 59.347 26.141 52.5797 26.5471Z" fill="#FFCAD2"/>
<path d="M66.7247 12.9759C60.5761 12.6595 54.9657 8.53202 51.8678 3.2145C51.8678 3.2145 57.5253 -2.15497 65.7944 0.985484C72.6467 3.58285 66.7247 12.9759 66.7247 12.9759Z" fill="#592F72"/>
<path d="M66.0458 16.9246C66.7541 16.9955 67.3728 16.6129 67.4294 16.0698C67.472 15.659 67.1839 15.2765 66.74 15.0781" stroke="#040826" stroke-width="1.1144" stroke-miterlimit="10" stroke-linecap="round"/>
<path d="M51.2719 15.5821C51.1302 15.1523 50.8846 14.8123 50.6107 14.4912L50.4785 14.9068C50.7902 14.7887 50.9602 14.6093 51.1349 14.4345C51.3002 14.2504 51.4466 14.0662 51.5789 13.8678C51.8433 13.4759 52.0653 13.0603 52.2258 12.6211C51.8953 12.9564 51.593 13.3011 51.2766 13.6317C51.116 13.7923 50.9649 13.9576 50.7996 14.0992C50.6438 14.2362 50.4596 14.3779 50.3321 14.4109L49.9496 14.5006L50.1999 14.8265C50.4549 15.1618 50.7382 15.4735 51.1302 15.7002C51.1774 15.7285 51.2341 15.7096 51.2624 15.6671C51.2766 15.634 51.2766 15.6057 51.2719 15.5821Z" fill="#040826"/>
<path d="M49.8901 17.0833C50.079 17.4705 50.4001 17.8058 50.8157 18.0089C51.2266 18.2214 51.7366 18.2639 52.1899 18.1317C52.6528 18.0041 53.0117 17.7019 53.3186 17.3902C53.4556 17.2202 53.5925 17.0455 53.7059 16.866C53.805 16.6724 53.9089 16.4835 53.9845 16.2852C53.8098 16.4174 53.6586 16.5591 53.5075 16.7007L53.04 17.088C52.7094 17.3052 52.3977 17.5413 52.0388 17.6263C51.6941 17.735 51.3257 17.7302 50.9621 17.6311C50.6032 17.5272 50.2443 17.3241 49.8901 17.0833Z" fill="#040826"/>
<path d="M54.8354 10.9122C54.6512 11.46 54.5473 12.0267 54.5851 12.6359C54.6087 12.9334 54.6796 13.2592 54.9015 13.5473C55.1282 13.8401 55.5107 13.9676 55.846 13.9582C56.1908 13.9535 56.5308 13.8023 56.7622 13.5898C57.003 13.3773 57.1919 13.1317 57.3336 12.872C57.617 12.3478 57.7964 11.8 57.8862 11.2239C57.9003 11.1341 57.8389 11.0491 57.7492 11.0302C57.6642 11.0161 57.5886 11.068 57.565 11.1436L57.5603 11.153C57.3997 11.663 57.1872 12.1778 56.9133 12.6217C56.6394 13.0515 56.2663 13.4481 55.8271 13.434C55.6099 13.4434 55.4068 13.3868 55.2841 13.2309C55.1471 13.0798 55.081 12.8342 55.0432 12.5839C54.9724 12.0786 55.0196 11.5214 55.1046 10.9877V10.9783C55.1188 10.9027 55.0621 10.8272 54.9865 10.8177C54.9251 10.8083 54.859 10.8508 54.8354 10.9122Z" fill="#040826"/>
<path d="M47.9788 9.83827C47.823 10.3011 47.738 10.7733 47.7474 11.2786C47.7522 11.5289 47.7994 11.8028 47.96 12.0626C48.1158 12.3365 48.4653 12.5065 48.7675 12.4923C49.0839 12.4876 49.372 12.3223 49.5562 12.1287C49.7451 11.9303 49.8915 11.7178 50.0001 11.4911C50.2126 11.0378 50.3448 10.575 50.4109 10.0886C50.4251 9.99883 50.359 9.91383 50.2645 9.89966C50.1842 9.89022 50.1087 9.93744 50.0851 10.013L50.0803 10.0224C49.9434 10.4475 49.7781 10.8819 49.5656 11.2597C49.3531 11.6281 49.065 11.9823 48.7486 11.9634C48.588 11.9681 48.4605 11.9209 48.3755 11.7887C48.2811 11.6564 48.2339 11.4534 48.2055 11.2408C48.1583 10.8158 48.1961 10.3483 48.248 9.90438V9.89494C48.2575 9.81938 48.2008 9.74854 48.1252 9.73438C48.0638 9.73438 47.9977 9.77688 47.9788 9.83827Z" fill="#040826"/>
<path d="M42.8791 34.2869C42.9216 31.4061 52.2627 29.1016 52.2627 29.1016C52.8483 29.7485 53.8542 30.8394 58.0902 30.8394C62.1421 30.8394 63.762 29.791 64.3948 29.1016H68.4042C69.2967 29.1016 70.1137 29.6116 70.4868 30.4239C78.5197 47.9962 74.005 67.6229 72.1538 77.271C71.9838 78.1588 55.219 77.559 47.6583 78.1588C46.0243 78.2957 42.7185 44.7566 42.8791 34.2869Z" fill="#B994DA"/>
<path d="M62.3861 59.1366C61.555 52.4212 60.5396 48.3929 59.7604 49.7152C59.0709 50.8864 59.4534 56.7612 60.4877 62.4281C60.4829 62.4281 62.7403 62.0126 62.3861 59.1366Z" fill="#FFECF0"/>
<path d="M56.8997 59.1366C57.7309 52.4212 58.7462 48.3929 59.5254 49.7152C60.2149 50.8864 59.8324 56.7612 58.7982 62.4281C58.8029 62.4281 56.5456 62.0126 56.8997 59.1366Z" fill="#FFECF0"/>
<path d="M29.2124 57.4736H39.7671L38.0906 68.1936L57.2451 58.8478C57.3112 58.13 57.4009 57.2422 57.5095 56.3024C58.2321 56.3024 58.9593 56.3024 59.6819 56.293C59.6771 57.11 59.663 57.6625 59.663 57.6625C59.663 57.6625 60.0361 62.5928 59.1813 64.2362C57.5567 67.3625 40.9383 77.4308 36.3244 78.6256C36.0364 78.7012 35.7483 78.7579 35.4602 78.7956C31.0069 79.4237 28.0553 76.9255 28.0884 72.4297L29.2124 57.4736Z" fill="#FFECF0"/>
<path d="M61.9595 56.2539C62.1248 57.3117 62.2712 58.3318 62.3846 59.1393L80.9864 67.7532L80.2025 57.477H90.7573L91.8765 72.4426C91.9048 76.9384 88.9533 79.4319 84.5047 78.8085C84.2166 78.766 83.9286 78.7094 83.6405 78.6385C79.0266 77.4437 63.5699 69.0896 60.2689 64.216C59.2913 62.7757 59.7541 57.9257 59.7541 57.9257C59.7541 57.9257 59.7541 57.2551 59.773 56.3011C60.5003 56.287 61.2275 56.2728 61.9595 56.2539Z" fill="#FFECF0"/>
<path d="M77.5042 63.3341C73.3767 51.1264 73.4098 51.117 68.3426 29.1055C71.7333 29.3369 72.0828 28.7843 74.7557 30.1728C82.7745 34.338 90.3258 48.019 92.55 63.3341H77.5042Z" fill="#B994DA"/>
<path d="M40.7556 62.1318C43.1829 53.4849 52.2643 29.1074 52.2643 29.1074C43.1829 28.8004 30.7911 40.6397 27.8254 60.5497L40.7556 62.1318Z" fill="#B994DA"/>
<path d="M42.8786 43.0391L44.7913 58.7555" stroke="#A578CD" stroke-width="1.5925" stroke-miterlimit="10" stroke-linecap="round"/>
<path d="M75.7687 45.6172L74.248 62.4293" stroke="#A578CD" stroke-width="1.5925" stroke-miterlimit="10" stroke-linecap="round"/>
</svg>
