<svg width="16" height="20" viewBox="0 0 16 20" fill="none" xmlns="http://www.w3.org/2000/svg">
<path fill-rule="evenodd" clip-rule="evenodd" d="M8.63007 1.13989C8.63007 0.587608 8.18235 0.139893 7.63007 0.139893C7.07778 0.139893 6.63007 0.587608 6.63007 1.13989V1.88989H6.07265C3.84758 1.88989 2.00598 3.6199 1.86708 5.84064L1.64608 9.37409C1.56182 10.7213 1.10953 12.0195 0.33847 13.1275C-0.358212 14.1285 0.262008 15.5111 1.47294 15.6564L4.88007 16.0653V17.1399C4.88007 18.6587 6.11128 19.8899 7.63007 19.8899C9.14885 19.8899 10.3801 18.6587 10.3801 17.1399V16.0653L13.7872 15.6564C14.9981 15.5111 15.6183 14.1285 14.9217 13.1275C14.1506 12.0195 13.6983 10.7213 13.614 9.37409L13.393 5.84064C13.2541 3.61991 11.4125 1.88989 9.18747 1.88989H8.63007V1.13989ZM6.38007 17.1399C6.38007 17.8302 6.93971 18.3899 7.63007 18.3899C8.32042 18.3899 8.88007 17.8302 8.88007 17.1399V16.3899H6.38007V17.1399Z" fill="#592F72"/>
</svg>
