<svg width="171" height="121" viewBox="0 0 171 121" fill="none" xmlns="http://www.w3.org/2000/svg">
<path d="M65.5817 44.3901L60.1154 36.4277C59.6867 35.7997 59.848 34.9165 60.4815 34.4046L93.6224 7.6993C94.2665 7.18113 95.1693 7.22521 95.6772 7.79827L99.4298 12.0392C99.9376 12.6123 99.8716 13.5166 99.2755 14.0922L67.8479 44.5134C67.1643 45.1833 66.0838 45.1236 65.5817 44.3901Z" fill="#F9FAFB"/>
<path d="M63.1648 69.6499L55.8868 62.3285C55.2829 61.7233 55.3416 60.7091 56.0197 60.1224L87.5951 32.6337C88.2367 32.077 89.189 32.1178 89.7269 32.7274L94.7222 38.3697C95.2422 38.9585 95.1926 39.8617 94.6134 40.4418L65.3203 69.604C64.7154 70.2134 63.7448 70.2291 63.1648 69.6499Z" fill="#F9FAFB"/>
<path d="M63.8447 53.9965L57.5586 46.8954C57.2004 46.4944 57.2414 45.8733 57.6427 45.5206L79.9102 25.8136C80.3111 25.4554 80.9322 25.4964 81.2849 25.8977L87.571 32.9988C87.9292 33.3997 87.8882 34.0208 87.4869 34.3736L65.2194 54.0805C64.8185 54.4388 64.1974 54.3978 63.8447 53.9965Z" fill="#592F72"/>
<path d="M11.301 15.2455L3.76699 9.20562C3.1775 8.73191 3.07319 7.83909 3.53547 7.16204L27.5516 -27.9713C28.0191 -28.6543 28.8931 -28.8732 29.5441 -28.4699L34.3654 -25.4934C35.0164 -25.0901 35.2137 -24.209 34.8097 -23.4862L13.5012 14.7164C13.0437 15.5477 11.9898 15.8009 11.301 15.2455Z" fill="#F9FAFB"/>
<path d="M16.2786 40.1228L7.1981 35.2195C6.44744 34.8118 6.21006 33.8286 6.68878 33.0676L28.9845 -2.36391C29.4383 -3.08455 30.3611 -3.31785 31.0524 -2.88965L37.4638 1.07284C38.132 1.48604 38.3459 2.36596 37.9584 3.08766L18.3321 39.4656C17.919 40.2166 17.0006 40.5158 16.2786 40.1228Z" fill="#F9FAFB"/>
<path d="M12.4076 24.9421L4.34309 19.9592C3.88234 19.6756 3.74269 19.0777 4.02633 18.617L19.6571 -6.67693C19.9407 -7.13769 20.5386 -7.27733 20.9993 -6.99369L29.0638 -2.01084C29.5246 -1.72721 29.6646 -1.12386 29.3806 -0.668596L13.7498 24.6253C13.4662 25.086 12.8629 25.2261 12.4076 24.9421Z" fill="#592F72"/>
<path d="M107.172 38.5386L112.342 46.6975C112.75 47.3381 112.587 48.1992 111.975 48.6987L70.1035 82.5837C69.4543 83.1077 68.5338 83.0483 68.0076 82.4488L64.3521 78.2565C63.8259 77.6571 63.896 76.7305 64.5035 76.1596L104.86 38.3134C105.566 37.6475 106.677 37.7549 107.172 38.5386Z" fill="#F9FAFB"/>
<path d="M80.2721 94.3866L74.6507 86.1697C74.2098 85.5259 74.3645 84.6267 75.0039 84.1199L108.337 57.65C108.982 57.1374 109.903 57.2023 110.417 57.797L114.264 62.1972C114.784 62.7915 114.724 63.712 114.128 64.2821L82.5703 94.5741C81.8852 95.222 80.7922 95.141 80.2721 94.3866Z" fill="#F9FAFB"/>
<path d="M81.8419 82.7753L75.5976 75.6383C75.2444 75.2315 75.2858 74.6159 75.6871 74.2631L98.0624 54.6814C98.4692 54.3283 99.0848 54.3696 99.4375 54.7709L105.682 61.908C106.035 62.3148 105.994 62.9304 105.592 63.2831L83.217 82.8649C82.8157 83.2176 82.2001 83.1763 81.8419 82.7753Z" fill="#592F72"/>
<path d="M142.124 68.4838L147.416 76.5628C147.834 77.1971 147.688 78.0626 147.076 78.5675L105.728 113.085C105.091 113.62 104.166 113.572 103.629 112.978L99.9051 108.84C99.3738 108.247 99.4273 107.321 100.023 106.74L139.797 68.2817C140.503 67.6103 141.619 67.7063 142.124 68.4838Z" fill="#F9FAFB"/>
<path d="M87.887 110.479L80.4171 103.342C79.7975 102.749 79.9964 101.604 80.8506 100.845L120.761 65.3033C121.573 64.5806 122.665 64.4849 123.208 65.0888L128.256 70.6834C128.781 71.2663 128.612 72.2879 127.867 73.0227L90.3793 110.107C89.598 110.883 88.4831 111.052 87.887 110.479Z" fill="#F9FAFB"/>
<path d="M101.631 104.693L95.2768 97.6519C94.9185 97.251 94.9489 96.6361 95.3494 96.2724L117.426 76.3574C117.827 75.9992 118.442 76.0295 118.806 76.4301L125.16 83.4715C125.518 83.8724 125.487 84.4873 125.087 84.851L103.01 104.766C102.609 105.124 101.988 105.089 101.631 104.693Z" fill="#592F72"/>
<path d="M76.1142 -12.2399L83.2748 -5.76082C83.839 -5.25229 83.9144 -4.37959 83.4553 -3.73588L52.1642 40.1022C51.68 40.7807 50.7707 40.969 50.1065 40.5334L45.4614 37.4677C44.7969 37.0267 44.6141 36.1171 45.0467 35.4089L73.822 -11.8481C74.3296 -12.6718 75.4264 -12.8616 76.1142 -12.2399Z" fill="#F9FAFB"/>
<path d="M34.2412 42.0947L25.2134 37.0718C24.462 36.6532 24.3678 35.5002 24.9991 34.5468L54.6414 -9.92001C55.2431 -10.8218 56.2783 -11.1896 56.9542 -10.7438L63.2507 -6.60243C63.9035 -6.17164 64.001 -5.1348 63.4652 -4.2375L36.5543 41.1108C35.9995 42.0535 34.964 42.4987 34.2412 42.0947Z" fill="#F9FAFB"/>
<path d="M46.0733 33.0286L38.1482 27.8211C37.6977 27.5257 37.5742 26.9213 37.8696 26.4708L54.2037 1.62081C54.4991 1.17031 55.1036 1.04678 55.5541 1.34215L63.4791 6.54969C63.9296 6.84506 64.0532 7.44952 63.7578 7.90003L47.4236 32.75C47.1334 33.1946 46.5238 33.324 46.0733 33.0286Z" fill="#592F72"/>
<path d="M183.489 118.498L188.112 126.975C188.478 127.641 188.259 128.489 187.61 128.947L143.6 160C142.92 160.482 142.001 160.362 141.517 159.726L138.144 155.3C137.659 154.664 137.785 153.745 138.434 153.216L181.194 118.106C181.942 117.498 183.042 117.683 183.489 118.498Z" fill="#F9FAFB"/>
<path d="M126.026 155.967L119.163 148.248C118.595 147.607 118.884 146.483 119.792 145.793L162.451 113.599C163.318 112.945 164.416 112.937 164.906 113.583L169.483 119.568C169.961 120.187 169.709 121.198 168.904 121.87L128.537 155.798C127.702 156.505 126.575 156.581 126.026 155.967Z" fill="#F9FAFB"/>
<path d="M116.652 123.017L111.321 114.609C110.901 113.947 111.09 113.057 111.747 112.571L145.982 87.277C146.645 86.7852 147.562 86.8835 148.056 87.4962L151.751 92.0226C152.25 92.6349 152.157 93.552 151.543 94.1013L118.949 123.271C118.236 123.915 117.145 123.79 116.652 123.017Z" fill="#F9FAFB"/>
<path d="M123.126 138.182L116.155 130.575C115.577 129.946 115.68 128.934 116.377 128.38L149.039 102.198C149.705 101.667 150.654 101.747 151.166 102.375L155.926 108.215C156.42 108.822 156.337 109.728 155.734 110.282L125.283 138.236C124.648 138.808 123.681 138.791 123.126 138.182Z" fill="#F9FAFB"/>
<path d="M124.181 127.683L118.187 120.336C117.844 119.917 117.908 119.306 118.326 118.963L141.373 100.175C141.792 99.8321 142.404 99.8958 142.746 100.314L148.74 107.662C149.083 108.08 149.019 108.692 148.601 109.035L125.553 127.822C125.135 128.165 124.523 128.102 124.181 127.683Z" fill="#592F72"/>
</svg>
