<svg width="20" height="20" viewBox="0 0 20 20" fill="none" xmlns="http://www.w3.org/2000/svg">
<path d="M9.44853 0.3591C9.55208 0.139208 9.76572 9.74339e-09 9.99969 9.74339e-09C10.2337 -4.25225e-05 10.4473 0.139165 10.5509 0.359057L12.9483 5.45004C13.1737 5.92874 13.6095 6.26062 14.1135 6.33734L19.4737 7.15409C19.7052 7.18939 19.8976 7.35935 19.9699 7.5926C20.0422 7.8258 19.9819 8.08185 19.8144 8.25304L15.936 12.2162C15.5713 12.5889 15.4049 13.1258 15.4909 13.652L16.4061 19.2469C16.4456 19.4887 16.3508 19.7329 16.1615 19.8769C15.9722 20.0212 15.7213 20.0401 15.5143 19.926L10.7198 17.2845C10.269 17.0361 9.73046 17.0361 9.27957 17.2845L4.48561 19.9259C4.2785 20.04 4.02758 20.0209 3.83833 19.8768C3.64903 19.7327 3.55429 19.4884 3.59381 19.2468L4.50935 13.6522C4.59549 13.1259 4.42904 12.5889 4.06426 12.2162L0.185631 8.25308C0.0181297 8.08189 -0.0422082 7.82585 0.0300999 7.59264C0.102408 7.35944 0.294743 7.18948 0.526275 7.15413L5.88632 6.33743C6.39037 6.26062 6.82613 5.92878 7.05157 5.45L9.44853 0.3591Z" fill="#495087"/>
</svg>
