<svg width="18" height="20" viewBox="0 0 18 20" fill="none" xmlns="http://www.w3.org/2000/svg">
<path d="M17.6945 15.6135C17.8743 15.0415 17.5563 14.4322 16.9844 14.2525C14.4317 13.4503 13.3477 8.87887 13.0936 7.19306C13.0564 6.95434 12.9331 6.72278 12.9331 6.72278C12.4643 5.83079 10.6899 5.41457 10.4902 5.39051C10.1315 5.34736 10.0859 5.07303 10.0708 4.97976C10.6974 4.54393 11.1205 3.49165 11.1205 2.54129C11.1205 1.1378 10.9723 0 9.06017 0C9.0345 0 8.93633 0 8.91066 0C6.99845 0 6.85035 1.1378 6.85035 2.54129C6.85035 3.49165 7.27348 4.54393 7.90005 4.97976C7.88496 5.07303 7.82542 5.352 7.48066 5.39051C7.26574 5.41463 5.22872 5.89536 4.95485 6.93331C4.95485 6.93331 4.92118 7.08173 4.9008 7.19725C4.89809 7.2128 4.68704 8.78057 4.05551 10.4835C3.51679 11.9361 2.55173 13.7691 1.01324 14.2525C0.441306 14.4322 0.123443 15.0416 0.303144 15.6135C0.447627 16.0732 0.869595 16.3683 1.32652 16.3733C0.411635 16.8995 0.27773 17.6331 0.27773 18.0132C0.27773 18.1643 0.355841 18.6555 0.712792 19.1081C1.03323 19.515 1.67212 20 2.895 20C3.07851 20 3.27253 19.989 3.47184 19.9676C4.28526 19.8802 5.10553 19.7488 5.89857 19.6218C6.18644 19.5756 6.47405 19.5297 6.76212 19.4855C7.14571 19.4266 7.83735 19.3876 8.81739 19.3696H9.15337C10.1334 19.3876 10.8251 19.4266 11.2086 19.4855C11.4967 19.5297 11.7843 19.5756 12.0722 19.6218C12.8652 19.7488 13.6855 19.8802 14.4989 19.9676C14.6983 19.989 14.8923 20 15.0758 20C16.2986 20 16.9375 19.5149 17.258 19.1081C17.6149 18.6555 17.693 18.1643 17.693 18.0132C17.693 17.633 17.5591 16.8994 16.644 16.3732C16.6491 16.3733 16.6542 16.3738 16.6593 16.3738C17.1208 16.3738 17.5488 16.077 17.6945 15.6135ZM5.01258 15.4761C4.462 15.6474 4.33557 15.6654 3.86459 15.7323C3.71133 15.7539 3.52292 15.7807 3.27337 15.8192C3.02897 15.8452 2.80489 15.8801 2.59836 15.922C4.01397 15.1399 5.15571 13.6488 6.0019 11.4721C6.04912 11.8962 6.07834 12.3633 6.07834 12.8769C6.07834 14.5525 5.22963 15.4085 5.01258 15.4761ZM14.6974 15.8192C14.4478 15.7807 14.2598 15.7511 14.1062 15.7323C12.6229 15.5496 11.8924 14.5525 11.8924 12.8769C11.8924 12.3414 11.924 11.8559 11.9749 11.4176C12.8262 13.6318 13.9803 15.1445 15.4149 15.9308C15.1968 15.8849 14.9586 15.847 14.6974 15.8192Z" fill="#B994DA"/>
</svg>
