<svg width="22" height="22" viewBox="0 0 22 22" fill="none" xmlns="http://www.w3.org/2000/svg">
<circle cx="11" cy="11" r="11" fill="#B994DA"/>
<g clip-path="url(#clip0)">
<path d="M12.7523 15.013H6.71317C6.31203 15.013 5.98566 14.6867 5.98566 14.2855V6.71317C5.98566 6.312 6.31203 5.98566 6.71317 5.98566H14.2855C14.6867 5.98566 15.013 6.312 15.013 6.71317V12.7523C15.013 13.0245 15.2337 13.2451 15.5059 13.2451C15.778 13.2451 15.9987 13.0245 15.9987 12.7523V6.71317C15.9987 5.76853 15.2302 5 14.2855 5H6.71317C5.76853 5 5 5.76853 5 6.71317V14.2855C5 15.2302 5.76853 15.9987 6.71317 15.9987H12.7523C13.0244 15.9987 13.2451 15.778 13.2451 15.5059C13.2451 15.2337 13.0245 15.013 12.7523 15.013Z" fill="#040826"/>
<path d="M10.9703 8.30642C10.6432 8.14292 10.257 8.38096 10.257 8.74722V10.257H9.74853C8.92466 10.257 8.25439 10.9273 8.25439 11.7511C8.25439 12.575 8.92466 13.2453 9.74853 13.2453C10.5724 13.2453 11.2427 12.575 11.2427 11.7511C11.2427 11.5062 11.2427 9.767 11.2427 9.54464L12.0314 9.93902C12.2748 10.0607 12.5708 9.96205 12.6926 9.71861C12.8143 9.47516 12.7156 9.17915 12.4722 9.0574L10.9703 8.30642ZM10.257 11.7511C10.257 12.0315 10.0289 12.2596 9.74853 12.2596C9.46816 12.2596 9.24005 12.0315 9.24005 11.7511C9.24005 11.4708 9.46818 11.2426 9.74853 11.2426H10.257V11.7511Z" fill="#040826"/>
<path d="M16.5071 15.013H15.9987V14.5045C15.9987 14.2324 15.778 14.0117 15.5058 14.0117C15.2337 14.0117 15.013 14.2324 15.013 14.5045V15.013H14.5045C14.2324 15.013 14.0117 15.2337 14.0117 15.5059C14.0117 15.778 14.2324 15.9987 14.5045 15.9987H15.013V16.5072C15.013 16.7794 15.2337 17 15.5059 17C15.778 17 15.9987 16.7794 15.9987 16.5072V15.9987H16.5072C16.7793 15.9987 17 15.778 17 15.5059C17 15.2337 16.7793 15.013 16.5071 15.013Z" fill="#040826"/>
</g>
<defs>
<clipPath id="clip0">
<rect width="12" height="12" fill="white" transform="translate(5 5)"/>
</clipPath>
</defs>
</svg>
