<svg width="28" height="22" viewBox="0 0 28 22" fill="none" xmlns="http://www.w3.org/2000/svg">
<path d="M16.6648 8.35653L16.4105 8.07745C16.3305 7.98969 16.224 7.94141 16.1102 7.94141C15.9964 7.94141 15.8898 7.98969 15.8098 8.07745L12.2356 11.9989L10.0024 9.54872C9.92248 9.46109 9.81585 9.41274 9.70208 9.41274C9.58837 9.41274 9.4818 9.46109 9.40181 9.54872L9.14737 9.82773C9.06738 9.91563 9.02344 10.0327 9.02344 10.1574C9.02344 10.2821 9.06738 10.3991 9.14737 10.4869L11.6687 13.2531C11.6721 13.2583 11.6756 13.2631 11.6797 13.2675L11.9342 13.5421C12.0141 13.6295 12.1207 13.6732 12.2354 13.6732H12.2367C12.3505 13.6732 12.4572 13.6295 12.537 13.5421L12.7915 13.2651C12.7956 13.2607 12.7991 13.257 12.8011 13.2533L16.6648 9.01472C16.8305 8.83331 16.8305 8.53816 16.6648 8.35653Z" fill="#040826"/>
<circle cx="13" cy="11" r="11" fill="#B994DA"/>
<path d="M8.60105 12.2366C8.64197 12.2436 8.68338 12.2468 8.72481 12.2462L15.7796 12.2462L15.6258 12.3213C15.4754 12.396 15.3386 12.4976 15.2215 12.6216L13.2432 14.6978C12.9826 14.9588 12.9388 15.3787 13.1394 15.6927C13.3729 16.0273 13.8206 16.0999 14.1394 15.8549C14.1652 15.8351 14.1897 15.8135 14.2127 15.7903L17.7902 12.036C18.0697 11.7429 18.07 11.2675 17.7907 10.9741C17.7905 10.9739 17.7903 10.9737 17.7902 10.9735L14.2127 7.21918C13.9329 6.92637 13.4799 6.92702 13.2008 7.22066C13.1789 7.24377 13.1584 7.26836 13.1394 7.29427C12.9389 7.60824 12.9826 8.02814 13.2432 8.28916L15.2179 10.3691C15.3229 10.4793 15.4436 10.5718 15.5757 10.6431L15.7903 10.7445L8.76418 10.7445C8.39868 10.7302 8.078 10.9982 8.00933 11.3752C7.94608 11.7845 8.21099 12.1702 8.60105 12.2366Z" fill="#040826"/>
</svg>
