<svg width="375" height="667" viewBox="0 0 375 667" fill="none" xmlns="http://www.w3.org/2000/svg">
<defs>
<filter id="filter0_f_1291_9" x="-481" y="-368" width="1468.84" height="1465.51" filterUnits="userSpaceOnUse" color-interpolation-filters="sRGB">
<feFlood flood-opacity="0" result="BackgroundImageFix"/>
<feBlend mode="normal" in="SourceGraphic" in2="BackgroundImageFix" result="shape"/>
<feGaussianBlur stdDeviation="4.5" result="effect1_foregroundBlur_1291_9"/>
</filter>
<linearGradient id="paint0_linear_1291_9" x1="85.5" y1="-49.5" x2="375" y2="926.5" gradientUnits="userSpaceOnUse">
<stop offset="0.0202091" stop-color="#DA90AA"/>
<stop offset="0.676197" stop-color="#B994DA"/>
</linearGradient>
<linearGradient id="paint1_linear_1291_9" x1="322.473" y1="309.237" x2="251.207" y2="480.671" gradientUnits="userSpaceOnUse">
<stop stop-color="#FFFAF2"/>
<stop offset="0.3727" stop-color="#FFF0D9" stop-opacity="0.6264"/>
<stop offset="0.7332" stop-color="#FFE9C7" stop-opacity="0.265"/>
<stop offset="0.9975" stop-color="#FFE6C1" stop-opacity="0"/>
</linearGradient>
<linearGradient id="paint2_linear_1291_9" x1="333.439" y1="222.455" x2="258.953" y2="392.515" gradientUnits="userSpaceOnUse">
<stop stop-color="#FFFAF2"/>
<stop offset="0.3727" stop-color="#FFF0D9" stop-opacity="0.6264"/>
<stop offset="0.7332" stop-color="#FFE9C7" stop-opacity="0.265"/>
<stop offset="0.9975" stop-color="#FFE6C1" stop-opacity="0"/>
</linearGradient>
<linearGradient id="paint3_linear_1291_9" x1="200.948" y1="363.741" x2="120.897" y2="545.627" gradientUnits="userSpaceOnUse">
<stop stop-color="#FFFAF2"/>
<stop offset="0.3727" stop-color="#FFF0D9" stop-opacity="0.6264"/>
</linearGradient>
<linearGradient id="paint4_linear_1291_9" x1="166" y1="459" x2="150" y2="600" gradientUnits="userSpaceOnUse">
<stop stop-color="#FFF0D9"/>
<stop offset="1" stop-color="#9C71BC"/>
</linearGradient>
<linearGradient id="paint5_linear_1291_9" x1="146.727" y1="518.339" x2="119.622" y2="685.504" gradientUnits="userSpaceOnUse">
<stop stop-color="#FFF0D9"/>
<stop offset="0.789731" stop-color="#A67ABD"/>
</linearGradient>
</defs>
<path d="M0 0H375V667H0V0Z" fill="url(#paint0_linear_1291_9)"/>
<g filter="url(#filter0_f_1291_9)">
<path d="M-160.215 126.199L-220.972 359.573C-197.13 366.359 -173.079 373.233 -148.909 380.138C1.47203 423.067 157.413 467.307 306.382 501.666C456.901 536.377 610 574.976 756.722 568.979C740.245 545.238 697.051 529.891 665.852 536.676C663.543 525.831 641.736 515.269 628.459 518.858C626.382 495.888 602.779 468.964 572.372 455.755C541.96 442.562 504.477 441.159 479.278 452.297C467.212 439.013 442.011 429.661 422.32 431.274C412.924 413.155 387.102 399.778 364.311 405.417C363.379 380.413 342.263 353.201 310.218 337.115C278.174 321.029 237.099 316.564 206.806 325.883C196.973 318.115 176.751 315.165 165.105 318.208C146.672 288.376 90.1791 264.088 48.7943 267.813C48.3231 247.643 25.1487 224.098 0.749694 209.594C-23.6692 195.069 -56.0941 188.329 -83.1291 192.131C-85.2664 175.305 -107.001 157.173 -125.393 143.841C-135.491 136.499 -147.474 130.486 -160.215 126.199Z" fill="url(#paint1_linear_1291_9)"/>
<path d="M-145.71 30.3471L-210.858 262.534C-187.148 269.768 -163.232 277.095 -139.196 284.455C10.349 330.212 165.428 377.385 313.722 414.547C463.56 452.09 615.904 493.57 762.713 490.341C746.686 466.293 703.789 450.134 672.468 456.33C670.365 445.443 648.76 434.472 635.418 437.81C633.775 414.804 610.683 387.44 580.531 373.66C550.374 359.896 512.923 357.787 487.519 368.448C475.705 354.938 450.685 345.113 430.967 346.354C421.915 328.06 396.35 314.199 373.456 319.407C372.996 294.39 352.397 266.785 320.661 250.097C288.926 233.41 247.943 228.172 217.479 236.917C207.795 228.966 187.632 225.634 175.93 228.457C158.063 198.283 102.038 172.933 60.5907 175.877C60.5 155.702 37.7738 131.725 13.6526 116.763C-10.4881 101.78 -42.7801 94.4295 -69.882 97.7209C-71.7016 80.8581 -93.0908 62.3188 -111.228 48.6431C-121.185 41.1113 -133.053 34.8736 -145.71 30.3471Z" fill="url(#paint2_linear_1291_9)" fill-opacity="0.7"/>
<path d="M-147.273 229.507L-200.726 485.268C-183.441 489.501 -166.006 493.801 -148.484 498.119C-39.4668 524.95 73.5917 552.479 181.891 570.373C291.318 588.449 402.497 610.335 510.658 585.599C499.428 562.415 468.228 551.501 445.022 562.62C443.731 551.377 428.084 542.875 418.182 548.352C417.516 524.187 401.163 498.511 379.289 488.27C357.412 478.047 329.89 481.246 310.935 496.243C302.557 483.627 284.368 476.836 269.822 481.015C263.59 462.923 245.096 451.93 228.118 460.778C228.37 434.307 213.857 408.013 190.887 394.918C167.917 381.823 137.868 382.215 115.234 395.915C108.291 388.886 93.5258 388.279 84.8438 392.972C72.4031 363.557 31.7553 344.799 1.17089 353.938C1.58101 332.55 -14.5838 310.413 -31.9888 298.044C-49.4076 285.653 -73.0081 282.544 -93.0391 289.97C-93.9801 272.346 -109.289 255.784 -122.319 243.91C-129.472 237.366 -138.061 232.471 -147.273 229.507Z" fill="url(#paint3_linear_1291_9)"/>
</g>
<path d="M-717 715.524H1492.44C1476.44 656.109 1337.55 573.103 1123.6 605.975C1030.88 620.227 934.636 535.804 831.805 545.473C686.608 559.142 701.52 599.762 540.614 599.432C357.516 599.063 249.909 512.756 80.8483 521.474C-66.5627 529.066 -101.28 587.51 -282.825 590.947C-403.363 593.238 -490.059 484 -614.267 484C-649.663 484 -687.273 490.427 -717 498.329L-717 715.524Z" fill="url(#paint4_linear_1291_9)"/>
<path d="M-678.73 730.107L939.63 644.413C895.719 594.698 735.662 537.877 596.462 565.376C484.586 587.478 466.399 605.718 321.618 613.384C177.147 621.034 89.845 534.013 -78.9327 557.048C-194.411 572.818 -245.384 628.422 -388.534 637.872C-483.573 644.167 -579.345 597.689 -652.715 601.574C-663.709 602.156 -674.587 603.083 -685.393 604.263L-678.73 730.107H-678.73Z" fill="url(#paint5_linear_1291_9)"/>

</svg>
